<svg width="135" height="27" viewBox="0 0 135 27" fill="none" xmlns="http://www.w3.org/2000/svg">
<path d="M28.1008 5.21158L22.0384 23.2145H20.0348L14.7688 7.86058L9.47707 23.2145H7.4991L1.43677 5.21158H3.38904L8.57799 20.6941L13.9467 5.21158H15.7192L21.0109 20.7712L26.2769 5.21158H28.1008Z" fill="#494949"/>
<path d="M46.6135 5.21158V23.2145H44.7383V14.9074H33.487V23.2145H31.5861V5.21158H33.487V13.2357H44.7383V5.21158H46.6135Z" fill="#494949"/>
<path d="M60.343 23.3688C58.562 23.3688 56.9437 22.9744 55.488 22.1857C54.0495 21.3799 52.9192 20.2826 52.0972 18.8938C51.2923 17.505 50.8899 15.9447 50.8899 14.213C50.8899 12.4813 51.2923 10.9211 52.0972 9.53228C52.9192 8.14348 54.0495 7.05474 55.488 6.26604C56.9437 5.4602 58.562 5.05728 60.343 5.05728C62.124 5.05728 63.7252 5.45162 65.1466 6.24032C66.5852 7.02902 67.7154 8.12634 68.5374 9.53228C69.3595 10.9211 69.7705 12.4813 69.7705 14.213C69.7705 15.9447 69.3595 17.5136 68.5374 18.9195C67.7154 20.3083 66.5852 21.397 65.1466 22.1857C63.7252 22.9744 62.124 23.3688 60.343 23.3688ZM60.343 21.6714C61.7644 21.6714 63.0488 21.3542 64.1962 20.7198C65.3436 20.0683 66.2427 19.1767 66.8934 18.0451C67.5442 16.8963 67.8696 15.619 67.8696 14.213C67.8696 12.8071 67.5442 11.5383 66.8934 10.4067C66.2427 9.25795 65.3436 8.36638 64.1962 7.73199C63.0488 7.08046 61.7644 6.75469 60.343 6.75469C58.9216 6.75469 57.6287 7.08046 56.4642 7.73199C55.3168 8.36638 54.4091 9.25795 53.7412 10.4067C53.0905 11.5383 52.7651 12.8071 52.7651 14.213C52.7651 15.619 53.0905 16.8963 53.7412 18.0451C54.4091 19.1767 55.3168 20.0683 56.4642 20.7198C57.6287 21.3542 58.9216 21.6714 60.343 21.6714Z" fill="#494949"/>
<path d="M85.6606 1.55957H87.3303L78.8533 25.7863H77.1836L85.6606 1.55957Z" fill="#494949"/>
<path d="M107.359 18.4051H97.3403L95.1826 23.2145H93.2046L101.425 5.21158H103.3L111.52 23.2145H109.516L107.359 18.4051ZM106.665 16.862L102.349 7.1919L98.0339 16.862H106.665Z" fill="#494949"/>
<path d="M133.17 5.21158V23.2145H131.346V8.81216L124.282 20.9255H123.383L116.318 8.88932V23.2145H114.495V5.21158H116.062L123.871 18.5594L131.603 5.21158H133.17Z" fill="#494949"/>
<path d="M28.1008 5.21158L22.0384 23.2145H20.0348L14.7688 7.86058L9.47707 23.2145H7.4991L1.43677 5.21158H3.38904L8.57799 20.6941L13.9467 5.21158H15.7192L21.0109 20.7712L26.2769 5.21158H28.1008Z" stroke="#494949" stroke-width="2"/>
<path d="M46.6135 5.21158V23.2145H44.7383V14.9074H33.487V23.2145H31.5861V5.21158H33.487V13.2357H44.7383V5.21158H46.6135Z" stroke="#494949" stroke-width="2"/>
<path d="M60.343 23.3688C58.562 23.3688 56.9437 22.9744 55.488 22.1857C54.0495 21.3799 52.9192 20.2826 52.0972 18.8938C51.2923 17.505 50.8899 15.9447 50.8899 14.213C50.8899 12.4813 51.2923 10.9211 52.0972 9.53228C52.9192 8.14348 54.0495 7.05474 55.488 6.26604C56.9437 5.4602 58.562 5.05728 60.343 5.05728C62.124 5.05728 63.7252 5.45162 65.1466 6.24032C66.5852 7.02902 67.7154 8.12634 68.5374 9.53228C69.3595 10.9211 69.7705 12.4813 69.7705 14.213C69.7705 15.9447 69.3595 17.5136 68.5374 18.9195C67.7154 20.3083 66.5852 21.397 65.1466 22.1857C63.7252 22.9744 62.124 23.3688 60.343 23.3688ZM60.343 21.6714C61.7644 21.6714 63.0488 21.3542 64.1962 20.7198C65.3436 20.0683 66.2427 19.1767 66.8934 18.0451C67.5442 16.8963 67.8696 15.619 67.8696 14.213C67.8696 12.8071 67.5442 11.5383 66.8934 10.4067C66.2427 9.25795 65.3436 8.36638 64.1962 7.73199C63.0488 7.08046 61.7644 6.75469 60.343 6.75469C58.9216 6.75469 57.6287 7.08046 56.4642 7.73199C55.3168 8.36638 54.4091 9.25795 53.7412 10.4067C53.0905 11.5383 52.7651 12.8071 52.7651 14.213C52.7651 15.619 53.0905 16.8963 53.7412 18.0451C54.4091 19.1767 55.3168 20.0683 56.4642 20.7198C57.6287 21.3542 58.9216 21.6714 60.343 21.6714Z" stroke="#494949" stroke-width="2"/>
<path d="M85.6606 1.55957H87.3303L78.8533 25.7863H77.1836L85.6606 1.55957Z" stroke="#494949" stroke-width="2"/>
<path d="M107.359 18.4051H97.3403L95.1826 23.2145H93.2046L101.425 5.21158H103.3L111.52 23.2145H109.516L107.359 18.4051ZM106.665 16.862L102.349 7.1919L98.0339 16.862H106.665Z" stroke="#494949" stroke-width="2"/>
<path d="M133.17 5.21158V23.2145H131.346V8.81216L124.282 20.9255H123.383L116.318 8.88932V23.2145H114.495V5.21158H116.062L123.871 18.5594L131.603 5.21158H133.17Z" stroke="#494949" stroke-width="2"/>
</svg>
