<svg width="42" height="42" viewBox="0 0 42 42" fill="none" xmlns="http://www.w3.org/2000/svg">
<path d="M35.6546 6.05698C31.749 2.15139 26.5592 0 21.0384 0C15.5176 0 10.3212 2.15139 6.42221 6.05698C2.52324 9.96257 0.365234 15.1524 0.365234 20.6732C0.365234 26.1939 2.51662 31.3837 6.42221 35.2893C10.3278 39.1949 15.5176 41.3463 21.0384 41.3463C26.5592 41.3463 31.749 39.1949 35.6546 35.2893C39.5602 31.3837 41.7115 26.1939 41.7115 20.6732C41.7115 15.1524 39.5602 9.96257 35.6546 6.05698ZM21.0384 40.6843C10.0034 40.6843 1.0272 31.7081 1.0272 20.6732C1.0272 9.6382 10.0034 0.661965 21.0384 0.661965C32.0733 0.661965 41.0496 9.6382 41.0496 20.6732C41.0496 31.7081 32.0733 40.6843 21.0384 40.6843Z" fill="black" fill-opacity="0.65"/>
<path d="M21.0385 33.7733C13.8165 33.7733 7.93823 27.8951 7.93823 20.673C7.93823 13.451 13.8165 7.57275 21.0385 7.57275C28.2605 7.57275 34.1388 13.451 34.1388 20.673C34.1388 27.8951 28.2605 33.7733 21.0385 33.7733ZM21.0385 8.23472C14.1806 8.23472 8.6002 13.8151 8.6002 20.673C8.6002 27.531 14.1806 33.1114 21.0385 33.1114C27.8965 33.1114 33.4768 27.531 33.4768 20.673C33.4768 13.8151 27.8965 8.23472 21.0385 8.23472Z" fill="black" fill-opacity="0.65"/>
<path d="M21.0397 8.57227C14.3605 8.57227 8.93896 13.9871 8.93896 20.673C8.93896 27.3588 14.3605 32.7671 21.0397 32.7671C27.7189 32.7671 33.1338 27.3522 33.1338 20.673C33.1338 13.9938 27.7189 8.57227 21.0397 8.57227ZM17.7696 13.9143C18.0013 13.345 18.4448 13.0074 19.0273 12.8419C19.9077 12.5904 20.808 12.4779 21.7281 12.5308C22.5887 12.5838 23.4294 12.7493 24.2436 13.0273C24.9718 13.2788 25.6668 13.5966 26.3288 13.9871C26.3486 14.0004 26.3685 14.0136 26.3817 14.0666C26.2692 14.0467 26.15 14.0269 26.0441 14.0004C25.1703 13.7621 24.2833 13.6429 23.383 13.6363C22.8336 13.6363 22.2842 13.6826 21.7414 13.8283C21.1588 13.9871 20.6359 14.2453 20.199 14.6425C19.4907 15.2912 19.4046 16.1584 19.9739 16.9395C20.199 17.2506 20.4902 17.5154 20.755 17.8001C20.8014 17.853 20.8609 17.8927 20.9073 17.9391C20.9007 17.9523 20.8874 17.9655 20.8808 17.9788C19.6959 17.5088 18.6235 16.8932 17.9748 15.7413C17.6372 15.1721 17.5048 14.5564 17.7696 13.9143ZM22.9263 28.5173C22.1849 28.7291 21.4236 28.8416 20.6557 28.8284C19.5635 28.8151 18.4911 28.6298 17.4783 28.2128C16.8759 27.9612 16.2934 27.6633 15.7042 27.3787C15.6579 27.3588 15.6182 27.3191 15.5454 27.2595C16.0154 27.3588 16.439 27.4647 16.8627 27.5442C17.8689 27.7229 18.8751 27.7891 19.8879 27.6104C20.6094 27.478 21.2714 27.2132 21.8142 26.6969C22.3107 26.2269 22.5291 25.6642 22.3239 24.989C22.1849 24.5389 21.9069 24.1748 21.5759 23.8438C21.4236 23.6982 21.2647 23.5591 21.1125 23.4135C21.1257 23.4003 21.139 23.387 21.1456 23.3738C22.3371 23.8438 23.4095 24.4727 24.0516 25.6377C24.3627 26.2004 24.4819 26.7895 24.237 27.4184C23.9854 28.0142 23.522 28.3451 22.9263 28.5173ZM26.1964 26.624C25.7463 27.2264 25.1571 27.6766 24.5216 28.0605C24.462 28.0936 24.4025 28.1267 24.3363 28.1664C24.3296 28.1598 24.323 28.1532 24.3164 28.1399C24.4356 27.9811 24.568 27.8288 24.6606 27.6567C25.0446 26.9815 24.9453 26.3063 24.6077 25.651C24.1112 24.6911 23.3102 24.0291 22.3901 23.4929C21.3442 22.8839 20.2188 22.447 19.12 21.9506C18.0807 21.4806 17.0414 20.9907 16.2073 20.1831C15.2938 19.2961 14.9165 18.2171 15.0357 16.9527C15.1879 15.4037 16.0617 14.3446 17.3261 13.5569C17.3393 13.5502 17.3525 13.5502 17.3989 13.5436C17.3724 13.6164 17.3459 13.6628 17.3327 13.7224C17.24 14.0732 17.0878 14.4174 17.0613 14.7683C16.9951 15.5891 17.3525 16.2577 17.9483 16.8005C18.4977 17.297 19.1332 17.661 19.7952 17.9788C21.1191 18.6077 22.4497 19.2167 23.767 19.8588C24.568 20.2493 25.316 20.7193 25.9713 21.3416C26.6333 21.9771 27.0305 22.7185 27.0503 23.6584C27.09 24.7374 26.8584 25.737 26.1964 26.624Z" fill="black" fill-opacity="0.65"/>
<path d="M34.7023 7.01038C31.0549 3.36296 26.196 1.35059 21.0393 1.35059C15.8826 1.35059 11.0238 3.35634 7.36976 7.01038C3.71571 10.6644 1.70996 15.51 1.70996 20.6733C1.70996 25.8367 3.72233 30.6889 7.36976 34.3363C11.0172 37.9837 15.876 39.9961 21.0327 39.9961C26.1894 39.9961 31.0482 37.9837 34.6957 34.3363C38.3431 30.6889 40.3555 25.83 40.3555 20.6733C40.3555 15.5166 38.3563 10.6578 34.7023 7.01038ZM21.0393 2.00593C31.2137 2.00593 39.5081 10.1812 39.7001 20.3093H35.2252C35.1326 16.6552 33.6696 13.2262 31.0747 10.6313C28.3938 7.95037 24.8324 6.47419 21.0393 6.47419C17.2463 6.47419 13.6849 7.95037 11.0039 10.6313C8.40904 13.2262 6.93948 16.6486 6.85343 20.3093H2.37855C2.57051 10.1878 10.8649 2.00593 21.0393 2.00593ZM34.5699 20.6733C34.5699 20.7925 34.5699 20.9116 34.5633 21.0308C34.3713 28.3256 28.3805 34.2039 21.0393 34.2039C13.6981 34.2039 7.70736 28.3256 7.51539 21.0308C7.51539 20.9116 7.50877 20.7925 7.50877 20.6733C7.50877 20.5542 7.50877 20.435 7.51539 20.3159C7.70736 13.021 13.6981 7.14278 21.0393 7.14278C28.3805 7.14278 34.3713 13.021 34.5633 20.3159C34.5699 20.435 34.5699 20.5542 34.5699 20.6733ZM21.0393 39.3341C10.8649 39.3341 2.57051 31.1522 2.37855 21.0308H6.85343C6.9461 24.6848 8.40904 28.1138 11.0039 30.7087C13.6849 33.3897 17.2463 34.8659 21.0393 34.8659C24.8324 34.8659 28.3938 33.3897 31.0747 30.7087C33.6696 28.1138 35.1392 24.6915 35.2252 21.0308H39.7001C39.5081 31.1589 31.2071 39.3341 21.0393 39.3341Z" fill="black" fill-opacity="0.65"/>
<path d="M11.8173 6.63972C12.1218 6.41465 12.3998 6.2955 12.6447 6.28888C12.8897 6.28226 13.0949 6.39479 13.267 6.62648C13.3597 6.75225 13.4258 6.88465 13.4589 7.01704C13.492 7.14943 13.492 7.28183 13.4589 7.41422C13.4258 7.54661 13.353 7.68562 13.2405 7.82464C13.1346 7.96365 12.9823 8.10266 12.797 8.24167L10.4669 9.9694L10.4867 8.9566L12.3799 7.55323C12.4726 7.48703 12.5256 7.42084 12.5521 7.36126C12.5719 7.30168 12.5587 7.24211 12.5123 7.17591C12.466 7.10971 12.4064 7.08324 12.3468 7.08324C12.2873 7.08986 12.2078 7.12295 12.1152 7.18915L10.7581 8.19534C10.5993 8.31449 10.447 8.40055 10.3014 8.4535C10.1557 8.50646 10.0234 8.52632 9.9042 8.52632C9.77842 8.5197 9.66589 8.4866 9.5666 8.42702C9.46068 8.36745 9.37463 8.28139 9.29519 8.17548C9.20913 8.05632 9.14956 7.93717 9.12308 7.8114C9.08998 7.68562 9.0966 7.55323 9.1297 7.42746C9.1628 7.29506 9.23561 7.16267 9.34815 7.02366C9.45406 6.88465 9.60631 6.74563 9.79166 6.60662L11.9497 4.99805L11.9364 6.01747L10.2021 7.30168C10.1094 7.36788 10.0564 7.42746 10.03 7.48703C10.0035 7.54661 10.0167 7.60619 10.0631 7.67238C10.1094 7.73858 10.169 7.76506 10.2286 7.75844C10.2948 7.75182 10.3676 7.71872 10.4602 7.65253L11.8173 6.63972Z" fill="black" fill-opacity="0.65"/>
<path d="M17.2269 2.91943L16.1876 5.5011L16.5318 6.46756L15.6183 6.79193L15.2741 5.81884L12.7917 4.49491L13.9568 4.07787L14.9498 4.64054C14.9829 4.6604 15.0226 4.68026 15.0755 4.71336C15.1285 4.73984 15.1814 4.77294 15.241 4.80603C15.3006 4.83913 15.3536 4.86561 15.3999 4.89871C15.4528 4.92519 15.4859 4.95167 15.5058 4.9649C15.519 4.91195 15.5455 4.84575 15.572 4.75308C15.6051 4.6604 15.6448 4.53463 15.7044 4.36914L16.0817 3.32323L17.2269 2.91943Z" fill="black" fill-opacity="0.65"/>
<path d="M19.7801 3.86594C19.853 3.98509 19.9192 4.08439 19.9721 4.17706C20.0251 4.26312 20.078 4.34255 20.1177 4.41537C20.1575 4.48818 20.1972 4.54776 20.2303 4.60734C20.2634 4.66691 20.2965 4.71987 20.323 4.77283C20.3428 4.71325 20.3693 4.66029 20.3958 4.60072C20.4222 4.54114 20.4553 4.47494 20.4884 4.40213C20.5215 4.32931 20.5679 4.24326 20.6142 4.15058C20.6606 4.05791 20.7135 3.95199 20.7797 3.82622L21.2365 2.91933C21.2894 2.82003 21.3556 2.73398 21.4351 2.66778C21.5145 2.60158 21.6204 2.56849 21.7462 2.56187C21.8653 2.55525 21.9779 2.58834 22.0772 2.65454C22.1765 2.72074 22.2559 2.82665 22.3022 2.96566L23.2091 5.65986L22.2493 5.7062L21.905 4.63382C21.8455 4.46171 21.7991 4.30945 21.7594 4.17706C21.7197 4.04467 21.6866 3.91889 21.6535 3.79312C21.6072 3.90565 21.5542 4.02481 21.4946 4.16382C21.4351 4.29621 21.3556 4.46832 21.2629 4.67353L20.879 5.47451C20.8393 5.55395 20.8062 5.61352 20.7665 5.66648C20.7268 5.71282 20.687 5.75254 20.6407 5.77902C20.601 5.80549 20.5546 5.82535 20.5017 5.83197C20.4553 5.83859 20.3958 5.84521 20.3428 5.85183C20.2832 5.85183 20.2303 5.85183 20.1773 5.84521C20.1244 5.83859 20.078 5.82535 20.0383 5.80549C19.992 5.78563 19.9523 5.75254 19.9059 5.7062C19.8596 5.66648 19.8199 5.6069 19.7735 5.52747L19.3168 4.75959C19.2572 4.65368 19.2042 4.56762 19.1579 4.48156C19.1116 4.40213 19.0652 4.32931 19.0321 4.26312C18.9924 4.19692 18.9593 4.13734 18.9328 4.08439C18.9063 4.03143 18.8733 3.97847 18.8468 3.92551C18.8269 4.05129 18.8071 4.18368 18.774 4.31607C18.7475 4.45509 18.7144 4.60734 18.6747 4.78607L18.4297 5.88493L17.4897 5.92465L18.1716 3.15763C18.2113 3.012 18.2775 2.89947 18.3702 2.82665C18.4628 2.75384 18.5754 2.71412 18.6945 2.7075C18.8203 2.70088 18.9262 2.72736 19.0123 2.78031C19.0983 2.83327 19.1711 2.91271 19.2373 3.012L19.7801 3.86594Z" fill="black" fill-opacity="0.65"/>
<path d="M26.1506 3.34978C26.8787 3.56161 27.3818 3.84625 27.6797 4.20371C27.971 4.56118 28.0372 4.99807 27.8849 5.53426C27.7261 6.07046 27.4282 6.40806 26.9979 6.54707C26.5676 6.68608 25.9785 6.64636 25.2503 6.43454C24.5155 6.21609 24.0058 5.93144 23.7212 5.5806C23.4299 5.22976 23.3703 4.77962 23.5226 4.25005C23.6815 3.72048 23.9727 3.38288 24.4096 3.24387C24.8399 3.09823 25.4224 3.13795 26.1506 3.34978ZM25.4688 5.66004C25.7004 5.72623 25.899 5.77919 26.0645 5.80567C26.23 5.83215 26.369 5.83215 26.4882 5.80567C26.6073 5.77919 26.7 5.71961 26.7728 5.63356C26.8456 5.5475 26.9052 5.42173 26.9516 5.26286C26.9979 5.10399 27.0178 4.96497 26.9979 4.85244C26.9847 4.73991 26.9317 4.64061 26.8523 4.55456C26.7662 4.4685 26.6471 4.39568 26.4948 4.32949C26.3426 4.26329 26.144 4.19709 25.9123 4.12428C25.6806 4.05808 25.482 4.00512 25.3165 3.97865C25.151 3.95217 25.012 3.95217 24.8928 3.97203C24.7737 3.99851 24.681 4.05146 24.6082 4.13752C24.5354 4.22357 24.4758 4.34935 24.4295 4.50822C24.3831 4.66709 24.3633 4.8061 24.3831 4.91864C24.3964 5.03117 24.4493 5.13047 24.5288 5.21652C24.6148 5.30258 24.734 5.37539 24.8862 5.44821C25.0451 5.52102 25.2371 5.59384 25.4688 5.66004Z" fill="black" fill-opacity="0.65"/>
<path d="M28.5324 7.79126L27.6851 7.3345L29.1679 4.60059L30.0152 5.05734L28.5324 7.79126Z" fill="black" fill-opacity="0.65"/>
<path d="M32.1265 9.4268L31.1402 9.67173L28.9756 7.9771L30.8953 5.52783L31.6565 6.1236L30.2333 7.944L32.1265 9.4268Z" fill="black" fill-opacity="0.65"/>
<g opacity="0.75">
<path opacity="0.75" d="M30.3276 34.773C30.0231 34.9981 29.7451 35.1173 29.5002 35.1239C29.2552 35.1305 29.05 35.018 28.8779 34.7863C28.7853 34.6605 28.7191 34.5281 28.686 34.3957C28.6529 34.2633 28.6529 34.1309 28.686 33.9985C28.7191 33.8661 28.7919 33.7271 28.9044 33.5881C29.0103 33.4491 29.1626 33.3101 29.3479 33.1711L31.678 31.4434L31.6582 32.4562L29.765 33.8595C29.6723 33.9257 29.6193 33.9919 29.5928 34.0515C29.573 34.1111 29.5862 34.1707 29.6326 34.2369C29.6789 34.303 29.7385 34.3295 29.7981 34.3295C29.8576 34.3229 29.9371 34.2898 30.0297 34.2236L31.3868 33.2174C31.5456 33.0983 31.6979 33.0122 31.8435 32.9593C31.9892 32.9063 32.1216 32.8864 32.2407 32.8864C32.3665 32.8931 32.479 32.9262 32.5783 32.9857C32.6842 33.0453 32.7703 33.1314 32.8497 33.2373C32.9358 33.3564 32.9953 33.4756 33.0218 33.6014C33.0549 33.7271 33.0483 33.8595 33.0152 33.9853C32.9821 34.1177 32.9093 34.2501 32.7968 34.3891C32.6908 34.5281 32.5386 34.6671 32.3532 34.8061L30.182 36.4147L30.1952 35.3953L31.9296 34.1111C32.0223 34.0449 32.0752 33.9853 32.1017 33.9257C32.1282 33.8662 32.1149 33.8066 32.0686 33.7404C32.0223 33.6742 31.9627 33.6477 31.9031 33.6543C31.8369 33.6609 31.7641 33.694 31.6714 33.7602L30.3276 34.773Z" fill="black" fill-opacity="0.65"/>
<path opacity="0.75" d="M24.917 38.4931L25.9563 35.9114L25.6121 34.945L26.5256 34.6206L26.8698 35.5937L29.3522 36.9176L28.1871 37.3347L27.1942 36.772C27.1611 36.7521 27.1213 36.7323 27.0684 36.6992C27.0154 36.6727 26.9625 36.6396 26.9029 36.6065C26.8433 36.5734 26.7904 36.5469 26.744 36.5138C26.6911 36.4873 26.658 36.4609 26.6381 36.4476C26.6249 36.5006 26.5984 36.5668 26.5719 36.6595C26.5388 36.7521 26.4991 36.8779 26.4395 37.0434L26.0622 38.0893L24.917 38.4931Z" fill="black" fill-opacity="0.65"/>
<path opacity="0.75" d="M22.3563 37.5468C22.2834 37.4276 22.2172 37.3283 22.1643 37.2357C22.1113 37.143 22.0584 37.0702 22.0187 36.9973C21.9789 36.9245 21.9392 36.865 21.9061 36.8054C21.873 36.7458 21.8399 36.6928 21.8134 36.6399C21.7936 36.6995 21.7671 36.7524 21.7406 36.812C21.7141 36.8716 21.681 36.9378 21.6479 37.0106C21.6149 37.0834 21.5685 37.1695 21.5222 37.2621C21.4758 37.3548 21.4229 37.4607 21.3567 37.5865L20.8999 38.4934C20.847 38.5927 20.7808 38.6787 20.7013 38.7449C20.6219 38.8111 20.516 38.8442 20.3902 38.8508C20.2711 38.8575 20.1585 38.8244 20.0592 38.7582C19.9599 38.692 19.8805 38.5861 19.8342 38.447L18.9207 35.7462L19.8805 35.6999L20.2247 36.7723C20.2843 36.9444 20.3306 37.0966 20.3704 37.229C20.4101 37.3614 20.4432 37.4872 20.4763 37.613C20.5226 37.5004 20.5756 37.3813 20.6351 37.2423C20.6947 37.1099 20.7742 36.9378 20.8668 36.7326L21.2508 35.9316C21.2905 35.8521 21.3236 35.7926 21.3633 35.7396C21.403 35.6933 21.4427 35.6536 21.4891 35.6271C21.5288 35.6006 21.5751 35.5807 21.6281 35.5741C21.6744 35.5609 21.734 35.5609 21.787 35.5543C21.8399 35.5476 21.8995 35.5543 21.9525 35.5609C22.0054 35.5675 22.0517 35.5807 22.0915 35.6006C22.1378 35.6205 22.1775 35.6536 22.2239 35.6999C22.2702 35.7396 22.3099 35.7992 22.3563 35.8786L22.813 36.6465C22.8726 36.7524 22.9255 36.8385 22.9719 36.9245C23.0182 37.004 23.0646 37.0768 23.0977 37.143C23.1374 37.2092 23.1705 37.2687 23.1969 37.3217C23.2234 37.3747 23.2565 37.4276 23.283 37.4806C23.3029 37.3548 23.3227 37.2224 23.3558 37.09C23.3823 36.951 23.4154 36.7988 23.4551 36.62L23.7 35.5212L24.64 35.4814L23.9582 38.2485C23.9185 38.3941 23.8523 38.5066 23.7596 38.5794C23.6603 38.6523 23.5544 38.692 23.4353 38.6986C23.3095 38.7052 23.2036 38.6787 23.1175 38.6258C23.0315 38.5728 22.9586 38.4934 22.8924 38.3941L22.3563 37.5468Z" fill="black" fill-opacity="0.65"/>
<path opacity="0.75" d="M15.9933 38.0566C15.2652 37.8448 14.7621 37.5601 14.4642 37.2027C14.1729 36.8452 14.1067 36.4083 14.259 35.8721C14.4179 35.3359 14.7158 34.9983 15.146 34.8593C15.5829 34.7203 16.1655 34.76 16.8936 34.9719C17.6284 35.1903 18.1381 35.4749 18.4228 35.8258C18.714 36.1766 18.7736 36.6268 18.6213 37.1563C18.4625 37.6859 18.1712 38.0235 17.7343 38.1625C17.304 38.3082 16.7215 38.2751 15.9933 38.0566ZM16.6685 35.753C16.4369 35.6868 16.2383 35.6338 16.0728 35.6073C15.9073 35.5809 15.7683 35.5809 15.6491 35.6073C15.53 35.6338 15.4373 35.6934 15.3645 35.7794C15.2917 35.8655 15.2321 35.9913 15.1857 36.1501C15.1394 36.309 15.1196 36.448 15.1394 36.5606C15.1526 36.6731 15.2056 36.7724 15.285 36.8584C15.3711 36.9445 15.4903 37.0173 15.6425 37.0835C15.7948 37.1497 15.9933 37.2159 16.225 37.2887C16.4567 37.3549 16.6553 37.4079 16.8208 37.4344C16.9863 37.4608 17.1253 37.4608 17.2445 37.441C17.3636 37.4145 17.4563 37.3615 17.5291 37.2755C17.6019 37.1894 17.6615 37.0637 17.7078 36.9048C17.7542 36.7459 17.774 36.6069 17.7542 36.4944C17.7409 36.3818 17.688 36.2825 17.6085 36.1965C17.5225 36.1104 17.4033 36.0376 17.2511 35.9648C17.0988 35.8854 16.9002 35.8192 16.6685 35.753Z" fill="black" fill-opacity="0.65"/>
<path opacity="0.75" d="M13.6066 33.6147L14.4539 34.0715L12.9711 36.8054L12.1238 36.3487L13.6066 33.6147Z" fill="black" fill-opacity="0.65"/>
<path opacity="0.75" d="M10.0107 31.9861L10.9971 31.7412L13.1617 33.4358L11.242 35.8851L10.4807 35.2893L11.904 33.4689L10.0107 31.9861Z" fill="black" fill-opacity="0.65"/>
</g>
<path d="M30.26 34.7066C29.9555 34.9317 29.6775 35.0509 29.4325 35.0575C29.1876 35.0641 28.9824 34.9516 28.8103 34.7199C28.7176 34.5941 28.6514 34.4617 28.6183 34.3293C28.5852 34.1969 28.5852 34.0645 28.6183 33.9321C28.6514 33.7997 28.7242 33.6607 28.8368 33.5217C28.9427 33.3827 29.0949 33.2437 29.2803 33.1047L31.6104 31.377L31.5906 32.3898L29.6973 33.7931C29.6047 33.8593 29.5517 33.9255 29.5252 33.9851C29.5054 34.0447 29.5186 34.1042 29.5649 34.1704C29.6113 34.2366 29.6709 34.2631 29.7304 34.2631C29.79 34.2565 29.8694 34.2234 29.9621 34.1572L31.3191 33.151C31.478 33.0319 31.6303 32.9458 31.7759 32.8929C31.9215 32.8399 32.0539 32.82 32.1731 32.82C32.2989 32.8267 32.4114 32.8598 32.5107 32.9193C32.6166 32.9789 32.7027 33.065 32.7821 33.1709C32.8681 33.29 32.9277 33.4092 32.9542 33.535C32.9873 33.6607 32.9807 33.7931 32.9476 33.9189C32.9145 34.0513 32.8417 34.1837 32.7291 34.3227C32.6232 34.4617 32.471 34.6007 32.2856 34.7397L30.1144 36.3483L30.1276 35.3289L31.862 34.0447C31.9546 33.9785 32.0076 33.9189 32.0341 33.8593C32.0605 33.7997 32.0473 33.7402 32.001 33.674C31.9546 33.6078 31.8951 33.5813 31.8355 33.5879C31.7693 33.5945 31.6965 33.6276 31.6038 33.6938L30.26 34.7066Z" fill="black" fill-opacity="0.65"/>
<path d="M24.8494 38.4272L25.8887 35.8455L25.5444 34.8791L26.4579 34.5547L26.8022 35.5278L29.2845 36.8517L28.1195 37.2687L27.1265 36.7061C27.0934 36.6862 27.0537 36.6664 27.0008 36.6333C26.9478 36.6068 26.8948 36.5737 26.8353 36.5406C26.7757 36.5075 26.7227 36.481 26.6764 36.4479C26.6234 36.4214 26.5903 36.3949 26.5705 36.3817C26.5572 36.4347 26.5308 36.5009 26.5043 36.5935C26.4712 36.6862 26.4315 36.812 26.3719 36.9775L25.9946 38.0234L24.8494 38.4272Z" fill="black" fill-opacity="0.65"/>
<path d="M22.2886 37.4804C22.2158 37.3612 22.1496 37.2619 22.0967 37.1692C22.0437 37.0766 21.9907 37.0038 21.951 36.9309C21.9113 36.8581 21.8716 36.7985 21.8385 36.739C21.8054 36.6794 21.7723 36.6264 21.7458 36.5735C21.726 36.6331 21.6995 36.686 21.673 36.7456C21.6465 36.8052 21.6134 36.8714 21.5803 36.9442C21.5472 37.017 21.5009 37.1031 21.4545 37.1957C21.4082 37.2884 21.3553 37.3943 21.2891 37.5201L20.8323 38.427C20.7793 38.5263 20.7131 38.6123 20.6337 38.6785C20.5543 38.7447 20.4484 38.7778 20.3226 38.7844C20.2034 38.7911 20.0909 38.758 19.9916 38.6918C19.8923 38.6256 19.8129 38.5197 19.7665 38.3806L18.853 35.6798L19.8129 35.6335L20.1571 36.7059C20.2167 36.878 20.263 37.0302 20.3027 37.1626C20.3424 37.295 20.3755 37.4208 20.4086 37.5466C20.455 37.434 20.5079 37.3149 20.5675 37.1759C20.6271 37.0435 20.7065 36.8714 20.7992 36.6662L21.1831 35.8652C21.2229 35.7857 21.256 35.7262 21.2957 35.6732C21.3354 35.6269 21.3751 35.5872 21.4215 35.5607C21.4612 35.5342 21.5075 35.5143 21.5605 35.5077C21.6068 35.4945 21.6664 35.4945 21.7193 35.4879C21.7723 35.4812 21.8319 35.4879 21.8848 35.4945C21.9378 35.5011 21.9841 35.5143 22.0238 35.5342C22.0702 35.5541 22.1099 35.5871 22.1562 35.6335C22.2026 35.6732 22.2423 35.7328 22.2886 35.8122L22.7454 36.5801C22.805 36.686 22.8579 36.7721 22.9043 36.8581C22.9506 36.9376 22.9969 37.0104 23.03 37.0766C23.0697 37.1428 23.1028 37.2023 23.1293 37.2553C23.1558 37.3083 23.1889 37.3612 23.2154 37.4142C23.2352 37.2884 23.2551 37.156 23.2882 37.0236C23.3147 36.8846 23.3478 36.7323 23.3875 36.5536L23.6324 35.4548L24.5724 35.415L23.8906 38.1821C23.8509 38.3277 23.7847 38.4402 23.692 38.513C23.5927 38.5858 23.4868 38.6256 23.3676 38.6322C23.2419 38.6388 23.1359 38.6123 23.0499 38.5594C22.9638 38.5064 22.891 38.427 22.8248 38.3277L22.2886 37.4804Z" fill="black" fill-opacity="0.65"/>
<path d="M15.9257 37.9902C15.1976 37.7784 14.6945 37.4937 14.3966 37.1363C14.1053 36.7788 14.0391 36.3419 14.1914 35.8057C14.3502 35.2695 14.6481 34.9319 15.0784 34.7929C15.5153 34.6539 16.0978 34.6936 16.826 34.9054C17.5608 35.1239 18.0705 35.4085 18.3551 35.7594C18.6464 36.1102 18.706 36.5604 18.5537 37.0899C18.3948 37.6195 18.1036 37.9571 17.6667 38.0961C17.2364 38.2417 16.6539 38.2087 15.9257 37.9902ZM16.6009 35.6866C16.3692 35.6204 16.1706 35.5674 16.0052 35.5409C15.8397 35.5145 15.7006 35.5145 15.5815 35.5409C15.4623 35.5674 15.3697 35.627 15.2969 35.713C15.224 35.7991 15.1645 35.9249 15.1181 36.0837C15.0718 36.2426 15.0519 36.3816 15.0718 36.4942C15.085 36.6067 15.138 36.706 15.2174 36.792C15.3035 36.8781 15.4226 36.9509 15.5749 37.0171C15.7271 37.0833 15.9257 37.1495 16.1574 37.2223C16.3891 37.2885 16.5877 37.3415 16.7532 37.368C16.9187 37.3944 17.0577 37.3944 17.1768 37.3746C17.296 37.3481 17.3887 37.2951 17.4615 37.2091C17.5343 37.123 17.5939 36.9973 17.6402 36.8384C17.6865 36.6795 17.7064 36.5405 17.6865 36.428C17.6733 36.3154 17.6203 36.2161 17.5409 36.1301C17.4549 36.044 17.3357 35.9712 17.1835 35.8984C17.0312 35.819 16.8326 35.7528 16.6009 35.6866Z" fill="black" fill-opacity="0.65"/>
<path d="M13.539 33.5483L14.3863 34.0051L12.9035 36.739L12.0562 36.2823L13.539 33.5483Z" fill="black" fill-opacity="0.65"/>
<path d="M9.94312 31.9197L10.9294 31.6748L13.0941 33.3694L11.1744 35.8187L10.4131 35.2229L11.8363 33.4025L9.94312 31.9197Z" fill="black" fill-opacity="0.65"/>
</svg>
