<svg width="123" height="25" viewBox="0 0 123 25" fill="none" xmlns="http://www.w3.org/2000/svg">
<g clip-path="url(#clip0_2692_11144)">
<path d="M15.4105 24.6322C15.4105 24.6322 15.3419 24.6322 15.4105 24.6322L2.6571 24.5649C1.56003 24.5649 0.600098 23.6225 0.600098 22.5455V2.48619C0.600098 1.34187 1.49146 0.466797 2.6571 0.466797C3.82273 0.466797 4.71409 1.34187 4.71409 2.48619V20.5261L15.4105 20.5934C16.5761 20.5934 17.4675 21.5358 17.4675 22.6128C17.3989 23.7571 16.5075 24.6322 15.4105 24.6322Z" fill="#808080"/>
<path d="M27.0668 24.5654C21.8557 24.5654 18.2217 20.0554 18.2217 16.0167V2.55406C18.2217 1.40974 19.113 0.534668 20.2787 0.534668C21.4443 0.534668 22.3357 1.40974 22.3357 2.55406V16.0167C22.3357 17.9014 24.1184 20.5266 27.0668 20.5266C29.6723 20.5266 31.7979 18.4399 31.7979 15.882C31.7979 14.7377 32.6892 13.8626 33.8549 13.8626C35.0205 13.8626 35.9119 14.7377 35.9119 15.882C35.9804 20.6613 32.0036 24.5654 27.0668 24.5654Z" fill="#808080"/>
<path fill-rule="evenodd" clip-rule="evenodd" d="M34.1976 0.399902C35.569 0.399902 36.666 1.47691 36.666 2.82317C36.666 4.16943 35.569 5.24644 34.1976 5.24644C32.8263 5.24644 31.7292 4.16943 31.7292 2.82317C31.7292 1.47691 32.8949 0.399902 34.1976 0.399902Z" fill="#808080"/>
<path d="M51.2021 24.7001C50.6536 24.7001 50.0365 24.4981 49.6937 24.0269L41.26 14.7377C40.7114 14.1319 40.5743 13.3242 40.9171 12.5837C41.26 11.8433 41.9456 11.3721 42.7684 11.3721C43.6598 11.3721 44.5512 11.1028 45.374 10.6316C46.5396 9.8912 47.3624 8.81419 47.7052 7.46793C48.0481 6.12167 47.7738 4.77541 47.0881 3.63109C46.471 2.6887 46.8139 1.40976 47.7738 0.871252C48.7337 0.265435 50.0365 0.602 50.585 1.54438C51.8878 3.63109 52.2992 6.05435 51.7507 8.47762C51.2021 10.8336 49.6937 12.853 47.5681 14.1319C47.2938 14.3339 46.951 14.4685 46.6767 14.6031L52.8477 21.4017C53.602 22.2095 53.5334 23.4884 52.642 24.2289C52.1621 24.5654 51.6821 24.7001 51.2021 24.7001Z" fill="#808080"/>
<path d="M74.172 4.57345H58.7445C57.5789 4.57345 56.6875 3.69838 56.6875 2.55406C56.6875 1.40974 57.5789 0.534668 58.7445 0.534668H74.1034C75.269 0.534668 76.1604 1.40974 76.1604 2.55406C76.1604 3.69838 75.269 4.57345 74.172 4.57345Z" fill="#808080"/>
<path d="M66.9039 14.8049H58.7445C57.5789 14.8049 56.6875 13.9298 56.6875 12.7855C56.6875 11.6412 57.5789 10.7661 58.7445 10.7661H66.9039C68.0695 10.7661 68.9609 11.6412 68.9609 12.7855C68.9609 13.9298 68.0695 14.8049 66.9039 14.8049Z" fill="#808080"/>
<path d="M74.1719 24.6999H58.6759C57.5103 24.6999 56.6189 23.8248 56.6189 22.6805C56.6189 21.5362 57.5103 20.6611 58.6759 20.6611H74.1034C75.269 20.6611 76.1604 21.5362 76.1604 22.6805C76.2289 23.8248 75.269 24.6999 74.1719 24.6999Z" fill="#808080"/>
<path d="M95.0848 24.7C93.9192 24.7 93.0278 23.8249 93.0278 22.6806V2.48668C93.0278 1.34235 93.9192 0.467285 95.0848 0.467285C96.2505 0.467285 97.1418 1.34235 97.1418 2.48668V22.6806C97.1418 23.8249 96.1819 24.7 95.0848 24.7Z" fill="#808080"/>
<path d="M112.432 24.7C111.267 24.7 110.375 23.8249 110.375 22.6806V2.48668C110.375 1.34235 111.267 0.467285 112.432 0.467285H120.043C121.209 0.467285 122.1 1.34235 122.1 2.48668C122.1 3.631 121.209 4.50607 120.043 4.50607H114.489V22.6806C114.489 23.8249 113.529 24.7 112.432 24.7Z" fill="#808080"/>
<path fill-rule="evenodd" clip-rule="evenodd" d="M104.616 0.399902C105.987 0.399902 107.153 1.54422 107.153 2.89048C107.153 4.23674 105.987 5.38107 104.616 5.38107C103.244 5.38107 102.079 4.23674 102.079 2.89048C102.079 1.54422 103.244 0.399902 104.616 0.399902Z" fill="#808080"/>
<path d="M72.3893 15.2088C73.7525 15.2088 74.8577 14.1239 74.8577 12.7856C74.8577 11.4472 73.7525 10.3623 72.3893 10.3623C71.026 10.3623 69.9209 11.4472 69.9209 12.7856C69.9209 14.1239 71.026 15.2088 72.3893 15.2088Z" fill="#808080"/>
</g>
<defs>
<clipPath id="clip0_2692_11144">
<rect width="121.5" height="24.3" fill="white" transform="translate(0.600098 0.399902)"/>
</clipPath>
</defs>
</svg>
