<svg width="83" height="32" viewBox="0 0 83 32" fill="none" xmlns="http://www.w3.org/2000/svg">
<path d="M82.3652 28.3786V13.4356C82.3652 12.3874 81.8633 11.7962 81.0826 11.514L48.4591 0.172363H42.9661L79.7163 13.0593C80.2043 13.2475 80.3716 13.664 80.3716 14V31.1602H82.3652V28.3786Z" fill="black" fill-opacity="0.7"/>
<path d="M39.5782 2.21493L2.6607 15.1691C2.10303 15.3572 2.10303 15.411 2.10303 15.8141V31.1736H0.109375V14.6584C0.109375 14.4166 0.262733 13.9731 0.778575 13.785L39.5782 0.172363V2.21493ZM39.5782 0.172363L78.3779 13.785C78.8937 13.9597 79.0471 14.4031 79.0471 14.6584V31.1736H77.0534V15.8141C77.0534 15.411 77.0534 15.3706 76.4958 15.1691L39.5782 2.21493" fill="black" fill-opacity="0.7"/>
<path d="M68.1703 18.9994C69.4809 18.9994 70.3871 19.0263 70.8611 19.0666C71.2933 19.1069 71.6139 19.201 71.7952 19.3219C72.074 19.5101 72.2134 19.9804 72.2134 20.6792C72.2134 21.5661 72.0322 21.687 71.7673 21.8617C71.5582 21.9961 71.2654 22.0767 70.9029 22.117C70.5125 22.1573 69.5924 22.1708 68.1703 22.1708H63.3186V18.9994H68.1703ZM61.311 17.2256V28.3791H63.3047V23.9311H68.1564L70.3173 23.9446L71.0144 24.0118C71.586 24.1058 71.8928 24.4149 71.9764 24.9793C72.0043 25.2884 72.0322 25.8662 72.0322 26.7262V28.3657H74.0258V26.229C74.0258 25.3152 73.9979 24.724 73.9282 24.4015C73.8585 24.0521 73.7052 23.7564 73.4542 23.5011C73.3148 23.3533 73.1336 23.2458 72.9523 23.1383C73.2451 23.0039 73.4821 22.8561 73.6633 22.6545C73.8725 22.4261 74.0119 22.1305 74.0955 21.7676L74.1095 21.687C74.1652 21.4182 74.2071 21.257 74.2071 20.6792C74.2071 19.8326 74.0816 19.1607 73.8306 18.6635C73.4403 17.9109 72.7432 17.4675 71.7394 17.3331C71.2096 17.2659 70.0246 17.2256 68.1424 17.1987H61.548H61.311V17.2256Z" fill="black" fill-opacity="0.7"/>
<path d="M11.9435 18.9994C13.254 18.9994 14.1603 19.0263 14.6343 19.0666C15.0665 19.1069 15.3871 19.201 15.5684 19.3219C15.8472 19.5101 15.9866 19.9804 15.9866 20.6792C15.9866 21.5661 15.8054 21.687 15.5405 21.8617C15.3314 21.9961 15.0386 22.0767 14.6761 22.117C14.2857 22.1573 13.3656 22.1708 11.9435 22.1708H7.07789V18.9994H11.9435ZM5.08423 17.2256V28.3791H7.07789V23.9311H11.9296L14.1045 23.9446L14.8016 24.0118C15.3732 24.1058 15.6799 24.4149 15.7635 24.9793C15.7914 25.2884 15.8193 25.8662 15.8193 26.7262V28.3657H17.813V26.229C17.813 25.3152 17.7851 24.724 17.7154 24.4015C17.6457 24.0521 17.4923 23.7564 17.2414 23.5011C17.1019 23.3533 16.9207 23.2458 16.7395 23.1383C17.0322 23.0039 17.2692 22.8561 17.4505 22.6545C17.6596 22.4261 17.799 22.1305 17.8827 21.7676L17.8966 21.687C17.9524 21.4182 17.9942 21.257 17.9942 20.6792C17.9942 19.8326 17.8687 19.1607 17.6178 18.6635C17.2274 17.9109 16.5303 17.4675 15.5265 17.3331C14.9968 17.2659 13.8117 17.2256 11.9296 17.1987H5.33518H5.08423V17.2256Z" fill="black" fill-opacity="0.7"/>
<path d="M60.0699 17.2388H48.9026V28.4729H60.3626V26.6991H50.9241V23.998H59.9444V22.2242H50.9241V19.0126H60.3348V17.2388H60.0699Z" fill="black" fill-opacity="0.7"/>
<path d="M41.25 19.0126C42.3793 19.0126 43.0903 19.026 43.3552 19.0395C43.8013 19.0798 44.1638 19.147 44.4147 19.241C44.6518 19.3216 44.833 19.456 44.9724 19.6173C45.3907 20.101 45.5998 21.1626 45.5998 22.7752C45.5998 24.0249 45.4743 24.9656 45.2234 25.5568C45.0003 26.1078 44.6239 26.4169 44.108 26.5378C43.8153 26.605 43.5364 26.6453 43.2994 26.6588C43.0485 26.6722 42.3932 26.6722 41.3197 26.6722H36.231V18.9991H41.25V19.0126ZM34.4883 17.2388H34.2234V28.4863H41.3894C42.8951 28.4863 43.9547 28.4326 44.6239 28.3251C45.9623 28.11 46.8545 27.3441 47.2589 26.0675C47.5098 25.2746 47.6353 24.1996 47.6353 22.8558C47.6353 21.7942 47.5934 20.9476 47.4959 20.3564C47.3983 19.7382 47.231 19.2276 46.994 18.8513C46.5199 18.0988 45.8229 17.6285 44.9166 17.4538C44.2056 17.306 43.0066 17.2388 41.2779 17.2388H34.4883Z" fill="black" fill-opacity="0.7"/>
<path d="M26.1097 26.847C24.2833 26.847 23.182 26.7664 22.4152 26.632C21.8854 26.538 21.5926 26.2558 21.4811 25.7451C21.3556 25.0867 21.2998 24.0788 21.2998 22.95C21.2998 21.5525 21.3556 20.464 21.4532 19.8996C21.5368 19.4159 21.8714 19.1471 22.4988 19.053C22.9171 18.9993 23.3911 18.9455 23.9209 18.9321C24.1579 18.9187 25.092 18.8918 26.0958 18.8918C27.0996 18.8918 28.0337 18.9187 28.2707 18.9321C28.8004 18.9455 29.2745 18.9858 29.6927 19.053C30.3201 19.1471 30.6547 19.4159 30.7383 19.8996C30.8499 20.464 30.8917 21.5525 30.8917 22.95C30.8917 24.0923 30.8359 25.1001 30.7105 25.7451C30.6129 26.2692 30.3201 26.5514 29.7764 26.632C29.0375 26.7664 27.9361 26.847 26.1097 26.847ZM26.1097 28.6208C27.8664 28.6208 29.5115 28.5536 30.2643 28.4327C31.0729 28.2983 31.6585 28.043 32.021 27.6667C32.3695 27.3174 32.6205 26.7798 32.7599 26.0542C32.8853 25.3689 32.9551 24.2401 32.9551 22.9097C32.9551 21.875 32.9132 20.894 32.8296 20.2221C32.7599 19.6577 32.6623 19.2412 32.5507 18.9187C32.4253 18.5827 32.2301 18.3005 31.9791 18.0586C31.5888 17.6824 30.9614 17.427 30.1249 17.3061C29.3721 17.1986 28.1312 17.1314 26.1236 17.1314C24.116 17.1314 22.8752 17.1986 22.1224 17.3061C21.2859 17.427 20.6725 17.6824 20.2682 18.0586C20.0172 18.3005 19.822 18.5827 19.6965 18.9187C19.5711 19.2412 19.4874 19.6577 19.4177 20.2221C19.3341 20.9075 19.2922 21.875 19.2922 22.9097C19.2922 24.2401 19.3619 25.3689 19.4874 26.0542C19.6268 26.7798 19.8778 27.3308 20.2263 27.6667C20.5888 28.043 21.1883 28.2983 21.983 28.4327C22.7079 28.5536 24.3531 28.6208 26.1097 28.6208ZM24.1021 14.4707H21.4671V16.2445H24.4646V14.4707H24.1021ZM30.4037 14.4707H27.7688V16.2445H30.7662V14.4707H30.4037Z" fill="black" fill-opacity="0.7"/>
</svg>
