<svg width="98" height="37" viewBox="0 0 98 37" fill="none" xmlns="http://www.w3.org/2000/svg">
<g opacity="0.5">
<path fill-rule="evenodd" clip-rule="evenodd" d="M10.7951 23.5504L7.67914 15.4467C7.07442 13.9082 6.8016 12.632 5.48924 11.7526C5.05314 11.4603 4.44261 11.3161 3.75288 11.2502H0.0480957V11.7056C0.253377 11.723 1.32104 11.9076 1.44497 11.9933C1.66175 12.143 1.83916 12.7845 1.984 13.1531L8.78297 30.7197H9.56688C9.9956 29.8961 10.2517 28.6657 10.622 27.6937C10.9251 26.8049 11.2065 25.9608 11.4674 25.1601L11.464 25.1514L12.5458 21.8917L11.9242 21.4941L11.0459 24.1406C10.9623 23.9462 10.8784 23.7513 10.7951 23.5504Z" fill="black"/>
<path fill-rule="evenodd" clip-rule="evenodd" d="M18.6986 30.539V30.5184C18.708 30.4993 18.7175 30.4817 18.7231 30.4609C18.7637 30.4079 18.7597 30.3625 18.7597 30.301C18.7774 30.265 18.7902 30.2397 18.7902 30.1972V30.1729C18.8106 30.1429 18.8208 30.108 18.8208 30.073C18.8208 27.3835 18.7224 24.6872 17.679 22.2124L17.6326 22.0706L20.1795 15.4467C20.7843 13.9082 21.0571 12.632 22.3694 11.7526C22.8055 11.4603 23.4161 11.3161 24.1058 11.2502H27.8105V11.7056C27.6052 11.723 26.5376 11.9076 26.4136 11.9933C26.1969 12.143 26.0195 12.7845 25.8746 13.1531L19.0757 30.7197H18.6146C18.6215 30.7075 18.6269 30.6944 18.6307 30.681L18.6479 30.6636C18.6816 30.6292 18.6986 30.5841 18.6986 30.539Z" fill="black"/>
<path fill-rule="evenodd" clip-rule="evenodd" d="M14.4982 35.243C14.9469 35.0197 15.7723 34.5081 15.9703 34.3616C18.3388 32.6087 19.2613 30.7049 19.7518 28.7928C21.1288 23.4255 17.1859 19.4721 15.6136 14.298C14.5592 10.8278 14.6358 6.58786 16.4508 3.71064C16.6271 3.43166 16.7921 2.93893 16.3431 3.52486C13.3168 7.47217 12.4328 10.3655 12.7479 13.3554C13.0829 16.5339 14.6688 19.0388 16.5812 23.8185C18.6728 29.5107 15.8259 33.3124 14.2681 34.7203C13.894 35.0583 13.9948 35.4936 14.4982 35.243Z" fill="black"/>
<path fill-rule="evenodd" clip-rule="evenodd" d="M12.6481 34.0146C11.2806 35.6269 9.21402 36.0574 8.34755 36.3463C7.75028 36.5453 7.8271 36.8821 8.43751 36.8804C8.97054 36.8789 9.82461 36.6676 10.7056 36.3793C15.3637 34.855 17.3255 31.2075 16.2932 26.0489C15.5952 22.5613 13.3791 19.7541 12.1527 15.9138C10.247 9.94588 13.4392 5.52827 15.7479 3.32764C16.9523 2.17939 17.5768 1.73201 18.6711 0.868958C19.2212 0.435879 18.9771 0.334599 18.3748 0.651485C14.0141 2.94426 10.236 4.9168 8.7894 9.48993C5.77007 19.0358 17.4745 27.161 12.6481 34.0146Z" fill="black"/>
<path fill-rule="evenodd" clip-rule="evenodd" d="M87.9381 19.2057H91.717L89.819 14.5917L87.9381 19.2057ZM87.9209 22.9776V23.2407H84.7287V22.9776L86.1091 22.4513L90.8543 10.7847H91.3719L96.2897 22.7144L97.1525 22.9776V23.2407H95.0818C94.4376 23.2407 93.9315 23.0916 93.5634 22.7934C93.1953 22.4951 92.9307 22.1471 92.7696 21.7495L91.8896 19.6443H87.7656L86.6268 22.4513L87.9209 22.9776ZM66.4339 11.3988L65.4848 11.2233V10.9602H67.5555C68.2112 10.9602 68.7259 11.1094 69.0998 11.4076C69.4736 11.7058 69.7353 12.0538 69.8849 12.4514L72.4905 19.2057L74.0089 14.6795L72.732 11.3988L71.7829 11.2233V10.9602H73.8536C74.5093 10.9602 75.0212 11.1094 75.3893 11.4076C75.7575 11.7058 76.022 12.0538 76.1831 12.4514L78.7886 19.2057L81.2734 11.7496L79.9792 11.2233V10.9602H83.1714V11.2233L81.791 11.7496L77.9086 23.4162H77.391L74.285 15.3987L71.6104 23.4162H71.0928L66.4339 11.3988ZM61.4256 17.1005C61.4256 18.1297 61.2903 19.0419 61.02 19.8373C60.7497 20.6326 60.3701 21.3022 59.8812 21.846C59.3923 22.3899 58.8027 22.8021 58.1125 23.0828C57.4223 23.3636 56.6574 23.5039 55.8175 23.5039C54.9778 23.5039 54.2128 23.3636 53.5227 23.0828C52.8324 22.8021 52.2429 22.3899 51.7539 21.846C51.2651 21.3022 50.8854 20.6326 50.6152 19.8373C50.3448 19.0419 50.2096 18.1297 50.2096 17.1005C50.2096 16.0713 50.3448 15.159 50.6152 14.3637C50.8854 13.5684 51.2651 12.8988 51.7539 12.3549C52.2429 11.8111 52.8324 11.3988 53.5227 11.1181C54.2128 10.8374 54.9778 10.6971 55.8175 10.6971C56.6574 10.6971 57.4223 10.8374 58.1125 11.1181C58.8027 11.3988 59.3923 11.8111 59.8812 12.3549C60.3701 12.8988 60.7497 13.5684 61.02 14.3637C61.2903 15.159 61.4256 16.0713 61.4256 17.1005ZM58.4058 17.1005C58.4058 15.9426 58.3282 14.9748 58.1729 14.1971C58.0176 13.4192 57.8163 12.7964 57.569 12.3286C57.3216 11.8608 57.0427 11.5304 56.7321 11.3374C56.4215 11.1445 56.1166 11.0479 55.8175 11.0479C55.5185 11.0479 55.2136 11.1445 54.903 11.3374C54.5925 11.5304 54.3135 11.8608 54.0662 12.3286C53.8189 12.7964 53.6175 13.4192 53.4622 14.1971C53.307 14.9748 53.2293 15.9426 53.2293 17.1005C53.2293 18.2584 53.307 19.2262 53.4622 20.0039C53.6175 20.7817 53.8189 21.4045 54.0662 21.8724C54.3135 22.3401 54.5925 22.6706 54.903 22.8635C55.2136 23.0565 55.5185 23.153 55.8175 23.153C56.1166 23.153 56.4215 23.0565 56.7321 22.8635C57.0427 22.6706 57.3216 22.3401 57.569 21.8724C57.8163 21.4045 58.0176 20.7817 58.1729 20.0039C58.3282 19.2262 58.4058 18.2584 58.4058 17.1005ZM39.9384 23.0653C40.5942 23.0653 41.1176 22.8664 41.5087 22.4687C41.8998 22.0711 42.0954 21.539 42.0954 20.8723C42.0954 20.4162 41.9429 20.0215 41.638 19.6881C41.3332 19.3548 40.9565 19.0419 40.5079 18.7496C40.0592 18.4572 39.5675 18.1648 39.0325 17.8724C38.4976 17.58 38.0058 17.2466 37.5572 16.8724C37.1086 16.4981 36.7318 16.0625 36.427 15.5654C36.1222 15.0683 35.9697 14.4689 35.9697 13.7672C35.9697 13.3462 36.056 12.9515 36.2285 12.583C36.4011 12.2146 36.6628 11.8901 37.0137 11.6093C37.3645 11.3286 37.8045 11.1064 38.3337 10.9427C38.8629 10.779 39.4841 10.6971 40.1973 10.6971C40.5999 10.6971 40.9737 10.7585 41.3189 10.8813C41.664 11.0041 41.9573 11.1357 42.1989 11.276C42.4865 11.4397 42.7396 11.6269 42.9581 11.8374C43.0502 11.6854 43.1508 11.5479 43.2601 11.4252C43.3694 11.3023 43.47 11.2 43.562 11.1181C43.6771 11.0246 43.7921 10.9427 43.9071 10.8725H44.3385V14.2058H43.6483C43.4873 13.6444 43.263 13.1356 42.9754 12.6796C42.7338 12.2936 42.4117 11.9397 42.0091 11.6181C41.6064 11.2965 41.1176 11.1357 40.5424 11.1357C40.3238 11.1357 40.1168 11.1824 39.9212 11.276C39.7256 11.3696 39.5531 11.5012 39.4035 11.6708C39.254 11.8403 39.1332 12.045 39.0412 12.2848C38.9491 12.5245 38.9031 12.7848 38.9031 13.0654C38.9031 13.5684 39.0556 13.9982 39.3604 14.3549C39.6653 14.7116 40.0419 15.042 40.4906 15.3461C40.9393 15.6502 41.431 15.9484 41.966 16.2409C42.5008 16.5332 42.9926 16.8578 43.4413 17.2145C43.8899 17.5712 44.2666 17.9777 44.5715 18.4338C44.8763 18.8899 45.0287 19.4396 45.0287 20.0829C45.0287 20.539 44.931 20.9747 44.7354 21.3899C44.5398 21.8051 44.2465 22.1706 43.8554 22.4864C43.4643 22.8021 42.9696 23.0507 42.3714 23.232C41.7732 23.4132 41.0773 23.5039 40.2836 23.5039C39.7774 23.5039 39.3345 23.4454 38.9549 23.3284C38.5753 23.2115 38.2532 23.0828 37.9886 22.9425C37.678 22.7787 37.4077 22.5858 37.1776 22.3636C37.0856 22.5273 36.9849 22.6676 36.8756 22.7846C36.7663 22.9015 36.6657 23.0009 36.5737 23.0828C36.4587 23.1764 36.3436 23.2582 36.2285 23.3284H35.7972V19.9951H36.4874C36.66 20.5682 36.9015 21.0829 37.2121 21.539C37.3502 21.7379 37.5055 21.9278 37.678 22.1092C37.8506 22.2904 38.049 22.4513 38.2733 22.5916C38.4976 22.7319 38.7478 22.846 39.0239 22.9337C39.3 23.0214 39.6049 23.0653 39.9384 23.0653Z" fill="black"/>
<path fill-rule="evenodd" clip-rule="evenodd" d="M96.591 30.1666H96.8675V32.3617H96.591V30.1666ZM95.0178 31.295V32.1219H95.3383C95.7157 32.1219 95.904 31.9873 95.904 31.7197C95.904 31.643 95.8837 31.5679 95.843 31.4942C95.803 31.4205 95.7435 31.3686 95.6663 31.3393C95.5883 31.3092 95.4514 31.295 95.2549 31.295H95.0178ZM95.0077 31.0348H95.2725C95.4833 31.0348 95.6479 31.0514 95.7672 31.0852C95.8864 31.119 95.9894 31.1935 96.0754 31.3085C96.1615 31.4235 96.2048 31.5558 96.2048 31.7047C96.2048 31.8851 96.1425 32.0399 96.0178 32.1685C95.8938 32.2971 95.7048 32.3617 95.4521 32.3617H94.7332V30.1666H95.0077V31.0348ZM92.0117 30.1666H93.4304V30.4109H92.8573V32.3617H92.5809V30.4109H92.0117V30.1666ZM89.6866 30.3899C89.4556 30.3899 89.2578 30.4763 89.0918 30.6492C88.9258 30.8221 88.8431 31.0311 88.8431 31.2762C88.8431 31.434 88.881 31.5814 88.9562 31.7189C89.0321 31.855 89.1344 31.9603 89.2632 32.0347C89.3911 32.1091 89.5328 32.1467 89.6866 32.1467C89.8404 32.1467 89.982 32.1091 90.1101 32.0347C90.2387 31.9603 90.3411 31.855 90.4169 31.7189C90.4922 31.5814 90.5301 31.434 90.5301 31.2762C90.5301 31.0311 90.4468 30.8221 90.2801 30.6492C90.1141 30.4763 89.9163 30.3899 89.6866 30.3899ZM89.6879 30.1132C90.0206 30.1132 90.297 30.235 90.5159 30.4793C90.7151 30.7018 90.8147 30.9657 90.8147 31.2701C90.8147 31.5761 90.7097 31.8437 90.4989 32.0723C90.2889 32.3008 90.0179 32.4151 89.6879 32.4151C89.356 32.4151 89.0843 32.3008 88.8743 32.0723C88.6636 31.8437 88.5585 31.5761 88.5585 31.2701C88.5585 30.9672 88.6581 30.7041 88.8574 30.4816C89.0762 30.2357 89.3533 30.1132 89.6879 30.1132ZM87.2063 30.6229L86.9861 30.762C86.795 30.5056 86.5342 30.3778 86.2036 30.3778C85.9393 30.3778 85.7198 30.4635 85.545 30.6349C85.3709 30.8071 85.2835 31.0146 85.2835 31.2596C85.2835 31.4197 85.3235 31.5701 85.4041 31.7107C85.4841 31.8513 85.5944 31.9603 85.7347 32.0384C85.8742 32.1159 86.0314 32.155 86.2056 32.155C86.524 32.155 86.7842 32.0264 86.9861 31.7701L87.2063 31.9182C87.1026 32.0753 86.9637 32.1978 86.7896 32.285C86.6148 32.3715 86.4163 32.4151 86.1934 32.4151C85.8506 32.4151 85.5667 32.3053 85.3411 32.085C85.1155 31.8648 85.003 31.5972 85.003 31.2822C85.003 31.0702 85.0559 30.8732 85.1615 30.6921C85.2666 30.5101 85.4115 30.368 85.5959 30.2658C85.7808 30.1643 85.9867 30.1132 86.2151 30.1132C86.3587 30.1132 86.4969 30.135 86.6304 30.1793C86.7631 30.2229 86.8764 30.2808 86.9692 30.3523C87.0626 30.4229 87.1412 30.5131 87.2063 30.6229ZM82.4441 30.3861C82.2897 30.3861 82.1467 30.4244 82.0166 30.5019C81.8858 30.5778 81.7822 30.686 81.7049 30.8251C81.6277 30.9642 81.5891 31.1115 81.5891 31.2679C81.5891 31.4213 81.6277 31.5686 81.7056 31.7092C81.7835 31.8498 81.8879 31.9588 82.0193 32.0369C82.1507 32.1151 82.2917 32.155 82.4421 32.155C82.5931 32.155 82.7375 32.1159 82.873 32.0384C83.0091 31.9603 83.1135 31.8558 83.1866 31.7227C83.2598 31.5904 83.2964 31.4416 83.2964 31.2754C83.2964 31.0221 83.2144 30.8108 83.0498 30.6409C82.8859 30.4703 82.684 30.3861 82.4441 30.3861ZM83.5566 30.1666V32.3617H83.2802V31.9836C83.1637 32.1279 83.0336 32.2362 82.8886 32.3076C82.7443 32.379 82.5857 32.4151 82.4143 32.4151C82.1094 32.4151 81.8485 32.3031 81.6324 32.0783C81.4163 31.8528 81.3086 31.5806 81.3086 31.2581C81.3086 30.9431 81.4177 30.6733 81.6358 30.4492C81.8533 30.2252 82.1155 30.1132 82.4224 30.1132C82.5993 30.1132 82.7592 30.1508 82.9028 30.2267C83.0458 30.3026 83.1718 30.4169 83.2802 30.5703V30.1666H83.5566ZM78.8249 30.3861C78.5844 30.3861 78.3825 30.4703 78.2185 30.6409C78.0538 30.8108 77.9719 31.0221 77.9719 31.2754C77.9719 31.4416 78.0085 31.5904 78.0816 31.7227C78.1548 31.8558 78.2598 31.9603 78.396 32.0384C78.5329 32.1159 78.6772 32.155 78.8283 32.155C78.9774 32.155 79.1176 32.1151 79.249 32.0369C79.3805 31.9588 79.4848 31.8498 79.5627 31.7092C79.6406 31.5686 79.6793 31.4213 79.6793 31.2679C79.6793 31.1115 79.6406 30.9642 79.5634 30.8251C79.4861 30.686 79.3826 30.5778 79.2518 30.5019C79.1216 30.4244 78.9787 30.3861 78.8249 30.3861ZM77.7117 30.1666H77.9882V30.5703C78.0979 30.4169 78.224 30.3026 78.3669 30.2267C78.5098 30.1508 78.6691 30.1132 78.8452 30.1132C79.1522 30.1132 79.4143 30.2252 79.6325 30.4492C79.8507 30.6733 79.9597 30.9431 79.9597 31.2581C79.9597 31.5806 79.8513 31.8528 79.6352 32.0783C79.4191 32.3031 79.1582 32.4151 78.8527 32.4151C78.6813 32.4151 78.5234 32.379 78.3791 32.3061C78.2348 32.2332 78.1047 32.1249 77.9882 31.9813V33.1631H77.7117V30.1666ZM74.7416 30.1666H75.018V31.0912L76.0234 30.1666H76.4042L75.3127 31.1687L76.4916 32.3617H76.0986L75.1054 31.3468L75.018 31.425V32.3617H74.7416V30.1666ZM71.7972 30.4109H71.6129C71.4347 30.4109 71.3148 30.4222 71.2532 30.4455C71.1922 30.468 71.1434 30.5071 71.1075 30.5627C71.0716 30.6184 71.0533 30.6936 71.0533 30.7875C71.0533 30.8777 71.0763 30.9514 71.1231 31.0101C71.1698 31.0687 71.222 31.104 71.2796 31.1183C71.3365 31.1311 71.4476 31.1378 71.6129 31.1378H71.7972V30.4109ZM71.7972 31.3822H71.5993L70.9788 32.3617H70.6786L71.3304 31.3536C71.1684 31.334 71.037 31.2709 70.9361 31.1664C70.8351 31.0619 70.785 30.9319 70.785 30.777C70.785 30.5838 70.8432 30.4327 70.9591 30.3267C71.075 30.2199 71.2274 30.1666 71.4151 30.1666H72.0736V32.3617H71.7972V31.3822ZM67.7288 30.1666V31.7926L69.3169 30.1666H69.3385V32.3617H69.0621V30.7484L67.4862 32.3617H67.4523V30.1666H67.7288ZM64.8711 30.3861C64.6306 30.3861 64.4287 30.4703 64.2647 30.6409C64.1001 30.8108 64.0181 31.0221 64.0181 31.2754C64.0181 31.4416 64.0547 31.5904 64.1279 31.7227C64.2011 31.8558 64.3061 31.9603 64.4423 32.0384C64.5791 32.1159 64.7234 32.155 64.8745 32.155C65.0235 32.155 65.1638 32.1151 65.2952 32.0369C65.4266 31.9588 65.531 31.8498 65.6089 31.7092C65.6868 31.5686 65.7254 31.4213 65.7254 31.2679C65.7254 31.1115 65.6868 30.9642 65.6096 30.8251C65.5324 30.686 65.4287 30.5778 65.2979 30.5019C65.1678 30.4244 65.0249 30.3861 64.8711 30.3861ZM63.7579 30.1666H64.0343V30.5703C64.1441 30.4169 64.2701 30.3026 64.4131 30.2267C64.5561 30.1508 64.7153 30.1132 64.8915 30.1132C65.1984 30.1132 65.4605 30.2252 65.6787 30.4492C65.8968 30.6733 66.0059 30.9431 66.0059 31.2581C66.0059 31.5806 65.8976 31.8528 65.6814 32.0783C65.4652 32.3031 65.2044 32.4151 64.8989 32.4151C64.7275 32.4151 64.5696 32.379 64.4253 32.3061C64.281 32.2332 64.1509 32.1249 64.0343 31.9813V33.1631H63.7579V30.1666ZM61.1889 30.3899C60.9578 30.3899 60.76 30.4763 60.594 30.6492C60.428 30.8221 60.3454 31.0311 60.3454 31.2762C60.3454 31.434 60.3833 31.5814 60.4585 31.7189C60.5344 31.855 60.6367 31.9603 60.7654 32.0347C60.8935 32.1091 61.0351 32.1467 61.1889 32.1467C61.3427 32.1467 61.4843 32.1091 61.6123 32.0347C61.7411 31.9603 61.8434 31.855 61.9192 31.7189C61.9945 31.5814 62.0324 31.434 62.0324 31.2762C62.0324 31.0311 61.9491 30.8221 61.7823 30.6492C61.6164 30.4763 61.4185 30.3899 61.1889 30.3899ZM61.1902 30.1132C61.5229 30.1132 61.7993 30.235 62.0181 30.4793C62.2173 30.7018 62.3169 30.9657 62.3169 31.2701C62.3169 31.5761 62.2119 31.8437 62.0012 32.0723C61.7912 32.3008 61.5201 32.4151 61.1902 32.4151C60.8582 32.4151 60.5866 32.3008 60.3766 32.0723C60.1658 31.8437 60.0608 31.5761 60.0608 31.2701C60.0608 30.9672 60.1604 30.7041 60.3596 30.4816C60.5784 30.2357 60.8556 30.1132 61.1902 30.1132ZM57.445 30.1666H58.8638V30.4109H58.2906V32.3617H58.0141V30.4109H57.445V30.1666ZM55.0202 30.3861C54.8658 30.3861 54.7228 30.4244 54.5927 30.5019C54.4619 30.5778 54.3583 30.686 54.2811 30.8251C54.2039 30.9642 54.1652 31.1115 54.1652 31.2679C54.1652 31.4213 54.2039 31.5686 54.2817 31.7092C54.3597 31.8498 54.464 31.9588 54.5955 32.0369C54.7269 32.1151 54.8678 32.155 55.0182 32.155C55.1693 32.155 55.3136 32.1159 55.4491 32.0384C55.5853 31.9603 55.6896 31.8558 55.7628 31.7227C55.836 31.5904 55.8726 31.4416 55.8726 31.2754C55.8726 31.0221 55.7906 30.8108 55.626 30.6409C55.462 30.4703 55.2601 30.3861 55.0202 30.3861ZM56.1328 30.1666V32.3617H55.8563V31.9836C55.7398 32.1279 55.6097 32.2362 55.4647 32.3076C55.3204 32.379 55.1618 32.4151 54.9904 32.4151C54.6855 32.4151 54.4247 32.3031 54.2086 32.0783C53.9925 31.8528 53.8847 31.5806 53.8847 31.2581C53.8847 30.9431 53.9938 30.6733 54.212 30.4492C54.4295 30.2252 54.6917 30.1132 54.9986 30.1132C55.1754 30.1132 55.3352 30.1508 55.4789 30.2267C55.6219 30.3026 55.7479 30.4169 55.8563 30.5703V30.1666H56.1328ZM51.401 30.3861C51.1605 30.3861 50.9586 30.4703 50.7946 30.6409C50.63 30.8108 50.548 31.0221 50.548 31.2754C50.548 31.4416 50.5846 31.5904 50.6578 31.7227C50.731 31.8558 50.8359 31.9603 50.9721 32.0384C51.109 32.1159 51.2533 32.155 51.4044 32.155C51.5535 32.155 51.6937 32.1151 51.8252 32.0369C51.9566 31.9588 52.0609 31.8498 52.1389 31.7092C52.2168 31.5686 52.2554 31.4213 52.2554 31.2679C52.2554 31.1115 52.2168 30.9642 52.1395 30.8251C52.0623 30.686 51.9586 30.5778 51.8279 30.5019C51.6978 30.4244 51.5549 30.3861 51.401 30.3861ZM50.2879 30.1666H50.5643V30.5703C50.674 30.4169 50.8001 30.3026 50.943 30.2267C51.086 30.1508 51.2452 30.1132 51.4213 30.1132C51.7283 30.1132 51.9905 30.2252 52.2087 30.4492C52.4268 30.6733 52.5359 30.9431 52.5359 31.2581C52.5359 31.5806 52.4274 31.8528 52.2113 32.0783C51.9953 32.3031 51.7344 32.4151 51.4288 32.4151C51.2574 32.4151 51.0995 32.379 50.9552 32.3061C50.811 32.2332 50.6808 32.1249 50.5643 31.9813V33.1631H50.2879V30.1666ZM47.7188 30.3899C47.4878 30.3899 47.2899 30.4763 47.1239 30.6492C46.958 30.8221 46.8753 31.0311 46.8753 31.2762C46.8753 31.434 46.9133 31.5814 46.9885 31.7189C47.0644 31.855 47.1666 31.9603 47.2954 32.0347C47.4234 32.1091 47.565 32.1467 47.7188 32.1467C47.8726 32.1467 48.0142 32.1091 48.1423 32.0347C48.271 31.9603 48.3733 31.855 48.4492 31.7189C48.5244 31.5814 48.5623 31.434 48.5623 31.2762C48.5623 31.0311 48.4789 30.8221 48.3124 30.6492C48.1464 30.4763 47.9485 30.3899 47.7188 30.3899ZM47.7202 30.1132C48.0528 30.1132 48.3293 30.235 48.5481 30.4793C48.7473 30.7018 48.8469 30.9657 48.8469 31.2701C48.8469 31.5761 48.7419 31.8437 48.5311 32.0723C48.3212 32.3008 48.0502 32.4151 47.7202 32.4151C47.3882 32.4151 47.1165 32.3008 46.9065 32.0723C46.6958 31.8437 46.5907 31.5761 46.5907 31.2701C46.5907 30.9672 46.6903 30.7041 46.8895 30.4816C47.1084 30.2357 47.3854 30.1132 47.7202 30.1132ZM44.9743 31.2762C44.9743 31.0341 44.891 30.8251 44.7236 30.6507C44.5569 30.477 44.3591 30.3899 44.1301 30.3899C43.9018 30.3899 43.7046 30.4778 43.5379 30.6522C43.3706 30.8274 43.2873 31.0356 43.2873 31.2777C43.2873 31.5182 43.3679 31.7235 43.5285 31.8934C43.6897 32.0618 43.8903 32.1467 44.1301 32.1467C44.3706 32.1467 44.5719 32.0618 44.733 31.8926C44.8936 31.7227 44.9743 31.5175 44.9743 31.2762ZM45.1206 29.2697V29.5389C44.9878 29.5622 44.7608 29.5787 44.4383 29.5885C44.2053 29.5967 44.0251 29.6125 43.8984 29.6358C43.7717 29.6599 43.6613 29.7042 43.5671 29.7711C43.4736 29.8388 43.3943 29.9403 43.3299 30.0756C43.2656 30.2117 43.2256 30.3635 43.2094 30.5312L43.1816 30.8416C43.2574 30.5898 43.3814 30.4056 43.5549 30.2884C43.7277 30.1718 43.9201 30.1132 44.1307 30.1132C44.4519 30.1132 44.7202 30.2275 44.9356 30.4553C45.1511 30.683 45.2588 30.9552 45.2588 31.2701C45.2588 31.5829 45.1511 31.852 44.9363 32.0768C44.7216 32.3023 44.4526 32.4151 44.1301 32.4151C43.7995 32.4151 43.5197 32.2895 43.2899 32.0399C43.0603 31.7896 42.9458 31.3957 42.9458 30.8574C42.9458 30.4831 42.9878 30.1981 43.0718 30.0057C43.1565 29.8125 43.2527 29.6742 43.3617 29.5892C43.4702 29.505 43.6111 29.4381 43.7832 29.39C43.956 29.3411 44.2791 29.3111 44.7527 29.299C44.8984 29.2945 45.021 29.2848 45.1206 29.2697ZM40.3869 30.3861C40.2324 30.3861 40.0895 30.4244 39.9594 30.5019C39.8286 30.5778 39.725 30.686 39.6477 30.8251C39.5705 30.9642 39.5319 31.1115 39.5319 31.2679C39.5319 31.4213 39.5705 31.5686 39.6484 31.7092C39.7263 31.8498 39.8307 31.9588 39.9621 32.0369C40.0935 32.1151 40.2345 32.155 40.3849 32.155C40.5359 32.155 40.6803 32.1159 40.8158 32.0384C40.952 31.9603 41.0563 31.8558 41.1294 31.7227C41.2026 31.5904 41.2392 31.4416 41.2392 31.2754C41.2392 31.0221 41.1573 30.8108 40.9926 30.6409C40.8286 30.4703 40.6267 30.3861 40.3869 30.3861ZM41.4994 30.1666V32.3617H41.2229V31.9836C41.1064 32.1279 40.9763 32.2362 40.8313 32.3076C40.687 32.379 40.5285 32.4151 40.3571 32.4151C40.0522 32.4151 39.7913 32.3031 39.5752 32.0783C39.3591 31.8528 39.2513 31.5806 39.2513 31.2581C39.2513 30.9431 39.3605 30.6733 39.5786 30.4492C39.7961 30.2252 40.0583 30.1132 40.3652 30.1132C40.5421 30.1132 40.7019 30.1508 40.8455 30.2267C40.9885 30.3026 41.1145 30.4169 41.2229 30.5703V30.1666H41.4994ZM38.0014 32.3617H37.7108L36.9818 30.7612L36.2643 32.3617H35.9669L36.9526 30.1666H37.0021L38.0014 32.3617Z" fill="black"/>
<path fill-rule="evenodd" clip-rule="evenodd" d="M49.1203 22.4271C49.1203 22.7152 49.014 22.9674 48.8014 23.1835C48.5888 23.3996 48.3408 23.5078 48.0574 23.5078C47.7739 23.5078 47.5259 23.3996 47.3134 23.1835C47.1008 22.9674 46.9944 22.7152 46.9944 22.4271C46.9944 22.1389 47.1008 21.8866 47.3134 21.6705C47.5259 21.4544 47.7739 21.3464 48.0574 21.3464C48.3408 21.3464 48.5888 21.4544 48.8014 21.6705C49.014 21.8866 49.1203 22.1389 49.1203 22.4271Z" fill="black"/>
<path fill-rule="evenodd" clip-rule="evenodd" d="M65.7665 22.4271C65.7665 22.7152 65.6602 22.9674 65.4476 23.1835C65.235 23.3996 64.987 23.5078 64.7035 23.5078C64.4201 23.5078 64.172 23.3996 63.9595 23.1835C63.7469 22.9674 63.6406 22.7152 63.6406 22.4271C63.6406 22.1389 63.7469 21.8866 63.9595 21.6705C64.172 21.4544 64.4201 21.3464 64.7035 21.3464C64.987 21.3464 65.235 21.4544 65.4476 21.6705C65.6602 21.8866 65.7665 22.1389 65.7665 22.4271Z" fill="black"/>
<path fill-rule="evenodd" clip-rule="evenodd" d="M82.9942 22.2992C82.9942 22.5873 82.8878 22.8394 82.6752 23.0556C82.4627 23.2717 82.2147 23.3799 81.9312 23.3799C81.6478 23.3799 81.3997 23.2717 81.1871 23.0556C80.9745 22.8394 80.8683 22.5873 80.8683 22.2992C80.8683 22.0109 80.9745 21.7587 81.1871 21.5426C81.3997 21.3265 81.6478 21.2184 81.9312 21.2184C82.2147 21.2184 82.4627 21.3265 82.6752 21.5426C82.8878 21.7587 82.9942 22.0109 82.9942 22.2992Z" fill="black"/>
</g>
</svg>
