<svg width="146" height="19" viewBox="0 0 146 19" fill="none" xmlns="http://www.w3.org/2000/svg">
<path d="M8.81623 11.6622L2.97991 0.872559H0.000976562V18.5242H2.7829V5.81952L8.04754 15.4407H9.58764L14.8274 5.81952V18.5242H17.6333V0.87348H14.6535L8.81623 11.6622Z" fill="black" fill-opacity="0.7"/>
<path d="M47.6811 11.0522C48.1099 10.7139 48.4792 10.3061 48.7737 9.84584C49.0748 9.37537 49.3087 8.86512 49.4688 8.32986C49.6355 7.77356 49.7193 7.19564 49.7173 6.61483C49.7161 5.89497 49.5771 5.18202 49.3077 4.51459C49.0427 3.83813 48.6599 3.21409 48.1772 2.67146C47.6913 2.12892 47.1052 1.6855 46.4512 1.3656C45.7668 1.03162 45.0142 0.861566 44.2529 0.868879H36.5801V18.5242H39.362V12.3838H43.4345L47.2585 18.5251H50.4123L46.2653 11.8125C46.779 11.6463 47.2586 11.3887 47.6811 11.0522ZM45.3097 9.6606C44.9772 9.83663 44.606 9.92631 44.2299 9.92141H39.362V3.33314H44.0808C44.4482 3.3341 44.8101 3.42355 45.1357 3.59395C45.477 3.76991 45.7807 4.01096 46.0296 4.30355C46.2936 4.61433 46.5036 4.96728 46.6509 5.34768C46.809 5.75163 46.8889 6.18194 46.8866 6.61575C46.8891 7.04641 46.8219 7.47463 46.6878 7.88383C46.5641 8.26357 46.3794 8.6206 46.141 8.94086C45.9186 9.23825 45.6348 9.48407 45.3088 9.66152L45.3097 9.6606Z" fill="black" fill-opacity="0.7"/>
<path d="M67.1517 0.873535H64.0724L55.7782 9.97215V0.897497H52.9963V18.5243H55.7782V13.2041L58.4856 10.3942L64.4453 18.5243H67.5494L60.1987 8.67918L67.1517 0.873535Z" fill="black" fill-opacity="0.7"/>
<path d="M81.8409 10.6915C81.2344 10.2953 80.5736 9.98954 79.8792 9.78376C79.109 9.54415 78.2523 9.32451 77.309 9.12483C76.3983 8.92639 75.6201 8.73562 74.9745 8.55254C74.4117 8.40593 73.8724 8.18037 73.3727 7.88257C72.9837 7.65111 72.6624 7.32118 72.4411 6.92598C72.2285 6.48899 72.1263 6.00638 72.1438 5.5206C72.1235 5.01818 72.2194 4.51786 72.4239 4.05862C72.6285 3.59937 72.9361 3.19361 73.323 2.87294C74.4287 2.12596 75.7562 1.77967 77.0854 1.89148C77.9832 1.8377 78.8819 1.98117 79.7185 2.31182C80.5551 2.64247 81.3094 3.1523 81.9284 3.80556L82.5728 2.8112C81.8745 2.13487 81.0469 1.6067 80.1398 1.25836C79.161 0.904156 78.126 0.731463 77.0854 0.748738C76.2304 0.739173 75.3782 0.847711 74.5529 1.07128C73.8432 1.26059 73.1768 1.58541 72.5903 2.02787C72.051 2.44165 71.6133 2.97344 71.3107 3.58255C70.994 4.24077 70.8364 4.96431 70.8504 5.69477C70.827 6.32065 70.9532 6.94309 71.2186 7.51025C71.4799 8.00528 71.8594 8.42793 72.3233 8.74054C72.8811 9.1133 73.4928 9.3983 74.1368 9.58562C74.8567 9.80986 75.6886 10.0212 76.6324 10.2197C77.5591 10.4181 78.3704 10.6251 79.0664 10.8408C79.6743 11.0177 80.255 11.2772 80.7924 11.6121C81.215 11.8773 81.5682 12.2397 81.8225 12.6692C82.0655 13.1217 82.1855 13.6301 82.1705 14.1437C82.2001 14.648 82.095 15.1511 81.8659 15.6012C81.6368 16.0514 81.2919 16.4323 80.867 16.7047C79.7681 17.3266 78.5142 17.6201 77.2538 17.5507C76.0117 17.57 74.7786 17.3374 73.6287 16.8669C72.6009 16.4441 71.6711 15.8139 70.8974 15.0155L70.2263 16.0347C72.1216 17.7884 74.625 18.7335 77.205 18.6695C78.0709 18.6783 78.9344 18.578 79.7752 18.3709C80.4853 18.1993 81.1583 17.9001 81.7617 17.488C82.3017 17.1142 82.7438 16.6157 83.0505 16.0347C83.369 15.4031 83.5271 14.7026 83.5108 13.9953C83.5329 13.3149 83.3835 12.6398 83.0763 12.0324C82.7777 11.4928 82.354 11.033 81.8409 10.6915Z" fill="black" fill-opacity="0.7"/>
<path d="M98.7038 4.36601C98.4525 3.72006 98.0912 3.12263 97.6359 2.6003C97.1813 2.0791 96.6285 1.6526 96.0093 1.34513C95.3689 1.02765 94.6627 0.86599 93.9482 0.873283H86.696V18.524H87.9628V11.8602H94.0973C94.8028 11.8687 95.5004 11.7108 96.1336 11.3994C96.7366 11.0998 97.273 10.6814 97.7105 10.1691C98.1541 9.64712 98.4994 9.04884 98.7296 8.40339C98.9691 7.74227 99.0909 7.0442 99.0895 6.34093C99.0862 5.66419 98.9553 4.99416 98.7038 4.36601ZM97.5365 7.97117C97.3715 8.47553 97.1191 8.94688 96.7908 9.36366C96.4712 9.76692 96.0691 10.0972 95.6116 10.3322C95.127 10.5779 94.5898 10.7016 94.0467 10.6926H87.9628V2.01602H93.8985C94.4194 2.01375 94.9337 2.13269 95.4008 2.36345C95.872 2.59509 96.2938 2.91622 96.6426 3.30898C97.0038 3.71588 97.2897 4.18399 97.4868 4.69133C97.6945 5.21759 97.7998 5.77876 97.797 6.34461C97.7983 6.89701 97.7103 7.44598 97.5365 7.97025V7.97117Z" fill="black" fill-opacity="0.7"/>
<path d="M106.538 0.872559L99.0378 18.5242H100.404L102.862 12.7064H111.281L113.739 18.5242H115.08L107.63 0.872559H106.538ZM103.159 11.6622L107.083 2.41434L110.933 11.6622H103.159Z" fill="black" fill-opacity="0.7"/>
<path d="M128.913 15.6027C128.486 16.0277 128.001 16.3915 127.474 16.6837C126.967 16.9634 126.424 17.1724 125.86 17.3048C125.323 17.4351 124.773 17.5022 124.22 17.5048C123.256 17.5121 122.303 17.2911 121.439 16.8597C120.588 16.4367 119.829 15.8498 119.204 15.1327C118.565 14.3939 118.061 13.5482 117.715 12.6343C117.349 11.6822 117.164 10.6703 117.168 9.65028C117.171 8.70742 117.326 7.77125 117.628 6.87822C117.924 5.97741 118.383 5.13868 118.982 4.40381C119.583 3.67032 120.327 3.06573 121.167 2.62611C122.089 2.15608 123.113 1.9212 124.148 1.94231C124.674 1.94402 125.199 2.00241 125.713 2.11649C126.245 2.23401 126.759 2.42247 127.241 2.6768C127.743 2.94374 128.203 3.28278 128.607 3.68315C129.055 4.13448 129.428 4.65505 129.712 5.22492L130.755 4.62868C130.199 3.49165 129.338 2.53181 128.269 1.85661C127.063 1.1087 125.664 0.732441 124.246 0.774689C123.021 0.752162 121.809 1.02061 120.708 1.55802C119.709 2.05299 118.818 2.74221 118.088 3.58546C117.374 4.41611 116.823 5.37323 116.461 6.4073C115.699 8.50604 115.717 10.8092 116.511 12.896C116.901 13.9558 117.476 14.9382 118.207 15.798C118.932 16.6496 119.813 17.3541 120.802 17.8734C121.824 18.4095 122.963 18.6831 124.116 18.6696C124.816 18.6671 125.512 18.5795 126.19 18.4088C126.888 18.2368 127.561 17.9734 128.19 17.6255C128.819 17.2778 129.396 16.8435 129.904 16.3353C130.414 15.8263 130.827 15.2278 131.121 14.5696L130.028 14.048C129.746 14.6248 129.369 15.1503 128.913 15.6027Z" fill="black" fill-opacity="0.7"/>
<path d="M135.519 17.3806V10.0468H144.485V8.95289H135.519V2.0172H145.775V0.873535H134.253V18.5243H146V17.3806H135.519Z" fill="black" fill-opacity="0.7"/>
<path d="M26.1356 0.67334L18.0439 18.524H20.8415L23.2994 13.0702H30.8765L33.3343 18.524H36.1043L28.0669 0.67334H26.1356ZM24.1877 10.7875L27.0958 4.36421L29.9495 10.7875H24.1877Z" fill="black" fill-opacity="0.7"/>
</svg>
