<svg width="52" height="40" viewBox="0 0 52 40" fill="none" xmlns="http://www.w3.org/2000/svg">
<g clip-path="url(#clip0_2691_10746)">
<path d="M34.9159 24.2129C34.5726 24.2399 34.2469 24.276 33.9213 24.294C33.1731 24.339 32.4514 24.2219 31.7473 23.9517C31.5624 23.8796 31.3776 23.8166 31.1928 23.7445C30.251 23.3933 29.5029 22.7808 28.922 21.9522C28.8867 21.8981 28.8427 21.8351 28.7811 21.799C28.8075 21.8891 28.8339 21.9702 28.8691 22.0602C29.6525 24.0868 30.4358 26.1224 31.228 28.1399C31.492 28.8245 31.7737 29.5 32.0729 30.1665C32.2578 30.5808 32.0817 31.2653 31.8177 31.5175C31.6505 31.6887 31.448 31.7607 31.2192 31.6616C31.1048 31.6166 30.9815 31.5536 30.8847 31.4815C30.339 31.0312 29.7933 30.5898 29.274 30.1215C28.2706 29.2208 27.2937 28.284 26.2815 27.3924C24.838 26.1134 23.2889 24.9695 21.599 24.0508C19.8211 23.078 17.9463 22.3935 15.966 22.0512C15.2618 21.9251 14.5401 21.8441 13.8272 21.8261C13.7568 21.8261 13.6863 21.8261 13.6071 21.8261C13.5631 21.9071 13.5191 21.9882 13.4751 22.0783C12.7886 23.4293 12.0932 24.7713 11.2835 26.0413C10.5354 27.2212 9.6992 28.3381 8.72222 29.3288C8.33495 29.7161 7.91247 30.0674 7.48119 30.4097C6.38979 31.2473 5.28959 32.0579 4.11897 32.7785C3.53807 33.1298 2.94836 33.472 2.30584 33.6882C2.02419 33.7873 1.73373 33.8413 1.44328 33.8954C1.32886 33.9134 1.20564 33.9044 1.08241 33.8863C0.607126 33.8233 0.30787 33.373 0.431093 32.8866C0.492704 32.6434 0.615927 32.4362 0.79196 32.2561C1.012 32.0309 1.18803 32.0129 1.47849 32.157C1.5313 32.184 1.61931 32.193 1.68092 32.175C1.89216 32.112 2.1034 32.0489 2.29704 31.9589C2.99237 31.6346 3.62608 31.2023 4.251 30.7609C7.20834 28.6263 9.62879 25.9783 11.5651 22.8529C11.7412 22.5736 11.9084 22.2944 12.0844 22.0062C12.1197 21.9522 12.1461 21.8891 12.1989 21.799C12.058 21.799 11.9436 21.799 11.838 21.799C10.5442 21.8261 9.26793 21.9432 7.99169 22.1683C6.51302 22.4295 5.08715 22.8348 3.7053 23.4383C3.52046 23.5194 3.33563 23.6365 3.1948 23.7716C2.89555 24.0508 2.55228 24.1499 2.16501 24.0778C1.94497 24.0418 1.71613 24.0057 1.50489 23.9517C1.21444 23.8796 1.11762 23.6725 1.23204 23.3933C1.28485 23.2672 1.36407 23.1411 1.45208 23.033C2.99237 21.0875 4.41823 19.0609 5.69446 16.9263C6.4426 15.6743 7.18194 14.4044 7.70124 13.0353C8.42297 11.1168 9.1183 9.18034 9.82243 7.25286C9.85763 7.16279 9.88404 7.06371 9.91044 6.96463C10.0249 6.52329 10.3241 6.28911 10.729 6.17202C10.993 6.09997 11.1867 6.24408 11.2307 6.51429C11.2571 6.66741 11.2395 6.82052 11.1867 6.97364C10.7906 8.09951 10.4121 9.22537 10.0161 10.3512C9.58478 11.5942 9.17111 12.8372 8.65181 14.0441C7.97409 15.6203 7.12913 17.0974 6.24017 18.5475C5.63285 19.5293 5.00794 20.493 4.33021 21.4298C4.30381 21.4658 4.2774 21.5108 4.23339 21.5829C4.31261 21.5649 4.36542 21.5559 4.41823 21.5469C5.49203 21.2406 6.58343 21.0515 7.69243 20.9254C9.23272 20.7542 10.7818 20.7362 12.3309 20.7723C12.4365 20.7723 12.5421 20.7813 12.6477 20.7903C12.7798 20.8083 12.8502 20.7542 12.9118 20.6372C13.4135 19.7004 13.9328 18.7727 14.4257 17.836C15.6843 15.4402 16.9077 13.0263 18.1928 10.6395C19.5218 8.16255 21.0005 5.77572 22.576 3.46094C23.0953 2.69535 23.6586 1.96579 24.3099 1.31729C24.4771 1.15516 24.6532 0.993039 24.8292 0.848929C24.9172 0.776873 25.0316 0.722832 25.1461 0.686804C25.3661 0.614748 25.5421 0.695811 25.6565 0.911977C25.7358 1.06509 25.7622 1.23623 25.7622 1.41637C25.7622 1.82168 25.7534 2.22699 25.7534 2.62329C25.771 4.23553 25.8238 5.84777 25.9382 7.46001C26.035 8.75701 26.167 10.054 26.3431 11.351C26.5895 13.1434 26.9416 14.9087 27.4081 16.6561C27.5049 17.0164 27.5929 17.3766 27.6897 17.7459C27.7073 17.809 27.7249 17.881 27.7777 17.9351C27.7777 17.89 27.7865 17.854 27.7865 17.809C27.6897 15.8455 28.0594 13.954 28.6579 12.0986C29.142 10.6124 29.8285 9.23438 30.7967 8.00043C31.5536 7.03669 32.4514 6.23507 33.4724 5.57757C33.7452 5.40644 34.0357 5.31637 34.3438 5.28934C35.0303 5.21729 35.6728 5.38842 36.2713 5.73068C36.4473 5.82976 36.553 5.99189 36.6498 6.15401C36.8082 6.42422 36.8786 6.72145 36.9138 7.03669C36.9666 7.51406 36.9138 7.98242 36.8434 8.45978C36.6234 9.95493 36.1393 11.36 35.5144 12.7291C34.5286 14.8817 33.2876 16.8723 31.7121 18.6196C31.2104 19.178 30.6647 19.6914 30.1366 20.2138C30.031 20.3219 30.0046 20.412 30.0398 20.5471C30.2334 21.2586 30.6207 21.8351 31.1576 22.3214C31.5712 22.6907 32.0377 22.988 32.5394 23.2311C32.8739 23.3933 33.2435 23.4383 33.6044 23.4743C34.0005 23.5104 34.4054 23.5104 34.8278 23.4563C34.7926 23.4023 34.775 23.3572 34.7398 23.3212C34.2557 22.7268 34.1237 22.0512 34.2557 21.2947C34.511 19.9076 35.2239 18.8268 36.3153 17.9891C37.4683 17.0974 38.771 16.566 40.2056 16.3949C40.6545 16.3408 41.1034 16.3048 41.5523 16.3589C42.2652 16.4399 42.8813 16.7191 43.3126 17.3316C43.4534 17.5298 43.4974 17.7459 43.4886 17.9801C43.471 18.2413 43.295 18.4395 43.0222 18.5025C42.8021 18.5475 42.5733 18.4395 42.4589 18.2143C42.3972 18.0882 42.3532 17.9441 42.318 17.809C42.2828 17.6288 42.186 17.5208 42.0188 17.4577C40.8129 17.0074 39.6423 17.1064 38.4981 17.6919C37.706 18.0972 37.0635 18.6826 36.553 19.4122C36.1305 20.0157 35.9192 20.6912 35.9633 21.4388C35.9985 22.0152 36.2009 22.5196 36.6322 22.9069C37.1075 23.3482 37.6708 23.4833 38.2957 23.3482C38.4013 23.3302 38.5069 23.2672 38.6037 23.2041C38.7534 23.1051 38.8414 22.988 38.8326 22.7808C38.815 22.4025 38.8766 22.0332 39.0086 21.682C39.2551 21.0515 39.6951 20.6642 40.3289 20.475C40.5049 20.421 40.6897 20.421 40.8658 20.484C40.9626 20.5201 41.033 20.5741 41.077 20.6822C41.209 20.9974 41.253 21.3217 41.1738 21.6549C41.0594 22.1593 40.8305 22.6097 40.5577 23.042C40.4785 23.1591 40.4081 23.2762 40.3113 23.4203C40.6897 23.5104 41.0154 23.4293 41.3586 23.4113C41.1474 22.6997 41.253 22.0422 41.5171 21.4117C41.8163 20.6912 42.3092 20.1418 42.9693 19.7545C43.5503 19.4122 44.184 19.2321 44.8441 19.124C45.5218 19.0159 46.2083 19.0249 46.8773 19.196C47.0797 19.2501 47.2821 19.3311 47.4758 19.4032C47.819 19.5383 47.9775 19.8175 47.9951 20.1688C48.0127 20.439 47.9863 20.7182 47.9863 20.9884C47.9775 21.3307 47.9511 21.682 47.9599 22.0242C47.9599 22.2224 47.9863 22.4295 48.0567 22.6187C48.2151 23.078 48.5232 23.3753 48.9985 23.4833C49.5002 23.5914 50.0018 23.6275 50.5123 23.5734C50.8028 23.5464 51.0844 23.5104 51.3749 23.4743C51.6037 23.4473 51.6742 23.5014 51.683 23.7355C51.683 23.8076 51.683 23.8796 51.6741 23.9517C51.6477 24.1499 51.5421 24.2489 51.3485 24.294C50.5299 24.4651 49.7026 24.5372 48.8752 24.5011C48.2679 24.4741 47.6694 24.375 47.0973 24.1679C46.7628 24.0508 46.446 23.8977 46.1555 23.6995C46.0323 23.6184 45.9355 23.6094 45.8035 23.6545C45.1962 23.8616 44.58 23.9967 43.9463 24.0508C43.5679 24.0868 43.1894 24.0688 42.8109 24.0057C42.7405 23.9967 42.6701 23.9877 42.5997 23.9967C41.9396 24.1048 41.2794 24.2129 40.6193 24.321C40.4081 24.357 40.3993 24.366 40.4081 24.5822C40.4345 25.2487 40.4785 25.9242 40.5049 26.5907C40.5401 27.5995 40.5753 28.6083 40.6017 29.6171C40.6193 30.3286 40.6281 31.0402 40.6369 31.7607C40.6369 32.0579 40.5401 32.175 40.2496 32.2201C40.0472 32.2561 39.8712 32.2201 39.7303 32.0579C39.4927 31.7967 39.2375 31.5355 39.035 31.2473C38.6565 30.7159 38.3045 30.1755 37.9524 29.6261C37.6004 29.0586 37.2395 28.5002 36.8082 27.9958C36.5442 27.6896 36.2537 27.4014 35.9104 27.1762C35.8664 27.1492 35.8224 27.1041 35.7784 27.0681C35.488 26.7799 35.1975 26.5007 34.9159 26.2034C34.7838 26.0593 34.6606 25.8882 34.5814 25.7081C34.3966 25.2847 34.4142 24.8704 34.7134 24.4921C34.7486 24.4111 34.819 24.321 34.9159 24.2129ZM30.031 28.9145C30.0486 28.9055 30.0662 28.8965 30.0838 28.8875C30.0398 28.7704 30.0046 28.6443 29.9605 28.5272C29.8461 28.266 29.7141 28.0048 29.6085 27.7436C29.3796 27.2032 29.1684 26.6538 28.9484 26.1044C28.5611 25.1496 28.1738 24.2039 27.8041 23.2492C27.4081 22.2134 27.1176 21.1325 26.8448 20.0517C26.4575 18.4665 26.0526 16.8903 25.6918 15.296C25.3045 13.5937 25.0404 11.8644 24.8292 10.1261C24.6532 8.71198 24.5211 7.28888 24.4243 5.86579C24.3539 4.7129 24.3011 3.56001 24.2483 2.41613C24.2483 2.36209 24.2395 2.30805 24.2219 2.19997C24.0459 2.39812 23.8962 2.56025 23.7554 2.73138C23.2889 3.32583 22.884 3.97433 22.5056 4.63184C21.8895 5.71267 21.2821 6.80251 20.666 7.88334C19.9971 9.05424 19.293 10.2161 18.6417 11.405C17.8231 12.8912 17.0046 14.3773 16.3004 15.9265C15.5875 17.4847 14.8922 19.0519 14.188 20.6101C14.1704 20.6372 14.1704 20.6732 14.1616 20.7182C14.2056 20.7272 14.2408 20.7362 14.276 20.7452C15.2794 20.8533 16.274 21.0064 17.2598 21.2136C20.9037 21.9702 24.1427 23.5734 26.9416 26.0773C27.7953 26.8429 28.6227 27.6265 29.4677 28.4011C29.6437 28.5813 29.8373 28.7434 30.031 28.9145ZM29.3796 17.7549C29.3796 18.0071 29.3884 18.2593 29.3796 18.5115C29.3708 18.6826 29.4412 18.8178 29.5557 18.9348C29.6789 19.0609 29.7845 19.0699 29.9253 18.9529C29.9605 18.9258 30.0046 18.8898 30.0398 18.8538C30.6295 18.2233 31.2192 17.5928 31.8001 16.9623C31.8441 16.9173 31.8793 16.8632 31.9145 16.8002C32.3634 16.0346 32.8475 15.287 33.2612 14.5034C34.2997 12.5669 35.0567 10.5404 35.3295 8.33369C35.4087 7.73022 35.444 7.12676 35.2679 6.5323C35.2151 6.35216 35.1359 6.18103 35.0039 6.05493C34.7926 5.85678 34.3966 5.81175 34.1677 5.98288C33.8597 6.21706 33.5428 6.46025 33.2612 6.72145C32.4162 7.52306 31.8089 8.4868 31.3336 9.55863C31.2016 9.85586 31.0872 10.1711 30.9551 10.4683C30.6735 11.0898 30.4358 11.7293 30.2334 12.3778C29.7053 14.1432 29.4677 15.9355 29.3796 17.7549ZM35.4704 25.1046C35.488 25.3117 35.5408 25.4108 35.6992 25.5459C36.4121 26.1314 37.0106 26.8249 37.5563 27.5725C37.9964 28.1669 38.4277 28.7794 38.859 29.3829C38.903 29.4459 38.947 29.5 38.991 29.563C39.0262 29.4009 39.035 29.2568 39.0262 29.1037C38.9998 28.3741 38.9734 27.6536 38.9382 26.924C38.903 26.1944 38.8502 25.4649 38.8062 24.7263C38.7974 24.5101 38.7358 24.4561 38.5157 24.4831C38.0756 24.5372 37.6356 24.5822 37.1955 24.6362C36.773 24.6813 36.3593 24.7533 35.9633 24.8974C35.796 24.9605 35.6288 25.0415 35.4704 25.1046ZM44.3512 23.1591C44.7033 23.024 44.9497 22.7808 45.1081 22.4385C45.2226 22.1863 45.337 21.9251 45.425 21.6639C45.5042 21.4388 45.645 21.2857 45.8299 21.1596C45.9267 21.0965 46.0323 21.0335 46.1203 20.9434C46.446 20.6191 46.3844 20.43 46.0851 20.2048C45.7595 19.9526 45.3722 19.8626 44.9673 19.9076C44.536 19.9526 44.2104 20.1868 43.9375 20.5201C43.5767 20.9524 43.3742 21.4658 43.2598 22.0152C43.1982 22.2854 43.251 22.5556 43.383 22.8078C43.4358 22.9069 43.5062 22.9519 43.6295 22.9159C43.7351 22.8799 43.8495 22.8529 43.9551 22.8258C44.1224 22.7898 44.2016 22.8168 44.2808 22.979C44.2984 23.033 44.3248 23.087 44.3512 23.1591Z" fill="black" fill-opacity="0.7"/>
<path d="M12.2782 11.1529C12.1462 11.1259 11.9966 11.1079 11.8558 11.0629C11.7061 11.0178 11.6445 10.9097 11.6445 10.7476C11.6533 10.6035 11.6621 10.4594 11.7502 10.3423C11.9702 10.0451 12.1726 9.72984 12.4015 9.44162C12.7711 8.97325 13.1232 8.48688 13.4313 7.97348C13.6601 7.59519 13.9946 7.33399 14.4699 7.343C14.7603 7.35201 14.9539 7.56817 14.9275 7.8654C14.9099 8.19866 14.7867 8.49589 14.5931 8.75709C14.1178 9.41459 13.6337 10.0721 13.1672 10.7386C13.0352 10.9188 12.8768 11.0268 12.6743 11.0809C12.5599 11.1169 12.4279 11.1259 12.2782 11.1529Z" fill="black" fill-opacity="0.7"/>
<path d="M5.66802 37.5253C4.71744 37.5253 4.00451 36.8498 3.91649 35.868C3.87249 35.3906 3.9341 34.9313 4.17174 34.508C4.4974 33.9225 4.99029 33.5893 5.66802 33.5803C6.35454 33.5713 6.85624 33.8955 7.1819 34.499C7.51636 35.1024 7.54276 35.7509 7.31392 36.3994C7.04107 37.12 6.44256 37.5253 5.66802 37.5253ZM6.84744 35.5708C6.83863 35.4357 6.83863 35.3006 6.82983 35.1655C6.79463 34.7962 6.71541 34.4449 6.50417 34.1297C6.0905 33.5262 5.27194 33.5172 4.86707 34.1297C4.76145 34.2828 4.69104 34.4539 4.63823 34.6341C4.4886 35.1565 4.471 35.6789 4.56781 36.2103C4.62062 36.5165 4.72624 36.8047 4.91988 37.0569C5.32475 37.5613 6.01128 37.5793 6.42496 37.0749C6.54818 36.9218 6.6362 36.7327 6.70661 36.5525C6.82103 36.2283 6.84744 35.904 6.84744 35.5708Z" fill="black" fill-opacity="0.7"/>
<path d="M42.7935 37.426C42.2566 37.0657 42.3886 36.5884 42.7495 36.2911C42.7143 36.2461 42.6879 36.2011 42.6527 36.156C42.4063 35.7867 42.5295 35.2643 42.9167 35.0572C43.2952 34.859 43.6913 34.877 44.0874 35.0031C44.1402 35.0212 44.193 35.0482 44.2458 35.0752C44.3426 35.0572 44.4042 34.9851 44.4394 34.8951C44.501 34.7329 44.4394 34.6248 44.2634 34.6158C44.1402 34.6068 44.0081 34.6158 43.8937 34.6158C43.8497 34.4357 43.8937 34.3276 44.0169 34.2556C44.237 34.1205 44.6067 34.2376 44.6243 34.5528C44.6331 34.778 44.5891 34.9221 44.369 35.1563C44.4218 35.2733 44.4922 35.3814 44.5362 35.4985C44.6595 35.8858 44.501 36.2461 44.1402 36.4082C43.7793 36.5703 43.4184 36.5613 43.0488 36.4443C42.9872 36.4262 42.9343 36.3992 42.8727 36.3722C42.6703 36.5343 42.6615 36.7865 42.8727 36.9216C43.0048 37.0027 43.172 37.0477 43.3216 37.0927C43.5153 37.1378 43.7089 37.1468 43.9025 37.1828C44.0345 37.2098 44.1666 37.2459 44.281 37.2999C44.7211 37.5071 44.8179 38.0475 44.4922 38.4168C44.3338 38.5879 44.1402 38.678 43.9201 38.714C43.6033 38.768 43.2864 38.777 42.9784 38.678C42.8287 38.6329 42.6703 38.5519 42.5559 38.4528C42.2654 38.2006 42.3094 37.7683 42.6263 37.5431C42.6703 37.5071 42.7319 37.471 42.7935 37.426ZM42.9167 37.462C42.8727 37.5521 42.8287 37.6152 42.8023 37.6872C42.6351 38.1466 42.8463 38.5519 43.2952 38.6329C43.4448 38.66 43.6033 38.651 43.7529 38.6329C43.8497 38.6239 43.9377 38.5699 44.0169 38.5158C44.1842 38.3988 44.2546 38.2186 44.2282 38.0115C44.2018 37.8133 44.0698 37.7052 43.9025 37.6602C43.5857 37.5791 43.26 37.5341 42.9167 37.462ZM44.061 35.7417C44.0434 35.6156 44.0257 35.4805 43.9905 35.3544C43.9201 35.1202 43.7617 35.0031 43.5417 35.0031C43.3216 35.0031 43.172 35.1202 43.0928 35.3544C43.0136 35.5886 43.0136 35.8318 43.084 36.075C43.1456 36.3091 43.3128 36.4352 43.5417 36.4352C43.7705 36.4352 43.9377 36.3001 43.9993 36.075C44.0345 35.9759 44.0346 35.8678 44.061 35.7417Z" fill="black" fill-opacity="0.7"/>
<path d="M28.8691 33.5799C28.7723 33.5619 28.6843 33.5529 28.5522 33.5349C28.7371 33.4628 29.0627 33.4538 29.362 33.4898C29.362 34.0663 29.362 34.6427 29.362 35.2732C29.4324 35.2101 29.4676 35.1831 29.5028 35.1471C29.7845 34.8409 30.3654 34.8769 30.6118 35.03C30.7703 35.1291 30.8759 35.2732 30.9111 35.4533C30.9375 35.5704 30.9463 35.6965 30.9551 35.8136C30.9639 36.1919 30.9551 36.5792 30.9551 36.9575C30.9551 37.0115 30.9551 37.0566 30.9551 37.1106C30.9727 37.3087 31.0607 37.3718 31.2543 37.3268C31.2808 37.3178 31.3072 37.3087 31.3688 37.2907C31.2191 37.5069 31.0431 37.5339 30.8495 37.5159C30.6734 37.4979 30.5502 37.3898 30.5062 37.2187C30.4798 37.1196 30.471 37.0205 30.471 36.9215C30.471 36.5251 30.471 36.1288 30.471 35.7325C30.471 35.6515 30.471 35.5704 30.4622 35.4984C30.4182 35.1021 30.1189 34.9219 29.7581 35.0931C29.5468 35.1921 29.4236 35.3723 29.3972 35.6155C29.3796 35.7686 29.3884 35.9217 29.3884 36.0658C29.3884 36.4981 29.3884 36.9305 29.3884 37.3718C29.494 37.3898 29.582 37.3988 29.6965 37.4168C29.5556 37.4889 28.8427 37.5069 28.5963 37.4438C28.6843 37.3538 28.7899 37.4258 28.8867 37.3718C28.8691 36.1198 28.8691 34.8499 28.8691 33.5799Z" fill="black" fill-opacity="0.7"/>
<path d="M21.8188 37.3992C21.986 37.3992 22.1269 37.3992 22.2853 37.3992C22.1797 37.4803 22.1797 37.4803 21.7924 37.4803C21.634 37.4803 21.4667 37.4803 21.3083 37.4803C21.1411 37.4803 20.9827 37.4803 20.8154 37.4533C20.9475 37.3452 21.1059 37.4262 21.2555 37.3632C21.2555 36.1653 21.2555 34.9674 21.2555 33.7694C20.6922 33.6253 20.2609 33.8865 20.1113 34.454C20.0849 34.562 20.1113 34.6971 19.9969 34.8052C19.8913 34.6791 19.9441 34.553 19.9353 34.4269C19.9265 34.3008 19.9353 34.1657 19.9353 34.0396C19.9353 33.9135 19.9353 33.7874 19.9353 33.6523C21.0091 33.6523 22.0477 33.6523 23.0862 33.6523C23.1391 33.8145 23.1391 34.5801 23.0862 34.7962C23.051 34.7692 23.007 34.7512 22.9982 34.7242C22.9718 34.6431 22.963 34.553 22.9454 34.472C22.8398 33.9856 22.567 33.7604 22.0829 33.7424C21.9948 33.7424 21.9068 33.7424 21.8012 33.7424C21.8188 34.9583 21.8188 36.1653 21.8188 37.3992Z" fill="black" fill-opacity="0.7"/>
<path d="M32.5309 37.381C32.6277 37.39 32.7158 37.408 32.839 37.417C32.663 37.4891 32.0204 37.4981 31.73 37.4531C31.8092 37.336 31.9324 37.4351 32.0204 37.363C32.0204 36.6064 32.0204 35.8408 32.0204 35.0662C31.9236 35.0572 31.8268 35.0482 31.7388 35.0302C31.7388 35.0122 31.7388 34.9942 31.7388 34.9762C31.9852 34.9582 32.2229 34.9672 32.4781 34.9762C32.4869 35.0842 32.4869 35.1743 32.4957 35.2914C32.5309 35.2644 32.5485 35.2554 32.5661 35.2374C32.8302 34.9131 33.1734 34.8681 33.5431 34.9491C33.8336 35.0122 34.0008 35.2194 34.0536 35.5166C34.0712 35.6337 34.08 35.7418 34.08 35.8588C34.08 36.2191 34.08 36.5794 34.08 36.9397C34.08 36.9937 34.08 37.0568 34.08 37.1108C34.0976 37.327 34.1856 37.381 34.3881 37.318C34.4057 37.309 34.4233 37.309 34.4849 37.3C34.4409 37.354 34.4145 37.399 34.3881 37.4261C34.212 37.5522 34.0184 37.5702 33.8248 37.4801C33.6399 37.39 33.5959 37.2189 33.5959 37.0297C33.5959 36.5974 33.5959 36.1651 33.5959 35.7327C33.5959 35.6427 33.5959 35.5436 33.5783 35.4535C33.4991 35.0752 33.191 34.9311 32.8566 35.1113C32.6982 35.1923 32.5925 35.3274 32.5485 35.4986C32.5221 35.5796 32.5133 35.6697 32.5045 35.7508C32.5045 36.2732 32.5045 36.7866 32.5045 37.309C32.5221 37.327 32.5309 37.345 32.5309 37.381Z" fill="black" fill-opacity="0.7"/>
<path d="M16.547 35.3182C16.7935 34.976 17.1015 34.8859 17.4536 34.9219C17.8145 34.958 18.0521 35.1831 18.0961 35.5524C18.1137 35.7055 18.1137 35.8497 18.1137 36.0028C18.1137 36.327 18.1137 36.6513 18.1137 36.9755C18.1137 37.0386 18.1137 37.1106 18.1225 37.1647C18.1489 37.3178 18.237 37.3718 18.3866 37.3358C18.4218 37.3268 18.4482 37.3088 18.501 37.3178C18.4746 37.3538 18.457 37.3898 18.4218 37.4169C18.2458 37.543 18.0521 37.561 17.8585 37.4709C17.6737 37.3808 17.6296 37.2097 17.6296 37.0206C17.6296 36.5972 17.6296 36.1739 17.6296 35.7416C17.6296 35.6425 17.6208 35.5434 17.6032 35.4443C17.524 35.0661 17.1984 34.9129 16.8639 35.1111C16.6615 35.2282 16.547 35.4173 16.547 35.6425C16.5294 36.2189 16.5382 36.7954 16.5382 37.3808C16.6351 37.3898 16.7319 37.4079 16.8639 37.4259C16.6703 37.4889 16.0013 37.5069 15.7461 37.4619C15.8253 37.3538 15.9485 37.4439 16.0365 37.3718C16.0365 36.6152 16.0365 35.8406 16.0365 35.0751C15.9397 35.0661 15.8517 35.057 15.7461 35.048C15.8605 34.967 16.1422 34.958 16.503 35.003C16.5294 35.0751 16.5382 35.1741 16.547 35.3182Z" fill="black" fill-opacity="0.7"/>
<path d="M13.7484 35.7417C13.5547 35.8678 13.3963 35.8768 13.2819 35.7777C13.1675 35.6876 13.1411 35.5165 13.2115 35.3364C13.2731 35.1833 13.3963 35.0842 13.5371 35.0121C13.81 34.886 14.1004 34.886 14.3821 34.9401C14.7694 35.0211 14.963 35.2643 14.9718 35.6696C14.9806 36.0119 14.9718 36.3451 14.9718 36.6874C14.9718 36.8135 14.9718 36.9306 14.9718 37.0567C14.9806 37.3269 15.051 37.3809 15.3151 37.3089C15.3239 37.3089 15.3415 37.3179 15.3503 37.3179C15.1566 37.6061 14.7606 37.5971 14.5141 37.2819C14.4965 37.2909 14.4613 37.2999 14.4437 37.3179C14.1972 37.5341 13.9068 37.5521 13.6075 37.5161C13.3259 37.48 13.141 37.3089 13.0706 37.0387C13.0002 36.7505 13.0794 36.5163 13.3171 36.3361C13.5723 36.147 13.8716 36.111 14.1796 36.093C14.2677 36.0839 14.3645 36.093 14.4701 36.093C14.4701 35.8408 14.4877 35.6066 14.4613 35.3724C14.4437 35.1833 14.3117 35.0662 14.1356 35.0211C13.8804 34.9581 13.6515 35.0121 13.4403 35.2103C13.5459 35.3904 13.6427 35.5615 13.7484 35.7417ZM14.4789 36.183C14.3381 36.201 14.2237 36.201 14.118 36.2191C13.7132 36.2731 13.5195 36.5343 13.5723 36.9576C13.5987 37.1468 13.6868 37.2909 13.8628 37.3359C14.0652 37.39 14.2677 37.3719 14.4261 37.2008C14.4525 37.1738 14.4701 37.1288 14.4701 37.0837C14.4877 36.7955 14.4789 36.5073 14.4789 36.183Z" fill="black" fill-opacity="0.7"/>
<path d="M36.3332 37.5252C35.4794 37.5252 34.9953 37.0568 34.9425 36.3453C34.9249 36.1561 34.9513 35.958 34.9953 35.7688C35.1186 35.3005 35.5146 34.8501 36.2628 34.9132C36.7909 34.9582 37.2045 35.3635 37.2926 35.9219C37.3366 36.2192 37.319 36.5164 37.1957 36.7866C36.9933 37.264 36.6324 37.5162 36.3332 37.5252ZM36.8173 36.2552C36.8085 36.2552 36.7909 36.2552 36.7821 36.2462C36.7821 36.1381 36.7909 36.03 36.7821 35.9219C36.7645 35.6968 36.7204 35.4806 36.606 35.2824C36.3684 34.8951 35.8843 34.8951 35.6467 35.2734C35.585 35.3725 35.541 35.4806 35.5146 35.5887C35.409 36.021 35.4178 36.4533 35.5146 36.8947C35.5322 36.9938 35.5762 37.0838 35.629 37.1739C35.7259 37.345 35.8843 37.4351 36.0779 37.4441C36.3772 37.4531 36.5972 37.318 36.6852 37.0208C36.7557 36.7686 36.7733 36.5074 36.8173 36.2552Z" fill="black" fill-opacity="0.7"/>
<path d="M40.672 34.9131C41.3145 34.9221 41.781 35.3634 41.8426 36.0389C41.869 36.3722 41.8162 36.6784 41.649 36.9667C41.2265 37.6962 40.1087 37.7232 39.6774 36.9667C39.4134 36.5073 39.3958 36.0209 39.6158 35.5436C39.827 35.1022 40.1967 34.9131 40.672 34.9131ZM41.3409 36.3902C41.3233 36.147 41.3321 35.9579 41.2969 35.7868C41.2617 35.6156 41.2177 35.4355 41.1297 35.2824C40.9184 34.9131 40.4432 34.9041 40.2055 35.2553C40.1263 35.3724 40.0735 35.5075 40.0471 35.6517C39.9591 36.048 39.9679 36.4533 40.0471 36.8496C40.0647 36.9577 40.1175 37.0657 40.1703 37.1648C40.2671 37.3449 40.4256 37.426 40.6192 37.435C40.9184 37.453 41.1297 37.3269 41.2265 37.0387C41.2793 36.8045 41.3057 36.5613 41.3409 36.3902Z" fill="black" fill-opacity="0.7"/>
<path d="M11.0457 36.2551C11.0545 36.6604 11.1161 37.0207 11.4418 37.2459C11.8378 37.5161 12.2163 37.372 12.5772 37.1108C12.5596 37.1468 12.5508 37.1828 12.5244 37.2008C12.1459 37.5341 11.7058 37.6061 11.2393 37.435C10.7904 37.2639 10.5792 36.9036 10.5264 36.4262C10.5 36.165 10.5176 35.9128 10.6056 35.6607C10.7728 35.1833 11.1337 34.9131 11.6266 34.9131C11.7762 34.9131 11.9346 34.9311 12.0843 34.9671C12.3483 35.0392 12.5068 35.2283 12.5332 35.5075C12.5684 35.7868 12.4627 36.0209 12.2251 36.165C11.9699 36.3272 11.6882 36.3632 11.3889 36.3182C11.3009 36.3182 11.1865 36.2821 11.0457 36.2551ZM11.0457 36.156C11.1601 36.174 11.2657 36.2101 11.3713 36.2191C11.8466 36.2641 12.0931 36.0209 12.0579 35.5346C12.0579 35.4895 12.0491 35.4445 12.0403 35.4085C12.0051 35.2193 11.9258 35.0662 11.7322 35.0122C11.5562 34.9671 11.3801 35.0662 11.2569 35.2553C11.2393 35.2824 11.2305 35.3004 11.2129 35.3274C11.0985 35.5796 11.0369 35.8498 11.0457 36.156Z" fill="black" fill-opacity="0.7"/>
<path d="M25.6827 37.075C25.6915 37.1381 25.6915 37.1471 25.6915 37.1561C25.3307 37.5344 24.8818 37.6154 24.4065 37.4713C23.94 37.3272 23.7024 36.9669 23.6408 36.4806C23.5967 36.1743 23.6232 35.8591 23.7552 35.5709C23.9488 35.1565 24.2657 34.9314 24.7146 34.9224C24.873 34.9224 25.0402 34.9314 25.1898 34.9764C25.4451 35.0485 25.6123 35.2376 25.6475 35.5168C25.6827 35.805 25.5771 36.0392 25.3219 36.1923C25.0666 36.3455 24.7762 36.3815 24.4857 36.3365C24.3801 36.3184 24.2657 36.2914 24.1601 36.2734C24.0984 36.6697 24.3009 37.1471 24.6001 37.3002C25.005 37.4983 25.3571 37.3542 25.6827 37.075ZM24.1513 36.1293C24.3889 36.2284 24.6001 36.2464 24.785 36.1923C24.9786 36.1473 25.093 36.0302 25.137 35.8321C25.181 35.6339 25.181 35.4268 25.1018 35.2376C24.9962 34.9854 24.7234 34.9134 24.5033 35.0845C24.4593 35.1205 24.4153 35.1656 24.3889 35.2106C24.2041 35.4988 24.1513 35.805 24.1513 36.1293Z" fill="black" fill-opacity="0.7"/>
<path d="M46.3935 36.7954C46.6135 36.2189 46.8336 35.6515 47.0536 35.066C46.9128 35.057 46.7984 35.048 46.6927 35.039C46.6927 35.021 46.6927 35.003 46.6927 34.985C46.948 34.9669 47.2032 34.976 47.5113 34.976C47.3881 35.093 47.2736 35.021 47.1768 35.075C47.1504 35.1381 47.1152 35.2191 47.0888 35.3002C46.7455 36.1829 46.4111 37.0656 46.0678 37.9482C45.9886 38.1464 45.883 38.3355 45.7774 38.5157C45.6893 38.6598 45.5485 38.7408 45.3725 38.7408C45.126 38.7408 45.0028 38.5787 45.0468 38.2995C45.1965 38.2995 45.3549 38.2905 45.5045 38.2995C45.6981 38.3085 45.8302 38.2184 45.9094 38.0473C45.9886 37.8852 46.0502 37.7231 46.1118 37.5519C46.1294 37.5069 46.1206 37.4348 46.103 37.3898C45.7598 36.6152 45.4077 35.8496 45.0644 35.075C45.0644 35.066 45.0556 35.066 45.038 35.057C44.95 35.048 44.8532 35.039 44.7388 35.03C44.8708 34.9489 45.6805 34.9309 45.9622 34.994C45.8478 35.093 45.707 35.003 45.5837 35.075C45.839 35.6425 46.0942 36.2189 46.3495 36.7863C46.3583 36.7954 46.3759 36.7954 46.3935 36.7954Z" fill="black" fill-opacity="0.7"/>
<path d="M39.1054 37.2281C39.1054 37.2731 39.1142 37.2821 39.1054 37.2911C38.947 37.5073 38.727 37.5433 38.4805 37.5073C38.2693 37.4713 38.1285 37.3271 38.0845 37.111C38.0581 36.9849 38.0493 36.8588 38.0493 36.7237C38.0493 35.7599 38.0493 34.7962 38.0493 33.8325C38.0493 33.7514 38.0493 33.6793 38.0493 33.5893C37.9436 33.5713 37.8556 33.5532 37.75 33.5352C37.882 33.4632 38.1989 33.4452 38.5333 33.4992C38.5333 33.5803 38.5333 33.6613 38.5333 33.7424C38.5333 34.7602 38.5333 35.787 38.5333 36.8047C38.5333 36.8948 38.5333 36.9759 38.5509 37.0659C38.6038 37.3542 38.8062 37.4352 39.0526 37.2821C39.0526 37.2641 39.0702 37.2551 39.1054 37.2281Z" fill="black" fill-opacity="0.7"/>
<path d="M27.4958 35.7868C27.6542 35.6157 27.8039 35.4535 27.9447 35.3004C27.8039 34.9491 27.2582 34.9041 26.9853 35.1743C26.8973 35.2554 26.8181 35.3545 26.7741 35.4715C26.5981 35.9309 26.5716 36.3993 26.7565 36.8586C26.9149 37.2639 27.2406 37.4351 27.6543 37.354C27.7511 37.336 27.8479 37.2729 27.9447 37.2279C27.9887 37.2009 28.0327 37.1649 28.1031 37.1558C28.0855 37.1919 28.0679 37.2279 28.0327 37.2639C27.575 37.7053 26.4836 37.6602 26.1932 36.7325C26.07 36.3362 26.0964 35.9309 26.2812 35.5616C26.554 34.9942 27.1702 34.823 27.7071 34.9762C27.9359 35.0392 28.0855 35.1923 28.1207 35.4445C28.1471 35.6157 28.1207 35.7598 27.9711 35.8588C27.8303 35.9489 27.6807 35.9309 27.4958 35.7868Z" fill="black" fill-opacity="0.7"/>
<path d="M9.39972 35.7868C9.55815 35.6157 9.70777 35.4535 9.8574 35.3004C9.69897 34.9311 9.17088 34.9221 8.93323 35.1383C8.82761 35.2284 8.73079 35.3545 8.68679 35.4806C8.51075 35.9309 8.49315 36.3903 8.66918 36.8496C8.82761 37.2639 9.18848 37.4531 9.60215 37.345C9.69897 37.318 9.78699 37.2549 9.88381 37.2009C9.91901 37.1829 9.96302 37.1558 10.0246 37.1649C9.99823 37.2009 9.97182 37.2369 9.93662 37.2639C9.57575 37.5612 9.17968 37.5882 8.766 37.4351C8.34352 37.2819 8.12348 36.9307 8.06187 36.4893C8.01786 36.2101 8.04427 35.9309 8.14989 35.6607C8.38753 35.0572 8.95084 34.796 9.58455 34.9492C9.8662 35.0122 10.0334 35.2194 10.051 35.4716C10.0598 35.6337 10.0334 35.7778 9.88381 35.8589C9.72538 35.9489 9.59335 35.9309 9.39972 35.7868Z" fill="black" fill-opacity="0.7"/>
</g>
<defs>
<clipPath id="clip0_2691_10746">
<rect width="52" height="39" fill="white" transform="translate(0 0.17334)"/>
</clipPath>
</defs>
</svg>
