<svg width="109" height="21" viewBox="0 0 109 21" fill="none" xmlns="http://www.w3.org/2000/svg">
<path d="M108.795 1.18848H104.54V20.1579H108.795V1.18848Z" fill="black" fill-opacity="0.7"/>
<path d="M91.7153 14.5742L86.4556 1.15967H81.9053V20.1587H86.1896V15.0174L85.9831 11.7082L89.5288 20.2177H91.5076H91.7153H93.931L97.4463 11.7082L97.2702 15.0174V20.1587H101.524V1.15967H96.9738L91.7153 14.5742Z" fill="black" fill-opacity="0.7"/>
<path d="M71.2689 0.479492C69.3776 0.479492 66.7477 1.01134 64.9159 3.52287C64.1178 4.58659 63.7048 5.8867 63.7048 7.39356V13.9531C63.7048 16.0805 64.6499 18.0602 66.246 19.2421C67.7523 20.3058 69.5258 20.8672 71.298 20.8672C73.0715 20.8672 74.8742 20.2762 76.3513 19.2421C77.9462 18.0602 78.8924 16.0805 78.8924 13.9531V7.39356C78.8924 2.31143 74.3421 0.479492 71.2689 0.479492ZM74.5486 13.2735C74.5486 15.3123 73.2185 16.701 71.2689 16.701C69.3484 16.701 67.9891 15.2828 67.9891 13.2735V8.07319C67.9891 6.03441 69.3193 4.61611 71.2397 4.61611C73.1602 4.61611 74.5486 6.06393 74.5486 8.07319V13.2735Z" fill="black" fill-opacity="0.7"/>
<path d="M48.31 12.565C50.024 11.5013 51.0868 9.28516 51.0868 7.27602C51.0868 4.08484 48.4873 1.15967 45.2659 1.15967H35.8118V20.1882H40.0657V13.3922H43.8179L43.8483 13.4514L46.7442 20.1882H51.4415L48.1326 12.6536L48.31 12.565ZM45.2659 9.13745H40.0657V5.44411H45.2659C46.0931 5.44411 46.8025 6.44868 46.8025 7.27602C46.8025 8.13288 46.1235 9.13745 45.2659 9.13745Z" fill="black" fill-opacity="0.7"/>
<path d="M25.1749 0.479492C23.2836 0.479492 20.6537 1.01134 18.8219 3.52287C18.0238 4.58659 17.6108 5.8867 17.6108 7.39356V13.9531C17.6108 16.0805 18.5559 18.0602 20.152 19.2421C21.6583 20.3058 23.4318 20.8672 25.204 20.8672C26.9775 20.8672 28.7789 20.2762 30.2573 19.2421C31.8522 18.0602 32.7972 16.0805 32.7972 13.9531V7.39356C32.7972 2.31143 28.2469 0.479492 25.1749 0.479492ZM28.4546 13.2735C28.4546 15.3123 27.1245 16.701 25.1749 16.701C23.2544 16.701 21.8951 15.2828 21.8951 13.2735V8.07319C21.8951 6.03441 23.224 4.61611 25.1445 4.61611C27.0662 4.61611 28.4546 6.06393 28.4546 8.07319V13.2735Z" fill="black" fill-opacity="0.7"/>
<path d="M13.3264 10.5848C13.3264 10.5848 15.1278 9.25522 15.1278 6.95054C15.1278 3.70032 12.4688 1.04102 9.21824 1.04102H0V20.2763H9.42595C12.6753 20.2763 15.3356 17.6466 15.3356 14.3964C15.3052 12.0032 13.3264 10.5848 13.3264 10.5848ZM4.31442 5.41404H9.21824C10.0467 5.41404 10.7549 6.12319 10.7549 6.95054C10.7549 7.8074 10.0758 8.51655 9.21824 8.51655H4.31442V5.41404ZM9.42595 15.9624H4.31442V12.8304H9.36643C10.2532 12.8304 10.9626 13.5395 10.9626 14.3964C10.9626 15.2534 10.2532 15.9624 9.42595 15.9624Z" fill="black" fill-opacity="0.7"/>
<path d="M56.4061 14.4848C56.4061 15.9917 55.9919 16.5827 54.4857 16.5827C53.9233 16.5827 53.4507 16.5532 53.0669 16.5235V20.4239C53.7168 20.5421 54.397 20.6011 54.9278 20.6011C58.77 20.6011 60.6601 18.8282 60.6601 14.9872V1.18848H56.4061V14.4848Z" fill="black" fill-opacity="0.7"/>
</svg>
