<svg width="66" height="38" viewBox="0 0 66 38" fill="none" xmlns="http://www.w3.org/2000/svg">
<g clip-path="url(#clip0_2691_10824)">
<path d="M1.21643 13.4682H3.95127C4.33289 13.4682 4.71448 13.4682 5.03247 13.5316C5.3505 13.5316 5.66852 13.5951 5.9229 13.6585C6.24091 13.722 6.49535 13.8489 6.74971 14.0393C7.19495 14.2931 7.51292 14.6738 7.76735 15.1814C8.02176 15.6256 8.14892 16.1332 8.14892 16.7043C8.14892 17.783 7.76735 18.6079 6.94052 19.179C6.5589 19.4328 6.17731 19.6232 5.73212 19.7501C5.2869 19.8136 4.77808 19.877 4.20568 19.877H2.23405V24.1919H1.15283V13.4682H1.21643ZM4.07848 18.7983C4.52369 18.7983 4.96887 18.7983 5.2869 18.7348C5.60491 18.6714 5.9229 18.5445 6.24091 18.3541C6.5589 18.1638 6.74971 17.9099 6.94052 17.5927C7.13135 17.2754 7.19495 16.9581 7.19495 16.5774C7.19495 16.1332 7.06775 15.6891 6.87692 15.3718C6.62251 15.0545 6.30452 14.7372 5.9229 14.6103C5.54131 14.42 5.03247 14.3565 4.46009 14.3565C4.39649 14.3565 4.26928 14.3565 4.07848 14.3565C3.88767 14.3565 3.82407 14.3565 3.69686 14.3565H2.36125V18.7983H4.07848ZM20.2968 18.7348C20.2968 19.7501 20.0423 20.6385 19.5335 21.5268C19.0248 22.3517 18.3251 23.0497 17.4983 23.5574C16.6715 24.0014 15.7811 24.2554 14.7635 24.2554C13.8094 24.2554 12.8554 24.0014 12.0286 23.4939C11.2018 22.9862 10.5022 22.3517 9.99337 21.5268C9.48459 20.7019 9.23016 19.7501 9.23016 18.7983C9.23016 17.783 9.48459 16.8947 9.99337 16.0063C10.5022 15.1814 11.2018 14.4834 12.0286 13.9758C12.8554 13.4682 13.8094 13.2144 14.8271 13.2144C15.7811 13.2144 16.7351 13.4682 17.5619 13.9123C18.3887 14.42 19.0883 15.0545 19.5972 15.8794C20.0423 16.8312 20.2968 17.7196 20.2968 18.7348ZM14.7635 14.2931C13.9366 14.2931 13.1734 14.4834 12.5374 14.9276C11.8378 15.3083 11.2654 15.8794 10.8838 16.5774C10.5022 17.2754 10.2478 18.0369 10.2478 18.8618C10.2478 19.6867 10.4386 20.3846 10.8838 21.0826C11.2654 21.7806 11.8378 22.2882 12.5374 22.669C13.237 23.0497 14.0003 23.2399 14.7635 23.2399C15.3995 23.2399 15.9719 23.1132 16.4807 22.9227C17.0531 22.669 17.4983 22.3517 17.9435 21.971C18.3887 21.5268 18.7067 21.0826 18.8975 20.5116C19.1519 19.9404 19.2155 19.3694 19.2155 18.7348C19.2155 17.9099 19.0248 17.212 18.5795 16.514C18.1979 15.816 17.6255 15.3083 16.9259 14.9276C16.2899 14.4834 15.5903 14.2931 14.7635 14.2931ZM22.014 13.4682H23.0951V23.1132H27.4202V24.0649H22.014V13.4682ZM29.9006 20.5116V24.0649H30.9816V20.5116L34.607 13.4682H33.4623L30.4093 19.4328L27.4202 13.4682H26.2752L29.9006 20.5116Z" fill="black" fill-opacity="0.7"/>
<path d="M36.2604 13.4047H37.8503L38.0411 13.6585L42.3027 20.0674V13.4047H44.3375V24.0649H42.5567L42.3659 23.8111L37.7867 16.9581V24.0649H35.7515V13.4047H36.2604ZM56.6127 18.7349C56.6127 19.2425 56.5492 19.7501 56.4219 20.1943C56.4219 20.2578 56.3582 20.3847 56.3582 20.4481C56.2309 20.8288 56.0403 21.2095 55.8493 21.5903C55.5949 22.0344 55.2772 22.4152 54.9589 22.7324C54.641 23.0497 54.2594 23.3669 53.8144 23.6207C53.6873 23.6842 53.5599 23.7477 53.4328 23.8111C53.3055 23.8746 53.1783 23.9381 53.0512 24.0016C52.4152 24.2554 51.7153 24.3821 51.0158 24.3821C50.5069 24.3821 50.0619 24.3189 49.6164 24.1919C49.5532 24.1919 49.4893 24.1284 49.3622 24.1284C48.9804 24.0016 48.5988 23.8746 48.2809 23.6207C47.8357 23.3669 47.4539 23.1132 47.1362 22.7324C46.8179 22.4152 46.5002 22.0344 46.2457 21.5903C45.9913 21.1461 45.8007 20.7019 45.6734 20.2578C45.5463 19.8135 45.4824 19.3059 45.4824 18.7983C45.4824 18.2907 45.5463 17.7831 45.6734 17.3389C45.8007 16.8947 45.9913 16.4505 46.2457 16.0063C46.3094 15.8794 46.3729 15.7525 46.4363 15.6891C46.5002 15.5622 46.5634 15.4987 46.6908 15.3718C47.1362 14.8642 47.6449 14.42 48.2809 14.0393C48.4083 13.9758 48.5354 13.9124 48.6627 13.8489C48.7898 13.7855 48.917 13.722 49.0443 13.6585C49.6803 13.4047 50.3798 13.2778 51.0793 13.2778C51.588 13.2778 52.0334 13.3413 52.4784 13.4682C52.9239 13.5951 53.3689 13.7855 53.8144 14.0393C54.2594 14.2931 54.641 14.5469 54.9589 14.9276C55.2772 15.2449 55.5949 15.6256 55.8493 16.0698C56.1038 16.514 56.2948 16.9581 56.4219 17.4023C56.5492 17.7196 56.6127 18.2272 56.6127 18.7349ZM50.7614 15.3083C50.5704 15.3083 50.3798 15.3718 50.1892 15.4353C49.8709 15.4987 49.6164 15.6256 49.3622 15.816C49.2988 15.8794 49.2349 15.8794 49.1714 15.9429C49.1077 16.0063 49.0443 16.0698 48.9804 16.0698C48.6627 16.3236 48.3444 16.6409 48.1538 17.0851C48.0267 17.3389 47.8994 17.6561 47.7722 17.91C47.7084 18.2272 47.6449 18.481 47.6449 18.7983C47.6449 19.1156 47.7084 19.3694 47.7722 19.6866C47.7722 19.7501 47.7723 19.8135 47.8357 19.8135C47.8994 20.0674 48.0267 20.2577 48.1538 20.5115C48.2173 20.575 48.2173 20.6384 48.2809 20.7019C48.3444 20.7654 48.4083 20.8288 48.4083 20.8923C48.6627 21.2095 49.0443 21.5268 49.4259 21.7172C49.4893 21.7806 49.5532 21.7806 49.6803 21.8441C49.7438 21.9075 49.8709 21.9075 49.9348 21.971C50.3159 22.1612 50.7614 22.2247 51.2064 22.2247C51.4608 22.2247 51.6518 22.2247 51.9063 22.1612C52.1607 22.098 52.3513 22.0344 52.5423 21.971C52.7329 21.9075 52.9873 21.7806 53.1145 21.6537C53.3055 21.5268 53.4962 21.3999 53.6234 21.2095C53.6873 21.1461 53.6873 21.1461 53.7507 21.0826C53.8144 21.0192 53.8144 20.9557 53.8778 20.9557C54.0688 20.7019 54.2594 20.4481 54.3867 20.1308C54.4499 19.9405 54.5138 19.6866 54.5773 19.4963C54.641 19.3059 54.641 19.0521 54.641 18.7983C54.641 18.481 54.5773 18.2272 54.5138 17.91C54.5138 17.8465 54.5138 17.7831 54.4499 17.7831C54.3867 17.5292 54.2594 17.3389 54.1323 17.0851C53.9417 16.8312 53.8144 16.5774 53.5599 16.3871C53.3689 16.1967 53.1145 16.0063 52.8602 15.816C52.7329 15.7525 52.6058 15.6891 52.4784 15.6256C52.3513 15.5622 52.2242 15.4987 52.0334 15.4987C51.7153 15.4353 51.4608 15.3718 51.1429 15.3718H50.7614V15.3083ZM58.3934 13.4047H60.6194C60.9377 13.4047 61.1922 13.4047 61.4464 13.4047H61.5738C61.7643 13.4047 61.9549 13.4682 62.2094 13.4682C62.4638 13.4682 62.7183 13.5316 62.9093 13.6585C63.1637 13.722 63.3543 13.8489 63.5453 13.9758C63.7997 14.1662 64.0542 14.3565 64.3084 14.5469C64.4992 14.7373 64.6902 14.9911 64.8808 15.3083C65.0079 15.5622 65.1352 15.8794 65.1989 16.1967C65.2624 16.514 65.3263 16.8312 65.3263 17.1485C65.3263 17.4658 65.2624 17.7196 65.1989 18.0369C65.1989 18.1003 65.1989 18.1638 65.1352 18.1638C65.0718 18.4176 64.9445 18.608 64.8173 18.8617C64.6902 19.1156 64.4992 19.3694 64.3084 19.5598C64.1174 19.7501 63.8632 19.9405 63.6087 20.1308C63.5453 20.1943 63.4814 20.1943 63.418 20.2578C63.3543 20.3212 63.2908 20.3212 63.1637 20.3847C63.0998 20.4481 63.0364 20.4481 62.9093 20.4481L65.0079 23.3034L65.7078 24.1919H63.1637L62.9727 23.9381L59.7928 19.6866V24.1919H57.7574V13.4047H58.3934ZM59.8563 18.608H60.556C60.8104 18.608 61.0012 18.608 61.1922 18.608C61.3828 18.608 61.5738 18.608 61.7009 18.608C61.8282 18.608 61.9553 18.5445 62.0822 18.5445C62.2094 18.5445 62.2732 18.481 62.4004 18.4176C62.5277 18.3541 62.6548 18.2907 62.7819 18.1638C62.9093 18.1003 62.9727 17.9734 63.0364 17.8465C63.0998 17.7196 63.1637 17.5927 63.2269 17.4658C63.2908 17.3389 63.2908 17.1485 63.2908 17.0216C63.2908 16.8947 63.2908 16.7678 63.2269 16.6409V16.5774C63.2269 16.514 63.1637 16.3871 63.0998 16.2602C63.0364 16.1332 62.9727 16.0698 62.9093 15.9429C62.8454 15.8794 62.7183 15.7525 62.6548 15.6891C62.5277 15.6256 62.4638 15.5622 62.3367 15.4987C62.2094 15.4353 62.1459 15.4353 62.0188 15.3718H61.8915C61.8282 15.3718 61.7643 15.3718 61.7643 15.3718C61.5099 15.3718 61.2554 15.3083 60.8739 15.3083H59.9199V18.608H59.8563Z" fill="black" fill-opacity="0.7"/>
<path fill-rule="evenodd" clip-rule="evenodd" d="M65.4538 25.9053L3.31539 36.9464L1.21655 25.9053H65.4538Z" fill="black" fill-opacity="0.7"/>
<path fill-rule="evenodd" clip-rule="evenodd" d="M33.208 25.9053C25.3215 29.9028 15.4632 33.7736 3.31539 36.9462L1.21655 25.8418H33.208" fill="black" fill-opacity="0.46"/>
<path fill-rule="evenodd" clip-rule="evenodd" d="M1.21655 11.6283L63.355 0.523926L65.4536 11.6283H1.21655Z" fill="black" fill-opacity="0.7"/>
<path fill-rule="evenodd" clip-rule="evenodd" d="M65.5809 11.5649L63.4821 0.523926C63.4821 0.523926 61.1924 5.28298 54.387 11.5649H65.5809Z" fill="black" fill-opacity="0.46"/>
</g>
<defs>
<clipPath id="clip0_2691_10824">
<rect width="65" height="37" fill="white" transform="translate(0.794678 0.17334)"/>
</clipPath>
</defs>
</svg>
