<svg width="136" height="31" viewBox="0 0 136 31" fill="none" xmlns="http://www.w3.org/2000/svg">
<path d="M14.4072 1.31755H14.8001V6.69411H14.4072C13.9358 5.39955 13.4008 4.38934 12.8021 3.66348C12.3681 3.15463 11.8218 2.70939 11.1633 2.32776C10.5123 1.93864 9.77897 1.63558 8.96332 1.41857C8.15515 1.19408 7.33576 1.08183 6.50514 1.08183C5.88405 1.08183 5.3303 1.16789 4.84391 1.34C4.35751 1.51211 3.94594 1.76653 3.6092 2.10327C3.36975 2.34272 3.17893 2.61211 3.03675 2.91143C2.89457 3.21076 2.82348 3.49885 2.82348 3.77573C2.82348 4.29954 3.02553 4.75226 3.42961 5.1339C3.61669 5.32097 3.88234 5.50057 4.22656 5.67268C4.57826 5.84479 5.02724 6.01316 5.5735 6.17778C6.12725 6.34241 6.898 6.54445 7.88576 6.78391C8.15515 6.86622 8.33849 6.91486 8.43577 6.92983L8.98577 7.06452L9.86129 7.28901C11.3429 7.67065 12.4242 8.00739 13.1052 8.29923C13.7861 8.59106 14.3661 8.97644 14.845 9.45536C15.2191 9.80706 15.5072 10.2186 15.7093 10.6901C15.9188 11.1615 16.0236 11.6703 16.0236 12.2166C16.0236 12.7554 15.9076 13.2979 15.6756 13.8442C15.4436 14.3829 15.1144 14.8581 14.6878 15.2697C14.1341 15.8384 13.4494 16.2649 12.6338 16.5493C11.8256 16.8336 10.9014 16.9758 9.86129 16.9758C9.13543 16.9758 8.45073 16.901 7.80719 16.7513C7.17113 16.6091 6.3929 16.3435 5.47248 15.9544C4.87384 15.7149 4.41737 15.554 4.10309 15.4717C3.7888 15.3819 3.49322 15.337 3.21634 15.337C2.68505 15.337 2.23232 15.4792 1.85817 15.7636C1.4915 16.0404 1.2483 16.437 1.12858 16.9534H0.735716V9.7023H1.12858C1.28572 10.9894 1.80579 12.1567 2.68879 13.2044C3.22009 13.818 3.8973 14.3904 4.72044 14.9217C5.55105 15.4455 6.41909 15.8534 7.32454 16.1452C8.22998 16.437 9.09053 16.583 9.90619 16.583C10.632 16.583 11.2943 16.4632 11.8929 16.2238C12.4991 15.9843 12.9705 15.6513 13.3072 15.2248C13.644 14.7982 13.8123 14.3156 13.8123 13.7768C13.8123 13.2081 13.5841 12.6955 13.1276 12.239C12.9181 12.037 12.645 11.8499 12.3082 11.6778C11.979 11.5057 11.5487 11.3299 11.0174 11.1503C10.4936 10.9707 9.77149 10.7574 8.85108 10.5105L7.72862 10.2074C5.97759 9.73597 4.76533 9.3693 4.09186 9.10739C3.33607 8.83052 2.74117 8.55365 2.30716 8.27678C1.88062 7.9999 1.51021 7.6482 1.19592 7.22167C0.731974 6.62302 0.5 5.96452 0.5 5.24614C0.5 4.37811 0.758165 3.59987 1.2745 2.91143C1.79083 2.21551 2.51294 1.67299 3.44084 1.28387C4.36873 0.894754 5.39765 0.700195 6.52759 0.700195C8.23373 0.700195 10.0035 1.17537 11.8368 2.12571C12.4804 2.44749 12.9181 2.60837 13.1501 2.60837C13.7338 2.60837 14.1528 2.1781 14.4072 1.31755Z" fill="#808080"/>
<path d="M28.4182 4.37063L25.3427 11.3635H31.5723L28.4182 4.37063ZM29.608 0.700195H30.0233L36.3315 14.4166C36.5336 14.8431 36.758 15.1948 37.005 15.4717C37.2594 15.7486 37.5438 15.9506 37.8581 16.0778C38.1723 16.1976 38.5427 16.2574 38.9693 16.2574H39.3846V16.6952H30.2815V16.2574H31.4713C32.0624 16.2574 32.4927 16.1789 32.7621 16.0217C33.039 15.8571 33.1774 15.6064 33.1774 15.2697C33.1774 15.0602 33.1213 14.8057 33.009 14.5064C32.9043 14.2071 32.6686 13.6646 32.3019 12.8788C32.2794 12.8339 32.2458 12.7591 32.2009 12.6544C32.156 12.5496 32.1073 12.4486 32.0549 12.3513L31.7968 11.7788H25.1518L24.6467 12.9462C24.4821 13.3428 24.3998 13.7431 24.3998 14.1472C24.3998 14.4914 24.4933 14.8319 24.6804 15.1687C24.875 15.5054 25.1256 15.7598 25.4325 15.9319C25.6345 16.0517 25.8141 16.134 25.9712 16.1789C26.1359 16.2163 26.3678 16.2425 26.6672 16.2574V16.6952H20.2804V16.2574C20.7443 16.2051 21.111 16.1227 21.3804 16.0105C21.6573 15.8983 21.9641 15.7112 22.3008 15.4493C23.094 14.8357 23.8685 13.6795 24.6243 11.9809L29.608 0.700195Z" fill="#808080"/>
<path d="M43.8434 1.01448H50.1404L61.0395 12.3064V5.54921C61.0395 4.72607 60.8973 4.0077 60.6129 3.39409C60.3361 2.773 59.932 2.30157 59.4007 1.9798C59.1163 1.8002 58.8282 1.67299 58.5364 1.59816C58.252 1.52333 57.8517 1.46721 57.3354 1.42979V1.01448H65.1028V1.42979H64.9456C63.8157 1.42979 62.9551 1.78898 62.364 2.50735C61.7728 3.22572 61.4772 4.26961 61.4772 5.639V16.8523H61.1068L47.57 2.94511V12.2615C47.57 13.1669 47.6785 13.8928 47.8955 14.4391C48.1125 14.9778 48.4642 15.4006 48.9506 15.7074C49.3472 15.9469 49.8299 16.1003 50.3986 16.1676C50.7129 16.22 51.1619 16.2574 51.7455 16.2799V16.6952H43.5628V16.2799C44.4009 16.235 45.0819 16.0891 45.6057 15.8421C46.137 15.5877 46.5261 15.2136 46.773 14.7197C47.0275 14.2258 47.1547 13.6122 47.1547 12.8788V4.01144C47.1547 3.46518 47.0312 3.00123 46.7843 2.6196C46.5448 2.23796 46.1931 1.94612 45.7292 1.74408C45.2652 1.53455 44.704 1.42979 44.0455 1.42979H43.8434V1.01448Z" fill="#808080"/>
<path d="M69.3034 1.01448H87.6893V8.9727L87.3301 8.99515C87.143 7.00466 86.5444 5.29478 85.5342 3.86552C84.3369 2.2417 82.8178 1.42979 80.977 1.42979H80.1576V13.4064C80.1576 15.3071 81.1042 16.2574 82.9974 16.2574H85.3658V16.6952H71.6718V16.2574H74.0178C75.9184 16.2574 76.8688 15.3071 76.8688 13.4064V1.42979H75.8586C73.9878 1.42979 72.4688 2.30531 71.3014 4.05634C70.7252 4.91689 70.2875 5.94207 69.9881 7.13187C69.8909 7.53595 69.7936 8.14956 69.6963 8.9727H69.3034V1.01448Z" fill="#808080"/>
<path d="M102.452 0.700195C103.919 0.700195 105.258 0.935911 106.471 1.40734C107.69 1.87129 108.749 2.55225 109.647 3.45021C110.403 4.21348 110.987 5.06655 111.398 6.00941C111.81 6.94479 112.016 7.90262 112.016 8.8829C112.016 10.3571 111.597 11.7152 110.758 12.9574C109.928 14.1996 108.794 15.1836 107.357 15.9095C105.928 16.6353 104.36 16.9983 102.654 16.9983C101.352 16.9983 100.125 16.7925 98.9727 16.3809C97.8278 15.9693 96.8175 15.3894 95.942 14.6411C95.0665 13.8853 94.3818 13.0061 93.8879 12.0033C93.4015 11.0006 93.1583 9.95298 93.1583 8.86045C93.1583 7.40874 93.5811 6.05431 94.4267 4.79716C95.2723 3.54001 96.406 2.54477 97.8278 1.81143C99.2495 1.07061 100.791 0.700195 102.452 0.700195ZM102.744 1.10428C102.063 1.10428 101.42 1.22401 100.813 1.46347C100.215 1.69544 99.7097 2.02844 99.2982 2.46245C98.8492 2.93388 98.4638 3.49511 98.142 4.14614C97.8278 4.78968 97.5883 5.51179 97.4237 6.31248C97.2665 7.10568 97.188 7.96249 97.188 8.8829C97.188 10.0353 97.3152 11.0867 97.5696 12.037C97.824 12.9799 98.1907 13.7955 98.6696 14.484C99.1485 15.1649 99.721 15.685 100.387 16.0442C101.053 16.4034 101.794 16.583 102.609 16.583C103.717 16.583 104.678 16.2687 105.494 15.6401C106.317 15.004 106.946 14.0986 107.38 12.9237C107.821 11.7489 108.042 10.3533 108.042 8.73698C108.042 7.68936 107.922 6.70908 107.683 5.79615C107.443 4.88322 107.099 4.09001 106.65 3.41654C106.201 2.73558 105.659 2.1968 105.023 1.8002C104.708 1.59068 104.345 1.42231 103.934 1.2951C103.522 1.16789 103.126 1.10428 102.744 1.10428Z" fill="#808080"/>
<path d="M123.759 1.42979V9.24209H126.891C128.44 9.24209 129.585 8.92406 130.326 8.288C131.066 7.64446 131.437 6.65296 131.437 5.31349C131.437 3.74954 130.924 2.66075 129.899 2.04714C129.532 1.83013 129.102 1.67299 128.608 1.57571C128.114 1.47843 127.501 1.42979 126.767 1.42979H123.759ZM117.069 1.01448H126.431C126.984 1.01448 127.591 1.03319 128.249 1.07061C128.908 1.10802 129.499 1.15666 130.023 1.21653C130.546 1.26891 130.98 1.33251 131.325 1.40734C132.559 1.66925 133.502 2.14068 134.153 2.82164C134.812 3.49511 135.141 4.33321 135.141 5.33594C135.141 6.02438 134.984 6.63799 134.669 7.17677C134.355 7.71555 133.891 8.17201 133.278 8.54617C132.671 8.91284 131.927 9.19345 131.044 9.38801C130.161 9.58257 129.166 9.67985 128.058 9.67985H123.759V13.4064C123.759 15.3221 124.71 16.2799 126.61 16.2799H127.396V16.6952H117.047V16.2799H117.597C119.498 16.2799 120.448 15.3221 120.448 13.4064V4.28083C120.448 2.38014 119.498 1.42979 117.597 1.42979H117.069V1.01448Z" fill="#808080"/>
<path d="M21.1174 24.9618H26.7342V27.0067H26.6208C26.5175 26.6488 26.4243 26.3817 26.3411 26.2053C26.2605 26.0264 26.1546 25.8576 26.0236 25.6989C25.8649 25.5099 25.6922 25.375 25.5058 25.2944C25.1958 25.1659 24.8191 25.1016 24.3756 25.1016H23.3362V27.6114H23.6159C24.0317 27.6114 24.3618 27.4325 24.6062 27.0747C24.7322 26.8907 24.8254 26.6715 24.8859 26.417C24.9161 26.3087 24.9438 26.1486 24.969 25.937H25.1013V29.3993H24.969C24.9388 29.2128 24.9023 29.0377 24.8594 28.8739C24.8191 28.7076 24.7725 28.5728 24.7196 28.4694C24.6692 28.3661 24.6037 28.2628 24.523 28.1595C24.2962 27.8798 23.9737 27.7399 23.5554 27.7399H23.3362V30.1023H24.2055C24.4625 30.1023 24.6931 30.0847 24.8972 30.0494C25.1039 30.0116 25.2891 29.9549 25.4529 29.8793C25.6166 29.8012 25.7704 29.7004 25.914 29.5769C26.1609 29.3678 26.3524 29.107 26.4885 28.7945C26.5666 28.6156 26.6485 28.3737 26.7342 28.0688H26.8741V30.2422H21.125L21.1174 30.1023H21.2611C21.9011 30.1023 22.2211 29.7798 22.2211 29.1347V26.0617C22.2211 25.7341 22.143 25.4922 21.9868 25.336C21.8306 25.1798 21.5886 25.1016 21.2611 25.1016H21.1174V24.9618Z" fill="#808080"/>
<path d="M46.8427 24.9618H50.2861V25.1016H50.2181C50.0291 25.1016 49.8766 25.1319 49.7607 25.1924C49.6473 25.2503 49.5906 25.331 49.5906 25.4343C49.5906 25.4922 49.6083 25.5628 49.6435 25.6459C49.6813 25.7266 49.7305 25.8059 49.791 25.8841L50.8569 27.1163L51.6884 26.2696C51.89 26.0605 51.9908 25.8677 51.9908 25.6913C51.9908 25.5124 51.9165 25.3713 51.7678 25.268C51.6191 25.1646 51.4037 25.1092 51.1214 25.1016V24.9618H53.9563V25.1016C53.6211 25.1571 53.3339 25.2453 53.0945 25.3662C52.656 25.5855 52.2541 25.8815 51.8887 26.2545L50.9438 27.2221L52.7014 29.2745C52.9257 29.5341 53.1587 29.7369 53.4007 29.8831C53.6426 30.0292 53.8681 30.1023 54.0772 30.1023H54.1717V30.2422H50.6565V30.1023H50.9589C51.1756 30.1023 51.3432 30.0721 51.4616 30.0116C51.5801 29.9486 51.6393 29.8629 51.6393 29.7546C51.6393 29.6361 51.5775 29.5101 51.4541 29.3766L50.2332 27.944L49.3638 28.8323C49.2756 28.9255 49.2038 29.01 49.1484 29.0855C49.0929 29.1586 49.0526 29.2304 49.0274 29.301C49.0048 29.369 48.9934 29.4396 48.9934 29.5127C48.9934 29.6941 49.0678 29.8377 49.2164 29.9436C49.3676 30.0494 49.5768 30.1023 49.8439 30.1023H49.9988V30.2422H46.8427V30.1023C47.0544 30.0746 47.2308 30.0393 47.3719 29.9965C47.5155 29.9511 47.6793 29.8856 47.8633 29.7999C48.2967 29.5958 48.7049 29.3048 49.0879 28.9268L50.1463 27.8496L48.3962 25.8311C47.983 25.3448 47.5105 25.1016 46.9788 25.1016H46.8427V24.9618Z" fill="#808080"/>
<path d="M76.1172 25.1016V27.7324H77.1718C77.6934 27.7324 78.0789 27.6253 78.3284 27.4111C78.5779 27.1944 78.7026 26.8605 78.7026 26.4095C78.7026 25.8828 78.53 25.5162 78.1848 25.3095C78.0613 25.2365 77.9164 25.1835 77.7501 25.1508C77.5838 25.118 77.3772 25.1016 77.1302 25.1016H76.1172ZM73.8645 24.9618H77.0168C77.2033 24.9618 77.4074 24.9681 77.6291 24.9807C77.8509 24.9933 78.05 25.0097 78.2263 25.0298C78.4027 25.0475 78.5489 25.0689 78.6648 25.0941C79.0806 25.1823 79.3981 25.341 79.6173 25.5703C79.8391 25.7971 79.9499 26.0794 79.9499 26.417C79.9499 26.6488 79.897 26.8555 79.7912 27.0369C79.6853 27.2183 79.5291 27.372 79.3225 27.498C79.1184 27.6215 78.8676 27.716 78.5703 27.7815C78.273 27.847 77.9378 27.8798 77.5649 27.8798H76.1172V29.1347C76.1172 29.7798 76.4372 30.1023 77.0773 30.1023H77.3419V30.2422H73.8569V30.1023H74.0421C74.6822 30.1023 75.0022 29.7798 75.0022 29.1347V26.0617C75.0022 25.4217 74.6822 25.1016 74.0421 25.1016H73.8645V24.9618Z" fill="#808080"/>
<path d="M103.256 24.856C103.75 24.856 104.201 24.9353 104.609 25.0941C105.02 25.2503 105.377 25.4796 105.679 25.782C105.933 26.039 106.13 26.3263 106.269 26.6438C106.407 26.9588 106.477 27.2813 106.477 27.6114C106.477 28.1078 106.335 28.5652 106.053 28.9835C105.773 29.4018 105.392 29.7332 104.908 29.9776C104.427 30.222 103.899 30.3442 103.324 30.3442C102.886 30.3442 102.472 30.2749 102.084 30.1363C101.699 29.9977 101.359 29.8024 101.064 29.5505C100.769 29.296 100.538 28.9999 100.372 28.6622C100.208 28.3245 100.126 27.9718 100.126 27.6039C100.126 27.115 100.269 26.6589 100.554 26.2356C100.838 25.8122 101.22 25.4771 101.699 25.2302C102.178 24.9807 102.697 24.856 103.256 24.856ZM103.354 24.992C103.125 24.992 102.908 25.0323 102.704 25.113C102.503 25.1911 102.333 25.3032 102.194 25.4494C102.043 25.6081 101.913 25.7971 101.805 26.0164C101.699 26.2331 101.618 26.4762 101.563 26.7459C101.51 27.013 101.483 27.3015 101.483 27.6114C101.483 27.9995 101.526 28.3535 101.612 28.6735C101.698 28.9911 101.821 29.2657 101.982 29.4975C102.144 29.7269 102.336 29.902 102.561 30.0229C102.785 30.1439 103.034 30.2044 103.309 30.2044C103.682 30.2044 104.006 30.0985 104.28 29.8869C104.558 29.6727 104.769 29.3678 104.915 28.9722C105.064 28.5765 105.138 28.1066 105.138 27.5623C105.138 27.2095 105.098 26.8794 105.018 26.572C104.937 26.2646 104.821 25.9975 104.67 25.7707C104.519 25.5414 104.336 25.3599 104.122 25.2264C104.016 25.1558 103.894 25.0991 103.755 25.0563C103.616 25.0134 103.483 24.992 103.354 24.992Z" fill="#808080"/>
</svg>
