<svg width="129" height="34" viewBox="0 0 129 34" fill="none" xmlns="http://www.w3.org/2000/svg">
<g opacity="0.5">
<path d="M0.169678 8.68768H7.43273C8.87078 8.68768 9.94556 8.73979 10.6516 8.84716C11.3584 8.9511 11.9884 9.16973 12.5469 9.50342C13.1054 9.83712 13.5663 10.2787 13.9384 10.8349C14.3108 11.3872 14.4968 12.0105 14.4968 12.6965C14.4968 13.4416 14.2683 14.1279 13.8118 14.7506C13.3506 15.3736 12.7288 15.8407 11.9463 16.1527C13.0503 16.4343 13.9048 16.9164 14.4968 17.595C15.0936 18.2774 15.3893 19.0782 15.3893 19.9978C15.3893 20.7213 15.1991 21.4257 14.8143 22.1118C14.429 22.7939 13.9048 23.3427 13.2409 23.7507C12.5767 24.1586 11.7558 24.4108 10.7786 24.507C10.1697 24.5629 8.69315 24.5997 6.35415 24.6147H0.169678V8.68768ZM3.84161 11.3389V15.0211H6.24415C7.674 15.0211 8.56236 15.0029 8.90884 14.9657C9.53505 14.9028 10.0299 14.7135 10.3895 14.3987C10.7492 14.0832 10.9265 13.6679 10.9265 13.1524C10.9265 12.6591 10.7744 12.2586 10.4656 11.9511C10.1527 11.6432 9.69141 11.4579 9.08238 11.3948C8.71862 11.3577 7.674 11.3389 5.94783 11.3389H3.84161ZM3.84161 17.6727V21.9298H7.23411C8.55787 21.9298 9.39538 21.9002 9.75085 21.8336C10.2968 21.748 10.7405 21.5332 11.0832 21.1991C11.4262 20.8619 11.5994 20.4092 11.5994 19.8457C11.5994 19.3674 11.4639 18.9635 11.2018 18.6297C10.9351 18.296 10.5545 18.0512 10.0555 17.8986C9.55613 17.7472 8.46906 17.6727 6.80262 17.6727H3.84161Z" fill="black"/>
<path d="M18.5371 8.68768H32.987V24.6147H29.3193V11.3613H22.2046V24.6147H18.5371V8.68768Z" fill="black"/>
<path d="M71.9025 21.0199H83.6305V23.4253H79.4809V32.2734H76.052V23.4253H71.9025V21.0199Z" fill="black"/>
<path d="M71.9025 21.0199H83.6305V23.4253H79.4809V32.2734H76.052V23.4253H71.9025V21.0199Z" stroke="black" stroke-width="1.33333" stroke-miterlimit="10"/>
<path d="M88.2431 24.4538L85.1309 23.9654C85.4806 22.8766 86.0807 22.0736 86.9348 21.5494C87.7931 21.0283 89.0598 20.7643 90.7428 20.7643C92.2759 20.7643 93.4136 20.9232 94.1635 21.2381C94.9092 21.5529 95.4383 21.9506 95.7423 22.4351C96.0466 22.9201 96.201 23.8062 96.201 25.1011L96.163 28.5774C96.163 29.5649 96.2173 30.2959 96.3298 30.7661C96.4383 31.2329 96.6466 31.7392 96.9469 32.2743H93.5507C93.4635 32.0755 93.351 31.7827 93.2218 31.3956C93.1675 31.2185 93.1259 31.1025 93.1009 31.0446C92.5134 31.54 91.8889 31.9092 91.2217 32.1586C90.5552 32.4047 89.843 32.5278 89.0847 32.5278C87.7515 32.5278 86.6975 32.213 85.9311 31.587C85.16 30.9579 84.7767 30.162 84.7767 29.1997C84.7767 28.5669 84.9515 27.9989 85.3016 27.4995C85.6519 27.0005 86.1432 26.6205 86.7721 26.3567C87.4014 26.0924 88.3141 25.8606 89.5013 25.6621C91.1012 25.4013 92.2136 25.1555 92.8303 24.9314V24.6348C92.8303 24.0597 92.6678 23.6544 92.3427 23.4082C92.018 23.1663 91.4055 23.0432 90.5009 23.0432C89.8887 23.0432 89.4136 23.148 89.0723 23.3578C88.7302 23.5639 88.4557 23.9292 88.2431 24.4538ZM92.8303 26.8701C92.3926 26.9971 91.6971 27.1489 90.7428 27.326C89.7931 27.5033 89.1721 27.677 88.8764 27.8432C88.4308 28.1219 88.2057 28.4691 88.2057 28.8923C88.2057 29.312 88.3847 29.67 88.7427 29.974C89.1014 30.2776 89.5553 30.4295 90.1096 30.4295C90.7304 30.4295 91.3179 30.2525 91.8802 29.9015C92.297 29.6339 92.5675 29.3047 92.6969 28.9141C92.7887 28.6608 92.8303 28.1759 92.8303 27.4634V26.8701Z" fill="black"/>
<path d="M88.2431 24.4538L85.1309 23.9654C85.4806 22.8766 86.0807 22.0736 86.9348 21.5494C87.7931 21.0283 89.0598 20.7643 90.7428 20.7643C92.2759 20.7643 93.4136 20.9232 94.1635 21.2381C94.9092 21.5529 95.4383 21.9506 95.7423 22.4351C96.0466 22.9201 96.201 23.8062 96.201 25.1011L96.163 28.5774C96.163 29.5649 96.2173 30.2959 96.3298 30.7661C96.4383 31.2329 96.6466 31.7392 96.9469 32.2743H93.5507C93.4635 32.0755 93.351 31.7827 93.2218 31.3956C93.1675 31.2185 93.1259 31.1025 93.1009 31.0446C92.5134 31.54 91.8889 31.9092 91.2217 32.1586C90.5552 32.4047 89.843 32.5278 89.0847 32.5278C87.7515 32.5278 86.6975 32.213 85.9311 31.587C85.16 30.9579 84.7767 30.162 84.7767 29.1997C84.7767 28.5669 84.9515 27.9989 85.3016 27.4995C85.6519 27.0005 86.1432 26.6205 86.7721 26.3567C87.4014 26.0924 88.3141 25.8606 89.5013 25.6621C91.1012 25.4013 92.2136 25.1555 92.8303 24.9314V24.6348C92.8303 24.0597 92.6678 23.6544 92.3427 23.4082C92.018 23.1663 91.4055 23.0432 90.5009 23.0432C89.8887 23.0432 89.4136 23.148 89.0723 23.3578C88.7302 23.5639 88.4557 23.9292 88.2431 24.4538ZM92.8303 26.8701C92.3926 26.9971 91.6971 27.1489 90.7428 27.326C89.7931 27.5033 89.1721 27.677 88.8764 27.8432C88.4308 28.1219 88.2057 28.4691 88.2057 28.8923C88.2057 29.312 88.3847 29.67 88.7427 29.974C89.1014 30.2776 89.5553 30.4295 90.1096 30.4295C90.7304 30.4295 91.3179 30.2525 91.8802 29.9015C92.297 29.6339 92.5675 29.3047 92.6969 28.9141C92.7887 28.6608 92.8303 28.1759 92.8303 27.4634V26.8701Z" stroke="black" stroke-width="1.33333" stroke-miterlimit="10"/>
<path d="M100.509 21.0209H111.995V32.2744H108.579V23.4372H103.904V28.4906C103.904 29.7785 103.734 30.6793 103.392 31.2C103.05 31.7173 102.671 32.0575 102.255 32.2202C101.842 32.3829 101.175 32.4663 100.255 32.4663C99.7087 32.4663 98.9879 32.401 98.0922 32.2744V30.0822C98.1674 30.0822 98.3589 30.0857 98.6673 30.1005C99.0257 30.1221 99.3006 30.1331 99.4965 30.1331C99.9587 30.1331 100.246 30.0027 100.351 29.7351C100.459 29.471 100.509 28.733 100.509 27.525V21.0209Z" fill="black"/>
<path d="M100.509 21.0209H111.995V32.2744H108.579V23.4372H103.904V28.4906C103.904 29.7785 103.734 30.6793 103.392 31.2C103.05 31.7173 102.671 32.0575 102.255 32.2202C101.842 32.3829 101.175 32.4663 100.255 32.4663C99.7087 32.4663 98.9879 32.401 98.0922 32.2744V30.0822C98.1674 30.0822 98.3589 30.0857 98.6673 30.1005C99.0257 30.1221 99.3006 30.1331 99.4965 30.1331C99.9587 30.1331 100.246 30.0027 100.351 29.7351C100.459 29.471 100.509 28.733 100.509 27.525V21.0209Z" stroke="black" stroke-width="1.33333" stroke-miterlimit="10"/>
<path d="M115.537 21.0199H118.966V25.6936H122.411C123.761 25.6936 124.799 25.7767 125.523 25.9468C126.248 26.1165 126.848 26.4819 127.327 27.0426C127.81 27.6035 128.048 28.2582 128.048 28.9998C128.048 30.0847 127.619 30.906 126.761 31.4522C125.902 31.9986 124.615 32.2734 122.898 32.2734H115.537V21.0199ZM118.966 30.3888H122.165C123.165 30.3888 123.807 30.2439 124.086 29.9621C124.369 29.6801 124.511 29.3435 124.511 28.9564C124.511 28.4135 124.265 28.0377 123.782 27.8315C123.298 27.6288 122.44 27.524 121.203 27.524H118.966V30.3888Z" fill="black"/>
<path d="M115.537 21.0199H118.966V25.6936H122.411C123.761 25.6936 124.799 25.7767 125.523 25.9468C126.248 26.1165 126.848 26.4819 127.327 27.0426C127.81 27.6035 128.048 28.2582 128.048 28.9998C128.048 30.0847 127.619 30.906 126.761 31.4522C125.902 31.9986 124.615 32.2734 122.898 32.2734H115.537V21.0199ZM118.966 30.3888H122.165C123.165 30.3888 123.807 30.2439 124.086 29.9621C124.369 29.6801 124.511 29.3435 124.511 28.9564C124.511 28.4135 124.265 28.0377 123.782 27.8315C123.298 27.6288 122.44 27.524 121.203 27.524H118.966V30.3888Z" stroke="black" stroke-width="1.33333" stroke-miterlimit="10"/>
<path fill-rule="evenodd" clip-rule="evenodd" d="M53.0868 8.72009C57.8319 8.72009 61.6786 12.281 61.6786 16.6736C61.6786 21.0663 57.8319 24.627 53.0868 24.627C48.3415 24.627 44.4946 21.0663 44.4946 16.6736C44.4946 12.281 48.3415 8.72009 53.0868 8.72009ZM53.0865 13.5555C54.9469 13.5555 56.4547 14.9515 56.4547 16.6736C56.4547 18.3955 54.9469 19.7915 53.0865 19.7915C51.2263 19.7915 49.7182 18.3955 49.7182 16.6736C49.7182 14.9515 51.2263 13.5555 53.0865 13.5555Z" fill="white"/>
<path d="M53.0902 11.1223C56.3929 11.1223 59.0703 13.601 59.0703 16.6578C59.0703 19.7154 56.3929 22.1934 53.0902 22.1934C49.7874 22.1934 47.1104 19.7154 47.1104 16.6578C47.1104 13.601 49.7874 11.1223 53.0902 11.1223Z" stroke="black" stroke-width="1.512" stroke-miterlimit="22.926"/>
<path d="M53.0896 12.8793C55.3432 12.8793 57.1704 14.5706 57.1704 16.6567C57.1704 18.7432 55.3432 20.4341 53.0896 20.4341C50.836 20.4341 49.0088 18.7432 49.0088 16.6567C49.0088 14.5706 50.836 12.8793 53.0896 12.8793Z" stroke="black" stroke-width="1.512" stroke-miterlimit="22.926"/>
<path d="M53.0897 12.6609C55.4747 12.6609 57.4077 14.4507 57.4077 16.6579C57.4077 18.8655 55.4747 20.6553 53.0897 20.6553C50.7048 20.6553 48.7715 18.8655 48.7715 16.6579C48.7715 14.4507 50.7048 12.6609 53.0897 12.6609Z" stroke="black" stroke-width="1.512" stroke-miterlimit="22.926"/>
<path d="M53.0896 12.4401C55.6054 12.4401 57.6451 14.3283 57.6451 16.6571C57.6451 18.986 55.6054 20.874 53.0896 20.874C50.5735 20.874 48.5342 18.986 48.5342 16.6571C48.5342 14.3283 50.5735 12.4401 53.0896 12.4401Z" stroke="black" stroke-width="1.512" stroke-miterlimit="22.926"/>
<path d="M53.0899 12.221C55.737 12.221 57.8828 14.2076 57.8828 16.6578C57.8828 19.1084 55.737 21.0947 53.0899 21.0947C50.4427 21.0947 48.2969 19.1084 48.2969 16.6578C48.2969 14.2076 50.4427 12.221 53.0899 12.221Z" stroke="black" stroke-width="1.512" stroke-miterlimit="22.926"/>
<path d="M53.0897 12.0002C55.8679 12.0002 58.1199 14.0851 58.1199 16.6567C58.1199 19.2287 55.8679 21.3135 53.0897 21.3135C50.3116 21.3135 48.0596 19.2287 48.0596 16.6567C48.0596 14.0851 50.3116 12.0002 53.0897 12.0002Z" stroke="black" stroke-width="1.512" stroke-miterlimit="22.926"/>
<path d="M53.0899 11.7805C55.9994 11.7805 58.3576 13.9638 58.3576 16.6569C58.3576 19.35 55.9994 21.5332 53.0899 21.5332C50.1803 21.5332 47.8223 19.35 47.8223 16.6569C47.8223 13.9638 50.1803 11.7805 53.0899 11.7805Z" stroke="black" stroke-width="1.512" stroke-miterlimit="22.926"/>
<path d="M53.0904 11.5616C56.131 11.5616 58.5959 13.843 58.5959 16.6576C58.5959 19.4718 56.131 21.7539 53.0904 21.7539C50.0499 21.7539 47.585 19.4718 47.585 16.6576C47.585 13.843 50.0499 11.5616 53.0904 11.5616Z" stroke="black" stroke-width="1.512" stroke-miterlimit="22.926"/>
<path d="M53.0903 11.3418C56.262 11.3418 58.8329 13.722 58.8329 16.6577C58.8329 19.5934 56.262 21.9736 53.0903 21.9736C49.9187 21.9736 47.3477 19.5934 47.3477 16.6577C47.3477 13.722 49.9187 11.3418 53.0903 11.3418Z" stroke="black" stroke-width="1.512" stroke-miterlimit="22.926"/>
<path d="M53.0902 11.1223C56.3929 11.1223 59.0703 13.601 59.0703 16.6578C59.0703 19.7154 56.3929 22.1934 53.0902 22.1934C49.7874 22.1934 47.1104 19.7154 47.1104 16.6578C47.1104 13.601 49.7874 11.1223 53.0902 11.1223Z" stroke="black" stroke-width="1.512" stroke-miterlimit="22.926"/>
<path d="M53.0908 10.9022C56.5246 10.9022 59.3082 13.4789 59.3082 16.6577C59.3082 19.8363 56.5246 22.4131 53.0908 22.4131C49.657 22.4131 46.873 19.8363 46.873 16.6577C46.873 13.4789 49.657 10.9022 53.0908 10.9022Z" stroke="black" stroke-width="1.512" stroke-miterlimit="22.926"/>
<path d="M53.0907 10.682C56.6558 10.682 59.5456 13.3576 59.5456 16.6574C59.5456 19.9576 56.6558 22.6328 53.0907 22.6328C49.5258 22.6328 46.6357 19.9576 46.6357 16.6574C46.6357 13.3576 49.5258 10.682 53.0907 10.682Z" stroke="black" stroke-width="1.512" stroke-miterlimit="22.926"/>
<path d="M53.0908 10.4642C56.7871 10.4642 59.7835 13.2378 59.7835 16.6592C59.7835 20.0805 56.7871 22.8545 53.0908 22.8545C49.3946 22.8545 46.3984 20.0805 46.3984 16.6592C46.3984 13.2378 49.3946 10.4642 53.0908 10.4642Z" stroke="black" stroke-width="1.512" stroke-miterlimit="22.926"/>
<path d="M53.0891 10.2434C56.9168 10.2434 60.019 13.1155 60.019 16.658C60.019 20.2011 56.9168 23.0732 53.0891 23.0732C49.2619 23.0732 46.1593 20.2011 46.1593 16.658C46.1593 13.1155 49.2619 10.2434 53.0891 10.2434Z" stroke="black" stroke-width="1.512" stroke-miterlimit="22.926"/>
<path d="M53.0912 10.0245C57.0496 10.0245 60.2586 12.9948 60.2586 16.659C60.2586 20.3237 57.0496 23.2939 53.0912 23.2939C49.1328 23.2939 45.9238 20.3237 45.9238 16.659C45.9238 12.9948 49.1328 10.0245 53.0912 10.0245Z" stroke="black" stroke-width="1.512" stroke-miterlimit="22.926"/>
<path d="M53.0896 9.80253C57.1789 9.80253 60.4941 12.8716 60.4941 16.6569C60.4941 20.4427 57.1789 23.5117 53.0896 23.5117C48.9999 23.5117 45.6847 20.4427 45.6847 16.6569C45.6847 12.8716 48.9999 9.80253 53.0896 9.80253Z" stroke="black" stroke-width="1.512" stroke-miterlimit="22.926"/>
<path d="M53.0901 9.58461C57.3105 9.58461 60.7318 12.7521 60.7318 16.659C60.7318 20.5662 57.3105 23.7334 53.0901 23.7334C48.8693 23.7334 45.4476 20.5662 45.4476 16.659C45.4476 12.7521 48.8693 9.58461 53.0901 9.58461Z" stroke="black" stroke-width="1.512" stroke-miterlimit="22.926"/>
<path d="M53.0897 9.36289C57.4412 9.36289 60.969 12.6285 60.969 16.6569C60.969 20.6856 57.4412 23.9512 53.0897 23.9512C48.7379 23.9512 45.2101 20.6856 45.2101 16.6569C45.2101 12.6285 48.7379 9.36289 53.0897 9.36289Z" stroke="black" stroke-width="1.512" stroke-miterlimit="22.926"/>
<path d="M53.0905 9.14596C57.5731 9.14596 61.2072 12.5101 61.2072 16.6598C61.2072 20.8096 57.5731 24.1738 53.0905 24.1738C48.6076 24.1738 44.973 20.8096 44.973 16.6598C44.973 12.5101 48.6076 9.14596 53.0905 9.14596Z" stroke="black" stroke-width="1.512" stroke-miterlimit="22.926"/>
<path d="M53.0904 8.92423C57.7044 8.92423 61.4447 12.3868 61.4447 16.6577C61.4447 20.929 57.7044 24.3916 53.0904 24.3916C48.4761 24.3916 44.7355 20.929 44.7355 16.6577C44.7355 12.3868 48.4761 8.92423 53.0904 8.92423Z" stroke="black" stroke-width="1.512" stroke-miterlimit="22.926"/>
<path d="M53.0896 12.8793C55.3432 12.8793 57.1704 14.5706 57.1704 16.6567C57.1704 18.7432 55.3432 20.4341 53.0896 20.4341C50.836 20.4341 49.0088 18.7432 49.0088 16.6567C49.0088 14.5706 50.836 12.8793 53.0896 12.8793Z" stroke="black" stroke-width="1.512" stroke-miterlimit="22.926"/>
<path d="M53.0897 12.6609C55.4747 12.6609 57.4077 14.4507 57.4077 16.6579C57.4077 18.8655 55.4747 20.6553 53.0897 20.6553C50.7048 20.6553 48.7715 18.8655 48.7715 16.6579C48.7715 14.4507 50.7048 12.6609 53.0897 12.6609Z" stroke="black" stroke-width="1.512" stroke-miterlimit="22.926"/>
<path d="M53.0896 12.4401C55.6054 12.4401 57.6451 14.3283 57.6451 16.6571C57.6451 18.986 55.6054 20.874 53.0896 20.874C50.5735 20.874 48.5342 18.986 48.5342 16.6571C48.5342 14.3283 50.5735 12.4401 53.0896 12.4401Z" stroke="black" stroke-width="1.512" stroke-miterlimit="22.926"/>
<path d="M53.0899 12.221C55.737 12.221 57.8828 14.2076 57.8828 16.6578C57.8828 19.1084 55.737 21.0947 53.0899 21.0947C50.4427 21.0947 48.2969 19.1084 48.2969 16.6578C48.2969 14.2076 50.4427 12.221 53.0899 12.221Z" stroke="black" stroke-width="1.512" stroke-miterlimit="22.926"/>
<path d="M53.0897 12.0002C55.8679 12.0002 58.1199 14.0851 58.1199 16.6567C58.1199 19.2287 55.8679 21.3135 53.0897 21.3135C50.3116 21.3135 48.0596 19.2287 48.0596 16.6567C48.0596 14.0851 50.3116 12.0002 53.0897 12.0002Z" stroke="black" stroke-width="1.512" stroke-miterlimit="22.926"/>
<path d="M53.0899 11.7805C55.9994 11.7805 58.3576 13.9638 58.3576 16.6569C58.3576 19.35 55.9994 21.5332 53.0899 21.5332C50.1803 21.5332 47.8223 19.35 47.8223 16.6569C47.8223 13.9638 50.1803 11.7805 53.0899 11.7805Z" stroke="black" stroke-width="1.512" stroke-miterlimit="22.926"/>
<path d="M53.0904 11.5616C56.131 11.5616 58.5959 13.843 58.5959 16.6576C58.5959 19.4718 56.131 21.7539 53.0904 21.7539C50.0499 21.7539 47.585 19.4718 47.585 16.6576C47.585 13.843 50.0499 11.5616 53.0904 11.5616Z" stroke="black" stroke-width="1.512" stroke-miterlimit="22.926"/>
<path d="M53.0903 11.3418C56.262 11.3418 58.8329 13.722 58.8329 16.6577C58.8329 19.5934 56.262 21.9736 53.0903 21.9736C49.9187 21.9736 47.3477 19.5934 47.3477 16.6577C47.3477 13.722 49.9187 11.3418 53.0903 11.3418Z" stroke="black" stroke-width="1.512" stroke-miterlimit="22.926"/>
<path d="M53.0902 11.1223C56.3929 11.1223 59.0703 13.601 59.0703 16.6578C59.0703 19.7154 56.3929 22.1934 53.0902 22.1934C49.7874 22.1934 47.1104 19.7154 47.1104 16.6578C47.1104 13.601 49.7874 11.1223 53.0902 11.1223Z" stroke="black" stroke-width="1.512" stroke-miterlimit="22.926"/>
<path d="M53.0908 10.9022C56.5246 10.9022 59.3082 13.4789 59.3082 16.6577C59.3082 19.8363 56.5246 22.4131 53.0908 22.4131C49.657 22.4131 46.873 19.8363 46.873 16.6577C46.873 13.4789 49.657 10.9022 53.0908 10.9022Z" stroke="black" stroke-width="1.512" stroke-miterlimit="22.926"/>
<path d="M53.0907 10.682C56.6558 10.682 59.5456 13.3576 59.5456 16.6574C59.5456 19.9576 56.6558 22.6328 53.0907 22.6328C49.5258 22.6328 46.6357 19.9576 46.6357 16.6574C46.6357 13.3576 49.5258 10.682 53.0907 10.682Z" stroke="black" stroke-width="1.512" stroke-miterlimit="22.926"/>
<path d="M53.0908 10.4642C56.7871 10.4642 59.7835 13.2378 59.7835 16.6592C59.7835 20.0805 56.7871 22.8545 53.0908 22.8545C49.3946 22.8545 46.3984 20.0805 46.3984 16.6592C46.3984 13.2378 49.3946 10.4642 53.0908 10.4642Z" stroke="black" stroke-width="1.512" stroke-miterlimit="22.926"/>
<path d="M53.0891 10.2434C56.9168 10.2434 60.019 13.1155 60.019 16.658C60.019 20.2011 56.9168 23.0732 53.0891 23.0732C49.2619 23.0732 46.1593 20.2011 46.1593 16.658C46.1593 13.1155 49.2619 10.2434 53.0891 10.2434Z" stroke="black" stroke-width="1.512" stroke-miterlimit="22.926"/>
<path d="M53.0912 10.0245C57.0496 10.0245 60.2586 12.9948 60.2586 16.659C60.2586 20.3237 57.0496 23.2939 53.0912 23.2939C49.1328 23.2939 45.9238 20.3237 45.9238 16.659C45.9238 12.9948 49.1328 10.0245 53.0912 10.0245Z" stroke="black" stroke-width="1.512" stroke-miterlimit="22.926"/>
<path d="M53.0896 9.80253C57.1789 9.80253 60.4941 12.8716 60.4941 16.6569C60.4941 20.4427 57.1789 23.5117 53.0896 23.5117C48.9999 23.5117 45.6847 20.4427 45.6847 16.6569C45.6847 12.8716 48.9999 9.80253 53.0896 9.80253Z" stroke="black" stroke-width="1.512" stroke-miterlimit="22.926"/>
<path d="M53.0901 9.58461C57.3105 9.58461 60.7318 12.7521 60.7318 16.659C60.7318 20.5662 57.3105 23.7334 53.0901 23.7334C48.8693 23.7334 45.4476 20.5662 45.4476 16.659C45.4476 12.7521 48.8693 9.58461 53.0901 9.58461Z" stroke="black" stroke-width="1.512" stroke-miterlimit="22.926"/>
<path d="M53.0897 9.36289C57.4412 9.36289 60.969 12.6285 60.969 16.6569C60.969 20.6856 57.4412 23.9512 53.0897 23.9512C48.7379 23.9512 45.2101 20.6856 45.2101 16.6569C45.2101 12.6285 48.7379 9.36289 53.0897 9.36289Z" stroke="black" stroke-width="1.512" stroke-miterlimit="22.926"/>
<path d="M53.0905 9.14596C57.5731 9.14596 61.2072 12.5101 61.2072 16.6598C61.2072 20.8096 57.5731 24.1738 53.0905 24.1738C48.6076 24.1738 44.973 20.8096 44.973 16.6598C44.973 12.5101 48.6076 9.14596 53.0905 9.14596Z" stroke="black" stroke-width="1.512" stroke-miterlimit="22.926"/>
<path d="M53.0904 8.92423C57.7044 8.92423 61.4447 12.3868 61.4447 16.6577C61.4447 20.929 57.7044 24.3916 53.0904 24.3916C48.4761 24.3916 44.7355 20.929 44.7355 16.6577C44.7355 12.3868 48.4761 8.92423 53.0904 8.92423Z" stroke="black" stroke-width="1.512" stroke-miterlimit="22.926"/>
<path d="M53.0909 8.70612C57.8359 8.70612 61.6827 12.2675 61.6827 16.6596C61.6827 21.0526 57.8359 24.6133 53.0909 24.6133C48.3452 24.6133 44.4984 21.0526 44.4984 16.6596C44.4984 12.2675 48.3452 8.70612 53.0909 8.70612Z" stroke="black" stroke-width="1.512" stroke-miterlimit="22.926"/>
<path d="M64.0263 13.5083C63.2767 11.374 61.8146 9.57519 59.9244 8.30423C57.9969 7.008 55.6208 6.26223 53.0869 6.26223V0.583235C56.7531 0.583235 60.2252 1.68544 63.0744 3.60144C65.9612 5.54272 68.2056 8.32121 69.3726 11.645L64.0263 13.5083Z" fill="black"/>
<path d="M53.0869 27.0841C55.6385 27.0841 58.0247 26.3319 59.952 25.0274C61.8421 23.7474 63.302 21.9282 64.0443 19.7651L69.4129 21.6061C68.2672 24.944 66.0242 27.7442 63.1239 29.7078C60.2613 31.6466 56.7704 32.7632 53.0869 32.7632V27.0841Z" fill="black"/>
<path d="M53.0876 32.7632C48.4066 32.7632 44.1481 30.9874 41.047 28.1166C37.8884 25.1927 35.9341 21.147 35.9341 16.6734C35.9341 12.1999 37.8884 8.15385 41.047 5.22963C44.1481 2.3591 48.4066 0.583744 53.0876 0.583744V6.26244C49.8629 6.26244 46.9645 7.45317 44.8851 9.37786C42.8636 11.2495 41.6132 13.8291 41.6132 16.6734C41.6132 19.5175 42.8636 22.0975 44.8851 23.9684C46.9645 25.8931 49.8629 27.0841 53.0876 27.0841V32.7632Z" fill="black"/>
</g>
</svg>
