<svg width="111" height="33" viewBox="0 0 111 33" fill="none" xmlns="http://www.w3.org/2000/svg">
<g clip-path="url(#clip0_2691_10831)">
<path d="M102.525 14.3022L100.74 15.462V18.0115C100.74 18.2265 100.932 18.3339 101.165 18.3339V18.6563H97.8629V18.3302C98.1386 18.3302 98.3309 18.2227 98.3309 18.0078V9.91468C98.3309 9.69976 98.1386 9.59229 97.8629 9.59229V9.2699H101.179V9.59229C100.947 9.59229 100.755 9.69976 100.755 9.91468V13.3053L105.156 10.3964C105.559 10.1111 105.794 9.95174 105.794 9.82575C105.794 9.69975 105.646 9.59229 105.475 9.59229V9.2699H109.942V9.59229C109.666 9.60082 109.399 9.69378 109.176 9.8591L104.267 13.1423L108.748 17.4594C109.13 17.8565 109.598 18.1551 110.116 18.3302V18.6526H106.183V18.3302C106.353 18.3302 106.458 18.2932 106.458 18.2042C106.458 18.1153 106.353 18.0078 106.161 17.8114L102.525 14.3022ZM96.6619 8.84375V11.1968H96.2773C96.2773 10.9486 96.0632 10.804 95.4682 10.804H88.5744V13.0274H92.7433C93.2948 13.0274 93.6359 12.957 93.6359 12.4197H94.0169V15.2026H93.6359C93.6359 14.669 93.2948 14.5616 92.7433 14.5616H88.5816V17.0221H95.6859C96.1104 17.0221 96.4115 16.8442 96.4115 16.5589H96.7744V19.0565H96.4115C96.4115 18.686 96.114 18.6637 95.6859 18.6637H85.7733V18.3302C85.8668 18.3427 85.9611 18.3152 86.034 18.2541C86.1068 18.193 86.1517 18.1039 86.1579 18.0078V9.91468C86.1517 9.81863 86.1068 9.72949 86.034 9.66842C85.9611 9.60735 85.8668 9.57979 85.7733 9.59229V9.2699H95.4718C96.0669 9.2699 96.2809 9.09203 96.2809 8.84375H96.6619ZM24.2698 15.3398L25.6595 17.2185L25.489 17.363C25.4055 17.363 25.3402 17.363 25.2567 17.363C24.9375 17.363 22.5573 18.7712 19.8143 18.7712C16.2186 18.7712 13.0076 17.1296 13.0076 13.9724C13.0076 10.8152 16.2259 9.16614 19.8252 9.16614C21.0078 9.17206 22.1856 9.32133 23.3337 9.61082C24.2045 9.82575 24.7379 10.0555 24.8431 10.0555C24.9483 10.0555 25.0753 9.89615 25.1406 9.82204L25.4599 10.037L23.8018 12.1937L23.5877 12.0677C23.5822 11.9884 23.5676 11.91 23.5442 11.8342C23.4172 11.3006 21.2257 10.6929 19.8215 10.6929C17.4196 10.6929 15.3551 11.8527 15.3551 13.902C15.3551 15.9512 17.4196 17.1148 19.8215 17.1148C21.6067 17.1148 24.0521 16.3477 24.0521 15.6881C24.0465 15.6088 24.0159 15.5334 23.9651 15.4732L24.2698 15.3398ZM1.0922 18.0152L0.794678 17.8707L1.96299 15.7103L2.17706 15.7993C2.17253 15.9013 2.20194 16.0018 2.26052 16.0846C2.68503 16.6738 4.80033 17.2259 6.13192 17.2259C7.06803 17.2259 9.55705 17.0295 9.55705 15.9401C9.55705 13.7649 0.921669 16.4922 0.921669 12.1232C0.921669 10.641 2.55804 9.15873 6.08838 9.15873C9.04545 9.15873 10.4678 10.0518 11.1934 10.0518C11.3428 10.0672 11.4928 10.0292 11.6179 9.94433L11.8719 10.0851L10.4206 12.3085L10.2065 12.2381C10.1875 12.0877 10.1286 11.9454 10.036 11.8268C9.5897 11.2747 7.80457 10.6855 6.16458 10.6855C4.90918 10.6855 3.35626 10.9893 3.35626 11.7749C3.35626 14.0391 11.9916 11.4044 11.9916 15.6807C11.9916 18.1412 8.48307 18.7489 6.18635 18.7489C2.92087 18.7489 2.01742 17.8559 1.37884 17.8559C1.27183 17.865 1.1727 17.9169 1.10308 18.0004L1.0922 18.0152ZM38.7577 10.8077V13.4499H42.4187C44.4614 13.4499 45.0564 12.8792 45.0564 12.1307C45.0564 11.3821 44.4614 10.8114 42.4187 10.8114L38.7577 10.8077ZM53.0097 11.7008L51.0105 15.0359H54.7948L53.0097 11.7008ZM81.1726 18.6563V18.3302C81.5754 18.3302 81.7677 18.2227 81.7677 18.0078V12.0788L77.5443 18.6563H77.479L73.2339 12.127V18.0152C73.2362 18.1696 73.3489 18.2989 73.4988 18.3191C73.5797 18.326 73.661 18.326 73.7419 18.3191V18.6415H70.3204V18.3302C70.4012 18.3372 70.4826 18.3372 70.5635 18.3302C70.7147 18.3117 70.8294 18.1819 70.832 18.0263V12.19L66.5759 18.6563H66.5106L62.3054 12.0751L62.2619 18.0041C62.2619 18.219 62.4542 18.3265 62.8569 18.3265V18.6489H56.1953V18.3302C56.3006 18.3302 56.5364 18.2598 56.5364 18.1153C56.5236 17.9475 56.4645 17.7869 56.3659 17.6521L55.5568 16.3329H50.3683L49.6063 17.5891C49.5009 17.7506 49.4281 17.932 49.3923 18.1227C49.3923 18.2302 49.5846 18.3191 49.795 18.3191V18.6415H43.9897V18.3302C44.2437 18.3302 44.4578 18.2413 44.4578 18.1338C44.4578 18.0263 44.3308 17.867 44.1167 17.615L41.7764 14.8321H38.7577V18.0078C38.7557 18.1054 38.8021 18.1974 38.8811 18.2524C39.0392 18.3152 39.2089 18.3418 39.3781 18.3302V18.6526H35.6954V18.3302C36.1199 18.3302 36.3122 18.2227 36.3122 18.0078V14.6616H29.4837V18.0152C29.4899 18.1113 29.5348 18.2004 29.6077 18.2615C29.6805 18.3226 29.7749 18.3501 29.8683 18.3376V18.66H26.6536V18.3302C26.8677 18.3302 27.0564 18.2227 27.0564 18.0078V9.91468C27.0564 9.69976 26.8641 9.59229 26.6536 9.59229V9.2699H29.8647V9.59229C29.7712 9.57979 29.6769 9.60735 29.604 9.66842C29.5312 9.72949 29.4863 9.81863 29.4801 9.91468V12.9459H36.3122V9.91468C36.3122 9.69976 36.1199 9.59229 35.6954 9.59229V9.2699H42.952C45.6732 9.2699 47.462 10.011 47.462 12.0528C47.462 13.6055 46.2719 14.4059 44.3997 14.6913L47.2225 18.0745C47.3297 17.9439 47.4233 17.8024 47.5019 17.6521L51.435 10.7114C51.6133 10.4859 51.7431 10.2245 51.816 9.94433C51.816 9.71087 51.562 9.62194 51.3479 9.57376V9.25137H54.9436V9.57376C54.7513 9.61082 54.4973 9.68123 54.4973 9.94433C54.5368 10.1875 54.6395 10.4153 54.7948 10.6039L59.2177 17.8633C59.3673 18.0828 59.5907 18.2384 59.8454 18.3006C59.9855 18.2739 60.0875 18.1496 60.0885 18.0041V9.85169C60.0885 9.63676 59.8962 9.56635 59.664 9.56635V9.24396H63.6552V9.56635C63.5064 9.56635 63.3141 9.63676 63.3141 9.78128C63.3725 9.97519 63.4661 10.1562 63.5898 10.3149L66.6413 14.9951L69.7035 10.4112C69.8959 10.1074 70.0011 9.94803 70.0011 9.80351C70.0011 9.65899 69.8958 9.60711 69.7253 9.60711V9.28472H74.3369V9.60711C74.1664 9.60711 74.0611 9.65899 74.0611 9.80351C74.0611 9.94803 74.1664 10.1074 74.3587 10.4112L77.421 14.9951L80.447 10.3445C80.5763 10.1859 80.6748 10.0035 80.7372 9.80722C80.7372 9.6627 80.5449 9.59229 80.3962 9.59229V9.2699H84.3873V9.59229C84.1515 9.59229 83.9628 9.6627 83.9628 9.87763V18.0301C83.9628 18.245 84.1551 18.3524 84.3873 18.3524V18.6748L81.1726 18.6563Z" fill="black" fill-opacity="0.7"/>
<path d="M0.794678 22.4604H110.795" stroke="black" stroke-opacity="0.7" stroke-width="3"/>
<path d="M27.9551 32.6734H28.7285V30.8898L30.5506 29.6758L33.7 32.6734H34.7452L31.1568 29.2807L34.2784 27.2266H33.0903L28.7285 30.128V27.2266H27.9551V32.6734Z" fill="black" fill-opacity="0.7"/>
<path d="M38.8247 32.1646C37.5906 32.1646 36.8344 31.5504 36.8344 30.6274C36.8344 29.9255 37.4016 29.0832 38.8247 29.0832C40.2478 29.0832 40.8042 29.9255 40.8042 30.6274C40.8042 31.5504 40.0587 32.1646 38.8247 32.1646ZM38.8247 32.6735C40.4261 32.6735 41.5354 31.9189 41.5354 30.5678C41.5354 29.4658 40.4654 28.5884 38.8247 28.5884C37.184 28.5884 36.1033 29.4658 36.1033 30.5678C36.1033 31.933 37.2196 32.6735 38.8247 32.6735Z" fill="black" fill-opacity="0.7"/>
<path d="M43.5725 31.7555C44.2606 32.396 45.1797 32.7254 46.1158 32.6668C47.2902 32.6668 48.3256 32.3421 48.3256 31.4621C48.3256 29.8175 44.5037 30.7114 44.5037 29.7162C44.5037 29.3112 44.9762 29.0912 45.8205 29.0912C46.5143 29.0448 47.1947 29.2989 47.6898 29.7896L48.1831 29.4194C47.9469 29.1401 47.384 28.5884 45.8413 28.5884C44.8754 28.5884 43.8053 28.8817 43.8053 29.7581C43.8053 31.3469 47.6272 30.4181 47.6272 31.504C47.6272 31.958 46.9323 32.157 46.1888 32.157C45.4111 32.196 44.6534 31.9016 44.1041 31.3469L43.5725 31.7555Z" fill="black" fill-opacity="0.7"/>
<path d="M51.7207 32.6735H52.4787V29.8292C52.9954 29.4069 53.6508 29.1635 54.3357 29.1395C55.4158 29.1395 55.4158 29.8114 55.4158 30.0532V32.6557H56.1738V29.8114C56.685 29.3921 57.3334 29.1489 58.0118 29.1217C59.1109 29.1217 59.1109 29.7936 59.1109 30.0354V32.6379H59.8688V29.7936C59.8688 28.663 58.4893 28.5884 58.0308 28.5884C57.2835 28.595 56.5622 28.8465 55.9918 29.2995C55.791 29.015 55.4954 28.5884 54.4039 28.5884C53.6962 28.626 53.0206 28.878 52.4787 29.3066V28.759H51.7207V32.6735Z" fill="black" fill-opacity="0.7"/>
<path d="M62.6651 30.2287C62.8749 29.5292 63.486 29.0815 64.5744 29.0815C65.6629 29.0815 66.3825 29.5957 66.5271 30.2287H62.6651ZM66.6175 31.3969C66.3174 31.6977 65.8943 32.1489 64.6721 32.1489C63.4498 32.1489 62.7085 31.4493 62.6362 30.7498H67.3371C67.3733 29.2249 66.039 28.5884 64.5166 28.5884C62.9942 28.5884 61.9058 29.3893 61.9058 30.6134C61.9058 31.8376 62.9906 32.6735 64.607 32.6735C66.2234 32.6735 66.7079 32.1733 67.1997 31.7536L66.6175 31.3969Z" fill="black" fill-opacity="0.7"/>
<path d="M72.6295 28.5556H70.5671V27.2266H69.7874V28.5556H68.6958V29.0821H69.7874V31.5586C69.7874 31.8781 69.7874 32.6734 71.4716 32.6734C71.9064 32.6584 72.3399 32.6196 72.7699 32.5572V32.027C72.3977 32.0995 72.0193 32.1408 71.6393 32.1505C70.8323 32.1505 70.5866 31.9362 70.5866 31.5005V29.0857H72.6334L72.6295 28.5556Z" fill="black" fill-opacity="0.7"/>
<path d="M75.4861 27.9367H76.1651V27.2266H75.4861V27.9367ZM75.5381 32.6734H76.116V28.7676H75.5381V32.6734Z" fill="black" fill-opacity="0.7"/>
<path d="M78.2021 32.6734H78.8736V31.3918L80.131 30.5231L82.0994 32.6734H82.9552L80.6445 30.1778L82.6886 28.7574H81.6518L78.8736 30.694V27.2266H78.2021V32.6734Z" fill="black" fill-opacity="0.7"/>
<path d="M103.577 3.75228H107.304C107.163 3.13929 106.512 2.63839 105.421 2.63839C104.329 2.63839 103.782 3.06573 103.58 3.75228H103.577ZM107.39 4.88017L107.945 5.20943C107.47 5.61575 107.012 6.10263 105.442 6.10263C103.872 6.10263 102.835 5.24446 102.835 4.10255C102.835 2.96065 103.937 2.1375 105.356 2.1375C106.775 2.1375 108.111 2.75749 108.078 4.23916H103.551C103.624 4.93971 104.319 5.60874 105.514 5.60874C106.71 5.60874 107.099 5.1744 107.39 4.88017ZM96.0754 5.98704V2.2601H96.7957V2.80302C97.3515 2.38643 98.0314 2.15658 98.7331 2.14801C99.3057 2.14801 100.635 2.25659 100.635 3.54911V6.00105H99.9143V3.64719C99.9143 2.76099 99.14 2.6419 98.6359 2.6419C97.9461 2.66626 97.2886 2.9325 96.7849 3.39149V5.99755L96.0754 5.98704ZM92.7623 0.806445H93.5798V1.47197H92.7623V0.806445ZM92.8236 2.2636H93.5438V5.99405H92.8236V2.2636ZM90.7313 2.2636V2.75399H88.8983V5.00977C88.8983 5.41609 89.1179 5.61575 89.8418 5.61575C90.1819 5.60636 90.5206 5.56768 90.8537 5.50016V6.00105C90.4685 6.05958 90.0801 6.09584 89.6905 6.10964C88.1852 6.10964 88.1852 5.36705 88.1852 5.05881V2.75399H87.2093V2.2601H88.1852V1.02712H88.9055V2.2601L90.7313 2.2636ZM80.8676 5.23044L81.397 4.83813C81.9479 5.37511 82.7067 5.66017 83.4857 5.62276C84.2419 5.62276 84.9261 5.4301 84.9261 4.98875C84.9261 3.93792 81.0945 4.83113 81.0945 3.28991C81.0945 2.43874 82.1748 2.15501 83.1364 2.15501C84.6849 2.15501 85.2503 2.69094 85.4879 2.96065L85.0018 3.31093C84.504 2.83613 83.8211 2.59133 83.1256 2.63839C82.2793 2.63839 81.8039 2.85206 81.8039 3.24437C81.8039 4.20764 85.6356 3.33895 85.6356 4.93621C85.6356 5.79439 84.5984 6.10614 83.4173 6.10614C82.4802 6.16467 81.5592 5.84834 80.8676 5.23044ZM78.2423 0.806445H79.0598V1.47197H78.2423V0.806445ZM78.3036 2.2636H79.0238V5.99405H78.3036V2.2636ZM73.3303 5.99405V2.2601H74.0506V3.04121C74.5396 2.50287 75.2322 2.18055 75.97 2.14801C76.111 2.14587 76.2519 2.15524 76.3913 2.17603V2.75399C76.202 2.72356 76.0106 2.70717 75.8187 2.70495C75.0903 2.76217 74.4329 3.15207 74.047 3.75578V5.99055L73.3303 5.99405ZM66.3656 5.99405V0.806445H67.0859V2.80302C67.6417 2.38643 68.3216 2.15658 69.0233 2.14801C69.5959 2.14801 70.9247 2.25659 70.9247 3.54911V6.00105H70.2045V3.64719C70.2045 2.76099 69.4302 2.6419 68.9261 2.6419C68.2379 2.66582 67.5818 2.93079 67.0787 3.38799V5.99405H66.3656ZM63.4162 4.34424L64.1041 4.61396C63.4163 5.69281 62.2279 6.12015 60.6685 6.12015C58.1837 6.12015 57.0133 4.9152 57.0133 3.409C57.0133 1.62259 58.5006 0.67334 60.6613 0.67334C62.037 0.67334 63.4343 1.10068 64.0068 2.15851L63.337 2.42823C62.8869 1.58056 61.8965 1.22327 60.6685 1.22327C58.8355 1.22327 57.8056 2.02891 57.8056 3.50708C57.8056 4.69802 58.7995 5.58422 60.737 5.58422C62.0046 5.58422 62.8977 5.15689 63.4162 4.36526V4.34424ZM48.3885 5.1674H49.296V5.99405H48.3885V5.1674ZM44.7873 0.806445H45.5075V5.297C45.5075 5.39858 45.5508 5.88196 45.5616 5.99755H44.9169L44.8305 5.41259C44.2016 5.89765 43.4141 6.14633 42.6122 6.11314C40.8332 6.11314 40.0914 5.01327 40.0914 4.1656C40.0914 3.31793 40.7612 2.15151 42.7346 2.15151C43.4705 2.1396 44.1906 2.35955 44.7873 2.77851V0.806445ZM44.7873 4.82763V3.37398C44.2381 2.8844 43.5154 2.62077 42.7706 2.63839C41.8199 2.63839 40.79 3.04121 40.79 4.17961C40.79 4.95022 41.5318 5.62276 42.7814 5.62276C43.5211 5.5887 44.2264 5.30933 44.7801 4.83113L44.7873 4.82763ZM33.8613 3.75228H37.5849C37.4445 3.12878 36.7927 2.63839 35.7015 2.63839C34.6103 2.63839 34.063 3.06573 33.8613 3.75228ZM37.675 4.88017L38.2295 5.20943C37.7542 5.61575 37.2968 6.10263 35.7267 6.10263C34.1566 6.10263 33.1195 5.25146 33.1195 4.10956C33.1195 2.96765 34.2214 2.1445 35.6403 2.1445C37.0592 2.1445 38.3988 2.76449 38.3628 4.24617H33.8325C33.9009 4.94672 34.5995 5.61575 35.7951 5.61575C36.9907 5.61575 37.3797 5.18141 37.6714 4.88717L37.675 4.88017ZM23.5043 5.99405V2.2601H24.1921V2.77851C24.7147 2.37717 25.3593 2.15547 26.0251 2.14801C27.0298 2.14801 27.3035 2.54032 27.4872 2.81353C28.0142 2.38648 28.6775 2.15117 29.3634 2.14801C29.7848 2.14801 31.056 2.21806 31.056 3.29692V5.99405H30.3357V3.51058C30.3357 3.2829 30.3357 2.63839 29.3238 2.63839C28.6989 2.66389 28.1018 2.89622 27.6312 3.29692V5.99405H26.911V3.51058C26.911 3.2829 26.911 2.63839 25.9171 2.63839C25.2874 2.66156 24.6849 2.89399 24.2101 3.29692V5.99405H23.5043ZM14.6418 5.1674H15.5493V5.99405H14.6418V5.1674ZM10.7957 5.99405V2.2601H11.5159V3.04121C12.0012 2.50595 12.6881 2.18388 13.421 2.14801C13.562 2.14587 13.7029 2.15524 13.8423 2.17603V2.75399C13.653 2.72351 13.4616 2.70711 13.2697 2.70495C12.5412 2.76217 11.8838 3.15207 11.4979 3.75578V5.99055L10.7957 5.99405ZM2.15283 5.99405V0.806445H5.31468C7.29893 0.806445 8.73941 1.65412 8.73941 3.35296C8.73941 5.45462 6.75875 5.99405 5.06619 5.99405H2.15283ZM2.91628 1.3774V5.43711H5.18143C5.81524 5.43711 7.93634 5.37406 7.93634 3.33545C7.93634 1.81174 6.6075 1.3774 5.30387 1.3774H2.91628Z" fill="black" fill-opacity="0.7"/>
</g>
<defs>
<clipPath id="clip0_2691_10831">
<rect width="110" height="32" fill="white" transform="translate(0.794678 0.67334)"/>
</clipPath>
</defs>
</svg>
