<svg width="112" height="22" viewBox="0 0 112 22" fill="none" xmlns="http://www.w3.org/2000/svg">
<g clip-path="url(#clip0_2691_10777)">
<path d="M60.9319 19.7632H75.3848V17.9334H63.4114V12.0773H72.405V10.2276H63.4114V4.83396H75.3848V3.01074H60.9319V19.7632Z" fill="black" fill-opacity="0.7"/>
<path d="M68.4436 0.302246L66.4868 2.58126L72.6281 0.302246H68.4436Z" fill="black" fill-opacity="0.7"/>
<path d="M97.3909 3.01074V19.7599H112V17.9334H99.6504V3.01074H97.3909Z" fill="black" fill-opacity="0.7"/>
<path d="M82.4504 13.3258L86.3354 5.34261L90.2522 13.3423L82.4504 13.3258ZM84.7419 3.01074L76.5322 19.7632H79.324L81.4274 15.4264H91.2848L93.4041 19.7632H96.1545L87.9289 3.01074H84.7419Z" fill="black" fill-opacity="0.7"/>
<path d="M51.154 10.7558H43.6041V4.99224H51.4154C53.2128 4.99224 54.2263 5.86091 54.6023 6.974C54.7104 7.3805 54.7379 7.80547 54.6831 8.22328C54.6283 8.64109 54.4924 9.04307 54.2836 9.40495C53.6462 10.5246 52.3906 10.7625 51.1604 10.7625L51.154 10.7558ZM53.0949 12.764C56.7982 11.7401 57.1583 8.88309 57.1392 7.86248C56.9193 4.87003 54.972 3.01709 51.4759 3.01709H41.2776V19.7629H43.6009V12.7343H50.233L55.1027 19.7629H58.0315C58.0315 19.7629 54.5259 15.0331 53.0758 12.7574" fill="black" fill-opacity="0.7"/>
<path d="M27.3253 0.17334C20.7697 0.17334 16.3015 4.96258 16.3015 10.7625C16.3015 16.8663 21.2381 21.1766 27.3253 21.1766C33.4124 21.1766 38.3427 16.9291 38.3427 10.7625C38.3427 4.96258 33.8203 0.17334 27.3253 0.17334ZM27.2456 19.0958C22.7105 19.0958 18.9754 15.3173 18.9754 10.7691C18.9754 6.221 22.5352 2.26409 27.4209 2.26409C28.5054 2.25274 29.5813 2.46437 30.5863 2.88674C31.5914 3.30911 32.5057 3.93384 33.2763 4.72479C34.0468 5.51573 34.6584 6.45718 35.0757 7.49468C35.4929 8.53218 35.7075 9.64512 35.707 10.7691C35.6943 15.3173 31.7807 19.0958 27.2456 19.0958Z" fill="black" fill-opacity="0.7"/>
<path d="M10.4534 8.93619H12.1265L15.1701 3.01074H12.7225L10.4534 8.93619Z" fill="black" fill-opacity="0.7"/>
<path d="M0 3.01074V19.7599H14.6091V17.9334H2.25957V3.01074H0Z" fill="black" fill-opacity="0.7"/>
</g>
<defs>
<clipPath id="clip0_2691_10777">
<rect width="112" height="21" fill="white" transform="translate(0 0.17334)"/>
</clipPath>
</defs>
</svg>
