<svg width="138" height="36" viewBox="0 0 138 36" fill="none" xmlns="http://www.w3.org/2000/svg">
<g clip-path="url(#clip0_2691_10786)">
<mask id="mask0_2691_10786" style="mask-type:alpha" maskUnits="userSpaceOnUse" x="-17" y="-17" width="172" height="69">
<path d="M154.676 -16.6157H-16.8965V51.8069H154.676V-16.6157Z" fill="white"/>
</mask>
<g mask="url(#mask0_2691_10786)">
<path d="M17.4522 0.490723C7.97864 0.490723 0.297852 8.14969 0.297852 17.5949C0.297852 27.0412 7.97864 34.7002 17.4522 34.7002C26.9306 34.7002 34.6114 27.0412 34.6114 17.5949C34.6114 8.14969 26.9306 0.490723 17.4522 0.490723ZM17.4522 33.3787C8.70859 33.3787 1.62338 26.3123 1.62338 17.5949C1.62338 8.87745 8.70859 1.81227 17.4522 1.81227C26.1983 1.81227 33.2847 8.87745 33.2847 17.5949C33.2847 26.3123 26.1983 33.3787 17.4522 33.3787Z" fill="black" fill-opacity="0.7"/>
</g>
<mask id="mask1_2691_10786" style="mask-type:alpha" maskUnits="userSpaceOnUse" x="-17" y="-17" width="172" height="69">
<path d="M154.676 -16.6157H-16.8965V51.8069H154.676V-16.6157Z" fill="white"/>
</mask>
<g mask="url(#mask1_2691_10786)">
<path fill-rule="evenodd" clip-rule="evenodd" d="M17.4527 30.4246C18.0458 30.4246 18.4053 30.0263 18.4271 29.482C18.5567 29.727 18.7249 29.8935 18.9779 29.9442C19.2261 29.9937 19.4948 29.9587 19.7224 29.8585C19.9585 29.7584 20.1388 29.5942 20.2502 29.3649C20.3628 29.1356 20.3252 28.8978 20.2453 28.6227C20.5238 29.0234 20.9971 29.1272 21.4123 28.9341C21.9825 28.6685 22.1907 28.1858 21.957 27.6342C21.2525 25.9663 20.5528 24.3285 19.8459 22.6606C19.7817 22.5097 19.7272 22.3553 19.6558 22.2044C19.5941 22.0716 19.5517 21.9739 19.4936 21.8918C19.4512 21.8351 19.4004 21.7868 19.3278 21.7409C20.4209 21.8616 20.9462 22.2913 21.2368 22.482C21.313 22.5327 21.3094 22.5399 21.6048 22.4482C21.7403 22.4047 21.8905 22.4313 21.997 22.4904C22.1289 22.5641 22.2645 22.6437 22.3795 22.7342C22.7729 23.0396 23.1724 23.3341 23.5428 23.6635C23.7159 23.8168 23.9653 24.0811 23.9302 24.3165C23.9023 24.5385 23.3649 25.0466 23.2051 25.1975C22.8238 25.5584 23.4 26.2342 24.1699 26.1715C23.9641 25.9566 23.9157 25.7744 23.9411 25.6127C24.0186 25.6115 24.165 25.6259 24.303 25.5028C24.4689 25.3532 24.3938 24.9139 24.5488 24.7642C24.8187 24.5011 25.7036 24.477 26.2338 24.4541C26.4553 24.4456 26.689 24.3853 26.672 24.0401C27.0086 24.063 27.0788 24.3128 27.0788 24.5373C27.3669 24.3732 27.6162 23.5911 26.5473 23.4113C26.7277 23.2496 27.0267 23.188 27.2119 23.3968C27.385 23.1096 26.9468 22.546 26.1551 22.8646C26.1563 22.861 25.8005 22.3951 24.7303 23.5899C24.596 23.4885 24.4616 23.3896 24.3393 23.2761C23.9266 22.8996 22.8831 21.8834 22.8831 21.8834C22.8831 21.3113 22.7971 20.2034 22.0393 19.5396C21.7161 19.2572 21.4087 19.1075 20.7247 18.9832C20.7247 18.9832 21.0552 18.4666 21.1072 18.2639C21.7028 18.8577 22.9 19.0351 22.9 18.0322C23.8757 19.0073 24.7824 18.4823 24.7824 17.8704C24.8127 18.1685 24.8889 18.4968 24.9906 18.778C25.1129 19.1051 25.5596 20.3615 26.7132 20.3615C26.7398 20.7972 26.7422 22.2346 28.121 22.5544C28.1791 22.5701 28.2554 22.5894 28.2929 22.6353C28.8486 23.3244 31.1631 24.051 31.4463 23.8554C31.266 23.7275 30.9827 23.5573 30.9379 22.7463C30.9089 22.2116 30.8496 19.4358 30.8496 15.5242C30.8496 14.1411 30.7007 9.6575 26.2544 9.03233C25.5801 8.93699 24.9168 8.98767 24.3418 9.41371C23.5598 9.99543 23.1748 10.9778 23.6348 12.0882C23.6493 12.128 23.6615 12.1678 23.682 12.2028C23.8382 12.4672 23.7752 12.6965 23.5719 12.898C23.2002 13.2649 22.7681 13.5135 22.2476 13.5739C21.9183 13.6113 21.6471 13.4677 21.4292 13.2432C20.9305 12.7315 20.5795 12.1304 20.4693 11.422C20.2587 10.0727 20.5976 9.40405 20.617 9.36181C20.9789 8.63888 21.7476 8.10785 22.6373 8.03181C23.0453 7.27147 24.2159 7.57199 24.2159 7.57199C24.5088 7.63595 24.6117 7.72044 24.6856 7.86406C24.6856 7.86406 25.1988 7.08319 24.7146 6.77061C24.2316 6.45802 23.1482 6.32888 23.1482 6.32888C23.1482 5.82078 22.3057 5.42492 20.7828 5.69647C18.9416 6.02354 18.547 5.30664 18.547 5.30664C18.4707 6.18526 19.1426 6.63785 19.3592 6.76095C18.6608 7.51647 17.6851 9.0263 17.4527 11.1685C17.2202 9.0263 16.2446 7.51647 15.5461 6.76095C15.7616 6.63785 16.4346 6.18526 16.3583 5.30664C16.3583 5.30664 15.9625 6.02354 14.1213 5.69647C12.5997 5.42492 11.7571 5.82078 11.7571 6.32888C11.7571 6.32888 10.6737 6.45802 10.1895 6.77061C9.7065 7.08319 10.2186 7.86406 10.2186 7.86406C10.2936 7.72044 10.3965 7.63595 10.6894 7.57199C10.6894 7.57199 11.86 7.27147 12.268 8.03181C13.1577 8.10785 13.9264 8.63888 14.2883 9.36181C14.3077 9.40405 14.6672 10.0787 14.436 11.422C14.3138 12.1292 13.9748 12.7315 13.4761 13.2432C13.2582 13.4677 12.987 13.6113 12.6578 13.5739C12.1372 13.5135 11.7051 13.2649 11.3334 12.898C11.1301 12.6965 11.0671 12.4672 11.2233 12.2028C11.2439 12.1678 11.256 12.128 11.2705 12.0882C11.7305 10.9778 11.3456 9.99543 10.5636 9.41371C9.98855 8.98767 9.32519 8.93699 8.65092 9.03233C4.20466 9.6575 4.05455 14.1411 4.05455 15.5242C4.05455 19.4358 3.99524 22.2116 3.96618 22.7463C3.9214 23.5573 3.63813 23.7263 3.45776 23.8554C3.74224 24.051 6.05555 23.3256 6.6124 22.6353C6.64992 22.5894 6.72619 22.5689 6.78429 22.5544C8.16308 22.2334 8.1655 20.7972 8.19213 20.3615C9.34577 20.3615 9.79245 19.1051 9.91471 18.778C10.0164 18.4968 10.0927 18.1685 10.1229 17.8704C10.1229 18.4823 11.0296 19.0061 12.0053 18.0322C12.0053 19.0351 13.2025 18.8589 13.7981 18.2639C13.8501 18.4666 14.1806 18.9832 14.1806 18.9832C13.4967 19.1075 13.1892 19.2572 12.8648 19.5396C12.1082 20.2046 12.0222 21.3125 12.0222 21.8834C12.0222 21.8834 10.9788 22.9008 10.566 23.2761C10.4437 23.3896 10.3093 23.4885 10.175 23.5899C9.10487 22.3963 8.74777 22.861 8.75019 22.8646C7.9585 22.546 7.52029 23.1096 7.6934 23.3968C7.8774 23.188 8.17761 23.2496 8.35798 23.4113C7.28908 23.5899 7.53724 24.3732 7.82656 24.5373C7.82656 24.3116 7.89556 24.0618 8.23329 24.0401C8.21635 24.3853 8.44998 24.4456 8.6715 24.4541C9.2005 24.477 10.0854 24.5011 10.3566 24.7642C10.5103 24.9139 10.4352 25.3532 10.6023 25.5028C10.7403 25.6259 10.8868 25.6115 10.963 25.6127C10.9884 25.7744 10.9412 25.9566 10.7355 26.1715C11.5053 26.2354 12.0816 25.5584 11.7002 25.1975C11.5404 25.0466 11.0018 24.5373 10.9751 24.3165C10.94 24.0811 11.1894 23.8168 11.3625 23.6635C11.7329 23.3353 12.1324 23.0396 12.5258 22.7342C12.6408 22.6437 12.7764 22.5628 12.9083 22.4904C13.0149 22.4313 13.1638 22.4047 13.3006 22.4482C13.5959 22.5399 13.5923 22.5327 13.6686 22.482C13.9579 22.2913 14.4845 21.8604 15.5776 21.7409C15.5037 21.7868 15.4529 21.8351 15.4105 21.8918C15.3524 21.9727 15.3112 22.0704 15.2495 22.2044C15.1781 22.3553 15.1236 22.5097 15.0595 22.6606C14.3525 24.3285 13.6528 25.9663 12.9483 27.6342C12.7147 28.1858 12.9229 28.6685 13.493 28.9341C13.9082 29.1272 14.3816 29.0234 14.66 28.6227C14.5801 28.8991 14.5426 29.1356 14.6551 29.3649C14.7665 29.5942 14.9469 29.7584 15.1829 29.8585C15.4105 29.9587 15.6792 29.9937 15.9274 29.9442C16.1804 29.8935 16.3487 29.727 16.4782 29.482C16.5 30.0263 16.8595 30.4246 17.4527 30.4246Z" fill="black" fill-opacity="0.7"/>
</g>
<path d="M46.4276 11.6218C47.373 11.6218 49.3026 11.5373 50.4054 11.4709C50.3727 11.6737 50.3545 11.9947 50.3545 12.0792C50.3545 12.1963 50.3896 12.4678 50.4054 12.6525C49.4212 12.5173 47.7955 12.4171 47.2907 12.4171C46.936 12.4171 45.5608 12.4497 44.8164 12.5173V16.7596H45.6795C47.4444 16.7596 51.1559 17.0963 51.1559 20.1533C51.1559 22.6359 49.0702 23.768 46.3271 23.7511C46.0196 23.7511 44.8696 23.7016 44.136 23.7016C43.8177 23.7016 43.4279 23.7185 43.1555 23.7511C43.2596 21.8913 43.2911 19.3242 43.2911 17.1952C43.2911 15.2871 43.2778 12.3978 43.1555 11.4697C44.2402 11.5216 46.0342 11.6218 46.4276 11.6218ZM44.8164 22.7723C45.257 22.7892 45.7799 22.8061 46.2557 22.8061C48.2567 22.8061 49.4212 21.8756 49.4212 20.1352C49.4212 18.2609 48.0352 17.6515 44.8164 17.6515V22.7723Z" fill="black" fill-opacity="0.7"/>
<path d="M53.0753 16.1998C53.7374 15.3912 54.9552 15.0376 55.9757 15.0376C57.7552 15.0376 58.9899 15.9126 58.9899 18.0247V22.215C58.9899 23.0779 59.1751 23.2795 59.5298 23.2795C59.6521 23.2795 59.8373 23.2445 59.9377 23.2107L60.0382 23.6174C59.4983 23.8878 58.9899 23.9397 58.7684 23.9397C58.2103 23.9397 57.8556 23.6862 57.7188 23.195L57.6184 22.8257C56.7032 23.551 55.7033 23.9397 54.8729 23.9397C53.3295 23.9397 52.3284 23.1274 52.3284 21.7081C52.3284 20.1874 53.4663 19.4766 55.0242 19.1917L56.7504 18.8695C57.3291 18.7681 57.6365 18.5992 57.6365 18.1779C57.6365 16.3374 56.8557 15.8643 55.5677 15.8643C54.5691 15.8643 53.8209 16.1516 53.2798 17.251H53.0753V16.1998ZM57.6365 19.3933L56.5156 19.561C55.2954 19.7481 53.9384 20.1693 53.9384 21.4559C53.9384 22.4347 54.4831 22.9585 55.5823 22.9585C56.2614 22.9585 56.9393 22.7207 57.6365 21.9954V19.3933Z" fill="black" fill-opacity="0.7"/>
<path fill-rule="evenodd" clip-rule="evenodd" d="M62.3613 15.2558C62.5478 15.2558 62.9012 15.222 63.1555 15.2051C63.0211 16.488 63.0017 18.6158 63.0017 18.7003C63.7147 18.7353 64.7461 18.7703 65.2932 18.7703C65.8513 18.7703 66.919 18.7365 67.4274 18.7003C67.4274 18.6001 67.4092 16.4723 67.2761 15.2051C67.5593 15.222 67.9346 15.2558 68.1368 15.2558C68.3256 15.2558 68.6803 15.222 68.9345 15.2051C68.7977 16.4723 68.7808 18.5989 68.7808 19.4775C68.7808 20.1871 68.7977 22.4682 68.9345 23.7523C68.6803 23.7197 68.4103 23.7028 68.1537 23.7028C67.8668 23.7028 67.5267 23.7197 67.2749 23.7523C67.408 22.4682 67.4262 20.1871 67.4262 19.6489C66.6805 19.5958 65.6637 19.5294 65.2739 19.5294C64.8127 19.5294 63.682 19.5596 63.0005 19.6115C63.0005 20.1871 63.0199 22.467 63.1542 23.7523C62.9 23.7197 62.6289 23.7028 62.3759 23.7028C62.0878 23.7028 61.7488 23.7197 61.4934 23.7523C61.6278 22.4682 61.6447 20.1871 61.6447 19.4775C61.6447 18.6158 61.6278 16.4723 61.4934 15.2051C61.7815 15.2208 62.1568 15.2558 62.3613 15.2558Z" fill="black" fill-opacity="0.7"/>
<path fill-rule="evenodd" clip-rule="evenodd" d="M72.1023 15.2558C72.2839 15.2558 72.641 15.222 72.8916 15.2051C72.7608 16.4723 72.7451 18.6158 72.7451 18.9223H73.0187C73.5767 18.9223 76.4396 15.677 76.712 15.2051C76.9481 15.222 77.3354 15.2558 77.5388 15.2558C77.7119 15.2558 78.1186 15.222 78.3716 15.2051L74.3224 18.8197C74.8333 19.4268 77.5231 22.4525 78.7421 23.7523C78.2869 23.7197 77.9649 23.7028 77.7276 23.7028C77.4214 23.7028 76.9638 23.7197 76.6091 23.7523C75.9821 22.7723 74.067 20.5263 73.0187 19.3761H72.7451C72.7451 20.0025 72.7608 22.4682 72.8916 23.7523C72.641 23.7197 72.3735 23.7028 72.1156 23.7028C71.8312 23.7028 71.4922 23.7197 71.2332 23.7523C71.3724 22.4682 71.3917 20.1871 71.3917 19.4775C71.3917 18.6158 71.3724 16.4723 71.2332 15.2051C71.5249 15.2208 71.8989 15.2558 72.1023 15.2558Z" fill="black" fill-opacity="0.7"/>
<path d="M86.2297 11.5216C86.8193 11.5216 87.5855 11.4709 88.0225 11.4709C91.1578 11.4709 92.3804 12.4171 92.3804 14.5437C92.3804 17.3002 90.0562 18.1765 87.2998 18.1765C87.1461 18.1765 86.4997 18.1439 86.1765 18.1089V21.0296C86.1765 21.8744 86.2104 22.9063 86.3145 23.7511C86.0264 23.7185 85.7383 23.7016 85.4489 23.7016C85.1415 23.7016 84.7868 23.7185 84.5156 23.7511C84.6197 21.8925 84.6536 19.323 84.6536 17.1952C84.6536 15.2871 84.6367 12.3978 84.5156 11.4697C85.0773 11.4854 85.8399 11.5216 86.2297 11.5216ZM86.8895 17.2821C89.2621 17.2821 90.6518 16.3359 90.6518 14.5437C90.6518 12.8721 89.3299 12.4171 87.686 12.4171C87.4003 12.4171 86.4149 12.4328 86.1765 12.4678V17.2121C86.3835 17.2496 86.72 17.2821 86.8895 17.2821Z" fill="black" fill-opacity="0.7"/>
<path d="M101.204 19.4271C101.204 22.0135 99.5219 23.9385 96.866 23.9385C94.2573 23.9385 92.6279 22.0304 92.6279 19.6648C92.6279 16.8612 94.4231 15.0376 97.0173 15.0376C99.5933 15.0376 101.204 16.895 101.204 19.4271ZM94.2391 19.6129C94.2391 21.5223 95.0357 23.2783 96.8309 23.2783C98.5595 23.2783 99.5945 21.6224 99.5945 19.3595C99.5945 17.5347 98.8815 15.6941 96.9665 15.6941C95.1361 15.6941 94.2391 17.6035 94.2391 19.6129Z" fill="black" fill-opacity="0.7"/>
<path fill-rule="evenodd" clip-rule="evenodd" d="M109.509 17.0447H109.304C108.711 16.0828 107.882 15.6941 106.95 15.6941C104.966 15.6941 104.018 17.6035 104.018 19.4609C104.018 21.6055 105.202 23.2783 107.305 23.2783C108.002 23.2783 108.628 23.1781 109.609 22.1124L109.763 22.2983L109.559 23.1262C108.741 23.6681 107.831 23.9385 106.78 23.9385C104.135 23.9385 102.408 22.0967 102.408 19.4947C102.408 16.7755 104.272 15.0376 106.999 15.0376C107.882 15.0376 108.846 15.2054 109.931 15.7798L109.509 17.0447Z" fill="black" fill-opacity="0.7"/>
<path fill-rule="evenodd" clip-rule="evenodd" d="M118.06 17.0447H117.859C117.269 16.0828 116.438 15.6941 115.507 15.6941C113.522 15.6941 112.573 17.6035 112.573 19.4609C112.573 21.6055 113.763 23.2783 115.862 23.2783C116.553 23.2783 117.183 23.1781 118.164 22.1124L118.314 22.2983L118.113 23.1262C117.301 23.6681 116.384 23.9385 115.335 23.9385C112.693 23.9385 110.965 22.0967 110.965 19.4947C110.965 16.7755 112.831 15.0376 115.558 15.0376C116.439 15.0376 117.404 15.2054 118.489 15.7798L118.06 17.0447Z" fill="black" fill-opacity="0.7"/>
<path fill-rule="evenodd" clip-rule="evenodd" d="M120.574 23.7028C120.471 23.7028 120.166 23.733 120.03 23.7523C120.166 22.4682 120.184 20.1871 120.184 19.4775C120.184 18.6158 120.166 16.4723 120.03 15.2051C120.319 15.222 120.69 15.2558 120.893 15.2558C121.08 15.2558 121.434 15.222 121.691 15.2051C121.555 16.4723 121.541 18.5989 121.541 19.4775C121.541 20.1871 121.555 21.1828 121.571 21.6571C122.504 20.5263 125.826 16.3203 126.624 15.2051C126.804 15.2377 126.924 15.2558 127.129 15.2558C127.229 15.2558 127.584 15.222 127.774 15.2051C127.637 16.4723 127.618 18.5989 127.618 19.4775C127.618 20.1871 127.637 22.4682 127.774 23.7523C127.517 23.7197 127.246 23.7028 126.994 23.7028C126.705 23.7028 126.368 23.7197 126.11 23.7523C126.246 22.4682 126.265 20.1871 126.265 19.4775C126.265 18.5977 126.246 17.5199 126.234 17.1627C125.078 18.3297 122.026 22.3173 121.064 23.7523C120.909 23.7185 120.755 23.7028 120.574 23.7028Z" fill="black" fill-opacity="0.7"/>
<path fill-rule="evenodd" clip-rule="evenodd" d="M130.168 23.7028C130.065 23.7028 129.76 23.733 129.628 23.7523C129.76 22.4682 129.778 20.1871 129.778 19.4775C129.778 18.6158 129.76 16.4723 129.628 15.2051C129.914 15.222 130.284 15.2558 130.488 15.2558C130.674 15.2558 131.031 15.222 131.285 15.2051C131.15 16.4723 131.135 18.5989 131.135 19.4775C131.135 20.1871 131.15 21.1828 131.166 21.6571C132.099 20.5263 135.417 16.3203 136.213 15.2051C136.4 15.2377 136.52 15.2558 136.723 15.2558C136.823 15.2558 137.182 15.222 137.366 15.2051C137.235 16.4723 137.216 18.5989 137.216 19.4775C137.216 20.1871 137.235 22.4682 137.366 23.7523C137.112 23.7197 136.84 23.7028 136.586 23.7028C136.299 23.7028 135.958 23.7197 135.707 23.7523C135.843 22.4682 135.857 20.1871 135.857 19.4775C135.857 18.5977 135.843 17.5199 135.827 17.1627C134.675 18.3297 131.619 22.3173 130.655 23.7523C130.505 23.7185 130.351 23.7028 130.168 23.7028Z" fill="black" fill-opacity="0.7"/>
</g>
<defs>
<clipPath id="clip0_2691_10786">
<rect width="138" height="35" fill="white" transform="translate(0 0.17334)"/>
</clipPath>
</defs>
</svg>
