<svg width="169" height="27" viewBox="0 0 169 27" fill="none" xmlns="http://www.w3.org/2000/svg">
<path d="M6.72651 26.24C5.72536 26.24 4.69918 26.203 3.64797 26.1291C2.59675 26.0551 1.64566 25.9367 0.794678 25.774L4.79929 10.9068C5.75039 10.7441 6.7432 10.6332 7.77773 10.574C8.82894 10.5148 9.78838 10.4852 10.656 10.4852C11.6572 10.4852 12.5165 10.5814 13.234 10.7737C13.9682 10.9512 14.5605 11.1953 15.0111 11.506C15.4783 11.8166 15.8203 12.1864 16.0372 12.6154C16.2709 13.0297 16.3877 13.4735 16.3877 13.9468C16.3877 14.2723 16.3459 14.6125 16.2625 14.9676C16.1958 15.3226 16.0456 15.6776 15.812 16.0327C15.5951 16.3729 15.2864 16.6984 14.8859 17.009C14.5021 17.3197 13.9932 17.6008 13.3592 17.8522C14.11 18.1481 14.6607 18.5549 15.0111 19.0727C15.3615 19.5757 15.5367 20.1378 15.5367 20.7591C15.5367 21.4692 15.3782 22.1571 15.0611 22.8228C14.7441 23.4737 14.2352 24.058 13.5344 24.5758C12.8336 25.0787 11.9242 25.4856 10.8062 25.7962C9.68826 26.0921 8.32836 26.24 6.72651 26.24ZM6.37611 19.3168L5.29987 23.3109C5.56685 23.3553 5.90056 23.3923 6.30102 23.4219C6.71817 23.4367 7.10195 23.4441 7.45235 23.4441C7.95293 23.4441 8.44516 23.4145 8.92905 23.3553C9.42963 23.2814 9.87181 23.1556 10.2556 22.9781C10.656 22.8006 10.9814 22.5565 11.2317 22.2458C11.482 21.9352 11.6071 21.5358 11.6071 21.0476C11.6071 20.8405 11.5571 20.6334 11.457 20.4263C11.3735 20.2192 11.2317 20.0342 11.0315 19.8715C10.8312 19.7088 10.5643 19.5757 10.2306 19.4721C9.91352 19.3686 9.52975 19.3168 9.07923 19.3168H6.37611ZM7.10195 16.7206H9.55478C10.5559 16.7206 11.2985 16.5283 11.7823 16.1436C12.2829 15.759 12.5332 15.3004 12.5332 14.7679C12.5332 14.4868 12.4581 14.2501 12.3079 14.0578C12.1745 13.8507 11.9909 13.688 11.7573 13.5696C11.5237 13.4513 11.2567 13.3699 10.9564 13.3255C10.656 13.2664 10.3474 13.2368 10.0303 13.2368C9.67992 13.2368 9.30449 13.2516 8.90403 13.2811C8.50356 13.2959 8.20322 13.3181 8.00299 13.3477L7.10195 16.7206Z" fill="#454545"/>
<path d="M17.2687 26.0403L21.4235 10.6627H25.303L22.8251 19.7384C23.6428 18.9396 24.4687 18.1259 25.303 17.2975C26.154 16.4691 26.9966 15.6629 27.8309 14.8788C28.6652 14.0948 29.4912 13.3477 30.3088 12.6376C31.1264 11.9128 31.9106 11.2545 32.6615 10.6627H35.8401L31.6603 26.0403H27.8059L30.534 15.9661C29.5829 16.8537 28.6736 17.7191 27.8059 18.5623C26.9382 19.3907 26.0956 20.2118 25.278 21.0254C24.4771 21.839 23.6845 22.66 22.9002 23.4885C22.116 24.3169 21.3234 25.1675 20.5225 26.0403H17.2687Z" fill="#454545"/>
<path d="M52.2196 10.6627L51.4187 13.5696H46.3378L42.9589 26.0403H39.0544L42.4333 13.5696H37.3524L38.1534 10.6627H52.2196Z" fill="#454545"/>
<path d="M60.0174 26.0403C59.9841 25.4634 59.9423 24.9012 59.8923 24.3539C59.8589 23.7917 59.8172 23.237 59.7671 22.6896H53.2596C52.9259 23.237 52.5755 23.7917 52.2084 24.3539C51.8413 24.9012 51.4909 25.4634 51.1572 26.0403H47.0775C48.1621 24.3835 49.1716 22.8524 50.106 21.447C51.0571 20.0416 51.9665 18.7177 52.8342 17.475C53.7185 16.2324 54.5778 15.0563 55.4121 13.9468C56.2464 12.8226 57.0974 11.7279 57.9651 10.6627H61.4441C61.711 11.7279 61.9613 12.9113 62.1949 14.2131C62.4452 15.5001 62.6705 16.8241 62.8707 18.1851C63.0876 19.5313 63.2795 20.8849 63.4464 22.2458C63.6299 23.592 63.7968 24.8568 63.947 26.0403H60.0174ZM58.8661 14.0356C58.1653 15.0267 57.4728 16.0105 56.7887 16.9868C56.1213 17.9632 55.4705 18.9617 54.8365 19.9825H59.5169C59.4334 19.0801 59.3417 18.1185 59.2415 17.0978C59.1581 16.0771 59.033 15.0563 58.8661 14.0356Z" fill="#454545"/>
<path d="M79.0572 25.3746C78.373 25.6705 77.6138 25.9072 76.7795 26.0847C75.9452 26.2622 74.9274 26.351 73.726 26.351C72.6915 26.351 71.7404 26.203 70.8727 25.9072C70.0217 25.5965 69.2876 25.1601 68.6702 24.598C68.0695 24.0358 67.6023 23.3553 67.2686 22.5565C66.9348 21.7429 66.768 20.8331 66.768 19.8271C66.768 18.6733 66.9932 17.5268 67.4438 16.3877C67.911 15.2486 68.5867 14.2353 69.4711 13.3477C70.3721 12.4453 71.4651 11.7131 72.7499 11.1509C74.0514 10.5888 75.5448 10.3077 77.23 10.3077C78.031 10.3077 78.8152 10.3891 79.5828 10.5518C80.367 10.7145 81.1846 11.003 82.0356 11.4172L80.634 14.1022C79.9332 13.7767 79.3074 13.5548 78.7568 13.4365C78.2062 13.3181 77.6138 13.259 76.9798 13.259C76.0287 13.259 75.1693 13.4291 74.4018 13.7693C73.6509 14.1096 73.0002 14.5756 72.4495 15.1673C71.9156 15.7442 71.5068 16.4173 71.2231 17.1866C70.9395 17.9558 70.7976 18.7694 70.7976 19.6274C70.7976 20.9292 71.1147 21.876 71.7487 22.4677C72.3995 23.0595 73.3255 23.3553 74.5269 23.3553C75.3279 23.3553 76.062 23.2814 76.7295 23.1334C77.4136 22.9855 78.0477 22.7932 78.6317 22.5565L79.0572 25.3746Z" fill="#454545"/>
<path d="M98.1465 10.6627L97.3456 13.5696H92.2648L88.8859 26.0403H84.9814L88.3603 13.5696H83.2794L84.0803 10.6627H98.1465Z" fill="#454545"/>
<path d="M105.324 10.4852C106.375 10.4852 107.318 10.5888 108.152 10.7959C109.003 10.9882 109.72 11.2767 110.304 11.6613C110.888 12.0311 111.339 12.4897 111.656 13.0371C111.973 13.5844 112.131 14.1983 112.131 14.8788C112.131 15.9883 111.889 16.9277 111.406 17.6969C110.922 18.4662 110.254 19.0875 109.403 19.5609C108.552 20.0342 107.551 20.3745 106.4 20.5816C105.248 20.7887 103.997 20.8923 102.645 20.8923H101.669L100.268 26.0403H96.3883L100.468 10.8846C101.369 10.7367 102.22 10.6332 103.021 10.574C103.839 10.5148 104.606 10.4852 105.324 10.4852ZM104.998 13.3921C104.715 13.3921 104.473 13.3995 104.272 13.4143C104.072 13.4291 103.872 13.4439 103.672 13.4587L102.47 17.9854H103.446C104.147 17.9854 104.781 17.941 105.349 17.8522C105.933 17.7487 106.425 17.586 106.825 17.3641C107.242 17.1422 107.559 16.8611 107.776 16.5209C108.01 16.1658 108.127 15.7368 108.127 15.2338C108.127 14.5682 107.851 14.0948 107.301 13.8137C106.767 13.5326 105.999 13.3921 104.998 13.3921Z" fill="#454545"/>
<path d="M123.011 13.2811C122.243 13.2811 121.526 13.4587 120.858 13.8137C120.208 14.1687 119.632 14.6421 119.131 15.2338C118.647 15.8256 118.264 16.5061 117.98 17.2753C117.713 18.0446 117.579 18.836 117.579 19.6496C117.579 20.7591 117.838 21.6615 118.355 22.3568C118.889 23.0373 119.749 23.3775 120.933 23.3775C121.701 23.3775 122.41 23.2 123.061 22.845C123.728 22.4899 124.304 22.0165 124.788 21.4248C125.288 20.8331 125.672 20.16 125.939 19.4055C126.223 18.6363 126.365 17.8375 126.365 17.009C126.365 15.8995 126.098 15.0046 125.564 14.3241C125.046 13.6288 124.195 13.2811 123.011 13.2811ZM120.533 26.351C119.515 26.351 118.581 26.203 117.73 25.9072C116.879 25.6113 116.145 25.1897 115.527 24.6423C114.91 24.0802 114.426 23.3997 114.075 22.6009C113.742 21.802 113.575 20.8997 113.575 19.8937C113.575 18.7398 113.8 17.5934 114.251 16.4543C114.701 15.3152 115.344 14.2945 116.178 13.3921C117.029 12.4749 118.063 11.7353 119.281 11.1731C120.5 10.5962 121.876 10.3077 123.411 10.3077C124.429 10.3077 125.363 10.4556 126.214 10.7515C127.065 11.0474 127.8 11.4764 128.417 12.0385C129.034 12.5859 129.51 13.259 129.844 14.0578C130.194 14.8566 130.369 15.759 130.369 16.7649C130.369 17.9188 130.144 19.0727 129.693 20.2266C129.26 21.3656 128.617 22.3938 127.766 23.3109C126.932 24.2133 125.906 24.9456 124.688 25.5077C123.47 26.0699 122.085 26.351 120.533 26.351Z" fill="#454545"/>
<path d="M131.316 26.0403L135.471 10.6627H139.35L136.873 19.7384C137.69 18.9396 138.516 18.1259 139.35 17.2975C140.201 16.4691 141.044 15.6629 141.878 14.8788C142.713 14.0948 143.539 13.3477 144.356 12.6376C145.174 11.9128 145.958 11.2545 146.709 10.6627H149.888L145.708 26.0403H141.853L144.582 15.9661C143.63 16.8537 142.721 17.7191 141.853 18.5623C140.986 19.3907 140.143 20.2118 139.325 21.0254C138.525 21.839 137.732 22.66 136.948 23.4885C136.163 24.3169 135.371 25.1675 134.57 26.0403H131.316ZM143.055 9.30916C142.537 9.30916 142.054 9.24259 141.603 9.10946C141.169 8.96152 140.785 8.75442 140.452 8.48814C140.135 8.20707 139.876 7.87422 139.676 7.4896C139.476 7.09018 139.367 6.63899 139.35 6.13602L141.979 5.55908C141.995 6.12122 142.145 6.52064 142.429 6.75733C142.713 6.97923 143.063 7.09018 143.48 7.09018C143.914 7.09018 144.298 6.98663 144.632 6.77952C144.982 6.57242 145.307 6.173 145.608 5.58127L147.96 6.29135C147.56 7.32687 146.943 8.08872 146.108 8.5769C145.274 9.06508 144.256 9.30916 143.055 9.30916Z" fill="#454545"/>
<path d="M8.99941 6.77253C8.78569 6.86896 8.51368 6.95688 8.18339 7.0363C7.8531 7.11571 7.45157 7.15542 6.9788 7.15542C6.56432 7.15542 6.19517 7.10153 5.87136 6.99376C5.54754 6.88031 5.2723 6.71864 5.04563 6.50876C4.81896 6.29888 4.6441 6.04645 4.52105 5.75148C4.40448 5.45652 4.34619 5.12468 4.34619 4.75596C4.34619 4.27948 4.43686 3.81717 4.6182 3.36905C4.79953 2.91525 5.06182 2.5125 5.40506 2.16081C5.74831 1.80912 6.16603 1.52833 6.65823 1.31845C7.15043 1.10289 7.70739 0.995117 8.32911 0.995117C8.73712 0.995117 9.09008 1.03482 9.38798 1.11424C9.69237 1.19365 9.9579 1.29009 10.1846 1.40354L9.71828 2.26291C9.51103 2.15514 9.2876 2.07289 9.04798 2.01616C8.81483 1.95376 8.5493 1.92257 8.25139 1.92257C7.84339 1.92257 7.47748 2.00198 7.15366 2.16081C6.82985 2.31964 6.55137 2.52952 6.31822 2.79045C6.09155 3.04572 5.91669 3.33785 5.79364 3.66685C5.67707 3.99585 5.61878 4.33053 5.61878 4.67088C5.61878 5.19842 5.74831 5.58982 6.00736 5.84508C6.27289 6.09467 6.65823 6.21946 7.16338 6.21946C7.55196 6.21946 7.88225 6.18259 8.15425 6.10885C8.42625 6.02944 8.6594 5.95002 8.85369 5.87061L8.99941 6.77253Z" fill="#454545"/>
<path d="M16.2577 1.13126L16.0051 2.03318H14.0039L12.6342 7.02779H11.4102L12.7799 2.03318H10.7787L11.0216 1.13126H16.2577Z" fill="#454545"/>
<path d="M18.978 1.0717C19.7876 1.0717 20.406 1.21067 20.8335 1.48862C21.2674 1.76657 21.4844 2.16365 21.4844 2.67984C21.4844 3.08826 21.3937 3.43712 21.2123 3.72641C21.0375 4.01004 20.7914 4.24261 20.4741 4.42413C20.1632 4.60564 19.7876 4.73895 19.3472 4.82404C18.9133 4.90345 18.434 4.94316 17.9094 4.94316H17.3849L16.8117 7.02779H15.5877L17.1711 1.21634C17.482 1.15962 17.7929 1.12275 18.1037 1.10573C18.4146 1.08304 18.706 1.0717 18.978 1.0717ZM18.8615 1.97362C18.7384 1.97362 18.6218 1.97645 18.5117 1.98213C18.4016 1.9878 18.2915 1.99631 18.1814 2.00765L17.6277 4.04123H18.1232C18.3952 4.04123 18.6575 4.02138 18.91 3.98167C19.1626 3.94197 19.386 3.87673 19.5803 3.78597C19.7746 3.68954 19.93 3.56191 20.0466 3.40308C20.1632 3.23858 20.2215 3.03153 20.2215 2.78195C20.2215 2.49265 20.0984 2.2856 19.8523 2.16081C19.6127 2.03602 19.2824 1.97362 18.8615 1.97362Z" fill="#454545"/>
<path d="M25.6175 1.92257C25.2484 1.92257 24.9116 2.00482 24.6072 2.16932C24.3093 2.32815 24.0535 2.53803 23.8398 2.79896C23.6261 3.0599 23.4577 3.3577 23.3347 3.69238C23.2181 4.02138 23.1598 4.35606 23.1598 4.6964C23.1598 5.16155 23.2731 5.53309 23.4998 5.81104C23.7265 6.089 24.0891 6.22797 24.5878 6.22797C24.957 6.22797 25.2937 6.14856 25.5981 5.98973C25.9025 5.82523 26.1616 5.61251 26.3753 5.35157C26.589 5.09064 26.7541 4.79567 26.8707 4.46667C26.9938 4.13199 27.0553 3.79448 27.0553 3.45413C27.0553 2.98899 26.9387 2.61744 26.7056 2.33949C26.4789 2.06154 26.1162 1.92257 25.6175 1.92257ZM24.4615 7.15542C24.0859 7.15542 23.7394 7.10437 23.4221 7.00226C23.1112 6.89449 22.8392 6.74133 22.6061 6.54279C22.3794 6.34426 22.2013 6.0975 22.0718 5.80254C21.9487 5.50757 21.8872 5.17006 21.8872 4.79C21.8872 4.3362 21.9714 3.8824 22.1398 3.42861C22.3082 2.97481 22.5543 2.56923 22.8781 2.21186C23.2084 1.84882 23.6131 1.55669 24.0924 1.33547C24.5716 1.10857 25.1221 0.995117 25.7438 0.995117C26.1195 0.995117 26.4659 1.04901 26.7833 1.15678C27.1006 1.25889 27.3726 1.40921 27.5993 1.60774C27.826 1.80628 28.0008 2.05303 28.1239 2.348C28.2534 2.64297 28.3182 2.98048 28.3182 3.36054C28.3182 3.81434 28.234 4.26813 28.0656 4.72193C27.8972 5.17573 27.6511 5.58415 27.3273 5.94718C27.0035 6.30455 26.5987 6.59668 26.113 6.82358C25.6337 7.04481 25.0832 7.15542 24.4615 7.15542Z" fill="#454545"/>
<path d="M28.6794 7.02779L30.292 1.13126H31.5063L30.4183 5.0793C30.7097 4.77866 31.0335 4.45249 31.3897 4.1008C31.7524 3.74343 32.1216 3.3889 32.4972 3.03721C32.8728 2.67984 33.2452 2.33666 33.6143 2.00765C33.99 1.67865 34.3397 1.38652 34.6635 1.13126H35.6835L34.0612 7.02779H32.8566L34.0126 2.80747C33.6629 3.11946 33.297 3.45413 32.9149 3.8115C32.5393 4.16319 32.1637 4.52339 31.788 4.8921C31.4189 5.26082 31.0595 5.62953 30.7097 5.99824C30.36 6.36127 30.0362 6.70446 29.7383 7.02779H28.6794Z" fill="#454545"/>
<path d="M38.7129 1.13126C38.7712 1.32979 38.836 1.58789 38.9072 1.90555C38.9849 2.21753 39.0594 2.55221 39.1306 2.90958C39.2083 3.26694 39.2828 3.62714 39.3541 3.99018C39.4318 4.35322 39.4998 4.68222 39.5581 4.97719C39.7783 4.67655 40.0211 4.34755 40.2866 3.99018C40.5586 3.63282 40.8274 3.27829 41.0929 2.92659C41.3649 2.5749 41.624 2.24306 41.8701 1.93107C42.1227 1.61342 42.3396 1.34681 42.521 1.13126H43.677C43.6252 1.56236 43.5636 2.02183 43.4924 2.50967C43.4212 2.9975 43.337 3.49668 43.2398 4.0072C43.1492 4.51772 43.052 5.03108 42.9484 5.54728C42.8448 6.0578 42.7412 6.5513 42.6375 7.02779H41.4232C41.5916 6.34142 41.7535 5.63803 41.909 4.91763C42.0644 4.19155 42.2069 3.47399 42.3364 2.76493C42.2263 2.90107 42.1 3.06557 41.9575 3.25843C41.815 3.4513 41.6629 3.65551 41.5009 3.87106C41.339 4.08094 41.1739 4.29933 41.0055 4.52623C40.8371 4.75313 40.672 4.97436 40.5101 5.18991C40.3546 5.39979 40.2089 5.59549 40.0729 5.77701C39.9369 5.95853 39.8204 6.11452 39.7232 6.24499H38.7809C38.7485 6.0578 38.7032 5.81104 38.6449 5.50473C38.5866 5.19842 38.5219 4.87792 38.4506 4.54325C38.3794 4.2029 38.3081 3.8739 38.2369 3.55624C38.1721 3.23291 38.1138 2.9663 38.062 2.75642C37.7965 3.46548 37.5472 4.18588 37.314 4.91763C37.0874 5.64371 36.8704 6.34709 36.6632 7.02779H35.4586C35.614 6.53996 35.7791 6.03511 35.954 5.51324C36.1289 4.99137 36.307 4.47518 36.4883 3.96466C36.6761 3.44846 36.8607 2.94928 37.042 2.46712C37.2234 1.98496 37.3982 1.53967 37.5666 1.13126H38.7129Z" fill="#454545"/>
<path d="M45.8395 6.12587H46.6264C46.989 5.8309 47.2967 5.49622 47.5492 5.12184C47.8083 4.74178 48.0285 4.3362 48.2098 3.90509C48.3976 3.46831 48.5563 3.01735 48.6858 2.55221C48.8218 2.0814 48.9481 1.60774 49.0647 1.13126H53.1253L51.7556 6.12587H52.7562L52.0762 8.6019H50.9104L51.3476 7.02779H46.7527L46.3252 8.6019H45.1595L45.8395 6.12587ZM49.9973 2.0502C49.9001 2.41891 49.7933 2.79045 49.6767 3.16484C49.5666 3.53355 49.4338 3.89375 49.2784 4.24544C49.1295 4.59146 48.9546 4.92614 48.7538 5.24947C48.5596 5.56713 48.3296 5.85926 48.0641 6.12587H50.551L51.6682 2.0502H49.9973Z" fill="#454545"/>
<path d="M57.0509 2.0502C56.8631 2.75926 56.6655 3.41443 56.4583 4.01571C56.2575 4.61132 56.0179 5.13602 55.7394 5.58982C55.6229 5.77134 55.4836 5.95002 55.3217 6.12587C55.1663 6.30171 54.9817 6.46054 54.768 6.60236C54.5607 6.74417 54.3179 6.86329 54.0394 6.95972C53.7674 7.05048 53.4533 7.1072 53.0971 7.12989L52.9805 6.19394C53.4274 6.15423 53.8063 6.01525 54.1171 5.77701C54.428 5.53309 54.7 5.19842 54.9331 4.77298C55.1663 4.34188 55.3703 3.82284 55.5451 3.21589C55.7265 2.60326 55.911 1.90838 56.0989 1.13126H60.1692L58.5663 7.02779H57.3423L58.7023 2.0502H57.0509Z" fill="#454545"/>
<path d="M64.9174 2.01616C64.8462 2.00482 64.7491 1.99631 64.626 1.99064C64.503 1.98496 64.3605 1.98213 64.1986 1.98213C63.9654 1.98213 63.7388 2.00198 63.5186 2.04169C63.2984 2.07572 63.1008 2.13812 62.926 2.22888C62.7576 2.31964 62.6184 2.44443 62.5083 2.60326C62.4046 2.75642 62.3528 2.95212 62.3528 3.19036C62.3528 3.4513 62.4532 3.64132 62.654 3.76045C62.8547 3.8739 63.1721 3.93062 63.606 3.93062H64.3929L64.9174 2.01616ZM61.0705 3.30949C61.0705 2.91241 61.1612 2.57206 61.3425 2.28844C61.5303 2.00482 61.7797 1.77225 62.0905 1.59073C62.4014 1.40921 62.7576 1.27874 63.1591 1.19933C63.5671 1.11424 63.9913 1.0717 64.4317 1.0717C64.7814 1.0717 65.1214 1.08588 65.4517 1.11424C65.782 1.1426 66.0832 1.18515 66.3552 1.24187L64.7717 7.02779H63.5477L64.15 4.81553H63.6837C63.5866 4.81553 63.4862 4.81553 63.3826 4.81553C63.2854 4.80985 63.1721 4.80135 63.0426 4.79C62.9001 4.92614 62.7446 5.0793 62.5763 5.24947C62.4144 5.41964 62.246 5.604 62.0711 5.80254C61.8963 5.9954 61.7182 6.19677 61.5368 6.40665C61.362 6.61654 61.1936 6.82358 61.0317 7.02779H59.7202C59.8951 6.80089 60.0797 6.57116 60.2739 6.33858C60.4747 6.10601 60.6755 5.88195 60.8762 5.6664C61.077 5.45084 61.2681 5.24947 61.4494 5.06228C61.6307 4.86941 61.7959 4.70491 61.9448 4.56877C61.6534 4.42129 61.4332 4.25112 61.2842 4.05825C61.1418 3.86539 61.0705 3.6158 61.0705 3.30949Z" fill="#454545"/>
<path d="M69.2984 7.02779H67.9287C68.1748 6.73849 68.4371 6.4492 68.7156 6.1599C68.994 5.86493 69.279 5.58131 69.5704 5.30903C69.8683 5.03108 70.1727 4.76731 70.4836 4.51772C70.7944 4.26813 71.1021 4.04123 71.4065 3.83702L69.6093 1.13126H71.0179L72.5139 3.63282L73.1939 1.13126H74.3888L73.6991 3.63282C74.2301 3.20171 74.7385 2.77911 75.2242 2.36502C75.7164 1.95093 76.1892 1.53967 76.6425 1.13126H78.1289C77.5395 1.64745 76.9534 2.14379 76.3705 2.62028C75.7942 3.09677 75.2307 3.55624 74.6802 3.99869C75.0688 4.41278 75.425 4.8836 75.7488 5.41114C76.0726 5.93868 76.3446 6.47756 76.5648 7.02779H75.2145C74.9943 6.49458 74.7385 6.00107 74.4471 5.54728C74.1621 5.09348 73.8545 4.67655 73.5242 4.2965L72.7665 7.02779H71.5813L72.3293 4.28799C71.7724 4.6964 71.2478 5.12184 70.7556 5.56429C70.2699 6.00675 69.7841 6.49458 69.2984 7.02779Z" fill="#454545"/>
<path d="M77.5457 7.02779L79.1583 1.13126H80.3726L79.2846 5.0793C79.576 4.77866 79.8998 4.45249 80.256 4.1008C80.6187 3.74343 80.9878 3.3889 81.3635 3.03721C81.7391 2.67984 82.1115 2.33666 82.4806 2.00765C82.8562 1.67865 83.206 1.38652 83.5298 1.13126H84.5498L82.9275 7.02779H81.7229L82.8789 2.80747C82.5292 3.11946 82.1633 3.45413 81.7812 3.8115C81.4056 4.16319 81.0299 4.52339 80.6543 4.8921C80.2852 5.26082 79.9257 5.62953 79.576 5.99824C79.2263 6.36127 78.9025 6.70446 78.6046 7.02779H77.5457Z" fill="#454545"/>
<path d="M86.0249 3.50519H86.7923C86.9866 3.50519 87.1809 3.48817 87.3752 3.45413C87.5695 3.41443 87.7443 3.35486 87.8997 3.27545C88.0617 3.19604 88.1912 3.09393 88.2883 2.96914C88.392 2.83867 88.4438 2.68268 88.4438 2.50116C88.4438 2.31964 88.3661 2.17783 88.2106 2.07572C88.0552 1.97362 87.8188 1.92257 87.5015 1.92257C87.1906 1.92257 86.8959 1.96227 86.6175 2.04169C86.3454 2.11543 86.1026 2.20052 85.8889 2.29695L85.7237 1.41204C85.9569 1.29859 86.2515 1.20216 86.6077 1.12275C86.9639 1.04333 87.3396 1.00363 87.7346 1.00363C88.4081 1.00363 88.9036 1.13126 89.2209 1.38652C89.5447 1.64178 89.7066 1.96511 89.7066 2.35651C89.7066 2.73089 89.5804 3.05139 89.3278 3.31799C89.0752 3.57893 88.7449 3.77179 88.3369 3.89659C88.6607 4.02705 88.8971 4.19439 89.0461 4.3986C89.195 4.60281 89.2695 4.83822 89.2695 5.10482C89.2695 5.38845 89.2015 5.65505 89.0655 5.90464C88.936 6.15423 88.7417 6.37262 88.4826 6.55981C88.2236 6.74133 87.8998 6.88598 87.5112 6.99376C87.1291 7.10153 86.6822 7.15542 86.1706 7.15542C85.6849 7.15542 85.2639 7.1072 84.9077 7.01077C84.558 6.90867 84.2795 6.80373 84.0723 6.69595L84.6357 5.84508C84.8365 5.94151 85.0696 6.02944 85.3351 6.10885C85.6007 6.18826 85.9083 6.22797 86.258 6.22797C86.8085 6.22797 87.2359 6.13438 87.5403 5.94718C87.8512 5.75432 88.0066 5.49055 88.0066 5.15587C88.0066 4.8836 87.8868 4.6879 87.6472 4.56877C87.4076 4.44965 87.0837 4.39009 86.6757 4.39009H85.7723L86.0249 3.50519Z" fill="#454545"/>
<path d="M95.5688 1.13126H96.7929L95.1803 7.02779H93.9562L94.6751 4.40711H91.9162L91.1973 7.02779H89.9733L91.5859 1.13126H92.8099L92.1591 3.49668H94.918L95.5688 1.13126Z" fill="#454545"/>
<path d="M96.7374 7.02779L98.35 1.13126H99.5643L98.4763 5.0793C98.7677 4.77866 99.0915 4.45249 99.4477 4.1008C99.8104 3.74343 100.18 3.3889 100.555 3.03721C100.931 2.67984 101.303 2.33666 101.672 2.00765C102.048 1.67865 102.398 1.38652 102.721 1.13126H103.741L102.119 7.02779H100.915L102.071 2.80747C101.721 3.11946 101.355 3.45413 100.973 3.8115C100.597 4.16319 100.222 4.52339 99.846 4.8921C99.4769 5.26082 99.1174 5.62953 98.7677 5.99824C98.418 6.36127 98.0942 6.70446 97.7963 7.02779H96.7374Z" fill="#454545"/>
<path d="M168.649 11.6445H154.354L153.436 14.6872H167.731L168.649 11.6445Z" fill="#454545"/>
<path d="M167.638 16.7163H152.866L151.918 20.2661H166.69L167.638 16.7163Z" fill="#454545"/>
<path d="M166.114 22.2939H151.819L150.901 25.3367H165.196L166.114 22.2939Z" fill="#454545"/>
</svg>
