<svg width="131" height="42" viewBox="0 0 131 42" fill="none" xmlns="http://www.w3.org/2000/svg">
<g clip-path="url(#clip0_2773_10876)">
<path d="M0 0.224365V32.0936H3.3639V3.50314H10.435V0.224365H0Z" fill="#DA2F49"/>
<path d="M14.4989 0.223633H12.4668V32.0928H15.8307V25.7614C22.1603 25.083 27.062 19.6137 27.062 13.0137C27.062 5.96151 21.4464 0.223633 14.4989 0.223633ZM15.8307 22.4402V3.58721C20.5264 3.99707 23.7119 8.23686 23.7119 13.0137C23.7119 17.7906 20.4303 22.1575 15.8307 22.4402Z" fill="#DA2F49"/>
<path d="M36.1793 0.223633H31.0029L27.4604 32.0928H30.7283L31.0852 28.7292H36.0419L36.4399 32.0928H39.7077L36.1793 0.223633ZM31.4834 25.4504L33.5704 4.05358L35.6849 25.4504H31.4834Z" fill="#DA2F49"/>
<path d="M50.4172 0.223633V19.5713H45.5566V0.223633H42.1929V32.0928H45.5566V22.85H50.4172V32.0928H53.781V0.223633H50.4172Z" fill="#DA2F49"/>
<path d="M64.9716 0.223633H59.7953L56.2529 32.0928H59.5208L59.8776 28.7292H64.8345L65.2325 32.0928H68.5139L64.9716 0.223633ZM60.276 25.4504L62.363 4.05358L64.4773 25.4504H60.276Z" fill="#DA2F49"/>
<path d="M68.418 0.223633V3.50241H73.3745V25.719C74.1845 24.4753 75.3792 23.486 76.7383 22.737V3.50241H81.6951V0.223633H68.418Z" fill="#DA2F49"/>
<path d="M91.6905 27.599C91.6905 25.4649 90.7294 23.8255 89.0544 23.0341C89.2326 22.9634 89.4388 22.921 89.6446 22.9069C89.7684 22.9069 89.8919 22.9069 90.0018 22.8928L89.9878 22.5819H89.8643C89.782 22.5819 89.6997 22.5819 89.6174 22.596C89.5898 22.596 89.5622 22.596 89.5211 22.596C89.1091 22.596 88.6835 22.6101 88.2991 22.7232C86.7615 22.1862 85.0589 22.1155 83.6035 22.1155C79.0862 22.1155 72.825 25.041 72.825 30.5103C72.825 32.503 73.9511 33.7325 75.7772 33.7325C79.2372 33.7325 81.1321 31.8105 81.1321 28.3339C81.1321 28.2067 80.981 25.8324 80.6925 25.5215L80.5827 25.4084L80.4728 25.5215C80.3769 25.6204 80.3629 25.7758 80.3629 25.903C80.2119 28.7578 78.8253 32.9976 75.6673 32.9976C74.0885 32.9976 73.5391 31.6833 73.5391 30.4538C73.5391 27.5283 75.4203 25.6911 76.9991 24.6735C78.894 23.4439 81.4066 22.7091 83.6995 22.7091C85.0725 22.7091 86.1709 22.8786 87.0221 23.2461C84.4411 24.7442 82.5462 28.235 81.393 30.9484C80.816 32.3193 80.1846 33.7891 79.4706 35.2165C78.5919 37.0256 76.5324 41.2651 73.4979 41.2651C72.99 41.2651 71.2326 40.8979 71.1499 40.4881C71.1639 40.474 71.1775 40.474 71.1911 40.4598C71.2051 40.4598 71.2187 40.4457 71.2326 40.4457C72.4546 40.0359 73.1683 39.2303 73.1683 38.2266C73.1683 37.3504 72.5093 36.7005 71.6031 36.7005C70.5046 36.7005 69.6123 37.6191 69.6123 38.7498C69.6123 40.7281 71.6031 41.9154 73.5255 41.9154C80.1023 41.9154 82.45 36.757 83.7546 32.2627C84.5646 29.4786 85.8824 25.6063 87.8872 23.7407C88.7934 24.4898 89.2326 25.6487 89.2326 27.288C89.2326 29.097 88.7934 30.2842 87.7773 31.2593C87.283 31.1321 86.7751 31.0615 86.3767 31.0615C86.0335 31.0615 84.9354 31.118 84.9354 31.8105C84.9354 32.3193 85.512 32.4889 85.9923 32.4889C86.5142 32.4889 87.1319 32.3334 87.5715 32.178C87.846 32.5313 87.9147 33.0542 87.9147 33.4499C87.9147 34.5523 87.5164 35.9655 87.1731 36.9547C86.2396 39.7672 85.0449 41.251 83.7131 41.251C82.9718 41.251 82.601 40.8411 82.601 40.0076C82.601 38.3258 83.727 36.022 85.2375 35.485L85.1548 35.1741C83.1504 35.5557 81.9009 37.9442 81.9009 39.9508C81.9009 41.2937 82.6286 42.0001 84.0151 42.0001C85.7318 42.0001 87.3517 41.1945 88.5601 39.7248C89.6857 38.3541 90.345 36.5589 90.345 34.8066C90.345 33.4075 89.8096 32.3193 88.7798 31.6551C90.2351 30.9484 91.6905 29.521 91.6905 27.599ZM86.1845 32.0084C85.924 32.0084 85.6355 31.9236 85.6219 31.8529C85.6219 31.754 85.91 31.6692 86.2532 31.6692C86.5693 31.6692 86.8299 31.7116 87.0496 31.7964C86.7615 31.9094 86.4182 32.0084 86.1845 32.0084Z" fill="black"/>
<path d="M130.89 23.0198C130.561 21.0412 129.737 19.3312 128.968 17.932C128.034 16.2079 126.895 14.6674 125.892 13.3389C126.73 12.1659 128.117 11.6289 129.682 11.8409C129.764 11.8691 129.833 11.8691 129.888 11.8832L130.849 12.1235L130.698 11.1342C130.41 9.49482 128.886 8.06744 127.21 7.88373C126.387 7.78477 125.618 7.92612 124.876 8.30771C124.959 8.09572 125.014 7.86957 125.082 7.62934C125.618 5.5377 125.508 3.53085 125.426 2.06106C125.426 2.06106 125.398 1.8632 125.357 1.6936L125.151 0.972836L124.505 1.22723C123.188 1.72187 121.485 2.44263 119.933 3.6439C119.59 3.89829 119.288 4.15268 119.027 4.40707C119.082 3.03621 118.547 1.80667 117.503 0.930441C116.611 0.181408 115.499 -0.11538 114.194 0.0400792L113.206 0.252069L113.727 1.15656C113.768 1.22723 113.81 1.31202 113.892 1.38268C114.785 2.37197 114.881 4.11028 114.139 5.48114C113.576 5.33983 113 5.19851 112.409 5.05716C109.869 4.47774 107.906 4.26575 106.025 4.33643C104.816 4.37883 103.018 4.56254 101.412 5.63662C99.0636 7.16296 97.0041 8.97192 95.2878 11.007C93.942 12.604 93.0497 14.088 92.4455 15.6567C91.7179 17.5646 91.8138 18.7941 91.6903 21.1119C91.6356 22.186 91.9377 22.8361 91.9377 23.2177C92.0064 21.2532 92.7201 18.8507 93.7226 16.1796C94.2717 14.7522 95.0956 13.4096 96.3312 11.9539C97.9515 10.0178 99.9011 8.29355 102.139 6.83789C103.169 6.15952 104.377 5.82033 106.066 5.76381C107.823 5.69314 109.691 5.90513 112.121 6.44218C112.712 6.5835 113.329 6.72485 113.975 6.90857C114.496 7.04988 114.922 6.88029 115.21 6.41391C116.144 4.90173 116.281 2.99381 115.622 1.49575C116.007 1.59467 116.336 1.76426 116.652 2.01865C117.613 2.82422 117.915 4.06788 117.476 5.39635C117.366 5.70729 117.297 6.0606 117.256 6.45631C117.229 6.71069 117.284 6.90857 117.338 7.09228C117.352 7.12056 117.352 7.16296 117.366 7.1912L117.668 8.30771L118.862 7.09228L118.931 6.88029C119.233 6.0182 119.672 5.60834 120.771 4.77453C121.691 4.08204 122.789 3.46019 124.149 2.89488C124.204 4.59082 124.08 5.98992 123.751 7.26187C123.709 7.40319 123.682 7.51626 123.668 7.61518C123.558 8.02504 123.531 8.16636 123.188 8.67514C122.776 9.29699 122.57 10.046 122.638 10.7951L122.666 11.1201L123.064 10.9788C123.6 10.8092 124.121 10.5265 124.698 10.0743C125.426 9.50898 126.263 9.24043 127.073 9.32523L127.169 9.33939C127.814 9.45243 128.433 9.83401 128.858 10.3852H128.803C127.197 10.3852 125.563 11.3038 124.602 12.8019C124.451 13.0563 124.259 13.5509 124.712 14.1162C125.714 15.4447 126.867 17.0276 127.773 18.6669C128.487 19.9813 129.256 21.55 129.531 23.3025C129.696 24.2917 129.572 25.2386 129.407 26.129C128.927 28.7153 128.158 31.132 127.101 33.2943C126.84 33.8454 126.771 34.0998 126.675 34.5238C126.4 35.8099 126.249 36.3047 125.288 37.9865C125.206 38.0994 125.124 38.2265 125.027 38.3818C124.41 39.3008 123.476 40.6716 122.83 40.6716C122.638 40.6716 122.625 40.3888 122.625 40.3323C122.625 39.9224 122.776 39.555 122.94 39.1733C123.105 38.7776 123.284 38.3677 123.284 37.8873C123.284 37.2656 123.05 36.5165 122.679 35.9371C123.449 35.7675 123.874 34.9902 124.162 34.4673C124.217 34.3825 124.272 34.2694 124.327 34.1705C124.41 34.5097 124.849 34.6793 125.165 34.6793C125.645 34.6793 125.975 34.2977 125.975 33.7465C125.975 33.2801 125.604 32.9127 125.124 32.9127C124.354 32.9127 123.998 33.5487 123.654 34.1564C123.284 34.7923 122.94 35.4 122.144 35.4C122.076 35.4 121.966 35.3435 121.842 35.3011C121.608 35.2022 121.293 35.0608 120.908 35.0608C120.785 35.0608 120.524 35.0891 120.318 35.188L125.618 24.4755L123.064 24.6168L120.043 30.708C119.837 31.1037 119.137 32.0223 118.753 32.517L118.615 32.7007C118.217 33.2519 117.819 33.8031 117.421 34.3401C116.638 35.4142 115.828 36.5165 115.087 37.619L115.073 37.6331C115.073 37.6331 115.059 37.6472 115.059 37.6613C115.018 37.7178 114.977 37.7602 114.963 37.7884C114.881 37.9155 114.798 38.0429 114.73 38.1559C114.579 38.3963 114.428 38.6505 114.249 38.8909C113.439 39.9789 112.093 41.2791 110.281 41.2791C109.581 41.2791 109.444 40.6857 109.444 40.1911C109.444 38.4669 111.778 33.8454 113.645 33.5769C113.617 33.5911 113.604 33.6052 113.576 33.6335C113.329 33.8454 113.178 34.1705 113.178 34.4955C113.178 35.075 113.631 35.5272 114.208 35.5272C114.881 35.5272 115.361 35.0326 115.361 34.3118C115.361 33.3791 114.675 32.9127 113.315 32.9127C110.803 32.9127 107.947 34.8347 107.247 37.4915C107.164 37.5625 107.109 37.6472 107.068 37.7178L107.041 37.7602C106.464 38.6505 104.721 41.3497 103.498 41.3497C103.443 41.3497 103.416 41.3497 103.416 41.2226C103.416 40.9257 103.636 40.4453 103.773 40.1346L107.288 32.9127L104.665 33.2378L104.446 33.6617C104.404 33.5769 104.35 33.4921 104.281 33.4215C103.869 32.9692 103.073 32.9268 102.839 32.9268C100.011 32.9268 97.4708 35.0184 96.7295 37.6754C96.5921 37.8308 96.4274 38.0853 96.1526 38.4811C95.4525 39.5126 94.2992 41.2368 93.3242 41.2368C93.2831 41.2368 93.1732 41.2368 93.1732 40.9685C93.1732 40.177 93.9696 38.5517 94.2169 38.0712L100.903 24.4755L98.3495 24.6592L95.2603 30.8069C95.1779 30.9624 94.7384 31.5135 94.3815 31.9516C94.1342 32.2626 93.9148 32.5452 93.8185 32.6724C92.4044 34.4955 91.2648 36.0925 90.3449 37.5484C90.2762 37.6472 90.1938 37.8025 90.1938 37.9723C90.1938 38.1418 90.3037 38.2548 90.4684 38.2548C90.6058 38.2548 90.7017 38.1559 90.7569 38.0853C90.7705 38.0712 90.7841 38.0571 90.7841 38.0571L90.798 38.0429C91.045 37.7037 91.2923 37.3503 91.5257 37.0111C91.6631 36.7992 91.8002 36.6012 91.9513 36.3894C92.5007 35.612 93.0361 34.863 93.5716 34.1564C92.569 36.1632 91.2923 38.9474 91.2923 40.417C91.2923 41.7313 92.2258 41.9012 93.0361 41.9012C94.3268 41.9012 95.6035 40.3323 96.4962 39.0462C96.4962 39.0886 96.4962 39.131 96.4962 39.1733C96.4962 40.8269 97.3197 41.8164 98.6927 41.8164C99.7225 41.8164 100.876 40.7987 101.617 39.8801C101.604 40.0072 101.59 40.1346 101.59 40.2617C101.59 41.3638 102.222 41.9435 103.43 41.9435C104.432 41.9435 105.654 40.8975 107.068 38.8344C107.137 40.6151 108.496 41.8588 110.405 41.8588C113.055 41.8588 114.716 39.5691 115.471 38.1842L115.485 38.17C115.512 38.1418 115.54 38.0994 115.567 38.0712C115.883 37.6331 116.199 37.1809 116.501 36.7286C116.982 36.0219 117.489 35.3011 117.997 34.6086L118.025 34.5662C118.107 34.4531 118.19 34.3401 118.272 34.227C117.338 36.1208 115.76 39.3431 114.73 41.4489L114.62 41.6749H117.105L120.043 35.7251C120.222 36.1491 121.114 36.1632 121.224 36.1632C121.403 36.1632 121.554 36.1349 121.705 36.0926C121.815 36.0643 121.924 36.0501 122.02 36.036C122.048 36.0925 122.089 36.2337 122.103 36.2764C122.103 36.3894 121.897 36.7004 121.691 36.9969C121.183 37.7461 120.414 38.8768 120.414 40.2476C120.414 41.2791 120.991 41.8588 121.979 41.8588C123.558 41.8588 125.22 39.2725 126.016 38.0288L126.03 38.0147C126.03 38.0006 126.043 38.0006 126.043 37.9865C127.856 35.0326 127.499 35.6827 128.336 33.9585L128.364 33.902C129.476 31.5842 130.272 29.0403 130.767 26.3693C130.89 25.7615 131 25.0125 131 24.2211C130.986 23.8113 130.959 23.4297 130.89 23.0198ZM102.002 38.3254C101.933 38.4104 101.878 38.4952 101.823 38.5658C100.615 40.3041 99.6402 41.1944 98.9401 41.1944H98.8577C98.5557 41.1944 98.4458 41.0814 98.4458 40.7987C98.4458 39.9366 99.6538 37.5484 100.052 36.7569C101.137 34.5945 102.139 33.4921 103.045 33.4921C103.595 33.4921 103.91 33.8313 103.91 34.3825C103.91 34.5662 103.869 34.7217 103.8 34.8347L102.304 37.8873C102.222 38.0288 102.112 38.1842 102.002 38.3254Z" fill="black"/>
<path d="M96.812 18.0026C97.21 16.2501 98.034 14.5966 99.146 13.1692C100.258 11.7418 101.7 10.5547 103.347 9.79151C104.995 9.02834 106.794 8.68916 108.565 8.73155C110.336 8.75983 112.08 9.12726 113.714 9.76323C111.998 9.4806 110.267 9.31101 108.579 9.40993C107.728 9.45232 106.89 9.5654 106.066 9.76323C105.242 9.93283 104.446 10.2296 103.691 10.5829C102.153 11.2754 100.794 12.3354 99.6403 13.6073C98.4871 14.8934 97.5397 16.3773 96.812 18.0026Z" fill="black"/>
</g>
<defs>
<clipPath id="clip0_2773_10876">
<rect width="131" height="42" fill="white"/>
</clipPath>
</defs>
</svg>
