<svg width="94" height="34" viewBox="0 0 94 34" fill="none" xmlns="http://www.w3.org/2000/svg">
<path d="M92.4368 2.13477V1.13477H91.4368H2.71143H1.71143V2.13477V31.2112V32.2112H2.71143H91.4368H92.4368V31.2112V2.13477Z" stroke="black" stroke-opacity="0.7" stroke-width="2"/>
<path d="M4.78735 29.2586V4.08789H89.4086V29.2586H4.78735Z" stroke="black" stroke-opacity="0.7"/>
<path d="M13.6328 11.5376V16.1667H17.9869V11.5376H20.628V23.689H17.9869V18.6259H13.6328V23.689H10.9917V11.5376H13.6328Z" fill="black" fill-opacity="0.7"/>
<path d="M25.6234 20.5788L24.7669 23.689H22.0544L25.6234 11.5376H29.1211L32.7614 23.689H29.9062L28.9783 20.5788H25.6234ZM28.6214 18.5536L27.9076 15.9497C27.6935 15.2264 27.4793 14.3584 27.3366 13.6352C27.1938 14.3584 26.9797 15.2987 26.7655 15.9497L26.0517 18.5536H28.6214Z" fill="black" fill-opacity="0.7"/>
<path d="M35.4034 13.8521H32.2627V11.5376H41.2566V13.8521H38.0445V23.689H35.4034V13.8521Z" fill="black" fill-opacity="0.7"/>
<path d="M42.6126 11.7546C43.3978 11.6099 44.5399 11.5376 46.1816 11.5376C47.8234 11.5376 48.9655 11.8269 49.7506 12.4779C50.5358 13.0565 50.9641 14.0691 50.9641 15.2987C50.9641 16.456 50.6072 17.541 49.8934 18.1919C48.9655 19.0599 47.6806 19.4938 46.1103 19.4938C45.7534 19.4938 45.4678 19.4938 45.1823 19.4215V23.7613H42.5413V11.7546H42.6126ZM45.2537 17.2516C45.4678 17.324 45.7534 17.324 46.1103 17.324C47.5379 17.324 48.3944 16.6007 48.3944 15.3711C48.3944 14.2861 47.6806 13.5628 46.3244 13.5628C45.8247 13.5628 45.4678 13.6352 45.2537 13.6352V17.2516Z" fill="black" fill-opacity="0.7"/>
<path d="M54.4604 11.5372L56.1735 15.8769C56.5304 16.7449 56.7446 17.4682 57.0301 18.1915H57.1015C57.2442 17.6852 57.4584 16.8896 57.7439 15.8046L59.0287 11.4648H61.8126L59.5998 17.4682C58.886 19.3488 58.1722 21.157 57.3156 22.3143C56.5304 23.3269 55.6025 23.9055 54.2463 23.9055C53.6752 23.9055 53.3183 23.8332 52.9614 23.6885L53.1756 21.5187C53.3897 21.591 53.6752 21.591 54.0321 21.591C54.8173 21.591 55.3884 21.0123 55.6025 20.506C55.6739 20.2891 55.6025 20.1444 55.5311 19.9274L51.6052 11.5372H54.4604Z" fill="black" fill-opacity="0.7"/>
<path d="M71.2358 11.5376V23.689H68.5947V13.7798H65.9537V16.673C65.9537 19.7832 65.5968 22.17 63.8123 23.255C63.2412 23.6166 62.4561 23.8336 61.4568 23.8336L61.0999 21.5914C61.6709 21.5191 62.1706 21.3021 62.4561 20.9404C63.1699 20.2171 63.3126 18.6259 63.3126 16.8177V11.5376H71.2358Z" fill="black" fill-opacity="0.7"/>
<path d="M75.9477 11.5376V15.1541C75.9477 17.107 75.8763 18.9875 75.8049 20.6511H75.8763C76.5187 19.2045 77.3039 17.6133 77.9463 16.3113L80.4446 11.5376H83.1571V23.689H80.7301V20.1448C80.7301 18.2642 80.8015 16.6007 80.9443 15.0094H80.8729C80.3019 16.456 79.5881 18.0473 78.8743 19.3492L76.5187 23.689H73.5208V11.5376H75.9477Z" fill="black" fill-opacity="0.7"/>
<path d="M77.1609 7.05296H76.1616V6.32959H78.8738V7.05296H77.946V10.0188H77.1609V7.05296Z" fill="black" fill-opacity="0.7"/>
<path d="M82.371 8.64438C82.371 8.21036 82.371 7.63166 82.371 7.1253C82.2283 7.63166 82.0855 8.13802 81.9428 8.57205L81.5145 10.0188H80.8722L80.5153 8.57205C80.3725 8.13802 80.3012 7.63166 80.2298 7.1253C80.2298 7.63166 80.1584 8.21036 80.1584 8.64438L80.087 10.0188H79.3733L79.5874 6.32959H80.658L81.0149 7.55932C81.1577 7.99335 81.229 8.42737 81.3004 8.8614C81.3718 8.42737 81.5145 7.92101 81.6573 7.55932L82.0141 6.32959H83.0848L83.2989 10.0188H82.5138L82.371 8.64438Z" fill="black" fill-opacity="0.7"/>
</svg>
