<svg width="109" height="36" viewBox="0 0 109 36" fill="none" xmlns="http://www.w3.org/2000/svg">
<g clip-path="url(#clip0_2692_10961)">
<path d="M0.100098 1.08252V27.0332H2.8965V3.75238H8.77467V1.08252H0.100098Z" fill="#808080"/>
<path d="M12.1531 1.08203H10.4639V27.0327H13.2603V21.8771C18.5221 21.3247 22.5968 16.8711 22.5968 11.4968C22.5968 5.7543 17.9286 1.08203 12.1531 1.08203ZM13.2603 19.1727V3.82094C17.1638 4.15468 19.8119 7.60709 19.8119 11.4968C19.8119 15.3865 17.0839 18.9425 13.2603 19.1727Z" fill="#808080"/>
<path d="M30.176 1.08203H25.8728L22.928 27.0327H25.6445L25.9413 24.2937H30.0617L30.3926 27.0327H33.1091L30.176 1.08203ZM26.2722 21.6239L28.0072 4.20071L29.7649 21.6239H26.2722Z" fill="#808080"/>
<path d="M42.0119 1.08203V16.8365H37.9713V1.08203H35.175V27.0327H37.9713V19.5064H42.0119V27.0327H44.8082V1.08203H42.0119Z" fill="#808080"/>
<path d="M54.1106 1.08203H49.8076L46.8628 27.0327H49.5793L49.876 24.2937H53.9966L54.3275 27.0327H57.0553L54.1106 1.08203ZM50.2072 21.6239L51.9421 4.20071L53.6997 21.6239H50.2072Z" fill="#808080"/>
<path d="M56.9756 1.08203V3.75189H61.0959V21.8425C61.7693 20.8298 62.7625 20.0243 63.8922 19.4143V3.75189H68.0129V1.08203H56.9756Z" fill="#808080"/>
<path d="M76.322 23.3733C76.322 21.6356 75.5231 20.3007 74.1306 19.6562C74.2788 19.5987 74.4502 19.5642 74.6213 19.5527C74.7242 19.5527 74.8269 19.5527 74.9182 19.5411L74.9066 19.288H74.804C74.7355 19.288 74.6671 19.288 74.5987 19.2995C74.5758 19.2995 74.5528 19.2995 74.5186 19.2995C74.1762 19.2995 73.8224 19.311 73.5028 19.403C72.2246 18.9658 70.8092 18.9082 69.5994 18.9082C65.8441 18.9082 60.6392 21.2904 60.6392 25.744C60.6392 27.3666 61.5753 28.3678 63.0934 28.3678C65.9697 28.3678 67.5449 26.8027 67.5449 23.9718C67.5449 23.8682 67.4193 21.9348 67.1795 21.6816L67.0881 21.5896L66.9968 21.6816C66.9171 21.7622 66.9054 21.8888 66.9054 21.9924C66.7799 24.317 65.6272 27.7694 63.002 27.7694C61.6896 27.7694 61.2328 26.6991 61.2328 25.698C61.2328 23.3158 62.7967 21.8197 64.1092 20.9912C65.6843 19.99 67.7731 19.3915 69.6791 19.3915C70.8205 19.3915 71.7336 19.5296 72.4412 19.8289C70.2956 21.0487 68.7204 23.8912 67.7618 26.1007C67.2821 27.217 66.7573 28.4139 66.1637 29.5762C65.4332 31.0493 63.7212 34.5015 61.1986 34.5015C60.7764 34.5015 59.3155 34.2025 59.2467 33.8688C59.2583 33.8573 59.2697 33.8573 59.281 33.8458C59.2926 33.8458 59.3039 33.8343 59.3155 33.8343C60.3313 33.5005 60.9246 32.8445 60.9246 32.0273C60.9246 31.3138 60.3768 30.7846 59.6234 30.7846C58.7103 30.7846 57.9685 31.5325 57.9685 32.4533C57.9685 34.0642 59.6234 35.031 61.2215 35.031C66.6888 35.031 68.6404 30.8306 69.7249 27.171C70.3983 24.9039 71.4938 21.7507 73.1604 20.2316C73.9137 20.8416 74.2788 21.7852 74.2788 23.1201C74.2788 24.5932 73.9137 25.5599 73.069 26.3539C72.6581 26.2503 72.2359 26.1928 71.9047 26.1928C71.6194 26.1928 70.7065 26.2388 70.7065 26.8027C70.7065 27.217 71.1859 27.3551 71.5852 27.3551C72.019 27.3551 72.5325 27.2285 72.8979 27.1019C73.1261 27.3896 73.1833 27.8154 73.1833 28.1377C73.1833 29.0353 72.8521 30.1861 72.5668 30.9915C71.7908 33.2818 70.7976 34.49 69.6904 34.49C69.0742 34.49 68.766 34.1562 68.766 33.4775C68.766 32.108 69.702 30.2321 70.9577 29.7948L70.8889 29.5416C69.2227 29.8524 68.184 31.7973 68.184 33.4312C68.184 34.5247 68.7889 35.1 69.9416 35.1C71.3686 35.1 72.7152 34.444 73.7197 33.2473C74.6555 32.131 75.2036 30.6693 75.2036 29.2424C75.2036 28.1031 74.7584 27.217 73.9024 26.6761C75.1122 26.1007 76.322 24.9384 76.322 23.3733ZM71.745 26.9638C71.5283 26.9638 71.2885 26.8948 71.2772 26.8372C71.2772 26.7567 71.5167 26.6876 71.8021 26.6876C72.0648 26.6876 72.2814 26.7222 72.4641 26.7912C72.2246 26.8833 71.9392 26.9638 71.745 26.9638Z" fill="#808080"/>
<path d="M108.909 19.6446C108.635 18.0335 107.95 16.641 107.311 15.5017C106.535 14.0977 105.587 12.8434 104.754 11.7616C105.451 10.8064 106.603 10.3691 107.904 10.5417C107.973 10.5648 108.03 10.5648 108.076 10.5763L108.875 10.7719L108.749 9.96635C108.51 8.6314 107.243 7.4691 105.85 7.31951C105.165 7.23893 104.526 7.35403 103.91 7.66475C103.978 7.49213 104.024 7.30798 104.081 7.11236C104.526 5.40917 104.435 3.77503 104.366 2.57819C104.366 2.57819 104.343 2.41708 104.309 2.27898L104.138 1.69207L103.601 1.89921C102.506 2.302 101.09 2.8889 99.8005 3.86708C99.5152 4.07422 99.264 4.28137 99.0474 4.48851C99.093 3.37224 98.6478 2.37104 97.7802 1.65755C97.0384 1.04762 96.114 0.80595 95.0297 0.932538L94.2079 1.10516L94.6414 1.84168C94.6757 1.89921 94.7099 1.96826 94.7786 2.0258C95.5204 2.83136 95.6004 4.24684 94.9839 5.36312C94.5159 5.24805 94.0365 5.13298 93.5459 5.01788C91.4343 4.54606 89.8019 4.37344 88.2384 4.43099C87.2339 4.46552 85.7387 4.61511 84.4034 5.48972C82.4515 6.73259 80.7394 8.20561 79.3127 9.86278C78.194 11.1632 77.4522 12.3715 76.95 13.6489C76.3451 15.2025 76.4248 16.2037 76.3221 18.091C76.2766 18.9656 76.5277 19.495 76.5277 19.8057C76.5849 18.2061 77.1782 16.2497 78.0116 14.0747C78.468 12.9124 79.153 11.8191 80.1801 10.6338C81.527 9.05722 83.1477 7.65322 85.0083 6.4679C85.8643 5.91551 86.8688 5.63931 88.2726 5.59329C89.7335 5.53574 91.2858 5.70836 93.3061 6.14568C93.797 6.26075 94.3106 6.37585 94.8471 6.52545C95.2806 6.64052 95.6346 6.50242 95.8742 6.12265C96.6504 4.89131 96.7644 3.33772 96.2166 2.11787C96.5362 2.19842 96.8102 2.33652 97.0727 2.54366C97.8716 3.19962 98.1227 4.21232 97.7576 5.29407C97.6662 5.54727 97.6091 5.83496 97.5749 6.15718C97.552 6.36433 97.5978 6.52545 97.6433 6.67504C97.6546 6.69807 97.6546 6.73259 97.6662 6.75559L97.9174 7.66475L98.9103 6.67504L98.9674 6.50242C99.2185 5.80044 99.5836 5.46669 100.497 4.78773C101.261 4.22385 102.175 3.71748 103.305 3.25716C103.35 4.63814 103.248 5.77741 102.974 6.81314C102.94 6.92821 102.917 7.02029 102.905 7.10083C102.814 7.43458 102.791 7.54965 102.506 7.96394C102.163 8.47031 101.992 9.08022 102.049 9.69016L102.072 9.95485L102.403 9.83975C102.848 9.70166 103.282 9.47151 103.761 9.10324C104.366 8.64293 105.063 8.42426 105.736 8.4933L105.816 8.50483C106.352 8.59688 106.866 8.9076 107.22 9.35641H107.174C105.839 9.35641 104.48 10.1044 103.681 11.3243C103.556 11.5314 103.396 11.9342 103.773 12.3946C104.606 13.4763 105.564 14.7652 106.318 16.1001C106.911 17.1704 107.551 18.4478 107.779 19.8748C107.916 20.6803 107.813 21.4514 107.676 22.1764C107.277 24.2824 106.637 26.2502 105.759 28.0109C105.542 28.4598 105.485 28.6669 105.405 29.0122C105.176 30.0594 105.051 30.4623 104.252 31.8317C104.184 31.9237 104.115 32.0272 104.035 32.1537C103.522 32.902 102.745 34.0182 102.209 34.0182C102.049 34.0182 102.038 33.7879 102.038 33.7419C102.038 33.4082 102.163 33.1089 102.3 32.7982C102.437 32.4759 102.585 32.1422 102.585 31.751C102.585 31.2447 102.391 30.6347 102.083 30.163C102.723 30.0249 103.076 29.3919 103.316 28.9661C103.362 28.8971 103.407 28.805 103.453 28.7244C103.522 29.0006 103.887 29.1387 104.149 29.1387C104.549 29.1387 104.823 28.828 104.823 28.3792C104.823 27.9994 104.514 27.7002 104.115 27.7002C103.476 27.7002 103.179 28.2181 102.894 28.7129C102.585 29.2308 102.3 29.7256 101.638 29.7256C101.581 29.7256 101.49 29.6796 101.387 29.6451C101.193 29.5645 100.931 29.4494 100.611 29.4494C100.508 29.4494 100.291 29.4725 100.12 29.553L104.526 20.8299L102.403 20.945L99.8919 25.905C99.7208 26.2272 99.1385 26.9752 98.8189 27.378L98.705 27.5276C98.3738 27.9764 98.0429 28.4252 97.7118 28.8625C97.0613 29.7372 96.3877 30.6347 95.7715 31.5325L95.7602 31.544C95.7602 31.544 95.7486 31.5555 95.7486 31.567C95.7144 31.613 95.6802 31.6475 95.6689 31.6705C95.6004 31.774 95.5317 31.8777 95.4749 31.9697C95.3493 32.1655 95.2237 32.3725 95.0753 32.5682C94.4019 33.4542 93.2832 34.5129 91.7767 34.5129C91.1944 34.5129 91.0805 34.0297 91.0805 33.6269C91.0805 32.223 93.0207 28.4598 94.573 28.2411C94.5501 28.2526 94.5388 28.2641 94.5159 28.2871C94.3106 28.4598 94.185 28.7244 94.185 28.9891C94.185 29.4609 94.5617 29.8292 95.041 29.8292C95.6004 29.8292 95.9997 29.4264 95.9997 28.8395C95.9997 28.08 95.429 27.7002 94.299 27.7002C92.2102 27.7002 89.8362 29.2653 89.2542 31.4287C89.1857 31.4865 89.1399 31.5555 89.1057 31.613L89.0831 31.6475C88.6034 32.3725 87.1541 34.5704 86.138 34.5704C86.0925 34.5704 86.0696 34.5704 86.0696 34.4669C86.0696 34.2251 86.2523 33.8339 86.3665 33.581L89.2884 27.7002L87.1083 27.9649L86.9256 28.3102C86.8914 28.2411 86.8459 28.1721 86.7887 28.1145C86.4463 27.7463 85.7842 27.7117 85.5902 27.7117C83.2391 27.7117 81.1274 29.4149 80.5112 31.5785C80.397 31.705 80.2601 31.9122 80.0316 32.2345C79.4496 33.0744 78.4909 34.4784 77.6804 34.4784C77.6462 34.4784 77.5549 34.4784 77.5549 34.2599C77.5549 33.6154 78.2169 32.292 78.4225 31.9007L83.9808 20.8299L81.8579 20.9795L79.2898 25.9855C79.2214 26.1121 78.856 26.5609 78.5593 26.9177C78.3537 27.1709 78.1714 27.401 78.0913 27.5046C76.9157 28.9891 75.9684 30.2895 75.2037 31.475C75.1466 31.5555 75.0781 31.682 75.0781 31.8202C75.0781 31.9582 75.1695 32.0502 75.3063 32.0502C75.4206 32.0502 75.5003 31.9697 75.5462 31.9122C75.5575 31.9007 75.5688 31.8892 75.5688 31.8892L75.5804 31.8777C75.7857 31.6015 75.9913 31.3137 76.1853 31.0375C76.2995 30.865 76.4135 30.7037 76.5391 30.5313C76.9958 29.8983 77.4409 29.2883 77.886 28.7129C77.0526 30.3471 75.9913 32.6142 75.9913 33.8109C75.9913 34.8811 76.7673 35.0194 77.4409 35.0194C78.5138 35.0194 79.5752 33.7419 80.3172 32.6947C80.3172 32.7292 80.3172 32.7637 80.3172 32.7982C80.3172 34.1447 81.0019 34.9504 82.1432 34.9504C82.9993 34.9504 83.9582 34.1217 84.5744 33.3737C84.5631 33.4772 84.5515 33.5809 84.5515 33.6844C84.5515 34.5819 85.0767 35.0539 86.0812 35.0539C86.9143 35.0539 87.9301 34.2022 89.1057 32.5222C89.1628 33.9722 90.2929 34.9849 91.8794 34.9849C94.0824 34.9849 95.4633 33.1204 96.0911 31.9927L96.1024 31.9812C96.1253 31.9582 96.1482 31.9237 96.1711 31.9007C96.4335 31.544 96.696 31.1757 96.9471 30.8075C97.3467 30.232 97.7689 29.6451 98.1911 29.0812L98.214 29.0467C98.2825 28.9546 98.3512 28.8625 98.4196 28.7705C97.6433 30.3125 96.3309 32.9365 95.4749 34.6512L95.3835 34.8351H97.4493L99.8919 29.9903C100.04 30.3356 100.782 30.3471 100.873 30.3471C101.022 30.3471 101.147 30.324 101.273 30.2896C101.364 30.2665 101.456 30.255 101.535 30.2435C101.558 30.2895 101.593 30.4045 101.604 30.4393C101.604 30.5313 101.433 30.7845 101.261 31.026C100.839 31.636 100.2 32.5567 100.2 33.6729C100.2 34.5129 100.679 34.9849 101.501 34.9849C102.814 34.9849 104.195 32.879 104.857 31.8662L104.868 31.8547C104.868 31.8432 104.88 31.8432 104.88 31.8317C106.386 29.4264 106.09 29.9558 106.786 28.5518L106.809 28.5058C107.733 26.6185 108.395 24.547 108.806 22.372C108.909 21.8771 109 21.2672 109 20.6228C108.989 20.2891 108.966 19.9783 108.909 19.6446ZM84.894 32.1077C84.8369 32.177 84.7914 32.246 84.7455 32.3035C83.7413 33.7189 82.9308 34.4439 82.3488 34.4439H82.2804C82.0293 34.4439 81.9379 34.3519 81.9379 34.1217C81.9379 33.4197 82.9421 31.475 83.2733 30.8305C84.1748 29.0697 85.0083 28.1721 85.7616 28.1721C86.2181 28.1721 86.4805 28.4482 86.4805 28.8971C86.4805 29.0467 86.4463 29.1732 86.3891 29.2653L85.1451 31.751C85.0767 31.8662 84.9853 31.9927 84.894 32.1077Z" fill="#808080"/>
<path d="M80.5796 15.5595C80.9105 14.1325 81.5954 12.786 82.5199 11.6237C83.4443 10.4614 84.6428 9.49474 86.0124 8.8733C87.3823 8.25187 88.8774 7.97567 90.3499 8.0102C91.8222 8.03322 93.2718 8.33241 94.6301 8.85028C93.2034 8.62014 91.765 8.48204 90.3612 8.56258C89.6537 8.59711 88.9575 8.68918 88.2725 8.85028C87.5876 8.98837 86.9255 9.23004 86.2977 9.51774C85.0195 10.0817 83.8894 10.9447 82.9308 11.9805C81.9721 13.0277 81.1845 14.236 80.5796 15.5595Z" fill="#808080"/>
</g>
<defs>
<clipPath id="clip0_2692_10961">
<rect width="108.9" height="34.2" fill="white" transform="translate(0.100098 0.899902)"/>
</clipPath>
</defs>
</svg>
