<svg width="81" height="62" viewBox="0 0 81 62" fill="none" xmlns="http://www.w3.org/2000/svg">
<path fill-rule="evenodd" clip-rule="evenodd" d="M80.9892 59.8809V60.3757H65.4929V59.8809H80.9892ZM16.2956 60.3497H0.799316V59.8809H16.2956V60.3497Z" fill="#808080"/>
<path fill-rule="evenodd" clip-rule="evenodd" d="M22.7805 61.7559C23.0409 61.7559 23.3534 61.7299 23.5357 61.6517C23.6139 61.6257 23.6139 61.5996 23.6399 61.5215C23.692 61.3913 23.7441 61.0266 23.7441 60.9746C23.7441 60.9485 23.7441 60.9225 23.718 60.9225C23.692 60.9225 23.666 60.9485 23.666 61.0006C23.6399 61.0787 23.5878 61.1829 23.5357 61.2611C23.3795 61.4434 23.1451 61.4955 22.7805 61.4955C22.2335 61.4955 21.4782 61.0006 21.4782 60.0109C21.4782 59.6202 21.5564 59.2035 21.8689 58.9431C22.0512 58.7868 22.2856 58.6826 22.6502 58.6826C23.0409 58.6826 23.3534 58.7868 23.4836 58.9431C23.5878 59.0473 23.6399 59.2035 23.6399 59.3338C23.6399 59.3858 23.6399 59.4379 23.692 59.4379C23.718 59.4379 23.7441 59.4119 23.7441 59.3338C23.7441 59.2556 23.7441 59.0212 23.7441 58.891C23.7441 58.7347 23.7701 58.7087 23.7701 58.6566C23.7701 58.6306 23.7441 58.6045 23.718 58.6045C23.5878 58.6045 23.4576 58.5524 23.3013 58.5264C23.119 58.5003 22.9628 58.4743 22.7023 58.4743C22.0773 58.4743 21.6866 58.6306 21.4001 58.917C21.0095 59.2817 20.9053 59.7765 20.9053 60.063C20.9053 60.4537 21.0095 60.9225 21.4262 61.2871C21.7387 61.6257 22.2075 61.7559 22.7805 61.7559ZM29.3957 60.6099C29.4217 60.6099 29.4217 60.6099 29.4478 60.636L29.7863 61.5215C29.8124 61.5736 29.7863 61.5996 29.7603 61.6257C29.7082 61.6257 29.7082 61.6257 29.7082 61.6517C29.7082 61.6778 29.7603 61.6778 29.8384 61.6778C30.177 61.6778 30.4635 61.6778 30.6197 61.6778C30.776 61.6778 30.8021 61.6778 30.8021 61.6257C30.8021 61.5996 30.776 61.5996 30.75 61.5996C30.6979 61.5996 30.6458 61.5996 30.5677 61.5736C30.4895 61.5475 30.3593 61.4955 30.203 61.1308C29.9426 60.5058 29.2654 58.8129 29.1873 58.5785C29.1352 58.4743 29.1092 58.4482 29.0831 58.4482C29.031 58.4482 29.005 58.5003 28.979 58.6045L27.9372 61.209C27.8591 61.4173 27.7809 61.5475 27.5726 61.5736C27.5465 61.5736 27.4684 61.5736 27.4424 61.5736C27.4163 61.5736 27.3903 61.5736 27.3903 61.5996C27.3903 61.6257 27.4163 61.6517 27.4684 61.6517C27.6768 61.6517 27.9112 61.6517 27.9632 61.6517C28.0935 61.6517 28.2758 61.6517 28.406 61.6517C28.4581 61.6517 28.4841 61.6517 28.4841 61.5996C28.4841 61.5736 28.4841 61.5736 28.432 61.5736H28.3799C28.2497 61.5736 28.2237 61.5215 28.2237 61.4434C28.2237 61.3913 28.2497 61.2871 28.2758 61.1829L28.5102 60.5839C28.5102 60.5578 28.5362 60.5579 28.5362 60.5579H29.3957V60.6099ZM28.5362 60.4016C28.5102 60.4016 28.5102 60.4016 28.5102 60.3755L28.9008 59.3598C28.9008 59.3338 28.9008 59.3338 28.9269 59.3338L28.9529 59.3598L29.3175 60.3755C29.3175 60.3755 29.3175 60.4016 29.2915 60.4016H28.5362ZM34.7608 60.5058C34.7608 60.8964 34.7608 61.209 34.7347 61.3913C34.7087 61.5215 34.7087 61.5996 34.6045 61.6257C34.5785 61.6257 34.5264 61.6517 34.4482 61.6517C34.3961 61.6517 34.3701 61.6517 34.3701 61.6778C34.3701 61.7038 34.3961 61.7299 34.4482 61.7299C34.6045 61.7299 34.8649 61.7299 34.9691 61.7299C35.0733 61.7299 35.3337 61.7299 35.6202 61.7299C35.6723 61.7299 35.6984 61.7299 35.6984 61.6778C35.6984 61.6517 35.6723 61.6517 35.6202 61.6517C35.5681 61.6517 35.464 61.6517 35.4119 61.6257C35.2816 61.5996 35.2556 61.5215 35.2556 61.3913C35.2296 61.209 35.2296 60.8964 35.2296 60.5058V58.8389C35.2296 58.7868 35.2296 58.7608 35.2556 58.7608C35.2816 58.7608 35.3598 58.7347 35.4119 58.7347C35.516 58.7347 35.6723 58.7608 35.8286 58.891C36.063 59.0994 36.063 59.3858 36.063 59.5161C36.063 59.9328 35.7504 60.1932 35.516 60.1932C35.4379 60.1932 35.4119 60.1932 35.4119 60.2453C35.4119 60.2714 35.4379 60.2714 35.464 60.2714C35.49 60.2714 35.5421 60.2714 35.5421 60.2714C36.1411 60.2714 36.5578 59.8546 36.5578 59.2556C36.5578 59.0473 36.4536 58.8389 36.3495 58.7608C36.2713 58.7087 36.089 58.5264 35.5681 58.5264C35.3858 58.5264 35.1254 58.5264 34.9691 58.5264C34.8649 58.5264 34.6045 58.5264 34.3701 58.5264C34.318 58.5264 34.2659 58.5264 34.2659 58.5524C34.2659 58.5785 34.292 58.5785 34.3441 58.5785C34.3961 58.5785 34.4743 58.5785 34.5003 58.5785C34.6305 58.6045 34.6826 58.6826 34.6826 58.8129C34.6826 58.9431 34.6826 59.0733 34.6826 59.6984V60.5058H34.7608ZM41.0374 60.5058C41.0374 60.8964 41.0374 61.235 41.0114 61.4173C41.0114 61.5475 40.9853 61.5996 40.8811 61.6257C40.8551 61.6257 40.803 61.6517 40.7249 61.6517C40.6728 61.6517 40.6467 61.6517 40.6467 61.6778C40.6467 61.7038 40.6728 61.7299 40.7249 61.7299C40.8811 61.7299 41.1416 61.7299 41.2458 61.7299C41.3499 61.7299 41.6104 61.7299 41.8969 61.7299C41.9489 61.7299 41.975 61.7299 41.975 61.6778C41.975 61.6517 41.9489 61.6517 41.8969 61.6517C41.8448 61.6517 41.7406 61.6517 41.6885 61.6257C41.5583 61.5996 41.5322 61.5475 41.5322 61.4173C41.5062 61.235 41.5062 60.9225 41.5062 60.5058V59.7765C41.5062 59.1514 41.5062 59.0212 41.5062 58.891C41.5062 58.7347 41.5583 58.6826 41.6625 58.6566C41.7146 58.6566 41.7406 58.6566 41.7927 58.6566C41.8448 58.6566 41.8708 58.6566 41.8708 58.6045C41.8708 58.5785 41.8448 58.5785 41.7927 58.5785C41.6364 58.5785 41.402 58.5785 41.2978 58.5785C41.1676 58.5785 40.9072 58.5785 40.7509 58.5785C40.6728 58.5785 40.6467 58.5785 40.6467 58.6045C40.6467 58.6306 40.6728 58.6566 40.7249 58.6566C40.777 58.6566 40.829 58.6566 40.8811 58.6826C40.9853 58.7087 41.0114 58.7868 41.0114 58.917C41.0114 59.0473 41.0114 59.1775 41.0114 59.8026V60.5058H41.0374ZM47.0015 60.5058C47.0015 60.8964 47.0015 61.209 46.9755 61.3913C46.9755 61.5215 46.9494 61.5996 46.8452 61.6257C46.8192 61.6257 46.7671 61.6517 46.689 61.6517C46.6369 61.6517 46.6108 61.6517 46.6108 61.6778C46.6108 61.7038 46.6369 61.7299 46.689 61.7299C46.8452 61.7299 47.1057 61.7299 47.2099 61.7299C47.314 61.7299 47.5745 61.7299 47.861 61.7299C47.9131 61.7299 47.9391 61.7299 47.9391 61.6778C47.9391 61.6517 47.9131 61.6517 47.861 61.6517C47.8089 61.6517 47.7047 61.6517 47.6526 61.6257C47.5224 61.5996 47.4964 61.5215 47.4964 61.3913C47.4703 61.209 47.4703 60.8964 47.4703 60.5058V58.8129H47.9912C48.3558 58.8129 48.46 58.9431 48.486 59.0473V59.0994C48.486 59.1514 48.486 59.1775 48.5381 59.1775C48.5642 59.1775 48.5642 59.1514 48.5642 59.0994C48.5642 58.9952 48.5642 58.7087 48.5642 58.6306C48.5642 58.5785 48.5642 58.5524 48.5381 58.5524C48.5121 58.5524 48.486 58.5524 48.4339 58.5785C48.3819 58.5785 48.2777 58.6045 48.1475 58.6045H46.5067C46.3765 58.6045 46.2202 58.6045 46.09 58.5785C45.9858 58.5785 45.9337 58.5264 45.9077 58.5264C45.8816 58.5264 45.8816 58.5524 45.8556 58.6045C45.8556 58.6306 45.7774 59.0212 45.7774 59.0733C45.7774 59.1254 45.7774 59.1514 45.8035 59.1514C45.8295 59.1514 45.8295 59.1254 45.8556 59.0994C45.8556 59.0733 45.8816 59.0212 45.9337 58.9431C45.9858 58.8389 46.09 58.8389 46.3244 58.8129L46.9494 58.7868V60.5058H47.0015ZM53.799 60.6099C53.8251 60.6099 53.8251 60.6099 53.8511 60.636L54.1897 61.5215C54.2157 61.5736 54.1897 61.5996 54.1637 61.6257C54.1116 61.6257 54.1116 61.6257 54.1116 61.6517C54.1116 61.6778 54.1637 61.6778 54.2418 61.6778C54.5804 61.6778 54.8668 61.6778 55.0231 61.6778C55.1794 61.6778 55.2054 61.6778 55.2054 61.6257C55.2054 61.5996 55.1794 61.5996 55.1533 61.5996C55.1012 61.5996 55.0492 61.5996 54.971 61.5736C54.8929 61.5475 54.7627 61.4955 54.6064 61.1308C54.346 60.5058 53.6688 58.8129 53.5907 58.5785C53.5386 58.4743 53.5126 58.4482 53.4865 58.4482C53.4344 58.4482 53.4084 58.5003 53.3823 58.6045L52.3406 61.209C52.2624 61.4173 52.1843 61.5475 51.9759 61.5736C51.9499 61.5736 51.8718 61.5736 51.8457 61.5736C51.8197 61.5736 51.7936 61.5736 51.7936 61.5996C51.7936 61.6257 51.8197 61.6517 51.8718 61.6517C52.0801 61.6517 52.3145 61.6517 52.3666 61.6517C52.4968 61.6517 52.6791 61.6517 52.8094 61.6517C52.8614 61.6517 52.8875 61.6517 52.8875 61.5996C52.8875 61.5736 52.8875 61.5736 52.8354 61.5736H52.7833C52.6531 61.5736 52.6271 61.5215 52.6271 61.4434C52.6271 61.3913 52.6531 61.2871 52.6791 61.1829L52.9135 60.5839C52.9135 60.5578 52.9396 60.5579 52.9396 60.5579H53.799V60.6099ZM52.9656 60.4016C52.9396 60.4016 52.9396 60.4016 52.9396 60.3755L53.3302 59.3598C53.3302 59.3338 53.3302 59.3338 53.3563 59.3338L53.3823 59.3598L53.7469 60.3755C53.7469 60.3755 53.7469 60.4016 53.7209 60.4016H52.9656ZM59.685 59.7765C59.685 59.1514 59.685 59.0212 59.685 58.891C59.685 58.7347 59.7371 58.6826 59.8413 58.6566C59.8934 58.6566 59.9455 58.6566 59.9975 58.6566C60.0496 58.6566 60.0757 58.6566 60.0757 58.6306C60.0757 58.6045 60.0496 58.6045 59.9975 58.6045C59.8413 58.6045 59.5288 58.6045 59.4246 58.6045C59.3204 58.6045 59.06 58.6045 58.8516 58.6045C58.7995 58.6045 58.7474 58.6045 58.7474 58.6306C58.7474 58.6566 58.7735 58.6566 58.8256 58.6566C58.8776 58.6566 58.9297 58.6566 58.9558 58.6566C59.086 58.6826 59.1381 58.7608 59.1381 58.891C59.1381 59.0212 59.1381 59.1514 59.1381 59.7765V60.5058C59.1381 60.8964 59.1381 61.209 59.112 61.3913C59.086 61.5215 59.086 61.5996 58.9818 61.6257C58.9558 61.6257 58.9037 61.6517 58.8256 61.6517C58.7735 61.6517 58.7474 61.6517 58.7474 61.6778C58.7474 61.7038 58.7735 61.7299 58.8256 61.7299C58.9037 61.7299 59.0079 61.7299 59.112 61.7299C59.2162 61.7299 59.2944 61.7299 59.3464 61.7299C59.5288 61.7299 59.659 61.7299 59.8413 61.7299C60.0236 61.7299 60.2319 61.7299 60.5445 61.7299C60.7528 61.7299 60.7789 61.7038 60.8049 61.6257C60.831 61.4955 60.857 61.1829 60.857 61.1569C60.857 61.1048 60.857 61.0787 60.831 61.0787C60.8049 61.0787 60.7789 61.1048 60.7789 61.1308C60.7789 61.209 60.7268 61.3131 60.6747 61.3913C60.5705 61.4955 60.4143 61.4955 60.1799 61.4955C59.8673 61.4955 59.7371 61.4694 59.685 61.3913C59.6069 61.3131 59.6069 61.0266 59.6069 60.5058V59.7765H59.685Z" fill="#808080"/>
<path fill-rule="evenodd" clip-rule="evenodd" d="M6.13833 55.2189C6.89361 55.2189 7.70097 55.0887 8.40417 54.6459C9.41989 53.9688 9.73242 53.0051 9.73242 52.1717C9.73242 50.8175 9.1334 49.8278 7.38844 48.5516L6.99778 48.2652C5.8258 47.3797 5.48722 46.8588 5.48722 46.2077C5.48722 45.3483 6.13833 44.7492 7.18009 44.7492C8.11768 44.7492 8.50834 45.1659 8.74274 45.4524C9.02922 45.817 9.10736 46.2598 9.10736 46.39C9.10736 46.5723 9.15945 46.6504 9.23758 46.6504C9.34175 46.6504 9.39384 46.5463 9.39384 46.2337C9.39384 45.1139 9.44593 44.7232 9.44593 44.5149C9.44593 44.4107 9.3678 44.3846 9.23758 44.3325C8.87296 44.2284 8.27395 44.0981 7.33636 44.0981C5.357 44.0981 4.0548 45.218 4.0548 46.7807C4.0548 47.9266 4.60172 48.9163 6.16437 50.1403L6.81547 50.6612C7.98746 51.5988 8.22186 52.2499 8.22186 52.927C8.22186 53.6823 7.5968 54.5417 6.32064 54.5417C5.43514 54.5417 4.60172 54.1511 4.28919 53.1093C4.21106 52.8749 4.15897 52.5624 4.15897 52.3801C4.15897 52.2759 4.13293 52.1457 4.02875 52.1457C3.92458 52.1457 3.87249 52.302 3.84644 52.5103C3.8204 52.7447 3.76831 53.6042 3.76831 54.3855C3.76831 54.698 3.8204 54.7761 4.02875 54.8803C4.65381 55.1407 5.30491 55.2189 6.13833 55.2189ZM13.8474 50.4789C13.8474 52.5364 14.3943 53.6042 15.1236 54.2552C16.1653 55.1928 17.5196 55.2449 18.2749 55.2449C19.2125 55.2449 20.2282 55.0887 21.2439 54.2292C22.442 53.2135 22.5982 51.5206 22.5982 49.958V48.4475C22.5982 46.2858 22.5982 45.8952 22.6243 45.4264C22.6503 44.9316 22.7545 44.6972 23.1451 44.619C23.3275 44.593 23.4056 44.5669 23.5618 44.5669C23.7442 44.5669 23.8223 44.5409 23.8223 44.4367C23.8223 44.3325 23.7181 44.3065 23.5358 44.3065C22.9889 44.3065 22.0773 44.3586 21.9211 44.3586C21.895 44.3586 21.0095 44.3065 20.2803 44.3065C20.0719 44.3065 19.9938 44.3325 19.9938 44.4367C19.9938 44.5409 20.0719 44.5669 20.2282 44.5669C20.3845 44.5669 20.6189 44.593 20.7491 44.619C21.2179 44.7232 21.3221 44.9576 21.3481 45.4264C21.3741 45.8691 21.3741 46.2858 21.3741 48.4475V50.2185C21.3741 51.6769 21.3221 52.9531 20.5407 53.7344C19.9678 54.3073 19.2125 54.5157 18.5874 54.5157C18.0926 54.5157 17.4415 54.4636 16.8164 53.9427C16.1132 53.3698 15.6965 52.5103 15.6965 50.4528V48.4735C15.6965 46.3119 15.6965 45.9212 15.7226 45.4524C15.7486 44.9576 15.8528 44.7232 16.2434 44.6451C16.4258 44.619 16.5039 44.593 16.6602 44.593C16.7904 44.593 16.8946 44.5669 16.8946 44.4628C16.8946 44.3586 16.7904 44.3325 16.582 44.3325C16.0611 44.3325 15.1756 44.3846 14.8371 44.3846C14.4204 44.3846 13.5088 44.3325 12.7535 44.3325C12.5452 44.3325 12.441 44.3586 12.441 44.4628C12.441 44.5669 12.5191 44.593 12.6754 44.593C12.8838 44.593 13.1182 44.619 13.2223 44.6451C13.6911 44.7492 13.7953 44.9836 13.8213 45.4524C13.8474 45.8952 13.8474 46.3119 13.8474 48.4735V50.4789ZM28.5884 47.1192H28.6405C28.9009 47.3797 30.4635 49.1767 32.0262 50.7133C33.5107 52.1717 35.3338 54.0469 36.2193 54.9063C36.3756 55.0626 36.5579 55.2189 36.7141 55.2189C36.8444 55.2189 36.8964 55.0887 36.8964 54.7761L37.0527 45.791C37.0788 44.9836 37.1829 44.6972 37.5736 44.593C37.7559 44.5409 37.8601 44.5409 37.9903 44.5409C38.1726 44.5409 38.2507 44.4888 38.2507 44.4107C38.2507 44.3065 38.1205 44.2805 37.9122 44.2805C37.209 44.2805 36.662 44.3325 36.5058 44.3325C36.2193 44.3325 35.5161 44.2805 34.7869 44.2805C34.5785 44.2805 34.4223 44.3065 34.4223 44.4107C34.4223 44.4888 34.4743 44.5409 34.6566 44.5409C34.865 44.5409 35.2036 44.5409 35.4119 44.619C35.7505 44.7492 35.8807 45.0357 35.9068 45.8952L36.037 52.2759H35.9589C35.7245 52.0415 33.7972 50.0101 32.8336 49.0204C30.75 46.963 28.5884 44.6451 28.4321 44.4628C28.1977 44.2023 28.0675 44.02 27.9112 44.02C27.781 44.02 27.7289 44.2284 27.7289 44.5149L27.5987 52.927C27.5726 54.1771 27.5206 54.5678 27.1559 54.698C26.9476 54.7501 26.7132 54.7761 26.5048 54.7761C26.3746 54.7761 26.2704 54.8022 26.2704 54.8803C26.2704 55.0105 26.4007 55.0105 26.583 55.0105C27.3122 55.0105 27.9894 54.9584 28.1196 54.9584C28.38 54.9584 28.953 55.0105 29.8906 55.0105C30.0989 55.0105 30.2291 54.9845 30.2291 54.8803C30.2291 54.8022 30.151 54.7761 29.9947 54.7761C29.7604 54.7761 29.4999 54.7501 29.2655 54.672C28.979 54.5678 28.7967 54.2032 28.7707 53.0833L28.5884 47.1192ZM42.7564 50.8956C42.7564 52.1978 42.7564 53.3177 42.6782 53.9167C42.6262 54.3334 42.548 54.6459 42.2615 54.698C42.1313 54.724 41.9751 54.7501 41.7407 54.7501C41.5583 54.7501 41.5063 54.8022 41.5063 54.8543C41.5063 54.9584 41.6104 54.9845 41.7927 54.9845C42.3657 54.9845 43.2512 54.9324 43.5377 54.9324C43.7461 54.9324 44.8139 54.9845 45.6212 54.9845C45.8035 54.9845 45.9077 54.9324 45.9077 54.8543C45.9077 54.7761 45.8556 54.7501 45.7254 54.7501C45.5431 54.7501 45.2306 54.724 45.0222 54.698C44.6055 54.6459 44.5013 54.3334 44.4753 53.9167C44.3972 53.3177 44.3972 52.1978 44.3972 50.8695V50.6612C44.3972 50.5831 44.4492 50.557 44.5013 50.557L45.7515 50.5831C45.8556 50.5831 45.9338 50.6091 46.0119 50.6872C46.1942 50.8956 46.8453 51.8592 47.4183 52.6405C48.2256 53.7344 48.7465 54.4115 49.3716 54.724C49.7362 54.9324 50.1008 54.9845 50.8821 54.9845H52.2364C52.4187 54.9845 52.4969 54.9584 52.4969 54.8543C52.4969 54.7761 52.4448 54.7501 52.3146 54.7501C52.2104 54.7501 52.0802 54.724 51.9239 54.698C51.7156 54.6459 51.1165 54.5678 50.3352 53.7344C49.5018 52.8489 48.5121 51.5988 47.236 49.9841C48.6684 48.8121 49.1111 47.8485 49.1111 46.8067C49.1111 45.8431 48.5382 45.1399 48.1475 44.8534C47.3662 44.3325 46.4286 44.2544 45.5171 44.2544C45.0743 44.2544 44.0065 44.3065 43.5117 44.3065C43.2252 44.3065 42.3136 44.2544 41.5583 44.2544C41.35 44.2544 41.2458 44.2805 41.2458 44.3846C41.2458 44.4888 41.3239 44.5149 41.4802 44.5149C41.6886 44.5149 41.923 44.5409 42.0271 44.5669C42.4959 44.6711 42.6001 44.9055 42.6262 45.3743C42.6522 45.817 42.6522 46.2337 42.6522 48.3954V50.8956H42.7564ZM44.4492 45.192C44.4492 45.0878 44.4753 45.0097 44.5795 44.9836C44.7097 44.9316 44.9701 44.9316 45.3347 44.9316C46.1682 44.9316 47.5224 45.5045 47.5224 47.5359C47.5224 48.7079 47.1057 49.359 46.689 49.6715C46.4286 49.8538 46.2463 49.9059 45.6733 49.9059C45.3087 49.9059 44.892 49.8538 44.5795 49.7757C44.4753 49.7236 44.4492 49.6715 44.4492 49.5153V45.192ZM54.8669 50.8956C54.8669 52.2759 54.8669 53.3958 54.7888 53.9948C54.7367 54.4115 54.6585 54.6459 54.3721 54.698C54.2418 54.724 54.0856 54.7501 53.8512 54.7501C53.6689 54.7501 53.6168 54.8022 53.6168 54.8543C53.6168 54.9584 53.721 54.9845 53.9033 54.9845C54.4762 54.9845 55.3617 54.9324 55.7003 54.9324C56.091 54.9324 56.9765 54.9845 57.9141 54.9845C58.0703 54.9845 58.1745 54.9324 58.1745 54.8543C58.1745 54.7761 58.0964 54.7501 57.9401 54.7501C57.7317 54.7501 57.4192 54.724 57.2109 54.698C56.7942 54.6459 56.69 54.3855 56.6379 53.9948C56.5858 53.3958 56.5858 52.2499 56.5858 50.8695V48.3693C56.5858 46.2077 56.5858 45.817 56.6119 45.3483C56.6379 44.8534 56.7421 44.619 57.1327 44.5409C57.315 44.5149 57.4192 44.4888 57.5494 44.4888C57.6797 44.4888 57.7838 44.4628 57.7838 44.3586C57.7838 44.2805 57.6797 44.2544 57.4974 44.2544C56.9504 44.2544 56.117 44.3065 55.7524 44.3065C55.3357 44.3065 54.4502 44.2544 53.9033 44.2544C53.6689 44.2544 53.5647 44.2805 53.5647 44.3586C53.5647 44.4628 53.6428 44.4888 53.7991 44.4888C53.9814 44.4888 54.1637 44.5149 54.32 44.5409C54.6325 44.619 54.7627 44.8534 54.8148 45.3483C54.8409 45.791 54.8409 46.2077 54.8409 48.3693V50.8956H54.8669ZM63.9303 55.2189C64.6855 55.2189 65.4929 55.0887 66.1961 54.6459C67.2118 53.9688 67.5243 53.0051 67.5243 52.1717C67.5243 50.8175 66.9253 49.8278 65.1804 48.5516L64.7897 48.2652C63.6177 47.3797 63.2791 46.8588 63.2791 46.2077C63.2791 45.3483 63.9303 44.7492 64.972 44.7492C65.9096 44.7492 66.3003 45.1659 66.5347 45.4524C66.8212 45.817 66.8993 46.2598 66.8993 46.39C66.8993 46.5723 66.9514 46.6504 67.0295 46.6504C67.1337 46.6504 67.1858 46.5463 67.1858 46.2337C67.1858 45.1139 67.2379 44.7232 67.2379 44.5149C67.2379 44.4107 67.1597 44.3846 67.0295 44.3325C66.6649 44.2284 66.0659 44.0981 65.1283 44.0981C63.1489 44.0981 61.8467 45.218 61.8467 46.7807C61.8467 47.9266 62.3937 48.9163 63.9563 50.1403L64.6074 50.6612C65.7794 51.5988 66.0138 52.2499 66.0138 52.927C66.0138 53.6823 65.3887 54.5417 64.1126 54.5417C63.2271 54.5417 62.3937 54.1511 62.0811 53.1093C62.003 52.8749 61.9509 52.5624 61.9509 52.3801C61.9509 52.2759 61.9249 52.1457 61.8207 52.1457C61.7165 52.1457 61.6644 52.302 61.6384 52.5103C61.6123 52.7447 61.5602 53.6042 61.5602 54.3855C61.5602 54.698 61.6123 54.7761 61.8207 54.8803C62.4718 55.1407 63.0968 55.2189 63.9303 55.2189ZM72.2644 50.8956C72.2644 52.1978 72.2644 53.3177 72.1862 53.9167C72.1342 54.3334 72.056 54.6459 71.7695 54.698C71.6393 54.724 71.483 54.7501 71.2487 54.7501C71.0663 54.7501 71.0143 54.8022 71.0143 54.8543C71.0143 54.9584 71.1184 54.9845 71.3007 54.9845C71.5872 54.9845 71.9518 54.9584 72.2904 54.9584C72.629 54.9324 72.9415 54.9324 73.0978 54.9324C73.5145 54.9324 73.9572 54.9584 74.5823 54.9845C75.1813 55.0105 75.9887 55.0366 77.0565 55.0366C77.6034 55.0366 77.7336 55.0366 77.8378 54.672C77.9159 54.3855 78.0201 53.4218 78.0201 53.0833C78.0201 52.9531 78.0201 52.8228 77.916 52.8228C77.8118 52.8228 77.7857 52.8749 77.7597 53.0312C77.6555 53.6042 77.4992 53.9167 77.1086 54.0729C76.744 54.2552 76.145 54.2552 75.7803 54.2552C74.3219 54.2552 74.1135 54.0469 74.0614 53.0572C74.0354 52.6405 74.0614 51.3383 74.0614 50.8435V49.7236C74.0614 49.6455 74.0875 49.5934 74.1396 49.5934C74.4781 49.5934 75.8845 49.6194 76.171 49.6455C76.6919 49.6976 76.9002 49.9059 76.9784 50.1924C77.0304 50.3747 77.0305 50.557 77.0305 50.7133C77.0305 50.7914 77.0565 50.8435 77.1607 50.8435C77.2909 50.8435 77.2909 50.6872 77.2909 50.5831C77.2909 50.4789 77.343 49.9059 77.343 49.6194C77.3951 48.8902 77.4472 48.6558 77.4472 48.5777C77.4472 48.4996 77.3951 48.4735 77.343 48.4735C77.2648 48.4735 77.2128 48.5516 77.1086 48.6558C76.9784 48.786 76.77 48.8381 76.4314 48.8642C76.0929 48.8902 74.4781 48.8902 74.1656 48.8902C74.0875 48.8902 74.0614 48.8381 74.0614 48.734V45.1399C74.0614 45.0357 74.0875 45.0097 74.1656 45.0097C74.4521 45.0097 75.9366 45.0357 76.197 45.0618C76.9002 45.1399 77.0565 45.3222 77.1607 45.5827C77.2388 45.765 77.2388 45.9994 77.2388 46.1035C77.2388 46.2337 77.2648 46.3119 77.369 46.3119C77.4732 46.3119 77.4992 46.2337 77.4992 46.1556C77.5253 45.9733 77.5513 45.3483 77.5774 45.218C77.6295 44.5669 77.6816 44.3846 77.6816 44.2805C77.6816 44.2023 77.6555 44.1502 77.6034 44.1502C77.5253 44.1502 77.4472 44.2023 77.369 44.2023C77.2648 44.2284 77.0305 44.2544 76.77 44.2805C76.5096 44.3065 73.6708 44.3065 73.202 44.3065C72.9936 44.3065 72.6811 44.2805 72.3165 44.2805C71.9518 44.2805 71.5351 44.2544 71.1705 44.2544C70.9622 44.2544 70.858 44.2805 70.858 44.3846C70.858 44.4888 70.9361 44.5149 71.0924 44.5149C71.3007 44.5149 71.5351 44.5409 71.6393 44.5669C72.1081 44.6711 72.2123 44.9055 72.2383 45.3743C72.2644 45.817 72.2644 46.2337 72.2644 48.3954V50.8956Z" fill="#808080"/>
<path fill-rule="evenodd" clip-rule="evenodd" d="M80.9899 41.0506V41.5194H59.4514H48.7733H47.1586H41.7154H40.1006H34.6314H33.0166H22.3385H0.800049V41.0506H22.3385V40.5037V31.9352L27.0004 28.9141V23.3146L33.0166 19.382V30.7893V40.1131V41.0506H34.6314V40.061V30.7893V18.3402L36.2721 17.2984V9.3029L38.9026 7.66212V1.25528L40.1006 0.5V30.7893V39.8526V41.0506H41.7154V30.7893V7.66212L45.5439 10.0321V17.2984L47.1586 18.3402V30.7893V40.061V41.0506H48.7733V40.1131V30.7893V19.382L54.8156 23.3146V28.9141L59.4514 31.9352V40.5037V41.0506H80.9899Z" fill="#808080"/>
</svg>
