<svg width="121" height="32" viewBox="0 0 121 32" fill="none" xmlns="http://www.w3.org/2000/svg">
<path d="M15.9585 1.54308C15.9585 1.79565 15.9417 1.95638 15.9082 2.02526C15.8716 2.09128 15.7374 2.12429 15.5057 2.12429C14.5207 2.00661 13.6196 1.90184 12.8024 1.81C11.9882 1.71815 11.3845 1.67224 10.9911 1.67224C10.6679 1.67224 9.90247 1.76408 8.69492 1.94777C7.48432 2.13433 6.27067 2.34529 5.05398 2.58064C4.89236 3.05135 4.73989 4.02863 4.59657 5.5125C4.45325 6.99637 4.38159 8.05833 4.38159 8.69837C5.2964 8.48024 6.39875 8.26211 7.68863 8.04398C9.44201 7.73974 10.7761 7.58762 11.6909 7.58762C12.1361 7.58762 12.4487 7.62494 12.6286 7.69956C12.8085 7.77706 12.8893 7.9507 12.871 8.22049C12.871 8.49028 12.7186 8.6668 12.4136 8.75004C12.3069 8.78448 11.8007 8.84762 10.895 8.93946C9.99242 9.03131 8.86416 9.19922 7.51024 9.44318C6.15937 9.69001 5.11649 9.91389 4.38159 10.1148C4.3633 10.2669 4.345 10.6257 4.3267 11.1911C4.31146 11.7537 4.30383 12.078 4.30383 12.1641V14.4889C4.30383 15.7547 4.2398 16.7362 4.11172 17.4337C3.9867 18.134 3.7275 18.4842 3.33414 18.4842C3.06579 18.4842 2.86453 18.3794 2.73036 18.1699C2.59619 17.9575 2.5291 17.6748 2.5291 17.3218C2.5291 17.0175 2.54282 16.676 2.57027 16.2971C2.59771 15.9183 2.61144 15.6944 2.61144 15.6255C2.61144 14.6496 2.61144 13.7312 2.61144 12.8701C2.61144 12.012 2.61906 11.2198 2.63431 10.4937C2.40255 10.5798 2.17538 10.6515 1.95277 10.7089C1.72712 10.7692 1.52586 10.7993 1.349 10.7993C0.882446 10.7993 0.64917 10.6888 0.64917 10.4678C0.64917 10.2152 0.89007 9.96268 1.37187 9.7101C1.64021 9.57521 2.06103 9.41591 2.63431 9.23222C2.63431 8.89354 2.64345 8.30229 2.66175 7.45847C2.68005 6.61751 2.68919 5.95164 2.68919 5.46084L2.77153 3.01116C2.32327 2.9595 2.05493 2.91645 1.9665 2.882C1.60667 2.76433 1.42676 2.56198 1.42676 2.27497C1.42676 2.09128 1.59752 1.91046 1.93905 1.73251C2.27753 1.55743 2.57332 1.45267 2.82642 1.41823C2.82642 1.07955 2.91027 0.79684 3.07799 0.570097C3.24875 0.343355 3.45001 0.22998 3.68176 0.22998C4.09648 0.22998 4.40141 0.301734 4.59657 0.445242C4.79478 0.58875 4.92895 0.795402 4.99909 1.0652C5.44734 0.913078 6.29354 0.773875 7.53768 0.647589C8.78182 0.521302 9.75305 0.458157 10.4514 0.458157C11.4546 0.458157 12.624 0.575837 13.9596 0.811189C15.2922 1.04654 15.9585 1.2905 15.9585 1.54308ZM28.0752 14.1101C28.0752 14.3138 27.6284 14.7013 26.735 15.2725C25.8384 15.8465 24.9419 16.3272 24.0454 16.7147C23.152 17.1022 22.2173 17.3935 21.2415 17.5887C20.2627 17.781 19.3448 17.8771 18.4879 17.8771C17.4298 17.8771 16.5074 17.5987 15.7207 17.0419C14.7357 16.3531 14.2432 15.3758 14.2432 14.1101C14.2432 13.7742 14.2387 13.4241 14.2295 13.0596C14.2204 12.6979 14.2158 12.3234 14.2158 11.9359C14.2158 11.5829 14.2249 11.2413 14.2432 10.9113C14.2585 10.5841 14.2935 10.2856 14.3484 10.0158C14.4735 9.42452 14.8318 8.93086 15.4233 8.53478C16.0149 8.1387 16.6416 7.94065 17.3033 7.94065C18.2181 7.94065 19.0597 8.143 19.8281 8.54769C20.7064 9.0184 21.1455 9.61682 21.1455 10.343C21.1455 11.0175 20.8954 11.5657 20.3953 11.9876C20.0355 12.2889 19.479 12.5587 18.7258 12.797C18.1891 12.9491 17.6921 13.1041 17.2347 13.2619C16.7803 13.4226 16.2924 13.5963 15.771 13.7828C15.771 14.4229 15.9859 14.9955 16.4159 15.5006C16.9526 16.1407 17.7058 16.4607 18.6755 16.4607C19.5171 16.4607 20.3267 16.3775 21.1043 16.211C21.8849 16.0417 22.7677 15.7877 23.7527 15.449C24.4693 15.1964 25.2835 14.8348 26.1952 14.3641C26.9667 13.9594 27.3601 13.757 27.3753 13.757C27.6803 13.757 27.8739 13.7785 27.9562 13.8216C28.0355 13.8618 28.0752 13.9579 28.0752 14.1101ZM19.2106 10.343C19.2106 10.0215 19.0094 9.78186 18.6069 9.624C18.2044 9.46327 17.689 9.38291 17.0608 9.38291C16.8657 9.38291 16.6294 9.49197 16.3519 9.7101C16.0744 9.92824 15.9173 10.1349 15.8807 10.3301C15.8442 10.5252 15.8076 10.9127 15.771 11.4925C15.7374 12.0751 15.7207 12.4167 15.7207 12.5171C16.0225 12.4511 16.451 12.3162 17.006 12.1124C17.564 11.9115 17.994 11.7393 18.2958 11.5958C18.6008 11.4523 18.8295 11.2629 18.9819 11.0275C19.1344 10.7893 19.2106 10.5611 19.2106 10.343ZM38.7418 9.35707C38.7418 9.60964 38.4552 9.73593 37.8819 9.73593C36.8604 9.73593 36.0279 9.81199 35.3845 9.96411C34.2379 10.2339 33.3597 10.7735 32.7498 11.5829C32.5699 11.8355 32.3732 12.4296 32.1598 13.3652C31.9433 14.3009 31.7191 15.2911 31.4874 16.3359C31.1459 17.3806 30.5817 17.903 29.795 17.903C29.4382 17.903 29.2004 17.8097 29.0814 17.6231C28.9656 17.4394 28.8634 17.0649 28.775 16.4995C28.6865 15.934 28.6195 15.3442 28.5737 14.73C28.528 14.1158 28.5051 13.5131 28.5051 12.9218C28.5051 12.2301 28.4517 11.6819 28.345 11.2772C28.2017 10.907 28.0675 10.5281 27.9425 10.1406C27.9425 9.93685 28.0096 9.76464 28.1438 9.624C28.2779 9.48049 28.4517 9.40874 28.6652 9.40874C29.0616 9.40874 29.4108 9.63548 29.7127 10.089C30.0176 10.5453 30.1701 11.1437 30.1701 11.8842C30.1701 12.3062 30.1884 12.6865 30.225 13.0251C30.2615 13.3609 30.2798 13.681 30.2798 13.9852C30.4933 13.1069 30.6991 12.4066 30.8973 11.8842C31.0925 11.3619 31.2892 10.9916 31.4874 10.7735C32.1674 10.0158 32.9374 9.46757 33.7973 9.12889C34.4956 8.8591 35.2747 8.7242 36.1346 8.7242C36.7079 8.7242 37.2858 8.78735 37.8682 8.91363C38.4506 9.03992 38.7418 9.18773 38.7418 9.35707ZM54.7784 13.9594C54.7784 14.1115 54.5101 14.4229 53.9734 14.8936C53.3269 15.4504 52.6378 15.9312 51.9059 16.3359C50.7777 16.9415 49.7028 17.3921 48.6812 17.6877C47.6597 17.9833 46.6656 18.1311 45.6989 18.1311C44.839 18.1311 44.1849 17.7221 43.7367 16.9041C43.2884 16.0861 43.0643 14.852 43.0643 13.2016C42.5093 14.2464 42.0168 15.0472 41.5869 15.604C40.6751 16.8008 39.8167 17.3992 39.0117 17.3992C38.2768 17.3992 37.7874 17.2041 37.5434 16.8137C37.3025 16.4263 37.1821 15.7948 37.1821 14.9194C37.1821 13.757 37.612 12.4339 38.472 10.95C39.5453 9.11311 40.8261 8.19466 42.3142 8.19466C42.8691 8.19466 43.2717 8.24489 43.5217 8.34535C43.7718 8.4458 44.0675 8.65676 44.4091 8.97822C44.6073 8.94377 44.7948 9.07436 44.9717 9.36999C45.1516 9.66561 45.2415 9.99855 45.2415 10.3688C45.2415 10.8223 45.2141 11.5212 45.1592 12.4654C45.1074 13.4097 45.0815 14.0082 45.0815 14.2607C45.0815 15.0529 45.144 15.5839 45.269 15.8537C45.4824 16.3272 45.9307 16.564 46.6138 16.564C47.2755 16.564 47.8564 16.5124 48.3565 16.409C49.2347 16.2426 50.1754 15.8895 51.1787 15.35C51.8068 15.0285 52.5951 14.4889 53.5434 13.7312C53.9368 13.427 54.1518 13.2748 54.1884 13.2748C54.6366 13.3437 54.8333 13.5719 54.7784 13.9594ZM42.9042 10.6228C42.9591 10.4879 42.9865 10.3602 42.9865 10.2396C42.9865 9.78616 42.7807 9.55942 42.369 9.55942C41.6341 9.55942 40.8596 10.1449 40.0454 11.316C39.2282 12.487 38.8196 13.4356 38.8196 14.1617C38.8196 14.532 38.8516 14.852 38.9156 15.1218C38.9797 15.3916 39.0834 15.5265 39.2267 15.5265C39.6719 15.5265 40.4861 14.565 41.6692 12.642C42.0809 11.9675 42.4925 11.2944 42.9042 10.6228ZM75.8648 13.7828C75.8648 14.2191 75.1497 14.885 73.7196 15.7805C72.0699 16.808 70.5116 17.3218 69.0449 17.3218C67.4501 17.3218 66.1693 16.808 65.2027 15.7805C64.4312 14.6152 63.9555 13.9149 63.7756 13.6795C63.4554 14.2536 63.1062 14.7257 62.7281 15.0959C62.2097 15.6011 61.7096 15.8537 61.2278 15.8537C60.9229 15.8537 60.6408 15.7661 60.3816 15.5911C60.1194 15.4131 59.8724 15.1476 59.6406 14.7946C59.4973 14.5736 59.3769 14.3038 59.2793 13.9852C59.1787 13.6637 59.0841 13.3437 58.9957 13.0251C58.9073 12.7037 58.8356 12.4253 58.7807 12.1899C58.674 11.9517 58.5124 11.8326 58.2959 11.8326C58.0824 11.8326 57.8369 12.0651 57.5595 12.53C57.282 12.9921 56.9816 13.5949 56.6584 14.3382C56.2833 15.2308 56.0683 15.7202 56.0134 15.8063C55.7085 16.2942 55.3243 16.5382 54.8608 16.5382C54.5924 16.5382 54.4171 16.399 54.3347 16.1206C54.2555 15.8422 54.2158 15.4418 54.2158 14.9194C54.2158 14.6669 54.2158 14.4143 54.2158 14.1617C54.2158 13.9091 54.225 13.648 54.2433 13.3782C54.2433 12.7869 54.2113 12.1713 54.1472 11.5312C54.0832 10.8912 54.0344 10.3344 54.0008 9.86079C54.0008 9.5422 54.0771 9.2681 54.2295 9.03849C54.382 8.81175 54.5924 8.69837 54.8608 8.69837C55.2175 8.69837 55.5118 9.17912 55.7436 10.1406C55.9235 10.8983 56.0134 11.6145 56.0134 12.2889C56.3732 11.7006 56.7315 11.2126 57.0883 10.8252C57.5732 10.3171 57.9757 10.0631 58.2959 10.0631C58.7258 10.0631 59.1604 10.2023 59.5995 10.4807C60.0386 10.7591 60.3389 11.1423 60.5006 11.6302C60.5189 11.6819 60.6347 12.154 60.8482 13.0467C60.9915 13.6896 61.1623 14.011 61.3605 14.011C61.6654 14.011 61.9612 13.7412 62.2478 13.2016C62.3912 12.9319 62.5436 12.5272 62.7053 11.9876C62.7937 11.6317 62.8913 11.2686 62.998 10.8983C63.1047 10.6458 63.3639 10.5195 63.7756 10.5195C64.2055 10.5195 64.5105 10.7807 64.6904 11.303C64.8703 11.8254 65.0411 12.2129 65.2027 12.4654C65.7943 13.6307 66.3492 14.466 66.8676 14.9711C67.5659 15.6628 68.3984 16.0087 69.3651 16.0087C70.4384 16.0087 71.4676 15.746 72.4525 15.2208C73.3491 14.6324 74.2456 14.0426 75.1421 13.4514C75.6239 13.4514 75.8648 13.5618 75.8648 13.7828ZM85.8316 9.38291C85.8316 9.73594 85.6715 9.99281 85.3514 10.1535C85.0281 10.3143 84.6073 10.3946 84.0889 10.3946H83.3342H83.014C82.8158 10.3946 82.6176 10.3946 82.4194 10.3946C82.2242 10.343 82.0901 10.3085 82.0169 10.2913C82.1602 10.6128 82.2822 11.0132 82.3828 11.4925C82.4804 11.9747 82.5292 12.3837 82.5292 12.7195C82.5292 13.7642 82.1892 14.7931 81.5092 15.8063C80.7194 16.9687 79.7878 17.5499 78.7144 17.5499C77.8728 17.5499 77.1425 17.3017 76.5235 16.8051C75.9075 16.3057 75.5675 15.7102 75.5034 15.0185C75.4424 14.3296 75.4119 13.7829 75.4119 13.3782C75.4119 12.7697 75.4516 12.243 75.5309 11.7981C75.6102 11.3504 75.7398 10.8481 75.9197 10.2913C76.0447 9.90384 76.2963 9.49054 76.6744 9.0514C77.0495 8.61514 77.3437 8.39701 77.5572 8.39701C78.0054 8.39701 78.2296 8.59935 78.2296 9.00405C78.2296 9.20496 78.1488 9.47475 77.9871 9.81343C77.8255 10.1492 77.6731 10.4693 77.5297 10.7735C77.3529 11.2442 77.2141 11.8297 77.1135 12.53C77.0159 13.2303 76.9671 13.9091 76.9671 14.5664C76.9671 14.9711 77.1196 15.3241 77.4245 15.6255C77.7295 15.9297 78.1411 16.0818 78.6595 16.0818C79.1444 16.0818 79.6018 15.7446 80.0317 15.0701C80.4617 14.3956 80.6767 13.7054 80.6767 12.9993C80.6767 12.1727 80.6355 11.5183 80.5532 11.0361C80.4739 10.5568 80.3626 10.2167 80.2193 10.0158C79.771 9.88087 79.4478 9.75459 79.2496 9.63692C78.9111 9.43313 78.7419 9.20496 78.7419 8.95238C78.7419 8.59936 78.8044 8.32525 78.9294 8.13008C79.0544 7.93778 79.2694 7.84163 79.5743 7.84163C80.3428 7.84163 80.8261 7.94209 81.0243 8.143C81.1859 8.46446 81.3567 8.73425 81.5366 8.95238C81.8385 8.98683 82.2181 9.01983 82.6755 9.0514C83.1329 9.08584 83.505 9.10306 83.7916 9.10306C83.9898 9.10306 84.1865 9.10306 84.3817 9.10306C84.5799 9.10306 84.7766 9.09445 84.9717 9.07723C85.545 9.07723 85.8316 9.17913 85.8316 9.38291ZM98.8631 13.7312C98.8631 13.9005 98.3706 14.288 97.3857 14.8936C96.6325 15.35 95.585 15.9484 94.2433 16.6889C93.4352 17.128 92.6775 17.4323 91.97 17.6016C91.2625 17.7681 90.4438 17.8513 89.5137 17.8513C88.4556 17.8513 87.7039 17.085 87.2587 15.5523C86.9355 14.4387 86.7739 13.005 86.7739 11.2514C86.7739 10.0717 86.8044 8.90072 86.8654 7.73831C86.9294 6.57589 87.0056 5.34604 87.0941 4.04873V3.66555V3.39002V2.45578V2.15012C87.0941 1.96356 87.184 1.77843 87.3639 1.59474C87.5438 1.40818 87.6963 1.3149 87.8213 1.3149C88.5562 1.3149 88.9237 2.36107 88.9237 4.45341C88.9237 4.9069 88.8871 5.623 88.8139 6.60173C88.6523 8.80887 88.5715 10.132 88.5715 10.5711C88.5715 12.5085 88.634 13.8575 88.759 14.6181C88.9755 15.8809 89.4238 16.5124 90.1038 16.5124C90.6954 16.5124 91.3937 16.3947 92.1987 16.1593C93.0037 15.924 93.7828 15.6111 94.536 15.2208C95.091 14.951 95.9235 14.5047 97.0335 13.8819C97.8233 13.4427 98.299 13.2232 98.4606 13.2232C98.6191 13.2232 98.7259 13.249 98.7808 13.3007C98.8356 13.3523 98.8631 13.4958 98.8631 13.7312ZM109.905 13.7312C109.905 13.9005 109.411 14.288 108.423 14.8936C107.673 15.35 106.625 15.9484 105.28 16.6889C104.475 17.128 103.719 17.4323 103.012 17.6016C102.304 17.7681 101.486 17.8513 100.555 17.8513C99.4974 17.8513 98.7442 17.085 98.2959 15.5523C97.9757 14.4387 97.8156 13.005 97.8156 11.2514C97.8156 10.0717 97.8461 8.90072 97.9071 7.73831C97.9712 6.57589 98.0474 5.34604 98.1358 4.04873V3.66555V3.39002V2.45578V2.15012C98.1358 1.96356 98.2258 1.77843 98.4057 1.59474C98.5856 1.40818 98.7381 1.3149 98.8631 1.3149C99.5949 1.3149 99.9609 2.36107 99.9609 4.45341C99.9609 4.9069 99.9258 5.623 99.8557 6.60173C99.694 8.80887 99.6132 10.132 99.6132 10.5711C99.6132 12.5085 99.6757 13.8575 99.8008 14.6181C100.017 15.8809 100.466 16.5124 101.146 16.5124C101.737 16.5124 102.435 16.3947 103.24 16.1593C104.045 15.924 104.825 15.6111 105.578 15.2208C106.133 14.951 106.965 14.5047 108.075 13.8819C108.865 13.4427 109.339 13.2232 109.498 13.2232C109.659 13.2232 109.768 13.249 109.823 13.3007C109.877 13.3523 109.905 13.4958 109.905 13.7312ZM111.382 2.83465C111.382 3.10444 111.355 3.27235 111.3 3.33836C111.175 3.49048 110.897 3.56654 110.467 3.56654C110.126 3.56654 109.768 3.31827 109.393 2.82173C109.017 2.32233 108.83 1.89611 108.83 1.54308C108.83 1.32495 108.892 1.1269 109.017 0.948953C109.142 0.771004 109.348 0.682031 109.635 0.682031C110.065 0.682031 110.463 0.936042 110.829 1.44406C111.198 1.94921 111.382 2.41273 111.382 2.83465ZM120.11 14.011C120.11 14.5162 119.259 15.2653 117.557 16.2584C115.697 17.3375 114.05 17.8771 112.617 17.8771C112.007 17.8111 111.397 17.7351 110.788 17.649C110.233 17.5485 109.874 17.3892 109.713 17.1711C109.463 16.8496 109.284 16.5454 109.178 16.2584C109.016 15.8364 108.935 15.2897 108.935 14.6181C108.935 14.0096 108.935 13.3767 108.935 12.7195C108.935 12.0622 108.944 11.3791 108.963 10.6702C108.963 10.2167 108.953 9.93828 108.935 9.83495C108.935 9.43313 108.984 9.09302 109.082 8.81461C109.182 8.53621 109.393 8.39701 109.713 8.39701C110.036 8.39701 110.274 8.50607 110.426 8.7242C110.579 8.94233 110.655 9.40587 110.655 10.1148C110.655 10.3846 110.646 11.0132 110.628 12.0005C110.609 12.9849 110.6 13.6881 110.6 14.1101C110.6 15.0371 110.681 15.6183 110.843 15.8537C111.111 16.2584 111.756 16.4607 112.777 16.4607C113.976 16.4607 115.176 16.1751 116.377 15.604C117.399 14.9611 118.419 14.311 119.437 13.6537C119.565 13.6537 119.701 13.6537 119.844 13.6537C120.021 13.6881 120.11 13.8073 120.11 14.011Z" fill="black" fill-opacity="0.7"/>
<path d="M27.317 25.2782C27.7653 24.9811 28.3096 24.8089 28.8265 24.8089C29.755 24.8089 30.1575 25.304 30.1575 26.122V26.2081C29.938 26.1909 29.6544 26.178 29.4394 26.178C27.6921 26.178 26.7224 26.7333 26.7224 27.7494C26.7224 28.6233 27.4177 29.183 28.4926 29.183C29.2976 29.183 29.8968 28.8343 30.2078 28.2703H30.2307C30.217 28.4038 30.2078 28.5932 30.2078 28.718C30.2078 28.8601 30.217 29.0409 30.2307 29.1184H30.9763C30.9351 28.774 30.9168 28.2057 30.9168 27.6719C30.9168 27.4437 30.9351 26.6946 30.9351 26.0746C30.9351 24.9639 30.3908 24.1717 28.9545 24.1717C28.3782 24.1717 27.7516 24.3052 27.2667 24.5807L27.317 25.2782ZM30.1667 26.7592C30.1667 28.0163 29.6407 28.5846 28.6527 28.5846C28.0169 28.5846 27.5915 28.2617 27.5915 27.7494C27.5915 27.0433 28.2776 26.7419 29.6041 26.7419C29.8465 26.7419 30.0386 26.7506 30.1667 26.7592ZM33.4737 25.1533C33.4737 24.9036 33.4646 24.5334 33.4325 24.2794H32.6229C32.6641 24.6884 32.6732 25.2093 32.6732 25.7216V29.1184H33.5011V26.7807C33.5011 25.6183 34.0363 24.8864 34.9191 24.8864C35.1112 24.8864 35.2622 24.9036 35.3902 24.9424V24.232C35.2622 24.1933 35.1112 24.1717 34.9283 24.1717C34.2696 24.1717 33.7436 24.5807 33.492 25.1533H33.4737ZM37.6041 22.9275L36.799 23.1858V24.3052H35.6555V24.9251H36.799V27.4997C36.799 28.4985 37.1101 29.1744 38.3222 29.1744C38.5875 29.1744 38.8482 29.127 39.0723 29.0624L39.0403 28.4425C38.8574 28.52 38.6881 28.5587 38.496 28.5587C37.787 28.5587 37.6041 28.0895 37.6041 27.3188V24.9251H38.9809V24.3052H37.6041V22.9275ZM44.3554 26.8625C44.3645 26.7592 44.3737 26.6171 44.3737 26.531C44.3737 24.9424 43.5549 24.1717 42.233 24.1717C40.8105 24.1717 39.8362 25.1533 39.8362 26.6644C39.8362 28.2531 40.7876 29.2217 42.4754 29.2217C43.0518 29.2217 43.5458 29.127 44.0032 28.9376L43.9711 28.2229C43.5183 28.4511 43.0701 28.576 42.5166 28.576C41.4142 28.576 40.6961 27.9302 40.6778 26.8625H44.3554ZM40.6961 26.2641C40.7785 25.304 41.396 24.7701 42.2147 24.7701C43.0335 24.7701 43.5686 25.2566 43.5686 26.2641H40.6961ZM52.5383 21.9287H51.7104V23.8574C51.7104 24.3353 51.7196 24.7917 51.7424 25.0672H51.7196C51.4177 24.5161 50.7727 24.1717 50.0135 24.1717C48.6275 24.1717 47.7584 25.2394 47.7584 26.7419C47.7584 28.1971 48.6001 29.2217 50.0043 29.2217C50.8002 29.2217 51.3994 28.8429 51.7699 28.2358H51.7928C51.7928 28.5372 51.8019 28.8515 51.8248 29.1184H52.5886C52.552 28.7094 52.5383 28.167 52.5383 27.6546V21.9287ZM50.1461 24.8089C51.0746 24.8089 51.7196 25.6269 51.7196 26.7204C51.7196 27.7881 51.0335 28.5846 50.1461 28.5846C49.2176 28.5846 48.6275 27.7666 48.6275 26.7204C48.6275 25.6011 49.245 24.8089 50.1461 24.8089ZM58.4526 26.8625C58.4617 26.7592 58.4709 26.6171 58.4709 26.531C58.4709 24.9424 57.6521 24.1717 56.3302 24.1717C54.9031 24.1717 53.9334 25.1533 53.9334 26.6644C53.9334 28.2531 54.8848 29.2217 56.5726 29.2217C57.149 29.2217 57.643 29.127 58.0958 28.9376L58.0683 28.2229C57.6109 28.4511 57.1673 28.576 56.6138 28.576C55.5115 28.576 54.7933 27.9302 54.775 26.8625H58.4526ZM54.7933 26.2641C54.8757 25.304 55.4886 24.7701 56.3073 24.7701C57.1261 24.7701 57.6613 25.2566 57.6613 26.2641H54.7933ZM60.6847 21.9287H59.8568V29.1184H60.6847V21.9287ZM63.2919 21.9287H62.464V29.1184H63.2919V21.9287ZM65.7893 25.1791L65.9266 22.4798H65.1307L65.2725 25.1791H65.7893ZM67.962 25.2782C68.4057 24.9811 68.95 24.8089 69.4669 24.8089C70.3954 24.8089 70.7979 25.304 70.7979 26.122V26.2081C70.5784 26.1909 70.2948 26.178 70.0798 26.178C68.3325 26.178 67.3628 26.7333 67.3628 27.7494C67.3628 28.6233 68.0626 29.183 69.133 29.183C69.938 29.183 70.5372 28.8343 70.8482 28.2703H70.8711C70.862 28.4038 70.8482 28.5932 70.8482 28.718C70.8482 28.8601 70.862 29.0409 70.8711 29.1184H71.6167C71.5755 28.774 71.5572 28.2057 71.5572 27.6719C71.5572 27.4437 71.5755 26.6946 71.5755 26.0746C71.5755 24.9639 71.0312 24.1717 69.5949 24.1717C69.0186 24.1717 68.392 24.3052 67.9071 24.5807L67.962 25.2782ZM70.8071 26.7592C70.8071 28.0163 70.2856 28.5846 69.2931 28.5846C68.6573 28.5846 68.2319 28.2617 68.2319 27.7494C68.2319 27.0433 68.918 26.7419 70.2445 26.7419C70.4869 26.7419 70.679 26.7506 70.8071 26.7592ZM76.6801 24.3827C76.3371 24.2578 75.9529 24.2105 75.5504 24.2105C73.9723 24.2105 72.9294 25.2566 72.9294 26.7032C72.9294 28.1885 73.954 29.1744 75.5595 29.1744C76.0123 29.1744 76.3966 29.1098 76.7488 28.9677L76.6893 28.2617C76.3051 28.4425 75.994 28.5114 75.6098 28.5114C74.4983 28.5114 73.8122 27.7494 73.8122 26.6731C73.8122 25.6183 74.5258 24.8864 75.6007 24.8864C75.962 24.8864 76.2959 24.9424 76.6207 25.0758L76.6801 24.3827ZM81.4783 31.116H82.3062V25.0285C82.3062 24.7702 82.3199 24.486 82.3382 24.2794H81.5927C81.5606 24.5334 81.5286 24.8778 81.5286 25.106H81.5103C81.1353 24.4774 80.5681 24.1717 79.763 24.1717C78.4091 24.1717 77.5309 25.1619 77.5309 26.6343C77.5309 28.1756 78.4183 29.2217 79.7722 29.2217C80.5315 29.2217 81.0849 28.873 81.5012 28.2445H81.5195C81.5012 28.464 81.4783 29.1098 81.4783 29.4413V31.116ZM79.882 24.8089C80.8425 24.8089 81.5012 25.6011 81.5012 26.7204C81.5012 27.7666 80.8334 28.5846 79.9231 28.5846C79.0129 28.5846 78.4183 27.7795 78.4183 26.6644C78.4183 25.5881 79.0038 24.8089 79.882 24.8089ZM87.6213 28.2832C87.6213 28.5372 87.6441 28.8902 87.6624 29.1184H88.4629C88.4217 28.7094 88.4126 28.1885 88.4126 27.6719V24.2794H87.5847V26.6472C87.5847 27.9861 86.9352 28.576 86.0478 28.576C85.0186 28.576 84.8265 27.8527 84.8265 26.7506V24.2794H83.994V27.0562C83.994 28.3177 84.4286 29.2217 85.8557 29.2217C86.6333 29.2217 87.2279 28.8601 87.603 28.2832H87.6213ZM90.384 25.2782C90.8277 24.9811 91.372 24.8089 91.8888 24.8089C92.8174 24.8089 93.2199 25.304 93.2199 26.122V26.2081C93.0003 26.1909 92.7167 26.178 92.5018 26.178C90.7545 26.178 89.7848 26.7333 89.7848 27.7494C89.7848 28.6233 90.4846 29.183 91.5549 29.183C92.3645 29.183 92.9592 28.8343 93.2702 28.2703H93.2931C93.2839 28.4038 93.2702 28.5932 93.2702 28.718C93.2702 28.8601 93.2839 29.0409 93.2931 29.1184H94.0386C93.9975 28.774 93.9792 28.2057 93.9792 27.6719C93.9792 27.4437 93.9975 26.6946 93.9975 26.0746C93.9975 24.9639 93.4532 24.1717 92.0169 24.1717C91.4452 24.1717 90.8185 24.3052 90.3337 24.5807L90.384 25.2782ZM93.2336 26.7592C93.2336 28.0163 92.7076 28.5846 91.715 28.5846C91.0792 28.5846 90.6539 28.2617 90.6539 27.7494C90.6539 27.0433 91.34 26.7419 92.6664 26.7419C92.9089 26.7419 93.101 26.7506 93.2336 26.7592Z" fill="black" fill-opacity="0.7"/>
</svg>
