<svg width="50" height="50" viewBox="0 0 50 50" fill="none" xmlns="http://www.w3.org/2000/svg">
<g opacity="0.7">
<path d="M25.1912 0.821838C24.6045 0.821838 23.4599 0.883172 23.4132 0.886005C23.635 0.945172 6.29218 9.84267 6.29218 9.74934C6.28685 9.7795 6.27868 9.80451 6.26285 9.82417C2.82485 14.0298 0.78418 19.3725 0.78418 25.2285C0.78418 30.0548 2.19035 34.5502 4.60818 38.3378C4.62451 38.329 10.7645 44.2762 10.6893 44.8583C14.7448 47.8583 19.7592 49.634 25.1903 49.634C27.0873 49.634 28.9302 49.41 30.7037 49.0015C30.6714 48.8092 30.642 48.6167 30.6157 48.427L30.2952 46.177C30.1987 45.5615 29.6945 41.3782 29.6945 41.3782L29.6928 41.3658L30.2294 41.1598C30.2294 41.1598 30.9347 41.189 30.9172 41.1912C30.9172 41.1912 31.6323 45.3985 31.7567 46.1283L31.8912 46.9008C31.9432 47.212 31.987 47.5205 32.0512 47.8402C32.0962 48.106 32.1362 48.3608 32.1755 48.6147C32.754 48.4408 33.324 48.2478 33.8832 48.0342C33.7982 47.556 33.7057 47.0632 33.6978 46.9903L33.4097 45.2787C33.029 43.5128 32.7864 42.203 32.6085 41.3317C32.5832 41.2065 32.5358 40.984 32.5358 40.984L33.0867 40.7637L33.8134 40.8203C33.8134 40.8203 34.7403 44.877 34.9718 46.1035L35.2362 47.469C35.7334 47.2442 36.2257 47.0065 36.7037 46.7493L36.5508 46.0487C36.5345 45.9808 36.5168 45.8993 36.496 45.8087C36.1847 44.4383 35.3582 40.6212 35.3582 40.6212L36.021 40.3608L36.6685 40.452H36.6717C36.6717 40.452 37.5035 43.971 38.0434 45.9738C38.9703 45.3985 39.8585 44.7667 40.6959 44.076C40.6959 44.076 48.4247 32.5067 48.48 32.5448C49.2045 30.2353 49.5969 27.7775 49.5969 25.2283C49.5967 11.7493 38.6697 0.821838 25.1912 0.821838Z" fill="#434343"/>
<path d="M31.3057 12.9722C31.3057 12.9722 28.2574 7.2239 27.0139 6.36106C25.7719 5.49823 23.7247 4.95956 22.3055 5.1389C20.5087 5.36573 16.399 7.54056 16.1259 7.6124C16.1279 7.6334 14.5947 9.52456 14.1944 11.4722C14.1054 11.9051 12.5277 18.8056 12.5277 18.8056L15.5277 27.4722L26.2187 32.5729L30.1389 28.3056C30.1389 28.3056 30.639 24.0834 31.6945 20.9167C32.75 17.7501 32.4167 16.0279 32.4167 16.0279L31.3057 12.9722Z" fill="white"/>
<path d="M19.0921 35.0629C19.0596 35.0753 19.0299 35.0884 19.0021 35.1009C19.0299 35.0884 19.0596 35.0753 19.0921 35.0629Z" fill="white"/>
<path d="M18.2119 18.5566C18.0422 18.6533 17.9167 18.676 17.8384 18.7176C17.7599 18.7605 17.636 18.8525 17.6667 19.017C17.699 19.1823 17.7444 19.236 17.7602 19.3635C17.7752 19.4896 17.7145 19.7183 17.5679 19.978C17.4235 20.2383 17.1925 20.4263 17.0614 20.5025C16.9324 20.5796 16.8532 20.6005 16.7799 20.6391C16.7632 20.6468 16.7482 20.6866 16.7332 20.7666C16.7325 20.7673 16.7325 20.7673 16.7317 20.7681C16.741 20.7608 16.7514 20.754 16.7657 20.7485C16.7939 20.7365 16.8519 20.735 16.904 20.7253C16.9545 20.716 16.9917 20.7041 17.0102 20.7016C17.0299 20.6993 17.1469 20.6828 17.1665 20.6785C17.1862 20.6746 17.5407 20.6005 17.7604 20.4993C17.9789 20.3976 18.3625 20.2126 18.5824 19.947C18.7439 19.7525 18.9384 19.3983 18.9574 19.0468C18.9619 18.9741 18.961 18.929 18.961 18.929C18.961 18.929 18.9619 18.929 18.9619 18.9281C18.9644 18.9281 18.9665 18.9275 18.9689 18.9275C18.9325 18.926 18.9009 18.914 18.875 18.8928C18.8162 18.8468 18.7687 18.8128 18.5884 18.6201C18.4724 18.4958 18.4804 18.4046 18.543 18.3005C18.5415 18.3028 18.5389 18.3051 18.5372 18.3075C18.4837 18.3575 18.3794 18.4601 18.2119 18.5566Z" fill="white"/>
<path d="M27.1749 17.4079C27.1749 17.4079 27.0759 17.4164 27.0419 17.4314C27.0149 17.4425 26.9639 17.4615 26.929 17.5082C26.8944 17.5557 26.8864 17.6387 26.9592 17.7279C27.0334 17.8167 27.1354 17.9827 27.1269 18.1249C27.1215 18.1874 27.1307 18.3917 27.0644 18.5389C26.9902 18.7057 26.9045 18.8702 26.8457 18.9444C26.8117 18.988 26.6547 19.1617 26.6317 19.2847C26.6255 19.3105 26.6317 19.3392 26.6439 19.3662C26.6439 19.3662 26.6457 19.3647 26.6457 19.3669C26.6449 19.3677 26.6457 19.3692 26.6449 19.3707C26.648 19.361 26.6519 19.3517 26.6595 19.3429C26.6987 19.2989 26.7785 19.2544 26.9175 19.2115C27.1019 19.1532 27.2327 19.0837 27.3347 19.006C27.3224 19.0204 27.3192 19.037 27.3114 19.0535C27.322 19.028 27.3339 19.0029 27.3567 18.9829C27.4115 18.9357 28.1349 18.4502 28.1534 17.6664C28.1604 17.372 27.7785 17.3332 27.6195 17.3279C27.5014 17.3229 27.2787 17.4312 27.1845 17.4084C27.183 17.4077 27.1802 17.4052 27.1769 17.4045C27.1784 17.4045 27.1784 17.4052 27.1784 17.4052C27.1785 17.407 27.1755 17.407 27.1749 17.4079Z" fill="white"/>
<path d="M19.4722 22.8192C19.4722 22.8192 22.3472 23.7082 23.7222 22.1109C25.0972 20.5137 27.4722 22.9582 27.6248 23.6804C27.7778 24.4025 24.0555 26.4025 22.9305 26.4442C21.8055 26.4859 17.3472 25.8887 17.3472 25.4304C17.3472 24.972 19.4722 22.8192 19.4722 22.8192Z" fill="white"/>
<path d="M31.2708 11.3957C30.8137 6.54705 28.5827 4.11688 26.9792 2.93738C25.294 1.82705 21.2852 0.849047 19.3958 0.93738C17.1667 1.04155 12.0187 3.47305 11.8195 3.65271C11.6297 3.82588 8.17717 9.59888 8.60417 10.6302C9.03117 11.6615 9.63617 16.5324 9.83333 16.9235C9.89333 17.0407 10.8782 20.214 11.5278 20.0972C12.1827 19.9794 12.7932 17.0852 12.764 16.861C12.6807 16.2222 11.5212 13.3434 11.6112 12.9374C11.7023 12.5325 14.7992 7.68405 15.0208 7.51371C15.1772 7.39471 20.4893 6.73405 20.5202 6.78538C20.5195 6.78388 20.5195 6.78221 20.5173 6.78071L20.5167 6.77988C20.888 6.45621 21.7492 5.60305 22.5187 5.63371C23.2875 5.66538 25.4857 5.94005 26.7277 6.80388C27.9712 7.66671 28.3552 8.51138 28.4607 8.74771C28.4598 8.74771 28.4583 8.74888 28.4575 8.74888C28.4992 8.75505 30.229 12.6874 30.736 12.7014C31.0742 12.7105 31.3265 11.9785 31.2708 11.3957Z" fill="white"/>
<path d="M29.1189 14.6196C28.9344 14.6411 28.4299 14.6871 28.3742 14.6941C28.2752 14.707 28.2777 14.763 28.2839 14.805C28.289 14.8483 28.3047 15.0143 28.3107 15.0858C28.3169 15.1568 28.391 15.1985 28.467 15.1923C28.5435 15.187 29.026 15.1433 29.098 15.1321C29.1684 15.1206 29.2379 15.0611 29.237 15.0043C29.2355 14.9471 29.2364 14.7961 29.2355 14.7351C29.2339 14.6736 29.1884 14.6118 29.1189 14.6196Z" fill="white"/>
<path d="M9.0457 37.8059C9.14153 37.8267 9.2437 37.85 9.34237 37.873C9.12187 37.8219 8.88203 37.7695 8.74453 37.7355C8.67653 37.7183 8.56953 37.7085 8.4457 37.711C8.23903 37.7155 7.98387 37.756 7.77787 37.8595C7.51737 37.989 5.86237 38.8282 5.1687 39.1785C5.9627 40.3162 6.8487 41.3832 7.82003 42.3687C7.8807 42.1185 8.96553 40.9802 9.1182 40.313C9.3272 39.3988 8.80703 38.192 9.0457 37.8059Z" fill="white"/>
<path d="M36.6692 40.4526L35.3613 40.6213C35.3613 40.6213 36.3022 44.9651 36.554 46.0486L36.7058 46.7493C37.1608 46.5043 37.6057 46.2456 38.0428 45.9738C37.5022 43.971 36.6703 40.4526 36.6703 40.4526H36.6692Z" fill="white"/>
<path d="M44.2478 23.0728C43.5874 23.5718 43.2215 24.2458 43.2235 24.9203C43.2267 25.9201 44.0354 26.883 45.909 26.8768C46.374 26.8736 46.7842 26.8266 47.157 26.7633C47.2658 26.7456 47.3725 26.726 47.4737 26.7051L47.6915 25.7745C47.3285 25.8958 46.8697 25.9961 46.502 25.9978C45.5042 26.001 44.8352 25.4093 44.8337 24.6335C44.832 24.22 45.002 23.8568 45.3093 23.5911C45.6385 23.3065 46.1237 23.1343 46.7305 23.1343C47.211 23.1343 47.492 23.2671 47.6837 23.4568C47.7222 23.494 47.7577 23.533 47.7887 23.5738H47.945L48.2508 22.4755C47.9357 22.3715 47.4685 22.284 46.9757 22.2785C45.8282 22.2631 44.8958 22.5831 44.2478 23.0728Z" fill="white"/>
<path d="M42.6852 23.2255C42.8199 23.2255 42.9317 23.2745 43.0067 23.3386C43.0709 23.3931 43.1094 23.458 43.1094 23.514H43.2632L43.5614 22.3213H39.5122L39.4531 22.5546L39.4391 22.6113C39.4391 22.6113 39.8824 22.6611 39.7466 23.1041L38.7357 26.7764L40.4549 26.7798H40.7564L40.8329 26.4644C40.8329 26.4644 40.4549 26.3733 40.5537 26.0241C40.5584 26.0023 40.7007 25.4801 40.7857 25.1666C40.8237 25.0313 40.8507 24.9339 40.8507 24.9339L41.7761 24.9333C41.9274 24.9333 42.0434 24.9611 42.1331 24.9958C42.3184 25.0668 42.3896 25.1745 42.3896 25.1745L42.6581 24.0831H41.0981L41.2666 23.4598L41.3299 23.2273L42.6852 23.2255Z" fill="white"/>
<path d="M37.7652 26.1211C37.6453 25.9927 36.605 24.3722 36.605 24.3722L38.4448 22.8997L38.5058 22.8507C38.5882 22.7819 38.6657 22.7332 38.7335 22.6979C38.929 22.5974 39.055 22.6117 39.055 22.6117L39.1288 22.3182L36.764 22.3217L36.7052 22.5542L36.6912 22.6117C36.8518 22.6229 37.0762 22.7666 36.8928 22.9377C36.8688 22.9582 34.9922 24.3922 34.9922 24.3922L35.0068 24.3416L35.397 22.9281C35.4795 22.6457 35.7828 22.6117 35.7828 22.6117L35.857 22.3209L33.5993 22.3216L33.5413 22.5541L33.5265 22.6116C33.6345 22.6394 33.9428 22.6992 33.836 23.1044C33.0825 25.8274 33.1687 25.5579 33.1177 25.7062C32.949 26.3517 32.696 26.4406 32.5438 26.4571C32.5107 26.4602 32.482 26.4602 32.4612 26.4614L32.4302 26.5834L32.3823 26.7764H34.443H34.7437L34.8225 26.4567C34.8225 26.4567 34.4478 26.3826 34.5192 26.1122C34.5555 25.9764 34.6502 25.6317 34.7337 25.3276C34.8147 25.0324 34.8865 24.7737 34.8865 24.7737C35.296 25.4302 35.3902 25.5114 35.8845 26.1896C36.3393 26.8169 36.8255 26.7876 37.9992 26.7796C38.0948 26.7789 38.1938 26.7781 38.3005 26.7781L38.3785 26.4644C38.081 26.4662 37.884 26.2491 37.7652 26.1211Z" fill="white"/>
<path d="M48.9 22.3984C48.8413 22.3409 48.7718 22.3122 48.6883 22.3122C48.6065 22.3122 48.537 22.3409 48.4781 22.3984C48.4208 22.4559 48.3915 22.5265 48.3915 22.6089C48.3915 22.6919 48.4208 22.7622 48.4781 22.8209C48.5355 22.8785 48.6065 22.9085 48.6883 22.9085C48.7718 22.9085 48.8413 22.8784 48.9 22.8209C48.9581 22.7622 48.9873 22.6919 48.9873 22.6089C48.9882 22.5265 48.958 22.4559 48.9 22.3984ZM48.8708 22.7915C48.8213 22.842 48.7597 22.8677 48.6885 22.8677C48.6175 22.8677 48.5571 22.8422 48.5078 22.7915C48.4583 22.7417 48.4328 22.6807 48.4328 22.6089C48.4328 22.5385 48.4583 22.4775 48.5078 22.4277C48.558 22.3772 48.6175 22.3517 48.6885 22.3517C48.7597 22.3517 48.8198 22.3772 48.8708 22.4277C48.9203 22.4775 48.945 22.5385 48.945 22.6089C48.945 22.6805 48.9203 22.7417 48.8708 22.7915Z" fill="white"/>
<path d="M48.8235 22.5385C48.8235 22.4975 48.8059 22.4699 48.7732 22.4555C48.7515 22.4485 48.7237 22.4447 48.6837 22.4447H48.5692V22.7719H48.6257V22.6425H48.671C48.7025 22.6425 48.7234 22.6464 48.7369 22.6534C48.7562 22.666 48.767 22.6909 48.7662 22.7287V22.7539L48.7687 22.765C48.7687 22.7665 48.7687 22.7674 48.7687 22.7689C48.7687 22.7689 48.7687 22.7704 48.7704 22.772H48.8235L48.8227 22.7674C48.8195 22.765 48.8195 22.7597 48.8182 22.7507V22.727V22.7024C48.8182 22.6857 48.812 22.6675 48.7999 22.6509C48.789 22.6342 48.7687 22.623 48.7442 22.6192C48.7642 22.616 48.7797 22.6115 48.7912 22.6034C48.8119 22.5892 48.8235 22.568 48.8235 22.5385ZM48.7325 22.5959C48.721 22.6005 48.703 22.602 48.6794 22.602H48.6262V22.4842H48.6749C48.7072 22.4835 48.7312 22.488 48.7459 22.4962C48.7599 22.5039 48.7675 22.5205 48.7675 22.5445C48.7672 22.5689 48.7555 22.5862 48.7325 22.5959Z" fill="white"/>
<path d="M45.5834 31.5836C42.4722 30.6391 36.0834 30.8614 36.0834 30.8614L41.3055 43.1669C41.3055 43.1669 41.7892 42.9244 41.8495 43.0567C44.6827 40.4081 46.8825 37.0961 48.2017 33.3657C48.0977 33.2857 48.6946 32.5281 45.5834 31.5836Z" fill="white"/>
<path d="M34.9738 46.1035C34.7406 44.8771 33.8128 40.8203 33.8128 40.8203C33.8128 40.8203 35.0446 40.4966 35.3334 39.7915C35.6223 39.0866 34.9686 38.0006 34.9376 37.5726C34.8041 36.295 34.3021 31.0621 33.4793 29.9788C33.0001 29.348 30.7966 28.1033 30.6251 28.1108C29.8334 28.1455 28.2501 31.5935 26.9271 31.906C26.0453 32.1143 25.4224 31.2565 25.5651 31.3213C25.5626 31.3195 25.5596 31.318 25.5581 31.3165C25.5581 31.3165 25.5596 31.2178 25.4121 30.7543C25.2646 30.2891 24.9556 29.8011 24.8984 29.6908C24.8429 29.5801 24.6753 29.3393 24.6694 29.3116C24.6648 29.2845 24.6038 29.1293 24.5606 28.8466C24.4784 28.3013 24.5161 27.936 24.5193 27.9028C24.5209 27.8695 24.5361 27.7706 24.5406 27.7506C24.5441 27.7296 24.5359 27.6941 24.5108 27.688C24.4844 27.6835 24.4141 27.6663 24.3406 27.742C24.1873 27.8966 24.1803 27.926 24.1774 27.9521C24.1721 27.9766 24.1879 28.0233 24.1833 28.0773C24.1666 28.2488 24.1366 28.38 24.0598 28.5051C23.9833 28.6318 23.9334 28.6753 23.8251 28.665C23.7149 28.655 23.6233 28.5676 23.6099 28.3415C23.5956 28.1155 23.5511 28.038 23.5058 27.9846C23.4606 27.929 23.3576 27.9035 23.3224 27.9056C23.2878 27.9056 23.2588 27.9366 23.0204 27.9951C22.7841 28.0553 22.4084 28.0755 22.3531 28.0778C22.2966 28.0811 22.0904 28.102 22.0889 28.1025C22.1321 28.2638 21.2226 28.0158 21.0696 28.1385C20.7571 28.3885 20.6111 30.0118 20.4584 30.8536C20.4583 30.8543 20.4583 30.8551 20.4581 30.8561L15.3334 31.3748L13.5417 35.5415C13.5417 35.5415 14.0834 43.7915 14.0834 43.9165C14.0834 44.0415 25.4168 41.4581 25.4168 41.4581L29.6926 41.3656C29.6926 41.3656 29.6936 41.3688 29.6944 41.377C29.7246 41.6235 30.1986 45.561 30.2951 46.1775L30.6156 48.4258C30.6419 48.6168 30.6713 48.81 30.7036 49.0005C31.1996 48.886 31.6908 48.7588 32.1751 48.6136C32.1358 48.3601 32.0953 48.1045 32.0508 47.8403C31.9873 47.5198 31.9433 47.2116 31.8916 46.9003L31.7559 46.1278C31.6323 45.3986 30.9156 41.1923 30.9156 41.1923L31.6668 40.718L32.5361 40.9836C32.5593 41.0903 32.5824 41.206 32.6088 41.3313C32.7871 42.204 33.0304 43.5125 33.4099 45.2766L33.6981 46.9898C33.7059 47.0625 33.7988 47.5553 33.8843 48.0341C34.3414 47.8586 34.7918 47.6695 35.2359 47.4686L34.9738 46.1035Z" fill="white"/>
<path d="M26.4792 14.8474C25.5347 14.9862 24.1597 15.7571 24.2222 16.3196C24.2607 16.6682 26.2305 16.7216 27.118 16.7849C28.0055 16.8482 28.152 15.9951 28.1043 15.5314C28.0567 15.0677 27.4732 14.7014 26.4792 14.8474Z" fill="white"/>
<path d="M32.9244 29.9899C32.4555 29.941 32.6734 30.701 32.6679 30.778V30.7795C32.905 31.674 33.1019 32.5664 33.2542 33.374C33.256 33.4537 33.262 33.5235 33.2719 33.5802C33.339 33.9322 33.478 35.0699 33.7454 37.6397C33.8072 38.4955 33.8612 39.3884 33.8969 40.1392C33.9212 40.1375 35.4999 40.229 35.4999 40.229C35.4999 40.229 35.4374 38.0207 34.9477 35.2499C34.458 32.4792 33.7239 30.0732 32.9244 29.9899Z" fill="white"/>
<path d="M28.6678 23.0314C28.7388 22.6406 28.6575 22.4474 28.5295 22.2189C28.4036 21.9911 28.1603 21.7779 27.8458 21.5713C27.5416 21.3689 26.8541 20.7623 26.7875 20.7049C26.7225 20.6489 26.4015 20.3454 26.3271 20.2851C26.2498 20.2256 26.1 20.1009 25.771 19.9341C24.9738 19.5321 24.3328 19.8329 24.308 19.8468C24.2836 19.8604 24.1653 19.9561 24.052 20.0638C23.9403 20.1696 24.0241 20.3743 24.067 20.4489C24.067 20.4489 28.2976 23.5501 28.3061 23.6224L28.3093 23.6248C28.3093 23.6248 28.609 23.3508 28.6678 23.0314Z" fill="white"/>
<path d="M26.9175 19.2118C26.7785 19.2547 26.6987 19.299 26.6595 19.3432C26.6518 19.352 26.6488 19.3617 26.6457 19.371C26.6423 19.3783 26.6423 19.386 26.6423 19.3933C26.6423 19.3995 26.6423 19.4048 26.6423 19.4103C26.6438 19.4177 26.6468 19.4238 26.6485 19.4305C26.6522 19.4382 26.6562 19.4463 26.6608 19.454C26.664 19.459 26.667 19.4645 26.6713 19.4698C26.6775 19.4795 26.6862 19.4887 26.6947 19.4983C26.6983 19.503 26.7025 19.5068 26.707 19.5112C26.7177 19.5218 26.7295 19.5332 26.7427 19.5443C26.7458 19.5475 26.7488 19.5505 26.7527 19.5528C26.7675 19.5657 26.783 19.5775 26.7982 19.5903C26.8013 19.5918 26.8027 19.5935 26.806 19.5958C26.8245 19.6093 26.8432 19.6217 26.8617 19.6343C26.8623 19.6352 26.8632 19.6352 26.864 19.6358C26.8848 19.6493 26.9048 19.6622 26.9242 19.6748C26.945 19.6872 26.9743 19.6937 27.01 19.6945C27.0438 19.696 27.0857 19.6913 27.1307 19.6833C27.279 19.654 27.4688 19.5792 27.6295 19.5022C27.6295 19.503 27.6278 19.5022 27.6263 19.503C27.617 19.5062 27.3228 19.0207 27.3343 19.0063C27.2327 19.084 27.1028 19.1535 26.9175 19.2118Z" fill="white"/>
<path d="M21.2368 22.1131C21.2484 22.1178 21.2588 22.1246 21.2708 22.1293C21.2693 22.1278 21.2683 22.127 21.2674 22.1255C21.2073 22.063 21.2026 22.049 21.1816 21.964C21.1588 21.8755 21.1009 21.767 21.0766 21.7056C21.0504 21.6438 20.9341 21.4341 20.8893 21.2983C20.8446 21.1623 20.8244 21.0793 20.8154 20.943C20.7808 20.8401 20.7544 20.6355 20.7703 20.4505C20.7838 20.2868 20.8201 20.0983 20.9239 19.5685C20.9943 19.2205 20.8841 18.8196 20.8803 18.4485C20.8769 18.1623 20.8486 17.459 20.8564 16.7511V16.7488C20.8074 16.7655 14.5069 15.4138 14.5513 15.4071C14.5521 15.4071 14.5538 15.4063 14.5551 15.4063C14.6049 14.8846 14.5748 14.1828 14.5466 13.6506C14.7096 12.0521 14.9554 10.2018 15.5203 8.96831C15.9568 8.01981 15.8984 8.33231 16.1141 7.88531C16.1261 7.86131 16.1419 7.83314 16.1444 7.79998C16.1468 7.77764 16.1284 7.65214 16.1248 7.61231C16.1248 7.61164 16.1248 7.61164 16.1248 7.61081C16.1119 7.61464 14.5764 7.18464 12.6659 11.5695C11.8663 13.4065 12.9304 18.0001 12.9304 18.0001L14.5936 18.5523L15.6769 17.9638L18.2394 17.4378L19.2863 17.9483C19.2863 17.9483 18.9639 18.9285 18.9613 18.9285C18.9613 18.9291 18.9604 18.9291 18.9604 18.9291C18.9604 18.9291 18.9613 18.9751 18.9559 19.047C18.9379 19.3991 18.7433 19.7533 18.5809 19.948C18.3621 20.213 17.9786 20.398 17.7603 20.5001C17.5403 20.6006 17.1861 20.6755 17.1653 20.679C17.1464 20.6835 17.0286 20.6995 17.0094 20.7025C16.9904 20.704 16.9541 20.716 16.9036 20.726C16.8511 20.735 16.7936 20.7365 16.7649 20.7485C16.7506 20.7538 16.7398 20.7608 16.7309 20.769C16.7151 20.7818 16.7066 20.7968 16.7024 20.8135C16.7016 20.815 16.7009 20.8181 16.7009 20.8205C16.6976 20.8363 16.6976 20.8521 16.7001 20.8665C16.7106 20.9186 16.7671 20.9913 16.7738 21.004C16.7974 21.0491 16.9333 21.1781 17.1558 21.1283C17.4484 21.0626 17.6376 21.004 17.8329 20.941C18.0299 20.8768 18.2911 20.7638 18.3309 20.729C18.3714 20.6953 18.4798 20.6126 18.4971 20.6031C18.4971 20.6023 18.4978 20.6023 18.4978 20.6023C18.5203 20.5818 18.5416 20.5625 18.5628 20.5443C18.5718 20.5366 18.5808 20.527 18.5899 20.52C18.5921 20.5181 18.5936 20.5166 18.5959 20.5148C18.6304 20.9276 18.1353 22.1671 18.1353 22.1671C18.1353 22.1671 16.9816 22.5776 17.0548 22.5233C17.0548 22.5233 17.0534 22.5233 17.0534 22.524C16.9596 22.57 16.8216 22.6198 16.6819 22.5105C16.6819 22.5105 16.5461 22.3518 16.3798 22.1413C16.2801 22.0155 16.1701 21.8718 16.0706 21.7316C16.0003 21.6328 15.9501 21.5521 15.9131 21.4856C15.8413 21.3633 15.8126 21.2848 15.7999 21.2358C15.7984 21.232 15.7968 21.2276 15.7968 21.2246C15.7658 21.1431 15.7399 21.0111 15.7399 21.0111C15.5318 20.9853 15.3128 20.9378 15.1106 20.864C15.1121 20.8646 15.1121 20.8666 15.1138 20.8681C15.1306 20.8831 13.6849 21.1985 13.6849 21.1985L15.1808 27.2923C15.1808 27.2923 17.9724 31.6811 19.7224 30.834C19.9833 30.7076 20.4374 29.8181 20.2503 29.5145C20.0579 29.2033 17.0974 24.2923 17.0974 24.2923C17.0974 24.2923 21.1969 22.0955 21.2368 22.1131Z" fill="white"/>
<path d="M26.9114 38.6767C27.4582 39.0397 27.6484 39.1247 28.2462 39.3747C28.4364 39.4644 28.9382 39.3624 29.1529 39.041C29.149 39.0427 29.1452 39.0472 29.1422 39.0497C29.1405 39.0504 29.1405 39.0504 29.139 39.0504C29.125 39.0589 26.1622 36.734 25.776 36.5965C25.6385 36.5479 24.8819 36.8255 24.9792 36.9654C25.0664 37.0912 25.4322 37.4724 25.4409 37.487C25.9574 37.8887 26.607 38.4247 26.9114 38.6767Z" fill="white"/>
<path d="M20.6111 34.389L15.6562 31.5522C15.6562 31.5522 15.8007 32.9577 15.7999 32.9797C15.8007 32.9805 15.8007 32.9805 15.8014 32.9815C16.1629 33.3049 16.7291 33.6922 16.8186 33.753C16.8516 33.7749 17.0819 33.9269 17.1311 33.9819C17.1919 34.048 17.8033 34.4829 17.8499 34.5154C17.8946 34.5457 18.5548 34.91 18.9548 35.123C18.9691 35.1152 18.6764 35.3548 18.6809 35.3472C18.5403 35.3565 18.4383 35.4212 18.2831 35.4707C17.5886 35.8608 18.0008 36.6725 18.0663 37.238C18.1991 37.7145 18.3669 38.5418 18.9848 38.619C19.4551 38.6755 20.5318 38.3812 21.1009 38.2645C21.1816 38.1218 22.0068 38.0707 21.9966 38.0822C22.1423 38.0387 22.3376 37.97 22.3968 37.981C22.4323 37.9872 22.2678 38.1618 22.1724 38.3402C22.0766 38.5202 21.4843 40.2688 20.9328 41.2003C20.7478 41.5818 20.8354 41.4243 20.7228 41.7017V41.7025L21.8403 41.9583L23.6458 37.3748L20.6111 34.389Z" fill="white"/>
<path d="M14.9904 37.952C15.1827 38.3089 15.7369 39.0574 15.764 39.0999C15.791 39.1415 15.9104 39.27 16.051 39.4274C16.192 39.584 16.3129 39.721 16.3469 39.761C16.3809 39.7997 16.645 40.0739 16.7132 40.1367C16.7812 40.1992 16.86 40.3267 16.9172 40.3799C17.1127 40.5554 17.8325 41.181 17.902 41.2327C17.9715 41.2857 18.3149 41.5159 18.3767 41.5244C18.995 41.6027 19.2985 41.264 19.3612 41.1637C19.4245 41.0657 19.4365 41.0234 19.3975 40.8764C19.3967 40.8869 17.0105 39.094 15.4272 35.646C15.3659 35.5125 14.8167 34.8475 14.3125 35.2502C13.8985 35.5809 14.1979 36.3732 14.1979 36.3732V36.3777C14.355 36.7024 14.8259 37.6477 14.9904 37.952Z" fill="white"/>
<path d="M10.3055 38.2918C10.4651 37.6945 9.14096 37.8276 9.04546 37.806C8.63262 38.4741 8.19446 40.7435 7.97129 41.8063C7.93262 41.926 7.88062 42.1183 7.81946 42.367C8.12346 42.676 8.43412 42.978 8.75346 43.27C8.98396 42.3731 10.2631 38.4506 10.3055 38.2918Z" fill="white"/>
<path d="M48.7687 22.7649C48.7687 22.7667 48.7697 22.7686 48.7697 22.7694C48.7697 22.7694 48.7697 22.7712 48.7707 22.7732C48.7697 22.7714 48.7697 22.7694 48.7697 22.7694C48.7695 22.7686 48.7687 22.7669 48.7687 22.7649Z" fill="#434343"/>
<path d="M45.7595 31.3185C45.021 31.155 43.2724 30.804 40.9152 30.5875C38.5592 30.373 36.6307 30.189 36.3657 30.1603C36.123 30.1362 36.0352 29.9138 35.8149 29.8032C35.0162 29.4027 33.5069 29.031 32.561 28.698C32.327 28.617 32.1732 28.4098 31.8502 28.016C31.6539 27.7758 31.521 27.6675 31.353 27.5153C31.2524 27.4233 31.0332 27.238 30.9745 27.1932C30.9174 27.1468 30.8772 27.014 30.9267 26.756C30.9762 26.497 31.1309 25.487 31.1182 24.311C31.1149 23.9953 31.2539 23.7932 31.4017 23.7193C31.4812 23.6792 31.9987 23.449 31.9639 22.9403C31.9274 22.4255 31.7684 21.7073 32.1825 20.6965C32.5834 19.7172 33.0839 17.9692 33.1444 16.816C33.2085 15.591 32.9009 14.8008 32.4175 14.373C32.229 14.2077 32.0065 13.9578 32.1882 13.4245C32.382 12.8507 32.734 11.2835 32.3882 10.2468C32.3107 10.0167 32.2229 10.0152 32.17 9.98734C32.117 9.96034 31.8659 9.76801 31.7715 9.34501C31.6447 8.78734 31.237 6.80534 29.6999 4.79051C28.8855 3.72084 28.0159 3.08467 27.6685 2.82834C27.4305 2.67351 27.0127 2.38234 26.5129 2.11651C25.7977 1.73834 25.23 1.44984 24.0882 1.08034C23.9802 1.04634 23.7357 0.971507 23.4127 0.885341C23.4119 0.885341 23.409 0.885341 23.409 0.885341C23.409 0.885341 22.4362 0.625007 21.3842 0.502174C21.2045 0.485507 20.9587 0.462841 20.6797 0.443841C19.5967 0.380507 19.2014 0.447007 18.6382 0.503674C18.578 0.509507 18.5167 0.518674 18.4562 0.526841C18.3439 0.541841 18.2277 0.559174 18.1062 0.578174C16.4329 0.864674 14.7305 1.64951 13.9025 2.04434C13.435 2.26634 13.0215 2.49734 12.6412 2.71401C12.6307 2.72067 12.6172 2.72834 12.6102 2.73251C12.5122 2.79234 12.3587 2.87784 12.209 2.96001C11.975 3.09201 11.7514 3.21567 11.5347 3.32151C10.8645 3.64751 10.275 3.81434 9.84403 3.96384C9.7657 3.99317 9.7002 4.01801 9.64937 4.03534C9.3387 4.15634 9.1407 4.28134 9.10437 4.48751C9.03803 4.85751 9.47353 5.20084 9.31803 5.79101C8.9352 7.24234 7.29703 8.63534 7.03437 8.79601C6.27353 9.26034 6.32103 9.58351 6.2917 9.74884C6.2917 9.90251 6.3232 10.0732 6.4107 10.2575C6.6642 10.7947 7.1332 11.255 7.3627 11.7405C7.59287 12.2263 7.72403 13.0778 7.55187 14.0732C7.38753 15.0357 7.33603 15.2492 7.25053 15.4257C7.16553 15.6028 6.99403 15.947 7.23053 16.3563C7.46803 16.7668 7.96853 17.1855 8.28253 17.4265C8.44953 17.5555 8.53603 17.6725 8.4122 17.905C8.2082 18.2855 8.26037 19.1827 8.45353 19.6847C8.7452 20.4505 9.0877 21.1805 9.40553 21.6497C9.7237 22.1185 10.2914 22.9165 10.6252 23.2052C10.9577 23.4957 11.0034 23.9992 10.9969 24.3117C10.9899 24.6225 10.9462 25.5038 11.8519 26.0553C12.2982 26.3297 12.3382 26.2607 12.5019 26.3952C12.6655 26.5273 12.7425 26.596 12.8557 26.9528C12.9689 27.3083 13.4837 28.5548 14.1925 29.4323C14.3994 29.6872 14.5142 29.8678 14.5389 29.9097C14.5639 29.9513 14.6024 29.9977 14.5127 30.2077C14.4235 30.4178 14.0657 31.6142 13.7802 32.8508C13.728 33.0777 13.6514 33.3758 13.3669 33.5158C13.0819 33.6532 12.4454 34.0048 12.2137 34.1328C11.9805 34.261 11.8655 34.3307 11.5974 34.6642C11.478 34.8125 11.3912 34.8995 11.3159 34.99C11.2725 35.0423 11.2534 35.0758 11.0267 35.194C10.8304 35.296 7.9167 36.3212 4.82703 38.2112C4.75053 38.2573 4.67903 38.2983 4.60803 38.3378C4.79003 38.622 4.9757 38.9035 5.16887 39.1783C5.86253 38.8277 7.51737 37.9888 7.77753 37.8592C7.98287 37.7557 8.23837 37.7155 8.44487 37.7105C8.5692 37.7082 8.67587 37.7183 8.7437 37.7352C8.88237 37.7692 9.12103 37.8218 9.3427 37.8725C9.3632 37.877 9.3837 37.882 9.40487 37.8865C9.41853 37.8897 9.43203 37.8927 9.4462 37.8967C9.5377 37.9192 9.62237 37.9393 9.6907 37.9577C9.69453 37.9592 9.6977 37.9592 9.70153 37.9608C9.7347 37.9703 9.76487 37.9785 9.78803 37.9855C9.98487 38.0503 10.0895 38.4195 9.98303 38.7555C9.9642 38.8188 9.90287 39.032 9.81303 39.3472C9.76837 39.5055 9.7172 39.6878 9.6612 39.8902C9.60487 40.0927 9.54337 40.3153 9.47853 40.5517C9.2507 41.3795 8.9832 42.373 8.75303 43.2698C9.3697 43.832 10.0167 44.3612 10.689 44.8583C10.7644 44.2762 10.8435 43.6698 10.9049 43.2288C11.0655 42.0782 11.9847 37.8157 12.2442 36.8465C12.433 36.1413 12.5312 35.82 12.7794 35.7088C12.8539 35.6765 12.9385 35.627 12.9875 35.603C13.0365 35.5803 13.1439 35.5543 13.1107 35.7412C13.0727 35.9628 12.8814 36.8673 12.5999 39.8023C12.4044 41.8385 12.3997 43.6418 12.47 44.7265C12.5004 45.1883 12.5082 45.8412 13.2149 45.5582C14.0405 45.2283 16.8552 44.219 18.3589 43.7557C20.78 43.0088 25.318 42.0113 29.6919 41.3658L30.9149 41.192C30.9149 41.192 31.6309 45.399 31.7542 46.1282L31.89 46.9L31.7555 46.1282C31.6312 45.399 30.916 41.192 30.916 41.192C31.0874 41.1685 31.2599 41.1465 31.4297 41.1248C31.8214 41.0753 32.189 41.0292 32.535 40.9842L33.8125 40.8205C34.4104 40.744 34.9232 40.6783 35.3579 40.6215C35.3579 40.6215 36.1835 44.4385 36.494 45.8097C36.5157 45.8998 36.5342 45.9812 36.5497 46.0492L36.7025 46.7498C36.7034 46.7498 36.7042 46.7498 36.7049 46.7498L36.5529 46.0492C36.3009 44.9647 35.3604 40.6217 35.3604 40.6217L36.6682 40.4532C37.055 40.4038 37.5479 40.342 37.6947 40.335C38.002 40.3222 38.1362 40.1483 37.9015 40.0778C37.7322 40.0283 37.3409 39.9892 37.1429 39.9843C37.0674 39.9835 36.9299 39.9818 36.8477 39.9805C36.545 39.9752 36.4585 39.9155 36.392 39.4693C36.2035 38.1607 35.4745 34.917 34.951 33.2068C34.4444 31.557 34.3192 31.082 34.1972 30.7187C34.0905 30.4058 34.2972 30.3867 34.3965 30.3912C34.7657 30.4088 35.277 30.6005 35.4237 30.9163C35.7482 31.62 37.968 37.4343 38.8594 39.602C39.4217 40.9675 40.0767 42.6113 40.6954 44.0757C41.0917 43.7498 41.474 43.4067 41.8485 43.0562C40.697 40.5243 38.1334 34.7887 36.7817 31.886C36.733 31.7815 36.6674 31.6123 36.6342 31.513C36.6227 31.4798 36.6179 31.4503 36.6179 31.4242C36.6195 31.239 36.8644 31.2132 36.9855 31.225C37.4627 31.2728 41.7975 31.5587 42.981 31.6717C43.762 31.7455 44.5412 31.8647 45.0617 31.9575C45.1824 31.9798 45.2885 32 45.3782 32.0177C45.4894 32.0398 45.5729 32.0575 45.6269 32.0723C46.013 32.173 46.6942 32.4425 47.3249 32.7807C47.5857 32.9197 47.8825 33.1222 48.2007 33.3663C48.2965 33.0942 48.392 32.8215 48.4789 32.546C48.2519 32.3885 47.9967 32.2277 47.7464 32.0932C47.0262 31.7093 46.4184 31.4652 45.7595 31.3185ZM10.4627 16.9433C10.3449 16.994 10.2384 17.0075 10.1569 16.8468C9.9592 16.456 9.80903 15.76 9.7517 15.3078C9.6927 14.856 9.60237 13.5073 9.63087 12.7705C9.66237 12.0332 9.51837 11.6212 9.25487 11.2685C8.9907 10.9163 8.82087 10.6718 8.75603 10.5532C8.67453 10.4052 8.72903 10.304 8.88487 10.191C8.96053 10.138 9.11503 10.1698 9.23453 10.145C9.47087 10.0975 10.26 9.81134 10.848 9.35017C11.4347 8.88901 12.3697 7.99701 13.0042 7.65367C13.6367 7.31034 13.9175 7.15384 14.6579 7.06501C14.7892 7.04967 14.9862 7.11984 14.7639 7.28901C14.5417 7.45817 13.8292 7.71067 12.9984 8.96434C12.4882 9.73134 12.405 10.1743 12.2435 10.5185C12.0812 10.8625 11.926 10.9598 11.6692 11.2383C11.5442 11.3712 11.2895 11.6503 11.1977 12.0552C11.1085 12.4603 10.7397 13.8877 10.9564 16.0465C10.9819 16.2978 11.0854 16.6323 10.8497 16.754C10.7042 16.8295 10.5794 16.8935 10.4627 16.9433ZM11.48 19.8522C11.3545 19.763 10.8415 19.0685 10.5917 18.2967C10.5642 18.2152 10.5342 18.0078 10.6694 17.9487C10.7802 17.9012 10.9274 17.8158 11.0039 17.7795C11.0814 17.7405 11.2745 17.6898 11.3012 17.9683C11.3282 18.2475 11.3525 18.5765 11.6707 19.4C11.7284 19.5472 11.7402 19.5932 11.7552 19.6522C11.7964 19.8232 11.5962 19.9348 11.48 19.8522ZM12.525 17.2295C12.491 17.2353 12.139 17.2778 11.9492 17.3133C11.8314 17.335 11.71 17.379 11.6965 17.2655C11.6807 17.1365 11.6429 16.9662 11.6317 16.9202C11.6215 16.8723 11.6445 16.827 11.7015 16.8135C11.8414 16.7812 12.3817 16.6903 12.4339 16.6877C12.486 16.687 12.5389 16.7047 12.5615 16.8128C12.582 16.9213 12.608 17.0368 12.6142 17.0838C12.6205 17.1322 12.634 17.2128 12.525 17.2295ZM12.717 15.4665C12.6845 15.302 12.639 15.0203 12.6537 14.845C12.6587 14.7752 12.6799 14.6005 12.7637 14.5063C12.8822 14.372 13.0397 14.2498 13.1419 14.1672C13.3277 14.015 13.289 13.6212 13.3025 13.3952C13.3435 12.7387 13.2852 10.6655 14.6305 8.68201C14.6824 8.60667 14.7352 8.53717 14.7872 8.47151C14.803 8.45184 14.8189 8.43367 14.8347 8.41434C14.8734 8.36884 14.9119 8.32501 14.9517 8.28451C14.9684 8.26634 14.9849 8.24901 15.0024 8.23234C15.0499 8.18551 15.0982 8.14084 15.1464 8.10034C15.1534 8.09484 15.1595 8.08867 15.166 8.08301C15.2205 8.03901 15.2752 7.99917 15.3295 7.96134C15.3492 7.94851 15.3689 7.93584 15.3885 7.92434C15.426 7.89967 15.4639 7.87751 15.5017 7.85601C15.5232 7.84434 15.5445 7.83234 15.5665 7.82117C15.6079 7.80001 15.6504 7.78017 15.6924 7.76134C15.7084 7.75467 15.724 7.74701 15.7399 7.73967C15.7944 7.71684 15.8504 7.69651 15.9059 7.67751C15.9297 7.66934 15.9527 7.66251 15.9762 7.65517C16.0135 7.64351 16.0507 7.63234 16.0879 7.62201C16.1005 7.61884 16.1122 7.61434 16.125 7.61117C16.125 7.61184 16.125 7.61184 16.125 7.61267C16.3989 7.53967 16.6797 7.49867 16.9634 7.45051C17.7642 7.31451 18.6977 7.44167 19.1779 7.59451C19.5595 7.71534 19.7529 7.80801 19.8805 7.68751C20.0087 7.56751 20.343 7.18851 20.4849 7.05417C20.5044 7.03517 20.5197 7.01434 20.5302 6.99384C20.5345 6.98684 20.5369 6.97967 20.54 6.97267C20.5452 6.95917 20.5497 6.94484 20.5519 6.93067C20.5527 6.92301 20.5544 6.91484 20.5544 6.90634C20.5544 6.89284 20.5527 6.87934 20.5505 6.86501C20.549 6.85801 20.549 6.85001 20.5455 6.84301C20.5404 6.82334 20.5317 6.80434 20.5199 6.78617C20.4887 6.73434 20.4392 6.68817 20.3779 6.65134C20.2222 6.55984 18.6592 5.41284 16.5522 5.36151C14.4934 5.31001 12.8224 6.03851 12.3792 6.19101C12.2895 6.22117 12.2435 6.23701 12.1909 6.23767C12.1387 6.23917 11.959 6.17784 12.0255 6.04801C12.0985 5.90934 12.2812 5.69584 12.471 5.52284C12.6702 5.34334 13.6444 4.42634 14.6065 4.00167C14.7845 3.92367 14.8279 3.89117 14.9419 3.84684C15.0875 3.79167 15.1737 3.46334 14.8519 3.46251C14.522 3.46017 14.3907 3.49717 14.2165 3.52434C14.042 3.55334 13.9462 3.47534 14.0564 3.32584C14.1652 3.17684 14.3804 3.01151 14.7687 2.80067C15.6119 2.34117 17.1542 1.85684 17.8834 1.69734C18.8342 1.48917 18.9504 1.47567 19.5814 1.43701C20.1715 1.40301 20.6435 1.44467 20.8669 1.45367C22.7574 1.52551 24.9345 2.15117 26.62 3.26101C28.2227 4.44017 30.5292 6.40467 30.9864 11.2542C31.0412 11.8362 31.0027 12.166 30.9802 12.3117C30.9602 12.4573 30.7949 12.7252 30.6497 12.421C30.1715 11.4188 29.4324 10.1073 28.5982 8.86417C28.5487 8.79034 28.4984 8.75484 28.4575 8.74951C28.4404 8.74601 28.4259 8.74884 28.4112 8.75501C28.4075 8.75734 28.405 8.76117 28.4012 8.76384C28.3932 8.77001 28.3847 8.77767 28.3785 8.78817C28.3754 8.79551 28.3715 8.80317 28.3692 8.81101C28.3654 8.82151 28.363 8.83334 28.3615 8.84501C28.3599 8.85551 28.3582 8.86517 28.3582 8.87601C28.3582 8.90067 28.3599 8.92784 28.3669 8.95751C28.3877 9.04551 28.6534 10.3605 28.6632 10.5437C28.6747 10.7263 28.5852 11.1747 29.2664 12.002C29.5445 12.3415 29.7915 12.6315 29.9184 13.1323C30.0434 13.6313 30.0859 13.8448 30.0867 13.8978C30.0885 13.95 30.1485 14.0987 29.9075 14.1002C29.668 14.1008 28.7535 14.0345 28.3622 14.0433C27.9705 14.0527 25.2674 14.3178 24.2617 14.5315C23.2559 14.7455 22.7147 14.9988 22.1982 15.5415C22.0739 15.672 21.9 15.7937 21.8605 15.8048C21.8232 15.8153 21.692 15.8125 21.4357 15.7952C21.1804 15.7785 20.7375 15.8412 20.505 15.9462C20.271 16.0508 20.1042 16.1482 19.8224 16.0333C19.4195 15.8703 18.7285 15.1262 16.9344 15.2138C15.8544 15.2667 15.301 15.2962 14.5515 15.407C14.5079 15.414 14.4627 15.4205 14.4179 15.4275C14.3894 15.4322 14.3599 15.4367 14.3307 15.4417C14.3149 15.444 14.2984 15.4463 14.2817 15.4493C13.9765 15.4992 13.6319 15.5633 13.2064 15.6463C13.1474 15.6575 13.0894 15.6695 13.0284 15.681C12.8625 15.7142 12.7479 15.6398 12.717 15.4665ZM29.2379 15.0038C29.2379 15.061 29.1684 15.1202 29.0972 15.1322C29.0269 15.1433 28.5442 15.1875 28.467 15.1932C28.3914 15.1985 28.3172 15.1568 28.3109 15.0855C28.3047 15.0152 28.289 14.8483 28.2847 14.8047C28.2769 14.7637 28.2752 14.7065 28.3735 14.6938C28.4307 14.6868 28.934 14.6417 29.1197 14.6197C29.1892 14.6115 29.2347 14.6742 29.2364 14.735C29.2364 14.796 29.2364 14.9472 29.2379 15.0038ZM26.9802 15.5457C26.8309 15.4407 26.5684 15.2753 26.4094 15.2173C26.2997 15.178 26.338 15.0408 26.4944 15.0188C27.0382 14.9397 27.387 14.9397 27.6575 15.1085C27.8554 15.231 27.9867 15.4688 27.9262 15.6785C27.855 15.9192 27.7609 15.867 27.6427 15.865C27.5245 15.8628 27.1277 15.6512 26.9802 15.5457ZM27.2945 16.6067C27.1989 16.6712 26.886 16.6137 26.7724 16.5692C26.5392 16.4777 26.3737 16.4143 26.0494 16.2085C25.8375 16.0742 25.4694 16.0077 25.1472 16.105C24.9349 16.1692 24.7642 16.2228 24.5772 16.295C24.3899 16.3668 24.3515 16.1962 24.4005 16.1232C24.4489 16.0503 24.7454 15.7032 25.1387 15.5555C25.2214 15.5238 25.3897 15.5065 25.4724 15.5048C25.7259 15.4975 26.04 15.6212 26.278 15.7948C26.518 15.9698 26.899 16.2552 27.1494 16.3622C27.2667 16.4127 27.5215 16.4498 27.2945 16.6067ZM19.4755 25.0488C18.5269 25.381 18.2609 25.0473 18.1764 24.9483C18.0922 24.8495 18.196 24.753 18.2965 24.7062C18.5222 24.6012 18.8242 24.3725 18.9767 24.2237C19.13 24.075 19.4279 23.5575 19.6429 23.3757C19.7449 23.2888 20.2959 23.1015 20.7104 23.2992C21.2032 23.534 21.9705 23.5583 22.4417 23.497C22.9125 23.4337 23.092 23.0895 23.1942 22.8863C23.296 22.6813 23.5459 22.6063 23.6772 22.5523C24.0387 22.4045 24.5172 21.9085 24.5662 21.858C24.6152 21.8058 24.7644 21.7325 25.0015 21.8715C25.4332 22.1252 25.6527 22.4608 26.0535 22.9162C26.4544 23.3718 26.9287 23.443 27.0677 23.4518C27.2069 23.4607 27.2934 23.6218 27.2997 23.6662C27.3074 23.7105 27.1915 23.8647 27.105 23.9295C27.0182 23.9943 26.9704 24.1092 26.2029 24.1273C22.3515 24.2223 20.6185 24.6488 19.4755 25.0488ZM24.6992 25.5123C24.4707 25.6305 23.791 25.8867 23.4527 25.9518C23.1132 26.017 22.036 26.2353 21.8542 26.25C21.6279 26.2675 21.3107 26.1997 21.0354 26.0113C20.98 25.9732 20.9049 25.8252 21.1057 25.7955C21.4784 25.7402 22.08 25.4605 24.2687 25.349C24.5039 25.3368 24.6144 25.332 24.6707 25.3307C24.727 25.3295 24.9294 25.3942 24.6992 25.5123ZM19.6285 30.3715C18.8642 30.4975 16.8294 29.9005 15.5064 26.6355C15.1654 25.7957 15.5394 24.96 15.8675 24.791C16.0622 24.6922 16.1675 24.652 16.2339 24.6353C16.3059 24.6172 16.6522 24.572 16.6915 24.9617C16.7227 25.2768 17.3345 27.8645 18.1572 28.7202C18.36 28.9323 18.5204 28.9193 18.5727 28.7002C18.6177 28.4993 18.7064 28.2352 18.7322 28.1345C18.7504 28.0618 18.9489 27.8425 19.0614 28.1222C19.3034 28.7157 19.5954 29.4927 19.7872 29.8038C19.9749 30.1075 19.9145 30.3242 19.6285 30.3715ZM19.7794 21.8345C19.8512 21.9342 19.8957 22.1153 19.8902 22.1953C19.8829 22.2877 19.5672 22.4552 19.239 22.0868C18.9107 21.7177 18.9749 21.2075 19.1107 20.9908C19.3274 20.6452 19.753 20.8173 19.7119 20.9407C19.5697 21.3677 19.7064 21.7342 19.7794 21.8345ZM17.3402 17.0533C17.0947 17.0453 16.8305 17.0152 16.3824 17.1812C15.8807 17.3665 15.5582 17.6083 15.3249 17.7515C15.085 17.901 14.8312 17.9652 14.7462 17.9713C14.6617 17.9787 14.3537 17.9382 14.5659 17.7152C14.6222 17.6542 14.7574 17.6082 14.9625 17.4587C15.1092 17.3507 15.2179 17.2737 15.3847 17.1332C15.682 16.8798 16.288 16.5137 16.5522 16.4812C16.746 16.458 17.0887 16.4947 17.2925 16.6615C17.5047 16.8357 17.5862 17.0612 17.3402 17.0533ZM13.119 17.4883C13.1449 17.3277 13.3205 16.904 13.6907 16.7812C13.7405 16.7662 13.925 16.7062 14.0792 16.6665C14.261 16.6207 14.4565 16.5803 14.5562 16.5623C14.824 16.5157 14.8805 16.7195 14.7119 16.8523C14.6014 16.9403 14.4249 17.055 14.2689 17.1813C14.0317 17.3753 13.8039 17.591 13.6277 17.7375C13.4132 17.9162 13.0657 17.8182 13.119 17.4883ZM14.3765 22.1018C14.3757 22.1012 14.375 22.1003 14.375 22.1003C14.3735 22.098 14.3725 22.0965 14.3712 22.0945C14.3049 22.0013 14.2429 21.9033 14.185 21.8037C14.1729 21.7817 14.1607 21.7592 14.148 21.7372C14.0904 21.6302 14.0364 21.522 13.9939 21.4082C13.9109 21.1877 14.0499 21.1552 14.1425 21.2032C14.235 21.2527 14.5057 21.4105 14.7949 21.4715C14.9715 21.5078 15.0764 21.4232 15.1179 21.2958C15.124 21.2768 15.132 21.2533 15.1407 21.2278C15.1457 21.2167 15.1495 21.2047 15.1534 21.1923C15.1557 21.185 15.1579 21.1773 15.1607 21.1692C15.1644 21.1553 15.1677 21.1418 15.1707 21.1275C15.1732 21.1202 15.174 21.1125 15.1754 21.1052C15.1789 21.0905 15.1804 21.0762 15.182 21.0612C15.1827 21.0538 15.1827 21.0468 15.1835 21.0387C15.1835 21.024 15.182 21.0097 15.1804 20.9947C15.1795 20.9882 15.1787 20.9812 15.177 20.975C15.1735 20.9592 15.1674 20.9442 15.1604 20.9292C15.1574 20.9245 15.156 20.9195 15.1537 20.9157C15.1435 20.8983 15.1299 20.8823 15.1135 20.8673C15.092 20.8485 15.0652 20.831 15.0305 20.8175C14.7787 20.7163 14.0647 20.4908 13.5285 19.4937C13.4509 19.3527 13.5244 19.2327 13.5765 19.1905C13.6289 19.1488 13.8155 19.0298 13.9049 18.9747C13.9952 18.9193 14.1175 18.9257 14.245 19.0137C14.3675 19.1013 14.6337 19.2952 14.8472 19.2763C15.0455 19.257 15.0654 19.1757 15.1007 19.1242C15.2405 18.9202 15.6194 18.1792 16.6122 18.1672C17.0219 18.1618 17.4055 18.1997 17.5429 18.1912C17.6787 18.1823 18.1632 18.1387 18.4485 17.9445C18.7295 17.7513 18.8494 17.8903 18.687 18.1017C18.6629 18.1333 18.641 18.1612 18.6205 18.189C18.6125 18.199 18.6064 18.2078 18.599 18.2172C18.577 18.2465 18.558 18.2743 18.5414 18.301C18.4795 18.4057 18.4719 18.4963 18.5872 18.6207C18.7684 18.8133 18.8155 18.8478 18.8744 18.8933C18.9005 18.9142 18.9319 18.9265 18.9684 18.9273C18.9834 18.9273 19 18.9242 19.0167 18.9197C19.0237 18.9173 19.0305 18.9173 19.0387 18.9143C19.0637 18.9032 19.0902 18.888 19.1194 18.8633C19.2229 18.7718 19.2924 18.7173 19.3827 18.6007C19.4499 18.5145 19.5067 18.6013 19.49 18.7362C19.4769 18.8412 19.524 19.5152 18.7895 20.3438C18.7655 20.3717 18.7097 20.4177 18.6402 20.4767C18.6235 20.4902 18.6079 20.5037 18.5897 20.5195C18.5807 20.5272 18.5715 20.5362 18.5625 20.5438C18.5395 20.5638 18.5167 20.5852 18.493 20.6072C18.4742 20.6245 18.455 20.6453 18.4359 20.6643C18.4162 20.684 18.3972 20.7022 18.3774 20.7233C18.3654 20.7362 18.3534 20.7512 18.341 20.7655C18.3164 20.7933 18.2912 20.8215 18.2665 20.8523C18.2589 20.8628 18.2515 20.8735 18.2445 20.8833C18.2167 20.9197 18.1897 20.9563 18.1654 20.9948C18.1342 21.0447 18.1052 21.0968 18.0799 21.1512C17.8755 21.5872 17.902 21.731 17.8799 21.89C17.8599 22.0475 17.7375 22.1102 17.5999 22.1738C17.5169 22.212 17.2969 22.3392 17.053 22.5237L17.0544 22.5225C16.9814 22.5773 16.907 22.6383 16.8334 22.7013C16.8192 22.7142 16.8055 22.726 16.7924 22.7388C16.7187 22.8037 16.646 22.8725 16.5789 22.9442C16.5344 22.991 16.4885 23.0322 16.4425 23.0693C16.4267 23.0817 16.412 23.0913 16.3964 23.1025C16.364 23.126 16.3305 23.148 16.2975 23.1673C16.2802 23.1775 16.2615 23.187 16.2444 23.1948C16.211 23.2115 16.1779 23.225 16.1437 23.2368C16.1257 23.243 16.1082 23.2505 16.0902 23.255C16.0812 23.2573 16.0729 23.2612 16.0647 23.2638C16.0435 23.2685 16.0222 23.2692 16.001 23.2723C15.9747 23.277 15.9485 23.282 15.9217 23.2835C15.8924 23.285 15.8624 23.2835 15.8322 23.282C15.8064 23.2792 15.78 23.2792 15.7549 23.2762C15.7239 23.2715 15.6932 23.2618 15.6629 23.2533C15.6372 23.2467 15.6115 23.2413 15.5854 23.2322C15.5564 23.221 15.5277 23.205 15.4985 23.1908C15.4707 23.1773 15.444 23.1665 15.417 23.1498C15.4145 23.1478 15.4117 23.1472 15.4094 23.1457C15.3604 23.1147 15.3104 23.0785 15.2604 23.0375C15.1315 22.9267 14.9904 22.7977 14.8507 22.657C14.847 22.6528 14.8434 22.649 14.8397 22.6458C14.8359 22.642 14.832 22.6373 14.8285 22.633C14.7567 22.5603 14.6849 22.4828 14.615 22.402C14.609 22.3945 14.446 22.1983 14.3765 22.1018ZM23.2042 37.5872C23.159 37.8218 22.9675 38.6127 22.2645 40.2402C22.217 40.3498 22.1709 40.4557 22.1259 40.5578C22.115 40.5818 22.1039 40.6047 22.0934 40.6288C22.076 40.668 22.0579 40.7077 22.0407 40.7445C22.039 40.7477 22.0382 40.7507 22.0369 40.7538C22.0114 40.8105 21.9855 40.8635 21.9592 40.9163C21.9592 40.9163 21.9577 40.9178 21.9577 40.9197C21.9544 40.9258 21.9507 40.9327 21.9465 40.9395C21.9372 40.958 21.9275 40.976 21.9184 40.9935C21.9057 41.017 21.8937 41.0422 21.8802 41.0648C21.8802 41.0672 21.8794 41.068 21.8787 41.0692C21.8755 41.0738 21.8725 41.0785 21.8694 41.0847C21.8574 41.1055 21.84 41.1358 21.8392 41.1372C21.8375 41.1403 21.8354 41.1432 21.8337 41.1465C21.8337 41.1465 21.8337 41.1465 21.8337 41.1482C21.8247 41.1612 21.8169 41.1743 21.809 41.1867C21.8067 41.191 21.8045 41.196 21.802 41.1997C21.8005 41.2013 21.7994 41.2033 21.797 41.2057C21.7864 41.2233 21.775 41.2398 21.764 41.2582C21.7615 41.2607 21.7594 41.2627 21.7579 41.2652C21.7452 41.2837 21.7324 41.3017 21.7199 41.3192C21.7192 41.3192 21.7172 41.3225 21.715 41.3237C21.7044 41.3385 21.6929 41.3532 21.6819 41.367C21.6785 41.3703 21.6765 41.3732 21.6742 41.3748C21.6615 41.3918 21.648 41.4052 21.6362 41.4198C21.6344 41.4198 21.6327 41.4222 21.6314 41.4242C21.6244 41.4312 21.6162 41.4382 21.6092 41.4458H21.6085C21.6049 41.4505 21.6004 41.4543 21.5957 41.4582C21.5934 41.4605 21.5897 41.4627 21.5872 41.466C21.5737 41.4782 21.5609 41.4902 21.5474 41.4992C21.5459 41.5007 21.545 41.5015 21.5429 41.5025C21.5309 41.5125 21.5182 41.5207 21.5055 41.5285C21.502 41.5308 21.4992 41.533 21.4959 41.5347C21.4935 41.5362 21.4912 41.537 21.4897 41.538C21.487 41.5403 21.4847 41.5417 21.4824 41.5417C21.473 41.5478 21.4634 41.5532 21.4537 41.5588C21.4537 41.5588 21.4522 41.5588 21.4505 41.5595C21.4382 41.5663 21.4247 41.571 21.4104 41.5758C21.407 41.5775 21.4037 41.5792 21.3999 41.5803C21.3849 41.5848 21.3705 41.589 21.3547 41.5927C21.2087 41.6242 21.0525 41.6467 20.9612 41.6623C20.9477 41.6637 20.8542 41.6793 20.8465 41.6822C20.8084 41.6877 20.7672 41.6938 20.723 41.7015C20.723 41.7015 20.723 41.7015 20.723 41.7007C19.6679 41.8783 16.7977 42.3725 15.4664 42.6415C14.5832 42.8178 14.67 42.373 14.4484 41.5702C14.3552 41.2327 14.0272 38.2467 14.1977 36.3725C14.2549 35.7502 14.2822 35.5678 14.3939 35.4992C14.5054 35.4303 14.6762 35.3192 14.7275 35.3045C14.7775 35.2913 14.9297 35.2512 15.0007 35.3793C15.0702 35.506 16.3592 38.1212 17.2017 39.0683C17.9492 39.9125 18.4747 40.5248 19.1049 40.936C19.1465 40.9638 19.1824 40.981 19.2149 40.9917C19.218 40.9932 19.2219 40.9952 19.2255 40.9962C19.2405 41.0007 19.254 41.003 19.2669 41.0047C19.2795 41.0063 19.2912 41.0055 19.3024 41.0047C19.3057 41.004 19.3085 41.004 19.3119 41.003C19.3327 40.9985 19.3494 40.9883 19.362 40.9753C19.3635 40.9737 19.3652 40.9715 19.3675 40.9692C19.3794 40.9545 19.388 40.936 19.3924 40.916C19.3932 40.9128 19.3932 40.909 19.3932 40.9057C19.4105 40.8083 19.3642 40.6608 19.2717 40.5607C19.1327 40.4108 18.5569 39.8183 17.7984 38.7393C16.8172 37.3467 16.1524 35.2913 15.9735 34.633C15.8565 34.202 15.7909 33.5223 15.8017 32.98C15.801 32.98 15.8002 32.98 15.8002 32.98C15.801 32.956 15.8017 32.9352 15.803 32.9122C15.8037 32.895 15.8045 32.8783 15.8055 32.8603C15.807 32.8238 15.8087 32.7877 15.8107 32.7528C15.8145 32.7017 15.8184 32.6522 15.8244 32.606C15.8269 32.5858 15.8297 32.568 15.832 32.5487C15.837 32.5165 15.8419 32.4853 15.8465 32.4567C15.8497 32.4395 15.853 32.4235 15.857 32.408C15.8655 32.3663 15.8752 32.3278 15.8872 32.2943C16.0399 31.8582 16.1674 31.905 16.3024 32.0512C16.4377 32.1987 17.6557 33.304 19.6639 34.2038C20.0904 34.3947 20.3447 34.4825 20.4029 34.5453C20.4604 34.6062 20.5522 34.7353 20.3697 34.7783C20.1894 34.821 19.6537 34.84 19.0929 35.0617C19.0604 35.0748 19.0304 35.088 19.0029 35.1002C18.8067 35.1882 18.7147 35.2765 18.673 35.3713C18.6649 35.3897 18.6587 35.4093 18.6542 35.4287C18.6507 35.4417 18.6475 35.4572 18.646 35.4712C18.6435 35.4927 18.6427 35.5143 18.6435 35.536C18.6435 35.5502 18.6427 35.5648 18.6442 35.5795C18.6459 35.6072 18.6489 35.6352 18.6519 35.6645C18.6585 35.714 18.6654 35.765 18.6704 35.821C18.7 36.1253 18.7527 36.3425 18.7914 36.7495C18.8292 37.158 18.8057 37.5272 19.0049 37.6995C19.2034 37.8695 19.4744 37.9705 20.1982 37.83C20.8849 37.6962 21.1135 37.6377 21.1949 37.6353C21.2747 37.6328 21.4675 37.6005 21.3497 37.8253C21.3385 37.847 21.3239 37.8732 21.3065 37.905C21.1482 38.1868 20.7647 38.822 20.634 39.2452C20.4892 39.7117 20.4599 39.8407 20.4472 39.9203C20.4355 40.0005 20.4909 40.155 20.6334 39.9822C20.7755 39.809 21.057 39.1642 21.7642 38.3432C21.859 38.2335 21.946 38.137 22.0277 38.048C22.0284 38.048 22.0292 38.0463 22.0309 38.0447C22.0949 37.976 22.1544 37.9135 22.2112 37.8562C22.227 37.8398 22.242 37.8252 22.2572 37.8108C22.3055 37.7638 22.3507 37.7205 22.3929 37.6795C22.404 37.67 22.4162 37.6587 22.426 37.6492C22.5315 37.5537 22.6222 37.48 22.7014 37.4223C22.7094 37.4178 22.7164 37.4128 22.7237 37.4077C22.7542 37.3852 22.7844 37.365 22.8122 37.3482C22.8199 37.3437 22.828 37.3382 22.8357 37.3327C22.8635 37.3155 22.8899 37.3013 22.9142 37.2878C22.918 37.2845 22.924 37.2817 22.9284 37.2793C22.9317 37.2783 22.9339 37.276 22.936 37.2748C22.9647 37.2617 22.9885 37.2477 23.0129 37.2367C23.2104 37.1393 23.264 37.2743 23.2042 37.5872ZM24.3749 41.1805C24.2615 41.2067 23.772 41.281 23.6964 41.2822C23.6219 41.284 23.5585 41.2143 23.5902 41.1608C23.6217 41.1083 23.9587 40.6698 24.1439 39.9065C24.175 39.7822 24.2529 39.6957 24.3034 39.8743C24.3424 40.0048 24.4935 40.6537 24.5284 40.8978C24.5335 40.9405 24.5597 41.1372 24.3749 41.1805ZM24.5802 34.9563C24.2585 35.077 23.9009 34.7155 23.6114 34.5223C22.9607 34.0775 22.362 33.6488 21.8709 33.0487C21.1185 32.1302 21.1889 31.4898 21.4074 30.3033C21.5592 29.4605 21.2839 28.668 21.2239 28.5563C21.1644 28.4443 21.2315 28.3307 21.4095 28.414C21.5874 28.4977 21.7575 28.7572 21.9402 28.9797C22.1214 29.2022 22.1615 29.044 22.1765 28.8928C22.2112 28.5438 22.1325 28.2643 22.089 28.1022H22.088C22.0857 28.0943 22.0837 28.0845 22.082 28.076C22.0565 27.9793 21.9665 27.7638 21.7772 27.7247C21.5235 27.6713 21.2742 27.6488 21.1389 27.5515C21.0759 27.5062 21.0042 27.4135 21.0752 27.3455C21.2044 27.2203 21.392 27.0543 21.5704 26.9933C21.8129 26.91 22.046 26.7832 22.3532 26.7848C24.4262 26.798 24.9852 26.3183 25.7777 25.9895C25.933 25.9243 26.0262 25.8953 26.1592 25.937C26.2929 25.9772 26.6552 26.1133 26.7467 26.2743C26.8387 26.436 26.8549 27.1095 27.0319 27.5953C27.2064 28.0827 27.5037 27.5777 27.5689 27.3692C27.6314 27.1597 27.6559 26.6617 27.6592 26.5357C27.6624 26.4097 27.6992 25.8783 27.866 25.6992C28.1974 25.3453 28.2754 24.9267 28.3155 24.763C28.351 24.6162 28.3789 24.2057 28.3062 23.6225C28.2984 23.5507 28.2877 23.4753 28.275 23.3982C28.163 22.6948 28.0215 22.6353 27.8309 22.5075C27.6395 22.38 27.4392 22.4353 26.9522 22.1017C26.5165 21.802 26.121 21.2783 25.7912 20.9588C25.4627 20.6398 24.9432 20.319 24.3952 20.2625C24.3605 20.2593 24.3302 20.2587 24.3024 20.2587C24.3 20.2587 24.2987 20.2587 24.2962 20.2587C24.2719 20.2602 24.2489 20.2618 24.2292 20.266C24.2254 20.2667 24.223 20.2683 24.2187 20.2692C24.2014 20.2723 24.1855 20.2768 24.172 20.2823C24.1684 20.285 24.165 20.2873 24.1605 20.289C24.15 20.2952 24.1397 20.301 24.1312 20.3078C24.1274 20.3117 24.1242 20.3155 24.12 20.3198C24.1139 20.326 24.1077 20.3327 24.1034 20.3403C24.0995 20.3457 24.0972 20.3523 24.0939 20.3585C24.0915 20.3652 24.088 20.3705 24.0865 20.3767C24.0834 20.3863 24.0819 20.3957 24.0804 20.406C24.0804 20.4098 24.0797 20.413 24.0797 20.4172C24.0789 20.4307 24.0789 20.4447 24.0804 20.4588H24.0797C24.0909 20.5943 24.1885 20.7597 24.2134 20.8277C24.248 20.92 24.3357 21.2023 24.1802 21.3668C24.0235 21.5313 23.1075 22.3508 22.2497 22.3303C21.862 22.3215 21.5385 22.2418 21.267 22.126C21.2685 22.1275 21.2695 22.1287 21.2704 22.1302C21.2589 22.1252 21.2492 22.119 21.2372 22.1135C21.1724 22.085 21.1109 22.054 21.0522 22.0215C21.0429 22.0162 21.0317 22.0115 21.0212 22.0057C20.9554 21.9678 20.895 21.928 20.8375 21.8872C20.8202 21.8743 20.8035 21.8617 20.7869 21.8493C20.7432 21.8162 20.7015 21.7822 20.6625 21.7473C20.651 21.7368 20.6377 21.7265 20.6262 21.7163C20.5795 21.6718 20.5362 21.6283 20.4957 21.585C20.4857 21.573 20.4769 21.5618 20.4667 21.551C20.4357 21.5152 20.4074 21.4795 20.38 21.4448C20.3715 21.4337 20.3634 21.4237 20.3557 21.4123C20.3249 21.3687 20.2964 21.327 20.272 21.2868C20.2687 21.2818 20.267 21.278 20.2639 21.2733C20.2427 21.2367 20.2245 21.2018 20.2085 21.1702C20.2047 21.1617 20.2005 21.154 20.1965 21.145C20.1807 21.111 20.1672 21.0778 20.158 21.05C20.0329 20.6735 20.3437 19.7837 20.3327 19.1465C20.3289 18.8673 20.2712 18.3317 20.2284 17.96C20.1857 17.5882 20.3817 17.0877 20.4729 16.9663C20.4934 16.9397 20.5242 16.9142 20.5597 16.8892C20.5687 16.8825 20.5787 16.8772 20.5882 16.871C20.6214 16.8493 20.6594 16.8288 20.7024 16.81C20.7085 16.8068 20.7144 16.8038 20.7214 16.8003C20.7634 16.783 20.8082 16.7648 20.857 16.749V16.7513C20.937 16.7238 21.0232 16.6983 21.1175 16.6772C21.423 16.6092 21.7802 16.7603 21.872 17.0125C22.1914 17.8922 22.5452 18.078 22.6637 18.1355C22.784 18.1942 22.973 18.02 23.0472 17.9558C23.1217 17.8937 23.3012 17.6577 23.2215 17.5542C23.0987 17.397 23.0314 17.3005 22.9959 17.2023C22.9357 17.0363 23.1527 17.0328 23.204 17.056C23.8579 17.333 24.171 17.3912 24.804 17.37C25.4359 17.3503 26.4187 16.934 26.5404 16.9317C26.6395 16.9293 26.8355 16.9903 26.909 17.0923C26.9212 17.1097 26.9377 17.1343 26.9532 17.1587C27.0165 17.2528 27.1015 17.3792 27.1772 17.4055C27.1805 17.4062 27.1825 17.4078 27.1857 17.4087C27.2794 17.4318 27.5024 17.4148 27.6205 17.4198C27.7804 17.4253 28.0577 17.37 28.0499 17.6635C28.0322 18.4472 27.4127 18.936 27.3564 18.9835C27.3347 19.0032 27.3224 19.0283 27.3112 19.0538C27.308 19.0608 27.302 19.0682 27.3007 19.0758C27.2974 19.0902 27.2945 19.1045 27.2945 19.118C27.2945 19.1322 27.2962 19.145 27.2992 19.1558C27.3139 19.2025 27.3809 19.3717 27.4095 19.4177C27.4197 19.4343 27.432 19.4502 27.4479 19.4652C27.4517 19.469 27.4582 19.4722 27.4627 19.4763C27.475 19.4857 27.4872 19.4945 27.5012 19.5007C27.5082 19.5045 27.5175 19.5053 27.5257 19.508C27.5387 19.5112 27.5535 19.5142 27.5684 19.5133C27.5777 19.5133 27.5892 19.5102 27.5985 19.508C27.6217 19.503 27.6434 19.4983 27.668 19.4833C28.193 19.1693 28.4065 18.7982 28.635 18.3317C28.8629 17.8673 28.9827 16.3338 28.9959 16.0823C29.0089 15.829 29.0885 15.6733 29.2129 15.5715C29.3364 15.4692 29.9497 15.0763 30.0362 15.0563C30.1242 15.0358 30.2247 15.0273 30.3235 15.256C30.4242 15.4862 30.6434 16.9 30.685 17.1173C30.7322 17.3483 30.8519 17.3208 30.9122 17.2765C31.0434 17.1807 31.1384 17.0628 31.2552 16.8622C31.3759 16.6613 31.2875 16.3843 31.1702 16.2553C31.0545 16.1257 30.8712 15.9185 30.9492 15.7128C31.1269 15.2455 31.5002 15.269 31.6004 15.2857C31.6985 15.3023 32.0769 15.4727 32.1452 16.491C32.244 17.9995 31.6289 19.5593 31.4822 19.9548C31.1579 20.8342 31.0899 21.4328 31.0397 21.7178C30.991 22.0017 30.7755 21.9503 30.7237 21.9043C30.6712 21.8585 30.6039 21.6387 30.5707 21.6062C30.5367 21.5737 30.4517 21.5903 30.396 21.8325C30.3405 22.0742 30.1552 22.4098 30.0467 22.5925C29.974 22.711 29.9875 22.881 30.005 23.013C30.0375 23.2695 30.171 24.2508 30.1302 25.3665C30.0562 27.3515 29.3925 28.6018 28.8975 29.2563C27.7329 30.7965 26.6405 31.4402 26.5094 31.5315C26.3409 31.649 26.059 31.6307 25.9647 31.5995C25.8689 31.5725 25.7847 31.4735 25.6055 31.3457C25.5909 31.3342 25.5762 31.328 25.5639 31.3215C25.4215 31.2557 25.4002 31.456 25.4015 31.5083C25.4032 31.564 25.4894 31.7702 25.538 31.9702C25.631 32.3472 25.4215 32.8028 25.206 33.1625C24.8985 33.671 24.5554 34.23 24.627 34.8442C24.6262 34.8988 24.6262 34.9387 24.5802 34.9563ZM34.4499 35.5435C34.6254 36.5525 34.8229 37.782 35.046 39.2892C35.0575 39.3687 35.066 39.4367 35.0722 39.5C35.0739 39.5078 35.0755 39.5165 35.0755 39.524C35.0817 39.5835 35.0849 39.6378 35.0849 39.6823C35.0849 39.687 35.0842 39.691 35.0842 39.6947C35.0842 39.7147 35.0842 39.7363 35.0825 39.7535C35.08 39.7707 35.0772 39.785 35.0739 39.7998C35.0739 39.8058 35.0722 39.812 35.0722 39.8175C35.0645 39.8483 35.054 39.8747 35.04 39.897C35.0384 39.9003 35.0355 39.9032 35.0322 39.9077C35.02 39.9248 35.0044 39.9402 34.988 39.9527C34.9827 39.9565 34.9779 39.9605 34.9717 39.965C34.9509 39.9782 34.9275 39.9897 34.8989 39.999C34.892 40.0022 34.8819 40.0033 34.8727 40.0067C34.851 40.0137 34.8274 40.0198 34.8015 40.0268C34.7854 40.0302 34.7694 40.033 34.7529 40.0375C34.719 40.0443 34.6827 40.0515 34.6442 40.059C34.573 40.0737 34.4687 40.0885 34.3964 40.0945C34.2712 40.1068 34.1252 40.1192 33.9662 40.1332C32.429 40.2738 29.4207 40.5788 27.0107 40.8823C26.9654 40.8867 26.9189 40.8917 26.8694 40.8995C26.6817 40.9258 26.5729 40.8958 26.558 40.7117C26.5465 40.5425 26.2645 38.8695 25.4127 37.4443C25.3345 37.313 25.252 37.1833 25.1647 37.0577C25.0675 36.9177 25.2119 36.8112 25.3494 36.8597C25.7354 36.9953 26.8044 37.4845 28.3292 38.5758C28.7185 38.854 28.8197 38.9405 28.907 39.0147C28.9185 39.0248 28.9365 39.0347 28.9525 39.0425C28.9587 39.0457 28.9657 39.047 28.9734 39.0502C28.9839 39.054 28.9974 39.058 29.0105 39.061C29.0175 39.0625 29.0244 39.0642 29.0314 39.0647C29.046 39.0663 29.0607 39.067 29.0739 39.0663C29.08 39.0663 29.0854 39.0663 29.0904 39.0663C29.1079 39.0638 29.125 39.0585 29.139 39.0498C29.1745 39.0275 29.1909 38.9842 29.163 38.9093C29.0682 38.642 28.5582 38.1168 27.2537 36.9063C27.0675 36.7342 27.0644 36.6615 27.2574 36.6413C27.4497 36.623 27.9727 36.6467 28.2507 36.6352C28.5295 36.623 29.152 36.6057 29.03 35.791C28.9365 35.16 28.8632 34.5073 28.8517 34.312C28.8412 34.1173 28.8069 33.7533 28.3512 33.7018C27.8985 33.6498 27.1394 33.755 26.4584 33.9937C26.2705 34.0588 26.2042 33.9722 26.3432 33.8453C26.4815 33.7195 27.6772 32.9415 28.696 31.7715C29.816 30.4833 30.3087 29.5355 30.5884 28.6735C30.6389 28.5205 30.7034 28.5725 30.766 28.6075C30.8279 28.644 31.248 28.9838 31.397 29.8193C31.543 30.6565 31.8327 31.8183 31.3222 34.8693C31.0417 36.5407 30.6989 37.5278 30.6192 37.7635C30.539 37.9967 30.6764 38.1282 30.8309 37.919C31.1909 37.4275 31.6669 36.0652 32.0685 34.4988C32.464 32.9533 32.6074 31.6283 32.668 30.779V30.7782C32.6742 30.7002 32.6795 30.6268 32.6834 30.5565L32.6859 30.528C32.6892 30.4593 32.6927 30.3933 32.6974 30.3342C32.6974 30.2978 32.7019 30.2692 32.708 30.243C32.7097 30.2352 32.7125 30.229 32.715 30.2222C32.7187 30.2105 32.722 30.1975 32.7264 30.1882C32.7264 30.1865 32.7282 30.1865 32.7282 30.185C32.7359 30.1703 32.7452 30.158 32.7534 30.1485C32.756 30.1453 32.758 30.1423 32.7604 30.1407C32.768 30.1338 32.775 30.1307 32.782 30.127C32.7874 30.1245 32.7927 30.1208 32.7977 30.119C32.802 30.1183 32.8054 30.1183 32.8099 30.1175C32.8185 30.1158 32.827 30.1142 32.8345 30.1142C32.8377 30.1142 32.8407 30.1142 32.8445 30.1158C32.8484 30.1158 32.8534 30.1158 32.8562 30.1158C32.859 30.1158 32.8607 30.1183 32.8622 30.1183C32.8932 30.1237 32.9215 30.136 32.9434 30.1453C33.023 30.1765 33.3752 30.2782 33.5587 31.1232C33.5664 31.1572 33.5742 31.1942 33.5834 31.231C33.5849 31.2433 33.5877 31.2572 33.591 31.2695C33.5997 31.3035 33.6074 31.3375 33.6155 31.3747L33.6174 31.3808C33.7695 32.0452 34.0452 33.1947 34.4499 35.5435Z" fill="black"/>
<path d="M27.951 36.983H28.1224V37.4202H28.2259V36.983H28.3967V36.8952H27.951V36.983Z" fill="black"/>
<path d="M28.7682 37.2706L28.6361 36.8952H28.4871V37.4202H28.5829V36.9977L28.7289 37.4202H28.8131L28.9567 36.9977V37.4202H29.0524V36.8952H28.9034L28.7682 37.2706Z" fill="black"/>
</g>
</svg>
