<svg width="128" height="44" viewBox="0 0 128 44" fill="none" xmlns="http://www.w3.org/2000/svg">
<g opacity="0.7" clip-path="url(#clip0_2676_11881)">
<path d="M127.922 10.4799C129.666 20.826 102.463 34.3741 67.1555 40.74C31.8536 47.106 1.82205 43.8764 0.0811608 33.525C-1.65972 23.1789 25.5515 9.63352 60.8534 3.27032C96.1579 -3.10109 126.184 0.131182 127.922 10.4799Z" fill="#434343"/>
<path d="M94.6931 25.833L94.5132 15.0761H97.7886V28.6352H93.0792L89.8091 17.5085H89.7377L89.9202 28.6352H86.6633V15.0761H91.5791L94.6216 25.833H94.6931Z" fill="white"/>
<path d="M35.1378 16.3471L33.3255 28.7777H29.7511L32.2037 15.0761H38.0904L40.535 28.7777H36.9739L35.2119 16.3471H35.1378Z" fill="white"/>
<path d="M50.5703 25.5509L52.2053 15.0761H57.6026L57.8883 28.7777H54.5812L54.4939 16.4594H54.4251L52.2133 28.7777H48.8559L46.6414 16.4594H46.57L46.4879 28.7777H43.1729L43.4665 15.0761H48.8664L50.4988 25.5509H50.5703Z" fill="white"/>
<path d="M24.1792 24.9128C24.3089 25.2442 24.2692 25.6716 24.2083 25.929C24.0972 26.3838 23.7982 26.8494 22.9199 26.8494C22.0891 26.8494 21.5864 26.3564 21.5864 25.6058V24.28H18.0358L18.0332 25.3401C18.0332 28.3943 20.3561 29.3175 22.8458 29.3175C25.2402 29.3175 27.2112 28.471 27.5234 26.1865C27.6848 25.0032 27.5631 24.228 27.5102 23.9349C26.9519 21.0669 21.9277 20.2096 21.5547 18.6071C21.4912 18.3332 21.5097 18.0401 21.5414 17.884C21.634 17.4484 21.9224 16.9663 22.7505 16.9663C23.5231 16.9663 23.9808 17.4621 23.9808 18.2099C23.9808 18.462 23.9808 19.0564 23.9808 19.0564H27.28V18.0949C27.28 15.1092 24.6925 14.6435 22.8193 14.6435C20.4646 14.6435 18.5412 15.4488 18.1893 17.6785C18.0941 18.2949 18.0808 18.8427 18.2184 19.5302C18.7978 22.327 23.4966 23.1378 24.1792 24.9128Z" fill="white"/>
<path d="M67.2118 24.8881C67.3415 25.2168 67.2992 25.6332 67.241 25.8907C67.1325 26.3454 66.8362 26.8028 65.9631 26.8028C65.1455 26.8028 64.6455 26.3098 64.6455 25.5757L64.6428 24.2608H61.1293L61.124 25.3072C61.124 28.3313 63.4258 29.2435 65.889 29.2435C68.2569 29.2435 70.2095 28.408 70.519 26.1454C70.6804 24.9703 70.5666 24.2061 70.5084 23.9184C69.9528 21.0779 64.9815 20.2287 64.6111 18.64C64.5476 18.366 64.5661 18.0784 64.5979 17.9305C64.6931 17.4895 64.9762 17.0211 65.7964 17.0211C66.5636 17.0211 67.0108 17.5032 67.0108 18.2483C67.0108 18.4975 67.0108 19.0865 67.0108 19.0865H70.2862V18.1332C70.2862 15.1803 67.7198 14.7174 65.8625 14.7174C63.5343 14.7174 61.6267 15.5118 61.2828 17.7278C61.1875 18.3359 61.1769 18.8728 61.3145 19.5576C61.8833 22.327 66.5372 23.1323 67.2118 24.8881Z" fill="white"/>
<path d="M78.3265 26.729C79.2445 26.729 79.5303 26.0716 79.5938 25.7347C79.6202 25.5868 79.6282 25.3895 79.6255 25.2115V15.0709H82.9724V24.8992C82.9803 25.1512 82.9565 25.6689 82.9432 25.7977C82.7078 28.3561 80.7552 29.1861 78.3238 29.1861C75.8897 29.1861 73.9346 28.3561 73.7017 25.7977C73.6911 25.6689 73.6673 25.1485 73.6726 24.8992V15.0709H77.0168V25.2088C77.0168 25.3868 77.0221 25.5868 77.0486 25.7319C77.1227 26.0689 77.4005 26.729 78.3265 26.729Z" fill="white"/>
<path d="M105.935 26.5836C106.892 26.5836 107.228 25.9564 107.289 25.5921C107.313 25.4359 107.321 25.2442 107.318 25.0716V23.0829H105.961V21.0833H110.655V24.7621C110.652 25.0196 110.647 25.2086 110.607 25.666C110.387 28.1587 108.297 29.0489 105.953 29.0489C103.604 29.0489 101.519 28.1587 101.294 25.666C101.257 25.2086 101.252 25.0196 101.246 24.7621L101.249 18.9933C101.249 18.7495 101.278 18.3194 101.305 18.0893C101.598 15.5282 103.604 14.7037 105.953 14.7037C108.3 14.7037 110.356 15.5227 110.599 18.0893C110.641 18.5249 110.628 18.9933 110.628 18.9933V19.4507H107.292V18.6838C107.295 18.6865 107.287 18.3578 107.25 18.1633C107.194 17.8592 106.94 17.1635 105.929 17.1635C104.964 17.1635 104.683 17.8209 104.612 18.1633C104.572 18.3441 104.556 18.5879 104.556 18.8098V25.0771C104.554 25.2497 104.564 25.4414 104.591 25.5975C104.644 25.9564 104.977 26.5836 105.935 26.5836Z" fill="white"/>
</g>
<defs>
<clipPath id="clip0_2676_11881">
<rect width="128" height="44" fill="white"/>
</clipPath>
</defs>
</svg>
