<svg width="42" height="50" viewBox="0 0 42 50" fill="none" xmlns="http://www.w3.org/2000/svg">
<g opacity="0.5" clip-path="url(#clip0_2676_11866)">
<path d="M35.0167 48.0005C32.3132 50.6305 29.3303 50.2205 26.4871 48.9805C23.4643 47.7155 20.7008 47.6355 17.5084 48.9805C13.5329 50.7005 11.4229 50.2005 9.02862 48.0005C-4.48919 34.0505 -2.49394 12.8005 12.8695 12.0005C16.5956 12.2005 19.2044 14.0655 21.3992 14.2205C24.6614 13.5555 27.784 11.6505 31.2757 11.9005C35.4707 12.2405 38.6082 13.9005 40.7032 16.8855C32.0738 22.0855 34.1189 33.4855 42.045 36.6855C40.4588 40.8605 38.4236 44.9855 35.0118 48.0355L35.0167 48.0005ZM21.0999 11.8505C20.6958 5.65054 25.7089 0.550537 31.4752 0.0505371C32.2683 7.20054 24.9906 12.5505 21.0999 11.8505Z" fill="black"/>
</g>
<defs>
<clipPath id="clip0_2676_11866">
<rect width="42" height="50" fill="white"/>
</clipPath>
</defs>
</svg>
