<svg width="64" height="50" viewBox="0 0 64 50" fill="none" xmlns="http://www.w3.org/2000/svg">
<path fill-rule="evenodd" clip-rule="evenodd" d="M62.7965 37.7737C61.5589 39.3496 58.5266 40.4738 58.5266 40.4738L35.9694 48.6511V42.6205L52.57 36.651C54.4538 35.9698 54.7431 35.0068 53.2118 34.5014C51.6835 33.9945 48.916 34.1397 47.0307 34.8238L35.9694 38.7556V32.497L36.607 32.2791C36.607 32.2791 39.8033 31.1375 44.2978 30.635C48.7922 30.1353 54.2955 30.7032 58.6158 32.3561C63.4844 33.9088 64.0327 36.1978 62.7965 37.7737ZM38.1166 27.505V12.0829C38.1166 10.2717 37.7856 8.60429 36.1018 8.13224C34.8124 7.71539 34.0122 8.92382 34.0122 10.7336V49.3541L23.6921 46.0483V0C28.0801 0.822085 34.4727 2.76546 37.9094 3.93468C46.6493 6.96302 49.6125 10.7321 49.6125 19.2246C49.6125 27.502 44.5496 30.6393 38.1166 27.505ZM4.75584 41.9902C-0.242306 40.5697 -1.07413 37.6096 1.20403 35.9044C3.3095 34.33 6.89009 33.1448 6.89009 33.1448L21.6874 27.8347V33.8885L11.0391 37.7345C9.15818 38.4157 8.86891 39.3801 10.3973 39.8856C11.9271 40.391 14.696 40.2473 16.5798 39.5646L21.6874 37.6939V43.11C21.3636 43.1681 21.0023 43.2262 20.6685 43.2829C15.5595 44.1253 10.1181 43.7738 4.75584 41.9902ZM59.5095 44.3882C60.1557 44.3882 60.7616 44.6409 61.2178 45.1071C61.674 45.5661 61.9258 46.179 61.9258 46.8297C61.9258 47.4833 61.674 48.0934 61.2178 48.5523C60.7616 49.0157 60.1557 49.2684 59.5095 49.2684C58.8633 49.2684 58.2589 49.0157 57.8013 48.5523C57.345 48.0934 57.0946 47.4833 57.0946 46.8297C57.0946 45.4848 58.1769 44.3882 59.5095 44.3882ZM57.5005 46.8297C57.5005 47.3715 57.7091 47.8813 58.0891 48.2618C58.4676 48.6482 58.9742 48.8573 59.5095 48.8573C60.6191 48.8573 61.5186 47.9481 61.5186 46.8297C61.5186 46.2865 61.3113 45.7767 60.93 45.3947C60.5515 45.0084 60.0449 44.8007 59.5095 44.8007C58.9742 44.8007 58.4676 45.0084 58.0891 45.3947C57.7091 45.7767 57.5005 46.2865 57.5005 46.8297ZM60.2392 45.5153C60.504 45.6329 60.6378 45.8595 60.6378 46.1819C60.6378 46.3475 60.6033 46.487 60.5328 46.5959C60.4824 46.6743 60.4104 46.7382 60.3298 46.7934C60.3932 46.8312 60.4493 46.8762 60.491 46.9285C60.5486 47.004 60.5817 47.1246 60.586 47.2887L60.599 47.6358C60.6033 47.7288 60.609 47.8 60.6234 47.8435C60.6378 47.9074 60.6652 47.9481 60.6997 47.9612L60.7357 47.9786V48.0178V48.0774V48.1369H60.6767H60.2493H60.2147L60.1974 48.1065C60.183 48.0774 60.173 48.044 60.1629 48.0004C60.1557 47.9612 60.1485 47.893 60.1442 47.7884L60.1226 47.357C60.1168 47.2074 60.0665 47.1144 59.9715 47.0651C59.9125 47.0375 59.8146 47.0244 59.6822 47.0244H58.9497V48.0774V48.137H58.8892H58.541H58.482V48.0774V45.4819V45.4223H58.541H59.7311C59.9355 45.4223 60.1068 45.4528 60.2392 45.5153L60.2392 45.5153ZM58.9497 46.609H59.6952C59.8448 46.609 59.9643 46.5813 60.0492 46.5247C60.1269 46.4681 60.1643 46.365 60.1643 46.2154C60.1643 46.0527 60.1111 45.9466 59.9988 45.89C59.9369 45.8595 59.8506 45.8421 59.7412 45.8421H58.9497V46.609Z" fill="#434343"/>
</svg>
