<svg width="50" height="50" viewBox="0 0 50 50" fill="none" xmlns="http://www.w3.org/2000/svg">
<g opacity="0.8">
<path d="M0 25.0002C0 11.1937 11.1922 0 25.0004 0C38.8074 0 49.9999 11.1937 49.9999 25.0002C49.9999 38.8075 38.8074 50 25.0004 50C11.1922 50 0 38.8071 0 25.0002Z" fill="#434343"/>
<path d="M0.736938 25.0003C0.736938 11.6009 11.5996 0.738281 25 0.738281C38.3999 0.738281 49.263 11.6009 49.263 25.0003C49.263 38.3998 38.4 49.2632 25 49.2632C11.5996 49.2628 0.736938 38.3999 0.736938 25.0003Z" fill="white"/>
<path d="M25.0001 1.52795C12.0362 1.52795 1.52795 12.0369 1.52795 25C1.52795 37.9635 12.0358 48.472 25.0001 48.472C37.9633 48.472 48.4723 37.9635 48.4723 25C48.4723 12.0369 37.9637 1.52795 25.0001 1.52795ZM25.2214 3.19991C25.9365 3.20688 26.6269 3.29822 27.2315 3.5965C27.6276 3.95144 27.7402 4.41844 27.7199 4.93656C27.608 5.30287 27.4048 5.65699 27.0791 5.91135C27.4756 6.20564 27.8722 6.51056 27.9329 7.0385C28.0452 7.5567 27.8911 8.02361 27.5968 8.40988C26.9776 9.11042 25.993 8.92912 25.0982 8.95885L22.7354 9.02147L22.7208 8.80647L22.4765 3.44204L22.4661 3.32515C23.3403 3.31947 24.302 3.19094 25.2214 3.19991ZM29.7614 3.74887L31.6316 4.35211C31.2144 5.55595 30.6668 6.74366 30.3709 8.01329C30.3411 8.32916 30.5276 8.65477 30.8885 8.74594C31.1382 8.88334 31.4943 8.90912 31.6817 8.74594C32.4848 7.61878 32.8649 6.21613 33.3683 4.95117C34.0082 5.17507 34.508 5.4961 35.1279 5.72975C34.4665 7.13163 34.0596 8.78102 33.1449 9.93363C32.4847 10.5129 31.4385 10.3712 30.6464 10.1778C29.7419 9.85343 28.7558 9.27392 28.4818 8.25751C28.2689 7.56164 29.2338 5.1754 29.7614 3.74887ZM18.951 4.11833C19.5271 4.10356 20.0658 4.26883 20.5165 4.73409C20.8821 5.14034 20.9325 5.70834 20.9423 6.22653C20.8519 6.56117 20.7684 6.89777 20.5457 7.17209C21.0275 7.76543 21.9241 8.43874 22.5433 9.02773L22.4661 9.05278L20.6376 9.45772C19.9871 8.93445 19.6192 8.56398 19.0533 8.1761C18.8095 8.20582 18.6415 8.3499 18.4125 8.45163L19.0408 9.89397L17.325 10.8291C16.6209 9.11174 15.7587 7.10476 15.1207 5.49388C16.2315 5.04698 17.6835 4.15083 18.951 4.11833ZM37.0462 7.58538C38.109 7.60513 39.0598 8.05629 39.6971 8.83778C40.0431 9.264 40.2758 9.79206 40.4277 10.3302C40.0011 10.5596 39.6759 10.82 39.2692 11.0023C39.1686 10.3726 38.8242 9.73064 38.2047 9.41597C37.91 9.24298 37.4706 9.21427 37.136 9.32622C36.6174 9.51879 36.1725 9.96441 35.9796 10.4826C35.8066 10.9804 35.999 11.4681 36.2843 11.854C36.68 12.3013 37.2084 12.5353 37.806 12.5553C37.5375 12.9972 37.3903 13.2759 37.136 13.6219C36.1395 13.4795 35.2061 12.9311 34.6374 12.0063C34.1497 11.2248 34.1206 10.0262 34.5476 9.20307C34.9942 8.2982 35.8774 7.71973 36.8312 7.58747C36.903 7.58493 36.9753 7.58407 37.0462 7.58538ZM11.8791 7.60417L12.0523 7.71062C13.7345 8.73799 15.4627 9.94731 17.1663 10.9168L16.991 11.0337L15.6488 11.9166C15.1483 11.6528 14.8559 11.4746 14.4904 11.3071L13.0063 12.5574C13.1589 12.9237 13.3531 13.3702 13.5156 13.7764L12.1901 15.2584L12.0837 15.0246L9.73539 9.44728L11.8791 7.60417ZM24.9459 10.445C32.9287 10.445 39.4007 16.9183 39.4007 24.9019C39.4007 32.8844 32.9287 39.3545 24.9459 39.3545C16.963 39.3545 10.491 32.8844 10.491 24.9019C10.491 16.9183 16.963 10.445 24.9459 10.445ZM41.6467 10.9898L42.7446 12.4343C42.2777 12.9015 41.6593 13.2982 41.1604 13.7451C41.9533 13.9173 42.8456 13.8862 43.6589 14.0185C44.0249 14.5477 44.2173 15.0551 44.5732 15.6947L41.5883 15.4838C40.9276 16.5198 40.3271 17.5757 39.7577 18.6524C39.4027 18.1342 39.1289 17.4633 38.7829 16.8844C39.1695 16.1017 39.6712 15.2751 40.0582 14.4924C39.3929 14.9045 38.8087 15.4375 38.1316 15.8637L37.0775 14.4464C38.4998 13.2273 40.0318 12.1401 41.5256 11.0337L41.6467 10.9898ZM7.98411 11.3405L9.20729 12.0585C8.93724 12.617 8.58293 12.9988 8.33478 13.5322L11.8081 15.8178C11.625 16.3356 11.2296 16.8445 10.8939 17.3416L7.32868 15.1165C7.00893 15.538 6.77841 15.9702 6.45826 16.5087C5.99096 16.1991 5.66056 15.9944 5.28517 15.726C6.16967 14.2517 7.00917 12.87 7.98411 11.3405ZM4.9512 16.9137C5.25538 17.0873 5.61132 17.352 5.92599 17.615C5.29551 18.1038 4.84817 18.8147 4.98042 19.6272C5.05203 19.7489 5.12239 19.9306 5.28517 19.9612C5.79281 19.9612 5.96618 19.414 6.19943 19.0782C6.47416 18.4685 7.00227 17.8086 7.72319 17.7382C8.34271 17.6978 8.87242 17.86 9.27826 18.3477C9.89779 19.0901 9.78722 20.2868 9.49326 21.1509C9.21773 21.7908 8.79178 22.4412 8.18241 22.8584L7.08446 22.1883C7.68408 21.7727 8.31429 21.0901 8.39531 20.3285C8.39531 20.0542 8.3353 19.689 7.99872 19.6585C7.29817 19.862 7.22585 20.7044 6.7484 21.1823C6.38283 21.5584 5.92535 21.8415 5.34571 21.7604C4.80714 21.7295 4.34953 21.3942 4.03485 20.9673C3.43524 20.0534 3.73197 18.7118 4.09747 18.0116C4.3217 17.6148 4.58563 17.2193 4.9512 16.9137ZM44.0263 17.3875C44.732 17.3789 45.412 17.8127 45.7316 18.4082C46.2592 19.261 46.4639 20.3894 46.1888 21.4265L45.0616 21.3659C45.2146 20.685 45.3261 19.8309 44.8487 19.2619C44.7066 19.0893 44.4536 18.9862 44.2705 19.0782C43.651 19.769 44.3207 20.7656 43.9344 21.5475C43.7509 21.9037 43.4771 22.3298 43.0807 22.491C42.44 22.7352 41.648 22.6138 41.1604 22.1257C40.2062 21.1301 39.7587 19.5852 40.3692 18.285H41.5569C41.3538 18.7942 41.212 19.516 41.4046 20.1156C41.5056 20.3696 41.6288 20.6945 41.9243 20.7857C42.8993 20.8209 42.2376 19.4243 42.4712 18.7735C42.5628 18.2858 42.8274 17.7784 43.3249 17.5545C43.5534 17.4427 43.791 17.3903 44.0263 17.3875ZM6.50418 27.2459L7.05315 28.8636C7.6684 28.8605 8.26072 28.8827 8.89628 28.8678L7.48106 30.0513C7.61725 30.5491 7.73428 31.1203 7.90688 31.788L6.50418 30.8132C5.91438 31.0824 5.56017 31.4132 4.9512 31.7274L5.43964 30.0513C4.97661 29.6725 4.45782 29.3121 4.02024 28.9262C4.6582 28.9098 5.21736 28.9346 5.83414 28.9221C6.11909 28.3894 6.24508 27.779 6.50418 27.2459ZM43.4356 27.2543L43.9824 28.8699C44.5969 28.8675 45.1464 28.8857 45.8235 28.8782L44.4103 30.0597C44.5477 30.5563 44.6644 31.1299 44.8362 31.7984L43.4356 30.8215C42.845 31.0901 42.4903 31.4211 41.8805 31.7358L42.3668 30.0597C41.9046 29.6816 41.3868 29.3205 40.9516 28.9346C41.588 28.9182 42.147 28.9451 42.7634 28.9325C43.0124 28.3775 43.191 27.843 43.4356 27.2543ZM11.4282 35.2696C11.7153 35.2643 12.0069 35.2942 12.2966 35.3552C13.0769 35.5689 13.8102 36.1573 14.2774 36.879C14.4 37.1733 14.5755 37.406 14.6511 37.8475C14.3263 38.0518 13.9162 38.2195 13.5448 38.4027C13.4544 37.7319 12.8649 37.0812 12.2047 36.9082C11.6564 36.772 11.0576 37.0325 10.6517 37.5198C10.316 37.9151 10.2139 38.4831 10.3157 38.9809C10.5802 39.6705 11.3111 40.1916 12.0523 40.1916L12.2653 40.1999C12.0629 40.6884 11.9316 40.9315 11.7184 41.2978C10.4883 41.256 9.24939 40.5352 8.79191 39.3462C8.39582 38.3818 8.56892 37.1331 9.18851 36.33C9.75239 35.6144 10.567 35.2858 11.4282 35.2696ZM37.1673 35.5368C37.4623 35.7306 37.6754 35.9847 37.9584 36.2402L38.0356 36.3154L36.2071 38.0166L36.8166 38.7534C37.3344 38.3471 37.893 37.914 38.4468 37.3966C38.7313 37.6353 38.9611 37.9154 39.2296 38.2316C38.682 38.7536 38.1115 39.1089 37.6348 39.6071C37.838 39.8619 37.9949 40.1493 38.3049 40.4546L40.2774 38.8285L41.1186 39.699C40.0012 40.76 38.7828 41.8528 37.6244 42.7005L34.1803 38.2503C35.2781 37.3353 36.2017 36.5019 37.1673 35.5368ZM15.845 38.5488C16.9659 38.5547 17.9845 39.1012 18.5753 39.987C19.1948 40.7795 19.2037 42.0094 18.8174 42.9134C18.3865 43.8332 17.5597 44.4178 16.6549 44.6209C15.5591 44.7931 14.5214 44.4391 13.7285 43.6774C13.0279 42.9049 12.643 41.796 12.9979 40.7197C13.313 39.551 14.4506 38.6975 15.6196 38.5551C15.6951 38.5506 15.7703 38.5484 15.845 38.5488ZM33.5228 38.6156C33.7522 38.8832 33.8856 39.1878 34.0863 39.5111L34.1385 39.6071L31.9072 40.7259L32.285 41.6026C32.9655 41.3427 33.5537 41.1014 34.2304 40.7593C34.4366 41.0693 34.5782 41.4003 34.748 41.7779C34.1343 42.1051 33.4986 42.3586 32.8298 42.6525C32.9542 42.9531 33.0164 43.1723 33.2347 43.6544L35.5851 42.6483L36.1507 43.7192C34.7801 44.4236 33.3033 45.1298 31.9531 45.6186L29.895 40.3815C31.2053 39.8117 32.3259 39.27 33.5228 38.6156ZM20.3433 40.4692C21.6947 40.7611 23.0788 41.0154 24.3969 41.2123C24.3233 41.6262 24.298 42.1241 24.2299 42.64C23.3798 42.4975 22.5684 42.3467 21.7543 42.2246C21.7089 42.6317 21.5943 42.8763 21.5602 43.1848C22.2909 43.4024 22.967 43.4773 23.6726 43.6064L23.4722 44.9131C22.7705 44.8223 22.014 44.7 21.2951 44.5457C21.1358 45.1124 20.9921 45.8259 20.7858 46.4431C20.1862 46.3476 19.5499 46.2121 18.9719 45.9839L20.312 40.5798L20.3433 40.4692ZM29.1519 40.5965C29.2083 41.0132 29.3341 41.4957 29.4253 42.0096C28.5705 42.1329 27.7554 42.2342 26.9414 42.3666C27.0235 42.7673 26.9864 43.0361 27.0478 43.3413C27.8102 43.3264 28.4758 43.1912 29.1873 43.0992L29.3961 44.4017C28.7002 44.5293 27.941 44.6449 27.2106 44.7169C27.231 45.3059 27.3098 46.0264 27.3004 46.6769C26.7012 46.7685 26.0543 46.8345 25.4343 46.7938L25.069 41.2373L25.0628 41.1204C26.4385 40.9882 27.8369 40.8102 29.1519 40.5965Z" fill="#434343"/>
<path d="M25.6465 4.54C25.7882 4.69149 25.7588 5.00729 25.6762 5.18029C25.4128 5.48554 24.9252 5.47419 24.5185 5.42336C24.5482 5.07856 24.4211 4.74279 24.4465 4.38777C24.7921 4.4382 25.3925 4.26521 25.6465 4.54Z" fill="#434343"/>
<path d="M18.941 5.9414C19.0416 6.19542 19.0479 6.60908 18.8314 6.75977L17.8259 7.18638C17.5751 6.72496 17.4683 6.40869 17.2957 6.03377C17.7626 5.86078 18.5646 5.15983 18.941 5.9414Z" fill="#434343"/>
<path d="M25.9815 6.85602C26.0621 7.21216 25.9005 7.57773 25.5545 7.64934C25.2297 7.69943 24.9862 7.66931 24.6406 7.67906C24.5897 7.31276 24.56 6.82549 24.5897 6.52057C25.0567 6.58162 25.7588 6.3276 25.9815 6.85602Z" fill="#434343"/>
<path d="M13.3021 10.5445C13.0281 10.799 12.7229 11.0423 12.3882 11.2756C12.144 10.6964 11.91 10.1782 11.6564 9.53827C12.24 9.84866 12.7527 10.2088 13.3021 10.5445Z" fill="#434343"/>
<path d="M24.8394 11.4637C22.6591 11.4818 20.4971 11.9886 18.7569 12.9833C14.46 15.1679 11.8704 19.6069 11.5347 24.1985L11.6557 24.4427C13.271 25.3065 14.3177 23.4066 15.893 23.6203C16.2481 23.7832 15.822 24.0567 15.8325 24.2903C15.7096 24.5948 15.282 24.4524 15.008 24.5346C13.9305 25.0015 12.8237 25.906 11.5639 25.4175C11.5639 25.4175 11.5729 25.5117 11.5827 25.6471H11.5806C11.6068 25.9934 11.6557 26.6073 11.6557 26.6073C13.0683 27.0551 13.9817 25.5802 15.3128 25.7536C15.2814 26.0479 15.2619 26.363 15.0999 26.576C13.8807 26.6378 13.1175 27.7854 11.8373 27.7052L12.0816 28.68C13.1884 28.7923 13.9008 27.6538 15.008 27.7657L14.9788 28.4963C14.0031 28.5876 13.3735 29.5019 12.3884 29.5629C12.5199 31.8181 14.0826 29.2172 15.0685 29.6548C15.1088 29.8982 15.2524 30.1323 15.1604 30.3874C14.3679 30.3765 13.8699 31.0684 13.1795 31.3017C13.3012 31.5858 13.3829 31.9918 13.6972 32.0928C14.287 31.849 14.7646 31.3325 15.4651 31.3622C15.3842 31.0976 15.3131 30.7417 15.3441 30.5085C16.2274 30.7418 16.7363 30.0501 17.3563 29.6548C17.4979 28.404 18.3707 27.4503 18.9093 26.3631C18.9668 26.1231 18.9863 25.8847 18.9823 25.6471C18.9549 24.3254 18.1592 23.0475 18.7882 21.6687C18.9816 21.1302 19.317 20.4207 19.8861 20.2681C18.8396 21.5181 19.0331 23.4272 19.5814 24.8393C19.6922 25.1266 19.7318 25.3935 19.7212 25.6471C19.6743 26.7617 18.6372 27.6113 18.2392 28.6195C17.7426 29.6257 18.1976 30.7744 18.7569 31.6064C17.9545 32.2264 17.213 33.018 16.1665 33.0383C15.8725 32.8947 15.862 32.4907 15.7094 32.2159C15.0902 32.0934 14.5937 32.5209 14.0958 32.8254L14.674 33.556C15.1006 33.3525 15.5895 32.9175 16.0767 33.222C16.7984 34.0757 15.374 33.6465 15.1917 34.1655C15.394 34.4398 15.639 34.6429 15.893 34.8668C16.1873 34.7753 16.4215 34.5412 16.7781 34.5913C16.9202 34.7639 17.0823 34.9368 17.1434 35.1403L16.5944 35.4763C16.9908 35.8826 17.4891 36.2693 17.9658 36.4532C18.2507 35.4967 19.0123 34.7564 19.3685 33.8315C19.4397 33.4758 19.4593 33.0483 19.5501 32.7336C20.5758 34.3284 18.4229 35.2737 18.4229 36.7872C18.6471 36.9899 18.921 37.101 19.1848 37.213C19.144 36.0248 20.1401 35.2632 20.5562 34.2573C21.3186 32.6621 19.5604 31.6664 19.0011 30.3874C18.4728 29.2281 19.2148 28.1399 19.9467 27.2773C20.4562 26.7271 20.5887 26.1884 20.5436 25.6471C20.4423 24.4209 19.4313 23.1896 19.8548 21.821C20.0991 20.9678 20.4639 19.9509 21.3473 19.5959C20.707 20.3368 20.3718 21.2008 20.312 22.1863C20.1339 23.5252 21.2069 24.4562 21.268 25.6471C21.2793 25.8847 21.251 26.1321 21.1657 26.3944C20.6679 27.4714 19.5407 28.2823 19.5501 29.5629C19.4178 31.2482 21.6228 31.8899 21.3786 33.6186C21.3586 35.1223 19.6319 35.9533 20.0072 37.5783L20.9528 37.8851C20.4142 36.0566 22.314 35.0387 22.3242 33.4036C22.4153 32.0213 20.9323 31.3009 20.5562 30.1119C20.1605 28.933 21.0235 27.9891 21.6833 27.0936C22.0078 26.5884 22.084 26.1121 22.0319 25.6471C21.8996 24.4949 20.9695 23.4162 21.0133 22.1571C20.9926 20.999 21.4999 19.8607 22.5057 19.3225C22.2021 19.7585 21.8563 20.1749 21.6833 20.6626C21.0532 22.3701 22.1107 23.8335 22.6289 25.2964C22.6688 25.4174 22.6968 25.5336 22.7124 25.6471C22.9073 27.0028 21.5185 27.8683 21.2554 29.1058C20.8997 30.6095 22.5161 31.2998 22.871 32.5499C23.6334 34.5909 21.165 35.7803 21.7439 37.8225C21.7337 38.4221 22.4348 38.1892 22.8105 38.3109C21.8963 36.6249 23.3704 35.2328 23.8166 33.771C24.3148 32.2055 22.823 31.3212 22.2031 30.1119C21.5518 28.7508 23.0342 27.9072 23.3595 26.7596C23.633 25.9769 24.3359 26.6992 24.7935 26.6073C25.4134 26.7204 25.951 26.1092 26.4696 26.5467C26.7228 27.5831 27.921 28.2229 27.9308 29.35C27.8901 31.0963 25.3618 32.011 26.1649 33.9213C26.8251 35.2528 27.9516 36.776 27.2002 38.3109L28.1437 38.098C28.7737 36.5227 27.6067 35.3128 27.0478 34.0423C26.5402 32.5904 27.8107 31.5036 28.5716 30.3874C29.2941 29.0356 28.136 27.9264 27.4757 26.8807C27.2479 26.4502 27.2014 26.0416 27.2565 25.6471C27.3728 24.8108 27.9453 24.0334 28.2063 23.2529C28.7652 21.9227 28.4498 20.2678 27.4131 19.262L27.4444 19.2306C27.9626 19.5359 28.4298 20.0741 28.6634 20.602C29.5526 22.3902 28.2809 23.974 27.9662 25.6471L27.9328 25.8454C27.9027 27.025 28.8682 27.5836 29.3355 28.5276C30.1171 30.0513 28.7364 31.1285 27.9642 32.2765C26.7137 34.42 29.7011 35.6793 29.0913 37.8225L30.0056 37.5177C30.2388 36.3687 29.3747 35.4361 28.8158 34.5016C28.0444 32.9365 29.426 31.728 30.2185 30.5398C30.9194 29.0565 29.7008 27.8063 28.9995 26.6678C28.7752 26.3402 28.7044 25.9946 28.7239 25.6471H28.726C28.7628 24.9818 29.1296 24.3073 29.3961 23.7414C29.9245 22.3184 29.5582 20.5929 28.6342 19.5354C29.2541 19.7898 29.7098 20.4815 29.9137 21.0905C30.6453 22.6043 29.7509 24.118 29.4566 25.5406L29.4545 25.6471C29.4432 27.0114 30.7359 27.7655 31.1014 28.9827C31.4576 30.2429 30.4528 31.1164 29.8532 32.0322C28.0548 33.9022 30.8589 35.304 30.828 37.1525C31.0926 37.0409 31.4372 36.9883 31.5899 36.7246C31.4576 35.6992 30.5845 34.9769 30.2185 34.0423C30.1985 33.5958 30.0965 33.0463 30.4022 32.7023L30.4627 32.7628C30.3512 34.2555 31.6521 35.1604 32.047 36.4511C32.5053 36.1753 32.9817 35.9139 33.3579 35.5076C33.2162 35.3648 33.0031 35.2537 32.811 35.1716C32.7076 34.9481 33.0029 34.7343 33.1449 34.5308L33.9966 34.8355C34.2506 34.6015 34.527 34.4102 34.6687 34.105C34.3635 33.8913 34.0282 33.7373 33.6626 33.6771C33.6509 33.4438 33.783 33.2613 33.936 33.0989C34.4554 33.079 34.8618 33.322 35.2782 33.5247C35.5009 33.3224 35.747 33.0588 35.8272 32.7649L34.7292 32.2159C33.9774 31.7384 34.1805 32.7738 33.815 33.007C32.7892 32.9664 32.0581 32.2446 31.2851 31.6043C31.3767 31.1379 31.7425 30.7831 31.8654 30.3248C32.3123 28.8322 31.1234 27.7056 30.4627 26.5154C30.2971 26.2243 30.2353 25.9355 30.2373 25.6471C30.2428 24.8382 30.7381 24.0319 30.7675 23.1924C31.0211 22.1055 30.5125 21.0607 30.0953 20.1762C30.3806 20.3492 30.6867 20.5812 30.8593 20.8755C31.4279 21.9932 31.5904 23.5491 31.0722 24.7475C30.9446 25.0684 30.9017 25.3673 30.9177 25.6471C31.0011 27.0506 32.5783 28.0334 32.596 29.5316C33.2046 29.9895 33.7554 30.7527 34.5769 30.5085C34.6383 30.8028 34.4749 31.1159 34.485 31.3914C35.2165 31.3507 35.7049 31.9006 36.3448 32.0928C36.4971 31.8286 36.7614 31.5642 36.7414 31.2683C36.0205 31.0553 35.5024 30.3456 34.7 30.3248L34.8503 29.6235C35.6945 29.6031 36.3138 30.3155 37.1067 30.5085C37.3811 30.3042 37.4719 29.9293 37.5639 29.5942C36.5889 29.442 35.8879 28.6176 34.9129 28.465C34.9325 28.2227 34.8619 27.9391 34.9735 27.7344C35.8979 27.7344 36.5075 28.4773 37.3509 28.68C38.1634 29.0659 37.8984 28.1007 38.0815 27.7344C36.7908 27.7861 36.0102 26.5878 34.7605 26.5467L34.6082 25.7828C35.9588 25.5605 36.8731 27.0343 38.2652 26.6386C38.3995 26.2863 38.3672 25.9908 38.357 25.6471L38.355 25.4175C36.7804 26.0382 35.7449 24.4635 34.2408 24.474C34.0467 24.2505 33.9963 23.9767 33.9047 23.7121C35.6017 23.1646 36.7198 25.6103 38.3863 24.3509C38.2552 22.288 37.8163 20.35 36.8625 18.6232C35.8657 16.6519 34.0284 14.7103 32.1075 13.5322C30.1297 12.132 27.4708 11.4419 24.8394 11.4637ZM24.9459 12.3132C25.2812 12.7703 25.3927 13.3691 25.6764 13.8662L27.3233 13.9581L27.292 14.1104L26.073 15.2689C26.2856 15.7875 26.5002 16.3069 26.7138 16.824C27.6383 16.2866 28.5229 15.6143 29.6403 15.5423C29.5386 16.1325 29.0916 16.7534 29.1519 17.3416C29.843 17.1486 30.4727 16.7214 31.2246 16.7613C30.7565 17.6255 30.0755 18.4904 30.0348 19.5667C29.0086 19.1816 27.9531 18.7138 26.8057 18.5314C24.3572 18.1142 21.9985 18.6511 19.9759 19.6272C19.8037 18.6011 19.3061 17.7084 18.6963 16.8553C19.0619 16.7332 19.5092 16.9339 19.8861 17.0369C20.2012 17.1273 20.465 17.3424 20.8004 17.4042C20.8602 16.7945 20.505 16.1931 20.2514 15.6342C20.424 15.5019 20.6993 15.6032 20.8922 15.6655C21.6942 15.9696 22.415 16.4465 23.1466 16.8845C23.5223 16.4465 23.664 15.8168 23.8166 15.2376L22.5684 14.1104V13.9894L24.2132 13.8975C24.4872 13.3797 24.6715 12.8314 24.9459 12.3132ZM14.3067 17.828C14.4011 17.8339 14.5061 17.9132 14.5822 17.9511C15.3654 18.5609 15.7409 19.4037 15.8325 20.3286C16.8176 19.9521 18.1573 19.3014 19.214 19.9925C18.9898 20.3072 18.5554 20.4809 18.2392 20.7544C17.7218 21.2624 17.0912 21.8825 16.7155 22.5224C15.4454 22.2679 14.4297 23.0101 13.3632 23.4366C12.9569 23.5172 12.4186 23.5582 12.0836 23.2842C13.0895 21.6275 14.5093 20.1037 14.1543 17.9198C14.1963 17.8473 14.25 17.8244 14.3067 17.828ZM35.7061 17.8593C35.8376 17.8792 35.9289 18.0228 35.8877 18.164C35.4924 20.2363 36.9136 21.6995 37.8686 23.2842C36.772 24.0161 35.7335 22.8882 34.6979 22.6142C34.2408 22.5433 33.704 22.4825 33.266 22.5537C32.6375 21.5791 31.7936 20.664 30.7675 20.1157C30.8277 19.781 31.2952 19.7598 31.6212 19.7191C32.5253 19.6286 33.3172 20.0028 34.0592 20.3891C34.2013 20.0545 34.2609 19.6775 34.3619 19.3225C34.6069 18.7229 35.0865 18.1125 35.7061 17.8593ZM24.8352 18.9551C24.8907 18.954 24.9464 18.9546 25.0022 18.9551C25.2996 18.958 25.6 18.9823 25.8893 19.0177C26.4792 19.17 27.1294 19.4251 27.4131 20.0551C27.4444 20.2277 27.6169 20.3798 27.5049 20.5728C26.9053 20.3893 26.2248 20.4915 25.6451 20.7252C25.1265 21.1111 25.208 21.9037 25.3404 22.4618L25.4948 22.585C25.7484 22.5235 25.7585 22.1978 25.9812 22.1258C26.3577 22.2178 26.8761 22.3504 27.2315 22.1258C27.5462 22.1363 27.5357 22.5736 27.5655 22.7979C27.3424 23.9764 26.846 25.2556 25.6472 25.8141C25.149 26.0583 24.507 25.8944 24.0295 25.7222C22.8514 25.0213 22.1919 23.6316 22.3242 22.3721C22.4157 22.1791 22.5575 22.0248 22.7813 22.1571C23.2576 22.4819 23.7757 21.9044 24.2132 22.3095C24.7411 22.0758 24.4261 21.4262 24.4261 20.9381C23.9995 20.389 23.2688 20.4691 22.6289 20.5102C22.344 20.3368 22.6507 20.0648 22.7207 19.8715C23.2067 19.186 24.0025 18.9721 24.8352 18.9551ZM22.9023 21.0237C23.2981 21.0091 23.6876 21.1584 23.8771 21.4557V21.5789C23.5319 21.548 22.9736 21.2027 22.6581 21.6394C22.4554 21.7302 22.4249 21.4954 22.4452 21.3639C22.4045 21.2117 22.4966 21.0906 22.6289 21.0612C22.7183 21.0402 22.811 21.027 22.9023 21.0237ZM26.8015 21.0571C27.0848 21.0513 27.381 21.0729 27.5049 21.3034C27.4955 21.4263 27.5263 21.5682 27.3839 21.6394C26.9976 21.4872 26.4593 21.2732 26.073 21.5789C25.8491 21.101 26.4696 21.2029 26.6825 21.0612C26.722 21.0598 26.761 21.0579 26.8015 21.0571ZM25.0022 23.0484C24.7851 23.0483 24.5597 23.1118 24.3969 23.2237C24.4169 23.3051 24.3467 23.4269 24.4574 23.4679C24.7826 23.3975 25.3713 23.6409 25.5533 23.255C25.4265 23.113 25.2193 23.0485 25.0022 23.0484ZM23.8479 24.0461L23.8771 24.2298C24.274 24.494 24.3963 24.9423 24.9459 24.9019C25.4331 24.9309 25.799 24.4743 26.0417 24.1087C25.3822 24.0175 24.5798 24.1585 23.8479 24.0461Z" fill="#434343"/>
<path d="M17.2955 40.7198C17.6395 41.5221 17.2438 42.3142 16.6849 42.8829C16.3299 43.1674 15.8646 43.3463 15.3977 43.1737C15.1038 43.0312 14.7402 42.7714 14.6587 42.4559C14.4348 41.6435 14.8063 40.8819 15.3746 40.3229C15.7202 40.038 16.218 39.876 16.654 40.0791C16.9185 40.1597 17.2132 40.4552 17.2955 40.7198Z" fill="#434343"/>
<path d="M41.4927 46.0092C42.2868 46.0092 42.9678 46.6268 42.9678 47.4647C42.9678 48.3105 42.2875 48.9273 41.4927 48.9273C40.6903 48.9273 40.0098 48.3105 40.0098 47.4647C40.0098 46.6269 40.6904 46.0092 41.4927 46.0092ZM41.4927 46.2453C40.816 46.2453 40.2931 46.7685 40.2931 47.4648C40.2931 48.1763 40.8164 48.6917 41.4927 48.6917C42.1616 48.6917 42.6844 48.1771 42.6844 47.4648C42.684 46.7685 42.1616 46.2453 41.4927 46.2453ZM41.1815 48.3106H40.9225V46.6269H41.567C41.9682 46.6269 42.165 46.7764 42.165 47.1063C42.165 47.4096 41.976 47.5391 41.7243 47.5705L42.2042 48.3102H41.9212L41.4727 47.5787H41.1811V48.3106H41.1815ZM41.1815 47.3665H41.4888C41.8035 47.3665 41.9056 47.2758 41.9056 47.0906C41.9056 46.9298 41.8269 46.8389 41.5318 46.8389H41.1815V47.3665Z" fill="#434343"/>
</g>
</svg>
