<svg width="133" height="34" viewBox="0 0 133 34" fill="none" xmlns="http://www.w3.org/2000/svg">
<g opacity="0.7">
<path d="M131.584 5.95004C131.584 6.56714 131.149 6.98216 130.636 6.98216V6.9789C130.11 6.98216 129.686 6.56714 129.686 5.95004C129.686 5.33349 130.11 4.92173 130.636 4.92173C131.149 4.92173 131.584 5.33349 131.584 5.95004ZM131.967 5.95004C131.967 5.10262 131.338 4.60938 130.636 4.60938C129.931 4.60938 129.303 5.10262 129.303 5.95004C129.303 6.79801 129.931 7.29071 130.636 7.29071C131.338 7.29071 131.967 6.79801 131.967 5.95004ZM130.416 6.06303H130.559L130.889 6.67035H131.251L130.886 6.03913C131.075 6.02446 131.229 5.92886 131.229 5.66268C131.229 5.33349 131.012 5.22647 130.643 5.22647H130.11V6.67035H130.416V6.06303ZM130.416 5.81858V5.47092H130.629C130.746 5.47092 130.903 5.48178 130.903 5.63063C130.903 5.79033 130.822 5.81858 130.685 5.81858H130.416Z" fill="#434343"/>
<path d="M110.957 33.0378H1.03333L2.26626 29.7312C3.48523 26.4621 10.0245 8.94434 10.6442 7.52274C11.373 5.75837 12.5699 3.96466 14.0609 2.87278C16.0871 1.45009 18.3213 0.942726 20.6195 0.964454L20.9162 0.96228H130.411L129.161 4.27755C126.869 10.3556 121.278 25.1725 120.693 26.6413C119.803 28.931 118.493 30.2874 117.032 31.306C115.729 32.1876 113.821 33.0378 110.957 33.0378Z" fill="#434343"/>
<path d="M128.668 2.17688L128.039 3.84511C125.749 9.91775 120.162 24.7248 119.578 26.1931C118.789 28.2221 117.655 29.3965 116.357 30.3015C115.231 31.0637 113.56 31.8242 110.957 31.8242H2.76892L3.38969 30.1597C4.60543 26.8988 11.1248 9.4294 11.7424 8.0116C12.4169 6.3727 13.4934 4.7865 14.7549 3.86249C16.5333 2.61471 18.5026 2.15732 20.611 2.17797L20.919 2.17688H128.668Z" fill="#434343"/>
<path d="M122.894 3.68042C120.669 9.94157 115.595 24.2217 115.056 25.6607C114.425 27.3843 113.562 28.3285 112.543 29.0824C111.705 29.6838 110.435 30.3199 108.328 30.3199H8.53589C9.93114 26.3462 15.6949 9.95406 16.256 8.5846C16.8322 7.08912 17.7071 5.76855 18.6128 5.06454C19.9736 4.04981 21.4828 3.66412 23.221 3.68205L23.5262 3.68042H122.894Z" fill="white"/>
<path d="M107.171 25.1883C107.019 25.5044 106.463 26.1145 105.779 25.8993C105.403 25.7787 105.079 25.286 105.211 24.9107C105.457 24.0839 107.203 19.1748 107.203 19.1748L101.619 19.1721L98.4506 28.4183C100.486 29.2298 103.834 29.1902 105.151 29.1902C106.468 29.1918 108.372 29.132 109.657 28.5622C110.922 28.0277 112.572 27.0037 113.61 24.0459C114.672 21.1092 115.195 19.9055 115.09 18.8592C114.962 17.8744 114.286 17.2035 113.625 16.6907C113.01 16.1578 110.852 14.2055 110.852 14.2055C110.852 14.2055 110.213 13.7312 110.086 12.8056C110.017 11.8392 111.022 9.66958 111.242 9.05845C111.487 8.38812 112.196 8.3099 112.572 8.46797C113.357 8.88191 113.16 9.35505 112.85 10.2818C112.497 11.2476 111.483 13.9094 111.483 13.9094L116.984 13.9116L119.968 5.3537C118.661 4.89902 116.07 4.72085 114.233 4.72085C112.455 4.71976 110.344 4.70129 109.119 5.31241C107.852 5.90181 106.388 6.98661 105.228 9.82656C104.025 12.6051 103.777 13.5123 103.888 14.3016C104.095 15.4261 105.45 16.7874 106.357 17.518C107.508 18.4447 108.914 19.2927 108.837 20.1401C108.583 22.4678 107.171 25.1883 107.171 25.1883Z" fill="#434343"/>
<path d="M29.6296 27.7692L26.2043 27.7681L34.162 6.30383L40.1864 6.30546L38.4155 19.1776L42.9549 6.30655L46.3801 6.30709L38.4407 27.7534L32.5287 27.7518L34.1437 15.1279L29.6296 27.7692Z" fill="#434343"/>
<path d="M40.0907 27.7529L45.382 27.7562L53.3795 6.29034L47.8812 6.30664L40.0907 27.7529Z" fill="#434343"/>
<path d="M58.6203 14.9213L63.4962 14.9223L66.4721 6.86261C65.3203 6.11677 63.4946 6.08091 61.4243 6.04506C59.318 6.00758 57.7367 5.9902 56.2716 6.75396C54.6555 7.64158 54.0535 8.63404 53.795 9.32773C53.5187 10.0198 48.9132 22.4476 48.6956 23.0326C48.458 23.6709 47.6271 25.7476 48.3602 26.8156C48.8547 27.5077 51.2937 27.9346 52.0079 27.9862C53.3441 28.0579 55.1123 28.0764 56.4742 27.7396C57.3251 27.5267 59.491 26.5163 60.3064 24.2434C60.7256 23.0543 62.4524 18.3484 62.4524 18.3484H57.3885C57.3885 18.3484 55.481 23.584 55.2053 24.2597C55.0656 24.6682 54.5507 25.005 54.0997 24.8633C53.5209 24.6867 53.3247 24.1717 53.4811 23.7622C53.7004 23.2309 58.2463 10.8015 58.486 10.1436C58.6456 9.70038 58.9767 9.1338 59.7619 9.36413C60.4531 9.61238 60.366 10.2534 60.2273 10.6418C60.0699 11.0861 58.6203 14.9213 58.6203 14.9213Z" fill="#434343"/>
<path d="M91.1351 6.31785L89.9651 9.44354L85.56 9.40769L83.4897 15.3185L86.973 15.319L85.7256 18.4795L82.3374 18.4952L80.2263 24.5684L84.5571 24.5499L83.3833 27.7642L73.7649 27.7625L81.4979 6.31622L91.1351 6.31785Z" fill="#434343"/>
<path fill-rule="evenodd" clip-rule="evenodd" d="M97.4003 12.4123C97.2605 12.9126 96.8822 13.8703 96.6876 14.2267C96.492 14.6347 96.2189 15.1149 95.4278 15.1328C94.8038 15.1306 94.5227 15.1149 94.5227 15.1149L96.6715 9.24809C96.6715 9.24809 97.1418 9.22962 97.217 9.24809C97.7453 9.22907 98.0194 9.62237 98.0667 10.1553C98.0947 10.5643 97.7787 11.4177 97.597 12.0044C97.5013 12.1635 97.4401 12.307 97.4003 12.4123ZM103.083 6.95842C102.769 6.5836 102.531 6.28157 100.477 6.26364C99.1384 6.26256 92.7313 6.26093 92.7313 6.26093L85.0085 27.7518H90.2101C90.2101 27.7518 92.8232 20.1804 93.4618 18.3872C93.4618 18.3872 93.7455 18.2422 93.989 18.3117C94.4034 18.4203 94.6044 18.7235 94.5942 19.2917C94.5646 19.8604 94.4453 20.1271 94.1674 20.9094C93.8471 21.7253 92.8507 24.7298 92.6507 25.3334C92.4519 25.9037 92.1595 26.4187 92.145 27.1662C92.1471 27.8767 92.4352 27.7692 92.4352 27.7692L97.6572 27.7529C97.6572 27.7529 97.4943 27.3617 97.5045 26.6876C97.5196 25.9591 98.1737 24.2333 98.5332 23.2376C98.9299 22.2093 99.5281 20.4134 99.6383 19.6306C99.7662 18.9196 99.8097 18.5453 99.6463 18.2259C99.4663 17.7989 99.1761 17.2139 98.4854 16.9107C98.4854 16.9107 99.319 16.6272 99.7189 16.3588C100.082 16.1633 101.082 15.1692 101.297 14.7074C101.807 13.6759 102.22 12.7356 102.477 12.0951C102.853 11.2064 103.475 9.25026 103.541 8.71791C103.589 8.16491 103.435 7.33052 103.083 6.95842Z" fill="#434343"/>
<path d="M20.0627 25.1648C19.9101 25.4826 19.3554 26.0926 18.6696 25.8775C18.2939 25.7564 17.9709 25.2637 18.102 24.8888C18.3477 24.061 20.0933 19.1525 20.0933 19.1525L14.5118 19.1508L11.344 28.3986C13.3783 29.2064 16.7251 29.1678 18.0408 29.1683C19.3597 29.1678 21.2634 29.1108 22.5495 28.5382C23.8131 28.0048 25.4653 26.9819 26.5026 24.0251C27.5641 21.0869 28.0881 19.8825 27.9827 18.8379C27.8554 17.8509 27.1771 17.1806 26.5171 16.6683C25.9006 16.1343 23.7438 14.1831 23.7438 14.1831C23.7438 14.1831 23.1031 13.7083 22.9752 12.7838C22.9075 11.8168 23.9131 9.6472 24.1329 9.03662C24.3774 8.3652 25.089 8.28644 25.461 8.4456C26.25 8.85953 26.0533 9.33213 25.7405 10.2589C25.3873 11.2247 24.3748 13.8876 24.3748 13.8876L29.8751 13.8887L32.8597 5.33078C31.552 4.87774 28.9631 4.69902 27.1239 4.69739C25.346 4.69793 23.2337 4.67783 22.0099 5.28841C20.7442 5.87998 19.2812 6.96424 18.1187 9.80365C16.9153 12.5838 16.6692 13.4899 16.7783 14.2798C16.9879 15.4048 18.3412 16.7634 19.2474 17.4945C20.4002 18.4229 21.8057 19.2703 21.7272 20.1178C21.4746 22.4449 20.0627 25.1648 20.0627 25.1648Z" fill="#434343"/>
<path d="M69.3958 15.2201L72.6878 6.383L67.4233 6.37159L60.0531 27.7451L65.2987 27.7571L68.4612 18.2279L68.9986 27.7641L73.7648 27.7625C73.7648 27.7625 73.9234 17.2898 71.8703 17.1029L81.1861 6.36942L76.5768 6.36725L69.3958 15.2201Z" fill="#434343"/>
</g>
</svg>
