<?xml version='1.0' encoding='UTF-8' standalone='no'?>
<!DOCTYPE svg PUBLIC '-//W3C//DTD SVG 1.1//EN' 'http://www.w3.org/Graphics/SVG/1.1/DTD/svg11.dtd'>
<!-- Animated using aniGen version 0.8.1 Quality of Life - http://anigen.org -->
<svg width="585px" height="584px" viewBox="0 0 585 584" fill="none" xmlns="http://www.w3.org/2000/svg" id="svg6732" preserveAspectRatio="xMidYMid" xmlns:svg="http://www.w3.org/2000/svg" xmlns:xlink="http://www.w3.org/1999/xlink" xmlns:sodipodi="http://sodipodi.sourceforge.net/DTD/sodipodi-0.dtd" xmlns:inkscape="http://www.inkscape.org/namespaces/inkscape" xmlns:anigen="http://www.anigen.org/namespace" anigen:version="0.8.1">
<sodipodi:namedview id="base" bordercolor="#666666" borderopacity="1" inkscape:cx="0" inkscape:cy="-210" inkscape:zoom="1"></sodipodi:namedview><circle cx="291.936" cy="291.937" r="199.885" fill="#1A73E8" id="circle6770"></circle>
<g filter="url(#filter0_ddii_2563_11694)" id="g2640">
<path d="M383.08 276.904C374.648 269.288 366.345 261.413 358.041 253.668C349.737 246.052 341.561 238.307 333.258 230.561C322.271 220.364 311.285 210.166 300.299 199.968C297.105 196.999 293.911 193.901 290.462 191.061C288.035 188.995 284.458 189.124 282.286 191.061C279.348 193.642 279.348 197.644 282.542 200.613C287.14 204.873 291.739 209.133 296.338 213.393C305.92 222.3 315.373 231.207 324.954 239.985C334.663 249.021 344.372 257.928 354.081 266.964C360.085 272.515 366.217 278.065 372.221 283.616C375.926 287.101 379.758 290.329 382.952 294.201C397.898 312.274 403.008 332.799 397.515 355.776C394.321 369.201 387.423 380.561 377.203 389.597C360.851 404.055 341.817 409.606 320.355 405.862C308.347 403.796 297.616 398.633 288.418 390.5C276.921 380.174 265.807 369.718 254.437 359.261C247.411 352.678 240.385 346.095 233.231 339.511C221.733 329.055 210.364 318.599 198.994 308.014C196.311 305.561 193.756 303.108 190.946 300.785C188.646 298.848 186.219 298.719 183.792 300.01C181.493 301.301 180.726 303.496 180.854 306.077C180.982 307.885 181.876 309.176 183.025 310.337C190.307 317.179 197.461 324.02 204.743 330.733C211.897 337.446 219.178 344.029 226.46 350.742C234.636 358.229 242.684 365.845 250.86 373.332C259.419 381.206 267.978 388.951 276.41 396.955C291.995 411.8 310.391 419.287 333.13 419.674C334.791 419.545 337.857 419.287 340.923 419.029C351.398 417.996 361.235 414.769 370.433 409.606C386.273 400.698 397.898 387.661 405.18 370.879C408.757 362.488 410.801 353.711 411.44 344.545C412.206 332.928 410.673 321.697 406.713 310.854C401.859 297.429 393.555 286.327 383.08 276.904Z" fill="white" id="path3095"></path>
<path d="M369.283 326.473C370.049 329.313 370.305 332.412 370.816 335.252C371.327 338.22 372.732 339.769 375.159 340.286C378.992 341.06 382.313 338.479 382.058 334.477C381.802 330.862 381.419 327.248 380.397 323.763C377.459 312.919 371.838 303.754 363.279 296.525C350.248 285.424 335.302 281.938 318.822 284.778C306.43 286.973 296.083 293.298 288.035 303.109C279.859 313.048 275.771 324.666 275.643 337.962C275.771 339.769 275.771 341.964 276.027 344.029C276.538 347.128 277.176 350.097 277.943 353.065C284.075 374.365 303.237 390.243 326.743 391.275C338.495 391.792 349.354 388.694 359.063 381.723C368.261 375.269 374.776 366.749 378.608 356.164C379.119 354.744 379.247 352.807 378.736 351.387C378.097 349.322 376.437 348.031 374.137 347.773C371.838 347.515 370.049 348.548 369.027 350.484C368.005 352.291 367.239 354.356 366.217 356.293C360.596 367.523 351.781 374.881 339.901 378.237C331.597 380.561 323.421 380.432 315.245 377.334C300.043 371.654 290.59 360.811 287.651 344.933C284.969 330.475 289.184 317.825 299.404 307.24C310.902 295.493 329.681 291.104 345.777 298.72C357.913 304.529 365.833 313.565 369.283 326.473Z" fill="white" id="path8095"></path>
<path d="M211.385 280.647C220.072 288.65 228.631 296.654 237.318 304.657C242.045 309.046 246.772 313.435 251.626 317.824C252.776 318.986 254.053 319.631 255.586 319.502C259.035 320.019 262.357 316.92 262.101 313.048C261.846 310.724 260.696 309.304 259.163 307.884C250.732 300.01 242.3 292.265 233.869 284.52C217.389 269.287 201.038 254.055 184.686 238.822C183.664 237.919 182.514 237.015 181.237 236.37C177.915 234.821 174.21 236.886 173.572 240.501C173.188 242.953 173.699 245.148 175.616 246.955C178.937 250.053 182.131 253.151 185.452 256.249C194.011 264.382 202.698 272.514 211.385 280.647Z" fill="white" id="path117"></path>
<path d="M181.49 201C190.433 209.52 199.375 217.911 208.318 226.431C219.176 236.758 230.035 247.084 240.893 257.411C243.448 259.864 246.131 262.317 248.814 264.64C252.135 267.609 257.373 265.673 258.523 261.93C259.417 259.09 258.523 256.895 256.479 254.959C252.774 251.344 249.069 247.859 245.365 244.374C236.167 235.596 226.969 226.947 217.898 218.298C210.234 211.198 202.697 203.969 195.032 196.74C192.477 194.288 190.049 191.964 187.367 189.641C185.45 187.962 183.279 187.317 180.852 188.608C178.68 189.77 177.53 191.577 177.402 194.804C177.658 195.45 178.041 196.869 178.808 198.031C179.446 199.064 180.468 200.097 181.49 201Z" fill="white" id="path6571"></path>
<path d="M244.218 210.294C246.134 212.102 248.178 213.909 250.094 215.716C264.147 228.883 278.199 242.05 292.379 255.217C294.806 257.411 297.234 259.606 299.788 261.671C301.705 263.22 304.004 263.22 306.176 262.058C308.348 260.897 309.37 258.96 309.37 256.379C309.497 253.41 307.326 251.861 305.537 250.053C296.723 241.921 287.908 233.788 279.221 225.527C271.812 218.685 264.53 211.844 257.248 205.002C254.949 202.807 252.649 200.613 250.222 198.547C247.795 196.482 244.346 196.74 242.174 198.935C239.874 201.258 239.619 204.356 241.535 207.067C242.174 208.358 243.196 209.391 244.218 210.294Z" fill="white" id="path9800"></path>
<path d="M348.46 347.902C344.117 354.614 337.857 358.616 329.809 359.519C324.699 360.165 319.844 359.519 315.245 357.325C312.435 355.905 309.497 356.809 307.836 359.132C305.792 362.101 307.07 365.715 310.902 367.265C312.69 368.039 314.479 368.685 316.395 369.072C319.461 369.846 322.655 370.234 325.849 370.234C333.769 370.234 340.54 368.426 346.672 364.425C348.716 363.134 350.632 361.585 352.548 359.649C354.848 357.454 356.764 354.872 358.425 352.161C360.98 347.772 357.275 344.674 354.081 344.674C351.398 344.674 349.865 345.836 348.46 347.902Z" fill="white" id="path9150"></path>
<path d="M265.296 277.42C268.612 277.42 271.3 274.704 271.3 271.353C271.3 268.002 268.612 265.286 265.296 265.286C261.98 265.286 259.292 268.002 259.292 271.353C259.292 274.704 261.98 277.42 265.296 277.42Z" fill="white" id="path9530"></path>
</g>
<g opacity="0.7" id="g608">
<path d="M 260.623 572.137 C 259.772 571.861 259.149 571.436 258.754 570.861 C 258.358 570.298 258.207 569.598 258.299 568.764 C 258.42 567.678 258.901 566.887 259.741 566.388 C 260.569 565.889 261.729 565.722 263.22 565.888 L 268.765 566.505 L 267.372 579.028 L 262.166 578.449 C 260.83 578.3 259.817 577.91 259.127 577.277 C 258.437 576.645 258.149 575.81 258.265 574.773 C 258.343 574.069 258.588 573.493 259 573.043 C 259.411 572.606 259.952 572.304 260.623 572.137 Z M 266.697 573.212 L 262.869 572.786 C 261.903 572.678 261.141 572.793 260.585 573.129 C 260.016 573.464 259.69 574.008 259.606 574.759 C 259.523 575.51 259.721 576.112 260.202 576.564 C 260.671 577.015 261.389 577.294 262.355 577.401 L 266.183 577.827 L 266.697 573.212 Z M 263.102 566.944 C 260.944 566.703 259.775 567.388 259.595 568.998 C 259.42 570.573 260.412 571.48 262.571 571.72 L 266.81 572.192 L 267.342 567.416 L 263.102 566.944 Z" fill="black" id="path1953"></path>
<path d="M 234.759 562.552 L 234.985 561.422 L 243.721 563.174 L 241.244 575.528 L 232.773 573.829 L 232.999 572.7 L 240.165 574.137 L 241.046 569.742 L 234.657 568.461 L 234.88 567.349 L 241.269 568.63 L 242.189 564.042 L 234.759 562.552 Z" fill="black" id="path5568"></path>
<path d="M 218.069 570.397 L 209.225 567.806 L 209.543 566.718 L 217.127 568.939 L 218.286 564.984 L 214.33 563.825 C 212.902 563.406 211.905 562.796 211.34 561.992 C 210.764 561.186 210.639 560.224 210.967 559.107 C 211.307 557.944 211.972 557.169 212.96 556.784 C 213.937 556.395 215.174 556.419 216.671 556.858 L 221.611 558.305 L 218.069 570.397 Z M 216.39 557.882 C 215.273 557.555 214.369 557.522 213.68 557.783 C 212.98 558.04 212.506 558.589 212.26 559.43 C 212.017 560.259 212.119 560.958 212.565 561.526 C 212.996 562.102 213.782 562.558 214.922 562.892 L 218.584 563.965 L 220.052 558.955 L 216.39 557.882 Z" fill="black" id="path4287"></path>
<path d="M 196.639 556.108 L 192.225 554.446 L 192.619 553.402 L 197.032 555.063 L 196.639 556.108 Z" fill="black" id="path3824"></path>
<path d="M 171.677 540.935 L 173.361 537.331 L 174.487 537.857 L 173.29 540.417 L 183.252 545.075 L 184.466 542.523 L 185.591 543.049 L 183.889 546.645 L 183.319 546.378 C 182.548 546.071 181.75 546.419 180.922 547.424 C 180.09 548.439 179.148 549.985 178.097 552.064 L 176.236 555.704 L 168.54 552.106 L 173.389 541.735 L 171.677 540.935 Z M 177.074 551.446 C 177.942 549.733 178.749 548.361 179.495 547.332 C 180.225 546.309 180.929 545.724 181.607 545.578 L 174.579 542.292 L 170.218 551.619 L 175.68 554.173 L 177.074 551.446 Z" fill="black" id="path7508"></path>
<path d="M 152.357 543.88 L 151.226 543.211 L 156.541 534.225 L 144.285 539.105 L 143.247 538.491 L 149.662 527.646 L 150.793 528.315 L 145.487 537.286 L 157.734 532.421 L 158.772 533.035 L 152.357 543.88 Z" fill="black" id="path6993"></path>
<path d="M 127.901 521.151 C 127.348 520.501 127.039 519.821 126.975 519.109 C 126.9 518.391 127.084 517.725 127.525 517.111 C 127.953 516.517 128.513 516.129 129.205 515.947 C 129.898 515.765 130.639 515.773 131.427 515.971 C 132.209 516.179 132.961 516.542 133.682 517.06 C 134.363 517.551 134.959 518.142 135.467 518.832 C 135.958 519.526 136.309 520.281 136.52 521.098 L 135.568 521.589 C 135.394 520.886 135.092 520.226 134.665 519.608 C 134.23 519 133.721 518.486 133.136 518.065 C 132.581 517.666 132.007 517.385 131.413 517.224 C 130.819 517.063 130.27 517.045 129.766 517.171 C 129.245 517.299 128.824 517.587 128.502 518.035 C 128.074 518.629 127.978 519.255 128.215 519.913 C 128.451 520.571 128.993 521.204 129.841 521.814 L 132.032 523.391 L 131.402 524.268 L 129.268 522.733 C 128.547 522.214 127.879 521.962 127.262 521.977 C 126.629 521.994 126.116 522.276 125.723 522.821 C 125.289 523.425 125.207 524.083 125.478 524.796 C 125.742 525.518 126.264 526.159 127.043 526.72 C 127.53 527.07 128.075 527.351 128.677 527.562 C 129.272 527.783 129.895 527.914 130.546 527.954 L 130.27 529.108 C 128.822 528.983 127.509 528.497 126.331 527.649 C 125.639 527.151 125.086 526.584 124.673 525.946 C 124.259 525.309 124.038 524.661 124.008 524.004 C 123.968 523.34 124.152 522.725 124.558 522.16 C 124.95 521.615 125.441 521.251 126.031 521.069 C 126.613 520.896 127.236 520.924 127.901 521.151 Z" fill="black" id="path2320"></path>
<path d="M 109.758 502.724 L 115.078 507.303 L 118.42 505.739 L 119.47 506.643 L 106.885 512.435 L 105.889 511.578 L 109.743 498.27 L 110.808 499.186 L 109.758 502.724 Z M 109.421 503.859 L 107.298 510.962 L 114.005 507.805 L 109.421 503.859 Z" fill="black" id="path3050"></path>
<path d="M 90.1376 497.295 L 89.2269 496.348 L 96.7526 489.112 L 83.6378 490.535 L 82.8019 489.665 L 91.8846 480.932 L 92.7954 481.88 L 85.2827 489.103 L 98.3845 487.693 L 99.2203 488.562 L 90.1376 497.295 Z M 85.833 494.142 C 86.4568 494.791 86.8046 495.447 86.8764 496.111 C 86.9399 496.765 86.712 497.351 86.1927 497.867 L 85.5065 497.153 C 85.8442 496.812 85.9919 496.42 85.9497 495.978 C 85.9075 495.536 85.6826 495.103 85.275 494.679 C 84.8758 494.264 84.4561 494.026 84.016 493.967 C 83.5675 493.898 83.1661 494.026 82.8118 494.35 L 82.1256 493.637 C 82.6616 493.138 83.2596 492.938 83.9197 493.035 C 84.5798 493.133 85.2175 493.502 85.833 494.142 Z" fill="black" id="path779"></path>
<path d="M 64.7532 468.561 L 74.6371 460.746 L 75.452 461.777 L 70.8913 465.383 L 75.7811 471.568 L 80.3418 467.962 L 81.1679 469.007 L 71.2841 476.821 L 70.4579 475.776 L 74.8633 472.293 L 69.9736 466.109 L 65.5682 469.592 L 64.7532 468.561 Z" fill="black" id="path3236"></path>
<path d="M 19.0966 382.942 L 31.0152 378.855 L 31.4415 380.098 L 20.6126 383.811 L 23.1994 391.354 L 34.0283 387.64 L 34.4546 388.883 L 22.536 392.971 L 19.0966 382.942 Z" fill="black" id="path6628"></path>
<path d="M 13.0118 361.939 C 12.632 360.376 12.7075 359.061 13.2383 357.994 C 13.7692 356.926 14.6876 356.233 15.9935 355.916 C 17.2995 355.598 18.4333 355.792 19.395 356.497 C 20.3451 357.205 21.01 358.34 21.3898 359.902 L 22.1892 363.19 L 26.0546 362.251 L 26.3692 363.545 L 14.1258 366.521 L 13.0118 361.939 Z M 20.2614 360.213 C 19.9666 359.001 19.4789 358.138 18.7983 357.624 C 18.106 357.113 17.276 356.975 16.3082 357.21 C 15.317 357.451 14.6371 357.956 14.2682 358.725 C 13.8878 359.497 13.8449 360.489 14.1397 361.702 L 14.9306 364.955 L 21.0523 363.467 L 20.2614 360.213 Z" fill="black" id="path3451"></path>
<path d="M 18.6955 331.538 L 19.8339 331.361 L 21.199 340.166 L 8.74775 342.097 L 7.42406 333.559 L 8.56246 333.382 L 9.68208 340.604 L 14.1112 339.917 L 13.1129 333.478 L 14.2335 333.304 L 15.2318 339.743 L 19.8565 339.026 L 18.6955 331.538 Z" fill="black" id="path9286"></path>
<path d="M 11.2211 312.759 C 11.3653 311.919 11.69 311.246 12.1952 310.741 C 12.6995 310.223 13.3287 309.938 14.0827 309.883 C 14.8128 309.831 15.4695 310.013 16.0527 310.428 C 16.6359 310.843 17.1041 311.417 17.4574 312.15 C 17.7988 312.883 18.0012 313.693 18.0647 314.579 C 18.1247 315.417 18.0523 316.252 17.8473 317.085 C 17.6295 317.906 17.2745 318.66 16.7822 319.345 L 15.7959 318.928 C 16.2232 318.344 16.5372 317.69 16.738 316.966 C 16.9267 316.242 16.9954 315.522 16.9439 314.803 C 16.895 314.121 16.7422 313.501 16.4856 312.941 C 16.2289 312.382 15.8911 311.949 15.4721 311.643 C 15.0402 311.325 14.549 311.185 13.9984 311.225 C 13.2683 311.277 12.7263 311.605 12.3726 312.208 C 12.0188 312.811 11.8792 313.633 11.9538 314.674 L 12.1469 317.367 L 11.0697 317.444 L 10.8818 314.823 C 10.8183 313.937 10.5834 313.262 10.1772 312.798 C 9.7581 312.323 9.21343 312.109 8.54315 312.157 C 7.80106 312.211 7.24329 312.569 6.86984 313.234 C 6.48443 313.899 6.32605 314.71 6.3947 315.668 C 6.4376 316.266 6.57071 316.865 6.79401 317.462 C 7.00534 318.06 7.3043 318.623 7.69089 319.148 L 6.62788 319.676 C 5.79654 318.484 5.32895 317.164 5.22512 315.716 C 5.16419 314.866 5.24606 314.078 5.47072 313.352 C 5.69539 312.626 6.05047 312.041 6.53597 311.598 C 7.02062 311.142 7.61005 310.889 8.30427 310.839 C 8.97455 310.791 9.56836 310.935 10.0857 311.271 C 10.5911 311.608 10.9695 312.104 11.2211 312.759 Z" fill="black" id="path11"></path>
<path d="M 15.9648 286.233 L 17.1167 286.245 L 17.0217 295.155 L 4.42241 295.02 L 4.51458 286.381 L 5.66651 286.393 L 5.58855 293.701 L 10.0703 293.748 L 10.1398 287.233 L 11.2737 287.245 L 11.2042 293.761 L 15.884 293.81 L 15.9648 286.233 Z" fill="black" id="path3560"></path>
<path d="M 6.18725 260.779 L 18.7241 262.039 L 18.5927 263.346 L 12.8078 262.765 L 12.0195 270.609 L 17.8043 271.19 L 17.6711 272.516 L 5.13428 271.256 L 5.26748 269.931 L 10.8553 270.492 L 11.6437 262.648 L 6.05585 262.086 L 6.18725 260.779 Z" fill="black" id="path6558"></path>
<path d="M 11.2121 235.905 L 10.3878 240.256 L 21.6357 242.387 L 21.3911 243.678 L 10.1432 241.547 L 9.31897 245.897 L 8.1871 245.683 L 10.0802 235.691 L 11.2121 235.905 Z" fill="black" id="path9449"></path>
<path d="M 24.1949 216.595 L 22.3096 223.358 L 25.1459 225.718 L 24.7737 227.053 L 14.1835 218.121 L 14.5364 216.855 L 28.2204 214.691 L 27.8433 216.043 L 24.1949 216.595 Z M 23.0241 216.773 L 15.6926 217.869 L 21.3998 222.599 L 23.0241 216.773 Z" fill="black" id="path5879"></path>
<path d="M 35.8475 189.2 L 39.6793 190.669 L 39.2346 191.829 L 36.4783 190.772 L 32.54 201.041 L 20.7755 196.529 L 21.2461 195.302 L 31.9349 199.401 L 34.6615 192.292 L 23.9727 188.193 L 24.4432 186.966 L 35.132 191.065 L 35.8475 189.2 Z" fill="black" id="path1665"></path>
<path d="M 31.2975 170.761 L 31.8844 169.585 L 41.2253 174.248 L 35.4859 162.37 L 36.0245 161.291 L 47.2981 166.919 L 46.7112 168.094 L 37.3864 163.44 L 43.1097 175.309 L 42.571 176.388 L 31.2975 170.761 Z" fill="black" id="path1558"></path>
<path d="M 44.2611 146.13 L 44.9588 145.017 L 53.8056 150.56 L 49.2405 138.183 L 49.8808 137.162 L 60.558 143.852 L 59.8603 144.965 L 51.0287 139.431 L 55.5786 151.799 L 54.9383 152.82 L 44.2611 146.13 Z" fill="black" id="path3293"></path>
<path d="M 110.796 77.1087 C 111.891 78.3671 112.305 79.7483 112.039 81.2524 C 111.774 82.7395 110.86 84.2027 109.297 85.642 L 110.147 86.6198 L 109.21 87.435 L 108.36 86.4572 C 106.71 87.797 105.126 88.4991 103.607 88.5636 C 102.098 88.6202 100.796 88.0193 99.7008 86.7609 C 98.6061 85.5025 98.1912 84.1297 98.4562 82.6426 C 98.7303 81.1476 99.6449 79.676 101.2 78.2276 L 100.373 77.2769 L 101.31 76.4618 L 102.137 77.4124 C 103.778 76.0805 105.361 75.3868 106.888 75.3314 C 108.406 75.2669 109.709 75.8593 110.796 77.1087 Z M 108.6 84.8408 C 109.865 83.6444 110.607 82.4499 110.826 81.2574 C 111.045 80.0648 110.714 78.9615 109.832 77.9475 C 108.95 76.9335 107.898 76.4564 106.678 76.5161 C 105.466 76.5679 104.189 77.1383 102.846 78.2272 L 108.6 84.8408 Z M 100.665 85.9221 C 101.547 86.9361 102.594 87.4172 103.805 87.3653 C 105.018 87.2965 106.304 86.7268 107.663 85.656 L 101.909 79.0424 C 100.634 80.2466 99.8877 81.445 99.6686 82.6376 C 99.4508 83.8133 99.7829 84.9081 100.665 85.9221 Z" fill="black" id="path9396"></path>
<path d="M 119.995 61.7065 L 121.069 60.949 L 127.087 69.4799 L 127.658 56.3005 L 128.644 55.6053 L 135.907 65.9012 L 134.833 66.6587 L 128.825 58.1425 L 128.244 71.3071 L 127.258 72.0023 L 119.995 61.7065 Z" fill="black" id="path8604"></path>
<path d="M 147.114 43.8685 C 148.507 43.0661 149.791 42.7701 150.964 42.9805 C 152.138 43.191 153.06 43.8786 153.731 45.0433 C 154.402 46.208 154.533 47.3506 154.126 48.4713 C 153.713 49.5815 152.81 50.5379 151.416 51.3403 L 148.484 53.0289 L 150.469 56.4762 L 149.315 57.1409 L 143.027 46.2219 L 147.114 43.8685 Z M 150.801 50.3443 C 151.883 49.7215 152.575 49.0115 152.877 48.2142 C 153.174 47.4065 153.074 46.5711 152.577 45.7079 C 152.068 44.824 151.392 44.3127 150.551 44.1741 C 149.704 44.0251 148.739 44.262 147.658 44.8848 L 144.756 46.5555 L 147.9 52.015 L 150.801 50.3443 Z" fill="black" id="path8238"></path>
<path d="M 177.058 28.6414 L 182.234 40.1294 L 181.069 40.6543 L 176.928 31.4639 L 175.897 41.227 L 175.323 41.4858 L 167.35 35.8385 L 171.468 44.9796 L 170.303 45.5046 L 165.127 34.0166 L 166.128 33.5656 L 174.955 39.8354 L 176.057 29.0924 L 177.058 28.6414 Z" fill="black" id="path1852"></path>
<path d="M 206.525 29.6736 L 206.894 30.7647 L 198.455 33.6228 L 194.413 21.6886 L 202.597 18.9172 L 202.966 20.0083 L 196.045 22.3524 L 197.482 26.5976 L 203.654 24.5075 L 204.018 25.5816 L 197.846 27.6717 L 199.347 32.1044 L 206.525 29.6736 Z" fill="black" id="path265"></path>
<path d="M 227.311 12.0264 L 230.27 24.274 L 228.993 24.5826 L 227.627 18.9312 L 219.964 20.7826 L 221.329 26.434 L 220.034 26.7468 L 217.075 14.4991 L 218.37 14.1863 L 219.689 19.6453 L 227.352 17.7939 L 226.034 12.3349 L 227.311 12.0264 Z" fill="black" id="path7975"></path>
<path d="M 254.689 7.07319 L 256.451 19.5494 L 255.15 19.7331 L 254.337 13.9763 L 246.53 15.0787 L 247.343 20.8356 L 246.024 21.0218 L 244.262 8.54561 L 245.581 8.35936 L 246.367 13.9202 L 254.173 12.8178 L 253.388 7.25693 L 254.689 7.07319 Z" fill="black" id="path108"></path>
<path d="M 277.446 9.48443 C 278.933 9.43045 280.079 9.7251 280.883 10.3684 C 281.699 11.0112 282.13 11.9802 282.177 13.2753 C 282.226 14.6304 281.844 15.677 281.03 16.415 C 280.228 17.1406 279.041 17.5319 277.47 17.5889 L 272.47 17.7704 L 272.013 5.1787 L 273.326 5.13104 L 273.489 9.62807 L 277.446 9.48443 Z M 277.396 16.5289 C 278.559 16.4867 279.431 16.1969 280.012 15.6594 C 280.605 15.1216 280.883 14.349 280.847 13.3416 C 280.777 11.4109 279.554 10.4886 277.18 10.5748 L 273.528 10.7074 L 273.744 16.6614 L 277.396 16.5289 Z M 284.047 4.74189 L 285.36 4.69422 L 285.817 17.2859 L 284.504 17.3336 L 284.047 4.74189 Z" fill="black" id="path368"></path>
<path d="M 303.9 4.77291 L 305.211 4.86184 L 304.505 15.2779 L 313.257 5.40756 L 314.46 5.48918 L 313.607 18.0603 L 312.297 17.9714 L 313.002 7.57326 L 304.251 17.4256 L 303.048 17.344 L 303.9 4.77291 Z M 309.207 4.21271 C 308.309 4.15181 307.61 3.89995 307.111 3.45716 C 306.624 3.01517 306.399 2.42861 306.436 1.69748 L 307.424 1.76448 C 307.404 2.24419 307.558 2.6335 307.886 2.93242 C 308.215 3.23134 308.672 3.4007 309.259 3.44049 C 309.834 3.47947 310.304 3.37305 310.67 3.12124 C 311.048 2.87023 311.259 2.50568 311.303 2.0276 L 312.291 2.09459 C 312.229 2.8241 311.921 3.37453 311.367 3.74586 C 310.813 4.11719 310.093 4.27281 309.207 4.21271 Z" fill="black" id="path2413"></path>
<path d="M 348.046 23.0839 C 346.825 22.8262 345.778 22.3232 344.906 21.5749 C 344.045 20.8291 343.433 19.9212 343.071 18.8512 C 342.722 17.7719 342.673 16.6394 342.923 15.4535 C 343.173 14.2676 343.675 13.2574 344.427 12.4228 C 345.194 11.579 346.128 10.9911 347.228 10.6592 C 348.328 10.3273 349.489 10.2902 350.71 10.5479 C 351.626 10.7412 352.439 11.0723 353.149 11.5411 C 353.86 12.01 354.423 12.5949 354.84 13.296 L 353.837 13.949 C 353.08 12.7713 351.968 12.0275 350.5 11.7177 C 349.525 11.512 348.592 11.548 347.699 11.8257 C 346.807 12.1033 346.05 12.5813 345.428 13.2596 C 344.818 13.9403 344.412 14.7621 344.209 15.7249 C 344.006 16.6876 344.045 17.6036 344.328 18.4727 C 344.622 19.3443 345.121 20.0874 345.826 20.7021 C 346.53 21.3168 347.369 21.727 348.344 21.9327 C 349.823 22.2449 351.143 22.0083 352.302 21.2228 L 352.955 22.2252 C 352.291 22.6983 351.532 23.0103 350.678 23.1613 C 349.839 23.303 348.961 23.2772 348.046 23.0839 Z" fill="black" id="path407"></path>
<path d="M 377.162 18.6721 L 372.919 17.4048 L 369.643 28.3739 L 368.384 27.9979 L 371.66 17.0287 L 367.418 15.7614 L 367.747 14.6576 L 377.492 17.5683 L 377.162 18.6721 Z" fill="black" id="path3711"></path>
<path d="M 390.956 22.0244 L 392.178 22.5085 L 388.331 32.2141 L 399.674 25.4797 L 400.795 25.924 L 396.153 37.6376 L 394.931 37.1535 L 398.771 27.4646 L 387.435 34.1823 L 386.314 33.738 L 390.956 22.0244 Z" fill="black" id="path7679"></path>
<path d="M 425.396 37.3443 L 419.644 48.5546 L 418.475 47.9547 L 423.701 37.7693 L 418.288 34.9918 L 416.237 38.6735 C 415.39 40.1943 414.62 41.3777 413.93 42.2238 C 413.256 43.0647 412.595 43.616 411.949 43.8776 C 411.307 44.1285 410.65 44.0814 409.978 43.7362 C 409.689 43.5883 409.41 43.3976 409.138 43.164 L 409.777 42.1563 C 409.936 42.2921 410.102 42.4039 410.272 42.4915 C 410.742 42.7326 411.217 42.7402 411.697 42.5144 C 412.188 42.2942 412.708 41.8327 413.257 41.13 C 413.812 40.4166 414.448 39.4277 415.164 38.1632 L 417.789 33.441 L 425.396 37.3443 Z" fill="black" id="path6282"></path>
<path d="M 443.045 52.6827 C 444.301 53.4806 445.078 54.3724 445.376 55.3579 C 445.684 56.3498 445.49 57.3927 444.795 58.4866 C 444.068 59.6311 443.16 60.2769 442.072 60.4241 C 441 60.5675 439.8 60.2177 438.473 59.3747 L 434.25 56.6913 L 441.006 46.0562 L 442.116 46.7609 L 439.702 50.5591 L 443.045 52.6827 Z M 439.012 58.459 C 439.995 59.0832 440.878 59.3385 441.661 59.2247 C 442.454 59.1173 443.121 58.6383 443.662 57.7875 C 444.698 56.1568 444.213 54.7043 442.207 53.4302 L 439.123 51.4707 L 435.928 56.4995 L 439.012 58.459 Z" fill="black" id="path2595"></path>
<path d="M 510.443 104.916 L 500.965 113.218 L 500.1 112.23 L 508.711 104.687 L 503.457 98.6885 L 494.845 106.232 L 493.98 105.243 L 503.457 96.941 L 510.443 104.916 Z" fill="black" id="path1798"></path>
<path d="M 514.251 130.169 C 513.526 129.154 513.091 128.071 512.948 126.92 C 512.821 125.772 512.985 124.681 513.441 123.647 C 513.905 122.623 514.629 121.759 515.616 121.055 C 516.602 120.35 517.654 119.945 518.773 119.839 C 519.899 119.743 520.979 119.945 522.014 120.444 C 523.066 120.946 523.955 121.705 524.68 122.721 C 525.405 123.736 525.833 124.81 525.963 125.941 C 526.099 127.082 525.935 128.173 525.469 129.214 C 525.012 130.247 524.291 131.116 523.305 131.821 C 522.319 132.525 521.258 132.929 520.122 133.032 C 518.997 133.128 517.916 132.927 516.881 132.427 C 515.853 131.938 514.976 131.185 514.251 130.169 Z M 515.218 129.479 C 515.797 130.289 516.5 130.893 517.329 131.289 C 518.167 131.678 519.041 131.828 519.951 131.739 C 520.87 131.643 521.73 131.309 522.531 130.737 C 523.332 130.165 523.922 129.463 524.301 128.632 C 524.69 127.794 524.832 126.918 524.726 126.006 C 524.63 125.087 524.292 124.222 523.713 123.411 C 523.134 122.601 522.422 121.996 521.577 121.597 C 520.748 121.201 519.871 121.046 518.945 121.132 C 518.035 121.222 517.18 121.552 516.379 122.124 C 515.579 122.696 514.984 123.401 514.594 124.239 C 514.222 125.081 514.084 125.961 514.18 126.88 C 514.293 127.802 514.639 128.668 515.218 129.479 Z" fill="black" id="path87"></path>
<path d="M 542.733 150.978 L 531.805 157.25 L 531.151 156.111 L 541.08 150.412 L 538.052 145.135 L 534.327 147.107 C 532.788 147.921 531.499 148.495 530.459 148.829 C 529.435 149.167 528.581 149.27 527.896 149.138 C 527.222 148.999 526.696 148.602 526.32 147.946 C 526.159 147.665 526.028 147.353 525.928 147.009 L 527.012 146.512 C 527.072 146.712 527.149 146.896 527.245 147.063 C 527.508 147.52 527.902 147.785 528.428 147.857 C 528.959 147.94 529.647 147.836 530.49 147.545 C 531.344 147.249 532.415 146.765 533.704 146.095 L 538.477 143.563 L 542.733 150.978 Z" fill="black" id="path7900"></path>
<path d="M 551.147 166.84 L 551.688 168.037 L 542.174 172.335 L 555.008 175.386 L 555.504 176.485 L 544.022 181.672 L 543.481 180.475 L 552.979 176.184 L 540.161 173.126 L 539.664 172.027 L 551.147 166.84 Z" fill="black" id="path9903"></path>
<path d="M 563.512 200.261 L 561.291 193.925 L 550.493 197.73 L 550.059 196.49 L 561.949 192.321 L 564.599 199.88 L 563.512 200.261 Z" fill="black" id="path3441"></path>
<path d="M 570.109 218.113 C 570.515 219.669 570.461 220.985 569.948 222.061 C 569.434 223.137 568.528 223.845 567.227 224.184 C 565.926 224.523 564.79 224.348 563.816 223.659 C 562.855 222.967 562.171 221.843 561.766 220.287 L 560.912 217.013 L 557.063 218.016 L 556.727 216.727 L 568.92 213.549 L 570.109 218.113 Z M 562.889 219.957 C 563.204 221.165 563.705 222.02 564.394 222.522 C 565.095 223.022 565.927 223.146 566.891 222.895 C 567.878 222.638 568.55 222.122 568.906 221.347 C 569.273 220.569 569.3 219.576 568.985 218.368 L 568.141 215.129 L 562.044 216.718 L 562.889 219.957 Z" fill="black" id="path2107"></path>
<path d="M 566.964 247.427 L 565.808 240.503 L 562.239 239.566 L 562.011 238.199 L 575.387 241.805 L 575.604 243.101 L 564.125 250.858 L 563.893 249.473 L 566.964 247.427 Z M 567.949 246.77 L 574.127 242.672 L 566.953 240.804 L 567.949 246.77 Z" fill="black" id="path777"></path>
<path d="M 573.235 278.099 C 571.57 278.209 570.22 277.703 569.183 276.582 C 568.16 275.471 567.547 273.858 567.347 271.743 L 566.054 271.829 L 565.971 270.589 L 567.264 270.503 C 567.196 268.379 567.595 266.693 568.462 265.445 C 569.33 264.209 570.596 263.535 572.26 263.425 C 573.925 263.314 575.269 263.814 576.293 264.925 C 577.317 266.048 577.936 267.666 578.148 269.781 L 579.406 269.697 L 579.488 270.936 L 578.231 271.02 C 578.299 273.132 577.893 274.813 577.014 276.062 C 576.147 277.31 574.887 277.989 573.235 278.099 Z M 568.406 271.672 C 568.594 273.404 569.096 274.717 569.913 275.613 C 570.73 276.509 571.809 276.912 573.15 276.823 C 574.491 276.734 575.507 276.186 576.198 275.178 C 576.889 274.182 577.208 272.82 577.153 271.092 L 568.406 271.672 Z M 572.345 264.7 C 571.004 264.789 569.988 265.332 569.296 266.328 C 568.618 267.335 568.293 268.703 568.324 270.433 L 577.071 269.852 C 576.883 268.109 576.38 266.789 575.563 265.893 C 574.759 265.009 573.686 264.611 572.345 264.7 Z" fill="black" id="path1501"></path>
<path d="M 579.933 294.74 L 579.887 296.053 L 569.453 295.684 L 579.602 304.112 L 579.56 305.317 L 566.967 304.873 L 567.014 303.559 L 577.429 303.927 L 567.298 295.5 L 567.341 294.295 L 579.933 294.74 Z" fill="black" id="path7092"></path>
<path d="M 577.192 331.306 L 564.698 329.677 L 564.866 328.392 L 570.042 329.066 C 569.636 327.634 569.516 326.281 569.682 325.008 C 569.872 323.544 570.378 322.448 571.199 321.72 C 572.019 321.004 573.071 320.73 574.356 320.898 L 578.479 321.435 L 578.309 322.738 L 574.329 322.219 C 573.365 322.094 572.576 322.299 571.961 322.836 C 571.347 323.373 570.968 324.189 570.825 325.284 C 570.663 326.533 570.794 327.845 571.22 329.22 L 577.36 330.02 L 577.192 331.306 Z" fill="black" id="path511"></path>
<path d="M 561.257 354.787 L 560.132 354.54 L 562.048 345.838 L 574.353 348.547 L 572.495 356.985 L 571.37 356.737 L 572.942 349.6 L 568.565 348.636 L 567.164 355 L 566.056 354.756 L 567.457 348.393 L 562.887 347.386 L 561.257 354.787 Z" fill="black" id="path9339"></path>
<path d="M 555.013 373.067 C 555.383 371.876 555.982 370.88 556.808 370.082 C 557.631 369.294 558.592 368.77 559.691 368.508 C 560.798 368.262 561.93 368.318 563.088 368.678 C 564.245 369.038 565.204 369.631 565.965 370.458 C 566.734 371.301 567.232 372.285 567.46 373.411 C 567.688 374.538 567.616 375.697 567.246 376.888 C 566.968 377.782 566.563 378.561 566.03 379.225 C 565.497 379.888 564.862 380.395 564.125 380.744 L 563.568 379.685 C 564.811 379.041 565.656 378.003 566.101 376.57 C 566.396 375.619 566.448 374.686 566.254 373.772 C 566.061 372.857 565.656 372.059 565.038 371.377 C 564.418 370.706 563.637 370.225 562.698 369.933 C 561.758 369.641 560.842 369.595 559.951 369.795 C 559.055 370.007 558.269 370.435 557.591 371.079 C 556.914 371.723 556.427 372.52 556.131 373.471 C 555.683 374.915 555.795 376.251 556.469 377.478 L 555.41 378.035 C 555.001 377.33 554.761 376.545 554.69 375.681 C 554.628 374.832 554.735 373.961 555.013 373.067 Z" fill="black" id="path5342"></path>
<path d="M 552.946 396.618 L 554.036 393.952 L 548.689 391.764 L 549.18 390.565 L 560.841 395.337 L 560.35 396.536 L 555.119 394.395 L 554.029 397.061 L 557.644 403.15 L 557.098 404.482 L 553.207 397.833 L 545.335 399.96 L 545.914 398.544 L 552.946 396.618 Z" fill="black" id="path5278"></path>
<path d="M 538.952 421.268 L 542.181 415.035 L 539.887 412.144 L 540.525 410.913 L 549.064 421.823 L 548.459 422.99 L 534.622 422.309 L 535.268 421.063 L 538.952 421.268 Z M 540.134 421.333 L 547.535 421.761 L 542.916 415.963 L 540.134 421.333 Z" fill="black" id="path627"></path>
<path d="M 533.384 449.086 L 522.775 442.288 L 523.484 441.182 L 526.697 443.24 L 528.726 440.073 C 528.817 439.931 528.957 439.736 529.145 439.486 L 527.329 435.18 L 528.097 433.983 L 529.993 438.597 C 530.724 437.968 531.515 437.634 532.366 437.595 C 533.228 437.563 534.088 437.822 534.947 438.372 C 536.139 439.136 536.824 440.102 537.002 441.271 C 537.173 442.449 536.848 443.68 536.025 444.963 L 533.384 449.086 Z M 534.259 439.513 C 533.39 438.956 532.556 438.778 531.757 438.979 C 530.962 439.197 530.251 439.795 529.623 440.775 L 527.652 443.852 L 533.123 447.358 L 535.026 444.387 C 535.661 443.397 535.915 442.477 535.79 441.627 C 535.668 440.794 535.158 440.089 534.259 439.513 Z" fill="black" id="path38"></path>
<path d="M 507.973 482.57 L 498.439 474.333 L 499.298 473.339 L 507.961 480.823 L 513.174 474.789 L 504.511 467.305 L 505.37 466.311 L 514.904 474.548 L 507.973 482.57 Z" fill="black" id="path2611"></path>
<path d="M 492.894 498.406 C 491.735 499.522 490.561 500.119 489.371 500.198 C 488.182 500.277 487.121 499.832 486.189 498.864 C 485.257 497.896 484.853 496.819 484.977 495.633 C 485.11 494.456 485.756 493.31 486.914 492.195 L 489.352 489.848 L 486.594 486.982 L 487.553 486.058 L 496.291 495.136 L 492.894 498.406 Z M 487.752 493.013 C 486.853 493.878 486.353 494.734 486.251 495.581 C 486.159 496.436 486.458 497.223 487.149 497.94 C 487.856 498.675 488.635 499.008 489.485 498.94 C 490.343 498.88 491.222 498.417 492.121 497.552 L 494.533 495.23 L 490.164 490.691 L 487.752 493.013 Z" fill="black" id="path2051"></path>
<path d="M 465.589 505.73 C 466.566 504.953 467.625 504.463 468.767 504.26 C 469.907 504.074 471.005 504.182 472.061 504.584 C 473.107 504.993 474.008 505.672 474.762 506.621 C 475.517 507.569 475.976 508.599 476.14 509.711 C 476.294 510.83 476.149 511.92 475.704 512.979 C 475.256 514.056 474.544 514.982 473.568 515.759 C 472.591 516.536 471.541 517.019 470.418 517.207 C 469.286 517.402 468.188 517.294 467.124 516.883 C 466.069 516.481 465.163 515.806 464.409 514.857 C 463.654 513.909 463.196 512.87 463.034 511.741 C 462.88 510.622 463.025 509.533 463.471 508.473 C 463.906 507.421 464.613 506.507 465.589 505.73 Z M 466.329 506.66 C 465.549 507.28 464.983 508.014 464.63 508.862 C 464.285 509.719 464.181 510.6 464.317 511.503 C 464.46 512.416 464.839 513.258 465.451 514.028 C 466.064 514.798 466.795 515.351 467.645 515.687 C 468.502 516.032 469.384 516.128 470.289 515.975 C 471.203 515.832 472.049 515.45 472.828 514.83 C 473.608 514.21 474.175 513.467 474.529 512.602 C 474.882 511.754 474.992 510.87 474.857 509.949 C 474.721 509.046 474.347 508.209 473.734 507.439 C 473.121 506.669 472.386 506.111 471.529 505.766 C 470.67 505.437 469.784 505.345 468.871 505.489 C 467.956 505.649 467.108 506.039 466.329 506.66 Z" fill="black" id="path2367"></path>
<path d="M 438.654 526.546 L 436.498 523.203 L 437.542 522.53 L 439.074 524.905 L 448.316 518.944 L 446.799 516.559 L 447.843 515.886 L 449.984 519.239 L 449.455 519.58 C 448.785 520.069 448.655 520.931 449.066 522.165 C 449.483 523.41 450.292 525.03 451.494 527.025 L 453.587 530.537 L 446.447 535.142 L 440.243 525.521 L 438.654 526.546 Z M 450.427 527.563 C 449.437 525.917 448.704 524.505 448.229 523.326 C 447.751 522.164 447.63 521.257 447.866 520.604 L 441.347 524.809 L 446.927 533.462 L 451.995 530.193 L 450.427 527.563 Z" fill="black" id="path4892"></path>
<path d="M 422.151 548.987 L 422.321 536.94 C 422.333 536.081 422.498 535.359 422.815 534.774 C 423.127 534.205 423.571 533.77 424.145 533.471 C 424.571 533.248 425.081 533.111 425.676 533.058 L 425.84 534.19 C 425.379 534.241 424.99 534.35 424.67 534.516 C 423.936 534.899 423.543 535.612 423.492 536.654 L 423.456 537.363 L 432.476 543.6 L 431.215 544.258 L 423.374 538.725 L 423.332 548.371 L 422.151 548.987 Z" fill="black" id="path5208"></path>
<path d="M 402.005 550.824 L 404.665 549.719 L 402.447 544.383 L 403.644 543.886 L 408.479 555.521 L 407.282 556.019 L 405.113 550.799 L 402.454 551.905 L 400.683 558.761 L 399.354 559.313 L 401.327 551.866 L 394.269 547.782 L 395.682 547.195 L 402.005 550.824 Z" fill="black" id="path630"></path>
<path d="M 369.995 557.406 L 368.775 553.487 L 369.961 553.118 L 370.838 555.936 L 381.339 552.666 L 385.086 564.696 L 383.831 565.087 L 380.427 554.157 L 373.157 556.421 L 376.561 567.351 L 375.307 567.742 L 371.903 556.812 L 369.995 557.406 Z" fill="black" id="path1266"></path>
<path d="M 358.34 572.4 L 357.053 572.668 L 354.926 562.447 L 349.158 574.31 L 347.978 574.556 L 345.411 562.22 L 346.697 561.953 L 348.82 572.156 L 354.592 560.31 L 355.773 560.064 L 358.34 572.4 Z" fill="black" id="path1741"></path>
<path d="M 322.139 578.449 L 320.745 565.926 L 322.051 565.781 L 322.473 569.574 L 326.212 569.157 C 326.379 569.139 326.619 569.124 326.931 569.114 L 329.135 564.993 L 330.548 564.835 L 328.156 569.213 C 329.105 569.385 329.862 569.79 330.428 570.427 C 330.995 571.076 331.335 571.908 331.448 572.921 C 331.605 574.329 331.285 575.469 330.489 576.343 C 329.681 577.217 328.519 577.739 327.004 577.907 L 322.139 578.449 Z M 330.128 573.104 C 330.014 572.079 329.628 571.319 328.969 570.825 C 328.3 570.344 327.387 570.168 326.23 570.296 L 322.598 570.701 L 323.317 577.159 L 326.823 576.769 C 327.992 576.638 328.867 576.257 329.449 575.625 C 330.02 575.006 330.247 574.166 330.128 573.104 Z" fill="black" id="path6038"></path>
<animateTransform attributeName="transform" attributeType="auto" type="rotate" values="0 291 290.5;-360 291 290.5" calcMode="spline" keyTimes="0;1" keySplines="0 0 1 1" dur="35s" begin="0s" repeatCount="indefinite" additive="sum" accumulate="none" fill="freeze" id="animateTransform1704"></animateTransform></g>
<defs id="defs3563">
<filter id="filter0_ddii_2563_11694" x="149.453" y="163.924" width="286.178" height="279.75" filterUnits="userSpaceOnUse" color-interpolation-filters="sRGB">
<feFlood flood-opacity="0" result="BackgroundImageFix" id="feFlood6429"></feFlood>
<feColorMatrix in="SourceAlpha" type="matrix" values="0 0 0 0 0 0 0 0 0 0 0 0 0 0 0 0 0 0 127 0" result="hardAlpha" id="feColorMatrix5405"></feColorMatrix>
<feOffset dx="6" dy="6" id="feOffset2543"></feOffset>
<feGaussianBlur stdDeviation="9" id="feGaussianBlur6781"></feGaussianBlur>
<feColorMatrix type="matrix" values="0 0 0 0 0 0 0 0 0 0 0 0 0 0 0 0 0 0 0.13 0" id="feColorMatrix3729"></feColorMatrix>
<feBlend mode="normal" in2="BackgroundImageFix" result="effect1_dropShadow_2563_11694" id="feBlend8100"></feBlend>
<feColorMatrix in="SourceAlpha" type="matrix" values="0 0 0 0 0 0 0 0 0 0 0 0 0 0 0 0 0 0 127 0" result="hardAlpha" id="feColorMatrix4440"></feColorMatrix>
<feOffset dx="-6" dy="-6" id="feOffset9142"></feOffset>
<feGaussianBlur stdDeviation="9" id="feGaussianBlur5627"></feGaussianBlur>
<feColorMatrix type="matrix" values="0 0 0 0 1 0 0 0 0 1 0 0 0 0 1 0 0 0 0.16 0" id="feColorMatrix3687"></feColorMatrix>
<feBlend mode="normal" in2="effect1_dropShadow_2563_11694" result="effect2_dropShadow_2563_11694" id="feBlend2209"></feBlend>
<feBlend mode="normal" in="SourceGraphic" in2="effect2_dropShadow_2563_11694" result="shape" id="feBlend3814"></feBlend>
<feColorMatrix in="SourceAlpha" type="matrix" values="0 0 0 0 0 0 0 0 0 0 0 0 0 0 0 0 0 0 127 0" result="hardAlpha" id="feColorMatrix8754"></feColorMatrix>
<feOffset dx="-6" dy="-6" id="feOffset4810"></feOffset>
<feGaussianBlur stdDeviation="6.5" id="feGaussianBlur8175"></feGaussianBlur>
<feComposite in2="hardAlpha" operator="arithmetic" k2="-1" k3="1" id="feComposite5113"></feComposite>
<feColorMatrix type="matrix" values="0 0 0 0 0 0 0 0 0 0 0 0 0 0 0 0 0 0 0.14 0" id="feColorMatrix8898"></feColorMatrix>
<feBlend mode="normal" in2="shape" result="effect3_innerShadow_2563_11694" id="feBlend1786"></feBlend>
<feColorMatrix in="SourceAlpha" type="matrix" values="0 0 0 0 0 0 0 0 0 0 0 0 0 0 0 0 0 0 127 0" result="hardAlpha" id="feColorMatrix17"></feColorMatrix>
<feOffset dx="6" dy="6" id="feOffset9656"></feOffset>
<feGaussianBlur stdDeviation="6.5" id="feGaussianBlur5106"></feGaussianBlur>
<feComposite in2="hardAlpha" operator="arithmetic" k2="-1" k3="1" id="feComposite3478"></feComposite>
<feColorMatrix type="matrix" values="0 0 0 0 1 0 0 0 0 0.975 0 0 0 0 0.975 0 0 0 0.16 0" id="feColorMatrix8931"></feColorMatrix>
<feBlend mode="normal" in2="effect3_innerShadow_2563_11694" result="effect4_innerShadow_2563_11694" id="feBlend6501"></feBlend>
</filter>
</defs>
</svg>