<svg width="314" height="1050" viewBox="0 0 314 1050" fill="none" xmlns="http://www.w3.org/2000/svg">
<path d="M88.3536 279.999C88.5488 279.804 88.5488 279.487 88.3536 279.292L85.1716 276.11C84.9763 275.915 84.6597 275.915 84.4645 276.11C84.2692 276.305 84.2692 276.622 84.4645 276.817L87.2929 279.646L84.4645 282.474C84.2692 282.669 84.2692 282.986 84.4645 283.181C84.6597 283.376 84.9763 283.376 85.1716 283.181L88.3536 279.999ZM54.3857 228L54.3857 275.646L55.3857 275.646L55.3857 228L54.3857 228ZM58.8857 280.146L88 280.146L88 279.146L58.8857 279.146L58.8857 280.146ZM54.3857 275.646C54.3857 278.131 56.4004 280.146 58.8857 280.146L58.8857 279.146C56.9527 279.146 55.3857 277.579 55.3857 275.646L54.3857 275.646Z" fill="#B8B8B8"/>
<path d="M147.233 956.354C147.429 956.549 147.745 956.549 147.94 956.354L151.122 953.172C151.318 952.976 151.318 952.66 151.122 952.464C150.927 952.269 150.611 952.269 150.415 952.464L147.587 955.293L144.758 952.464C144.563 952.269 144.247 952.269 144.051 952.464C143.856 952.66 143.856 952.976 144.051 953.172L147.233 956.354ZM147.087 912L147.087 956L148.087 956L148.087 912L147.087 912Z" fill="#B8B8B8"/>
<path d="M147.733 691.354C147.929 691.549 148.245 691.549 148.44 691.354L151.622 688.172C151.818 687.976 151.818 687.66 151.622 687.464C151.427 687.269 151.111 687.269 150.915 687.464L148.087 690.293L145.258 687.464C145.063 687.269 144.747 687.269 144.551 687.464C144.356 687.66 144.356 687.976 144.551 688.172L147.733 691.354ZM147.587 665L147.587 691L148.587 691L148.587 665L147.587 665Z" fill="#B8B8B8"/>
<rect x="1" y="496" width="131.368" height="68.7667" rx="8.07265" fill="#F9F9F9"/>
<path d="M27.4347 516.588H19.558V527.145H20.8364V517.722H26.1562V527.145H27.4347V516.588ZM29.8485 530.114H31.065V525.929H31.1681C31.4362 526.362 31.9517 527.31 33.4775 527.31C35.457 527.31 36.8385 525.723 36.8385 523.207C36.8385 520.712 35.457 519.124 33.4569 519.124C31.9104 519.124 31.4362 520.073 31.1681 520.485H31.0238V519.227H29.8485V530.114ZM31.0444 523.186C31.0444 521.413 31.8279 520.217 33.3126 520.217C34.859 520.217 35.622 521.516 35.622 523.186C35.622 524.877 34.8384 526.217 33.3126 526.217C31.8486 526.217 31.0444 524.98 31.0444 523.186ZM42.0141 527.31C43.6224 527.31 44.7977 526.506 45.1689 525.31L43.9935 524.98C43.6843 525.805 42.9677 526.217 42.0141 526.217C40.5861 526.217 39.6016 525.295 39.5449 523.599H45.2926V523.083C45.2926 520.135 43.5399 519.124 41.8903 519.124C39.7459 519.124 38.3231 520.815 38.3231 523.248C38.3231 525.681 39.7253 527.31 42.0141 527.31ZM39.5449 522.547C39.6273 521.315 40.4985 520.217 41.8903 520.217C43.21 520.217 44.0554 521.207 44.0554 522.547H39.5449ZM46.6483 525.125C46.6896 526.424 47.9319 527.31 49.6176 527.31C51.3496 527.31 52.6074 526.382 52.6074 524.939C52.6074 523.949 52.0146 523.145 51.1228 523.083V523.001C51.8754 522.769 52.4425 522.222 52.4425 521.331C52.4425 520.078 51.3702 519.124 49.7 519.124C48.0505 519.124 46.8751 520.031 46.8339 521.31H48.1123C48.1484 520.655 48.834 520.196 49.7619 520.196C50.6846 520.196 51.2053 520.666 51.2053 521.372C51.2053 522.032 50.7516 522.526 49.7825 522.526H48.4216V523.619H49.7825C50.7516 523.619 51.3702 524.15 51.3702 524.939C51.3702 525.841 50.5712 526.217 49.5969 526.217C48.6433 526.217 48.0041 525.841 47.9474 525.125H46.6483ZM57.636 527.31C59.2444 527.31 60.4197 526.506 60.7908 525.31L59.6155 524.98C59.3062 525.805 58.5897 526.217 57.636 526.217C56.2081 526.217 55.2235 525.295 55.1668 523.599H60.9146V523.083C60.9146 520.135 59.1619 519.124 57.5123 519.124C55.3679 519.124 53.9451 520.815 53.9451 523.248C53.9451 525.681 55.3472 527.31 57.636 527.31ZM55.1668 522.547C55.2493 521.315 56.1205 520.217 57.5123 520.217C58.832 520.217 59.6774 521.207 59.6774 522.547H55.1668ZM63.9817 519.227H62.7652V527.145H63.9817V523.764H67.7758V527.145H68.9923V519.227H67.7758V522.63H63.9817V519.227ZM70.1367 520.361H72.7554V527.145H73.972V520.361H76.57V519.227H70.1367V520.361ZM80.2635 527.331C81.6451 527.331 82.3667 526.589 82.6142 526.073H82.676V527.145H83.8926V521.928C83.8926 519.413 81.975 519.124 80.9646 519.124C79.7687 519.124 78.4078 519.537 77.7892 520.98L78.9439 521.392C79.2119 520.815 79.846 520.196 81.0058 520.196C82.1245 520.196 82.676 520.789 82.676 521.805V521.846C82.676 522.434 82.0781 522.382 80.6347 522.568C79.1655 522.758 77.5624 523.083 77.5624 524.898C77.5624 526.444 78.7583 527.331 80.2635 527.331ZM80.4491 526.238C79.48 526.238 78.7789 525.805 78.7789 524.96C78.7789 524.032 79.6243 523.743 80.5728 523.619C81.0883 523.557 82.4698 523.413 82.676 523.166V524.279C82.676 525.269 81.8925 526.238 80.4491 526.238ZM92.3402 519.227H91.1237V526.011H87.3296V519.227H86.1131V527.145H92.2371V529.702H93.4537V526.011H92.3402V519.227ZM96.544 525.351V519.227H95.3275V527.145H96.7502L100.544 521.021V527.145H101.761V519.227H100.359L96.544 525.351ZM108.752 527.145H109.907V519.227H106.649C104.943 519.227 103.907 520.119 103.907 521.578C103.907 522.666 104.453 523.439 105.407 523.764L103.474 527.145H104.793L106.628 523.929H108.752V527.145ZM108.752 522.795H106.505C105.644 522.795 105.123 522.336 105.123 521.578C105.123 520.81 105.7 520.341 106.649 520.341H108.752V522.795ZM33.1502 544.31C34.9029 544.31 36.0576 543.238 36.2637 541.836H35.0472C34.8204 542.702 34.0987 543.217 33.1502 543.217C31.7068 543.217 30.7789 542.021 30.7789 540.186C30.7789 538.392 31.7274 537.217 33.1502 537.217C34.2224 537.217 34.8616 537.877 35.0472 538.599H36.2637C36.0576 537.114 34.7998 536.124 33.1296 536.124C30.9851 536.124 29.5624 537.815 29.5624 540.228C29.5624 542.599 30.9233 544.31 33.1502 544.31ZM37.4185 537.361H40.0371V544.145H41.2537V537.361H43.8518V536.227H37.4185V537.361ZM45.6264 547.114H46.8429V542.929H46.946C47.2141 543.362 47.7296 544.31 49.2554 544.31C51.2349 544.31 52.6164 542.723 52.6164 540.207C52.6164 537.712 51.2349 536.124 49.2348 536.124C47.6883 536.124 47.2141 537.073 46.946 537.485H46.8017V536.227H45.6264V547.114ZM46.8223 540.186C46.8223 538.413 47.6059 537.217 49.0905 537.217C50.6369 537.217 51.3999 538.516 51.3999 540.186C51.3999 541.877 50.6163 543.217 49.0905 543.217C47.6265 543.217 46.8223 541.98 46.8223 540.186ZM54.9722 547.114C56.0702 547.114 56.8435 546.532 57.3022 545.3L60.6736 536.248L59.3436 536.227L57.1579 542.537H57.0754L54.8897 536.227H53.5701L56.4981 544.187L56.2713 544.805C55.8279 546.011 55.2815 546.125 54.3949 545.898L54.0856 546.97C54.2093 547.032 54.5598 547.114 54.9722 547.114ZM62.2832 544.145H63.4997V540.805H64.5926L67.1907 544.145H68.7578L65.5205 540.042L68.7165 536.227H67.1494L64.3039 539.671H63.4997V536.227H62.2832V544.145ZM69.6264 537.361H72.2451V544.145H73.4616V537.361H76.0597V536.227H69.6264V537.361ZM78.6178 547.114C79.7158 547.114 80.4891 546.532 80.9478 545.3L84.3192 536.248L82.9892 536.227L80.8035 542.537H80.721L78.5353 536.227H77.2157L80.1437 544.187L79.9169 544.805C79.4735 546.011 78.9271 546.125 78.0405 545.898L77.7312 546.97C77.8549 547.032 78.2054 547.114 78.6178 547.114ZM85.9288 547.114H87.1453V542.929H87.2484C87.5165 543.362 88.032 544.31 89.5578 544.31C91.5373 544.31 92.9189 542.723 92.9189 540.207C92.9189 537.712 91.5373 536.124 89.5372 536.124C87.9908 536.124 87.5165 537.073 87.2484 537.485H87.1041V536.227H85.9288V547.114ZM87.1247 540.186C87.1247 538.413 87.9083 537.217 89.3929 537.217C90.9394 537.217 91.7023 538.516 91.7023 540.186C91.7023 541.877 90.9187 543.217 89.3929 543.217C87.9289 543.217 87.1247 541.98 87.1247 540.186ZM95.9912 539.093V536.227H94.7746V544.145H98.0944C99.9502 544.145 100.961 543.011 100.961 541.588C100.961 540.145 99.9502 539.093 98.0944 539.093H95.9912ZM102.218 544.145H103.435V536.227H102.218V544.145ZM95.9912 540.228H98.0944C99.0584 540.228 99.744 540.815 99.744 541.65C99.744 542.449 99.0584 543.011 98.0944 543.011H95.9912V540.228Z" fill="black"/>
<rect x="1" y="496" width="131.368" height="68.7667" rx="8.07265" stroke="#3B76F3" stroke-width="2"/>
<rect x="89.9419" y="253" width="116.291" height="53.2906" rx="9.07265" fill="#3B76F3"/>
<path d="M111.302 285.145L112.085 282.738H115.895L116.678 285.145H119.07L115.431 274.588H112.555L108.91 285.145H111.302ZM112.653 280.996L113.952 277H114.034L115.333 280.996H112.653ZM122.398 277.227H120.3V285.145H122.398V282.037H125.104V285.145H127.187V277.227H125.104V280.31H122.398V277.227ZM131.148 285.295C132.319 285.295 133.076 284.784 133.463 284.047H133.525V285.145H135.607V279.805C135.607 277.918 134.009 277.124 132.246 277.124C130.349 277.124 129.102 278.031 128.798 279.475L130.829 279.64C130.978 279.114 131.447 278.727 132.236 278.727C132.983 278.727 133.411 279.104 133.411 279.753V279.784C133.411 280.294 132.87 280.362 131.494 280.496C129.927 280.64 128.519 281.166 128.519 282.934C128.519 284.501 129.638 285.295 131.148 285.295ZM131.777 283.779C131.102 283.779 130.617 283.465 130.617 282.862C130.617 282.243 131.128 281.939 131.901 281.831C132.38 281.764 133.164 281.65 133.427 281.475V282.315C133.427 283.145 132.741 283.779 131.777 283.779ZM136.847 285.145H137.507C139.187 285.145 140.079 284.032 140.213 281.372L140.337 278.954H142.291V285.145H144.384V277.227H138.363L138.234 280.733C138.156 282.738 137.847 283.403 137.1 283.403H136.837L136.847 285.145ZM148.184 282.248V277.227H146.086V285.145H148.267L151.107 280.109V285.145H153.2V277.227H151.035L148.184 282.248ZM154.179 278.954H156.71V285.145H158.803V278.954H161.355V277.227H154.179V278.954ZM164.784 282.248V277.227H162.686V285.145H164.867L167.707 280.109V285.145H169.8V277.227H167.635L164.784 282.248ZM171.56 285.145H173.756V282.336H174.576L176.53 285.145H179.138L176.308 281.155L179.107 277.227H176.53L174.375 280.3H173.756V277.227H171.56V285.145ZM182.324 285.295C183.494 285.295 184.252 284.784 184.638 284.047H184.7V285.145H186.783V279.805C186.783 277.918 185.185 277.124 183.422 277.124C181.525 277.124 180.277 278.031 179.973 279.475L182.004 279.64C182.154 279.114 182.623 278.727 183.411 278.727C184.159 278.727 184.587 279.104 184.587 279.753V279.784C184.587 280.294 184.046 280.362 182.669 280.496C181.102 280.64 179.695 281.166 179.695 282.934C179.695 284.501 180.813 285.295 182.324 285.295ZM182.953 283.779C182.277 283.779 181.793 283.465 181.793 282.862C181.793 282.243 182.303 281.939 183.076 281.831C183.556 281.764 184.339 281.65 184.602 281.475V282.315C184.602 283.145 183.917 283.779 182.953 283.779Z" fill="white"/>
<rect x="81.4419" y="612" width="133.291" height="53.2906" rx="9.07265" fill="#3B76F3"/>
<path d="M107.136 633.588V640.253C107.136 641.46 106.291 642.331 104.992 642.331C103.698 642.331 102.847 641.46 102.847 640.253V633.588H100.615V640.444C100.615 642.753 102.357 644.295 104.992 644.295C107.616 644.295 109.368 642.753 109.368 640.444V633.588H107.136ZM113.437 633.588H111.205V644.145H113.437V633.588ZM119.83 633.093H117.938L114.536 645.733H116.428L119.83 633.093ZM127.45 633.588V640.253C127.45 641.46 126.605 642.331 125.306 642.331C124.012 642.331 123.161 641.46 123.161 640.253V633.588H120.929V640.444C120.929 642.753 122.672 644.295 125.306 644.295C127.93 644.295 129.682 642.753 129.682 640.444V633.588H127.45ZM133.612 633.588H131.081L134.323 638.867L131.019 644.145H133.576L135.741 640.542H135.823L137.988 644.145H140.555L137.261 638.867L140.483 633.588H137.963L135.823 637.186H135.741L133.612 633.588ZM144.596 646.465H146.74V644.145H151.581V646.465H153.673V642.403H152.447V636.227H146.374L146.168 638.815C146.044 640.372 145.895 641.965 145.204 642.403H144.596V646.465ZM147.39 642.403C147.859 641.666 148.039 640.506 148.158 638.815L148.24 637.918H150.374V642.403H147.39ZM157.051 641.248V636.227H154.953V644.145H157.134L159.974 639.109V644.145H162.067V636.227H159.902L157.051 641.248ZM163.42 641.903C163.477 643.449 164.874 644.3 166.776 644.3C168.724 644.3 170.121 643.424 170.121 641.949C170.121 640.846 169.333 640.155 168.364 640.093V640.011C169.348 639.774 169.931 639.197 169.931 638.356C169.931 636.975 168.735 636.124 166.797 636.124C165.023 636.124 163.647 637.021 163.631 638.444H165.75C165.766 637.98 166.24 637.655 166.894 637.655C167.544 637.655 167.951 638.016 167.951 638.547C167.951 639.026 167.57 639.377 166.889 639.377H165.75V640.815H166.889C167.575 640.815 168.034 641.207 168.034 641.779C168.034 642.408 167.482 642.748 166.766 642.748C166.059 642.748 165.57 642.429 165.549 641.903H163.42ZM173.726 644.295C174.896 644.295 175.654 643.784 176.041 643.047H176.102V644.145H178.185V638.805C178.185 636.918 176.587 636.124 174.824 636.124C172.927 636.124 171.68 637.031 171.375 638.475L173.406 638.64C173.556 638.114 174.025 637.727 174.814 637.727C175.561 637.727 175.989 638.104 175.989 638.753V638.784C175.989 639.294 175.448 639.362 174.071 639.496C172.504 639.64 171.097 640.166 171.097 641.934C171.097 643.501 172.216 644.295 173.726 644.295ZM174.355 642.779C173.68 642.779 173.195 642.465 173.195 641.862C173.195 641.243 173.705 640.939 174.479 640.831C174.958 640.764 175.742 640.65 176.004 640.475V641.315C176.004 642.145 175.319 642.779 174.355 642.779ZM181.987 641.248V636.227H179.889V644.145H182.069L184.91 639.109V644.145H187.003V636.227H184.837L181.987 641.248ZM184.461 633.464C184.461 633.949 184.172 634.387 183.44 634.387C182.688 634.387 182.409 633.939 182.415 633.464H180.894C180.894 634.712 181.879 635.547 183.44 635.547C185.002 635.547 185.987 634.712 185.992 633.464H184.461ZM190.861 636.227H188.763V644.145H190.861V641.037H193.567V644.145H195.65V636.227H193.567V639.31H190.861V636.227Z" fill="white"/>
<rect x="86.4419" y="694" width="122.291" height="70.2906" rx="9.07265" fill="#3B76F3"/>
<path d="M105.835 726.145H108.067V722.722H109.944C112.372 722.722 113.784 721.274 113.784 719.166C113.784 717.067 112.397 715.588 110 715.588H105.835V726.145ZM108.067 720.934V717.413H109.572C110.861 717.413 111.485 718.114 111.485 719.166C111.485 720.212 110.861 720.934 109.583 720.934H108.067ZM117.238 726.295C118.408 726.295 119.166 725.784 119.552 725.047H119.614V726.145H121.697V720.805C121.697 718.918 120.099 718.124 118.336 718.124C116.439 718.124 115.191 719.031 114.887 720.475L116.918 720.64C117.068 720.114 117.537 719.727 118.326 719.727C119.073 719.727 119.501 720.104 119.501 720.753V720.784C119.501 721.294 118.96 721.362 117.583 721.496C116.016 721.64 114.609 722.166 114.609 723.934C114.609 725.501 115.727 726.295 117.238 726.295ZM117.867 724.779C117.191 724.779 116.707 724.465 116.707 723.862C116.707 723.243 117.217 722.939 117.99 722.831C118.47 722.764 119.253 722.65 119.516 722.475V723.315C119.516 724.145 118.831 724.779 117.867 724.779ZM122.993 723.903C123.05 725.449 124.447 726.3 126.349 726.3C128.298 726.3 129.695 725.424 129.695 723.949C129.695 722.846 128.906 722.155 127.937 722.093V722.011C128.921 721.774 129.504 721.197 129.504 720.356C129.504 718.975 128.308 718.124 126.37 718.124C124.596 718.124 123.22 719.021 123.205 720.444H125.323C125.339 719.98 125.813 719.655 126.468 719.655C127.117 719.655 127.524 720.016 127.524 720.547C127.524 721.026 127.143 721.377 126.463 721.377H125.323V722.815H126.463C127.148 722.815 127.607 723.207 127.607 723.779C127.607 724.408 127.055 724.748 126.339 724.748C125.633 724.748 125.143 724.429 125.122 723.903H122.993ZM131.041 729.114H133.237V724.877H133.304C133.609 725.537 134.274 726.274 135.552 726.274C137.356 726.274 138.763 724.846 138.763 722.197C138.763 719.475 137.294 718.124 135.557 718.124C134.232 718.124 133.598 718.913 133.304 719.557H133.206V718.227H131.041V729.114ZM133.191 722.186C133.191 720.774 133.789 719.872 134.856 719.872C135.944 719.872 136.521 720.815 136.521 722.186C136.521 723.568 135.933 724.527 134.856 724.527C133.799 724.527 133.191 723.599 133.191 722.186ZM142.485 726.295C143.655 726.295 144.413 725.784 144.8 725.047H144.862V726.145H146.944V720.805C146.944 718.918 145.346 718.124 143.583 718.124C141.686 718.124 140.439 719.031 140.135 720.475L142.166 720.64C142.315 720.114 142.784 719.727 143.573 719.727C144.32 719.727 144.748 720.104 144.748 720.753V720.784C144.748 721.294 144.207 721.362 142.831 721.496C141.264 721.64 139.856 722.166 139.856 723.934C139.856 725.501 140.975 726.295 142.485 726.295ZM143.114 724.779C142.439 724.779 141.954 724.465 141.954 723.862C141.954 723.243 142.465 722.939 143.238 722.831C143.717 722.764 144.501 722.65 144.764 722.475V723.315C144.764 724.145 144.078 724.779 143.114 724.779ZM155.231 715.32C154.844 715.593 154.226 715.588 153.38 715.588C153.179 715.588 152.968 715.583 152.741 715.588C149.859 715.614 148.354 717.418 148.354 721.233V721.882C148.354 724.759 149.839 726.3 152.236 726.3C154.628 726.3 156.107 724.759 156.107 722.341C156.107 720.021 154.751 718.635 152.731 718.635C151.457 718.635 150.602 719.186 150.127 720.155H150.05C150.236 718.212 150.978 717.413 152.813 717.392C154.437 717.366 155.226 717.31 155.901 716.753L155.231 715.32ZM152.246 724.599C151.21 724.599 150.586 723.764 150.586 722.413C150.597 721.063 151.215 720.3 152.236 720.3C153.251 720.3 153.875 721.063 153.875 722.413C153.875 723.769 153.251 724.599 152.246 724.599ZM161.142 726.3C163.544 726.3 165.039 724.655 165.039 722.217C165.039 719.763 163.544 718.124 161.142 718.124C158.74 718.124 157.245 719.763 157.245 722.217C157.245 724.655 158.74 726.3 161.142 726.3ZM161.153 724.599C160.044 724.599 159.477 723.583 159.477 722.202C159.477 720.82 160.044 719.8 161.153 719.8C162.24 719.8 162.807 720.82 162.807 722.202C162.807 723.583 162.24 724.599 161.153 724.599ZM165.7 719.954H168.232V726.145H170.324V719.954H172.876V718.227H165.7V719.954ZM174.207 726.145H176.403V723.336H177.223L179.177 726.145H181.785L178.955 722.155L181.754 718.227H179.177L177.022 721.3H176.403V718.227H174.207V726.145ZM184.971 726.295C186.141 726.295 186.899 725.784 187.285 725.047H187.347V726.145H189.43V720.805C189.43 718.918 187.832 718.124 186.069 718.124C184.172 718.124 182.924 719.031 182.62 720.475L184.651 720.64C184.801 720.114 185.27 719.727 186.059 719.727C186.806 719.727 187.234 720.104 187.234 720.753V720.784C187.234 721.294 186.693 721.362 185.316 721.496C183.749 721.64 182.342 722.166 182.342 723.934C182.342 725.501 183.46 726.295 184.971 726.295ZM185.6 724.779C184.924 724.779 184.44 724.465 184.44 723.862C184.44 723.243 184.95 722.939 185.723 722.831C186.203 722.764 186.986 722.65 187.249 722.475V723.315C187.249 724.145 186.564 724.779 185.6 724.779ZM131.203 743.3C133.311 743.3 134.636 742.063 134.739 740.243H132.666C132.538 741.088 131.981 741.563 131.228 741.563C130.202 741.563 129.537 740.702 129.537 739.186C129.537 737.691 130.208 736.836 131.228 736.836C132.032 736.836 132.548 737.367 132.666 738.155H134.739C134.646 736.325 133.259 735.124 131.192 735.124C128.79 735.124 127.305 736.789 127.305 739.217C127.305 741.625 128.764 743.3 131.203 743.3ZM138.403 743.295C139.573 743.295 140.331 742.784 140.717 742.047H140.779V743.145H142.862V737.805C142.862 735.918 141.264 735.124 139.501 735.124C137.604 735.124 136.356 736.031 136.052 737.475L138.083 737.64C138.233 737.114 138.702 736.727 139.49 736.727C140.238 736.727 140.666 737.104 140.666 737.753V737.784C140.666 738.294 140.124 738.362 138.748 738.496C137.181 738.64 135.774 739.166 135.774 740.934C135.774 742.501 136.892 743.295 138.403 743.295ZM139.032 741.779C138.356 741.779 137.872 741.465 137.872 740.862C137.872 740.243 138.382 739.939 139.155 739.831C139.635 739.764 140.418 739.65 140.681 739.475V740.315C140.681 741.145 139.995 741.779 139.032 741.779ZM146.663 740.248V735.227H144.565V743.145H146.746L149.586 738.109V743.145H151.679V735.227H149.514L146.663 740.248ZM149.138 732.464C149.138 732.949 148.849 733.387 148.117 733.387C147.364 733.387 147.086 732.939 147.091 732.464H145.571C145.571 733.712 146.555 734.547 148.117 734.547C149.679 734.547 150.664 733.712 150.669 732.464H149.138ZM152.659 736.954H155.19V743.145H157.283V736.954H159.834V735.227H152.659V736.954ZM163.14 743.295C164.31 743.295 165.068 742.784 165.454 742.047H165.516V743.145H167.599V737.805C167.599 735.918 166.001 735.124 164.238 735.124C162.341 735.124 161.093 736.031 160.789 737.475L162.82 737.64C162.97 737.114 163.439 736.727 164.227 736.727C164.975 736.727 165.403 737.104 165.403 737.753V737.784C165.403 738.294 164.862 738.362 163.485 738.496C161.918 738.64 160.511 739.166 160.511 740.934C160.511 742.501 161.629 743.295 163.14 743.295ZM163.769 741.779C163.093 741.779 162.609 741.465 162.609 740.862C162.609 740.243 163.119 739.939 163.892 739.831C164.372 739.764 165.155 739.65 165.418 739.475V740.315C165.418 741.145 164.733 741.779 163.769 741.779Z" fill="white"/>
<rect x="98.9419" y="959" width="97.2906" height="70.2906" rx="9.07265" fill="#3B76F3"/>
<path d="M124.844 991.29C127.215 991.29 128.911 989.985 128.906 988.181C128.911 986.867 128.076 985.928 126.524 985.733V985.65C127.705 985.439 128.519 984.604 128.514 983.418C128.519 981.753 127.061 980.444 124.875 980.444C122.71 980.444 121.081 981.712 121.05 983.537H123.189C123.215 982.732 123.952 982.212 124.865 982.212C125.767 982.212 126.37 982.758 126.365 983.552C126.37 984.382 125.664 984.944 124.648 984.944H123.663V986.583H124.648C125.844 986.583 126.591 987.181 126.586 988.032C126.591 988.872 125.87 989.449 124.849 989.449C123.864 989.449 123.127 988.934 123.086 988.161H120.839C120.875 990.006 122.524 991.29 124.844 991.29ZM132.789 991.295C133.959 991.295 134.717 990.784 135.103 990.047H135.165V991.145H137.248V985.805C137.248 983.918 135.65 983.124 133.887 983.124C131.99 983.124 130.742 984.031 130.438 985.475L132.469 985.64C132.619 985.114 133.088 984.727 133.877 984.727C134.624 984.727 135.052 985.104 135.052 985.753V985.784C135.052 986.294 134.511 986.362 133.134 986.496C131.567 986.64 130.16 987.166 130.16 988.934C130.16 990.501 131.279 991.295 132.789 991.295ZM133.418 989.779C132.743 989.779 132.258 989.465 132.258 988.862C132.258 988.243 132.768 987.939 133.542 987.831C134.021 987.764 134.804 987.65 135.067 987.475V988.315C135.067 989.145 134.382 989.779 133.418 989.779ZM138.952 991.145H141.024V984.954H143.777V991.145H145.875V983.227H138.952V991.145ZM148.7 994.114C150.334 994.114 151.2 993.279 151.648 992.001L154.726 983.238L152.401 983.227L150.746 989.042H150.664L149.024 983.227H146.715L149.555 991.372L149.426 991.707C149.138 992.449 148.586 992.486 147.813 992.248L147.318 993.888C147.633 994.022 148.143 994.114 148.7 994.114ZM159.158 991.3C161.266 991.3 162.591 990.063 162.694 988.243H160.622C160.493 989.088 159.936 989.563 159.183 989.563C158.158 989.563 157.493 988.702 157.493 987.186C157.493 985.691 158.163 984.836 159.183 984.836C159.988 984.836 160.503 985.367 160.622 986.155H162.694C162.601 984.325 161.214 983.124 159.147 983.124C156.745 983.124 155.26 984.789 155.26 987.217C155.26 989.625 156.719 991.3 159.158 991.3ZM164.1 991.145H166.296V988.336H167.116L169.069 991.145H171.678L168.848 987.155L171.647 983.227H169.069L166.914 986.3H166.296V983.227H164.1V991.145ZM118.375 1008.15H120.447V1001.95H123.2V1008.15H125.298V1000.23H118.375V1008.15ZM127.051 1011.11H129.247V1006.88H129.314C129.618 1007.54 130.283 1008.27 131.561 1008.27C133.366 1008.27 134.773 1006.85 134.773 1004.2C134.773 1001.47 133.304 1000.12 131.567 1000.12C130.242 1000.12 129.608 1000.91 129.314 1001.56H129.216V1000.23H127.051V1011.11ZM129.2 1004.19C129.2 1002.77 129.798 1001.87 130.865 1001.87C131.953 1001.87 132.531 1002.82 132.531 1004.19C132.531 1005.57 131.943 1006.53 130.865 1006.53C129.809 1006.53 129.2 1005.6 129.2 1004.19ZM139.814 1008.3C142.217 1008.3 143.712 1006.66 143.712 1004.22C143.712 1001.76 142.217 1000.12 139.814 1000.12C137.412 1000.12 135.917 1001.76 135.917 1004.22C135.917 1006.66 137.412 1008.3 139.814 1008.3ZM139.825 1006.6C138.716 1006.6 138.149 1005.58 138.149 1004.2C138.149 1002.82 138.716 1001.8 139.825 1001.8C140.912 1001.8 141.479 1002.82 141.479 1004.2C141.479 1005.58 140.912 1006.6 139.825 1006.6ZM148.748 1008.3C150.707 1008.3 152.026 1007.35 152.336 1005.88L150.305 1005.74C150.083 1006.35 149.516 1006.66 148.784 1006.66C147.686 1006.66 146.99 1005.93 146.99 1004.75V1004.75H152.382V1004.15C152.382 1001.45 150.753 1000.12 148.66 1000.12C146.33 1000.12 144.82 1001.78 144.82 1004.22C144.82 1006.73 146.31 1008.3 148.748 1008.3ZM146.99 1003.39C147.036 1002.49 147.722 1001.76 148.696 1001.76C149.65 1001.76 150.31 1002.44 150.315 1003.39H146.99ZM153.815 1008.15H156.011V1005.34H156.831L158.785 1008.15H161.393L158.563 1004.16L161.362 1000.23H158.785L156.63 1003.3H156.011V1000.23H153.815V1008.15ZM161.908 1001.95H164.439V1008.15H166.532V1001.95H169.084V1000.23H161.908V1001.95ZM172.39 1008.29C173.56 1008.29 174.318 1007.78 174.704 1007.05H174.766V1008.15H176.849V1002.8C176.849 1000.92 175.251 1000.12 173.488 1000.12C171.591 1000.12 170.343 1001.03 170.039 1002.47L172.07 1002.64C172.22 1002.11 172.689 1001.73 173.477 1001.73C174.225 1001.73 174.653 1002.1 174.653 1002.75V1002.78C174.653 1003.29 174.111 1003.36 172.735 1003.5C171.168 1003.64 169.761 1004.17 169.761 1005.93C169.761 1007.5 170.879 1008.29 172.39 1008.29ZM173.019 1006.78C172.343 1006.78 171.859 1006.46 171.859 1005.86C171.859 1005.24 172.369 1004.94 173.142 1004.83C173.622 1004.76 174.405 1004.65 174.668 1004.47V1005.32C174.668 1006.15 173.983 1006.78 173.019 1006.78Z" fill="white"/>
<rect x="111.683" y="103" width="71.4885" height="51.5286" rx="8.07265" fill="#F9F9F9"/>
<path d="M130.227 134.145H134.186C136.454 134.145 137.691 132.867 137.691 131.032C137.691 129.197 136.454 128.021 134.186 128.021H131.505V124.722H136.599V123.588H130.227V134.145ZM131.505 133.032V129.155H134.186C135.629 129.155 136.434 130.001 136.434 131.011C136.434 132.042 135.629 133.032 134.186 133.032H131.505ZM139.631 137.114H140.847V132.929H140.951C141.219 133.362 141.734 134.31 143.26 134.31C145.239 134.31 146.621 132.723 146.621 130.207C146.621 127.712 145.239 126.124 143.239 126.124C141.693 126.124 141.219 127.073 140.951 127.485H140.806V126.227H139.631V137.114ZM140.827 130.186C140.827 128.413 141.61 127.217 143.095 127.217C144.641 127.217 145.404 128.516 145.404 130.186C145.404 131.877 144.621 133.217 143.095 133.217C141.631 133.217 140.827 131.98 140.827 130.186ZM149.693 132.351V126.227H148.477V134.145H149.899L153.694 128.021V134.145H154.91V126.227H153.508L149.693 132.351ZM160.355 136.846H161.572V134.31C163.716 134.31 165.159 132.681 165.159 130.228C165.159 127.753 163.716 126.124 161.572 126.124V123.588H160.355V126.124C158.211 126.124 156.767 127.753 156.767 130.228C156.767 132.681 158.211 134.31 160.355 134.31V136.846ZM161.572 133.217V127.217C163.2 127.217 163.943 128.64 163.943 130.228C163.943 131.815 163.2 133.217 161.572 133.217ZM160.355 133.217C158.726 133.217 157.984 131.815 157.984 130.228C157.984 128.64 158.726 127.217 160.355 127.217V133.217Z" fill="black"/>
<rect x="111.683" y="103" width="71.4885" height="51.5286" rx="8.07265" stroke="#3B76F3" stroke-width="2"/>
<rect x="175.693" y="399.059" width="128.646" height="51.5286" rx="8.07265" fill="#F9F9F9"/>
<path d="M194.152 430.204H198.111C200.379 430.204 201.617 428.926 201.617 427.091C201.617 425.255 200.379 424.08 198.111 424.08H195.431V420.781H200.524V419.647H194.152V430.204ZM195.431 429.091V425.214H198.111C199.555 425.214 200.359 426.06 200.359 427.07C200.359 428.101 199.555 429.091 198.111 429.091H195.431ZM206.876 430.369C208.484 430.369 209.66 429.565 210.031 428.369L208.855 428.039C208.546 428.864 207.83 429.276 206.876 429.276C205.448 429.276 204.463 428.353 204.407 426.658H210.154V426.142C210.154 423.193 208.402 422.183 206.752 422.183C204.608 422.183 203.185 423.874 203.185 426.307C203.185 428.74 204.587 430.369 206.876 430.369ZM204.407 425.606C204.489 424.374 205.36 423.276 206.752 423.276C208.072 423.276 208.917 424.266 208.917 425.606H204.407ZM213.222 422.286H212.005V430.204H213.222V426.822H217.016V430.204H218.232V422.286H217.016V425.688H213.222V422.286ZM226.557 422.286H225.341V426.302C224.753 426.472 224.15 426.575 223.423 426.575C222.433 426.575 221.67 426.018 221.67 424.802V422.266H220.454V424.802C220.454 426.74 221.629 427.709 223.423 427.709C224.171 427.709 224.769 427.611 225.341 427.441V430.204H226.557V422.286ZM233.12 428.555L230.398 422.286H228.789V430.204H230.006V424.034L232.625 430.204H233.614L236.233 424.147V430.204H237.45V422.286H235.883L233.12 428.555ZM242.007 430.39C243.388 430.39 244.11 429.647 244.357 429.132H244.419V430.204H245.636V424.987C245.636 422.472 243.718 422.183 242.708 422.183C241.512 422.183 240.151 422.595 239.532 424.039L240.687 424.451C240.955 423.874 241.589 423.255 242.749 423.255C243.868 423.255 244.419 423.848 244.419 424.864V424.905C244.419 425.493 243.821 425.441 242.378 425.627C240.909 425.817 239.305 426.142 239.305 427.957C239.305 429.503 240.501 430.39 242.007 430.39ZM242.192 429.297C241.223 429.297 240.522 428.864 240.522 428.018C240.522 427.091 241.367 426.802 242.316 426.678C242.831 426.616 244.213 426.472 244.419 426.225V427.338C244.419 428.328 243.636 429.297 242.192 429.297ZM247.856 433.173H249.073V428.988H249.176C249.444 429.421 249.959 430.369 251.485 430.369C253.465 430.369 254.846 428.781 254.846 426.266C254.846 423.771 253.465 422.183 251.465 422.183C249.918 422.183 249.444 423.132 249.176 423.544H249.031V422.286H247.856V433.173ZM249.052 426.245C249.052 424.472 249.836 423.276 251.32 423.276C252.867 423.276 253.63 424.575 253.63 426.245C253.63 427.936 252.846 429.276 251.32 429.276C249.856 429.276 249.052 428.039 249.052 426.245ZM256.702 430.204H257.919V426.864H259.011L261.609 430.204H263.177L259.939 426.101L263.135 422.286H261.568L258.723 425.73H257.919V422.286H256.702V430.204ZM265.715 428.41V422.286H264.499V430.204H265.922L269.716 424.08V430.204H270.932V422.286H269.53L265.715 428.41ZM274.377 422.286H273.16V430.204H274.377V426.822H278.171V430.204H279.387V422.286H278.171V425.688H274.377V422.286ZM286.496 422.286H281.609V430.204H282.826V423.42H286.496V422.286Z" fill="black"/>
<rect x="175.693" y="399.059" width="128.646" height="51.5286" rx="8.07265" stroke="#3B76F3" stroke-width="2"/>
<rect x="110.322" y="338.5" width="74.2103" height="51.5286" rx="8.07265" fill="#F9F9F9"/>
<path d="M135.709 359.088V365.975C135.709 367.521 134.647 368.635 132.884 368.635C131.121 368.635 130.06 367.521 130.06 365.975V359.088H128.781V366.078C128.781 368.243 130.4 369.831 132.884 369.831C135.369 369.831 136.988 368.243 136.988 366.078V359.088H135.709ZM140.819 359.088H139.541V369.645H140.819V359.088ZM146.95 358.593H145.836L142.434 371.233H143.547L146.95 358.593ZM155.485 359.088V365.975C155.485 367.521 154.423 368.635 152.66 368.635C150.897 368.635 149.835 367.521 149.835 365.975V359.088H148.557V366.078C148.557 368.243 150.175 369.831 152.66 369.831C155.145 369.831 156.763 368.243 156.763 366.078V359.088H155.485ZM159.935 359.088H158.43L161.832 364.367L158.43 369.645H159.935L162.657 365.336H162.739L165.461 369.645H166.966L163.646 364.367L166.966 359.088H165.461L162.739 363.48H162.657L159.935 359.088Z" fill="black"/>
<rect x="110.322" y="338.5" width="74.2103" height="51.5286" rx="8.07265" stroke="#3B76F3" stroke-width="2"/>
<rect x="5.0791" y="399" width="99.6137" height="51.5286" rx="8.07265" fill="#F9F9F9"/>
<path d="M30.5234 419.588V426.475C30.5234 428.021 29.4615 429.135 27.6985 429.135C25.9355 429.135 24.8736 428.021 24.8736 426.475V419.588H23.5952V426.578C23.5952 428.743 25.2138 430.331 27.6985 430.331C30.1832 430.331 31.8018 428.743 31.8018 426.578V419.588H30.5234ZM39.7984 424.001C39.4169 422.877 38.5612 422.124 36.9941 422.124C35.3239 422.124 34.0867 423.073 34.0867 424.413C34.0867 425.506 34.7362 426.238 36.1899 426.578L37.5096 426.887C38.3086 427.073 38.6849 427.454 38.6849 428.001C38.6849 428.681 37.9632 429.238 36.8291 429.238C35.8342 429.238 35.2105 428.81 34.994 427.96L33.8393 428.248C34.1228 429.594 35.2311 430.31 36.8498 430.31C38.6901 430.31 39.9427 429.305 39.9427 427.939C39.9427 426.836 39.2519 426.14 37.8395 425.795L36.6642 425.506C35.726 425.274 35.3033 424.959 35.3033 424.351C35.3033 423.671 36.025 423.176 36.9941 423.176C38.056 423.176 38.4942 423.763 38.7055 424.31L39.7984 424.001ZM45.0938 430.31C46.7021 430.31 47.8774 429.506 48.2486 428.31L47.0732 427.98C46.7639 428.805 46.0474 429.217 45.0938 429.217C43.6658 429.217 42.6812 428.295 42.6245 426.599H48.3723V426.083C48.3723 423.135 46.6196 422.124 44.97 422.124C42.8256 422.124 41.4028 423.815 41.4028 426.248C41.4028 428.681 42.805 430.31 45.0938 430.31ZM42.6245 425.547C42.707 424.315 43.5782 423.217 44.97 423.217C46.2897 423.217 47.1351 424.207 47.1351 425.547H42.6245ZM50.2229 430.145H51.4395V425.135C51.4395 424.062 52.2849 423.279 53.4396 423.279C53.7643 423.279 54.0994 423.341 54.1819 423.361V422.124C54.0427 422.114 53.7231 422.104 53.5427 422.104C52.5942 422.104 51.7694 422.64 51.4807 423.423H51.3982V422.227H50.2229V430.145ZM63.2326 422.227H61.4593V421.423C61.4593 420.64 61.7892 420.227 62.5934 420.227C62.9439 420.227 63.1501 420.31 63.2739 420.351L63.6244 419.299C63.4388 419.217 63.0677 419.093 62.4697 419.093C61.3356 419.093 60.2428 419.774 60.2428 421.134V422.227H58.9643V423.258H60.2428V430.145H61.4593V423.258H63.2326V422.227ZM66.1542 419.588H64.9376V430.145H66.1542V419.588ZM71.599 430.31C73.7435 430.31 75.1869 428.681 75.1869 426.228C75.1869 423.753 73.7435 422.124 71.599 422.124C69.4546 422.124 68.0112 423.753 68.0112 426.228C68.0112 428.681 69.4546 430.31 71.599 430.31ZM71.599 429.217C69.9701 429.217 69.2278 427.815 69.2278 426.228C69.2278 424.64 69.9701 423.217 71.599 423.217C73.228 423.217 73.9703 424.64 73.9703 426.228C73.9703 427.815 73.228 429.217 71.599 429.217ZM78.5685 430.145H79.7644L81.4965 424.062H81.6202L83.3522 430.145H84.5482L86.9607 422.227H85.6823L83.9708 428.269H83.8884L82.2182 422.227H80.9191L79.2283 428.289H79.1458L77.4344 422.227H76.156L78.5685 430.145Z" fill="black"/>
<rect x="5.0791" y="399" width="99.6137" height="51.5286" rx="8.07265" stroke="#3B76F3" stroke-width="2"/>
<rect x="199" y="797" width="93.2628" height="51.5286" rx="8.07265" fill="#F9F9F9"/>
<path d="M217.707 828.145H221.522C224.017 828.145 225.048 826.929 225.048 825.341C225.048 823.671 223.893 822.764 222.924 822.702V822.599C223.831 822.351 224.636 821.753 224.636 820.392C224.636 818.846 223.605 817.588 221.398 817.588H217.707V828.145ZM218.986 827.011V823.341H221.584C222.965 823.341 223.831 824.269 223.831 825.341C223.831 826.269 223.192 827.011 221.522 827.011H218.986ZM218.986 822.227V818.722H221.398C222.801 818.722 223.419 819.464 223.419 820.392C223.419 821.506 222.512 822.227 221.357 822.227H218.986ZM230.303 828.31C231.912 828.31 233.087 827.506 233.458 826.31L232.283 825.98C231.974 826.805 231.257 827.217 230.303 827.217C228.876 827.217 227.891 826.295 227.834 824.599H233.582V824.083C233.582 821.135 231.829 820.124 230.18 820.124C228.035 820.124 226.613 821.815 226.613 824.248C226.613 826.681 228.015 828.31 230.303 828.31ZM227.834 823.547C227.917 822.315 228.788 821.217 230.18 821.217C231.499 821.217 232.345 822.207 232.345 823.547H227.834ZM235.433 831.114H236.649V826.929H236.752C237.02 827.362 237.536 828.31 239.062 828.31C241.041 828.31 242.423 826.723 242.423 824.207C242.423 821.712 241.041 820.124 239.041 820.124C237.495 820.124 237.02 821.073 236.752 821.485H236.608V820.227H235.433V831.114ZM236.629 824.186C236.629 822.413 237.412 821.217 238.897 821.217C240.443 821.217 241.206 822.516 241.206 824.186C241.206 825.877 240.423 827.217 238.897 827.217C237.433 827.217 236.629 825.98 236.629 824.186ZM247.495 828.31C249.248 828.31 250.403 827.238 250.609 825.836H249.392C249.165 826.702 248.444 827.217 247.495 827.217C246.052 827.217 245.124 826.021 245.124 824.186C245.124 822.392 246.072 821.217 247.495 821.217C248.567 821.217 249.207 821.877 249.392 822.599H250.609C250.403 821.114 249.145 820.124 247.475 820.124C245.33 820.124 243.907 821.815 243.907 824.228C243.907 826.599 245.268 828.31 247.495 828.31ZM251.763 821.361H254.382V828.145H255.599V821.361H258.197V820.227H251.763V821.361ZM259.971 828.145H261.188V824.805H262.281L264.879 828.145H266.446L263.209 824.042L266.405 820.227H264.838L261.992 823.671H261.188V820.227H259.971V828.145ZM270.098 828.331C271.48 828.331 272.201 827.589 272.449 827.073H272.511V828.145H273.727V822.928C273.727 820.413 271.81 820.124 270.799 820.124C269.603 820.124 268.242 820.537 267.624 821.98L268.778 822.392C269.047 821.815 269.681 821.196 270.84 821.196C271.959 821.196 272.511 821.789 272.511 822.805V822.846C272.511 823.434 271.913 823.382 270.469 823.568C269 823.758 267.397 824.083 267.397 825.898C267.397 827.444 268.593 828.331 270.098 828.331ZM270.284 827.238C269.315 827.238 268.614 826.805 268.614 825.96C268.614 825.032 269.459 824.743 270.407 824.619C270.923 824.557 272.304 824.413 272.511 824.166V825.279C272.511 826.269 271.727 827.238 270.284 827.238Z" fill="black"/>
<rect x="199" y="797" width="93.2628" height="51.5286" rx="8.07265" stroke="#3B76F3" stroke-width="2"/>
<rect x="88.0938" y="861" width="118.666" height="51.5286" rx="8.07265" fill="#F9F9F9"/>
<path d="M106.574 881.588V892.145H107.812L113.564 883.856H113.668V892.145H114.946V881.588H113.709L107.935 889.898H107.832V881.588H106.574ZM118.556 884.227H117.339V892.145H118.556V888.764H122.35V892.145H123.566V884.227H122.35V887.63H118.556V884.227ZM124.711 885.361H127.329V892.145H128.546V885.361H131.144V884.227H124.711V885.361ZM135.827 892.31C137.436 892.31 138.611 891.506 138.982 890.31L137.807 889.98C137.497 890.805 136.781 891.217 135.827 891.217C134.399 891.217 133.415 890.295 133.358 888.599H139.106V888.083C139.106 885.135 137.353 884.124 135.704 884.124C133.559 884.124 132.136 885.815 132.136 888.248C132.136 890.681 133.538 892.31 135.827 892.31ZM133.358 887.547C133.441 886.315 134.312 885.217 135.704 885.217C137.023 885.217 137.869 886.207 137.869 887.547H133.358ZM145.843 884.227H140.956V892.145H142.173V885.361H145.843V884.227ZM147.619 895.114H148.836V890.929H148.939C149.207 891.362 149.722 892.31 151.248 892.31C153.228 892.31 154.609 890.723 154.609 888.207C154.609 885.712 153.228 884.124 151.228 884.124C149.681 884.124 149.207 885.073 148.939 885.485H148.794V884.227H147.619V895.114ZM148.815 888.186C148.815 886.413 149.599 885.217 151.083 885.217C152.63 885.217 153.393 886.516 153.393 888.186C153.393 889.877 152.609 891.217 151.083 891.217C149.619 891.217 148.815 889.98 148.815 888.186ZM158.795 892.331C160.176 892.331 160.898 891.589 161.146 891.073H161.207V892.145H162.424V886.928C162.424 884.413 160.506 884.124 159.496 884.124C158.3 884.124 156.939 884.537 156.321 885.98L157.475 886.392C157.743 885.815 158.377 885.196 159.537 885.196C160.656 885.196 161.207 885.789 161.207 886.805V886.846C161.207 887.434 160.61 887.382 159.166 887.568C157.697 887.758 156.094 888.083 156.094 889.898C156.094 891.444 157.29 892.331 158.795 892.331ZM158.981 891.238C158.011 891.238 157.31 890.805 157.31 889.96C157.31 889.032 158.156 888.743 159.104 888.619C159.62 888.557 161.001 888.413 161.207 888.166V889.279C161.207 890.269 160.424 891.238 158.981 891.238ZM170.872 884.227H169.655V891.011H165.861V884.227H164.645V892.145H170.769V894.702H171.985V891.011H170.872V884.227ZM175.075 890.351V884.227H173.859V892.145H175.282L179.076 886.021V892.145H180.292V884.227H178.89L175.075 890.351ZM187.284 892.145H188.438V884.227H185.18C183.474 884.227 182.438 885.119 182.438 886.578C182.438 887.666 182.984 888.439 183.938 888.764L182.005 892.145H183.325L185.16 888.929H187.284V892.145ZM187.284 887.795H185.036C184.175 887.795 183.655 887.336 183.655 886.578C183.655 885.81 184.232 885.341 185.18 885.341H187.284V887.795Z" fill="black"/>
<rect x="88.0938" y="861" width="118.666" height="51.5286" rx="8.07265" stroke="#3B76F3" stroke-width="2"/>
<rect x="9.16162" y="797" width="91.4483" height="51.5286" rx="8.07265" fill="#F9F9F9"/>
<path d="M34.0401 828.145H35.566L31.1534 822.227L35.4217 817.588H33.8958L29.6688 822.166H29.112V817.588H27.8336V828.145H29.112V823.3H30.4111L34.0401 828.145ZM39.6886 828.31C41.8331 828.31 43.2765 826.681 43.2765 824.228C43.2765 821.753 41.8331 820.124 39.6886 820.124C37.5442 820.124 36.1008 821.753 36.1008 824.228C36.1008 826.681 37.5442 828.31 39.6886 828.31ZM39.6886 827.217C38.0597 827.217 37.3174 825.815 37.3174 824.228C37.3174 822.64 38.0597 821.217 39.6886 821.217C41.3176 821.217 42.0599 822.64 42.0599 824.228C42.0599 825.815 41.3176 827.217 39.6886 827.217ZM46.3501 820.227H45.1335V828.145H46.3501V824.764H50.1441V828.145H51.3607V820.227H50.1441V823.63H46.3501V820.227ZM52.5051 821.361H55.1238V828.145H56.3403V821.361H58.9384V820.227H52.5051V821.361ZM63.6216 828.31C65.23 828.31 66.4053 827.506 66.7764 826.31L65.6011 825.98C65.2918 826.805 64.5753 827.217 63.6216 827.217C62.1937 827.217 61.2091 826.295 61.1524 824.599H66.9002V824.083C66.9002 821.135 65.1475 820.124 63.4979 820.124C61.3535 820.124 59.9307 821.815 59.9307 824.248C59.9307 826.681 61.3328 828.31 63.6216 828.31ZM61.1524 823.547C61.2349 822.315 62.1061 821.217 63.4979 821.217C64.8176 821.217 65.663 822.207 65.663 823.547H61.1524ZM69.9673 820.227H68.7508V828.145H69.9673V824.764H73.7614V828.145H74.9779V820.227H73.7614V823.63H69.9673V820.227ZM76.1223 821.361H78.741V828.145H79.9576V821.361H82.5556V820.227H76.1223V821.361Z" fill="black"/>
<rect x="9.16162" y="797" width="91.4483" height="51.5286" rx="8.07265" stroke="#3B76F3" stroke-width="2"/>
<path d="M239.614 169.67C239.809 169.865 240.126 169.865 240.321 169.67L243.503 166.488C243.699 166.293 243.699 165.976 243.503 165.781C243.308 165.586 242.991 165.586 242.796 165.781L239.968 168.609L237.139 165.781C236.944 165.586 236.628 165.586 236.432 165.781C236.237 165.976 236.237 166.293 236.432 166.488L239.614 169.67ZM147.587 67.791L147.587 79.1543L148.587 79.1543L148.587 67.791L147.587 67.791ZM152.087 83.6543L235.968 83.6543L235.968 82.6543L152.087 82.6543L152.087 83.6543ZM239.468 87.1543L239.468 169.317L240.468 169.317L240.468 87.1543L239.468 87.1543ZM235.968 83.6543C237.901 83.6543 239.468 85.2213 239.468 87.1543L240.468 87.1543C240.468 84.669 238.453 82.6543 235.968 82.6543L235.968 83.6543ZM147.587 79.1543C147.587 81.6396 149.602 83.6543 152.087 83.6543L152.087 82.6543C150.154 82.6543 148.587 81.0873 148.587 79.1543L147.587 79.1543Z" fill="#B8B8B8"/>
<path d="M147.733 99.9399C147.929 100.135 148.245 100.135 148.44 99.9399L151.622 96.7579C151.818 96.5627 151.818 96.2461 151.622 96.0508C151.427 95.8555 151.111 95.8555 150.915 96.0508L148.087 98.8792L145.258 96.0508C145.063 95.8555 144.747 95.8555 144.551 96.0508C144.356 96.2461 144.356 96.5627 144.551 96.7579L147.733 99.9399ZM147.587 67.791L147.587 99.5863L148.587 99.5863L148.587 67.791L147.587 67.791Z" fill="#B8B8B8"/>
<path d="M54.5323 169.194C54.7276 169.39 55.0442 169.39 55.2394 169.194L58.4214 166.012C58.6167 165.817 58.6167 165.501 58.4214 165.305C58.2261 165.11 57.9096 165.11 57.7143 165.305L54.8859 168.134L52.0574 165.305C51.8622 165.11 51.5456 165.11 51.3503 165.305C51.1551 165.501 51.1551 165.817 51.3503 166.012L54.5323 169.194ZM54.8859 87.1543L55.3859 87.1543L54.8859 87.1543ZM147.587 67.791L147.587 79.1543L148.587 79.1543L148.587 67.791L147.587 67.791ZM144.087 82.6543L58.8859 82.6543L58.8859 83.6543L144.087 83.6543L144.087 82.6543ZM54.3859 87.1543L54.3859 168.841L55.3859 168.841L55.3859 87.1543L54.3859 87.1543ZM58.8859 82.6543C56.4006 82.6543 54.3859 84.669 54.3859 87.1543L55.3859 87.1543C55.3859 85.2213 56.9529 83.6543 58.8859 83.6543L58.8859 82.6543ZM147.587 79.1543C147.587 81.0873 146.02 82.6543 144.087 82.6543L144.087 83.6543C146.572 83.6543 148.587 81.6396 148.587 79.1543L147.587 79.1543Z" fill="#B8B8B8"/>
<path d="M207.646 279.292C207.451 279.487 207.451 279.804 207.646 279.999L210.828 283.181C211.024 283.376 211.34 283.376 211.536 283.181C211.731 282.986 211.731 282.669 211.536 282.474L208.707 279.646L211.536 276.817C211.731 276.622 211.731 276.305 211.536 276.11C211.34 275.915 211.024 275.915 210.828 276.11L207.646 279.292ZM239.468 229L239.468 275.646L240.468 275.646L240.468 229L239.468 229ZM235.968 279.146L208 279.146L208 280.146L235.968 280.146L235.968 279.146ZM239.468 275.646C239.468 277.579 237.901 279.146 235.968 279.146L235.968 280.146C238.453 280.146 240.468 278.131 240.468 275.646L239.468 275.646Z" fill="#B8B8B8"/>
<path d="M146.646 251.354C146.842 251.549 147.158 251.549 147.354 251.354L150.536 248.172C150.731 247.976 150.731 247.66 150.536 247.464C150.34 247.269 150.024 247.269 149.828 247.464L147 250.293L144.172 247.464C143.976 247.269 143.66 247.269 143.464 247.464C143.269 247.66 143.269 247.976 143.464 248.172L146.646 251.354ZM146.5 155L146.5 251L147.5 251L147.5 155L146.5 155Z" fill="#B8B8B8"/>
<path d="M147.733 336.854C147.929 337.049 148.245 337.049 148.44 336.854L151.622 333.672C151.818 333.476 151.818 333.16 151.622 332.964C151.427 332.769 151.111 332.769 150.915 332.964L148.087 335.793L145.258 332.964C145.063 332.769 144.747 332.769 144.551 332.964C144.356 333.16 144.356 333.476 144.551 333.672L147.733 336.854ZM147.587 308.5L147.587 336.5L148.587 336.5L148.587 308.5L147.587 308.5Z" fill="#B8B8B8"/>
<path d="M231.646 507.354C231.842 507.549 232.158 507.549 232.354 507.354L235.536 504.172C235.731 503.976 235.731 503.66 235.536 503.464C235.34 503.269 235.024 503.269 234.828 503.464L232 506.293L229.172 503.464C228.976 503.269 228.66 503.269 228.464 503.464C228.269 503.66 228.269 503.976 228.464 504.172L231.646 507.354ZM231.5 451.5L231.5 507L232.5 507L232.5 451.5L231.5 451.5Z" fill="#B8B8B8"/>
<path d="M239.614 395.354C239.809 395.549 240.126 395.549 240.321 395.354L243.503 392.172C243.699 391.976 243.699 391.66 243.503 391.464C243.308 391.269 242.991 391.269 242.796 391.464L239.968 394.293L237.139 391.464C236.944 391.269 236.627 391.269 236.432 391.464C236.237 391.66 236.237 391.976 236.432 392.172L239.614 395.354ZM239.968 326.404L240.468 326.404L239.968 326.404ZM147.587 308L147.587 318.404L148.587 318.404L148.587 308L147.587 308ZM152.087 322.904L235.968 322.904L235.968 321.904L152.087 321.904L152.087 322.904ZM239.468 326.404L239.468 395L240.468 395L240.468 326.404L239.468 326.404ZM235.968 322.904C237.901 322.904 239.468 324.471 239.468 326.404L240.468 326.404C240.468 323.918 238.453 321.904 235.968 321.904L235.968 322.904ZM147.587 318.404C147.587 320.889 149.601 322.904 152.087 322.904L152.087 321.904C150.154 321.904 148.587 320.337 148.587 318.404L147.587 318.404Z" fill="#B8B8B8"/>
<path d="M54.5325 394.354C54.7278 394.549 55.0444 394.549 55.2396 394.354L58.4216 391.172C58.6169 390.976 58.6169 390.66 58.4216 390.464C58.2263 390.269 57.9097 390.269 57.7145 390.464L54.8861 393.293L52.0576 390.464C51.8624 390.269 51.5458 390.269 51.3505 390.464C51.1553 390.66 51.1553 390.976 51.3505 391.172L54.5325 394.354ZM147.587 308L147.587 318.404L148.587 318.404L148.587 308L147.587 308ZM144.087 321.904L58.8861 321.904L58.8861 322.904L144.087 322.904L144.087 321.904ZM54.3861 326.404L54.3861 394L55.3861 394L55.3861 326.404L54.3861 326.404ZM58.8861 321.904C56.4008 321.904 54.3861 323.918 54.3861 326.404L55.3861 326.404C55.3861 324.471 56.9531 322.904 58.8861 322.904L58.8861 321.904ZM147.587 318.404C147.587 320.337 146.02 321.904 144.087 321.904L144.087 322.904C146.572 322.904 148.587 320.889 148.587 318.404L147.587 318.404Z" fill="#B8B8B8"/>
<path d="M232.354 507.354C232.158 507.549 231.842 507.549 231.646 507.354L228.464 504.172C228.269 503.976 228.269 503.66 228.464 503.464C228.66 503.269 228.976 503.269 229.172 503.464L232 506.293L234.828 503.464C235.024 503.269 235.34 503.269 235.536 503.464C235.731 503.66 235.731 503.976 235.536 504.172L232.354 507.354ZM147.733 488.288L148.233 488.288L147.733 488.288ZM148.232 391L148.233 488.288L147.233 488.288L147.232 391L148.232 391ZM151.733 491.788L228 491.788L228 492.788L151.733 492.788L151.733 491.788ZM232.5 496.288L232.5 507L231.5 507L231.5 496.288L232.5 496.288ZM228 491.788C230.485 491.788 232.5 493.803 232.5 496.288L231.5 496.288C231.5 494.355 229.933 492.788 228 492.788L228 491.788ZM148.233 488.288C148.233 490.221 149.8 491.788 151.733 491.788L151.733 492.788C149.247 492.788 147.233 490.773 147.233 488.288L148.233 488.288Z" fill="#B8B8B8"/>
<path d="M101.454 493.261C101.649 493.456 101.966 493.456 102.161 493.261L105.343 490.079C105.538 489.884 105.538 489.567 105.343 489.372C105.148 489.177 104.831 489.177 104.636 489.372L101.808 492.2L98.9792 489.372C98.7839 489.177 98.4673 489.177 98.2721 489.372C98.0768 489.567 98.0768 489.884 98.2721 490.079L101.454 493.261ZM54.8856 477.5L54.3856 477.5L54.8856 477.5ZM54.3856 450.5L54.3856 477.5L55.3856 477.5L55.3856 450.5L54.3856 450.5ZM58.8856 482L97.8076 482L97.8076 481L58.8856 481L58.8856 482ZM101.308 485.5L101.308 492.907L102.308 492.907L102.308 485.5L101.308 485.5ZM97.8076 482C99.7406 482 101.308 483.567 101.308 485.5L102.308 485.5C102.308 483.014 100.293 481 97.8076 481L97.8076 482ZM54.3856 477.5C54.3856 479.985 56.4003 482 58.8856 482L58.8856 481C56.9526 481 55.3856 479.433 55.3856 477.5L54.3856 477.5Z" fill="#B8B8B8"/>
<path d="M147.733 611.354C147.929 611.549 148.245 611.549 148.44 611.354L151.622 608.172C151.818 607.976 151.818 607.66 151.622 607.464C151.427 607.269 151.11 607.269 150.915 607.464L148.087 610.293L145.258 607.464C145.063 607.269 144.747 607.269 144.551 607.464C144.356 607.66 144.356 607.976 144.551 608.172L147.733 611.354ZM231.5 561L231.5 593.344L232.5 593.344L232.5 561L231.5 561ZM228 596.844L152.087 596.844L152.087 597.844L228 597.844L228 596.844ZM147.587 601.344L147.587 611L148.587 611L148.587 601.344L147.587 601.344ZM152.087 596.844C149.602 596.844 147.587 598.858 147.587 601.344L148.587 601.344C148.587 599.411 150.154 597.844 152.087 597.844L152.087 596.844ZM231.5 593.344C231.5 595.277 229.933 596.844 228 596.844L228 597.844C230.485 597.844 232.5 595.829 232.5 593.344L231.5 593.344Z" fill="#B8B8B8"/>
<path d="M147.733 611.353C147.929 611.548 148.245 611.548 148.44 611.353L151.622 608.171C151.818 607.976 151.818 607.659 151.622 607.464C151.427 607.269 151.111 607.269 150.915 607.464L148.087 610.293L145.258 607.464C145.063 607.269 144.747 607.269 144.551 607.464C144.356 607.659 144.356 607.976 144.551 608.171L147.733 611.353ZM58.0001 564.536L58.0001 593.601L59.0001 593.601L59.0001 564.536L58.0001 564.536ZM62.5001 598.101L144.087 598.101L144.087 597.101L62.5001 597.101L62.5001 598.101ZM147.587 601.601L147.587 611L148.587 611L148.587 601.601L147.587 601.601ZM144.087 598.101C146.02 598.101 147.587 599.668 147.587 601.601L148.587 601.601C148.587 599.116 146.572 597.101 144.087 597.101L144.087 598.101ZM58.0001 593.601C58.0001 596.087 60.0148 598.101 62.5001 598.101L62.5001 597.101C60.5671 597.101 59.0001 595.534 59.0001 593.601L58.0001 593.601Z" fill="#B8B8B8"/>
<path d="M239.614 793.931C239.809 794.126 240.126 794.126 240.321 793.931L243.503 790.749C243.699 790.553 243.699 790.237 243.503 790.042C243.308 789.846 242.991 789.846 242.796 790.042L239.968 792.87L237.139 790.041C236.944 789.846 236.628 789.846 236.432 790.041C236.237 790.237 236.237 790.553 236.432 790.749L239.614 793.931ZM147.087 764L147.087 775.005L148.087 775.005L148.087 764L147.087 764ZM151.587 779.505L235.968 779.505L235.968 778.505L151.587 778.505L151.587 779.505ZM239.468 783.005L239.468 793.577L240.468 793.577L240.468 783.005L239.468 783.005ZM235.968 779.505C237.901 779.505 239.468 781.072 239.468 783.005L240.468 783.005C240.468 780.52 238.453 778.505 235.968 778.505L235.968 779.505ZM147.087 775.005C147.087 777.49 149.102 779.505 151.587 779.505L151.587 778.505C149.654 778.505 148.087 776.938 148.087 775.005L147.087 775.005Z" fill="#B8B8B8"/>
<path d="M147.233 858.354C147.429 858.549 147.745 858.549 147.94 858.354L151.122 855.172C151.318 854.976 151.318 854.66 151.122 854.464C150.927 854.269 150.611 854.269 150.415 854.464L147.587 857.293L144.758 854.464C144.563 854.269 144.247 854.269 144.051 854.464C143.856 854.66 143.856 854.976 144.051 855.172L147.233 858.354ZM147.087 764L147.087 858L148.087 858L148.087 764L147.087 764Z" fill="#B8B8B8"/>
<path d="M54.5323 793.931C54.7276 794.126 55.0442 794.126 55.2394 793.931L58.4214 790.749C58.6167 790.553 58.6167 790.237 58.4214 790.041C58.2261 789.846 57.9096 789.846 57.7143 790.041L54.8859 792.87L52.0574 790.041C51.8622 789.846 51.5456 789.846 51.3503 790.041C51.1551 790.237 51.1551 790.553 51.3503 790.749L54.5323 793.931ZM147.087 764L147.087 775.005L148.087 775.005L148.087 764L147.087 764ZM143.587 778.505L58.8859 778.505L58.8859 779.505L143.587 779.505L143.587 778.505ZM54.3859 783.005L54.3859 793.577L55.3859 793.577L55.3859 783.005L54.3859 783.005ZM58.8859 778.505C56.4006 778.505 54.3859 780.52 54.3859 783.005L55.3859 783.005C55.3859 781.072 56.9529 779.505 58.8859 779.505L58.8859 778.505ZM147.087 775.005C147.087 776.938 145.52 778.505 143.587 778.505L143.587 779.505C146.072 779.505 148.087 777.49 148.087 775.005L147.087 775.005Z" fill="#B8B8B8"/>
<path d="M147.233 956.449C147.428 956.644 147.745 956.644 147.94 956.449L151.122 953.267C151.318 953.072 151.318 952.755 151.122 952.56C150.927 952.364 150.61 952.364 150.415 952.56L147.587 955.388L144.758 952.56C144.563 952.364 144.247 952.364 144.051 952.56C143.856 952.755 143.856 953.072 144.051 953.267L147.233 956.449ZM239.968 931.569L240.468 931.569L239.968 931.569ZM239.468 849.5L239.468 931.569L240.468 931.569L240.468 849.5L239.468 849.5ZM235.968 935.069L151.587 935.069L151.587 936.069L235.968 936.069L235.968 935.069ZM147.087 939.569L147.087 956.095L148.087 956.095L148.087 939.569L147.087 939.569ZM151.587 935.069C149.102 935.069 147.087 937.083 147.087 939.569L148.087 939.569C148.087 937.636 149.654 936.069 151.587 936.069L151.587 935.069ZM239.468 931.569C239.468 933.502 237.901 935.069 235.968 935.069L235.968 936.069C238.453 936.069 240.468 934.054 240.468 931.569L239.468 931.569Z" fill="#B8B8B8"/>
<path d="M147.233 956.449C147.429 956.644 147.745 956.644 147.94 956.449L151.122 953.267C151.318 953.071 151.318 952.755 151.122 952.559C150.927 952.364 150.611 952.364 150.415 952.559L147.587 955.388L144.758 952.559C144.563 952.364 144.247 952.364 144.051 952.559C143.856 952.755 143.856 953.071 144.051 953.267L147.233 956.449ZM147.587 940L147.087 940L147.587 940ZM54.3859 850L54.3859 932L55.3859 932L55.3859 850L54.3859 850ZM58.8859 936.5L143.587 936.5L143.587 935.5L58.8859 935.5L58.8859 936.5ZM147.087 940L147.087 956.095L148.087 956.095L148.087 940L147.087 940ZM143.587 936.5C145.52 936.5 147.087 938.067 147.087 940L148.087 940C148.087 937.515 146.072 935.5 143.587 935.5L143.587 936.5ZM54.3859 932C54.3859 934.485 56.4006 936.5 58.8859 936.5L58.8859 935.5C56.9529 935.5 55.3859 933.933 55.3859 932L54.3859 932Z" fill="#B8B8B8"/>
<rect x="86.2095" y="15" width="125.291" height="53.2906" rx="9.07265" fill="#3B76F3"/>
<path d="M109.327 47.2896C111.698 47.2896 113.394 45.9854 113.389 44.1812C113.394 42.8667 112.559 41.9285 111.008 41.7326V41.6501C112.188 41.4388 113.003 40.6037 112.997 39.418C113.003 37.753 111.544 36.4437 109.358 36.4437C107.193 36.4437 105.564 37.7118 105.533 39.5366H107.672C107.698 38.7324 108.435 38.2118 109.348 38.2118C110.25 38.2118 110.853 38.7582 110.848 39.5521C110.853 40.382 110.147 40.9439 109.131 40.9439H108.147V42.5832H109.131C110.327 42.5832 111.075 43.1811 111.069 44.0317C111.075 44.8719 110.353 45.4493 109.332 45.4493C108.348 45.4493 107.61 44.9338 107.569 44.1606H105.322C105.358 46.006 107.007 47.2896 109.327 47.2896ZM117.112 39.2273H115.014V47.1453H117.112V44.0368H119.819V47.1453H121.901V39.2273H119.819V42.31H117.112V39.2273ZM125.863 47.2948C127.033 47.2948 127.791 46.7844 128.177 46.0473H128.239V47.1453H130.322V41.8048C130.322 39.9181 128.724 39.1242 126.961 39.1242C125.064 39.1242 123.816 40.0315 123.512 41.4749L125.543 41.6398C125.693 41.114 126.162 40.7274 126.95 40.7274C127.698 40.7274 128.126 41.1037 128.126 41.7532V41.7842C128.126 42.2945 127.585 42.3615 126.208 42.4955C124.641 42.6399 123.234 43.1657 123.234 44.9338C123.234 46.5009 124.352 47.2948 125.863 47.2948ZM126.492 45.7792C125.816 45.7792 125.332 45.4648 125.332 44.8616C125.332 44.243 125.842 43.9389 126.615 43.8307C127.095 43.7636 127.878 43.6502 128.141 43.475V44.3152C128.141 45.1452 127.456 45.7792 126.492 45.7792ZM132.025 47.1453H134.221V44.3358H135.041L136.995 47.1453H139.603L136.773 43.1554L139.572 39.2273H136.995L134.84 42.2996H134.221V39.2273H132.025V47.1453ZM143.783 47.2999C146.185 47.2999 147.68 45.6555 147.68 43.2172C147.68 40.7635 146.185 39.1242 143.783 39.1242C141.38 39.1242 139.885 40.7635 139.885 43.2172C139.885 45.6555 141.38 47.2999 143.783 47.2999ZM143.793 45.5988C142.685 45.5988 142.118 44.5833 142.118 43.2018C142.118 41.8202 142.685 40.7996 143.793 40.7996C144.881 40.7996 145.448 41.8202 145.448 43.2018C145.448 44.5833 144.881 45.5988 143.793 45.5988ZM153.788 44.7173L151.706 39.2273H149.108V47.1453H151.206V42.2842L153.056 47.1453H154.515L156.479 42.1089V47.1453H158.551V39.2273H155.933L153.788 44.7173ZM163.827 47.2999C165.936 47.2999 167.261 46.0627 167.364 44.243H165.291C165.163 45.0885 164.606 45.5627 163.853 45.5627C162.827 45.5627 162.162 44.7018 162.162 43.1863C162.162 41.6914 162.833 40.8356 163.853 40.8356C164.657 40.8356 165.173 41.3666 165.291 42.1553H167.364C167.271 40.3253 165.884 39.1242 163.817 39.1242C161.415 39.1242 159.93 40.7893 159.93 43.2172C159.93 45.6246 161.389 47.2999 163.827 47.2999ZM168.244 40.9542H170.775V47.1453H172.868V40.9542H175.42V39.2273H168.244V40.9542ZM176.751 47.1453H180.648C182.627 47.1453 183.731 46.3359 183.731 44.9854C183.731 43.9441 182.906 43.1193 181.483 43.0162C182.617 42.8203 183.292 42.2223 183.292 41.3666C183.292 39.9954 182.081 39.2273 180.127 39.2273H176.751V47.1453ZM178.797 45.5008V43.7739H180.648C181.256 43.7739 181.627 44.1193 181.627 44.6812C181.627 45.1916 181.256 45.5008 180.648 45.5008H178.797ZM178.797 42.4852V40.9078H180.127C180.808 40.9078 181.225 41.2016 181.225 41.6862C181.225 42.1862 180.828 42.4852 180.174 42.4852H178.797ZM188.692 47.2999C191.094 47.2999 192.589 45.6555 192.589 43.2172C192.589 40.7635 191.094 39.1242 188.692 39.1242C186.29 39.1242 184.795 40.7635 184.795 43.2172C184.795 45.6555 186.29 47.2999 188.692 47.2999ZM188.702 45.5988C187.594 45.5988 187.027 44.5833 187.027 43.2018C187.027 41.8202 187.594 40.7996 188.702 40.7996C189.79 40.7996 190.357 41.8202 190.357 43.2018C190.357 44.5833 189.79 45.5988 188.702 45.5988Z" fill="white"/>
<rect x="181" y="510" width="102.336" height="51.5286" rx="8.07265" fill="#F9F9F9"/>
<path d="M207.498 530.588H199.622V541.145H200.9V531.722H206.22V541.145H207.498V530.588ZM209.912 544.114H211.129V539.929H211.232C211.5 540.362 212.015 541.31 213.541 541.31C215.521 541.31 216.902 539.723 216.902 537.207C216.902 534.712 215.521 533.124 213.521 533.124C211.974 533.124 211.5 534.073 211.232 534.485H211.088V533.227H209.912V544.114ZM211.108 537.186C211.108 535.413 211.892 534.217 213.376 534.217C214.923 534.217 215.686 535.516 215.686 537.186C215.686 538.877 214.902 540.217 213.376 540.217C211.912 540.217 211.108 538.98 211.108 537.186ZM221.975 541.31C224.119 541.31 225.563 539.681 225.563 537.228C225.563 534.753 224.119 533.124 221.975 533.124C219.83 533.124 218.387 534.753 218.387 537.228C218.387 539.681 219.83 541.31 221.975 541.31ZM221.975 540.217C220.346 540.217 219.603 538.815 219.603 537.228C219.603 535.64 220.346 534.217 221.975 534.217C223.604 534.217 224.346 535.64 224.346 537.228C224.346 538.815 223.604 540.217 221.975 540.217ZM226.385 534.361H229.003V541.145H230.22V534.361H232.818V533.227H226.385V534.361ZM237.398 541.31C239.543 541.31 240.986 539.681 240.986 537.228C240.986 534.753 239.543 533.124 237.398 533.124C235.254 533.124 233.81 534.753 233.81 537.228C233.81 539.681 235.254 541.31 237.398 541.31ZM237.398 540.217C235.769 540.217 235.027 538.815 235.027 537.228C235.027 535.64 235.769 534.217 237.398 534.217C239.027 534.217 239.77 535.64 239.77 537.228C239.77 538.815 239.027 540.217 237.398 540.217ZM241.808 534.361H244.427V541.145H245.644V534.361H248.242V533.227H241.808V534.361ZM251.233 539.351V533.227H250.016V541.145H251.439L255.233 535.021V541.145H256.45V533.227H255.047L251.233 539.351ZM258.678 541.145H259.894V534.361H263.688V541.145H264.905V533.227H258.678V541.145Z" fill="black"/>
<rect x="181" y="510" width="102.336" height="51.5286" rx="8.07265" stroke="#3B76F3" stroke-width="2"/>
<rect x="4.17188" y="174.471" width="104.15" height="51.5286" rx="8.07265" fill="#F9F9F9"/>
<path d="M22.9856 205.617H24.2641V201.493H26.5735C26.6663 201.493 26.7539 201.493 26.8415 201.488L29.0684 205.617H30.5531L28.1663 201.256C29.5118 200.797 30.1407 199.699 30.1407 198.297C30.1407 196.431 29.0272 195.059 26.5528 195.059H22.9856V205.617ZM24.2641 200.338V196.194H26.5116C28.223 196.194 28.8829 197.029 28.8829 198.297C28.8829 199.565 28.223 200.338 26.5322 200.338H24.2641ZM35.2376 205.782C37.382 205.782 38.8254 204.153 38.8254 201.699C38.8254 199.225 37.382 197.596 35.2376 197.596C33.0931 197.596 31.6498 199.225 31.6498 201.699C31.6498 204.153 33.0931 205.782 35.2376 205.782ZM35.2376 204.689C33.6086 204.689 32.8663 203.287 32.8663 201.699C32.8663 200.111 33.6086 198.688 35.2376 198.688C36.8665 198.688 37.6088 200.111 37.6088 201.699C37.6088 203.287 36.8665 204.689 35.2376 204.689ZM43.0125 205.802C44.394 205.802 45.1157 205.06 45.3631 204.544H45.425V205.617H46.6416V200.4C46.6416 197.884 44.7239 197.596 43.7136 197.596C42.5176 197.596 41.1567 198.008 40.5381 199.451L41.6928 199.864C41.9609 199.286 42.5949 198.668 43.7548 198.668C44.8734 198.668 45.425 199.261 45.425 200.276V200.317C45.425 200.905 44.827 200.854 43.3836 201.039C41.9145 201.23 40.3113 201.555 40.3113 203.369C40.3113 204.916 41.5073 205.802 43.0125 205.802ZM43.1981 204.709C42.2289 204.709 41.5279 204.276 41.5279 203.431C41.5279 202.503 42.3733 202.214 43.3218 202.091C43.8373 202.029 45.2188 201.885 45.425 201.637V202.751C45.425 203.74 44.6414 204.709 43.1981 204.709ZM51.8519 205.782C53.3777 205.782 53.8932 204.833 54.1613 204.4H54.3056V205.617H55.4809V195.059H54.2644V198.957H54.1613C53.8932 198.544 53.419 197.596 51.8725 197.596C49.8724 197.596 48.4909 199.183 48.4909 201.678C48.4909 204.194 49.8724 205.782 51.8519 205.782ZM52.0168 204.689C50.491 204.689 49.7074 203.349 49.7074 201.658C49.7074 199.988 50.4704 198.688 52.0168 198.688C53.5015 198.688 54.285 199.884 54.285 201.658C54.285 203.452 53.4808 204.689 52.0168 204.689ZM62.1256 195.059V205.617H63.3216V197.596H63.4247L66.7238 205.617H67.8785L71.1777 197.596H71.2808V205.617H72.4767V195.059H70.9508L67.363 203.823H67.2393L63.6515 195.059H62.1256ZM77.2051 205.802C78.5866 205.802 79.3083 205.06 79.5557 204.544H79.6176V205.617H80.8341V200.4C80.8341 197.884 78.9165 197.596 77.9061 197.596C76.7102 197.596 75.3493 198.008 74.7307 199.451L75.8854 199.864C76.1534 199.286 76.7875 198.668 77.9474 198.668C79.066 198.668 79.6176 199.261 79.6176 200.276V200.317C79.6176 200.905 79.0196 200.854 77.5762 201.039C76.1071 201.23 74.5039 201.555 74.5039 203.369C74.5039 204.916 75.6998 205.802 77.2051 205.802ZM77.3906 204.709C76.4215 204.709 75.7204 204.276 75.7204 203.431C75.7204 202.503 76.5658 202.214 77.5143 202.091C78.0298 202.029 79.4114 201.885 79.6176 201.637V202.751C79.6176 203.74 78.834 204.709 77.3906 204.709ZM83.0546 208.586H84.2712V204.4H84.3742C84.6423 204.833 85.1578 205.782 86.6837 205.782C88.6631 205.782 90.0447 204.194 90.0447 201.678C90.0447 199.183 88.6631 197.596 86.663 197.596C85.1166 197.596 84.6423 198.544 84.3742 198.957H84.2299V197.699H83.0546V208.586ZM84.2505 201.658C84.2505 199.884 85.0341 198.688 86.5187 198.688C88.0652 198.688 88.8281 199.988 88.8281 201.658C88.8281 203.349 88.0445 204.689 86.5187 204.689C85.0547 204.689 84.2505 203.452 84.2505 201.658Z" fill="black"/>
<rect x="4.17188" y="174.471" width="104.15" height="51.5286" rx="8.07265" stroke="#3B76F3" stroke-width="2"/>
<rect x="161" y="174.471" width="150.421" height="51.5286" rx="8.07265" fill="#F9F9F9"/>
<path d="M187.962 198.359C187.57 196.194 185.838 194.915 183.714 194.915C181.013 194.915 179.054 196.998 179.054 200.338C179.054 203.678 181.013 205.761 183.714 205.761C185.838 205.761 187.57 204.483 187.962 202.318H186.683C186.374 203.782 185.116 204.565 183.714 204.565C181.796 204.565 180.291 203.08 180.291 200.338C180.291 197.596 181.796 196.111 183.714 196.111C185.116 196.111 186.374 196.895 186.683 198.359H187.962ZM193.079 205.782C195.224 205.782 196.667 204.153 196.667 201.699C196.667 199.225 195.224 197.596 193.079 197.596C190.935 197.596 189.491 199.225 189.491 201.699C189.491 204.153 190.935 205.782 193.079 205.782ZM193.079 204.689C191.45 204.689 190.708 203.287 190.708 201.699C190.708 200.111 191.45 198.688 193.079 198.688C194.708 198.688 195.451 200.111 195.451 201.699C195.451 203.287 194.708 204.689 193.079 204.689ZM201.741 205.782C203.494 205.782 204.648 204.709 204.854 203.307H203.638C203.411 204.173 202.689 204.689 201.741 204.689C200.297 204.689 199.37 203.493 199.37 201.658C199.37 199.864 200.318 198.688 201.741 198.688C202.813 198.688 203.452 199.348 203.638 200.07H204.854C204.648 198.585 203.39 197.596 201.72 197.596C199.576 197.596 198.153 199.286 198.153 201.699C198.153 204.07 199.514 205.782 201.741 205.782ZM206.009 198.833H208.628V205.617H209.844V198.833H212.442V197.699H206.009V198.833ZM216.136 205.802C217.517 205.802 218.239 205.06 218.487 204.544H218.548V205.617H219.765V200.4C219.765 197.884 217.847 197.596 216.837 197.596C215.641 197.596 214.28 198.008 213.662 199.451L214.816 199.864C215.084 199.286 215.718 198.668 216.878 198.668C217.997 198.668 218.548 199.261 218.548 200.276V200.317C218.548 200.905 217.95 200.854 216.507 201.039C215.038 201.23 213.435 201.555 213.435 203.369C213.435 204.916 214.631 205.802 216.136 205.802ZM216.322 204.709C215.352 204.709 214.651 204.276 214.651 203.431C214.651 202.503 215.497 202.214 216.445 202.091C216.961 202.029 218.342 201.885 218.548 201.637V202.751C218.548 203.74 217.765 204.709 216.322 204.709ZM221.985 205.617H225.718C227.326 205.617 228.295 204.709 228.295 203.493C228.295 202.251 227.352 201.58 226.481 201.452C227.372 201.266 228.006 200.766 228.006 199.802C228.006 198.539 226.924 197.699 225.223 197.699H221.985V205.617ZM223.14 204.503V202.07H225.718C226.553 202.07 227.058 202.57 227.058 203.39C227.058 204.081 226.553 204.503 225.718 204.503H223.14ZM223.14 201.019V198.812H225.223C226.197 198.812 226.79 199.219 226.79 199.884C226.79 200.591 226.197 201.019 225.223 201.019H223.14ZM229.436 205.617H229.848C231.601 205.617 232.106 204.256 232.219 201.658L232.343 198.833H235.25V205.617H236.467V197.699H231.188L231.044 201.204C230.941 203.864 230.673 204.483 229.724 204.483H229.436V205.617ZM242.019 205.782C243.627 205.782 244.802 204.977 245.174 203.782L243.998 203.452C243.689 204.276 242.972 204.689 242.019 204.689C240.591 204.689 239.606 203.766 239.55 202.07H245.297V201.555C245.297 198.606 243.545 197.596 241.895 197.596C239.751 197.596 238.328 199.286 238.328 201.72C238.328 204.153 239.73 205.782 242.019 205.782ZM239.55 201.019C239.632 199.786 240.503 198.688 241.895 198.688C243.215 198.688 244.06 199.678 244.06 201.019H239.55ZM248.364 197.699H247.148V205.617H248.364V202.235H252.159V205.617H253.375V197.699H252.159V201.101H248.364V197.699ZM256.813 203.823V197.699H255.597V205.617H257.02L260.814 199.493V205.617H262.03V197.699H260.628L256.813 203.823ZM267.578 205.782C269.186 205.782 270.362 204.977 270.733 203.782L269.558 203.452C269.248 204.276 268.532 204.689 267.578 204.689C266.15 204.689 265.166 203.766 265.109 202.07H270.857V201.555C270.857 198.606 269.104 197.596 267.454 197.596C265.31 197.596 263.887 199.286 263.887 201.72C263.887 204.153 265.289 205.782 267.578 205.782ZM265.109 201.019C265.191 199.786 266.063 198.688 267.454 198.688C268.774 198.688 269.619 199.678 269.619 201.019H265.109ZM276.378 196.194H279.697V205.617H280.976V196.194H284.296V195.059H276.378V196.194ZM289.65 205.761C291.697 205.761 293.217 204.477 293.217 202.751C293.217 201.41 292.424 200.436 291.094 200.214V200.132C292.161 199.807 292.826 198.931 292.826 197.74C292.826 196.245 291.645 194.915 289.691 194.915C287.867 194.915 286.351 196.039 286.289 197.699H287.526C287.573 196.647 288.573 196.029 289.671 196.029C290.836 196.029 291.588 196.735 291.588 197.802C291.588 198.915 290.717 199.637 289.465 199.637H288.619V200.771H289.465C291.068 200.771 291.96 201.586 291.96 202.751C291.96 203.869 290.985 204.627 289.63 204.627C288.408 204.627 287.439 203.998 287.361 202.977H286.062C286.14 204.637 287.604 205.761 289.65 205.761Z" fill="black"/>
<rect x="161" y="174.471" width="150.421" height="51.5286" rx="8.07265" stroke="#3B76F3" stroke-width="2"/>
</svg>
