<svg width="1313" height="240" viewBox="0 0 1313 240" fill="none" xmlns="http://www.w3.org/2000/svg">
<rect x="588.908" y="38.7676" width="102.336" height="51.5286" rx="8.07265" fill="#F9F9F9"/>
<path d="M615.407 59.3556H607.53V69.9128H608.808V60.4897H614.128V69.9128H615.407V59.3556ZM617.82 72.8821H619.037V68.6963H619.14C619.408 69.1293 619.924 70.0778 621.45 70.0778C623.429 70.0778 624.811 68.4901 624.811 65.9745C624.811 63.4795 623.429 61.8918 621.429 61.8918C619.882 61.8918 619.408 62.8403 619.14 63.2527H618.996V61.9949H617.82V72.8821ZM619.016 65.9539C619.016 64.1806 619.8 62.9846 621.285 62.9846C622.831 62.9846 623.594 64.2837 623.594 65.9539C623.594 67.6447 622.81 68.985 621.285 68.985C619.821 68.985 619.016 67.7478 619.016 65.9539ZM629.883 70.0778C632.027 70.0778 633.471 68.4488 633.471 65.9951C633.471 63.5207 632.027 61.8918 629.883 61.8918C627.739 61.8918 626.295 63.5207 626.295 65.9951C626.295 68.4488 627.739 70.0778 629.883 70.0778ZM629.883 68.985C628.254 68.985 627.512 67.5828 627.512 65.9951C627.512 64.4074 628.254 62.9846 629.883 62.9846C631.512 62.9846 632.254 64.4074 632.254 65.9951C632.254 67.5828 631.512 68.985 629.883 68.985ZM634.293 63.129H636.912V69.9128H638.128V63.129H640.726V61.9949H634.293V63.129ZM645.306 70.0778C647.451 70.0778 648.894 68.4488 648.894 65.9951C648.894 63.5207 647.451 61.8918 645.306 61.8918C643.162 61.8918 641.719 63.5207 641.719 65.9951C641.719 68.4488 643.162 70.0778 645.306 70.0778ZM645.306 68.985C643.678 68.985 642.935 67.5828 642.935 65.9951C642.935 64.4074 643.678 62.9846 645.306 62.9846C646.935 62.9846 647.678 64.4074 647.678 65.9951C647.678 67.5828 646.935 68.985 645.306 68.985ZM649.716 63.129H652.335V69.9128H653.552V63.129H656.15V61.9949H649.716V63.129ZM659.141 68.1189V61.9949H657.924V69.9128H659.347L663.141 63.7888V69.9128H664.358V61.9949H662.956L659.141 68.1189ZM666.586 69.9128H667.803V63.129H671.597V69.9128H672.813V61.9949H666.586V69.9128Z" fill="black"/>
<rect x="588.908" y="38.7676" width="102.336" height="51.5286" rx="8.07265" stroke="#3B76F3" stroke-width="2"/>
<rect x="588.908" y="131.309" width="131.368" height="68.7667" rx="8.07265" fill="#F9F9F9"/>
<path d="M615.343 151.897H607.466V162.454H608.745V153.031H614.064V162.454H615.343V151.897ZM617.757 165.423H618.973V161.237H619.076C619.344 161.67 619.86 162.619 621.386 162.619C623.365 162.619 624.747 161.031 624.747 158.516C624.747 156.021 623.365 154.433 621.365 154.433C619.819 154.433 619.344 155.381 619.076 155.794H618.932V154.536H617.757V165.423ZM618.953 158.495C618.953 156.722 619.736 155.526 621.221 155.526C622.767 155.526 623.53 156.825 623.53 158.495C623.53 160.186 622.747 161.526 621.221 161.526C619.757 161.526 618.953 160.289 618.953 158.495ZM629.922 162.619C631.531 162.619 632.706 161.815 633.077 160.619L631.902 160.289C631.592 161.114 630.876 161.526 629.922 161.526C628.494 161.526 627.51 160.603 627.453 158.907H633.201V158.392C633.201 155.443 631.448 154.433 629.799 154.433C627.654 154.433 626.231 156.124 626.231 158.557C626.231 160.99 627.633 162.619 629.922 162.619ZM627.453 157.856C627.536 156.624 628.407 155.526 629.799 155.526C631.118 155.526 631.964 156.515 631.964 157.856H627.453ZM634.557 160.433C634.598 161.732 635.84 162.619 637.526 162.619C639.258 162.619 640.516 161.691 640.516 160.248C640.516 159.258 639.923 158.454 639.031 158.392V158.309C639.784 158.077 640.351 157.531 640.351 156.639C640.351 155.386 639.278 154.433 637.608 154.433C635.959 154.433 634.783 155.34 634.742 156.618H636.021C636.057 155.964 636.742 155.505 637.67 155.505C638.593 155.505 639.113 155.974 639.113 156.68C639.113 157.34 638.66 157.835 637.691 157.835H636.33V158.928H637.691C638.66 158.928 639.278 159.459 639.278 160.248C639.278 161.15 638.479 161.526 637.505 161.526C636.551 161.526 635.912 161.15 635.856 160.433H634.557ZM645.544 162.619C647.153 162.619 648.328 161.815 648.699 160.619L647.524 160.289C647.214 161.114 646.498 161.526 645.544 161.526C644.116 161.526 643.132 160.603 643.075 158.907H648.823V158.392C648.823 155.443 647.07 154.433 645.421 154.433C643.276 154.433 641.853 156.124 641.853 158.557C641.853 160.99 643.255 162.619 645.544 162.619ZM643.075 157.856C643.158 156.624 644.029 155.526 645.421 155.526C646.74 155.526 647.586 156.515 647.586 157.856H643.075ZM651.89 154.536H650.673V162.454H651.89V159.072H655.684V162.454H656.901V154.536H655.684V157.938H651.89V154.536ZM658.045 155.67H660.664V162.454H661.88V155.67H664.478V154.536H658.045V155.67ZM668.172 162.639C669.553 162.639 670.275 161.897 670.522 161.382H670.584V162.454H671.801V157.237C671.801 154.721 669.883 154.433 668.873 154.433C667.677 154.433 666.316 154.845 665.697 156.289L666.852 156.701C667.12 156.124 667.754 155.505 668.914 155.505C670.033 155.505 670.584 156.098 670.584 157.113V157.155C670.584 157.742 669.986 157.691 668.543 157.876C667.074 158.067 665.471 158.392 665.471 160.206C665.471 161.753 666.667 162.639 668.172 162.639ZM668.357 161.547C667.388 161.547 666.687 161.114 666.687 160.268C666.687 159.34 667.533 159.052 668.481 158.928C668.997 158.866 670.378 158.722 670.584 158.474V159.588C670.584 160.577 669.801 161.547 668.357 161.547ZM680.248 154.536H679.032V161.32H675.238V154.536H674.021V162.454H680.145V165.011H681.362V161.32H680.248V154.536ZM684.452 160.66V154.536H683.236V162.454H684.658L688.452 156.33V162.454H689.669V154.536H688.267L684.452 160.66ZM696.66 162.454H697.815V154.536H694.557C692.851 154.536 691.815 155.428 691.815 156.887C691.815 157.974 692.361 158.747 693.315 159.072L691.382 162.454H692.701L694.537 159.237H696.66V162.454ZM696.66 158.103H694.413C693.552 158.103 693.031 157.644 693.031 156.887C693.031 156.118 693.609 155.649 694.557 155.649H696.66V158.103ZM621.058 179.619C622.811 179.619 623.966 178.547 624.172 177.144H622.955C622.729 178.01 622.007 178.526 621.058 178.526C619.615 178.526 618.687 177.33 618.687 175.495C618.687 173.701 619.636 172.526 621.058 172.526C622.131 172.526 622.77 173.185 622.955 173.907H624.172C623.966 172.423 622.708 171.433 621.038 171.433C618.893 171.433 617.471 173.124 617.471 175.536C617.471 177.907 618.831 179.619 621.058 179.619ZM625.327 172.67H627.945V179.454H629.162V172.67H631.76V171.536H625.327V172.67ZM633.535 182.423H634.751V178.237H634.854C635.122 178.67 635.638 179.619 637.164 179.619C639.143 179.619 640.525 178.031 640.525 175.516C640.525 173.021 639.143 171.433 637.143 171.433C635.597 171.433 635.122 172.381 634.854 172.794H634.71V171.536H633.535V182.423ZM634.731 175.495C634.731 173.722 635.514 172.526 636.999 172.526C638.545 172.526 639.308 173.825 639.308 175.495C639.308 177.186 638.525 178.526 636.999 178.526C635.535 178.526 634.731 177.289 634.731 175.495ZM642.88 182.423C643.978 182.423 644.752 181.841 645.21 180.609L648.582 171.557L647.252 171.536L645.066 177.846H644.984L642.798 171.536H641.478L644.406 179.495L644.179 180.114C643.736 181.32 643.19 181.433 642.303 181.207L641.994 182.279C642.118 182.341 642.468 182.423 642.88 182.423ZM650.191 179.454H651.408V176.113H652.501L655.099 179.454H656.666L653.429 175.351L656.625 171.536H655.058L652.212 174.979H651.408V171.536H650.191V179.454ZM657.535 172.67H660.153V179.454H661.37V172.67H663.968V171.536H657.535V172.67ZM666.526 182.423C667.624 182.423 668.397 181.841 668.856 180.609L672.227 171.557L670.897 171.536L668.712 177.846H668.629L666.444 171.536H665.124L668.052 179.495L667.825 180.114C667.382 181.32 666.835 181.433 665.949 181.207L665.639 182.279C665.763 182.341 666.114 182.423 666.526 182.423ZM673.837 182.423H675.054V178.237H675.157C675.425 178.67 675.94 179.619 677.466 179.619C679.446 179.619 680.827 178.031 680.827 175.516C680.827 173.021 679.446 171.433 677.445 171.433C675.899 171.433 675.425 172.381 675.157 172.794H675.012V171.536H673.837V182.423ZM675.033 175.495C675.033 173.722 675.816 172.526 677.301 172.526C678.848 172.526 679.61 173.825 679.61 175.495C679.61 177.186 678.827 178.526 677.301 178.526C675.837 178.526 675.033 177.289 675.033 175.495ZM683.899 174.402V171.536H682.683V179.454H686.003C687.858 179.454 688.869 178.32 688.869 176.897C688.869 175.454 687.858 174.402 686.003 174.402H683.899ZM690.127 179.454H691.343V171.536H690.127V179.454ZM683.899 175.536H686.003C686.967 175.536 687.652 176.124 687.652 176.959C687.652 177.758 686.967 178.32 686.003 178.32H683.899V175.536Z" fill="black"/>
<rect x="588.908" y="131.309" width="131.368" height="68.7667" rx="8.07265" stroke="#3B76F3" stroke-width="2"/>
<rect x="279" y="92.7676" width="116.291" height="53.2906" rx="9.07265" fill="#3B76F3"/>
<path d="M300.36 124.913L301.144 122.505H304.953L305.737 124.913H308.128L304.489 114.356H301.613L297.968 124.913H300.36ZM301.711 120.763L303.01 116.768H303.092L304.391 120.763H301.711ZM311.456 116.995H309.358V124.913H311.456V121.804H314.162V124.913H316.245V116.995H314.162V120.078H311.456V116.995ZM320.206 125.062C321.377 125.062 322.134 124.552 322.521 123.815H322.583V124.913H324.665V119.572C324.665 117.686 323.067 116.892 321.304 116.892C319.407 116.892 318.16 117.799 317.856 119.242L319.887 119.407C320.036 118.882 320.505 118.495 321.294 118.495C322.042 118.495 322.469 118.871 322.469 119.521V119.552C322.469 120.062 321.928 120.129 320.552 120.263C318.985 120.407 317.577 120.933 317.577 122.701C317.577 124.268 318.696 125.062 320.206 125.062ZM320.835 123.547C320.16 123.547 319.675 123.232 319.675 122.629C319.675 122.011 320.186 121.706 320.959 121.598C321.438 121.531 322.222 121.418 322.485 121.243V122.083C322.485 122.913 321.799 123.547 320.835 123.547ZM325.905 124.913H326.565C328.246 124.913 329.137 123.799 329.271 121.139L329.395 118.722H331.349V124.913H333.442V116.995H327.421L327.292 120.5C327.215 122.505 326.905 123.17 326.158 123.17H325.895L325.905 124.913ZM337.242 122.016V116.995H335.144V124.913H337.325L340.165 119.876V124.913H342.258V116.995H340.093L337.242 122.016ZM343.237 118.722H345.768V124.913H347.861V118.722H350.413V116.995H343.237V118.722ZM353.842 122.016V116.995H351.744V124.913H353.925L356.765 119.876V124.913H358.858V116.995H356.693L353.842 122.016ZM360.618 124.913H362.814V122.103H363.634L365.588 124.913H368.196L365.366 120.923L368.165 116.995H365.588L363.433 120.067H362.814V116.995H360.618V124.913ZM371.382 125.062C372.552 125.062 373.31 124.552 373.696 123.815H373.758V124.913H375.841V119.572C375.841 117.686 374.243 116.892 372.48 116.892C370.583 116.892 369.335 117.799 369.031 119.242L371.062 119.407C371.212 118.882 371.681 118.495 372.47 118.495C373.217 118.495 373.645 118.871 373.645 119.521V119.552C373.645 120.062 373.104 120.129 371.727 120.263C370.16 120.407 368.753 120.933 368.753 122.701C368.753 124.268 369.871 125.062 371.382 125.062ZM372.011 123.547C371.335 123.547 370.851 123.232 370.851 122.629C370.851 122.011 371.361 121.706 372.134 121.598C372.614 121.531 373.397 121.418 373.66 121.243V122.083C373.66 122.913 372.975 123.547 372.011 123.547Z" fill="white"/>
<rect x="759.381" y="92.7676" width="133.291" height="53.2906" rx="9.07265" fill="#3B76F3"/>
<path d="M785.075 114.356V121.021C785.075 122.227 784.23 123.098 782.931 123.098C781.637 123.098 780.786 122.227 780.786 121.021V114.356H778.554V121.212C778.554 123.521 780.296 125.062 782.931 125.062C785.554 125.062 787.307 123.521 787.307 121.212V114.356H785.075ZM791.376 114.356H789.144V124.913H791.376V114.356ZM797.769 113.861H795.877L792.475 126.501H794.367L797.769 113.861ZM805.389 114.356V121.021C805.389 122.227 804.544 123.098 803.245 123.098C801.951 123.098 801.1 122.227 801.1 121.021V114.356H798.868V121.212C798.868 123.521 800.611 125.062 803.245 125.062C805.869 125.062 807.621 123.521 807.621 121.212V114.356H805.389ZM811.551 114.356H809.02L812.262 119.634L808.958 124.913H811.515L813.68 121.31H813.762L815.927 124.913H818.494L815.2 119.634L818.422 114.356H815.901L813.762 117.954H813.68L811.551 114.356ZM822.535 127.233H824.679V124.913H829.519V127.233H831.612V123.17H830.385V116.995H824.313L824.107 119.583C823.983 121.139 823.834 122.732 823.143 123.17H822.535V127.233ZM825.329 123.17C825.798 122.433 825.978 121.273 826.097 119.583L826.179 118.686H828.313V123.17H825.329ZM834.99 122.016V116.995H832.892V124.913H835.073L837.913 119.876V124.913H840.006V116.995H837.841L834.99 122.016ZM841.359 122.67C841.416 124.217 842.813 125.067 844.715 125.067C846.663 125.067 848.06 124.191 848.06 122.717C848.06 121.614 847.272 120.923 846.303 120.861V120.779C847.287 120.541 847.87 119.964 847.87 119.124C847.87 117.742 846.674 116.892 844.735 116.892C842.962 116.892 841.586 117.789 841.57 119.212H843.689C843.705 118.748 844.179 118.423 844.833 118.423C845.483 118.423 845.89 118.784 845.89 119.315C845.89 119.794 845.509 120.145 844.828 120.145H843.689V121.583H844.828C845.514 121.583 845.973 121.975 845.973 122.547C845.973 123.176 845.421 123.516 844.705 123.516C843.998 123.516 843.509 123.196 843.488 122.67H841.359ZM851.665 125.062C852.835 125.062 853.593 124.552 853.98 123.815H854.041V124.913H856.124V119.572C856.124 117.686 854.526 116.892 852.763 116.892C850.866 116.892 849.618 117.799 849.314 119.242L851.345 119.407C851.495 118.882 851.964 118.495 852.753 118.495C853.5 118.495 853.928 118.871 853.928 119.521V119.552C853.928 120.062 853.387 120.129 852.01 120.263C850.443 120.407 849.036 120.933 849.036 122.701C849.036 124.268 850.155 125.062 851.665 125.062ZM852.294 123.547C851.619 123.547 851.134 123.232 851.134 122.629C851.134 122.011 851.644 121.706 852.418 121.598C852.897 121.531 853.681 121.418 853.943 121.243V122.083C853.943 122.913 853.258 123.547 852.294 123.547ZM859.926 122.016V116.995H857.828V124.913H860.008L862.849 119.876V124.913H864.941V116.995H862.776L859.926 122.016ZM862.4 114.232C862.4 114.716 862.111 115.155 861.379 115.155C860.627 115.155 860.348 114.706 860.354 114.232H858.833C858.833 115.479 859.817 116.314 861.379 116.314C862.941 116.314 863.926 115.479 863.931 114.232H862.4ZM868.8 116.995H866.702V124.913H868.8V121.804H871.506V124.913H873.589V116.995H871.506V120.078H868.8V116.995Z" fill="white"/>
<rect x="909" y="84.7676" width="122.291" height="70.2906" rx="9.07265" fill="#3B76F3"/>
<path d="M928.393 116.913H930.625V113.49H932.502C934.93 113.49 936.342 112.041 936.342 109.933C936.342 107.835 934.955 106.356 932.558 106.356H928.393V116.913ZM930.625 111.701V108.18H932.131C933.419 108.18 934.043 108.881 934.043 109.933C934.043 110.98 933.419 111.701 932.141 111.701H930.625ZM939.796 117.062C940.966 117.062 941.724 116.552 942.11 115.815H942.172V116.913H944.255V111.572C944.255 109.686 942.657 108.892 940.894 108.892C938.997 108.892 937.749 109.799 937.445 111.242L939.476 111.407C939.626 110.882 940.095 110.495 940.884 110.495C941.631 110.495 942.059 110.871 942.059 111.521V111.552C942.059 112.062 941.518 112.129 940.141 112.263C938.574 112.407 937.167 112.933 937.167 114.701C937.167 116.268 938.286 117.062 939.796 117.062ZM940.425 115.547C939.75 115.547 939.265 115.232 939.265 114.629C939.265 114.011 939.775 113.706 940.549 113.598C941.028 113.531 941.812 113.418 942.074 113.243V114.083C942.074 114.913 941.389 115.547 940.425 115.547ZM945.551 114.67C945.608 116.217 947.005 117.067 948.907 117.067C950.856 117.067 952.253 116.191 952.253 114.717C952.253 113.614 951.464 112.923 950.495 112.861V112.779C951.48 112.541 952.062 111.964 952.062 111.124C952.062 109.742 950.866 108.892 948.928 108.892C947.155 108.892 945.778 109.789 945.763 111.212H947.881C947.897 110.748 948.371 110.423 949.026 110.423C949.675 110.423 950.083 110.784 950.083 111.315C950.083 111.794 949.701 112.145 949.021 112.145H947.881V113.583H949.021C949.706 113.583 950.165 113.975 950.165 114.547C950.165 115.176 949.613 115.516 948.897 115.516C948.191 115.516 947.701 115.196 947.68 114.67H945.551ZM953.6 119.882H955.796V115.645H955.863C956.167 116.305 956.832 117.042 958.11 117.042C959.914 117.042 961.322 115.614 961.322 112.964C961.322 110.242 959.852 108.892 958.115 108.892C956.79 108.892 956.156 109.68 955.863 110.325H955.765V108.995H953.6V119.882ZM955.749 112.954C955.749 111.541 956.347 110.639 957.414 110.639C958.502 110.639 959.079 111.583 959.079 112.954C959.079 114.335 958.492 115.294 957.414 115.294C956.357 115.294 955.749 114.366 955.749 112.954ZM965.043 117.062C966.214 117.062 966.971 116.552 967.358 115.815H967.42V116.913H969.502V111.572C969.502 109.686 967.904 108.892 966.141 108.892C964.244 108.892 962.997 109.799 962.693 111.242L964.724 111.407C964.873 110.882 965.342 110.495 966.131 110.495C966.879 110.495 967.306 110.871 967.306 111.521V111.552C967.306 112.062 966.765 112.129 965.389 112.263C963.822 112.407 962.414 112.933 962.414 114.701C962.414 116.268 963.533 117.062 965.043 117.062ZM965.672 115.547C964.997 115.547 964.512 115.232 964.512 114.629C964.512 114.011 965.023 113.706 965.796 113.598C966.275 113.531 967.059 113.418 967.322 113.243V114.083C967.322 114.913 966.636 115.547 965.672 115.547ZM977.789 106.088C977.402 106.361 976.784 106.356 975.938 106.356C975.737 106.356 975.526 106.35 975.299 106.356C972.418 106.381 970.912 108.186 970.912 112V112.65C970.912 115.526 972.397 117.067 974.794 117.067C977.186 117.067 978.665 115.526 978.665 113.109C978.665 110.789 977.31 109.402 975.289 109.402C974.016 109.402 973.16 109.954 972.686 110.923H972.608C972.794 108.979 973.536 108.18 975.371 108.16C976.995 108.134 977.784 108.077 978.459 107.521L977.789 106.088ZM974.804 115.366C973.768 115.366 973.144 114.531 973.144 113.181C973.155 111.83 973.773 111.067 974.794 111.067C975.809 111.067 976.433 111.83 976.433 113.181C976.433 114.536 975.809 115.366 974.804 115.366ZM983.7 117.067C986.103 117.067 987.597 115.423 987.597 112.985C987.597 110.531 986.103 108.892 983.7 108.892C981.298 108.892 979.803 110.531 979.803 112.985C979.803 115.423 981.298 117.067 983.7 117.067ZM983.711 115.366C982.602 115.366 982.035 114.351 982.035 112.969C982.035 111.588 982.602 110.567 983.711 110.567C984.798 110.567 985.365 111.588 985.365 112.969C985.365 114.351 984.798 115.366 983.711 115.366ZM988.259 110.722H990.79V116.913H992.883V110.722H995.434V108.995H988.259V110.722ZM996.765 116.913H998.961V114.103H999.781L1001.73 116.913H1004.34L1001.51 112.923L1004.31 108.995H1001.73L999.58 112.067H998.961V108.995H996.765V116.913ZM1007.53 117.062C1008.7 117.062 1009.46 116.552 1009.84 115.815H1009.91V116.913H1011.99V111.572C1011.99 109.686 1010.39 108.892 1008.63 108.892C1006.73 108.892 1005.48 109.799 1005.18 111.242L1007.21 111.407C1007.36 110.882 1007.83 110.495 1008.62 110.495C1009.36 110.495 1009.79 110.871 1009.79 111.521V111.552C1009.79 112.062 1009.25 112.129 1007.87 112.263C1006.31 112.407 1004.9 112.933 1004.9 114.701C1004.9 116.268 1006.02 117.062 1007.53 117.062ZM1008.16 115.547C1007.48 115.547 1007 115.232 1007 114.629C1007 114.011 1007.51 113.706 1008.28 113.598C1008.76 113.531 1009.54 113.418 1009.81 113.243V114.083C1009.81 114.913 1009.12 115.547 1008.16 115.547ZM953.761 134.067C955.869 134.067 957.194 132.83 957.297 131.011H955.225C955.096 131.856 954.539 132.33 953.786 132.33C952.761 132.33 952.096 131.469 952.096 129.954C952.096 128.459 952.766 127.603 953.786 127.603C954.591 127.603 955.106 128.134 955.225 128.923H957.297C957.204 127.093 955.817 125.892 953.75 125.892C951.348 125.892 949.863 127.557 949.863 129.985C949.863 132.392 951.322 134.067 953.761 134.067ZM960.961 134.062C962.131 134.062 962.889 133.552 963.275 132.815H963.337V133.913H965.42V128.572C965.42 126.686 963.822 125.892 962.059 125.892C960.162 125.892 958.914 126.799 958.61 128.242L960.641 128.407C960.791 127.882 961.26 127.495 962.048 127.495C962.796 127.495 963.224 127.871 963.224 128.521V128.552C963.224 129.062 962.682 129.129 961.306 129.263C959.739 129.407 958.332 129.933 958.332 131.701C958.332 133.268 959.45 134.062 960.961 134.062ZM961.59 132.547C960.914 132.547 960.43 132.232 960.43 131.629C960.43 131.011 960.94 130.706 961.713 130.598C962.193 130.531 962.976 130.418 963.239 130.243V131.083C963.239 131.913 962.554 132.547 961.59 132.547ZM969.221 131.016V125.995H967.123V133.913H969.304L972.144 128.876V133.913H974.237V125.995H972.072L969.221 131.016ZM971.696 123.232C971.696 123.716 971.407 124.155 970.675 124.155C969.923 124.155 969.644 123.706 969.649 123.232H968.129C968.129 124.479 969.113 125.314 970.675 125.314C972.237 125.314 973.222 124.479 973.227 123.232H971.696ZM975.217 127.722H977.748V133.913H979.841V127.722H982.392V125.995H975.217V127.722ZM985.698 134.062C986.868 134.062 987.626 133.552 988.012 132.815H988.074V133.913H990.157V128.572C990.157 126.686 988.559 125.892 986.796 125.892C984.899 125.892 983.651 126.799 983.347 128.242L985.378 128.407C985.528 127.882 985.997 127.495 986.786 127.495C987.533 127.495 987.961 127.871 987.961 128.521V128.552C987.961 129.062 987.42 129.129 986.043 129.263C984.476 129.407 983.069 129.933 983.069 131.701C983.069 133.268 984.188 134.062 985.698 134.062ZM986.327 132.547C985.651 132.547 985.167 132.232 985.167 131.629C985.167 131.011 985.677 130.706 986.451 130.598C986.93 130.531 987.713 130.418 987.976 130.243V131.083C987.976 131.913 987.291 132.547 986.327 132.547Z" fill="white"/>
<rect x="1215" y="84.7676" width="97.2906" height="70.2906" rx="9.07265" fill="#3B76F3"/>
<path d="M1240.9 117.057C1243.27 117.057 1244.97 115.753 1244.96 113.949C1244.97 112.634 1244.13 111.696 1242.58 111.5V111.418C1243.76 111.206 1244.58 110.371 1244.57 109.186C1244.58 107.521 1243.12 106.211 1240.93 106.211C1238.77 106.211 1237.14 107.479 1237.11 109.304H1239.25C1239.27 108.5 1240.01 107.979 1240.92 107.979C1241.82 107.979 1242.43 108.526 1242.42 109.32C1242.43 110.15 1241.72 110.711 1240.71 110.711H1239.72V112.351H1240.71C1241.9 112.351 1242.65 112.949 1242.64 113.799C1242.65 114.64 1241.93 115.217 1240.91 115.217C1239.92 115.217 1239.19 114.701 1239.14 113.928H1236.9C1236.93 115.774 1238.58 117.057 1240.9 117.057ZM1248.85 117.062C1250.02 117.062 1250.77 116.552 1251.16 115.815H1251.22V116.913H1253.31V111.572C1253.31 109.686 1251.71 108.892 1249.95 108.892C1248.05 108.892 1246.8 109.799 1246.5 111.242L1248.53 111.407C1248.68 110.882 1249.15 110.495 1249.93 110.495C1250.68 110.495 1251.11 110.871 1251.11 111.521V111.552C1251.11 112.062 1250.57 112.129 1249.19 112.263C1247.63 112.407 1246.22 112.933 1246.22 114.701C1246.22 116.268 1247.34 117.062 1248.85 117.062ZM1249.48 115.547C1248.8 115.547 1248.32 115.232 1248.32 114.629C1248.32 114.011 1248.83 113.706 1249.6 113.598C1250.08 113.531 1250.86 113.418 1251.13 113.243V114.083C1251.13 114.913 1250.44 115.547 1249.48 115.547ZM1255.01 116.913H1257.08V110.722H1259.83V116.913H1261.93V108.995H1255.01V116.913ZM1264.76 119.882C1266.39 119.882 1267.26 119.047 1267.71 117.769L1270.78 109.005L1268.46 108.995L1266.8 114.81H1266.72L1265.08 108.995H1262.77L1265.61 117.14L1265.48 117.475C1265.2 118.217 1264.64 118.253 1263.87 118.016L1263.38 119.655C1263.69 119.789 1264.2 119.882 1264.76 119.882ZM1275.22 117.067C1277.32 117.067 1278.65 115.83 1278.75 114.011H1276.68C1276.55 114.856 1275.99 115.33 1275.24 115.33C1274.22 115.33 1273.55 114.469 1273.55 112.954C1273.55 111.459 1274.22 110.603 1275.24 110.603C1276.05 110.603 1276.56 111.134 1276.68 111.923H1278.75C1278.66 110.093 1277.27 108.892 1275.21 108.892C1272.8 108.892 1271.32 110.557 1271.32 112.985C1271.32 115.392 1272.78 117.067 1275.22 117.067ZM1280.16 116.913H1282.35V114.103H1283.17L1285.13 116.913H1287.74L1284.91 112.923L1287.7 108.995H1285.13L1282.97 112.067H1282.35V108.995H1280.16V116.913ZM1234.43 133.913H1236.51V127.722H1239.26V133.913H1241.36V125.995H1234.43V133.913ZM1243.11 136.882H1245.3V132.645H1245.37C1245.68 133.305 1246.34 134.042 1247.62 134.042C1249.42 134.042 1250.83 132.614 1250.83 129.964C1250.83 127.242 1249.36 125.892 1247.62 125.892C1246.3 125.892 1245.67 126.68 1245.37 127.325H1245.27V125.995H1243.11V136.882ZM1245.26 129.954C1245.26 128.541 1245.86 127.639 1246.92 127.639C1248.01 127.639 1248.59 128.583 1248.59 129.954C1248.59 131.335 1248 132.294 1246.92 132.294C1245.87 132.294 1245.26 131.366 1245.26 129.954ZM1255.87 134.067C1258.27 134.067 1259.77 132.423 1259.77 129.985C1259.77 127.531 1258.27 125.892 1255.87 125.892C1253.47 125.892 1251.98 127.531 1251.98 129.985C1251.98 132.423 1253.47 134.067 1255.87 134.067ZM1255.88 132.366C1254.77 132.366 1254.21 131.351 1254.21 129.969C1254.21 128.588 1254.77 127.567 1255.88 127.567C1256.97 127.567 1257.54 128.588 1257.54 129.969C1257.54 131.351 1256.97 132.366 1255.88 132.366ZM1264.81 134.067C1266.76 134.067 1268.08 133.114 1268.39 131.645L1266.36 131.511C1266.14 132.114 1265.57 132.428 1264.84 132.428C1263.74 132.428 1263.05 131.701 1263.05 130.521V130.516H1268.44V129.913C1268.44 127.222 1266.81 125.892 1264.72 125.892C1262.39 125.892 1260.88 127.547 1260.88 129.99C1260.88 132.5 1262.37 134.067 1264.81 134.067ZM1263.05 129.155C1263.09 128.253 1263.78 127.531 1264.75 127.531C1265.71 127.531 1266.37 128.212 1266.37 129.155H1263.05ZM1269.87 133.913H1272.07V131.103H1272.89L1274.84 133.913H1277.45L1274.62 129.923L1277.42 125.995H1274.84L1272.69 129.067H1272.07V125.995H1269.87V133.913ZM1277.97 127.722H1280.5V133.913H1282.59V127.722H1285.14V125.995H1277.97V127.722ZM1288.45 134.062C1289.62 134.062 1290.38 133.552 1290.76 132.815H1290.82V133.913H1292.91V128.572C1292.91 126.686 1291.31 125.892 1289.55 125.892C1287.65 125.892 1286.4 126.799 1286.1 128.242L1288.13 128.407C1288.28 127.882 1288.75 127.495 1289.54 127.495C1290.28 127.495 1290.71 127.871 1290.71 128.521V128.552C1290.71 129.062 1290.17 129.129 1288.79 129.263C1287.23 129.407 1285.82 129.933 1285.82 131.701C1285.82 133.268 1286.94 134.062 1288.45 134.062ZM1289.08 132.547C1288.4 132.547 1287.92 132.232 1287.92 131.629C1287.92 131.011 1288.43 130.706 1289.2 130.598C1289.68 130.531 1290.46 130.418 1290.73 130.243V131.083C1290.73 131.913 1290.04 132.547 1289.08 132.547Z" fill="white"/>
<rect x="161.586" y="1.76758" width="150.421" height="51.5286" rx="8.07265" fill="#F9F9F9"/>
<path d="M188.548 25.6547C188.156 23.4897 186.424 22.2112 184.3 22.2112C181.599 22.2112 179.64 24.2938 179.64 27.6342C179.64 30.9746 181.599 33.0572 184.3 33.0572C186.424 33.0572 188.156 31.7788 188.548 29.6137H187.269C186.96 31.0777 185.702 31.8612 184.3 31.8612C182.382 31.8612 180.877 30.3766 180.877 27.6342C180.877 24.8918 182.382 23.4072 184.3 23.4072C185.702 23.4072 186.96 24.1907 187.269 25.6547H188.548ZM193.665 33.0778C195.81 33.0778 197.253 31.4488 197.253 28.9951C197.253 26.5207 195.81 24.8918 193.665 24.8918C191.521 24.8918 190.077 26.5207 190.077 28.9951C190.077 31.4488 191.521 33.0778 193.665 33.0778ZM193.665 31.985C192.036 31.985 191.294 30.5828 191.294 28.9951C191.294 27.4074 192.036 25.9846 193.665 25.9846C195.294 25.9846 196.036 27.4074 196.036 28.9951C196.036 30.5828 195.294 31.985 193.665 31.985ZM202.327 33.0778C204.079 33.0778 205.234 32.0056 205.44 30.6034H204.224C203.997 31.4695 203.275 31.985 202.327 31.985C200.883 31.985 199.956 30.789 199.956 28.9539C199.956 27.16 200.904 25.9846 202.327 25.9846C203.399 25.9846 204.038 26.6445 204.224 27.3662H205.44C205.234 25.8815 203.976 24.8918 202.306 24.8918C200.162 24.8918 198.739 26.5826 198.739 28.9951C198.739 31.3664 200.1 33.0778 202.327 33.0778ZM206.595 26.129H209.214V32.9128H210.43V26.129H213.028V24.9949H206.595V26.129ZM216.722 33.0984C218.103 33.0984 218.825 32.3561 219.073 31.8406H219.134V32.9128H220.351V27.6961C220.351 25.1805 218.433 24.8918 217.423 24.8918C216.227 24.8918 214.866 25.3042 214.248 26.7476L215.402 27.16C215.67 26.5826 216.304 25.964 217.464 25.964C218.583 25.964 219.134 26.5568 219.134 27.5723V27.6136C219.134 28.2012 218.536 28.1497 217.093 28.3353C215.624 28.526 214.021 28.8508 214.021 30.6653C214.021 32.2118 215.217 33.0984 216.722 33.0984ZM216.907 32.0056C215.938 32.0056 215.237 31.5726 215.237 30.7272C215.237 29.7993 216.083 29.5106 217.031 29.3869C217.547 29.325 218.928 29.1807 219.134 28.9332V30.0467C219.134 31.0365 218.351 32.0056 216.907 32.0056ZM222.571 32.9128H226.304C227.912 32.9128 228.881 32.0056 228.881 30.789C228.881 29.5467 227.938 28.8765 227.067 28.7477C227.958 28.5621 228.592 28.0621 228.592 27.0981C228.592 25.8351 227.51 24.9949 225.809 24.9949H222.571V32.9128ZM223.726 31.7994V29.3663H226.304C227.139 29.3663 227.644 29.8663 227.644 30.6859C227.644 31.3767 227.139 31.7994 226.304 31.7994H223.726ZM223.726 28.3147V26.1084H225.809C226.783 26.1084 227.376 26.5156 227.376 27.1806C227.376 27.8868 226.783 28.3147 225.809 28.3147H223.726ZM230.022 32.9128H230.434C232.187 32.9128 232.692 31.5519 232.805 28.9539L232.929 26.129H235.836V32.9128H237.053V24.9949H231.774L231.63 28.5002C231.527 31.1602 231.259 31.7788 230.31 31.7788H230.022V32.9128ZM242.605 33.0778C244.213 33.0778 245.388 32.2736 245.76 31.0777L244.584 30.7478C244.275 31.5726 243.558 31.985 242.605 31.985C241.177 31.985 240.192 31.0622 240.136 29.3663H245.883V28.8508C245.883 25.9022 244.131 24.8918 242.481 24.8918C240.337 24.8918 238.914 26.5826 238.914 29.0157C238.914 31.4488 240.316 33.0778 242.605 33.0778ZM240.136 28.3147C240.218 27.0826 241.089 25.9846 242.481 25.9846C243.801 25.9846 244.646 26.9744 244.646 28.3147H240.136ZM248.95 24.9949H247.734V32.9128H248.95V29.5312H252.744V32.9128H253.961V24.9949H252.744V28.3971H248.95V24.9949ZM257.399 31.1189V24.9949H256.183V32.9128H257.606L261.4 26.7888V32.9128H262.616V24.9949H261.214L257.399 31.1189ZM268.164 33.0778C269.772 33.0778 270.948 32.2736 271.319 31.0777L270.144 30.7478C269.834 31.5726 269.118 31.985 268.164 31.985C266.736 31.985 265.752 31.0622 265.695 29.3663H271.443V28.8508C271.443 25.9022 269.69 24.8918 268.04 24.8918C265.896 24.8918 264.473 26.5826 264.473 29.0157C264.473 31.4488 265.875 33.0778 268.164 33.0778ZM265.695 28.3147C265.777 27.0826 266.649 25.9846 268.04 25.9846C269.36 25.9846 270.205 26.9744 270.205 28.3147H265.695ZM276.964 23.4897H280.283V32.9128H281.562V23.4897H284.881V22.3556H276.964V23.4897ZM290.236 33.0572C292.283 33.0572 293.803 31.7736 293.803 30.0467C293.803 28.7064 293.009 27.7322 291.68 27.5105V27.428C292.747 27.1033 293.412 26.2269 293.412 25.0361C293.412 23.5412 292.231 22.2112 290.277 22.2112C288.453 22.2112 286.937 23.335 286.875 24.9949H288.112C288.159 23.9433 289.159 23.3247 290.257 23.3247C291.422 23.3247 292.174 24.0309 292.174 25.098C292.174 26.2115 291.303 26.9331 290.051 26.9331H289.205V28.0672H290.051C291.654 28.0672 292.546 28.8817 292.546 30.0467C292.546 31.1653 291.571 31.9231 290.216 31.9231C288.994 31.9231 288.025 31.2942 287.947 30.2735H286.648C286.726 31.9334 288.19 33.0572 290.236 33.0572Z" fill="black"/>
<rect x="161.586" y="1.76758" width="150.421" height="51.5286" rx="8.07265" stroke="#3B76F3" stroke-width="2"/>
<rect x="161.586" y="94.3086" width="71.4885" height="51.5286" rx="8.07265" fill="#F9F9F9"/>
<path d="M180.13 125.454H184.089C186.357 125.454 187.595 124.175 187.595 122.34C187.595 120.505 186.357 119.33 184.089 119.33H181.409V116.031H186.502V114.897H180.13V125.454ZM181.409 124.34V120.464H184.089C185.533 120.464 186.337 121.309 186.337 122.32C186.337 123.351 185.533 124.34 184.089 124.34H181.409ZM189.534 128.423H190.751V124.237H190.854C191.122 124.67 191.637 125.619 193.163 125.619C195.143 125.619 196.524 124.031 196.524 121.516C196.524 119.021 195.143 117.433 193.143 117.433C191.596 117.433 191.122 118.381 190.854 118.794H190.71V117.536H189.534V128.423ZM190.73 121.495C190.73 119.722 191.514 118.526 192.998 118.526C194.545 118.526 195.308 119.825 195.308 121.495C195.308 123.186 194.524 124.526 192.998 124.526C191.534 124.526 190.73 123.289 190.73 121.495ZM199.597 123.66V117.536H198.38V125.454H199.803L203.597 119.33V125.454H204.813V117.536H203.411L199.597 123.66ZM210.258 128.155H211.475V125.619C213.619 125.619 215.063 123.99 215.063 121.536C215.063 119.062 213.619 117.433 211.475 117.433V114.897H210.258V117.433C208.114 117.433 206.67 119.062 206.67 121.536C206.67 123.99 208.114 125.619 210.258 125.619V128.155ZM211.475 124.526V118.526C213.104 118.526 213.846 119.948 213.846 121.536C213.846 123.124 213.104 124.526 211.475 124.526ZM210.258 124.526C208.629 124.526 207.887 123.124 207.887 121.536C207.887 119.948 208.629 118.526 210.258 118.526V124.526Z" fill="black"/>
<rect x="161.586" y="94.3086" width="71.4885" height="51.5286" rx="8.07265" stroke="#3B76F3" stroke-width="2"/>
<rect x="161.586" y="186.85" width="104.15" height="51.5286" rx="8.07265" fill="#F9F9F9"/>
<path d="M180.4 217.995H181.678V213.871H183.988C184.08 213.871 184.168 213.871 184.256 213.866L186.483 217.995H187.967L185.58 213.634C186.926 213.175 187.555 212.077 187.555 210.675C187.555 208.809 186.441 207.438 183.967 207.438H180.4V217.995ZM181.678 212.716V208.572H183.926C185.637 208.572 186.297 209.407 186.297 210.675C186.297 211.943 185.637 212.716 183.946 212.716H181.678ZM192.652 218.16C194.796 218.16 196.239 216.531 196.239 214.077C196.239 211.603 194.796 209.974 192.652 209.974C190.507 209.974 189.064 211.603 189.064 214.077C189.064 216.531 190.507 218.16 192.652 218.16ZM192.652 217.067C191.023 217.067 190.28 215.665 190.28 214.077C190.28 212.489 191.023 211.067 192.652 211.067C194.281 211.067 195.023 212.489 195.023 214.077C195.023 215.665 194.281 217.067 192.652 217.067ZM200.427 218.18C201.808 218.18 202.53 217.438 202.777 216.923H202.839V217.995H204.056V212.778C204.056 210.262 202.138 209.974 201.128 209.974C199.932 209.974 198.571 210.386 197.952 211.83L199.107 212.242C199.375 211.665 200.009 211.046 201.169 211.046C202.287 211.046 202.839 211.639 202.839 212.654V212.696C202.839 213.283 202.241 213.232 200.798 213.417C199.329 213.608 197.725 213.933 197.725 215.747C197.725 217.294 198.921 218.18 200.427 218.18ZM200.612 217.088C199.643 217.088 198.942 216.655 198.942 215.809C198.942 214.881 199.787 214.593 200.736 214.469C201.251 214.407 202.633 214.263 202.839 214.015V215.129C202.839 216.118 202.056 217.088 200.612 217.088ZM209.266 218.16C210.792 218.16 211.307 217.211 211.575 216.778H211.72V217.995H212.895V207.438H211.678V211.335H211.575C211.307 210.922 210.833 209.974 209.287 209.974C207.286 209.974 205.905 211.562 205.905 214.057C205.905 216.572 207.286 218.16 209.266 218.16ZM209.431 217.067C207.905 217.067 207.122 215.727 207.122 214.036C207.122 212.366 207.884 211.067 209.431 211.067C210.916 211.067 211.699 212.263 211.699 214.036C211.699 215.83 210.895 217.067 209.431 217.067ZM219.54 207.438V217.995H220.736V209.974H220.839L224.138 217.995H225.293L228.592 209.974H228.695V217.995H229.891V207.438H228.365L224.777 216.201H224.653L221.066 207.438H219.54ZM234.619 218.18C236.001 218.18 236.722 217.438 236.97 216.923H237.032V217.995H238.248V212.778C238.248 210.262 236.331 209.974 235.32 209.974C234.124 209.974 232.763 210.386 232.145 211.83L233.299 212.242C233.568 211.665 234.202 211.046 235.361 211.046C236.48 211.046 237.032 211.639 237.032 212.654V212.696C237.032 213.283 236.434 213.232 234.99 213.417C233.521 213.608 231.918 213.933 231.918 215.747C231.918 217.294 233.114 218.18 234.619 218.18ZM234.805 217.088C233.836 217.088 233.134 216.655 233.134 215.809C233.134 214.881 233.98 214.593 234.928 214.469C235.444 214.407 236.825 214.263 237.032 214.015V215.129C237.032 216.118 236.248 217.088 234.805 217.088ZM240.469 220.964H241.685V216.778H241.788C242.056 217.211 242.572 218.16 244.098 218.16C246.077 218.16 247.459 216.572 247.459 214.057C247.459 211.562 246.077 209.974 244.077 209.974C242.531 209.974 242.056 210.922 241.788 211.335H241.644V210.077H240.469V220.964ZM241.665 214.036C241.665 212.263 242.448 211.067 243.933 211.067C245.479 211.067 246.242 212.366 246.242 214.036C246.242 215.727 245.459 217.067 243.933 217.067C242.469 217.067 241.665 215.83 241.665 214.036Z" fill="black"/>
<rect x="161.586" y="186.85" width="104.15" height="51.5286" rx="8.07265" stroke="#3B76F3" stroke-width="2"/>
<rect x="428" y="1.76758" width="128.646" height="51.5286" rx="8.07265" fill="#F9F9F9"/>
<path d="M446.459 32.9128H450.418C452.687 32.9128 453.924 31.6344 453.924 29.7993C453.924 27.9641 452.687 26.7888 450.418 26.7888H447.738V23.4897H452.831V22.3556H446.459V32.9128ZM447.738 31.7994V27.9229H450.418C451.862 27.9229 452.666 28.7683 452.666 29.7787C452.666 30.8096 451.862 31.7994 450.418 31.7994H447.738ZM459.183 33.0778C460.791 33.0778 461.967 32.2736 462.338 31.0777L461.162 30.7478C460.853 31.5726 460.137 31.985 459.183 31.985C457.755 31.985 456.77 31.0622 456.714 29.3663H462.462V28.8508C462.462 25.9022 460.709 24.8918 459.059 24.8918C456.915 24.8918 455.492 26.5826 455.492 29.0157C455.492 31.4488 456.894 33.0778 459.183 33.0778ZM456.714 28.3147C456.796 27.0826 457.667 25.9846 459.059 25.9846C460.379 25.9846 461.224 26.9744 461.224 28.3147H456.714ZM465.529 24.9949H464.312V32.9128H465.529V29.5312H469.323V32.9128H470.539V24.9949H469.323V28.3971H465.529V24.9949ZM478.864 24.9949H477.648V29.0106C477.06 29.1807 476.457 29.2838 475.73 29.2838C474.741 29.2838 473.978 28.727 473.978 27.5105V24.9743H472.761V27.5105C472.761 29.4487 473.936 30.4179 475.73 30.4179C476.478 30.4179 477.076 30.3199 477.648 30.1498V32.9128H478.864V24.9949ZM485.427 31.2633L482.705 24.9949H481.097V32.9128H482.313V26.7424L484.932 32.9128H485.922L488.54 26.8558V32.9128H489.757V24.9949H488.19L485.427 31.2633ZM494.314 33.0984C495.695 33.0984 496.417 32.3561 496.664 31.8406H496.726V32.9128H497.943V27.6961C497.943 25.1805 496.025 24.8918 495.015 24.8918C493.819 24.8918 492.458 25.3042 491.839 26.7476L492.994 27.16C493.262 26.5826 493.896 25.964 495.056 25.964C496.175 25.964 496.726 26.5568 496.726 27.5723V27.6136C496.726 28.2012 496.128 28.1497 494.685 28.3353C493.216 28.526 491.613 28.8508 491.613 30.6653C491.613 32.2118 492.809 33.0984 494.314 33.0984ZM494.499 32.0056C493.53 32.0056 492.829 31.5726 492.829 30.7272C492.829 29.7993 493.675 29.5106 494.623 29.3869C495.139 29.325 496.52 29.1807 496.726 28.9332V30.0467C496.726 31.0365 495.943 32.0056 494.499 32.0056ZM500.163 35.8821H501.38V31.6963H501.483C501.751 32.1293 502.266 33.0778 503.792 33.0778C505.772 33.0778 507.153 31.4901 507.153 28.9745C507.153 26.4795 505.772 24.8918 503.772 24.8918C502.225 24.8918 501.751 25.8403 501.483 26.2527H501.339V24.9949H500.163V35.8821ZM501.359 28.9539C501.359 27.1806 502.143 25.9846 503.627 25.9846C505.174 25.9846 505.937 27.2837 505.937 28.9539C505.937 30.6447 505.153 31.985 503.627 31.985C502.163 31.985 501.359 30.7478 501.359 28.9539ZM509.009 32.9128H510.226V29.5725H511.319L513.917 32.9128H515.484L512.246 28.8095L515.442 24.9949H513.875L511.03 28.4384H510.226V24.9949H509.009V32.9128ZM518.022 31.1189V24.9949H516.806V32.9128H518.229L522.023 26.7888V32.9128H523.239V24.9949H521.837L518.022 31.1189ZM526.684 24.9949H525.467V32.9128H526.684V29.5312H530.478V32.9128H531.695V24.9949H530.478V28.3971H526.684V24.9949ZM538.803 24.9949H533.916V32.9128H535.133V26.129H538.803V24.9949Z" fill="black"/>
<rect x="428" y="1.76758" width="128.646" height="51.5286" rx="8.07265" stroke="#3B76F3" stroke-width="2"/>
<rect x="428" y="94.3086" width="74.2103" height="51.5286" rx="8.07265" fill="#F9F9F9"/>
<path d="M453.388 114.897V121.784C453.388 123.33 452.326 124.443 450.563 124.443C448.8 124.443 447.738 123.33 447.738 121.784V114.897H446.459V121.887C446.459 124.052 448.078 125.639 450.563 125.639C453.047 125.639 454.666 124.052 454.666 121.887V114.897H453.388ZM458.497 114.897H457.219V125.454H458.497V114.897ZM464.628 114.402H463.514L460.112 127.042H461.226L464.628 114.402ZM473.163 114.897V121.784C473.163 123.33 472.101 124.443 470.338 124.443C468.575 124.443 467.513 123.33 467.513 121.784V114.897H466.235V121.887C466.235 124.052 467.854 125.639 470.338 125.639C472.823 125.639 474.442 124.052 474.442 121.887V114.897H473.163ZM477.613 114.897H476.108L479.51 120.175L476.108 125.454H477.613L480.335 121.144H480.417L483.139 125.454H484.644L481.325 120.175L484.644 114.897H483.139L480.417 119.289H480.335L477.613 114.897Z" fill="black"/>
<rect x="428" y="94.3086" width="74.2103" height="51.5286" rx="8.07265" stroke="#3B76F3" stroke-width="2"/>
<rect x="428" y="186.85" width="99.6137" height="51.5286" rx="8.07265" fill="#F9F9F9"/>
<path d="M453.444 207.438V214.325C453.444 215.871 452.382 216.985 450.619 216.985C448.856 216.985 447.794 215.871 447.794 214.325V207.438H446.516V214.428C446.516 216.593 448.135 218.18 450.619 218.18C453.104 218.18 454.723 216.593 454.723 214.428V207.438H453.444ZM462.719 211.85C462.338 210.726 461.482 209.974 459.915 209.974C458.245 209.974 457.008 210.922 457.008 212.263C457.008 213.355 457.657 214.087 459.111 214.428L460.43 214.737C461.229 214.923 461.606 215.304 461.606 215.85C461.606 216.531 460.884 217.088 459.75 217.088C458.755 217.088 458.131 216.66 457.915 215.809L456.76 216.098C457.044 217.443 458.152 218.16 459.771 218.16C461.611 218.16 462.864 217.155 462.864 215.789C462.864 214.685 462.173 213.99 460.76 213.644L459.585 213.355C458.647 213.123 458.224 212.809 458.224 212.201C458.224 211.52 458.946 211.025 459.915 211.025C460.977 211.025 461.415 211.613 461.626 212.16L462.719 211.85ZM468.015 218.16C469.623 218.16 470.798 217.356 471.169 216.16L469.994 215.83C469.685 216.655 468.968 217.067 468.015 217.067C466.587 217.067 465.602 216.144 465.545 214.448H471.293V213.933C471.293 210.984 469.541 209.974 467.891 209.974C465.746 209.974 464.324 211.665 464.324 214.098C464.324 216.531 465.726 218.16 468.015 218.16ZM465.545 213.397C465.628 212.165 466.499 211.067 467.891 211.067C469.211 211.067 470.056 212.056 470.056 213.397H465.545ZM473.144 217.995H474.36V212.984C474.36 211.912 475.206 211.129 476.36 211.129C476.685 211.129 477.02 211.19 477.103 211.211V209.974C476.964 209.964 476.644 209.953 476.464 209.953C475.515 209.953 474.69 210.489 474.402 211.273H474.319V210.077H473.144V217.995ZM486.154 210.077H484.38V209.273C484.38 208.489 484.71 208.077 485.514 208.077C485.865 208.077 486.071 208.159 486.195 208.201L486.545 207.149C486.36 207.066 485.989 206.943 485.391 206.943C484.257 206.943 483.164 207.623 483.164 208.984V210.077H481.885V211.108H483.164V217.995H484.38V211.108H486.154V210.077ZM489.075 207.438H487.858V217.995H489.075V207.438ZM494.52 218.16C496.664 218.16 498.108 216.531 498.108 214.077C498.108 211.603 496.664 209.974 494.52 209.974C492.375 209.974 490.932 211.603 490.932 214.077C490.932 216.531 492.375 218.16 494.52 218.16ZM494.52 217.067C492.891 217.067 492.149 215.665 492.149 214.077C492.149 212.489 492.891 211.067 494.52 211.067C496.149 211.067 496.891 212.489 496.891 214.077C496.891 215.665 496.149 217.067 494.52 217.067ZM501.489 217.995H502.685L504.417 211.912H504.541L506.273 217.995H507.469L509.882 210.077H508.603L506.892 216.118H506.809L505.139 210.077H503.84L502.149 216.139H502.067L500.355 210.077H499.077L501.489 217.995Z" fill="black"/>
<rect x="428" y="186.85" width="99.6137" height="51.5286" rx="8.07265" stroke="#3B76F3" stroke-width="2"/>
<rect x="1066.96" y="1.76758" width="93.2628" height="51.5286" rx="8.07265" fill="#F9F9F9"/>
<path d="M1085.66 32.9128H1089.48C1091.97 32.9128 1093 31.6963 1093 30.1086C1093 28.4384 1091.85 27.5311 1090.88 27.4693V27.3662C1091.79 27.1187 1092.59 26.5207 1092.59 25.1598C1092.59 23.6134 1091.56 22.3556 1089.35 22.3556H1085.66V32.9128ZM1086.94 31.7788V28.1085H1089.54C1090.92 28.1085 1091.79 29.0363 1091.79 30.1086C1091.79 31.0365 1091.15 31.7788 1089.48 31.7788H1086.94ZM1086.94 26.995V23.4897H1089.35C1090.76 23.4897 1091.38 24.232 1091.38 25.1598C1091.38 26.2733 1090.47 26.995 1089.31 26.995H1086.94ZM1098.26 33.0778C1099.87 33.0778 1101.04 32.2736 1101.41 31.0777L1100.24 30.7478C1099.93 31.5726 1099.21 31.985 1098.26 31.985C1096.83 31.985 1095.85 31.0622 1095.79 29.3663H1101.54V28.8508C1101.54 25.9022 1099.79 24.8918 1098.14 24.8918C1095.99 24.8918 1094.57 26.5826 1094.57 29.0157C1094.57 31.4488 1095.97 33.0778 1098.26 33.0778ZM1095.79 28.3147C1095.87 27.0826 1096.74 25.9846 1098.14 25.9846C1099.46 25.9846 1100.3 26.9744 1100.3 28.3147H1095.79ZM1103.39 35.8821H1104.61V31.6963H1104.71C1104.98 32.1293 1105.49 33.0778 1107.02 33.0778C1109 33.0778 1110.38 31.4901 1110.38 28.9745C1110.38 26.4795 1109 24.8918 1107 24.8918C1105.45 24.8918 1104.98 25.8403 1104.71 26.2527H1104.56V24.9949H1103.39V35.8821ZM1104.59 28.9539C1104.59 27.1806 1105.37 25.9846 1106.85 25.9846C1108.4 25.9846 1109.16 27.2837 1109.16 28.9539C1109.16 30.6447 1108.38 31.985 1106.85 31.985C1105.39 31.985 1104.59 30.7478 1104.59 28.9539ZM1115.45 33.0778C1117.2 33.0778 1118.36 32.0056 1118.57 30.6034H1117.35C1117.12 31.4695 1116.4 31.985 1115.45 31.985C1114.01 31.985 1113.08 30.789 1113.08 28.9539C1113.08 27.16 1114.03 25.9846 1115.45 25.9846C1116.52 25.9846 1117.16 26.6445 1117.35 27.3662H1118.57C1118.36 25.8815 1117.1 24.8918 1115.43 24.8918C1113.29 24.8918 1111.86 26.5826 1111.86 28.9951C1111.86 31.3664 1113.22 33.0778 1115.45 33.0778ZM1119.72 26.129H1122.34V32.9128H1123.56V26.129H1126.15V24.9949H1119.72V26.129ZM1127.93 32.9128H1129.14V29.5725H1130.24L1132.84 32.9128H1134.4L1131.17 28.8095L1134.36 24.9949H1132.79L1129.95 28.4384H1129.14V24.9949H1127.93V32.9128ZM1138.05 33.0984C1139.44 33.0984 1140.16 32.3561 1140.41 31.8406H1140.47V32.9128H1141.68V27.6961C1141.68 25.1805 1139.77 24.8918 1138.76 24.8918C1137.56 24.8918 1136.2 25.3042 1135.58 26.7476L1136.74 27.16C1137 26.5826 1137.64 25.964 1138.8 25.964C1139.92 25.964 1140.47 26.5568 1140.47 27.5723V27.6136C1140.47 28.2012 1139.87 28.1497 1138.43 28.3353C1136.96 28.526 1135.35 28.8508 1135.35 30.6653C1135.35 32.2118 1136.55 33.0984 1138.05 33.0984ZM1138.24 32.0056C1137.27 32.0056 1136.57 31.5726 1136.57 30.7272C1136.57 29.7993 1137.42 29.5106 1138.36 29.3869C1138.88 29.325 1140.26 29.1807 1140.47 28.9332V30.0467C1140.47 31.0365 1139.68 32.0056 1138.24 32.0056Z" fill="black"/>
<rect x="1066.96" y="1.76758" width="93.2628" height="51.5286" rx="8.07265" stroke="#3B76F3" stroke-width="2"/>
<rect x="1066.96" y="94.3086" width="118.666" height="51.5286" rx="8.07265" fill="#F9F9F9"/>
<path d="M1085.44 114.897V125.454H1086.67L1092.43 117.165H1092.53V125.454H1093.81V114.897H1092.57L1086.8 123.206H1086.69V114.897H1085.44ZM1097.42 117.536H1096.2V125.454H1097.42V122.072H1101.21V125.454H1102.43V117.536H1101.21V120.938H1097.42V117.536ZM1103.57 118.67H1106.19V125.454H1107.41V118.67H1110.01V117.536H1103.57V118.67ZM1114.69 125.619C1116.3 125.619 1117.47 124.815 1117.84 123.619L1116.67 123.289C1116.36 124.114 1115.64 124.526 1114.69 124.526C1113.26 124.526 1112.28 123.603 1112.22 121.907H1117.97V121.392C1117.97 118.443 1116.22 117.433 1114.57 117.433C1112.42 117.433 1111 119.124 1111 121.557C1111 123.99 1112.4 125.619 1114.69 125.619ZM1112.22 120.856C1112.3 119.624 1113.17 118.526 1114.57 118.526C1115.89 118.526 1116.73 119.515 1116.73 120.856H1112.22ZM1124.71 117.536H1119.82V125.454H1121.04V118.67H1124.71V117.536ZM1126.48 128.423H1127.7V124.237H1127.8C1128.07 124.67 1128.59 125.619 1130.11 125.619C1132.09 125.619 1133.47 124.031 1133.47 121.516C1133.47 119.021 1132.09 117.433 1130.09 117.433C1128.54 117.433 1128.07 118.381 1127.8 118.794H1127.66V117.536H1126.48V128.423ZM1127.68 121.495C1127.68 119.722 1128.46 118.526 1129.95 118.526C1131.49 118.526 1132.26 119.825 1132.26 121.495C1132.26 123.186 1131.47 124.526 1129.95 124.526C1128.48 124.526 1127.68 123.289 1127.68 121.495ZM1137.66 125.639C1139.04 125.639 1139.76 124.897 1140.01 124.382H1140.07V125.454H1141.29V120.237C1141.29 117.721 1139.37 117.433 1138.36 117.433C1137.16 117.433 1135.8 117.845 1135.18 119.289L1136.34 119.701C1136.61 119.124 1137.24 118.505 1138.4 118.505C1139.52 118.505 1140.07 119.098 1140.07 120.113V120.155C1140.07 120.742 1139.47 120.691 1138.03 120.876C1136.56 121.067 1134.96 121.392 1134.96 123.206C1134.96 124.753 1136.15 125.639 1137.66 125.639ZM1137.84 124.547C1136.87 124.547 1136.17 124.114 1136.17 123.268C1136.17 122.34 1137.02 122.052 1137.97 121.928C1138.48 121.866 1139.86 121.722 1140.07 121.474V122.588C1140.07 123.577 1139.29 124.547 1137.84 124.547ZM1149.73 117.536H1148.52V124.32H1144.72V117.536H1143.51V125.454H1149.63V128.011H1150.85V124.32H1149.73V117.536ZM1153.94 123.66V117.536H1152.72V125.454H1154.14L1157.94 119.33V125.454H1159.16V117.536H1157.75L1153.94 123.66ZM1166.15 125.454H1167.3V117.536H1164.04C1162.34 117.536 1161.3 118.428 1161.3 119.887C1161.3 120.974 1161.85 121.747 1162.8 122.072L1160.87 125.454H1162.19L1164.02 122.237H1166.15V125.454ZM1166.15 121.103H1163.9C1163.04 121.103 1162.52 120.644 1162.52 119.887C1162.52 119.118 1163.09 118.649 1164.04 118.649H1166.15V121.103Z" fill="black"/>
<rect x="1066.96" y="94.3086" width="118.666" height="51.5286" rx="8.07265" stroke="#3B76F3" stroke-width="2"/>
<rect x="1066.96" y="186.85" width="91.4483" height="51.5286" rx="8.07265" fill="#F9F9F9"/>
<path d="M1091.84 217.995H1093.36L1088.95 212.077L1093.22 207.438H1091.69L1087.46 212.015H1086.91V207.438H1085.63V217.995H1086.91V213.149H1088.21L1091.84 217.995ZM1097.48 218.16C1099.63 218.16 1101.07 216.531 1101.07 214.077C1101.07 211.603 1099.63 209.974 1097.48 209.974C1095.34 209.974 1093.9 211.603 1093.9 214.077C1093.9 216.531 1095.34 218.16 1097.48 218.16ZM1097.48 217.067C1095.85 217.067 1095.11 215.665 1095.11 214.077C1095.11 212.489 1095.85 211.067 1097.48 211.067C1099.11 211.067 1099.85 212.489 1099.85 214.077C1099.85 215.665 1099.11 217.067 1097.48 217.067ZM1104.15 210.077H1102.93V217.995H1104.15V214.613H1107.94V217.995H1109.16V210.077H1107.94V213.479H1104.15V210.077ZM1110.3 211.211H1112.92V217.995H1114.14V211.211H1116.73V210.077H1110.3V211.211ZM1121.42 218.16C1123.02 218.16 1124.2 217.356 1124.57 216.16L1123.4 215.83C1123.09 216.655 1122.37 217.067 1121.42 217.067C1119.99 217.067 1119 216.144 1118.95 214.448H1124.7V213.933C1124.7 210.984 1122.94 209.974 1121.29 209.974C1119.15 209.974 1117.73 211.665 1117.73 214.098C1117.73 216.531 1119.13 218.16 1121.42 218.16ZM1118.95 213.397C1119.03 212.165 1119.9 211.067 1121.29 211.067C1122.61 211.067 1123.46 212.056 1123.46 213.397H1118.95ZM1127.76 210.077H1126.55V217.995H1127.76V214.613H1131.56V217.995H1132.77V210.077H1131.56V213.479H1127.76V210.077ZM1133.92 211.211H1136.54V217.995H1137.75V211.211H1140.35V210.077H1133.92V211.211Z" fill="black"/>
<rect x="1066.96" y="186.85" width="91.4483" height="51.5286" rx="8.07265" stroke="#3B76F3" stroke-width="2"/>
<path d="M157.44 27.8858C157.635 27.6905 157.635 27.3739 157.44 27.1787L154.258 23.9967C154.063 23.8014 153.746 23.8014 153.551 23.9967C153.356 24.192 153.356 24.5085 153.551 24.7038L156.379 27.5322L153.551 30.3607C153.356 30.5559 153.356 30.8725 153.551 31.0678C153.746 31.263 154.063 31.263 154.258 31.0678L157.44 27.8858ZM125.291 119.913H137.439V118.913H125.291V119.913ZM141.939 115.413V31.5322H140.939V115.413H141.939ZM145.439 28.0322H157.086V27.0322H145.439V28.0322ZM141.939 31.5322C141.939 29.5992 143.506 28.0322 145.439 28.0322V27.0322C142.953 27.0322 140.939 29.047 140.939 31.5322H141.939ZM137.439 119.913C139.924 119.913 141.939 117.898 141.939 115.413H140.939C140.939 117.346 139.372 118.913 137.439 118.913V119.913Z" fill="#B8B8B8"/>
<path d="M157.44 119.767C157.635 119.571 157.635 119.255 157.44 119.06L154.258 115.878C154.063 115.682 153.746 115.682 153.551 115.878C153.356 116.073 153.356 116.389 153.551 116.585L156.379 119.413L153.551 122.242C153.356 122.437 153.356 122.753 153.551 122.949C153.746 123.144 154.063 123.144 154.258 122.949L157.44 119.767ZM125.291 119.913H157.086V118.913H125.291V119.913Z" fill="#B8B8B8"/>
<path d="M157.44 212.968C157.635 212.772 157.635 212.456 157.44 212.261L154.258 209.079C154.063 208.883 153.746 208.883 153.551 209.079C153.356 209.274 153.356 209.59 153.551 209.786L156.379 212.614L153.551 215.443C153.356 215.638 153.356 215.954 153.551 216.15C153.746 216.345 154.063 216.345 154.258 216.15L157.44 212.968ZM125.291 119.913H137.439V118.913H125.291V119.913ZM140.939 123.413V208.614H141.939V123.413H140.939ZM145.439 213.114H157.086V212.114H145.439V213.114ZM140.939 208.614C140.939 211.099 142.953 213.114 145.439 213.114V212.114C143.506 212.114 141.939 210.547 141.939 208.614H140.939ZM137.439 119.913C139.372 119.913 140.939 121.48 140.939 123.413H141.939C141.939 120.928 139.924 118.913 137.439 118.913V119.913Z" fill="#B8B8B8"/>
<path d="M336.792 89.6215C336.987 89.8167 337.304 89.8167 337.499 89.6215L340.681 86.4395C340.876 86.2442 340.876 85.9276 340.681 85.7324C340.486 85.5371 340.169 85.5371 339.974 85.7324L337.146 88.5608L334.317 85.7324C334.122 85.5371 333.805 85.5371 333.61 85.7324C333.415 85.9276 333.415 86.2442 333.61 86.4395L336.792 89.6215ZM313.007 28.0322H333.146V27.0322H313.007V28.0322ZM336.646 31.5322V89.2679H337.646V31.5322H336.646ZM333.146 28.0322C335.079 28.0322 336.646 29.5992 336.646 31.5322H337.646C337.646 29.0469 335.631 27.0322 333.146 27.0322V28.0322Z" fill="#B8B8B8"/>
<path d="M275.853 120.427C276.049 120.232 276.049 119.915 275.853 119.72L272.671 116.538C272.476 116.342 272.16 116.342 271.964 116.538C271.769 116.733 271.769 117.05 271.964 117.245L274.793 120.073L271.964 122.902C271.769 123.097 271.769 123.414 271.964 123.609C272.16 123.804 272.476 123.804 272.671 123.609L275.853 120.427ZM234.074 120.573H275.5V119.573H234.074V120.573Z" fill="#B8B8B8"/>
<path d="M337.499 149.205C337.304 149.01 336.987 149.01 336.792 149.205L333.61 152.387C333.415 152.582 333.415 152.899 333.61 153.094C333.805 153.289 334.122 153.289 334.317 153.094L337.146 150.266L339.974 153.094C340.169 153.289 340.486 153.289 340.681 153.094C340.876 152.899 340.876 152.582 340.681 152.387L337.499 149.205ZM266.736 213.114H333.146V212.114H266.736V213.114ZM337.646 208.614V149.559H336.646V208.614H337.646ZM333.146 213.114C335.631 213.114 337.646 211.1 337.646 208.614H336.646C336.646 210.547 335.079 212.114 333.146 212.114V213.114Z" fill="#B8B8B8"/>
<path d="M423.854 119.767C424.049 119.571 424.049 119.255 423.854 119.06L420.672 115.878C420.476 115.682 420.16 115.682 419.964 115.878C419.769 116.073 419.769 116.389 419.964 116.585L422.793 119.413L419.964 122.242C419.769 122.437 419.769 122.753 419.964 122.949C420.16 123.144 420.476 123.144 420.672 122.949L423.854 119.767ZM395.5 119.913L423.5 119.913V118.913L395.5 118.913V119.913Z" fill="#B8B8B8"/>
<path d="M423.854 27.8858C424.049 27.6905 424.049 27.3739 423.854 27.1787L420.672 23.9967C420.476 23.8014 420.16 23.8014 419.964 23.9967C419.769 24.192 419.769 24.5085 419.964 24.7038L422.793 27.5322L419.964 30.3607C419.769 30.5559 419.769 30.8725 419.964 31.0678C420.16 31.263 420.476 31.263 420.672 31.0678L423.854 27.8858ZM395 119.913H405.404V118.913H395V119.913ZM409.904 115.413V31.5322H408.904V115.413H409.904ZM413.404 28.0322H423.5V27.0322H413.404V28.0322ZM409.904 31.5322C409.904 29.5992 411.471 28.0322 413.404 28.0322V27.0322C410.918 27.0322 408.904 29.0469 408.904 31.5322H409.904ZM405.404 119.913C407.889 119.913 409.904 117.899 409.904 115.413H408.904C408.904 117.346 407.337 118.913 405.404 118.913V119.913Z" fill="#B8B8B8"/>
<path d="M423.854 212.967C424.049 212.772 424.049 212.456 423.854 212.26L420.672 209.078C420.476 208.883 420.16 208.883 419.964 209.078C419.769 209.274 419.769 209.59 419.964 209.786L422.793 212.614L419.964 215.442C419.769 215.638 419.769 215.954 419.964 216.149C420.16 216.345 420.476 216.345 420.672 216.149L423.854 212.967ZM395 119.913H405.404V118.913H395V119.913ZM408.904 123.413V208.614H409.904V123.413H408.904ZM413.404 213.114H423.5V212.114H413.404V213.114ZM408.904 208.614C408.904 211.099 410.918 213.114 413.404 213.114V212.114C411.471 212.114 409.904 210.547 409.904 208.614H408.904ZM405.404 119.913C407.337 119.913 408.904 121.48 408.904 123.413H409.904C409.904 120.928 407.889 118.913 405.404 118.913V119.913Z" fill="#B8B8B8"/>
<path d="M585.354 64.8856C585.549 64.6903 585.549 64.3737 585.354 64.1785L582.172 60.9965C581.976 60.8012 581.66 60.8012 581.464 60.9965C581.269 61.1918 581.269 61.5083 581.464 61.7036L584.293 64.532L581.464 67.3605C581.269 67.5557 581.269 67.8723 581.464 68.0676C581.66 68.2628 581.976 68.2628 582.172 68.0676L585.354 64.8856ZM558 28.0322H567.641V27.0322H558V28.0322ZM571.141 31.5322V60.532H572.141V31.5322H571.141ZM575.641 65.032H585V64.032H575.641V65.032ZM571.141 60.532C571.141 63.0173 573.156 65.032 575.641 65.032V64.032C573.708 64.032 572.141 62.465 572.141 60.532H571.141ZM567.641 28.0322C569.574 28.0322 571.141 29.5992 571.141 31.5322H572.141C572.141 29.0469 570.126 27.0322 567.641 27.0322V28.0322Z" fill="#B8B8B8"/>
<path d="M585.354 64.414C585.549 64.6093 585.549 64.9259 585.354 65.1211L582.172 68.3031C581.976 68.4984 581.66 68.4984 581.464 68.3031C581.269 68.1078 581.269 67.7913 581.464 67.596L584.293 64.7676L581.464 61.9392C581.269 61.7439 581.269 61.4273 581.464 61.232C581.66 61.0368 581.976 61.0368 582.172 61.232L585.354 64.414ZM502 119.268H568V120.268H502V119.268ZM571.5 115.768V68.7676H572.5V115.768H571.5ZM576 64.2676H585V65.2676H576V64.2676ZM571.5 68.7676C571.5 66.2823 573.515 64.2676 576 64.2676V65.2676C574.067 65.2676 572.5 66.8346 572.5 68.7676H571.5ZM568 119.268C569.933 119.268 571.5 117.701 571.5 115.768H572.5C572.5 118.253 570.485 120.268 568 120.268V119.268Z" fill="#B8B8B8"/>
<path d="M584.761 166.046C584.956 165.851 584.956 165.534 584.761 165.339L581.579 162.157C581.384 161.962 581.067 161.962 580.872 162.157C580.677 162.352 580.677 162.669 580.872 162.864L583.7 165.692L580.872 168.521C580.677 168.716 580.677 169.033 580.872 169.228C581.067 169.423 581.384 169.423 581.579 169.228L584.761 166.046ZM528.613 213.114H569V212.114H528.613V213.114ZM573.5 208.614V169.692H572.5V208.614H573.5ZM577 166.192H584.407V165.192H577V166.192ZM573.5 169.692C573.5 167.759 575.067 166.192 577 166.192V165.192C574.514 165.192 572.5 167.207 572.5 169.692H573.5ZM569 213.114C571.485 213.114 573.5 211.1 573.5 208.614H572.5C572.5 210.547 570.933 212.114 569 212.114V213.114Z" fill="#B8B8B8"/>
<path d="M756.234 119.767C756.43 119.571 756.43 119.255 756.234 119.06L753.052 115.878C752.857 115.682 752.541 115.682 752.345 115.878C752.15 116.073 752.15 116.39 752.345 116.585L755.174 119.413L752.345 122.242C752.15 122.437 752.15 122.753 752.345 122.949C752.541 123.144 752.857 123.144 753.052 122.949L756.234 119.767ZM734.5 64.5322V65.0322V64.5322ZM692.243 65.0322H734.5V64.0322H692.243V65.0322ZM738 68.5322V115.413H739V68.5322H738ZM742.5 119.913H755.881V118.913H742.5V119.913ZM738 115.413C738 117.898 740.015 119.913 742.5 119.913V118.913C740.567 118.913 739 117.346 739 115.413H738ZM734.5 65.0322C736.433 65.0322 738 66.5992 738 68.5322H739C739 66.0469 736.985 64.0322 734.5 64.0322V65.0322Z" fill="#B8B8B8"/>
<path d="M756.234 119.767C756.429 119.571 756.429 119.255 756.234 119.06L753.052 115.878C752.857 115.682 752.54 115.682 752.345 115.878C752.15 116.073 752.15 116.389 752.345 116.585L755.173 119.413L752.345 122.242C752.15 122.437 752.15 122.753 752.345 122.949C752.54 123.144 752.857 123.144 753.052 122.949L756.234 119.767ZM721.275 166.192H734.828V165.192H721.275V166.192ZM739.328 161.692V123.413H738.328V161.692H739.328ZM742.828 119.913H755.881V118.913H742.828V119.913ZM739.328 123.413C739.328 121.48 740.895 119.913 742.828 119.913V118.913C740.343 118.913 738.328 120.928 738.328 123.413H739.328ZM734.828 166.192C737.313 166.192 739.328 164.177 739.328 161.692H738.328C738.328 163.625 736.761 165.192 734.828 165.192V166.192Z" fill="#B8B8B8"/>
<path d="M906.025 119.767C906.221 119.571 906.221 119.255 906.025 119.06L902.843 115.878C902.648 115.682 902.332 115.682 902.136 115.878C901.941 116.073 901.941 116.389 902.136 116.585L904.965 119.413L902.136 122.242C901.941 122.437 901.941 122.753 902.136 122.949C902.332 123.144 902.648 123.144 902.843 122.949L906.025 119.767ZM892.672 119.913H905.672V118.913H892.672V119.913Z" fill="#B8B8B8"/>
<path d="M1061.22 27.8858C1061.42 27.6905 1061.42 27.3739 1061.22 27.1787L1058.04 23.9967C1057.84 23.8014 1057.53 23.8014 1057.33 23.9967C1057.14 24.192 1057.14 24.5085 1057.33 24.7038L1060.16 27.5322L1057.33 30.3607C1057.14 30.5559 1057.14 30.8725 1057.33 31.0678C1057.53 31.263 1057.84 31.263 1058.04 31.0678L1061.22 27.8858ZM1031.29 120.413H1042.29V119.413H1031.29V120.413ZM1046.79 115.913V31.5322H1045.79V115.913H1046.79ZM1050.29 28.0322H1060.87V27.0322H1050.29V28.0322ZM1046.79 31.5322C1046.79 29.5992 1048.36 28.0322 1050.29 28.0322V27.0322C1047.81 27.0322 1045.79 29.047 1045.79 31.5322H1046.79ZM1042.29 120.413C1044.78 120.413 1046.79 118.398 1046.79 115.913H1045.79C1045.79 117.846 1044.23 119.413 1042.29 119.413V120.413Z" fill="#B8B8B8"/>
<path d="M1061.64 120.267C1061.84 120.071 1061.84 119.755 1061.64 119.56L1058.46 116.378C1058.27 116.182 1057.95 116.182 1057.75 116.378C1057.56 116.573 1057.56 116.889 1057.75 117.085L1060.58 119.913L1057.75 122.742C1057.56 122.937 1057.56 123.253 1057.75 123.449C1057.95 123.644 1058.27 123.644 1058.46 123.449L1061.64 120.267ZM1031.29 120.413H1061.29V119.413H1031.29V120.413Z" fill="#B8B8B8"/>
<path d="M1061.22 212.968C1061.42 212.772 1061.42 212.456 1061.22 212.261L1058.04 209.079C1057.84 208.883 1057.53 208.883 1057.33 209.079C1057.14 209.274 1057.14 209.59 1057.33 209.786L1060.16 212.614L1057.33 215.443C1057.14 215.638 1057.14 215.954 1057.33 216.15C1057.53 216.345 1057.84 216.345 1058.04 216.15L1061.22 212.968ZM1031.29 120.413H1042.29V119.413H1031.29V120.413ZM1045.79 123.913V208.614H1046.79V123.913H1045.79ZM1050.29 213.114H1060.87V212.114H1050.29V213.114ZM1045.79 208.614C1045.79 211.099 1047.81 213.114 1050.29 213.114V212.114C1048.36 212.114 1046.79 210.547 1046.79 208.614H1045.79ZM1042.29 120.413C1044.23 120.413 1045.79 121.98 1045.79 123.913H1046.79C1046.79 121.428 1044.78 119.413 1042.29 119.413V120.413Z" fill="#B8B8B8"/>
<path d="M1212.85 120.267C1213.05 120.072 1213.05 119.755 1212.85 119.56L1209.67 116.378C1209.48 116.182 1209.16 116.182 1208.96 116.378C1208.77 116.573 1208.77 116.89 1208.96 117.085L1211.79 119.913L1208.96 122.742C1208.77 122.937 1208.77 123.253 1208.96 123.449C1209.16 123.644 1209.48 123.644 1209.67 123.449L1212.85 120.267ZM1161.22 28.0322H1187.97V27.0322H1161.22V28.0322ZM1191.47 31.5322V115.913H1192.47V31.5322H1191.47ZM1195.97 120.413H1212.5V119.413H1195.97V120.413ZM1191.47 115.913C1191.47 118.398 1193.49 120.413 1195.97 120.413V119.413C1194.04 119.413 1192.47 117.846 1192.47 115.913H1191.47ZM1187.97 28.0322C1189.91 28.0322 1191.47 29.5992 1191.47 31.5322H1192.47C1192.47 29.0469 1190.46 27.0322 1187.97 27.0322V28.0322Z" fill="#B8B8B8"/>
<path d="M1212.98 120.427C1213.17 120.232 1213.17 119.915 1212.98 119.72L1209.79 116.538C1209.6 116.342 1209.28 116.342 1209.09 116.538C1208.89 116.733 1208.89 117.05 1209.09 117.245L1211.92 120.073L1209.09 122.902C1208.89 123.097 1208.89 123.414 1209.09 123.609C1209.28 123.804 1209.6 123.804 1209.79 123.609L1212.98 120.427ZM1186.62 120.573H1212.62V119.573H1186.62V120.573Z" fill="#B8B8B8"/>
<path d="M1212.85 120.267C1213.05 120.071 1213.05 119.755 1212.85 119.56L1209.67 116.378C1209.48 116.182 1209.16 116.182 1208.96 116.378C1208.77 116.573 1208.77 116.889 1208.96 117.085L1211.79 119.913L1208.96 122.742C1208.77 122.937 1208.77 123.253 1208.96 123.449C1209.16 123.644 1209.48 123.644 1209.67 123.449L1212.85 120.267ZM1159.4 213.114H1187.07V212.114H1159.4V213.114ZM1191.57 208.614V123.913H1190.57V208.614H1191.57ZM1195.07 120.413H1212.5V119.413H1195.07V120.413ZM1191.57 123.913C1191.57 121.98 1193.13 120.413 1195.07 120.413V119.413C1192.58 119.413 1190.57 121.428 1190.57 123.913H1191.57ZM1187.07 213.114C1189.55 213.114 1191.57 211.099 1191.57 208.614H1190.57C1190.57 210.547 1189 212.114 1187.07 212.114V213.114Z" fill="#B8B8B8"/>
<rect y="92" width="125.291" height="53.2906" rx="9.07265" fill="#3B76F3"/>
<path d="M23.1174 124.29C25.4886 124.29 27.1846 122.985 27.1794 121.181C27.1846 119.867 26.3495 118.928 24.7979 118.733V118.65C25.9783 118.439 26.7928 117.604 26.7877 116.418C26.7928 114.753 25.334 113.444 23.1483 113.444C20.9832 113.444 19.3543 114.712 19.3233 116.537H21.4626C21.4884 115.732 22.2256 115.212 23.138 115.212C24.0401 115.212 24.6432 115.758 24.6381 116.552C24.6432 117.382 23.937 117.944 22.9215 117.944H21.9369V119.583H22.9215C24.1174 119.583 24.8649 120.181 24.8597 121.032C24.8649 121.872 24.1432 122.449 23.1225 122.449C22.1379 122.449 21.4008 121.934 21.3595 121.161H19.112C19.1481 123.006 20.7977 124.29 23.1174 124.29ZM30.9026 116.227H28.8045V124.145H30.9026V121.037H33.6089V124.145H35.6915V116.227H33.6089V119.31H30.9026V116.227ZM39.653 124.295C40.8232 124.295 41.581 123.784 41.9676 123.047H42.0295V124.145H44.1121V118.805C44.1121 116.918 42.514 116.124 40.751 116.124C38.854 116.124 37.6065 117.031 37.3024 118.475L39.3334 118.64C39.4829 118.114 39.952 117.727 40.7407 117.727C41.4882 117.727 41.9161 118.104 41.9161 118.753V118.784C41.9161 119.294 41.3748 119.362 39.9984 119.496C38.4313 119.64 37.024 120.166 37.024 121.934C37.024 123.501 38.1427 124.295 39.653 124.295ZM40.2819 122.779C39.6067 122.779 39.1221 122.465 39.1221 121.862C39.1221 121.243 39.6324 120.939 40.4057 120.831C40.8851 120.764 41.6686 120.65 41.9315 120.475V121.315C41.9315 122.145 41.2459 122.779 40.2819 122.779ZM45.8158 124.145H48.0117V121.336H48.8314L50.7851 124.145H53.3935L50.5634 120.155L53.3625 116.227H50.7851L48.6303 119.3H48.0117V116.227H45.8158V124.145ZM57.5728 124.3C59.975 124.3 61.4699 122.655 61.4699 120.217C61.4699 117.763 59.975 116.124 57.5728 116.124C55.1706 116.124 53.6757 117.763 53.6757 120.217C53.6757 122.655 55.1706 124.3 57.5728 124.3ZM57.5831 122.599C56.4748 122.599 55.9078 121.583 55.9078 120.202C55.9078 118.82 56.4748 117.8 57.5831 117.8C58.6708 117.8 59.2379 118.82 59.2379 120.202C59.2379 121.583 58.6708 122.599 57.5831 122.599ZM67.5785 121.717L65.4959 116.227H62.8979V124.145H64.9959V119.284L66.8465 124.145H68.3054L70.2694 119.109V124.145H72.3417V116.227H69.723L67.5785 121.717ZM77.6177 124.3C79.7261 124.3 81.0509 123.063 81.154 121.243H79.0817C78.9528 122.088 78.3961 122.563 77.6435 122.563C76.6177 122.563 75.9527 121.702 75.9527 120.186C75.9527 118.691 76.6228 117.836 77.6435 117.836C78.4477 117.836 78.9631 118.367 79.0817 119.155H81.154C81.0612 117.325 79.6745 116.124 77.6074 116.124C75.2052 116.124 73.7206 117.789 73.7206 120.217C73.7206 122.625 75.1794 124.3 77.6177 124.3ZM82.0342 117.954H84.5653V124.145H86.6581V117.954H89.2098V116.227H82.0342V117.954ZM90.5411 124.145H94.4382C96.4177 124.145 97.5208 123.336 97.5208 121.985C97.5208 120.944 96.6961 120.119 95.2733 120.016C96.4074 119.82 97.0827 119.222 97.0827 118.367C97.0827 116.995 95.8713 116.227 93.9176 116.227H90.5411V124.145ZM92.5876 122.501V120.774H94.4382C95.0465 120.774 95.4176 121.119 95.4176 121.681C95.4176 122.192 95.0465 122.501 94.4382 122.501H92.5876ZM92.5876 119.485V117.908H93.9176C94.598 117.908 95.0156 118.202 95.0156 118.686C95.0156 119.186 94.6186 119.485 93.9639 119.485H92.5876ZM102.482 124.3C104.885 124.3 106.38 122.655 106.38 120.217C106.38 117.763 104.885 116.124 102.482 116.124C100.08 116.124 98.5853 117.763 98.5853 120.217C98.5853 122.655 100.08 124.3 102.482 124.3ZM102.493 122.599C101.384 122.599 100.817 121.583 100.817 120.202C100.817 118.82 101.384 117.8 102.493 117.8C103.58 117.8 104.147 118.82 104.147 120.202C104.147 121.583 103.58 122.599 102.493 122.599Z" fill="white"/>
</svg>
