<svg width="342" height="1050" viewBox="0 0 342 1050" fill="none" xmlns="http://www.w3.org/2000/svg">
<path d="M95.3536 279.999C95.5488 279.804 95.5488 279.487 95.3536 279.292L92.1716 276.11C91.9763 275.915 91.6597 275.915 91.4645 276.11C91.2692 276.305 91.2692 276.622 91.4645 276.817L94.2929 279.646L91.4645 282.474C91.2692 282.669 91.2692 282.986 91.4645 283.181C91.6597 283.376 91.9763 283.376 92.1716 283.181L95.3536 279.999ZM61.3857 228L61.3857 275.646L62.3857 275.646L62.3857 228L61.3857 228ZM65.8857 280.146L95 280.146L95 279.146L65.8857 279.146L65.8857 280.146ZM61.3857 275.646C61.3857 278.131 63.4004 280.146 65.8857 280.146L65.8857 279.146C63.9527 279.146 62.3857 277.579 62.3857 275.646L61.3857 275.646Z" fill="#B8B8B8"/>
<path d="M154.233 956.354C154.429 956.549 154.745 956.549 154.94 956.354L158.122 953.172C158.318 952.976 158.318 952.66 158.122 952.464C157.927 952.269 157.611 952.269 157.415 952.464L154.587 955.293L151.758 952.464C151.563 952.269 151.247 952.269 151.051 952.464C150.856 952.66 150.856 952.976 151.051 953.172L154.233 956.354ZM154.087 912L154.087 956L155.087 956L155.087 912L154.087 912Z" fill="#B8B8B8"/>
<path d="M154.733 691.354C154.929 691.549 155.245 691.549 155.44 691.354L158.622 688.172C158.818 687.976 158.818 687.66 158.622 687.464C158.427 687.269 158.111 687.269 157.915 687.464L155.087 690.293L152.258 687.464C152.063 687.269 151.747 687.269 151.551 687.464C151.356 687.66 151.356 687.976 151.551 688.172L154.733 691.354ZM154.587 665L154.587 691L155.587 691L155.587 665L154.587 665Z" fill="#B8B8B8"/>
<rect x="8" y="496" width="131.368" height="68.7667" rx="8.07265" fill="#F9F9F9"/>
<path d="M34.4347 516.588H26.558V527.145H27.8364V517.722H33.1562V527.145H34.4347V516.588ZM36.8485 530.114H38.065V525.929H38.1681C38.4362 526.362 38.9517 527.31 40.4775 527.31C42.457 527.31 43.8385 525.723 43.8385 523.207C43.8385 520.712 42.457 519.124 40.4569 519.124C38.9104 519.124 38.4362 520.073 38.1681 520.485H38.0238V519.227H36.8485V530.114ZM38.0444 523.186C38.0444 521.413 38.8279 520.217 40.3126 520.217C41.859 520.217 42.622 521.516 42.622 523.186C42.622 524.877 41.8384 526.217 40.3126 526.217C38.8486 526.217 38.0444 524.98 38.0444 523.186ZM49.0141 527.31C50.6224 527.31 51.7977 526.506 52.1689 525.31L50.9935 524.98C50.6843 525.805 49.9677 526.217 49.0141 526.217C47.5861 526.217 46.6016 525.295 46.5449 523.599H52.2926V523.083C52.2926 520.135 50.5399 519.124 48.8903 519.124C46.7459 519.124 45.3231 520.815 45.3231 523.248C45.3231 525.681 46.7253 527.31 49.0141 527.31ZM46.5449 522.547C46.6273 521.315 47.4985 520.217 48.8903 520.217C50.21 520.217 51.0554 521.207 51.0554 522.547H46.5449ZM53.6483 525.125C53.6896 526.424 54.9319 527.31 56.6176 527.31C58.3496 527.31 59.6074 526.382 59.6074 524.939C59.6074 523.949 59.0146 523.145 58.1228 523.083V523.001C58.8754 522.769 59.4425 522.222 59.4425 521.331C59.4425 520.078 58.3702 519.124 56.7 519.124C55.0505 519.124 53.8751 520.031 53.8339 521.31H55.1123C55.1484 520.655 55.834 520.196 56.7619 520.196C57.6846 520.196 58.2053 520.666 58.2053 521.372C58.2053 522.032 57.7516 522.526 56.7825 522.526H55.4216V523.619H56.7825C57.7516 523.619 58.3702 524.15 58.3702 524.939C58.3702 525.841 57.5712 526.217 56.5969 526.217C55.6433 526.217 55.0041 525.841 54.9474 525.125H53.6483ZM64.636 527.31C66.2444 527.31 67.4197 526.506 67.7908 525.31L66.6155 524.98C66.3062 525.805 65.5897 526.217 64.636 526.217C63.2081 526.217 62.2235 525.295 62.1668 523.599H67.9146V523.083C67.9146 520.135 66.1619 519.124 64.5123 519.124C62.3679 519.124 60.9451 520.815 60.9451 523.248C60.9451 525.681 62.3472 527.31 64.636 527.31ZM62.1668 522.547C62.2493 521.315 63.1205 520.217 64.5123 520.217C65.832 520.217 66.6774 521.207 66.6774 522.547H62.1668ZM70.9817 519.227H69.7652V527.145H70.9817V523.764H74.7758V527.145H75.9923V519.227H74.7758V522.63H70.9817V519.227ZM77.1367 520.361H79.7554V527.145H80.972V520.361H83.57V519.227H77.1367V520.361ZM87.2635 527.331C88.6451 527.331 89.3667 526.589 89.6142 526.073H89.676V527.145H90.8926V521.928C90.8926 519.413 88.975 519.124 87.9646 519.124C86.7687 519.124 85.4078 519.537 84.7892 520.98L85.9439 521.392C86.2119 520.815 86.846 520.196 88.0058 520.196C89.1245 520.196 89.676 520.789 89.676 521.805V521.846C89.676 522.434 89.0781 522.382 87.6347 522.568C86.1655 522.758 84.5624 523.083 84.5624 524.898C84.5624 526.444 85.7583 527.331 87.2635 527.331ZM87.4491 526.238C86.48 526.238 85.7789 525.805 85.7789 524.96C85.7789 524.032 86.6243 523.743 87.5728 523.619C88.0883 523.557 89.4698 523.413 89.676 523.166V524.279C89.676 525.269 88.8925 526.238 87.4491 526.238ZM99.3402 519.227H98.1237V526.011H94.3296V519.227H93.1131V527.145H99.2371V529.702H100.454V526.011H99.3402V519.227ZM103.544 525.351V519.227H102.327V527.145H103.75L107.544 521.021V527.145H108.761V519.227H107.359L103.544 525.351ZM115.752 527.145H116.907V519.227H113.649C111.943 519.227 110.907 520.119 110.907 521.578C110.907 522.666 111.453 523.439 112.407 523.764L110.474 527.145H111.793L113.628 523.929H115.752V527.145ZM115.752 522.795H113.505C112.644 522.795 112.123 522.336 112.123 521.578C112.123 520.81 112.7 520.341 113.649 520.341H115.752V522.795ZM40.1502 544.31C41.9029 544.31 43.0576 543.238 43.2637 541.836H42.0472C41.8204 542.702 41.0987 543.217 40.1502 543.217C38.7068 543.217 37.7789 542.021 37.7789 540.186C37.7789 538.392 38.7274 537.217 40.1502 537.217C41.2224 537.217 41.8616 537.877 42.0472 538.599H43.2637C43.0576 537.114 41.7998 536.124 40.1296 536.124C37.9851 536.124 36.5624 537.815 36.5624 540.228C36.5624 542.599 37.9233 544.31 40.1502 544.31ZM44.4185 537.361H47.0371V544.145H48.2537V537.361H50.8518V536.227H44.4185V537.361ZM52.6264 547.114H53.8429V542.929H53.946C54.2141 543.362 54.7296 544.31 56.2554 544.31C58.2349 544.31 59.6164 542.723 59.6164 540.207C59.6164 537.712 58.2349 536.124 56.2348 536.124C54.6883 536.124 54.2141 537.073 53.946 537.485H53.8017V536.227H52.6264V547.114ZM53.8223 540.186C53.8223 538.413 54.6059 537.217 56.0905 537.217C57.6369 537.217 58.3999 538.516 58.3999 540.186C58.3999 541.877 57.6163 543.217 56.0905 543.217C54.6265 543.217 53.8223 541.98 53.8223 540.186ZM61.9722 547.114C63.0702 547.114 63.8435 546.532 64.3022 545.3L67.6736 536.248L66.3436 536.227L64.1579 542.537H64.0754L61.8897 536.227H60.5701L63.4981 544.187L63.2713 544.805C62.8279 546.011 62.2815 546.125 61.3949 545.898L61.0856 546.97C61.2093 547.032 61.5598 547.114 61.9722 547.114ZM69.2832 544.145H70.4997V540.805H71.5926L74.1907 544.145H75.7578L72.5205 540.042L75.7165 536.227H74.1494L71.3039 539.671H70.4997V536.227H69.2832V544.145ZM76.6264 537.361H79.2451V544.145H80.4616V537.361H83.0597V536.227H76.6264V537.361ZM85.6178 547.114C86.7158 547.114 87.4891 546.532 87.9478 545.3L91.3192 536.248L89.9892 536.227L87.8035 542.537H87.721L85.5353 536.227H84.2157L87.1437 544.187L86.9169 544.805C86.4735 546.011 85.9271 546.125 85.0405 545.898L84.7312 546.97C84.8549 547.032 85.2054 547.114 85.6178 547.114ZM92.9288 547.114H94.1453V542.929H94.2484C94.5165 543.362 95.032 544.31 96.5578 544.31C98.5373 544.31 99.9189 542.723 99.9189 540.207C99.9189 537.712 98.5373 536.124 96.5372 536.124C94.9908 536.124 94.5165 537.073 94.2484 537.485H94.1041V536.227H92.9288V547.114ZM94.1247 540.186C94.1247 538.413 94.9083 537.217 96.3929 537.217C97.9394 537.217 98.7023 538.516 98.7023 540.186C98.7023 541.877 97.9187 543.217 96.3929 543.217C94.9289 543.217 94.1247 541.98 94.1247 540.186ZM102.991 539.093V536.227H101.775V544.145H105.094C106.95 544.145 107.961 543.011 107.961 541.588C107.961 540.145 106.95 539.093 105.094 539.093H102.991ZM109.218 544.145H110.435V536.227H109.218V544.145ZM102.991 540.228H105.094C106.058 540.228 106.744 540.815 106.744 541.65C106.744 542.449 106.058 543.011 105.094 543.011H102.991V540.228Z" fill="black"/>
<rect x="8" y="496" width="131.368" height="68.7667" rx="8.07265" stroke="#3B76F3" stroke-width="2"/>
<rect x="96.9419" y="253" width="116.291" height="53.2906" rx="9.07265" fill="#3B76F3"/>
<path d="M118.302 285.145L119.085 282.738H122.895L123.678 285.145H126.07L122.431 274.588H119.555L115.91 285.145H118.302ZM119.653 280.996L120.952 277H121.034L122.333 280.996H119.653ZM129.398 277.227H127.3V285.145H129.398V282.037H132.104V285.145H134.187V277.227H132.104V280.31H129.398V277.227ZM138.148 285.295C139.319 285.295 140.076 284.784 140.463 284.047H140.525V285.145H142.607V279.805C142.607 277.918 141.009 277.124 139.246 277.124C137.349 277.124 136.102 278.031 135.798 279.475L137.829 279.64C137.978 279.114 138.447 278.727 139.236 278.727C139.983 278.727 140.411 279.104 140.411 279.753V279.784C140.411 280.294 139.87 280.362 138.494 280.496C136.927 280.64 135.519 281.166 135.519 282.934C135.519 284.501 136.638 285.295 138.148 285.295ZM138.777 283.779C138.102 283.779 137.617 283.465 137.617 282.862C137.617 282.243 138.128 281.939 138.901 281.831C139.38 281.764 140.164 281.65 140.427 281.475V282.315C140.427 283.145 139.741 283.779 138.777 283.779ZM143.847 285.145H144.507C146.187 285.145 147.079 284.032 147.213 281.372L147.337 278.954H149.291V285.145H151.384V277.227H145.363L145.234 280.733C145.156 282.738 144.847 283.403 144.1 283.403H143.837L143.847 285.145ZM155.184 282.248V277.227H153.086V285.145H155.267L158.107 280.109V285.145H160.2V277.227H158.035L155.184 282.248ZM161.179 278.954H163.71V285.145H165.803V278.954H168.355V277.227H161.179V278.954ZM171.784 282.248V277.227H169.686V285.145H171.867L174.707 280.109V285.145H176.8V277.227H174.635L171.784 282.248ZM178.56 285.145H180.756V282.336H181.576L183.53 285.145H186.138L183.308 281.155L186.107 277.227H183.53L181.375 280.3H180.756V277.227H178.56V285.145ZM189.324 285.295C190.494 285.295 191.252 284.784 191.638 284.047H191.7V285.145H193.783V279.805C193.783 277.918 192.185 277.124 190.422 277.124C188.525 277.124 187.277 278.031 186.973 279.475L189.004 279.64C189.154 279.114 189.623 278.727 190.411 278.727C191.159 278.727 191.587 279.104 191.587 279.753V279.784C191.587 280.294 191.046 280.362 189.669 280.496C188.102 280.64 186.695 281.166 186.695 282.934C186.695 284.501 187.813 285.295 189.324 285.295ZM189.953 283.779C189.277 283.779 188.793 283.465 188.793 282.862C188.793 282.243 189.303 281.939 190.076 281.831C190.556 281.764 191.339 281.65 191.602 281.475V282.315C191.602 283.145 190.917 283.779 189.953 283.779Z" fill="white"/>
<rect x="88.4419" y="612" width="133.291" height="53.2906" rx="9.07265" fill="#3B76F3"/>
<path d="M114.136 633.588V640.253C114.136 641.46 113.291 642.331 111.992 642.331C110.698 642.331 109.847 641.46 109.847 640.253V633.588H107.615V640.444C107.615 642.753 109.357 644.295 111.992 644.295C114.616 644.295 116.368 642.753 116.368 640.444V633.588H114.136ZM120.437 633.588H118.205V644.145H120.437V633.588ZM126.83 633.093H124.938L121.536 645.733H123.428L126.83 633.093ZM134.45 633.588V640.253C134.45 641.46 133.605 642.331 132.306 642.331C131.012 642.331 130.161 641.46 130.161 640.253V633.588H127.929V640.444C127.929 642.753 129.672 644.295 132.306 644.295C134.93 644.295 136.682 642.753 136.682 640.444V633.588H134.45ZM140.612 633.588H138.081L141.323 638.867L138.019 644.145H140.576L142.741 640.542H142.823L144.988 644.145H147.555L144.261 638.867L147.483 633.588H144.963L142.823 637.186H142.741L140.612 633.588ZM151.596 646.465H153.74V644.145H158.581V646.465H160.673V642.403H159.447V636.227H153.374L153.168 638.815C153.044 640.372 152.895 641.965 152.204 642.403H151.596V646.465ZM154.39 642.403C154.859 641.666 155.039 640.506 155.158 638.815L155.24 637.918H157.374V642.403H154.39ZM164.051 641.248V636.227H161.953V644.145H164.134L166.974 639.109V644.145H169.067V636.227H166.902L164.051 641.248ZM170.42 641.903C170.477 643.449 171.874 644.3 173.776 644.3C175.724 644.3 177.121 643.424 177.121 641.949C177.121 640.846 176.333 640.155 175.364 640.093V640.011C176.348 639.774 176.931 639.197 176.931 638.356C176.931 636.975 175.735 636.124 173.797 636.124C172.023 636.124 170.647 637.021 170.631 638.444H172.75C172.766 637.98 173.24 637.655 173.894 637.655C174.544 637.655 174.951 638.016 174.951 638.547C174.951 639.026 174.57 639.377 173.889 639.377H172.75V640.815H173.889C174.575 640.815 175.034 641.207 175.034 641.779C175.034 642.408 174.482 642.748 173.766 642.748C173.059 642.748 172.57 642.429 172.549 641.903H170.42ZM180.726 644.295C181.896 644.295 182.654 643.784 183.041 643.047H183.102V644.145H185.185V638.805C185.185 636.918 183.587 636.124 181.824 636.124C179.927 636.124 178.68 637.031 178.375 638.475L180.406 638.64C180.556 638.114 181.025 637.727 181.814 637.727C182.561 637.727 182.989 638.104 182.989 638.753V638.784C182.989 639.294 182.448 639.362 181.071 639.496C179.504 639.64 178.097 640.166 178.097 641.934C178.097 643.501 179.216 644.295 180.726 644.295ZM181.355 642.779C180.68 642.779 180.195 642.465 180.195 641.862C180.195 641.243 180.705 640.939 181.479 640.831C181.958 640.764 182.742 640.65 183.004 640.475V641.315C183.004 642.145 182.319 642.779 181.355 642.779ZM188.987 641.248V636.227H186.889V644.145H189.069L191.91 639.109V644.145H194.003V636.227H191.837L188.987 641.248ZM191.461 633.464C191.461 633.949 191.172 634.387 190.44 634.387C189.688 634.387 189.409 633.939 189.415 633.464H187.894C187.894 634.712 188.879 635.547 190.44 635.547C192.002 635.547 192.987 634.712 192.992 633.464H191.461ZM197.861 636.227H195.763V644.145H197.861V641.037H200.567V644.145H202.65V636.227H200.567V639.31H197.861V636.227Z" fill="white"/>
<rect x="93.4419" y="694" width="122.291" height="70.2906" rx="9.07265" fill="#3B76F3"/>
<path d="M112.835 726.145H115.067V722.722H116.944C119.372 722.722 120.784 721.274 120.784 719.166C120.784 717.067 119.397 715.588 117 715.588H112.835V726.145ZM115.067 720.934V717.413H116.572C117.861 717.413 118.485 718.114 118.485 719.166C118.485 720.212 117.861 720.934 116.583 720.934H115.067ZM124.238 726.295C125.408 726.295 126.166 725.784 126.552 725.047H126.614V726.145H128.697V720.805C128.697 718.918 127.099 718.124 125.336 718.124C123.439 718.124 122.191 719.031 121.887 720.475L123.918 720.64C124.068 720.114 124.537 719.727 125.326 719.727C126.073 719.727 126.501 720.104 126.501 720.753V720.784C126.501 721.294 125.96 721.362 124.583 721.496C123.016 721.64 121.609 722.166 121.609 723.934C121.609 725.501 122.727 726.295 124.238 726.295ZM124.867 724.779C124.191 724.779 123.707 724.465 123.707 723.862C123.707 723.243 124.217 722.939 124.99 722.831C125.47 722.764 126.253 722.65 126.516 722.475V723.315C126.516 724.145 125.831 724.779 124.867 724.779ZM129.993 723.903C130.05 725.449 131.447 726.3 133.349 726.3C135.298 726.3 136.695 725.424 136.695 723.949C136.695 722.846 135.906 722.155 134.937 722.093V722.011C135.921 721.774 136.504 721.197 136.504 720.356C136.504 718.975 135.308 718.124 133.37 718.124C131.596 718.124 130.22 719.021 130.205 720.444H132.323C132.339 719.98 132.813 719.655 133.468 719.655C134.117 719.655 134.524 720.016 134.524 720.547C134.524 721.026 134.143 721.377 133.463 721.377H132.323V722.815H133.463C134.148 722.815 134.607 723.207 134.607 723.779C134.607 724.408 134.055 724.748 133.339 724.748C132.633 724.748 132.143 724.429 132.122 723.903H129.993ZM138.041 729.114H140.237V724.877H140.304C140.609 725.537 141.274 726.274 142.552 726.274C144.356 726.274 145.763 724.846 145.763 722.197C145.763 719.475 144.294 718.124 142.557 718.124C141.232 718.124 140.598 718.913 140.304 719.557H140.206V718.227H138.041V729.114ZM140.191 722.186C140.191 720.774 140.789 719.872 141.856 719.872C142.944 719.872 143.521 720.815 143.521 722.186C143.521 723.568 142.933 724.527 141.856 724.527C140.799 724.527 140.191 723.599 140.191 722.186ZM149.485 726.295C150.655 726.295 151.413 725.784 151.8 725.047H151.862V726.145H153.944V720.805C153.944 718.918 152.346 718.124 150.583 718.124C148.686 718.124 147.439 719.031 147.135 720.475L149.166 720.64C149.315 720.114 149.784 719.727 150.573 719.727C151.32 719.727 151.748 720.104 151.748 720.753V720.784C151.748 721.294 151.207 721.362 149.831 721.496C148.264 721.64 146.856 722.166 146.856 723.934C146.856 725.501 147.975 726.295 149.485 726.295ZM150.114 724.779C149.439 724.779 148.954 724.465 148.954 723.862C148.954 723.243 149.465 722.939 150.238 722.831C150.717 722.764 151.501 722.65 151.764 722.475V723.315C151.764 724.145 151.078 724.779 150.114 724.779ZM162.231 715.32C161.844 715.593 161.226 715.588 160.38 715.588C160.179 715.588 159.968 715.583 159.741 715.588C156.859 715.614 155.354 717.418 155.354 721.233V721.882C155.354 724.759 156.839 726.3 159.236 726.3C161.628 726.3 163.107 724.759 163.107 722.341C163.107 720.021 161.751 718.635 159.731 718.635C158.457 718.635 157.602 719.186 157.127 720.155H157.05C157.236 718.212 157.978 717.413 159.813 717.392C161.437 717.366 162.226 717.31 162.901 716.753L162.231 715.32ZM159.246 724.599C158.21 724.599 157.586 723.764 157.586 722.413C157.597 721.063 158.215 720.3 159.236 720.3C160.251 720.3 160.875 721.063 160.875 722.413C160.875 723.769 160.251 724.599 159.246 724.599ZM168.142 726.3C170.544 726.3 172.039 724.655 172.039 722.217C172.039 719.763 170.544 718.124 168.142 718.124C165.74 718.124 164.245 719.763 164.245 722.217C164.245 724.655 165.74 726.3 168.142 726.3ZM168.153 724.599C167.044 724.599 166.477 723.583 166.477 722.202C166.477 720.82 167.044 719.8 168.153 719.8C169.24 719.8 169.807 720.82 169.807 722.202C169.807 723.583 169.24 724.599 168.153 724.599ZM172.7 719.954H175.232V726.145H177.324V719.954H179.876V718.227H172.7V719.954ZM181.207 726.145H183.403V723.336H184.223L186.177 726.145H188.785L185.955 722.155L188.754 718.227H186.177L184.022 721.3H183.403V718.227H181.207V726.145ZM191.971 726.295C193.141 726.295 193.899 725.784 194.285 725.047H194.347V726.145H196.43V720.805C196.43 718.918 194.832 718.124 193.069 718.124C191.172 718.124 189.924 719.031 189.62 720.475L191.651 720.64C191.801 720.114 192.27 719.727 193.059 719.727C193.806 719.727 194.234 720.104 194.234 720.753V720.784C194.234 721.294 193.693 721.362 192.316 721.496C190.749 721.64 189.342 722.166 189.342 723.934C189.342 725.501 190.46 726.295 191.971 726.295ZM192.6 724.779C191.924 724.779 191.44 724.465 191.44 723.862C191.44 723.243 191.95 722.939 192.723 722.831C193.203 722.764 193.986 722.65 194.249 722.475V723.315C194.249 724.145 193.564 724.779 192.6 724.779ZM138.203 743.3C140.311 743.3 141.636 742.063 141.739 740.243H139.666C139.538 741.088 138.981 741.563 138.228 741.563C137.202 741.563 136.537 740.702 136.537 739.186C136.537 737.691 137.208 736.836 138.228 736.836C139.032 736.836 139.548 737.367 139.666 738.155H141.739C141.646 736.325 140.259 735.124 138.192 735.124C135.79 735.124 134.305 736.789 134.305 739.217C134.305 741.625 135.764 743.3 138.203 743.3ZM145.403 743.295C146.573 743.295 147.331 742.784 147.717 742.047H147.779V743.145H149.862V737.805C149.862 735.918 148.264 735.124 146.501 735.124C144.604 735.124 143.356 736.031 143.052 737.475L145.083 737.64C145.233 737.114 145.702 736.727 146.49 736.727C147.238 736.727 147.666 737.104 147.666 737.753V737.784C147.666 738.294 147.124 738.362 145.748 738.496C144.181 738.64 142.774 739.166 142.774 740.934C142.774 742.501 143.892 743.295 145.403 743.295ZM146.032 741.779C145.356 741.779 144.872 741.465 144.872 740.862C144.872 740.243 145.382 739.939 146.155 739.831C146.635 739.764 147.418 739.65 147.681 739.475V740.315C147.681 741.145 146.995 741.779 146.032 741.779ZM153.663 740.248V735.227H151.565V743.145H153.746L156.586 738.109V743.145H158.679V735.227H156.514L153.663 740.248ZM156.138 732.464C156.138 732.949 155.849 733.387 155.117 733.387C154.364 733.387 154.086 732.939 154.091 732.464H152.571C152.571 733.712 153.555 734.547 155.117 734.547C156.679 734.547 157.664 733.712 157.669 732.464H156.138ZM159.659 736.954H162.19V743.145H164.283V736.954H166.834V735.227H159.659V736.954ZM170.14 743.295C171.31 743.295 172.068 742.784 172.454 742.047H172.516V743.145H174.599V737.805C174.599 735.918 173.001 735.124 171.238 735.124C169.341 735.124 168.093 736.031 167.789 737.475L169.82 737.64C169.97 737.114 170.439 736.727 171.227 736.727C171.975 736.727 172.403 737.104 172.403 737.753V737.784C172.403 738.294 171.862 738.362 170.485 738.496C168.918 738.64 167.511 739.166 167.511 740.934C167.511 742.501 168.629 743.295 170.14 743.295ZM170.769 741.779C170.093 741.779 169.609 741.465 169.609 740.862C169.609 740.243 170.119 739.939 170.892 739.831C171.372 739.764 172.155 739.65 172.418 739.475V740.315C172.418 741.145 171.733 741.779 170.769 741.779Z" fill="white"/>
<rect x="105.942" y="959" width="97.2906" height="70.2906" rx="9.07265" fill="#3B76F3"/>
<path d="M131.844 991.29C134.215 991.29 135.911 989.985 135.906 988.181C135.911 986.867 135.076 985.928 133.524 985.733V985.65C134.705 985.439 135.519 984.604 135.514 983.418C135.519 981.753 134.061 980.444 131.875 980.444C129.71 980.444 128.081 981.712 128.05 983.537H130.189C130.215 982.732 130.952 982.212 131.865 982.212C132.767 982.212 133.37 982.758 133.365 983.552C133.37 984.382 132.664 984.944 131.648 984.944H130.663V986.583H131.648C132.844 986.583 133.591 987.181 133.586 988.032C133.591 988.872 132.87 989.449 131.849 989.449C130.864 989.449 130.127 988.934 130.086 988.161H127.839C127.875 990.006 129.524 991.29 131.844 991.29ZM139.789 991.295C140.959 991.295 141.717 990.784 142.103 990.047H142.165V991.145H144.248V985.805C144.248 983.918 142.65 983.124 140.887 983.124C138.99 983.124 137.742 984.031 137.438 985.475L139.469 985.64C139.619 985.114 140.088 984.727 140.877 984.727C141.624 984.727 142.052 985.104 142.052 985.753V985.784C142.052 986.294 141.511 986.362 140.134 986.496C138.567 986.64 137.16 987.166 137.16 988.934C137.16 990.501 138.279 991.295 139.789 991.295ZM140.418 989.779C139.743 989.779 139.258 989.465 139.258 988.862C139.258 988.243 139.768 987.939 140.542 987.831C141.021 987.764 141.804 987.65 142.067 987.475V988.315C142.067 989.145 141.382 989.779 140.418 989.779ZM145.952 991.145H148.024V984.954H150.777V991.145H152.875V983.227H145.952V991.145ZM155.7 994.114C157.334 994.114 158.2 993.279 158.648 992.001L161.726 983.238L159.401 983.227L157.746 989.042H157.664L156.024 983.227H153.715L156.555 991.372L156.426 991.707C156.138 992.449 155.586 992.486 154.813 992.248L154.318 993.888C154.633 994.022 155.143 994.114 155.7 994.114ZM166.158 991.3C168.266 991.3 169.591 990.063 169.694 988.243H167.622C167.493 989.088 166.936 989.563 166.183 989.563C165.158 989.563 164.493 988.702 164.493 987.186C164.493 985.691 165.163 984.836 166.183 984.836C166.988 984.836 167.503 985.367 167.622 986.155H169.694C169.601 984.325 168.214 983.124 166.147 983.124C163.745 983.124 162.26 984.789 162.26 987.217C162.26 989.625 163.719 991.3 166.158 991.3ZM171.1 991.145H173.296V988.336H174.116L176.069 991.145H178.678L175.848 987.155L178.647 983.227H176.069L173.914 986.3H173.296V983.227H171.1V991.145ZM125.375 1008.15H127.447V1001.95H130.2V1008.15H132.298V1000.23H125.375V1008.15ZM134.051 1011.11H136.247V1006.88H136.314C136.618 1007.54 137.283 1008.27 138.561 1008.27C140.366 1008.27 141.773 1006.85 141.773 1004.2C141.773 1001.47 140.304 1000.12 138.567 1000.12C137.242 1000.12 136.608 1000.91 136.314 1001.56H136.216V1000.23H134.051V1011.11ZM136.2 1004.19C136.2 1002.77 136.798 1001.87 137.865 1001.87C138.953 1001.87 139.531 1002.82 139.531 1004.19C139.531 1005.57 138.943 1006.53 137.865 1006.53C136.809 1006.53 136.2 1005.6 136.2 1004.19ZM146.814 1008.3C149.217 1008.3 150.712 1006.66 150.712 1004.22C150.712 1001.76 149.217 1000.12 146.814 1000.12C144.412 1000.12 142.917 1001.76 142.917 1004.22C142.917 1006.66 144.412 1008.3 146.814 1008.3ZM146.825 1006.6C145.716 1006.6 145.149 1005.58 145.149 1004.2C145.149 1002.82 145.716 1001.8 146.825 1001.8C147.912 1001.8 148.479 1002.82 148.479 1004.2C148.479 1005.58 147.912 1006.6 146.825 1006.6ZM155.748 1008.3C157.707 1008.3 159.026 1007.35 159.336 1005.88L157.305 1005.74C157.083 1006.35 156.516 1006.66 155.784 1006.66C154.686 1006.66 153.99 1005.93 153.99 1004.75V1004.75H159.382V1004.15C159.382 1001.45 157.753 1000.12 155.66 1000.12C153.33 1000.12 151.82 1001.78 151.82 1004.22C151.82 1006.73 153.31 1008.3 155.748 1008.3ZM153.99 1003.39C154.036 1002.49 154.722 1001.76 155.696 1001.76C156.65 1001.76 157.31 1002.44 157.315 1003.39H153.99ZM160.815 1008.15H163.011V1005.34H163.831L165.785 1008.15H168.393L165.563 1004.16L168.362 1000.23H165.785L163.63 1003.3H163.011V1000.23H160.815V1008.15ZM168.908 1001.95H171.439V1008.15H173.532V1001.95H176.084V1000.23H168.908V1001.95ZM179.39 1008.29C180.56 1008.29 181.318 1007.78 181.704 1007.05H181.766V1008.15H183.849V1002.8C183.849 1000.92 182.251 1000.12 180.488 1000.12C178.591 1000.12 177.343 1001.03 177.039 1002.47L179.07 1002.64C179.22 1002.11 179.689 1001.73 180.477 1001.73C181.225 1001.73 181.653 1002.1 181.653 1002.75V1002.78C181.653 1003.29 181.111 1003.36 179.735 1003.5C178.168 1003.64 176.761 1004.17 176.761 1005.93C176.761 1007.5 177.879 1008.29 179.39 1008.29ZM180.019 1006.78C179.343 1006.78 178.859 1006.46 178.859 1005.86C178.859 1005.24 179.369 1004.94 180.142 1004.83C180.622 1004.76 181.405 1004.65 181.668 1004.47V1005.32C181.668 1006.15 180.983 1006.78 180.019 1006.78Z" fill="white"/>
<rect x="171.758" y="177" width="150.421" height="51.5286" rx="8.07265" fill="#F9F9F9"/>
<path d="M198.72 200.887C198.328 198.722 196.596 197.444 194.472 197.444C191.771 197.444 189.812 199.526 189.812 202.867C189.812 206.207 191.771 208.29 194.472 208.29C196.596 208.29 198.328 207.011 198.72 204.846H197.441C197.132 206.31 195.874 207.094 194.472 207.094C192.554 207.094 191.049 205.609 191.049 202.867C191.049 200.124 192.554 198.64 194.472 198.64C195.874 198.64 197.132 199.423 197.441 200.887H198.72ZM203.837 208.31C205.982 208.31 207.425 206.681 207.425 204.228C207.425 201.753 205.982 200.124 203.837 200.124C201.693 200.124 200.249 201.753 200.249 204.228C200.249 206.681 201.693 208.31 203.837 208.31ZM203.837 207.217C202.208 207.217 201.466 205.815 201.466 204.228C201.466 202.64 202.208 201.217 203.837 201.217C205.466 201.217 206.208 202.64 206.208 204.228C206.208 205.815 205.466 207.217 203.837 207.217ZM212.499 208.31C214.251 208.31 215.406 207.238 215.612 205.836H214.396C214.169 206.702 213.447 207.217 212.499 207.217C211.055 207.217 210.127 206.021 210.127 204.186C210.127 202.392 211.076 201.217 212.499 201.217C213.571 201.217 214.21 201.877 214.396 202.599H215.612C215.406 201.114 214.148 200.124 212.478 200.124C210.334 200.124 208.911 201.815 208.911 204.228C208.911 206.599 210.272 208.31 212.499 208.31ZM216.767 201.361H219.386V208.145H220.602V201.361H223.2V200.227H216.767V201.361ZM226.894 208.331C228.275 208.331 228.997 207.589 229.244 207.073H229.306V208.145H230.523V202.928C230.523 200.413 228.605 200.124 227.595 200.124C226.399 200.124 225.038 200.537 224.419 201.98L225.574 202.392C225.842 201.815 226.476 201.196 227.636 201.196C228.755 201.196 229.306 201.789 229.306 202.805V202.846C229.306 203.434 228.708 203.382 227.265 203.568C225.796 203.758 224.193 204.083 224.193 205.898C224.193 207.444 225.389 208.331 226.894 208.331ZM227.079 207.238C226.11 207.238 225.409 206.805 225.409 205.96C225.409 205.032 226.255 204.743 227.203 204.619C227.719 204.557 229.1 204.413 229.306 204.166V205.279C229.306 206.269 228.523 207.238 227.079 207.238ZM232.743 208.145H236.475C238.084 208.145 239.053 207.238 239.053 206.021C239.053 204.779 238.11 204.109 237.238 203.98C238.13 203.795 238.764 203.294 238.764 202.331C238.764 201.068 237.682 200.227 235.981 200.227H232.743V208.145ZM233.898 207.032V204.599H236.475C237.311 204.599 237.816 205.099 237.816 205.918C237.816 206.609 237.311 207.032 236.475 207.032H233.898ZM233.898 203.547V201.341H235.981C236.955 201.341 237.548 201.748 237.548 202.413C237.548 203.119 236.955 203.547 235.981 203.547H233.898ZM240.193 208.145H240.606C242.359 208.145 242.864 206.784 242.977 204.186L243.101 201.361H246.008V208.145H247.225V200.227H241.946L241.802 203.733C241.699 206.393 241.431 207.011 240.482 207.011H240.193V208.145ZM252.777 208.31C254.385 208.31 255.56 207.506 255.931 206.31L254.756 205.98C254.447 206.805 253.73 207.217 252.777 207.217C251.349 207.217 250.364 206.295 250.307 204.599H256.055V204.083C256.055 201.135 254.302 200.124 252.653 200.124C250.508 200.124 249.086 201.815 249.086 204.248C249.086 206.681 250.488 208.31 252.777 208.31ZM250.307 203.547C250.39 202.315 251.261 201.217 252.653 201.217C253.973 201.217 254.818 202.207 254.818 203.547H250.307ZM259.122 200.227H257.906V208.145H259.122V204.764H262.916V208.145H264.133V200.227H262.916V203.63H259.122V200.227ZM267.571 206.351V200.227H266.355V208.145H267.777L271.571 202.021V208.145H272.788V200.227H271.386L267.571 206.351ZM278.336 208.31C279.944 208.31 281.12 207.506 281.491 206.31L280.315 205.98C280.006 206.805 279.29 207.217 278.336 207.217C276.908 207.217 275.923 206.295 275.867 204.599H281.614V204.083C281.614 201.135 279.862 200.124 278.212 200.124C276.068 200.124 274.645 201.815 274.645 204.248C274.645 206.681 276.047 208.31 278.336 208.31ZM275.867 203.547C275.949 202.315 276.82 201.217 278.212 201.217C279.532 201.217 280.377 202.207 280.377 203.547H275.867ZM287.135 198.722H290.455V208.145H291.734V198.722H295.053V197.588H287.135V198.722ZM300.408 208.29C302.455 208.29 303.975 207.006 303.975 205.279C303.975 203.939 303.181 202.965 301.851 202.743V202.66C302.918 202.336 303.583 201.459 303.583 200.269C303.583 198.774 302.403 197.444 300.449 197.444C298.624 197.444 297.109 198.567 297.047 200.227H298.284C298.331 199.176 299.331 198.557 300.429 198.557C301.594 198.557 302.346 199.263 302.346 200.33C302.346 201.444 301.475 202.166 300.222 202.166H299.377V203.3H300.222C301.826 203.3 302.717 204.114 302.717 205.279C302.717 206.398 301.743 207.156 300.387 207.156C299.166 207.156 298.197 206.527 298.119 205.506H296.82C296.898 207.166 298.362 208.29 300.408 208.29Z" fill="black"/>
<rect x="171.758" y="177" width="150.421" height="51.5286" rx="8.07265" stroke="#3B76F3" stroke-width="2"/>
<rect x="118.683" y="103" width="71.4885" height="51.5286" rx="8.07265" fill="#F9F9F9"/>
<path d="M137.227 134.145H141.186C143.454 134.145 144.691 132.867 144.691 131.032C144.691 129.197 143.454 128.021 141.186 128.021H138.505V124.722H143.599V123.588H137.227V134.145ZM138.505 133.032V129.155H141.186C142.629 129.155 143.434 130.001 143.434 131.011C143.434 132.042 142.629 133.032 141.186 133.032H138.505ZM146.631 137.114H147.847V132.929H147.951C148.219 133.362 148.734 134.31 150.26 134.31C152.239 134.31 153.621 132.723 153.621 130.207C153.621 127.712 152.239 126.124 150.239 126.124C148.693 126.124 148.219 127.073 147.951 127.485H147.806V126.227H146.631V137.114ZM147.827 130.186C147.827 128.413 148.61 127.217 150.095 127.217C151.641 127.217 152.404 128.516 152.404 130.186C152.404 131.877 151.621 133.217 150.095 133.217C148.631 133.217 147.827 131.98 147.827 130.186ZM156.693 132.351V126.227H155.477V134.145H156.899L160.694 128.021V134.145H161.91V126.227H160.508L156.693 132.351ZM167.355 136.846H168.572V134.31C170.716 134.31 172.159 132.681 172.159 130.228C172.159 127.753 170.716 126.124 168.572 126.124V123.588H167.355V126.124C165.211 126.124 163.767 127.753 163.767 130.228C163.767 132.681 165.211 134.31 167.355 134.31V136.846ZM168.572 133.217V127.217C170.2 127.217 170.943 128.64 170.943 130.228C170.943 131.815 170.2 133.217 168.572 133.217ZM167.355 133.217C165.726 133.217 164.984 131.815 164.984 130.228C164.984 128.64 165.726 127.217 167.355 127.217V133.217Z" fill="black"/>
<rect x="118.683" y="103" width="71.4885" height="51.5286" rx="8.07265" stroke="#3B76F3" stroke-width="2"/>
<rect x="9.81104" y="177" width="104.15" height="51.5286" rx="8.07265" fill="#F9F9F9"/>
<path d="M28.6248 208.145H29.9032V204.021H32.2126C32.3054 204.021 32.393 204.021 32.4807 204.016L34.7076 208.145H36.1922L33.8055 203.784C35.1509 203.325 35.7798 202.227 35.7798 200.825C35.7798 198.959 34.6664 197.588 32.192 197.588H28.6248V208.145ZM29.9032 202.867V198.722H32.1508C33.8622 198.722 34.522 199.557 34.522 200.825C34.522 202.093 33.8622 202.867 32.1714 202.867H29.9032ZM40.8767 208.31C43.0212 208.31 44.4646 206.681 44.4646 204.228C44.4646 201.753 43.0212 200.124 40.8767 200.124C38.7323 200.124 37.2889 201.753 37.2889 204.228C37.2889 206.681 38.7323 208.31 40.8767 208.31ZM40.8767 207.217C39.2478 207.217 38.5055 205.815 38.5055 204.228C38.5055 202.64 39.2478 201.217 40.8767 201.217C42.5057 201.217 43.248 202.64 43.248 204.228C43.248 205.815 42.5057 207.217 40.8767 207.217ZM48.6517 208.331C50.0332 208.331 50.7549 207.589 51.0023 207.073H51.0642V208.145H52.2807V202.928C52.2807 200.413 50.3631 200.124 49.3527 200.124C48.1568 200.124 46.7959 200.537 46.1773 201.98L47.332 202.392C47.6 201.815 48.2341 201.196 49.394 201.196C50.5126 201.196 51.0642 201.789 51.0642 202.805V202.846C51.0642 203.434 50.4662 203.382 49.0228 203.568C47.5537 203.758 45.9505 204.083 45.9505 205.898C45.9505 207.444 47.1464 208.331 48.6517 208.331ZM48.8372 207.238C47.8681 207.238 47.167 206.805 47.167 205.96C47.167 205.032 48.0124 204.743 48.9609 204.619C49.4764 204.557 50.858 204.413 51.0642 204.166V205.279C51.0642 206.269 50.2806 207.238 48.8372 207.238ZM57.491 208.31C59.0169 208.31 59.5324 207.362 59.8004 206.929H59.9448V208.145H61.1201V197.588H59.9035V201.485H59.8004C59.5324 201.073 59.0581 200.124 57.5117 200.124C55.5116 200.124 54.13 201.712 54.13 204.207C54.13 206.723 55.5116 208.31 57.491 208.31ZM57.656 207.217C56.1301 207.217 55.3466 205.877 55.3466 204.186C55.3466 202.516 56.1095 201.217 57.656 201.217C59.1406 201.217 59.9242 202.413 59.9242 204.186C59.9242 205.98 59.12 207.217 57.656 207.217ZM67.7648 197.588V208.145H68.9607V200.124H69.0638L72.363 208.145H73.5177L76.8168 200.124H76.9199V208.145H78.1159V197.588H76.59L73.0022 206.351H72.8785L69.2906 197.588H67.7648ZM82.8442 208.331C84.2257 208.331 84.9474 207.589 85.1949 207.073H85.2567V208.145H86.4733V202.928C86.4733 200.413 84.5556 200.124 83.5453 200.124C82.3493 200.124 80.9884 200.537 80.3699 201.98L81.5246 202.392C81.7926 201.815 82.4267 201.196 83.5865 201.196C84.7051 201.196 85.2567 201.789 85.2567 202.805V202.846C85.2567 203.434 84.6587 203.382 83.2154 203.568C81.7462 203.758 80.143 204.083 80.143 205.898C80.143 207.444 81.339 208.331 82.8442 208.331ZM83.0298 207.238C82.0607 207.238 81.3596 206.805 81.3596 205.96C81.3596 205.032 82.205 204.743 83.1535 204.619C83.669 204.557 85.0505 204.413 85.2567 204.166V205.279C85.2567 206.269 84.4732 207.238 83.0298 207.238ZM88.6937 211.114H89.9103V206.929H90.0134C90.2815 207.362 90.797 208.31 92.3228 208.31C94.3023 208.31 95.6838 206.723 95.6838 204.207C95.6838 201.712 94.3023 200.124 92.3022 200.124C90.7557 200.124 90.2815 201.073 90.0134 201.485H89.8691V200.227H88.6937V211.114ZM89.8897 204.186C89.8897 202.413 90.6732 201.217 92.1579 201.217C93.7043 201.217 94.4673 202.516 94.4673 204.186C94.4673 205.877 93.6837 207.217 92.1579 207.217C90.6939 207.217 89.8897 205.98 89.8897 204.186Z" fill="black"/>
<rect x="9.81104" y="177" width="104.15" height="51.5286" rx="8.07265" stroke="#3B76F3" stroke-width="2"/>
<rect x="182.693" y="399.059" width="128.646" height="51.5286" rx="8.07265" fill="#F9F9F9"/>
<path d="M201.152 430.204H205.111C207.379 430.204 208.617 428.926 208.617 427.091C208.617 425.255 207.379 424.08 205.111 424.08H202.431V420.781H207.524V419.647H201.152V430.204ZM202.431 429.091V425.214H205.111C206.555 425.214 207.359 426.06 207.359 427.07C207.359 428.101 206.555 429.091 205.111 429.091H202.431ZM213.876 430.369C215.484 430.369 216.66 429.565 217.031 428.369L215.855 428.039C215.546 428.864 214.83 429.276 213.876 429.276C212.448 429.276 211.463 428.353 211.407 426.658H217.154V426.142C217.154 423.193 215.402 422.183 213.752 422.183C211.608 422.183 210.185 423.874 210.185 426.307C210.185 428.74 211.587 430.369 213.876 430.369ZM211.407 425.606C211.489 424.374 212.36 423.276 213.752 423.276C215.072 423.276 215.917 424.266 215.917 425.606H211.407ZM220.222 422.286H219.005V430.204H220.222V426.822H224.016V430.204H225.232V422.286H224.016V425.688H220.222V422.286ZM233.557 422.286H232.341V426.302C231.753 426.472 231.15 426.575 230.423 426.575C229.433 426.575 228.67 426.018 228.67 424.802V422.266H227.454V424.802C227.454 426.74 228.629 427.709 230.423 427.709C231.171 427.709 231.769 427.611 232.341 427.441V430.204H233.557V422.286ZM240.12 428.555L237.398 422.286H235.789V430.204H237.006V424.034L239.625 430.204H240.614L243.233 424.147V430.204H244.45V422.286H242.883L240.12 428.555ZM249.007 430.39C250.388 430.39 251.11 429.647 251.357 429.132H251.419V430.204H252.636V424.987C252.636 422.472 250.718 422.183 249.708 422.183C248.512 422.183 247.151 422.595 246.532 424.039L247.687 424.451C247.955 423.874 248.589 423.255 249.749 423.255C250.868 423.255 251.419 423.848 251.419 424.864V424.905C251.419 425.493 250.821 425.441 249.378 425.627C247.909 425.817 246.305 426.142 246.305 427.957C246.305 429.503 247.501 430.39 249.007 430.39ZM249.192 429.297C248.223 429.297 247.522 428.864 247.522 428.018C247.522 427.091 248.367 426.802 249.316 426.678C249.831 426.616 251.213 426.472 251.419 426.225V427.338C251.419 428.328 250.636 429.297 249.192 429.297ZM254.856 433.173H256.073V428.988H256.176C256.444 429.421 256.959 430.369 258.485 430.369C260.465 430.369 261.846 428.781 261.846 426.266C261.846 423.771 260.465 422.183 258.465 422.183C256.918 422.183 256.444 423.132 256.176 423.544H256.031V422.286H254.856V433.173ZM256.052 426.245C256.052 424.472 256.836 423.276 258.32 423.276C259.867 423.276 260.63 424.575 260.63 426.245C260.63 427.936 259.846 429.276 258.32 429.276C256.856 429.276 256.052 428.039 256.052 426.245ZM263.702 430.204H264.919V426.864H266.011L268.609 430.204H270.177L266.939 426.101L270.135 422.286H268.568L265.723 425.73H264.919V422.286H263.702V430.204ZM272.715 428.41V422.286H271.499V430.204H272.922L276.716 424.08V430.204H277.932V422.286H276.53L272.715 428.41ZM281.377 422.286H280.16V430.204H281.377V426.822H285.171V430.204H286.387V422.286H285.171V425.688H281.377V422.286ZM293.496 422.286H288.609V430.204H289.826V423.42H293.496V422.286Z" fill="black"/>
<rect x="182.693" y="399.059" width="128.646" height="51.5286" rx="8.07265" stroke="#3B76F3" stroke-width="2"/>
<rect x="117.322" y="338.5" width="74.2103" height="51.5286" rx="8.07265" fill="#F9F9F9"/>
<path d="M142.709 359.088V365.975C142.709 367.521 141.647 368.635 139.884 368.635C138.121 368.635 137.06 367.521 137.06 365.975V359.088H135.781V366.078C135.781 368.243 137.4 369.831 139.884 369.831C142.369 369.831 143.988 368.243 143.988 366.078V359.088H142.709ZM147.819 359.088H146.541V369.645H147.819V359.088ZM153.95 358.593H152.836L149.434 371.233H150.547L153.95 358.593ZM162.485 359.088V365.975C162.485 367.521 161.423 368.635 159.66 368.635C157.897 368.635 156.835 367.521 156.835 365.975V359.088H155.557V366.078C155.557 368.243 157.175 369.831 159.66 369.831C162.145 369.831 163.763 368.243 163.763 366.078V359.088H162.485ZM166.935 359.088H165.43L168.832 364.367L165.43 369.645H166.935L169.657 365.336H169.739L172.461 369.645H173.966L170.646 364.367L173.966 359.088H172.461L169.739 363.48H169.657L166.935 359.088Z" fill="black"/>
<rect x="117.322" y="338.5" width="74.2103" height="51.5286" rx="8.07265" stroke="#3B76F3" stroke-width="2"/>
<rect x="12.0791" y="399" width="99.6137" height="51.5286" rx="8.07265" fill="#F9F9F9"/>
<path d="M37.5234 419.588V426.475C37.5234 428.021 36.4615 429.135 34.6985 429.135C32.9355 429.135 31.8736 428.021 31.8736 426.475V419.588H30.5952V426.578C30.5952 428.743 32.2138 430.331 34.6985 430.331C37.1832 430.331 38.8018 428.743 38.8018 426.578V419.588H37.5234ZM46.7984 424.001C46.4169 422.877 45.5612 422.124 43.9941 422.124C42.3239 422.124 41.0867 423.073 41.0867 424.413C41.0867 425.506 41.7362 426.238 43.1899 426.578L44.5096 426.887C45.3086 427.073 45.6849 427.454 45.6849 428.001C45.6849 428.681 44.9632 429.238 43.8291 429.238C42.8342 429.238 42.2105 428.81 41.994 427.96L40.8393 428.248C41.1228 429.594 42.2311 430.31 43.8498 430.31C45.6901 430.31 46.9427 429.305 46.9427 427.939C46.9427 426.836 46.2519 426.14 44.8395 425.795L43.6642 425.506C42.726 425.274 42.3033 424.959 42.3033 424.351C42.3033 423.671 43.025 423.176 43.9941 423.176C45.056 423.176 45.4942 423.763 45.7055 424.31L46.7984 424.001ZM52.0938 430.31C53.7021 430.31 54.8774 429.506 55.2486 428.31L54.0732 427.98C53.7639 428.805 53.0474 429.217 52.0938 429.217C50.6658 429.217 49.6812 428.295 49.6245 426.599H55.3723V426.083C55.3723 423.135 53.6196 422.124 51.97 422.124C49.8256 422.124 48.4028 423.815 48.4028 426.248C48.4028 428.681 49.805 430.31 52.0938 430.31ZM49.6245 425.547C49.707 424.315 50.5782 423.217 51.97 423.217C53.2897 423.217 54.1351 424.207 54.1351 425.547H49.6245ZM57.2229 430.145H58.4395V425.135C58.4395 424.062 59.2849 423.279 60.4396 423.279C60.7643 423.279 61.0994 423.341 61.1819 423.361V422.124C61.0427 422.114 60.7231 422.104 60.5427 422.104C59.5942 422.104 58.7694 422.64 58.4807 423.423H58.3982V422.227H57.2229V430.145ZM70.2326 422.227H68.4593V421.423C68.4593 420.64 68.7892 420.227 69.5934 420.227C69.9439 420.227 70.1501 420.31 70.2739 420.351L70.6244 419.299C70.4388 419.217 70.0677 419.093 69.4697 419.093C68.3356 419.093 67.2428 419.774 67.2428 421.134V422.227H65.9643V423.258H67.2428V430.145H68.4593V423.258H70.2326V422.227ZM73.1542 419.588H71.9376V430.145H73.1542V419.588ZM78.599 430.31C80.7435 430.31 82.1869 428.681 82.1869 426.228C82.1869 423.753 80.7435 422.124 78.599 422.124C76.4546 422.124 75.0112 423.753 75.0112 426.228C75.0112 428.681 76.4546 430.31 78.599 430.31ZM78.599 429.217C76.9701 429.217 76.2278 427.815 76.2278 426.228C76.2278 424.64 76.9701 423.217 78.599 423.217C80.228 423.217 80.9703 424.64 80.9703 426.228C80.9703 427.815 80.228 429.217 78.599 429.217ZM85.5685 430.145H86.7644L88.4965 424.062H88.6202L90.3522 430.145H91.5482L93.9607 422.227H92.6823L90.9708 428.269H90.8884L89.2182 422.227H87.9191L86.2283 428.289H86.1458L84.4344 422.227H83.156L85.5685 430.145Z" fill="black"/>
<rect x="12.0791" y="399" width="99.6137" height="51.5286" rx="8.07265" stroke="#3B76F3" stroke-width="2"/>
<rect x="206" y="797" width="93.2628" height="51.5286" rx="8.07265" fill="#F9F9F9"/>
<path d="M224.707 828.145H228.522C231.017 828.145 232.048 826.929 232.048 825.341C232.048 823.671 230.893 822.764 229.924 822.702V822.599C230.831 822.351 231.636 821.753 231.636 820.392C231.636 818.846 230.605 817.588 228.398 817.588H224.707V828.145ZM225.986 827.011V823.341H228.584C229.965 823.341 230.831 824.269 230.831 825.341C230.831 826.269 230.192 827.011 228.522 827.011H225.986ZM225.986 822.227V818.722H228.398C229.801 818.722 230.419 819.464 230.419 820.392C230.419 821.506 229.512 822.227 228.357 822.227H225.986ZM237.303 828.31C238.912 828.31 240.087 827.506 240.458 826.31L239.283 825.98C238.974 826.805 238.257 827.217 237.303 827.217C235.876 827.217 234.891 826.295 234.834 824.599H240.582V824.083C240.582 821.135 238.829 820.124 237.18 820.124C235.035 820.124 233.613 821.815 233.613 824.248C233.613 826.681 235.015 828.31 237.303 828.31ZM234.834 823.547C234.917 822.315 235.788 821.217 237.18 821.217C238.499 821.217 239.345 822.207 239.345 823.547H234.834ZM242.433 831.114H243.649V826.929H243.752C244.02 827.362 244.536 828.31 246.062 828.31C248.041 828.31 249.423 826.723 249.423 824.207C249.423 821.712 248.041 820.124 246.041 820.124C244.495 820.124 244.02 821.073 243.752 821.485H243.608V820.227H242.433V831.114ZM243.629 824.186C243.629 822.413 244.412 821.217 245.897 821.217C247.443 821.217 248.206 822.516 248.206 824.186C248.206 825.877 247.423 827.217 245.897 827.217C244.433 827.217 243.629 825.98 243.629 824.186ZM254.495 828.31C256.248 828.31 257.403 827.238 257.609 825.836H256.392C256.165 826.702 255.444 827.217 254.495 827.217C253.052 827.217 252.124 826.021 252.124 824.186C252.124 822.392 253.072 821.217 254.495 821.217C255.567 821.217 256.207 821.877 256.392 822.599H257.609C257.403 821.114 256.145 820.124 254.475 820.124C252.33 820.124 250.907 821.815 250.907 824.228C250.907 826.599 252.268 828.31 254.495 828.31ZM258.763 821.361H261.382V828.145H262.599V821.361H265.197V820.227H258.763V821.361ZM266.971 828.145H268.188V824.805H269.281L271.879 828.145H273.446L270.209 824.042L273.405 820.227H271.838L268.992 823.671H268.188V820.227H266.971V828.145ZM277.098 828.331C278.48 828.331 279.201 827.589 279.449 827.073H279.511V828.145H280.727V822.928C280.727 820.413 278.81 820.124 277.799 820.124C276.603 820.124 275.242 820.537 274.624 821.98L275.778 822.392C276.047 821.815 276.681 821.196 277.84 821.196C278.959 821.196 279.511 821.789 279.511 822.805V822.846C279.511 823.434 278.913 823.382 277.469 823.568C276 823.758 274.397 824.083 274.397 825.898C274.397 827.444 275.593 828.331 277.098 828.331ZM277.284 827.238C276.315 827.238 275.614 826.805 275.614 825.96C275.614 825.032 276.459 824.743 277.407 824.619C277.923 824.557 279.304 824.413 279.511 824.166V825.279C279.511 826.269 278.727 827.238 277.284 827.238Z" fill="black"/>
<rect x="206" y="797" width="93.2628" height="51.5286" rx="8.07265" stroke="#3B76F3" stroke-width="2"/>
<rect x="95.0938" y="861" width="118.666" height="51.5286" rx="8.07265" fill="#F9F9F9"/>
<path d="M113.574 881.588V892.145H114.812L120.564 883.856H120.668V892.145H121.946V881.588H120.709L114.935 889.898H114.832V881.588H113.574ZM125.556 884.227H124.339V892.145H125.556V888.764H129.35V892.145H130.566V884.227H129.35V887.63H125.556V884.227ZM131.711 885.361H134.329V892.145H135.546V885.361H138.144V884.227H131.711V885.361ZM142.827 892.31C144.436 892.31 145.611 891.506 145.982 890.31L144.807 889.98C144.497 890.805 143.781 891.217 142.827 891.217C141.399 891.217 140.415 890.295 140.358 888.599H146.106V888.083C146.106 885.135 144.353 884.124 142.704 884.124C140.559 884.124 139.136 885.815 139.136 888.248C139.136 890.681 140.538 892.31 142.827 892.31ZM140.358 887.547C140.441 886.315 141.312 885.217 142.704 885.217C144.023 885.217 144.869 886.207 144.869 887.547H140.358ZM152.843 884.227H147.956V892.145H149.173V885.361H152.843V884.227ZM154.619 895.114H155.836V890.929H155.939C156.207 891.362 156.722 892.31 158.248 892.31C160.228 892.31 161.609 890.723 161.609 888.207C161.609 885.712 160.228 884.124 158.228 884.124C156.681 884.124 156.207 885.073 155.939 885.485H155.794V884.227H154.619V895.114ZM155.815 888.186C155.815 886.413 156.599 885.217 158.083 885.217C159.63 885.217 160.393 886.516 160.393 888.186C160.393 889.877 159.609 891.217 158.083 891.217C156.619 891.217 155.815 889.98 155.815 888.186ZM165.795 892.331C167.176 892.331 167.898 891.589 168.146 891.073H168.207V892.145H169.424V886.928C169.424 884.413 167.506 884.124 166.496 884.124C165.3 884.124 163.939 884.537 163.321 885.98L164.475 886.392C164.743 885.815 165.377 885.196 166.537 885.196C167.656 885.196 168.207 885.789 168.207 886.805V886.846C168.207 887.434 167.61 887.382 166.166 887.568C164.697 887.758 163.094 888.083 163.094 889.898C163.094 891.444 164.29 892.331 165.795 892.331ZM165.981 891.238C165.011 891.238 164.31 890.805 164.31 889.96C164.31 889.032 165.156 888.743 166.104 888.619C166.62 888.557 168.001 888.413 168.207 888.166V889.279C168.207 890.269 167.424 891.238 165.981 891.238ZM177.872 884.227H176.655V891.011H172.861V884.227H171.645V892.145H177.769V894.702H178.985V891.011H177.872V884.227ZM182.075 890.351V884.227H180.859V892.145H182.282L186.076 886.021V892.145H187.292V884.227H185.89L182.075 890.351ZM194.284 892.145H195.438V884.227H192.18C190.474 884.227 189.438 885.119 189.438 886.578C189.438 887.666 189.984 888.439 190.938 888.764L189.005 892.145H190.325L192.16 888.929H194.284V892.145ZM194.284 887.795H192.036C191.175 887.795 190.655 887.336 190.655 886.578C190.655 885.81 191.232 885.341 192.18 885.341H194.284V887.795Z" fill="black"/>
<rect x="95.0938" y="861" width="118.666" height="51.5286" rx="8.07265" stroke="#3B76F3" stroke-width="2"/>
<rect x="16.1616" y="797" width="91.4483" height="51.5286" rx="8.07265" fill="#F9F9F9"/>
<path d="M41.0401 828.145H42.566L38.1534 822.227L42.4217 817.588H40.8958L36.6688 822.166H36.112V817.588H34.8336V828.145H36.112V823.3H37.4111L41.0401 828.145ZM46.6886 828.31C48.8331 828.31 50.2765 826.681 50.2765 824.228C50.2765 821.753 48.8331 820.124 46.6886 820.124C44.5442 820.124 43.1008 821.753 43.1008 824.228C43.1008 826.681 44.5442 828.31 46.6886 828.31ZM46.6886 827.217C45.0597 827.217 44.3174 825.815 44.3174 824.228C44.3174 822.64 45.0597 821.217 46.6886 821.217C48.3176 821.217 49.0599 822.64 49.0599 824.228C49.0599 825.815 48.3176 827.217 46.6886 827.217ZM53.3501 820.227H52.1335V828.145H53.3501V824.764H57.1441V828.145H58.3607V820.227H57.1441V823.63H53.3501V820.227ZM59.5051 821.361H62.1238V828.145H63.3403V821.361H65.9384V820.227H59.5051V821.361ZM70.6216 828.31C72.23 828.31 73.4053 827.506 73.7764 826.31L72.6011 825.98C72.2918 826.805 71.5753 827.217 70.6216 827.217C69.1937 827.217 68.2091 826.295 68.1524 824.599H73.9002V824.083C73.9002 821.135 72.1475 820.124 70.4979 820.124C68.3535 820.124 66.9307 821.815 66.9307 824.248C66.9307 826.681 68.3328 828.31 70.6216 828.31ZM68.1524 823.547C68.2349 822.315 69.1061 821.217 70.4979 821.217C71.8176 821.217 72.663 822.207 72.663 823.547H68.1524ZM76.9673 820.227H75.7508V828.145H76.9673V824.764H80.7614V828.145H81.9779V820.227H80.7614V823.63H76.9673V820.227ZM83.1223 821.361H85.741V828.145H86.9576V821.361H89.5556V820.227H83.1223V821.361Z" fill="black"/>
<rect x="16.1616" y="797" width="91.4483" height="51.5286" rx="8.07265" stroke="#3B76F3" stroke-width="2"/>
<path d="M246.614 174.854C246.809 175.049 247.126 175.049 247.321 174.854L250.503 171.672C250.699 171.476 250.699 171.16 250.503 170.964C250.308 170.769 249.991 170.769 249.796 170.964L246.968 173.793L244.139 170.964C243.944 170.769 243.628 170.769 243.432 170.964C243.237 171.16 243.237 171.476 243.432 171.672L246.614 174.854ZM246.968 87.9387L246.468 87.9387L246.968 87.9387ZM154.587 67.791L154.587 79.9387L155.587 79.9387L155.587 67.791L154.587 67.791ZM159.087 84.4387L242.968 84.4387L242.968 83.4387L159.087 83.4387L159.087 84.4387ZM246.468 87.9387L246.468 174.5L247.468 174.5L247.468 87.9387L246.468 87.9387ZM242.968 84.4387C244.901 84.4387 246.468 86.0057 246.468 87.9387L247.468 87.9387C247.468 85.4534 245.453 83.4387 242.968 83.4387L242.968 84.4387ZM154.587 79.9387C154.587 82.424 156.602 84.4387 159.087 84.4387L159.087 83.4387C157.154 83.4387 155.587 81.8717 155.587 79.9387L154.587 79.9387Z" fill="#B8B8B8"/>
<path d="M154.733 99.9399C154.929 100.135 155.245 100.135 155.44 99.9399L158.622 96.7579C158.818 96.5627 158.818 96.2461 158.622 96.0508C158.427 95.8555 158.111 95.8555 157.915 96.0508L155.087 98.8792L152.258 96.0508C152.063 95.8555 151.747 95.8555 151.551 96.0508C151.356 96.2461 151.356 96.5627 151.551 96.7579L154.733 99.9399ZM154.587 67.791L154.587 99.5863L155.587 99.5863L155.587 67.791L154.587 67.791Z" fill="#B8B8B8"/>
<path d="M61.5323 174.354C61.7276 174.549 62.0442 174.549 62.2394 174.354L65.4214 171.172C65.6167 170.976 65.6167 170.66 65.4214 170.464C65.2261 170.269 64.9096 170.269 64.7143 170.464L61.8859 173.293L59.0574 170.464C58.8622 170.269 58.5456 170.269 58.3503 170.464C58.1551 170.66 58.1551 170.976 58.3503 171.172L61.5323 174.354ZM61.8859 87.9387L61.3859 87.9387L61.8859 87.9387ZM154.587 67.791L154.587 79.9387L155.587 79.9387L155.587 67.791L154.587 67.791ZM151.087 83.4387L65.8859 83.4387L65.8859 84.4387L151.087 84.4387L151.087 83.4387ZM61.3859 87.9387L61.3859 174L62.3859 174L62.3859 87.9387L61.3859 87.9387ZM65.8859 83.4387C63.4006 83.4387 61.3859 85.4534 61.3859 87.9387L62.3859 87.9387C62.3859 86.0057 63.9529 84.4387 65.8859 84.4387L65.8859 83.4387ZM154.587 79.9387C154.587 81.8717 153.02 83.4387 151.087 83.4387L151.087 84.4387C153.572 84.4387 155.587 82.424 155.587 79.9387L154.587 79.9387Z" fill="#B8B8B8"/>
<path d="M214.646 279.292C214.451 279.487 214.451 279.804 214.646 279.999L217.828 283.181C218.024 283.376 218.34 283.376 218.536 283.181C218.731 282.986 218.731 282.669 218.536 282.474L215.707 279.646L218.536 276.817C218.731 276.622 218.731 276.305 218.536 276.11C218.34 275.915 218.024 275.915 217.828 276.11L214.646 279.292ZM246.468 229L246.468 275.646L247.468 275.646L247.468 229L246.468 229ZM242.968 279.146L215 279.146L215 280.146L242.968 280.146L242.968 279.146ZM246.468 275.646C246.468 277.579 244.901 279.146 242.968 279.146L242.968 280.146C245.453 280.146 247.468 278.131 247.468 275.646L246.468 275.646Z" fill="#B8B8B8"/>
<path d="M153.646 251.354C153.842 251.549 154.158 251.549 154.354 251.354L157.536 248.172C157.731 247.976 157.731 247.66 157.536 247.464C157.34 247.269 157.024 247.269 156.828 247.464L154 250.293L151.172 247.464C150.976 247.269 150.66 247.269 150.464 247.464C150.269 247.66 150.269 247.976 150.464 248.172L153.646 251.354ZM153.5 155L153.5 251L154.5 251L154.5 155L153.5 155Z" fill="#B8B8B8"/>
<path d="M154.733 336.854C154.929 337.049 155.245 337.049 155.44 336.854L158.622 333.672C158.818 333.476 158.818 333.16 158.622 332.964C158.427 332.769 158.111 332.769 157.915 332.964L155.087 335.793L152.258 332.964C152.063 332.769 151.747 332.769 151.551 332.964C151.356 333.16 151.356 333.476 151.551 333.672L154.733 336.854ZM154.587 308.5L154.587 336.5L155.587 336.5L155.587 308.5L154.587 308.5Z" fill="#B8B8B8"/>
<path d="M238.646 507.354C238.842 507.549 239.158 507.549 239.354 507.354L242.536 504.172C242.731 503.976 242.731 503.66 242.536 503.464C242.34 503.269 242.024 503.269 241.828 503.464L239 506.293L236.172 503.464C235.976 503.269 235.66 503.269 235.464 503.464C235.269 503.66 235.269 503.976 235.464 504.172L238.646 507.354ZM238.5 451.5L238.5 507L239.5 507L239.5 451.5L238.5 451.5Z" fill="#B8B8B8"/>
<path d="M246.614 395.354C246.809 395.549 247.126 395.549 247.321 395.354L250.503 392.172C250.699 391.976 250.699 391.66 250.503 391.464C250.308 391.269 249.991 391.269 249.796 391.464L246.968 394.293L244.139 391.464C243.944 391.269 243.627 391.269 243.432 391.464C243.237 391.66 243.237 391.976 243.432 392.172L246.614 395.354ZM246.968 326.404L247.468 326.404L246.968 326.404ZM154.587 308L154.587 318.404L155.587 318.404L155.587 308L154.587 308ZM159.087 322.904L242.968 322.904L242.968 321.904L159.087 321.904L159.087 322.904ZM246.468 326.404L246.468 395L247.468 395L247.468 326.404L246.468 326.404ZM242.968 322.904C244.901 322.904 246.468 324.471 246.468 326.404L247.468 326.404C247.468 323.918 245.453 321.904 242.968 321.904L242.968 322.904ZM154.587 318.404C154.587 320.889 156.601 322.904 159.087 322.904L159.087 321.904C157.154 321.904 155.587 320.337 155.587 318.404L154.587 318.404Z" fill="#B8B8B8"/>
<path d="M61.5325 394.354C61.7278 394.549 62.0444 394.549 62.2396 394.354L65.4216 391.172C65.6169 390.976 65.6169 390.66 65.4216 390.464C65.2263 390.269 64.9097 390.269 64.7145 390.464L61.8861 393.293L59.0576 390.464C58.8624 390.269 58.5458 390.269 58.3505 390.464C58.1553 390.66 58.1553 390.976 58.3505 391.172L61.5325 394.354ZM154.587 308L154.587 318.404L155.587 318.404L155.587 308L154.587 308ZM151.087 321.904L65.8861 321.904L65.8861 322.904L151.087 322.904L151.087 321.904ZM61.3861 326.404L61.3861 394L62.3861 394L62.3861 326.404L61.3861 326.404ZM65.8861 321.904C63.4008 321.904 61.3861 323.918 61.3861 326.404L62.3861 326.404C62.3861 324.471 63.9531 322.904 65.8861 322.904L65.8861 321.904ZM154.587 318.404C154.587 320.337 153.02 321.904 151.087 321.904L151.087 322.904C153.572 322.904 155.587 320.889 155.587 318.404L154.587 318.404Z" fill="#B8B8B8"/>
<path d="M239.354 507.354C239.158 507.549 238.842 507.549 238.646 507.354L235.464 504.172C235.269 503.976 235.269 503.66 235.464 503.464C235.66 503.269 235.976 503.269 236.172 503.464L239 506.293L241.828 503.464C242.024 503.269 242.34 503.269 242.536 503.464C242.731 503.66 242.731 503.976 242.536 504.172L239.354 507.354ZM154.733 488.288L155.233 488.288L154.733 488.288ZM155.232 391L155.233 488.288L154.233 488.288L154.232 391L155.232 391ZM158.733 491.788L235 491.788L235 492.788L158.733 492.788L158.733 491.788ZM239.5 496.288L239.5 507L238.5 507L238.5 496.288L239.5 496.288ZM235 491.788C237.485 491.788 239.5 493.803 239.5 496.288L238.5 496.288C238.5 494.355 236.933 492.788 235 492.788L235 491.788ZM155.233 488.288C155.233 490.221 156.8 491.788 158.733 491.788L158.733 492.788C156.247 492.788 154.233 490.773 154.233 488.288L155.233 488.288Z" fill="#B8B8B8"/>
<path d="M108.454 493.261C108.649 493.456 108.966 493.456 109.161 493.261L112.343 490.079C112.538 489.884 112.538 489.567 112.343 489.372C112.148 489.177 111.831 489.177 111.636 489.372L108.808 492.2L105.979 489.372C105.784 489.177 105.467 489.177 105.272 489.372C105.077 489.567 105.077 489.884 105.272 490.079L108.454 493.261ZM61.8856 477.5L61.3856 477.5L61.8856 477.5ZM61.3856 450.5L61.3856 477.5L62.3856 477.5L62.3856 450.5L61.3856 450.5ZM65.8856 482L104.808 482L104.808 481L65.8856 481L65.8856 482ZM108.308 485.5L108.308 492.907L109.308 492.907L109.308 485.5L108.308 485.5ZM104.808 482C106.741 482 108.308 483.567 108.308 485.5L109.308 485.5C109.308 483.014 107.293 481 104.808 481L104.808 482ZM61.3856 477.5C61.3856 479.985 63.4003 482 65.8856 482L65.8856 481C63.9526 481 62.3856 479.433 62.3856 477.5L61.3856 477.5Z" fill="#B8B8B8"/>
<path d="M154.733 611.354C154.929 611.549 155.245 611.549 155.44 611.354L158.622 608.172C158.818 607.976 158.818 607.66 158.622 607.464C158.427 607.269 158.11 607.269 157.915 607.464L155.087 610.293L152.258 607.464C152.063 607.269 151.747 607.269 151.551 607.464C151.356 607.66 151.356 607.976 151.551 608.172L154.733 611.354ZM238.5 561L238.5 593.344L239.5 593.344L239.5 561L238.5 561ZM235 596.844L159.087 596.844L159.087 597.844L235 597.844L235 596.844ZM154.587 601.344L154.587 611L155.587 611L155.587 601.344L154.587 601.344ZM159.087 596.844C156.602 596.844 154.587 598.858 154.587 601.344L155.587 601.344C155.587 599.411 157.154 597.844 159.087 597.844L159.087 596.844ZM238.5 593.344C238.5 595.277 236.933 596.844 235 596.844L235 597.844C237.485 597.844 239.5 595.829 239.5 593.344L238.5 593.344Z" fill="#B8B8B8"/>
<path d="M154.733 611.353C154.929 611.548 155.245 611.548 155.44 611.353L158.622 608.171C158.818 607.976 158.818 607.659 158.622 607.464C158.427 607.269 158.111 607.269 157.915 607.464L155.087 610.293L152.258 607.464C152.063 607.269 151.747 607.269 151.551 607.464C151.356 607.659 151.356 607.976 151.551 608.171L154.733 611.353ZM65.0001 564.536L65.0001 593.601L66.0001 593.601L66.0001 564.536L65.0001 564.536ZM69.5001 598.101L151.087 598.101L151.087 597.101L69.5001 597.101L69.5001 598.101ZM154.587 601.601L154.587 611L155.587 611L155.587 601.601L154.587 601.601ZM151.087 598.101C153.02 598.101 154.587 599.668 154.587 601.601L155.587 601.601C155.587 599.116 153.572 597.101 151.087 597.101L151.087 598.101ZM65.0001 593.601C65.0001 596.087 67.0148 598.101 69.5001 598.101L69.5001 597.101C67.5671 597.101 66.0001 595.534 66.0001 593.601L65.0001 593.601Z" fill="#B8B8B8"/>
<path d="M246.614 793.931C246.809 794.126 247.126 794.126 247.321 793.931L250.503 790.749C250.699 790.553 250.699 790.237 250.503 790.042C250.308 789.846 249.991 789.846 249.796 790.042L246.968 792.87L244.139 790.041C243.944 789.846 243.628 789.846 243.432 790.041C243.237 790.237 243.237 790.553 243.432 790.749L246.614 793.931ZM154.087 764L154.087 775.005L155.087 775.005L155.087 764L154.087 764ZM158.587 779.505L242.968 779.505L242.968 778.505L158.587 778.505L158.587 779.505ZM246.468 783.005L246.468 793.577L247.468 793.577L247.468 783.005L246.468 783.005ZM242.968 779.505C244.901 779.505 246.468 781.072 246.468 783.005L247.468 783.005C247.468 780.52 245.453 778.505 242.968 778.505L242.968 779.505ZM154.087 775.005C154.087 777.49 156.102 779.505 158.587 779.505L158.587 778.505C156.654 778.505 155.087 776.938 155.087 775.005L154.087 775.005Z" fill="#B8B8B8"/>
<path d="M154.233 858.354C154.429 858.549 154.745 858.549 154.94 858.354L158.122 855.172C158.318 854.976 158.318 854.66 158.122 854.464C157.927 854.269 157.611 854.269 157.415 854.464L154.587 857.293L151.758 854.464C151.563 854.269 151.247 854.269 151.051 854.464C150.856 854.66 150.856 854.976 151.051 855.172L154.233 858.354ZM154.087 764L154.087 858L155.087 858L155.087 764L154.087 764Z" fill="#B8B8B8"/>
<path d="M61.5323 793.931C61.7276 794.126 62.0442 794.126 62.2394 793.931L65.4214 790.749C65.6167 790.553 65.6167 790.237 65.4214 790.041C65.2261 789.846 64.9096 789.846 64.7143 790.041L61.8859 792.87L59.0574 790.041C58.8622 789.846 58.5456 789.846 58.3503 790.041C58.1551 790.237 58.1551 790.553 58.3503 790.749L61.5323 793.931ZM154.087 764L154.087 775.005L155.087 775.005L155.087 764L154.087 764ZM150.587 778.505L65.8859 778.505L65.8859 779.505L150.587 779.505L150.587 778.505ZM61.3859 783.005L61.3859 793.577L62.3859 793.577L62.3859 783.005L61.3859 783.005ZM65.8859 778.505C63.4006 778.505 61.3859 780.52 61.3859 783.005L62.3859 783.005C62.3859 781.072 63.9529 779.505 65.8859 779.505L65.8859 778.505ZM154.087 775.005C154.087 776.938 152.52 778.505 150.587 778.505L150.587 779.505C153.072 779.505 155.087 777.49 155.087 775.005L154.087 775.005Z" fill="#B8B8B8"/>
<path d="M154.233 956.449C154.428 956.644 154.745 956.644 154.94 956.449L158.122 953.267C158.318 953.072 158.318 952.755 158.122 952.56C157.927 952.364 157.61 952.364 157.415 952.56L154.587 955.388L151.758 952.56C151.563 952.364 151.247 952.364 151.051 952.56C150.856 952.755 150.856 953.072 151.051 953.267L154.233 956.449ZM246.968 931.569L247.468 931.569L246.968 931.569ZM246.468 849.5L246.468 931.569L247.468 931.569L247.468 849.5L246.468 849.5ZM242.968 935.069L158.587 935.069L158.587 936.069L242.968 936.069L242.968 935.069ZM154.087 939.569L154.087 956.095L155.087 956.095L155.087 939.569L154.087 939.569ZM158.587 935.069C156.102 935.069 154.087 937.083 154.087 939.569L155.087 939.569C155.087 937.636 156.654 936.069 158.587 936.069L158.587 935.069ZM246.468 931.569C246.468 933.502 244.901 935.069 242.968 935.069L242.968 936.069C245.453 936.069 247.468 934.054 247.468 931.569L246.468 931.569Z" fill="#B8B8B8"/>
<path d="M154.233 956.449C154.429 956.644 154.745 956.644 154.94 956.449L158.122 953.267C158.318 953.071 158.318 952.755 158.122 952.559C157.927 952.364 157.611 952.364 157.415 952.559L154.587 955.388L151.758 952.559C151.563 952.364 151.247 952.364 151.051 952.559C150.856 952.755 150.856 953.071 151.051 953.267L154.233 956.449ZM154.587 940L154.087 940L154.587 940ZM61.3859 850L61.3859 932L62.3859 932L62.3859 850L61.3859 850ZM65.8859 936.5L150.587 936.5L150.587 935.5L65.8859 935.5L65.8859 936.5ZM154.087 940L154.087 956.095L155.087 956.095L155.087 940L154.087 940ZM150.587 936.5C152.52 936.5 154.087 938.067 154.087 940L155.087 940C155.087 937.515 153.072 935.5 150.587 935.5L150.587 936.5ZM61.3859 932C61.3859 934.485 63.4006 936.5 65.8859 936.5L65.8859 935.5C63.9529 935.5 62.3859 933.933 62.3859 932L61.3859 932Z" fill="#B8B8B8"/>
<rect x="93.2095" y="15" width="125.291" height="53.2906" rx="9.07265" fill="#3B76F3"/>
<path d="M116.327 47.2896C118.698 47.2896 120.394 45.9854 120.389 44.1812C120.394 42.8667 119.559 41.9285 118.008 41.7326V41.6501C119.188 41.4388 120.003 40.6037 119.997 39.418C120.003 37.753 118.544 36.4437 116.358 36.4437C114.193 36.4437 112.564 37.7118 112.533 39.5366H114.672C114.698 38.7324 115.435 38.2118 116.348 38.2118C117.25 38.2118 117.853 38.7582 117.848 39.5521C117.853 40.382 117.147 40.9439 116.131 40.9439H115.147V42.5832H116.131C117.327 42.5832 118.075 43.1811 118.069 44.0317C118.075 44.8719 117.353 45.4493 116.332 45.4493C115.348 45.4493 114.61 44.9338 114.569 44.1606H112.322C112.358 46.006 114.007 47.2896 116.327 47.2896ZM124.112 39.2273H122.014V47.1453H124.112V44.0368H126.819V47.1453H128.901V39.2273H126.819V42.31H124.112V39.2273ZM132.863 47.2948C134.033 47.2948 134.791 46.7844 135.177 46.0473H135.239V47.1453H137.322V41.8048C137.322 39.9181 135.724 39.1242 133.961 39.1242C132.064 39.1242 130.816 40.0315 130.512 41.4749L132.543 41.6398C132.693 41.114 133.162 40.7274 133.95 40.7274C134.698 40.7274 135.126 41.1037 135.126 41.7532V41.7842C135.126 42.2945 134.585 42.3615 133.208 42.4955C131.641 42.6399 130.234 43.1657 130.234 44.9338C130.234 46.5009 131.352 47.2948 132.863 47.2948ZM133.492 45.7792C132.816 45.7792 132.332 45.4648 132.332 44.8616C132.332 44.243 132.842 43.9389 133.615 43.8307C134.095 43.7636 134.878 43.6502 135.141 43.475V44.3152C135.141 45.1452 134.456 45.7792 133.492 45.7792ZM139.025 47.1453H141.221V44.3358H142.041L143.995 47.1453H146.603L143.773 43.1554L146.572 39.2273H143.995L141.84 42.2996H141.221V39.2273H139.025V47.1453ZM150.783 47.2999C153.185 47.2999 154.68 45.6555 154.68 43.2172C154.68 40.7635 153.185 39.1242 150.783 39.1242C148.38 39.1242 146.885 40.7635 146.885 43.2172C146.885 45.6555 148.38 47.2999 150.783 47.2999ZM150.793 45.5988C149.685 45.5988 149.118 44.5833 149.118 43.2018C149.118 41.8202 149.685 40.7996 150.793 40.7996C151.881 40.7996 152.448 41.8202 152.448 43.2018C152.448 44.5833 151.881 45.5988 150.793 45.5988ZM160.788 44.7173L158.706 39.2273H156.108V47.1453H158.206V42.2842L160.056 47.1453H161.515L163.479 42.1089V47.1453H165.551V39.2273H162.933L160.788 44.7173ZM170.827 47.2999C172.936 47.2999 174.261 46.0627 174.364 44.243H172.291C172.163 45.0885 171.606 45.5627 170.853 45.5627C169.827 45.5627 169.162 44.7018 169.162 43.1863C169.162 41.6914 169.833 40.8356 170.853 40.8356C171.657 40.8356 172.173 41.3666 172.291 42.1553H174.364C174.271 40.3253 172.884 39.1242 170.817 39.1242C168.415 39.1242 166.93 40.7893 166.93 43.2172C166.93 45.6246 168.389 47.2999 170.827 47.2999ZM175.244 40.9542H177.775V47.1453H179.868V40.9542H182.42V39.2273H175.244V40.9542ZM183.751 47.1453H187.648C189.627 47.1453 190.731 46.3359 190.731 44.9854C190.731 43.9441 189.906 43.1193 188.483 43.0162C189.617 42.8203 190.292 42.2223 190.292 41.3666C190.292 39.9954 189.081 39.2273 187.127 39.2273H183.751V47.1453ZM185.797 45.5008V43.7739H187.648C188.256 43.7739 188.627 44.1193 188.627 44.6812C188.627 45.1916 188.256 45.5008 187.648 45.5008H185.797ZM185.797 42.4852V40.9078H187.127C187.808 40.9078 188.225 41.2016 188.225 41.6862C188.225 42.1862 187.828 42.4852 187.174 42.4852H185.797ZM195.692 47.2999C198.094 47.2999 199.589 45.6555 199.589 43.2172C199.589 40.7635 198.094 39.1242 195.692 39.1242C193.29 39.1242 191.795 40.7635 191.795 43.2172C191.795 45.6555 193.29 47.2999 195.692 47.2999ZM195.702 45.5988C194.594 45.5988 194.027 44.5833 194.027 43.2018C194.027 41.8202 194.594 40.7996 195.702 40.7996C196.79 40.7996 197.357 41.8202 197.357 43.2018C197.357 44.5833 196.79 45.5988 195.702 45.5988Z" fill="white"/>
<rect x="188" y="510" width="102.336" height="51.5286" rx="8.07265" fill="#F9F9F9"/>
<path d="M214.498 530.588H206.622V541.145H207.9V531.722H213.22V541.145H214.498V530.588ZM216.912 544.114H218.129V539.929H218.232C218.5 540.362 219.015 541.31 220.541 541.31C222.521 541.31 223.902 539.723 223.902 537.207C223.902 534.712 222.521 533.124 220.521 533.124C218.974 533.124 218.5 534.073 218.232 534.485H218.088V533.227H216.912V544.114ZM218.108 537.186C218.108 535.413 218.892 534.217 220.376 534.217C221.923 534.217 222.686 535.516 222.686 537.186C222.686 538.877 221.902 540.217 220.376 540.217C218.912 540.217 218.108 538.98 218.108 537.186ZM228.975 541.31C231.119 541.31 232.563 539.681 232.563 537.228C232.563 534.753 231.119 533.124 228.975 533.124C226.83 533.124 225.387 534.753 225.387 537.228C225.387 539.681 226.83 541.31 228.975 541.31ZM228.975 540.217C227.346 540.217 226.603 538.815 226.603 537.228C226.603 535.64 227.346 534.217 228.975 534.217C230.604 534.217 231.346 535.64 231.346 537.228C231.346 538.815 230.604 540.217 228.975 540.217ZM233.385 534.361H236.003V541.145H237.22V534.361H239.818V533.227H233.385V534.361ZM244.398 541.31C246.543 541.31 247.986 539.681 247.986 537.228C247.986 534.753 246.543 533.124 244.398 533.124C242.254 533.124 240.81 534.753 240.81 537.228C240.81 539.681 242.254 541.31 244.398 541.31ZM244.398 540.217C242.769 540.217 242.027 538.815 242.027 537.228C242.027 535.64 242.769 534.217 244.398 534.217C246.027 534.217 246.77 535.64 246.77 537.228C246.77 538.815 246.027 540.217 244.398 540.217ZM248.808 534.361H251.427V541.145H252.644V534.361H255.242V533.227H248.808V534.361ZM258.233 539.351V533.227H257.016V541.145H258.439L262.233 535.021V541.145H263.45V533.227H262.047L258.233 539.351ZM265.678 541.145H266.894V534.361H270.688V541.145H271.905V533.227H265.678V541.145Z" fill="black"/>
<rect x="188" y="510" width="102.336" height="51.5286" rx="8.07265" stroke="#3B76F3" stroke-width="2"/>
</svg>
