<svg width="18" height="13" viewBox="0 0 18 13" fill="none" xmlns="http://www.w3.org/2000/svg">
<path d="M8.30386 8.55255C8.69174 8.92868 9.30826 8.92868 9.69615 8.55255L16.2284 2.21823C16.8733 1.59285 16.4306 0.500327 15.5323 0.500327H2.46773C1.56939 0.500327 1.12667 1.59285 1.77159 2.21823L8.30386 8.55255Z" stroke="#8C8C8C"/>
<path d="M8.30288 8.55255L8.65095 8.1936L8.30288 8.55255ZM9.69517 8.55255L9.3471 8.1936L9.69517 8.55255ZM1.77061 2.21823L1.42254 2.57718H1.42254L1.77061 2.21823ZM16.2274 2.21823L16.5755 2.57718L16.2274 2.21823ZM1.55859 1.5C1.55859 1.22386 1.78245 1 2.05859 1V0C1.23017 0 0.558594 0.671573 0.558594 1.5H1.55859ZM1.55859 11.5V1.5H0.558594V11.5H1.55859ZM2.05859 12C1.78245 12 1.55859 11.7761 1.55859 11.5H0.558594C0.558594 12.3284 1.23017 13 2.05859 13V12ZM15.9409 12H2.05859V13H15.9409V12ZM16.4409 11.5C16.4409 11.7761 16.2171 12 15.9409 12V13C16.7694 13 17.4409 12.3284 17.4409 11.5H16.4409ZM16.4409 1.5V11.5H17.4409V1.5H16.4409ZM15.9409 1C16.2171 1 16.4409 1.22386 16.4409 1.5H17.4409C17.4409 0.671573 16.7694 0 15.9409 0V1ZM2.05859 1H15.9409V0H2.05859V1ZM7.95481 8.9115C8.53664 9.4757 9.46141 9.4757 10.0432 8.9115L9.3471 8.1936C9.15315 8.38167 8.8449 8.38167 8.65095 8.1936L7.95481 8.9115ZM1.42254 2.57718L7.95481 8.9115L8.65095 8.1936L2.11868 1.85928L1.42254 2.57718ZM2.46675 0.00032711C1.11924 0.00032711 0.455156 1.63911 1.42254 2.57718L2.11868 1.85928C1.79622 1.54659 2.01758 1.00033 2.46675 1.00033V0.00032711ZM15.5313 0.00032711H2.46675V1.00033H15.5313V0.00032711ZM16.5755 2.57718C17.5429 1.63911 16.8788 0.00032711 15.5313 0.00032711V1.00033C15.9805 1.00033 16.2018 1.54659 15.8794 1.85928L16.5755 2.57718ZM10.0432 8.9115L16.5755 2.57718L15.8794 1.85928L9.3471 8.1936L10.0432 8.9115Z" fill="#8C8C8C"/>
</svg>
