<svg width="16" height="15" viewBox="0 0 16 15" fill="none" xmlns="http://www.w3.org/2000/svg">
<path d="M5.78049 5.47679L6.23484 4.93633C6.62428 4.50846 6.81901 3.92295 6.77573 3.33745C6.7541 2.75194 6.49447 2.21148 6.08339 1.80613L5.3045 1.06299C4.91506 0.702675 4.41743 0.5 3.87654 0.5C3.27074 0.5 2.70821 0.770233 2.29713 1.22062L1.84278 1.76109C1.77787 1.82865 1.7346 1.8962 1.66969 1.98628L1.64805 2.0088C1.21534 2.39163 0.84753 3.33745 1.06389 4.50846C2.05913 9.8906 6.40793 13.9891 11.6654 14.4846C12.3578 14.5521 13.0068 14.3945 13.4828 14.0792C13.6776 13.9666 13.8506 13.809 14.0021 13.6513L14.4564 13.1109C15.2353 12.2101 15.1704 10.8139 14.305 9.98068L13.5261 9.23754C13.1367 8.87723 12.639 8.67455 12.0981 8.67455C11.4923 8.67455 10.9298 8.94478 10.5187 9.39517L10.0644 9.93564C9.86965 10.1608 9.7182 10.4311 9.63166 10.7238L9.58839 10.8589L9.45857 10.8139C7.42481 9.95816 5.73722 8.35928 4.74197 6.28749L4.67706 6.15238L4.82851 6.10734C5.19632 5.99474 5.52086 5.76955 5.78049 5.47679Z" stroke="#8C8C8C"/>
</svg>
