<svg width="12" height="13" viewBox="0 0 12 13" fill="none" xmlns="http://www.w3.org/2000/svg">
<path d="M6.00455 0.770346C5.92026 0.770259 5.83678 0.786798 5.75889 0.819015C5.68099 0.851232 5.61022 0.898495 5.55062 0.958098C5.49101 1.0177 5.44375 1.08847 5.41154 1.16637C5.37932 1.24426 5.36278 1.32774 5.36287 1.41203L5.35832 5.85832L0.907479 5.85831C0.823212 5.85831 0.73977 5.87491 0.661917 5.90716C0.584064 5.93941 0.513326 5.98667 0.45374 6.04626C0.394154 6.10585 0.346887 6.17658 0.31464 6.25444C0.282392 6.33229 0.265794 6.41573 0.265794 6.5C0.265794 6.58427 0.282392 6.66771 0.31464 6.74556C0.346887 6.82342 0.394154 6.89415 0.45374 6.95374C0.513326 7.01333 0.584064 7.06059 0.661917 7.09284C0.73977 7.12509 0.823212 7.14169 0.907479 7.14169L5.35832 7.14168L5.35831 11.5925C5.35831 11.6768 5.37491 11.7602 5.40716 11.8381C5.43941 11.9159 5.48667 11.9867 5.54626 12.0463C5.60585 12.1058 5.67658 12.1531 5.75444 12.1854C5.83229 12.2176 5.91573 12.2342 6 12.2342C6.08427 12.2342 6.16771 12.2176 6.24556 12.1854C6.32341 12.1531 6.39415 12.1058 6.45374 12.0463C6.51333 11.9867 6.56059 11.9159 6.59284 11.8381C6.62509 11.7602 6.64168 11.6768 6.64168 11.5925L6.64168 7.14168L11.0925 7.14168C11.1768 7.14168 11.2602 7.12509 11.3381 7.09284C11.4159 7.06059 11.4867 7.01333 11.5463 6.95374C11.6058 6.89415 11.6531 6.82341 11.6854 6.74556C11.7176 6.66771 11.7342 6.58427 11.7342 6.5C11.7342 6.41573 11.7176 6.33229 11.6854 6.25444C11.6531 6.17659 11.6058 6.10585 11.5463 6.04626C11.4867 5.98667 11.4159 5.93941 11.3381 5.90716C11.2602 5.87491 11.1768 5.85832 11.0925 5.85832L6.64168 5.85832L6.64168 1.40748C6.64168 1.06161 6.35042 0.770346 6.00455 0.770346Z" fill="#333333"/>
</svg>
