<svg width="147" height="60" viewBox="0 0 147 60" fill="none" xmlns="http://www.w3.org/2000/svg">
<g opacity="0.5">
<g clip-path="url(#clip0_2563:12427)">
<path d="M57.7182 5.55884H28.4241L24.3652 11.9118L45.5417 24.9706L57.7182 5.55884Z" fill="black"/>
<path d="M24.3656 11.9118L4.77734 -0.264648V29.0295L11.6597 32.9118L45.542 24.9706L24.3656 11.9118Z" fill="#222222"/>
<path d="M51.8952 30.9707L45.5422 27.0884L32.4834 48.0884L51.8952 60.2648V30.9707Z" fill="#383838"/>
<path d="M45.5424 27.0884L11.4836 35.206L-0.692871 54.2648H28.6012L32.4836 48.0884L45.5424 27.0884Z" fill="#616161"/>
</g>
<path d="M78.7622 20.8182V39H81.3722V25.8342H81.5409L86.9031 38.9734H89.0693L94.4316 25.843H94.6002V39H97.2103V20.8182H93.8811L88.0928 34.9517H87.8797L82.0914 20.8182H78.7622ZM106.73 39.2752C110.574 39.2752 113.086 36.4609 113.086 32.244C113.086 28.0004 110.574 25.1861 106.73 25.1861C102.885 25.1861 100.373 28.0004 100.373 32.244C100.373 36.4609 102.885 39.2752 106.73 39.2752ZM106.738 37.0469C104.226 37.0469 103.054 34.854 103.054 32.2351C103.054 29.625 104.226 27.4055 106.738 27.4055C109.233 27.4055 110.405 29.625 110.405 32.2351C110.405 34.854 109.233 37.0469 106.738 37.0469ZM121.154 39.2663C123.64 39.2663 124.616 37.7482 125.096 36.8782H125.318V39H127.91V20.8182H125.255V27.5742H125.096C124.616 26.7308 123.711 25.1861 121.172 25.1861C117.878 25.1861 115.454 27.7873 115.454 32.2085C115.454 36.6207 117.842 39.2663 121.154 39.2663ZM121.74 37.0025C119.369 37.0025 118.135 34.9162 118.135 32.1818C118.135 29.4741 119.343 27.4411 121.74 27.4411C124.057 27.4411 125.3 29.332 125.3 32.1818C125.3 35.0494 124.03 37.0025 121.74 37.0025ZM133.82 20.8182H130.642L136.404 29.9091L130.607 39H133.803L138.17 31.9865H138.312L142.68 39H145.876L140.177 29.9091L145.841 20.8182H142.663L138.312 27.9293H138.17L133.82 20.8182Z" fill="#333333"/>
</g>
<defs>
<clipPath id="clip0_2563:12427">
<rect width="61.7647" height="60" fill="white"/>
</clipPath>
</defs>
</svg>
