<svg width="147" height="60" viewBox="0 0 147 60" fill="none" xmlns="http://www.w3.org/2000/svg">
<g opacity="0.5">
<g clip-path="url(#clip0_2563:12350)">
<path d="M12.7026 0H15.3979V2.67188H17.8823V0H20.5776V8.08594H17.8823V5.39062H15.4214V8.08594H12.7026V0ZM24.1401 2.69531H21.7612V0H29.2261V2.69531H26.8354V8.08594H24.1401V2.69531ZM30.4097 0H33.2339L34.9683 2.84766L36.7026 0H39.5269V8.08594H36.8315V4.07812L34.9448 6.98438L33.0581 4.07812V8.08594H30.4097V0ZM40.8628 0H43.5581V5.41406H47.3784V8.08594H40.8628" fill="black"/>
<path d="M12.6099 55.1953L8.74268 11.7891H51.2583L47.3911 55.1719L29.9653 60" fill="black"/>
<path d="M30 56.3086V15.3516H47.3789L44.0625 52.3828" fill="#545454"/>
<path d="M16.6406 20.6602H30V25.9805H22.4766L22.9688 31.4297H30V36.7383H18.0937L16.6406 20.6602ZM18.3281 39.4102H23.6719L24.0469 43.6641L30 45.2578V50.8125L19.0781 47.7656" fill="#EBEBEB"/>
<path d="M43.3125 20.6602H29.9766V25.9805H42.8203L43.3125 20.6602ZM42.3399 31.4297H29.9766V36.75H36.5391L35.918 43.6641L29.9766 45.2578V50.7891L40.875 47.7656" fill="white"/>
</g>
<path d="M76.9975 39H79.7408V31.0721H88.805V39H91.5572V20.8182H88.805V28.7195H79.7408V20.8182H76.9975V39ZM94.6555 23.1797H100.32V39H103.054V23.1797H108.727V20.8182H94.6555V23.1797ZM111.836 20.8182V39H114.446V25.8342H114.615L119.977 38.9734H122.144L127.506 25.843H127.674V39H130.285V20.8182H126.955L121.167 34.9517H120.954L115.166 20.8182H111.836ZM134.273 39H145.255V36.6385H137.016V20.8182H134.273V39Z" fill="#333333"/>
</g>
<defs>
<clipPath id="clip0_2563:12350">
<rect width="60" height="60" fill="white"/>
</clipPath>
</defs>
</svg>
