<svg width="204" height="60" viewBox="0 0 204 60" fill="none" xmlns="http://www.w3.org/2000/svg">
<g opacity="0.5">
<g clip-path="url(#clip0_2563:12418)">
<path d="M4.26416 29.9992C4.26416 40.186 10.1842 48.9894 18.7687 53.1612L6.49231 19.5254C5.06434 22.7261 4.26416 26.2681 4.26416 29.9992Z" fill="black"/>
<path d="M47.3742 28.7006C47.3742 25.52 46.2317 23.3173 45.2518 21.6029C43.9472 19.4829 42.7244 17.6877 42.7244 15.5678C42.7244 13.202 44.5187 10.9998 47.0461 10.9998C47.1602 10.9998 47.2684 11.014 47.3796 11.0204C42.8008 6.82556 36.7006 4.2644 30.0005 4.2644C21.0095 4.2644 13.0993 8.87742 8.49756 15.8645C9.10136 15.8826 9.6704 15.8954 10.1537 15.8954C12.8456 15.8954 17.0125 15.5687 17.0125 15.5687C18.3999 15.4869 18.5634 17.5246 17.1776 17.6887C17.1776 17.6887 15.7834 17.8527 14.232 17.934L23.6039 45.8104L29.236 28.919L25.2263 17.933C23.8405 17.8517 22.5276 17.6877 22.5276 17.6877C21.1407 17.6064 21.3033 15.486 22.6902 15.5678C22.6902 15.5678 26.9403 15.8944 29.4691 15.8944C32.1605 15.8944 36.3279 15.5678 36.3279 15.5678C37.7162 15.486 37.8793 17.5236 36.493 17.6877C36.493 17.6877 35.0958 17.8517 33.5474 17.933L42.8478 45.5984L45.4149 37.0202C46.5275 33.4606 47.3742 30.9038 47.3742 28.7006Z" fill="black"/>
<path d="M30.4516 32.2505L22.73 54.6882C25.0355 55.366 27.4737 55.7367 30.0001 55.7367C32.9971 55.7367 35.8712 55.2186 38.5464 54.2779C38.4774 54.1677 38.4147 54.0506 38.3633 53.9233L30.4516 32.2505Z" fill="black"/>
<path d="M52.5827 17.6519C52.6934 18.4716 52.7561 19.3516 52.7561 20.2982C52.7561 22.9098 52.2683 25.8456 50.7992 29.5164L42.938 52.245C50.5891 47.7833 55.7354 39.4941 55.7354 29.9997C55.7359 25.5253 54.5929 21.3178 52.5827 17.6519Z" fill="black"/>
<path d="M30.0002 0C13.4585 0 0 13.4576 0 29.9993C0 46.5429 13.4585 60 30.0002 60C46.5415 60 60.002 46.5429 60.002 29.9993C60.0015 13.4576 46.5415 0 30.0002 0ZM30.0002 58.6249C14.2171 58.6249 1.37558 45.7834 1.37558 29.9993C1.37558 14.2161 14.2166 1.37558 30.0002 1.37558C45.7829 1.37558 58.6234 14.2161 58.6234 29.9993C58.6234 45.7834 45.7829 58.6249 30.0002 58.6249Z" fill="black"/>
</g>
<path d="M80.5561 39H83.3259L87.1523 25.3814H87.2943L91.1207 39H93.8817L98.9332 20.8182H96.039L92.5056 34.9073H92.337L88.6527 20.8182H85.794L82.1097 34.8984H81.941L78.3987 20.8182H75.5134L80.5561 39ZM105.623 39.2752C109.467 39.2752 111.979 36.4609 111.979 32.244C111.979 28.0004 109.467 25.1861 105.623 25.1861C101.779 25.1861 99.2661 28.0004 99.2661 32.244C99.2661 36.4609 101.779 39.2752 105.623 39.2752ZM105.632 37.0469C103.119 37.0469 101.947 34.854 101.947 32.2351C101.947 29.625 103.119 27.4055 105.632 27.4055C108.126 27.4055 109.298 29.625 109.298 32.2351C109.298 34.854 108.126 37.0469 105.632 37.0469ZM114.942 39H117.597V30.6726C117.597 28.8881 118.973 27.6009 120.855 27.6009C121.405 27.6009 122.027 27.6985 122.24 27.7607V25.2216C121.973 25.1861 121.45 25.1594 121.112 25.1594C119.514 25.1594 118.147 26.065 117.65 27.5298H117.508V25.3636H114.942V39ZM129.153 39.2663C131.639 39.2663 132.616 37.7482 133.095 36.8782H133.317V39H135.909V20.8182H133.255V27.5742H133.095C132.616 26.7308 131.71 25.1861 129.171 25.1861C125.877 25.1861 123.454 27.7873 123.454 32.2085C123.454 36.6207 125.842 39.2663 129.153 39.2663ZM129.739 37.0025C127.369 37.0025 126.135 34.9162 126.135 32.1818C126.135 29.4741 127.342 27.4411 129.739 27.4411C132.056 27.4411 133.299 29.332 133.299 32.1818C133.299 35.0494 132.03 37.0025 129.739 37.0025ZM139.698 44.1136H142.352V36.8782H142.512C142.992 37.7482 143.968 39.2663 146.454 39.2663C149.757 39.2663 152.154 36.6207 152.154 32.2085C152.154 27.7873 149.721 25.1861 146.427 25.1861C143.897 25.1861 142.983 26.7308 142.512 27.5742H142.29V25.3636H139.698V44.1136ZM142.299 32.1818C142.299 29.332 143.542 27.4411 145.859 27.4411C148.265 27.4411 149.473 29.4741 149.473 32.1818C149.473 34.9162 148.23 37.0025 145.859 37.0025C143.578 37.0025 142.299 35.0494 142.299 32.1818ZM155.128 39H157.782V30.6726C157.782 28.8881 159.158 27.6009 161.04 27.6009C161.591 27.6009 162.212 27.6985 162.425 27.7607V25.2216C162.159 25.1861 161.635 25.1594 161.298 25.1594C159.7 25.1594 158.333 26.065 157.835 27.5298H157.693V25.3636H155.128V39ZM170.111 39.2752C173.085 39.2752 175.189 37.8104 175.793 35.5909L173.281 35.1381C172.801 36.4254 171.647 37.0824 170.138 37.0824C167.865 37.0824 166.338 35.6087 166.267 32.9808H175.962V32.0398C175.962 27.1126 173.014 25.1861 169.925 25.1861C166.125 25.1861 163.622 28.0803 163.622 32.2706C163.622 36.5053 166.09 39.2752 170.111 39.2752ZM166.276 30.9922C166.383 29.0568 167.785 27.3789 169.943 27.3789C172.002 27.3789 173.352 28.9059 173.361 30.9922H166.276ZM189.125 28.6928C188.575 26.571 186.915 25.1861 183.967 25.1861C180.887 25.1861 178.703 26.8107 178.703 29.2255C178.703 31.1609 179.875 32.4482 182.432 33.0163L184.74 33.5224C186.054 33.8153 186.666 34.4013 186.666 35.2536C186.666 36.31 185.539 37.1357 183.799 37.1357C182.21 37.1357 181.189 36.4521 180.869 35.1115L178.303 35.5021C178.747 37.9169 180.754 39.2752 183.816 39.2752C187.11 39.2752 189.392 37.5263 189.392 35.0582C189.392 33.1317 188.167 31.9421 185.663 31.3651L183.497 30.8679C181.996 30.5128 181.348 30.0067 181.357 29.0835C181.348 28.0359 182.485 27.2901 183.994 27.2901C185.645 27.2901 186.409 28.2045 186.72 29.119L189.125 28.6928ZM202.529 28.6928C201.978 26.571 200.318 25.1861 197.371 25.1861C194.29 25.1861 192.106 26.8107 192.106 29.2255C192.106 31.1609 193.278 32.4482 195.835 33.0163L198.143 33.5224C199.457 33.8153 200.07 34.4013 200.07 35.2536C200.07 36.31 198.942 37.1357 197.202 37.1357C195.613 37.1357 194.592 36.4521 194.272 35.1115L191.707 35.5021C192.151 37.9169 194.157 39.2752 197.22 39.2752C200.513 39.2752 202.795 37.5263 202.795 35.0582C202.795 33.1317 201.57 31.9421 199.066 31.3651L196.9 30.8679C195.4 30.5128 194.752 30.0067 194.761 29.0835C194.752 28.0359 195.888 27.2901 197.397 27.2901C199.049 27.2901 199.812 28.2045 200.123 29.119L202.529 28.6928Z" fill="#333333"/>
</g>
<defs>
<clipPath id="clip0_2563:12418">
<rect width="59.9985" height="60" fill="white"/>
</clipPath>
</defs>
</svg>
