<svg width="137" height="60" viewBox="0 0 137 60" fill="none" xmlns="http://www.w3.org/2000/svg">
<g opacity="0.5">
<g clip-path="url(#clip0_2563:12378)">
<path d="M24.173 59.6541C18.933 58.569 14.0434 56.1485 10.2048 52.7393C0.350261 43.9871 -2.69532 30.2379 2.51061 18.0041C3.78905 14.9998 5.86745 11.9509 8.44265 9.30208L10.713 6.96684L10.8731 20.6349C11.0264 33.7177 11.0609 34.3767 11.6798 36.0253C12.9179 39.3235 14.2451 41.4234 16.5301 43.699C22.4325 49.5771 31.0901 51.0441 38.4499 47.4132C45.3675 44.0004 49.7287 36.5796 49.2219 29.0839C48.8815 24.049 47.1882 20.3569 43.5325 16.6783C40.7682 13.8967 37.5159 12.0797 33.9751 11.3389C30.3725 10.5851 30.5454 10.475 30.5454 13.5243V16.1568L32.5204 16.5207C40.1691 17.93 45.2277 25.4408 43.6334 33.0208C43.1242 35.4417 41.9885 37.5795 40.1653 39.5487C37.3946 42.5414 33.4965 43.9719 30.0928 43.9653C24.4647 43.9544 19.7651 40.7563 17.4874 36.0268C17.4874 36.0268 16.8907 34.675 16.6989 33.8396C15.5713 28.927 16.2921 18.5855 16.2921 18.5855L16.2047 3.46446L17.0974 3.00286C17.5884 2.74897 18.0592 2.54125 18.1438 2.54125C18.2283 2.54125 18.3356 9.48632 18.3822 17.9747C18.3822 17.9747 17.2982 29.1019 18.6378 33.366C18.8311 33.9813 19.198 35.0335 19.198 35.0335C20.3723 37.4259 22.2543 39.5303 24.6997 40.6887C26.556 41.5679 27.4906 41.9659 30.2369 41.9659C32.0312 41.9659 33.6208 41.3995 35.4498 40.5583C37.606 39.5666 40.0793 36.9374 40.9933 34.5369C43.5116 27.9231 40.0051 20.8075 33.2499 18.8233C30.4891 18.0124 30.5454 17.9678 30.5454 20.9698V23.592L31.8706 23.9464C36.6475 25.2241 38.1051 31.6268 34.3551 34.9167C33.0302 36.0791 31.8364 36.5929 29.7479 36.5929C27.5164 36.5929 25.3743 35.2422 24.2731 33.1705C23.6116 31.9261 23.5558 30.7457 23.5558 30.205C23.5558 25.2112 23.4476 16.23 23.4476 16.23L23.3583 0.823938L24.0441 0.653603C24.4213 0.559916 25.9458 0.3281 27.4319 0.138455C32.472 -0.504715 39.9284 1.14469 44.9378 4.01084C51.7673 7.9184 56.935 14.631 59.0866 22.3897C59.8267 25.0585 59.9092 25.8345 59.9092 30.1277C59.9092 34.4017 59.8248 35.2034 59.1004 37.8138C56.174 48.3589 48.7299 55.8971 38.0859 59.0942C35.8458 59.767 34.7964 59.8953 30.8436 59.9796C27.6538 60.0477 25.5863 59.9468 24.173 59.6541Z" fill="black"/>
</g>
<path d="M76.9067 39H83.8758C88.1017 39 90.0104 36.896 90.0104 34.1083C90.0104 31.294 88.0395 29.7049 86.2373 29.6072V29.4297C87.9063 29.0036 89.3002 27.8672 89.3002 25.5945C89.3002 22.9045 87.4358 20.8182 83.5651 20.8182H76.9067V39ZM79.6499 36.6474V30.8235H83.7071C85.9088 30.8235 87.2849 32.244 87.2849 33.9751C87.2849 35.5021 86.2462 36.6474 83.6095 36.6474H79.6499ZM79.6499 28.6839V23.1531H83.3964C85.5715 23.1531 86.6102 24.2983 86.6102 25.8075C86.6102 27.5653 85.172 28.6839 83.3254 28.6839H79.6499ZM93.051 39H95.7055V25.3636H93.051V39ZM94.3916 23.2596C95.306 23.2596 96.0695 22.5494 96.0695 21.6793C96.0695 20.8093 95.306 20.0902 94.3916 20.0902C93.4683 20.0902 92.7137 20.8093 92.7137 21.6793C92.7137 22.5494 93.4683 23.2596 94.3916 23.2596ZM105.642 25.3636H102.846V22.0966H100.191V25.3636H98.1935V27.4943H100.191V35.5465C100.182 38.0234 102.073 39.2219 104.168 39.1776C105.012 39.1687 105.58 39.0089 105.891 38.8935L105.411 36.7006C105.234 36.7362 104.905 36.8161 104.479 36.8161C103.618 36.8161 102.846 36.532 102.846 34.9961V27.4943H105.642V25.3636ZM108.578 39H111.233V30.6726C111.233 28.8881 112.609 27.6009 114.491 27.6009C115.041 27.6009 115.663 27.6985 115.876 27.7607V25.2216C115.61 25.1861 115.086 25.1594 114.748 25.1594C113.15 25.1594 111.783 26.065 111.286 27.5298H111.144V25.3636H108.578V39ZM118.173 39H120.828V25.3636H118.173V39ZM119.514 23.2596C120.428 23.2596 121.192 22.5494 121.192 21.6793C121.192 20.8093 120.428 20.0902 119.514 20.0902C118.59 20.0902 117.836 20.8093 117.836 21.6793C117.836 22.5494 118.59 23.2596 119.514 23.2596ZM126.494 25.3636H123.582L127.772 32.1818L123.529 39H126.441L129.503 33.9041L132.575 39H135.478L131.19 32.1818L135.443 25.3636H132.54L129.503 30.6726L126.494 25.3636Z" fill="#333333"/>
</g>
<defs>
<clipPath id="clip0_2563:12378">
<rect width="59.9092" height="60" fill="white"/>
</clipPath>
</defs>
</svg>
