<svg width="128" height="60" viewBox="0 0 128 60" fill="none" xmlns="http://www.w3.org/2000/svg">
<g opacity="0.5">
<g clip-path="url(#clip0_2563:12336)">
<path d="M9.92839 60C15.4067 60 19.8529 55.52 19.8529 50V40H9.92839C4.45008 40 0.00390625 44.48 0.00390625 50C0.00390625 55.52 4.45008 60 9.92839 60Z" fill="black"/>
<path d="M0.00390625 30C0.00390625 24.48 4.45008 20 9.92839 20H19.8529V40H9.92839C4.45008 40 0.00390625 35.52 0.00390625 30Z" fill="black"/>
<path d="M0.00439453 10C0.00439453 4.48 4.45056 0 9.92888 0H19.8534V20H9.92888C4.45056 20 0.00439453 15.52 0.00439453 10Z" fill="black"/>
<path d="M19.853 0H29.7775C35.2558 0 39.702 4.48 39.702 10C39.702 15.52 35.2558 20 29.7775 20H19.853V0Z" fill="black"/>
<path d="M39.702 30C39.702 35.52 35.2558 40 29.7775 40C24.2992 40 19.853 35.52 19.853 30C19.853 24.48 24.2992 20 29.7775 20C35.2558 20 39.702 24.48 39.702 30Z" fill="black"/>
</g>
<path d="M56.7036 39H59.4468V31.0721H67.1705V28.7195H59.4468V23.1797H67.9784V20.8182H56.7036V39ZM71.1389 39H73.7934V25.3636H71.1389V39ZM72.4795 23.2596C73.3939 23.2596 74.1574 22.5494 74.1574 21.6793C74.1574 20.8093 73.3939 20.0902 72.4795 20.0902C71.5562 20.0902 70.8016 20.8093 70.8016 21.6793C70.8016 22.5494 71.5562 23.2596 72.4795 23.2596ZM83.0819 44.3977C86.5531 44.3977 89.2342 42.8086 89.2342 39.3018V25.3636H86.633V27.5742H86.4377C85.9672 26.7308 85.0261 25.1861 82.487 25.1861C79.1934 25.1861 76.7697 27.7873 76.7697 32.1286C76.7697 36.4787 79.2466 38.7958 82.4693 38.7958C84.9728 38.7958 85.9405 37.3842 86.4199 36.5142H86.5886V39.1953C86.5886 41.3349 85.1238 42.2582 83.1085 42.2582C80.8979 42.2582 80.0368 41.1484 79.5662 40.3672L77.2846 41.3082C78.0037 42.9773 79.8237 44.3977 83.0819 44.3977ZM83.0552 36.5941C80.6848 36.5941 79.4508 34.7741 79.4508 32.093C79.4508 29.4741 80.6582 27.4411 83.0552 27.4411C85.3723 27.4411 86.6152 29.332 86.6152 32.093C86.6152 34.9073 85.3457 36.5941 83.0552 36.5941ZM92.7942 39H95.4487V30.5927C95.4487 28.755 96.736 27.4766 98.2452 27.4766C99.7189 27.4766 100.74 28.4531 100.74 29.9357V39H103.385V30.3086C103.385 28.6662 104.389 27.4766 106.12 27.4766C107.523 27.4766 108.677 28.2578 108.677 30.1044V39H111.331V29.8558C111.331 26.7397 109.591 25.1861 107.123 25.1861C105.161 25.1861 103.687 26.1271 103.03 27.5831H102.888C102.294 26.0916 101.042 25.1861 99.2218 25.1861C97.4196 25.1861 96.079 26.0827 95.5108 27.5831H95.3422V25.3636H92.7942V39ZM118.857 39.3018C121.112 39.3018 122.382 38.1566 122.888 37.1357H122.994V39H125.587V29.9446C125.587 25.9762 122.462 25.1861 120.296 25.1861C117.828 25.1861 115.555 26.1804 114.667 28.6662L117.162 29.2344C117.552 28.2667 118.547 27.3345 120.331 27.3345C122.044 27.3345 122.923 28.2312 122.923 29.7759V29.8381C122.923 30.8058 121.929 30.788 119.479 31.0721C116.895 31.3739 114.25 32.0487 114.25 35.147C114.25 37.8281 116.265 39.3018 118.857 39.3018ZM119.434 37.1712C117.934 37.1712 116.851 36.4964 116.851 35.1825C116.851 33.7621 118.112 33.256 119.647 33.0518C120.509 32.9364 122.551 32.7056 122.932 32.3239V34.0817C122.932 35.6974 121.645 37.1712 119.434 37.1712Z" fill="#333333"/>
</g>
<defs>
<clipPath id="clip0_2563:12336">
<rect width="39.7059" height="60" fill="white"/>
</clipPath>
</defs>
</svg>
