<svg width="185" height="60" viewBox="0 0 185 60" fill="none" xmlns="http://www.w3.org/2000/svg">
<g opacity="0.5">
<path d="M1.56396 30.0002C1.56396 45.7047 25.7665 58.436 55.6206 58.436C85.4748 58.436 109.677 45.7047 109.677 30.0002C109.677 14.2958 85.4748 1.56432 55.6206 1.56432C25.7665 1.56432 1.56396 14.2958 1.56396 30.0002Z" fill="black"/>
<path d="M55.6208 56.3247C84.3089 56.3247 107.566 44.5387 107.566 30C107.566 15.4616 84.3089 3.67538 55.6208 3.67538C26.9328 3.67538 3.67578 15.4616 3.67578 30C3.67578 44.5387 26.9328 56.3247 55.6208 56.3247Z" fill="#040404"/>
<path d="M30.9334 33.2639C33.2923 33.2639 35.0533 32.8289 36.1676 31.9714C37.2699 31.1226 38.0313 29.6522 38.4303 27.601C38.8024 25.6837 38.6606 24.345 38.0092 23.6226C37.343 22.8847 35.9029 22.5105 33.7287 22.5105H29.9589L27.8691 33.2639H30.9334ZM18.6035 46.5103C18.4285 46.5103 18.2623 46.432 18.1511 46.2967C18.0396 46.1616 17.9944 45.9837 18.0279 45.8119L23.5665 17.315C23.6201 17.0395 23.8615 16.8405 24.1423 16.8405H36.0794C39.831 16.8405 42.6234 17.8591 44.3785 19.8685C46.1431 21.8884 46.688 24.7118 45.998 28.2603C45.7173 29.7059 45.2343 31.0485 44.5627 32.2506C43.8903 33.454 43.0017 34.5675 41.9211 35.5607C40.6275 36.7713 39.1635 37.6492 37.5736 38.1658C36.0088 38.6755 33.9993 38.934 31.6009 38.934H26.7673L25.387 46.0355C25.3334 46.3112 25.0921 46.5103 24.8114 46.5103H18.6035Z" fill="white"/>
<path d="M30.4426 23.0969H33.7289C36.3529 23.0969 37.2644 23.6727 37.5741 24.0158C38.0879 24.5856 38.1849 25.7868 37.8547 27.4896C37.4836 29.3959 36.7958 30.7475 35.81 31.5065C34.8007 32.2835 33.1599 32.6773 30.9336 32.6773H28.5807L30.4426 23.0969ZM36.0796 16.2538H24.1423C23.5807 16.2538 23.098 16.6519 22.9909 17.203L17.4522 45.6999C17.3854 46.0438 17.4757 46.3995 17.6984 46.6699C17.9213 46.9403 18.2533 47.0967 18.6036 47.0967H24.8113C25.373 47.0967 25.8558 46.6986 25.9629 46.1474L27.251 39.5204H31.6011C34.0611 39.5204 36.132 39.2521 37.7558 38.7233C39.4257 38.1807 40.9621 37.2608 42.3219 35.9891C43.4465 34.9545 44.3729 33.7931 45.0748 32.5369C45.7769 31.2803 46.2813 29.879 46.574 28.372C47.3003 24.6368 46.7103 21.6458 44.8204 19.4826C42.9489 17.3401 40.0079 16.2538 36.0796 16.2538ZM27.1575 33.8504H30.9336C33.4364 33.8504 35.3006 33.379 36.5256 32.436C37.7507 31.4928 38.5769 29.9187 39.0063 27.7129C39.4171 25.595 39.23 24.1005 38.445 23.2299C37.659 22.3592 36.0872 21.9238 33.7289 21.9238H29.4756L27.1575 33.8504ZM36.0796 17.4269C39.6707 17.4269 42.2904 18.3693 43.937 20.2543C45.5835 22.1393 46.0793 24.7703 45.4224 28.1483C45.152 29.5398 44.6947 30.812 44.0508 31.9646C43.4062 33.118 42.5645 34.1726 41.5244 35.1289C40.2848 36.2889 38.9077 37.1155 37.3925 37.6078C35.8772 38.1015 33.9473 38.3473 31.6011 38.3473H26.2838L24.8113 45.9236H18.6036L24.1423 17.4269H36.0796Z" fill="white"/>
<path d="M60.2309 38.9338C60.0558 38.9338 59.8898 38.8556 59.7785 38.7203C59.6669 38.5852 59.6217 38.4075 59.6551 38.2354L62.1052 25.6267C62.3382 24.4276 62.2807 23.567 61.9435 23.2033C61.737 22.981 61.1168 22.6081 59.2831 22.6081H54.8444L51.7641 38.4591C51.7105 38.7348 51.469 38.9338 51.1883 38.9338H45.0295C44.8543 38.9338 44.6883 38.8556 44.5768 38.7203C44.4654 38.5852 44.4202 38.4073 44.4537 38.2354L49.9923 9.73859C50.0458 9.46311 50.2873 9.26407 50.5681 9.26407H56.7269C56.9021 9.26407 57.068 9.34228 57.1795 9.47738C57.2909 9.61268 57.3361 9.79041 57.3027 9.96246L55.9661 16.8404H60.741C64.3786 16.8404 66.8453 17.4817 68.2819 18.801C69.7464 20.147 70.2033 22.299 69.6402 25.1982L67.0633 38.4591C67.0097 38.7348 66.7684 38.9338 66.4875 38.9338H60.2309Z" fill="white"/>
<path d="M56.728 8.67739H50.5692C50.0075 8.67739 49.5248 9.07546 49.4176 9.62663L43.879 38.1235C43.8121 38.4674 43.9025 38.823 44.1253 39.0934C44.3482 39.3638 44.6802 39.5203 45.0306 39.5203H51.1894C51.7509 39.5203 52.2338 39.1222 52.341 38.571L55.3291 23.1946H59.2842C61.1148 23.1946 61.499 23.5856 61.5145 23.6024C61.6255 23.7219 61.7716 24.2752 61.5305 25.5148L59.0805 38.1235C59.0136 38.4674 59.1039 38.823 59.3268 39.0934C59.5497 39.3638 59.8817 39.5203 60.2321 39.5203H66.4886C67.0502 39.5203 67.5331 39.1222 67.6402 38.571L70.217 25.3101C70.8217 22.1972 70.3043 19.8622 68.68 18.3692C67.1299 16.9456 64.5335 16.2537 60.7422 16.2537H56.6785L57.8796 10.0744C57.9463 9.73045 57.8561 9.37461 57.6333 9.1044C57.4104 8.834 57.0784 8.67739 56.728 8.67739ZM56.728 9.85049L55.2556 17.4268H60.7422C64.1944 17.4268 66.5756 18.0294 67.8862 19.233C69.1967 20.4374 69.5893 22.3888 69.0656 25.0864L66.4886 38.3472H60.2321L62.6821 25.7386C62.9609 24.3043 62.8585 23.3259 62.3744 22.8043C61.8901 22.2827 60.8599 22.0215 59.2842 22.0215H54.3619L51.1894 38.3472H45.0306L50.5692 9.85049H56.728Z" fill="white"/>
<path d="M79.3855 33.2639C81.7444 33.2639 83.5055 32.8289 84.6197 31.9714C85.722 31.1228 86.4834 29.6523 86.8826 27.601C87.2547 25.6837 87.113 24.345 86.4613 23.6226C85.7952 22.8847 84.355 22.5105 82.1808 22.5105H78.4111L76.3212 33.2639H79.3855ZM67.0558 46.5103C66.8808 46.5103 66.7146 46.432 66.6034 46.2967C66.4919 46.1616 66.4466 45.9837 66.48 45.8119L72.0186 17.315C72.0724 17.0395 72.3137 16.8405 72.5946 16.8405H84.5315C88.2833 16.8405 91.0755 17.8591 92.8309 19.8685C94.5954 21.8882 95.1401 24.7116 94.4503 28.2603C94.1692 29.7059 93.6864 31.0485 93.0148 32.2506C92.3425 33.454 91.4538 34.5675 90.3732 35.5607C89.0797 36.7713 87.6156 37.6492 86.0257 38.1658C84.461 38.6755 82.4514 38.934 80.053 38.934H75.2192L73.8395 46.0355C73.7857 46.3112 73.5444 46.5103 73.2635 46.5103H67.0558Z" fill="white"/>
<path d="M78.8951 23.0969H82.1813C84.8054 23.0969 85.7169 23.6727 86.0266 24.0158C86.5406 24.5856 86.6376 25.7868 86.3072 27.4894C85.9361 29.3959 85.248 30.7475 84.2624 31.5065C83.2532 32.2835 81.6124 32.6773 79.386 32.6773H77.0334L78.8951 23.0969ZM84.5321 16.2538H72.5949C72.0334 16.2538 71.5507 16.6519 71.4435 17.203L65.9049 45.6999C65.838 46.0438 65.9283 46.3995 66.151 46.6699C66.3739 46.9403 66.7059 47.0967 67.0563 47.0967H73.264C73.8255 47.0967 74.3084 46.6986 74.4156 46.1474L75.7034 39.5204H80.0535C82.5135 39.5204 84.5845 39.2521 86.2082 38.7233C87.8781 38.1807 89.4149 37.2606 90.7747 35.9887C91.8994 34.9543 92.8253 33.7931 93.5272 32.5369C94.2293 31.2803 94.7338 29.879 95.0265 28.372C95.7528 24.6366 95.1628 21.6456 93.2729 19.4824C91.4014 17.3401 88.4606 16.2538 84.5321 16.2538ZM75.6102 33.8504H79.386C81.8889 33.8504 83.7531 33.379 84.978 32.436C86.2033 31.4928 87.0294 29.9187 87.4588 27.7129C87.8697 25.595 87.6826 24.1005 86.8974 23.2299C86.1114 22.3592 84.5397 21.9238 82.1813 21.9238H77.9281L75.6102 33.8504ZM84.5321 17.4269C88.1231 17.4269 90.7429 18.3693 92.3895 20.2543C94.0362 22.1393 94.5318 24.7703 93.8749 28.1483C93.6045 29.5398 93.1472 30.812 92.5033 31.9646C91.8587 33.118 91.017 34.1726 89.9768 35.1289C88.7373 36.2889 87.3602 37.1155 85.845 37.6078C84.3297 38.1015 82.3997 38.3473 80.0535 38.3473H74.7362L73.264 45.9236H67.0563L72.5949 17.4269H84.5321Z" fill="white"/>
<path d="M134.855 39H137.599V32.608H141.327C145.544 32.608 147.631 30.06 147.631 26.7042C147.631 23.3572 145.562 20.8182 141.336 20.8182H134.855V39ZM137.599 30.282V23.1708H141.043C143.76 23.1708 144.87 24.6445 144.87 26.7042C144.87 28.7638 143.76 30.282 141.079 30.282H137.599ZM150.847 39H153.59V31.0721H162.654V39H165.406V20.8182H162.654V28.7195H153.59V20.8182H150.847V39ZM169.401 39H172.145V32.608H175.873C180.09 32.608 182.177 30.06 182.177 26.7042C182.177 23.3572 180.108 20.8182 175.882 20.8182H169.401V39ZM172.145 30.282V23.1708H175.589C178.306 23.1708 179.416 24.6445 179.416 26.7042C179.416 28.7638 178.306 30.282 175.625 30.282H172.145Z" fill="#333333"/>
</g>
</svg>
