<svg width="192" height="60" viewBox="0 0 192 60" fill="none" xmlns="http://www.w3.org/2000/svg">
<g opacity="0.5">
<g clip-path="url(#clip0_2563:12543)">
<path d="M10.9375 0H50.8272C56.875 0 61.7647 4.8718 61.7647 10.8974V49.1026C61.7647 55.1282 56.875 60 50.8272 60H10.9375C4.88971 60 0 55.1282 0 49.1026V10.8974C0 4.8718 4.88971 0 10.9375 0Z" fill="black"/>
<path d="M29.853 35.8974H20.2794L18.3235 41.923C18.2721 42.1538 18.0662 42.3076 17.8346 42.282H12.9963C12.7133 42.282 12.636 42.1282 12.7133 41.8205L21 18.0512C21.0772 17.7948 21.1544 17.5128 21.2574 17.2051C21.3603 16.6666 21.4118 16.1025 21.4118 15.5384C21.386 15.4102 21.489 15.282 21.6177 15.2563H21.6949H28.2831C28.489 15.2563 28.5919 15.3333 28.6177 15.4615L38.011 41.8717C38.0882 42.1538 38.011 42.282 37.7537 42.282H32.375C32.1949 42.3076 32.0147 42.1794 31.9632 41.9999L29.853 35.8974ZM21.7721 30.6922H28.3088C28.1544 30.1538 27.9485 29.5128 27.7169 28.8461C27.4853 28.1538 27.2537 27.4102 27.0221 26.641C26.7647 25.8461 26.5331 25.0769 26.2757 24.282C26.0184 23.4871 25.7868 22.7435 25.5809 21.9999C25.375 21.282 25.1949 20.6153 25.0147 19.9999H24.9633C24.7316 21.1025 24.4485 22.2051 24.0882 23.3076C23.7022 24.5384 23.3162 25.8205 22.9044 27.1025C22.5441 28.4102 22.1581 29.6153 21.7721 30.6922Z" fill="#777777"/>
<path d="M43.7504 19.7435C42.9012 19.7692 42.0776 19.4358 41.46 18.8461C40.8681 18.2051 40.5592 17.3589 40.585 16.4871C40.5592 15.6153 40.8938 14.7948 41.5115 14.2051C42.1291 13.6153 42.9526 13.3076 43.8019 13.3076C44.8056 13.3076 45.5776 13.6153 46.1438 14.2051C46.71 14.8204 47.0188 15.641 46.9931 16.4871C47.0188 17.3589 46.71 18.2051 46.0923 18.8461C45.5004 19.4615 44.6254 19.7948 43.7504 19.7435ZM40.8681 41.9999V22.2563C40.8681 21.9999 40.971 21.8974 41.2026 21.8974H46.2982C46.5298 21.8974 46.6328 22.0256 46.6328 22.2563V41.9999C46.6328 42.282 46.5298 42.4102 46.2982 42.4102H41.2541C40.9968 42.4102 40.8681 42.2563 40.8681 41.9999Z" fill="#777777"/>
</g>
<path d="M81.5054 20.8182H78.7622V39H81.5054V20.8182ZM87.9419 20.8182H85.2874V39H87.9419V20.8182ZM94.1674 20.8182H91.513V39H94.1674V20.8182ZM106.377 33.3448C106.386 35.6619 104.663 36.7628 103.172 36.7628C101.529 36.7628 100.393 35.5732 100.393 33.7177V25.3636H97.7385V34.0373C97.7385 37.4197 99.594 39.1776 102.213 39.1776C104.264 39.1776 105.658 38.0945 106.288 36.6385H106.43V39H109.04V25.3636H106.377V33.3448ZM122.825 28.6928C122.275 26.571 120.615 25.1861 117.667 25.1861C114.586 25.1861 112.403 26.8107 112.403 29.2255C112.403 31.1609 113.574 32.4482 116.131 33.0163L118.439 33.5224C119.753 33.8153 120.366 34.4013 120.366 35.2536C120.366 36.31 119.238 37.1357 117.498 37.1357C115.909 37.1357 114.888 36.4521 114.569 35.1115L112.003 35.5021C112.447 37.9169 114.453 39.2752 117.516 39.2752C120.81 39.2752 123.091 37.5263 123.091 35.0582C123.091 33.1317 121.866 31.9421 119.363 31.3651L117.197 30.8679C115.696 30.5128 115.048 30.0067 115.057 29.0835C115.048 28.0359 116.184 27.2901 117.694 27.2901C119.345 27.2901 120.108 28.2045 120.419 29.119L122.825 28.6928ZM132.375 25.3636H129.579V22.0966H126.924V25.3636H124.927V27.4943H126.924V35.5465C126.916 38.0234 128.807 39.2219 130.902 39.1776C131.745 39.1687 132.313 39.0089 132.624 38.8935L132.145 36.7006C131.967 36.7362 131.639 36.8161 131.212 36.8161C130.351 36.8161 129.579 36.532 129.579 34.9961V27.4943H132.375V25.3636ZM135.312 39H137.966V30.6726C137.966 28.8881 139.342 27.6009 141.224 27.6009C141.775 27.6009 142.396 27.6985 142.609 27.7607V25.2216C142.343 25.1861 141.819 25.1594 141.482 25.1594C139.884 25.1594 138.517 26.065 138.02 27.5298H137.877V25.3636H135.312V39ZM148.753 39.3018C151.008 39.3018 152.277 38.1566 152.783 37.1357H152.89V39H155.482V29.9446C155.482 25.9762 152.357 25.1861 150.191 25.1861C147.723 25.1861 145.45 26.1804 144.562 28.6662L147.057 29.2344C147.448 28.2667 148.442 27.3345 150.227 27.3345C151.94 27.3345 152.819 28.2312 152.819 29.7759V29.8381C152.819 30.8058 151.825 30.788 149.374 31.0721C146.791 31.3739 144.145 32.0487 144.145 35.147C144.145 37.8281 146.161 39.3018 148.753 39.3018ZM149.33 37.1712C147.83 37.1712 146.746 36.4964 146.746 35.1825C146.746 33.7621 148.007 33.256 149.543 33.0518C150.404 32.9364 152.446 32.7056 152.828 32.3239V34.0817C152.828 35.6974 151.54 37.1712 149.33 37.1712ZM165.383 25.3636H162.587V22.0966H159.932V25.3636H157.935V27.4943H159.932V35.5465C159.923 38.0234 161.814 39.2219 163.91 39.1776C164.753 39.1687 165.321 39.0089 165.632 38.8935L165.152 36.7006C164.975 36.7362 164.646 36.8161 164.22 36.8161C163.359 36.8161 162.587 36.532 162.587 34.9961V27.4943H165.383V25.3636ZM173.917 39.2752C177.761 39.2752 180.274 36.4609 180.274 32.244C180.274 28.0004 177.761 25.1861 173.917 25.1861C170.073 25.1861 167.561 28.0004 167.561 32.244C167.561 36.4609 170.073 39.2752 173.917 39.2752ZM173.926 37.0469C171.414 37.0469 170.242 34.854 170.242 32.2351C170.242 29.625 171.414 27.4055 173.926 27.4055C176.421 27.4055 177.593 29.625 177.593 32.2351C177.593 34.854 176.421 37.0469 173.926 37.0469ZM183.237 39H185.891V30.6726C185.891 28.8881 187.267 27.6009 189.149 27.6009C189.7 27.6009 190.321 27.6985 190.534 27.7607V25.2216C190.268 25.1861 189.744 25.1594 189.407 25.1594C187.809 25.1594 186.441 26.065 185.944 27.5298H185.802V25.3636H183.237V39Z" fill="#333333"/>
</g>
<defs>
<clipPath id="clip0_2563:12543">
<rect width="61.7647" height="60" fill="white"/>
</clipPath>
</defs>
</svg>
