<svg width="197" height="60" viewBox="0 0 197 60" fill="none" xmlns="http://www.w3.org/2000/svg">
<g opacity="0.5">
<g clip-path="url(#clip0_2563:12565)">
<path d="M10.8974 0H50.641C56.6667 0 61.5385 4.8718 61.5385 10.8974V49.1026C61.5385 55.1282 56.6667 60 50.641 60H10.8974C4.87179 60 0 55.1282 0 49.1026V10.8974C0 4.8718 4.87179 0 10.8974 0Z" fill="black"/>
<path d="M32.3588 15.7691L24.6665 28.4614L32.8716 41.923C32.9229 42.0255 32.9485 42.1281 32.9229 42.2307C32.8972 42.3332 32.7947 42.2563 32.6408 42.282H26.769C26.3588 42.282 26.0767 42.2563 25.8972 41.9999C25.3588 40.923 24.7947 39.8717 24.2562 38.7948C23.7178 37.7435 23.128 36.6666 22.5126 35.564C21.8972 34.4614 21.2819 33.3589 20.6665 32.2307H20.6152C20.0767 33.3332 19.487 34.4358 18.8972 35.5384C18.3075 36.6409 17.7178 37.7435 17.1537 38.8204C16.5639 39.8973 15.9742 40.9999 15.3844 42.0512C15.2819 42.3076 15.0767 42.3332 14.7947 42.3332H9.15366C9.05109 42.3332 8.97417 42.3845 8.97417 42.2563C8.94853 42.1538 8.97417 42.0512 9.02545 41.9743L16.9998 28.8973L9.23058 15.7435C9.15366 15.6409 9.12802 15.5384 9.1793 15.4871C9.23058 15.4102 9.33314 15.3845 9.43571 15.3845H15.2562C15.3844 15.3845 15.5126 15.4102 15.6152 15.4358C15.7178 15.4871 15.7947 15.564 15.8716 15.6666C16.3588 16.7691 16.9229 17.8717 17.5126 18.9743C18.128 20.0768 18.7178 21.1538 19.3588 22.2307C19.9742 23.3076 20.5383 24.3845 21.0767 25.4871H21.128C21.6665 24.3589 22.2306 23.2563 22.7947 22.1794C23.3588 21.1025 23.9485 20.0255 24.5383 18.9486C25.128 17.8717 25.6921 16.7691 26.2562 15.7179C26.2819 15.6153 26.3331 15.5127 26.4101 15.4614C26.5126 15.4102 26.6152 15.3845 26.7434 15.4102H32.1537C32.2819 15.3845 32.4101 15.4614 32.4357 15.5896C32.4613 15.6153 32.4101 15.7179 32.3588 15.7691Z" fill="#777777"/>
<path d="M44.2045 42.8206C42.3071 42.8462 40.4097 42.4616 38.6917 41.6667C37.0763 40.9231 35.743 39.6923 34.8199 38.1795C33.8712 36.6154 33.4097 34.6667 33.4097 32.3334C33.384 30.4359 33.8712 28.5641 34.8199 26.9231C35.7943 25.2565 37.2045 23.8718 38.8968 22.9488C40.6917 21.9488 42.8455 21.4616 45.384 21.4616C45.5122 21.4616 45.6917 21.4616 45.9225 21.4872C46.1532 21.5129 46.4096 21.5129 46.7173 21.5385V13.4359C46.7173 13.2565 46.7943 13.1539 46.9738 13.1539H52.1789C52.3071 13.1282 52.4096 13.2308 52.4353 13.3334C52.4353 13.359 52.4353 13.3847 52.4353 13.3847V37.7949C52.4353 38.2564 52.4609 38.7693 52.4866 39.3334C52.5379 39.8718 52.5635 40.3847 52.5891 40.8206C52.5891 41 52.5122 41.1539 52.3327 41.2308C50.9994 41.7949 49.5891 42.2052 48.1532 42.4616C46.8455 42.6924 45.5379 42.8206 44.2045 42.8206ZM46.7173 37.6923V26.4103C46.4866 26.359 46.2558 26.3077 46.025 26.2821C45.743 26.2565 45.4609 26.2308 45.1789 26.2308C44.1789 26.2308 43.1789 26.4359 42.2814 26.8975C41.4096 27.3334 40.6661 27.9744 40.102 28.7949C39.5379 29.6154 39.2558 30.718 39.2558 32.0513C39.2302 32.9488 39.384 33.8462 39.6917 34.6924C39.9481 35.3847 40.3327 36 40.8456 36.5129C41.3327 36.9744 41.9225 37.3334 42.5891 37.5385C43.2814 37.7693 43.9994 37.8718 44.7173 37.8718C45.102 37.8718 45.4609 37.8462 45.7943 37.8206C46.1276 37.8462 46.4096 37.7949 46.7173 37.6923Z" fill="#777777"/>
</g>
<path d="M80.072 39L81.741 34.1882H88.8433L90.5034 39H93.4154L86.8724 20.8182H83.703L77.16 39H80.072ZM82.54 31.88L85.2211 24.1207H85.3631L88.0443 31.88H82.54ZM100.713 39.2663C103.199 39.2663 104.175 37.7482 104.655 36.8782H104.877V39H107.469V20.8182H104.814V27.5742H104.655C104.175 26.7308 103.27 25.1861 100.731 25.1861C97.437 25.1861 95.0134 27.7873 95.0134 32.2085C95.0134 36.6207 97.4015 39.2663 100.713 39.2663ZM101.299 37.0025C98.9285 37.0025 97.6945 34.9162 97.6945 32.1818C97.6945 29.4741 98.9019 27.4411 101.299 27.4411C103.616 27.4411 104.859 29.332 104.859 32.1818C104.859 35.0494 103.589 37.0025 101.299 37.0025ZM117.002 39.2752C120.846 39.2752 123.358 36.4609 123.358 32.244C123.358 28.0004 120.846 25.1861 117.002 25.1861C113.157 25.1861 110.645 28.0004 110.645 32.244C110.645 36.4609 113.157 39.2752 117.002 39.2752ZM117.01 37.0469C114.498 37.0469 113.326 34.854 113.326 32.2351C113.326 29.625 114.498 27.4055 117.01 27.4055C119.505 27.4055 120.677 29.625 120.677 32.2351C120.677 34.854 119.505 37.0469 117.01 37.0469ZM126.534 39H129.126V36.8782H129.348C129.828 37.7482 130.804 39.2663 133.29 39.2663C136.593 39.2663 138.99 36.6207 138.99 32.2085C138.99 27.7873 136.557 25.1861 133.264 25.1861C130.733 25.1861 129.819 26.7308 129.348 27.5742H129.189V20.8182H126.534V39ZM129.135 32.1818C129.135 29.332 130.378 27.4411 132.695 27.4411C135.101 27.4411 136.309 29.4741 136.309 32.1818C136.309 34.9162 135.066 37.0025 132.695 37.0025C130.414 37.0025 129.135 35.0494 129.135 32.1818ZM147.848 39.2752C150.822 39.2752 152.926 37.8104 153.529 35.5909L151.017 35.1381C150.538 36.4254 149.383 37.0824 147.874 37.0824C145.602 37.0824 144.075 35.6087 144.004 32.9808H153.698V32.0398C153.698 27.1126 150.751 25.1861 147.661 25.1861C143.861 25.1861 141.358 28.0803 141.358 32.2706C141.358 36.5053 143.826 39.2752 147.848 39.2752ZM144.012 30.9922C144.119 29.0568 145.522 27.3789 147.679 27.3789C149.739 27.3789 151.088 28.9059 151.097 30.9922H144.012ZM165.381 20.8182H162.203L167.965 29.9091L162.168 39H165.364L169.731 31.9865H169.874L174.241 39H177.437L171.738 29.9091L177.402 20.8182H174.224L169.874 27.9293H169.731L165.381 20.8182ZM186.009 39C191.549 39 194.754 35.5643 194.754 29.8825C194.754 24.2273 191.549 20.8182 186.195 20.8182H180.123V39H186.009ZM182.866 36.603V23.2152H186.027C190.004 23.2152 192.055 25.5945 192.055 29.8825C192.055 34.1882 190.004 36.603 185.858 36.603H182.866Z" fill="#333333"/>
</g>
<defs>
<clipPath id="clip0_2563:12565">
<rect width="61.5385" height="60" fill="white"/>
</clipPath>
</defs>
</svg>
