<svg width="185" height="60" viewBox="0 0 185 60" fill="none" xmlns="http://www.w3.org/2000/svg">
<g opacity="0.5">
<g clip-path="url(#clip0_2563:12364)">
<path d="M0.142822 11.7246L0.149525 12.2608C0.153218 12.5557 1.00761 22.3198 2.04819 33.9588L3.94015 55.1206L12.4436 57.5014C17.1205 58.8108 21.0436 59.8888 21.1616 59.8971C21.2795 59.9054 25.2544 58.8382 29.9947 57.5257C37.5948 55.4213 38.6208 55.1044 38.6752 54.8439C38.751 54.481 42.4728 12.4955 42.4689 12.0463L42.4662 11.7246H21.3044H0.142822Z" fill="white"/>
<path d="M12.5112 57.6437L3.93208 55.2457L3.81997 54.6111C3.72031 54.0471 0 12.4949 0 11.9459C0 11.7472 2.17219 11.7246 21.3047 11.7246C41.5002 11.7246 42.6094 11.7376 42.6078 11.9748C42.6011 12.9993 38.7503 55.1017 38.6556 55.1855C38.536 55.2914 21.9311 59.9175 21.3762 59.9995C21.2189 60.0227 17.2297 58.9626 12.5112 57.6437ZM26.7143 49.1705C29.5978 48.3752 31.9987 47.6835 32.0495 47.6334C32.1004 47.5833 32.4378 44.1643 32.7994 40.0356C33.1609 35.9069 33.4932 32.2554 33.5378 31.9212L33.6189 31.3135H27.3903H21.1617V33.9587V36.604H24.5246H27.8875L27.8206 36.9257C27.7838 37.1026 27.6408 38.6232 27.5028 40.3047C27.3565 42.0865 27.1832 43.4307 27.0872 43.5267C26.9967 43.6172 25.6264 44.0368 24.0422 44.459L21.1617 45.2268V47.9216C21.1617 49.761 21.2109 50.6165 21.3166 50.6165C21.4018 50.6165 23.8308 49.9658 26.7143 49.1705ZM33.537 27.9891C33.4424 27.2885 32.6005 17.8912 32.6005 17.5369C32.6005 17.3217 32.1055 17.301 26.9526 17.301H21.3047V20.0671V22.8332L23.8427 22.931C25.2386 22.9848 26.7076 23.0667 27.1072 23.113L27.8338 23.1971L28.0102 25.3608C28.1072 26.5508 28.2228 27.7657 28.267 28.0606L28.3475 28.5968H30.9832H33.6189L33.537 27.9891Z" fill="#EAEBEC"/>
<path d="M12.4441 57.5013L3.94068 55.1205L2.04871 33.9587C1.00813 22.3198 0.153717 12.5557 0.150024 12.2608L0.143311 11.7246H21.305H42.4668L42.4695 12.0463C42.4734 12.4955 38.7515 54.481 38.6757 54.8439C38.6213 55.1044 37.5953 55.4214 29.9953 57.5258C25.255 58.8383 21.28 59.9054 21.1621 59.8971C21.0441 59.8889 17.121 58.8107 12.4441 57.5013H12.4441ZM26.7211 49.2716C29.6606 48.4544 32.1073 47.7182 32.1583 47.6357C32.2093 47.5532 32.5605 43.9596 32.9387 39.6498C33.3169 35.3401 33.6573 31.7014 33.6952 31.5637C33.7602 31.3273 33.26 31.3135 24.632 31.3135H15.5001L15.8889 27.2027C16.1027 24.9418 16.2828 23.086 16.2891 23.0789C16.2954 23.0717 17.6357 23.029 19.2675 22.9839C21.9432 22.9099 27.4611 23.1234 27.6456 23.308C27.7146 23.3769 28.1683 27.8281 28.1683 28.4357C28.1683 28.7354 28.2087 28.7398 30.939 28.7398H33.7096L33.6443 28.1321C33.6084 27.7979 33.3737 25.2081 33.1228 22.377L32.6665 17.2295L21.9813 17.1929C13.4806 17.1637 11.2959 17.1929 11.2949 17.3358C11.2942 17.4347 11.232 18.0624 11.1565 18.7309C10.9738 20.3484 9.5803 35.9772 9.5803 36.4089V36.7469H18.6724H27.7645L27.6834 37.2831C27.6389 37.578 27.4975 39.074 27.3694 40.6075C27.2412 42.141 27.0951 43.4353 27.0446 43.4838C26.9114 43.6116 21.5627 45.0405 21.2291 45.0374C21.0743 45.0359 19.6929 44.6912 18.1594 44.2714L15.3712 43.5082L15.2689 42.3081C15.2127 41.648 15.1272 40.7058 15.0788 40.2143L14.991 39.3207H12.2856H9.5803L9.5863 39.8568C9.59749 40.8596 10.2477 47.6139 10.3421 47.7083C10.4514 47.8176 20.8421 50.7384 21.1621 50.7498C21.28 50.754 23.7816 50.0888 26.7211 49.2716H26.7211Z" fill="#545454"/>
<path d="M12.4441 57.5013L3.94068 55.1205L2.04871 33.9587C1.00813 22.3198 0.153717 12.5557 0.150024 12.2608L0.143311 11.7246H21.305H42.4668L42.4695 12.0463C42.4734 12.4955 38.7515 54.481 38.6757 54.8439C38.6213 55.1044 37.5953 55.4214 29.9953 57.5258C25.255 58.8383 21.28 59.9054 21.1621 59.8971C21.0441 59.8889 17.121 58.8107 12.4441 57.5013H12.4441ZM28.302 54.3162C32.0426 53.2841 35.1733 52.3672 35.2592 52.2787C35.3929 52.141 38.6235 16.734 38.6105 15.5495L38.6062 15.1562H29.9556H21.3051V16.1571V17.158H16.3006C12.393 17.158 11.2959 17.1972 11.2949 17.3368C11.2942 17.4351 11.232 18.0624 11.1565 18.7309C10.9738 20.3484 9.5803 35.9772 9.5803 36.4089V36.7469H15.4427H21.305V40.8935C21.305 44.1168 21.2653 45.0394 21.1263 45.0374C21.028 45.0359 19.6929 44.6912 18.1594 44.2714L15.3712 43.5082L15.2689 42.3081C15.2127 41.648 15.1272 40.7058 15.0788 40.2143L14.991 39.3207H12.2856H9.5803L9.5863 39.8568C9.60342 41.3905 10.2669 47.6509 10.4225 47.747C10.5171 47.8055 13.0043 48.5202 15.9497 49.3352L21.305 50.8171V53.505C21.305 54.9833 21.3491 56.1929 21.403 56.1929C21.4568 56.1929 24.5614 55.3484 28.302 54.3162ZM15.8738 27.2411C16.0794 25.0013 16.2756 23.1434 16.3098 23.1124C16.3441 23.0814 17.482 23.0254 18.8386 22.9878L21.305 22.9196V27.1166V31.3135H18.4026H15.5001L15.8738 27.2411Z" fill="black"/>
<path d="M13.5833 6.64879V5.29043H15.5135H17.4438V2.64522V0H18.8022H20.1606V4.00357V8.00714H16.8719H13.5833V6.64879ZM21.4474 6.93476V5.86237H23.2347C24.2177 5.86237 25.022 5.82604 25.022 5.78162C25.022 5.73721 24.2177 4.82919 23.2347 3.7638L21.4474 1.82673V0.913363V0H25.165H28.8826V1.06798V2.13597L27.1374 2.17612L25.3921 2.21626L27.2089 4.17275L29.0256 6.12924V7.06819V8.00714H25.2365H21.4474V6.93476Z" fill="#0E0E0F"/>
</g>
<path d="M66.6722 20.8182V33.7088C66.6633 35.804 65.6867 36.9226 63.9467 36.9226C62.3398 36.9226 61.2212 35.9638 61.2123 34.4545H58.4868C58.4868 37.5263 60.7951 39.2486 63.8757 39.2486C67.2137 39.2486 69.3977 37.2067 69.4066 33.7088V20.8182H66.6722ZM77.1547 39.3018C79.4097 39.3018 80.6792 38.1566 81.1852 37.1357H81.2918V39H83.8841V29.9446C83.8841 25.9762 80.7591 25.1861 78.5929 25.1861C76.1249 25.1861 73.8521 26.1804 72.9644 28.6662L75.459 29.2344C75.8497 28.2667 76.844 27.3345 78.6284 27.3345C80.3418 27.3345 81.2207 28.2312 81.2207 29.7759V29.8381C81.2207 30.8058 80.2264 30.788 77.7761 31.0721C75.1927 31.3739 72.5471 32.0487 72.5471 35.147C72.5471 37.8281 74.5624 39.3018 77.1547 39.3018ZM77.7318 37.1712C76.2314 37.1712 75.1483 36.4964 75.1483 35.1825C75.1483 33.7621 76.409 33.256 77.9448 33.0518C78.806 32.9364 80.8479 32.7056 81.2296 32.3239V34.0817C81.2296 35.6974 79.9423 37.1712 77.7318 37.1712ZM98.5969 25.3636H95.7471L92.3025 35.8572H92.1605L88.707 25.3636H85.8572L90.811 39H93.6519L98.5969 25.3636ZM104.645 39.3018C106.9 39.3018 108.169 38.1566 108.675 37.1357H108.782V39H111.374V29.9446C111.374 25.9762 108.249 25.1861 106.083 25.1861C103.615 25.1861 101.342 26.1804 100.455 28.6662L102.949 29.2344C103.34 28.2667 104.334 27.3345 106.119 27.3345C107.832 27.3345 108.711 28.2312 108.711 29.7759V29.8381C108.711 30.8058 107.717 30.788 105.266 31.0721C102.683 31.3739 100.037 32.0487 100.037 35.147C100.037 37.8281 102.053 39.3018 104.645 39.3018ZM105.222 37.1712C103.722 37.1712 102.639 36.4964 102.639 35.1825C102.639 33.7621 103.899 33.256 105.435 33.0518C106.296 32.9364 108.338 32.7056 108.72 32.3239V34.0817C108.72 35.6974 107.433 37.1712 105.222 37.1712ZM125.04 25.5945H127.685C127.605 22.6825 125.031 20.5696 121.337 20.5696C117.689 20.5696 114.892 22.6559 114.892 25.7898C114.892 28.32 116.703 29.8026 119.624 30.5927L121.773 31.1786C123.717 31.6935 125.217 32.3327 125.217 33.9485C125.217 35.7241 123.521 36.896 121.187 36.896C119.074 36.896 117.316 35.9549 117.156 33.9751H114.404C114.581 37.2688 117.129 39.3018 121.204 39.3018C125.475 39.3018 127.934 37.0558 127.934 33.9751C127.934 30.6992 125.013 29.4297 122.705 28.8615L120.929 28.3999C119.509 28.0359 117.618 27.37 117.627 25.63C117.627 24.0852 119.038 22.94 121.275 22.94C123.362 22.94 124.844 23.9165 125.04 25.5945ZM136.743 39.2752C139.965 39.2752 142.052 37.3398 142.345 34.6854H139.761C139.424 36.1591 138.279 37.0291 136.761 37.0291C134.514 37.0291 133.067 35.1559 133.067 32.1818C133.067 29.261 134.541 27.4233 136.761 27.4233C138.447 27.4233 139.477 28.4886 139.761 29.767H142.345C142.061 27.0149 139.814 25.1861 136.716 25.1861C132.872 25.1861 130.386 28.0803 130.386 32.244C130.386 36.3544 132.783 39.2752 136.743 39.2752ZM145.183 39H147.838V30.6726C147.838 28.8881 149.214 27.6009 151.096 27.6009C151.646 27.6009 152.268 27.6985 152.481 27.7607V25.2216C152.215 25.1861 151.691 25.1594 151.353 25.1594C149.755 25.1594 148.388 26.065 147.891 27.5298H147.749V25.3636H145.183V39ZM154.778 39H157.433V25.3636H154.778V39ZM156.119 23.2596C157.033 23.2596 157.797 22.5494 157.797 21.6793C157.797 20.8093 157.033 20.0902 156.119 20.0902C155.195 20.0902 154.441 20.8093 154.441 21.6793C154.441 22.5494 155.195 23.2596 156.119 23.2596ZM161.004 44.1136H163.658V36.8782H163.818C164.297 37.7482 165.274 39.2663 167.76 39.2663C171.062 39.2663 173.459 36.6207 173.459 32.2085C173.459 27.7873 171.027 25.1861 167.733 25.1861C165.203 25.1861 164.288 26.7308 163.818 27.5742H163.596V25.3636H161.004V44.1136ZM163.605 32.1818C163.605 29.332 164.848 27.4411 167.165 27.4411C169.571 27.4411 170.778 29.4741 170.778 32.1818C170.778 34.9162 169.535 37.0025 167.165 37.0025C164.883 37.0025 163.605 35.0494 163.605 32.1818ZM182.799 25.3636H180.002V22.0966H177.348V25.3636H175.35V27.4943H177.348V35.5465C177.339 38.0234 179.23 39.2219 181.325 39.1776C182.168 39.1687 182.737 39.0089 183.047 38.8935L182.568 36.7006C182.39 36.7362 182.062 36.8161 181.636 36.8161C180.775 36.8161 180.002 36.532 180.002 34.9961V27.4943H182.799V25.3636Z" fill="#333333"/>
</g>
<defs>
<clipPath id="clip0_2563:12364">
<rect width="42.6078" height="60" fill="white"/>
</clipPath>
</defs>
</svg>
