<svg width="109" height="60" viewBox="0 0 109 60" fill="none" xmlns="http://www.w3.org/2000/svg">
<g opacity="0.5">
<g clip-path="url(#clip0_2563:12392)">
<path d="M42.5079 11.7915L38.6353 55.1742L21.2279 60.0001L3.86848 55.181L0 11.7915H42.5079Z" fill="black"/>
<path d="M35.3199 52.4116L38.6293 15.3391H21.2539V56.3113L35.3199 52.4116Z" fill="#545454"/>
<path d="M8.86865 31.4316L9.34561 36.7531H21.2542V31.4316H8.86865Z" fill="#EBEBEB"/>
<path d="M21.2541 20.6606H21.2357H7.91016L8.39391 25.9823H21.2541V20.6606Z" fill="#EBEBEB"/>
<path d="M21.2538 50.789V45.2523L21.2305 45.2586L15.3039 43.6582L14.925 39.4141H12.0451H9.58301L10.3286 47.7696L21.2293 50.7958L21.2538 50.789Z" fill="#EBEBEB"/>
<path d="M10.0039 0H16.4492V2.69531H12.6992V5.39062H16.4492V8.08594H10.0039V0Z" fill="black"/>
<path d="M17.7388 0H24.1841V2.34375H20.4341V2.8125H24.1841V8.20312H17.7388V5.74219H21.4888V5.27344H17.7388V0Z" fill="black"/>
<path d="M25.4727 0H31.918V2.34375H28.168V2.8125H31.918V8.20312H25.4727V5.74219H29.2227V5.27344H25.4727V0Z" fill="black"/>
<path d="M27.7882 36.7531L27.1705 43.6547L21.2354 45.2567V50.7931L32.1448 47.7695L32.2248 46.8705L33.4754 32.8606L33.6052 31.4316L34.5659 20.6606H21.2354V25.9822H28.7339L28.2497 31.4316H21.2354V36.7531H27.7882Z" fill="white"/>
</g>
<path d="M74.6065 26.7308C73.9851 22.8423 70.94 20.5696 67.0959 20.5696C62.3906 20.5696 58.9194 24.0941 58.9194 29.9091C58.9194 35.7241 62.3729 39.2486 67.0959 39.2486C71.0909 39.2486 74.0117 36.745 74.6065 33.1495L71.8366 33.1406C71.3661 35.4666 69.413 36.745 67.1136 36.745C63.9975 36.745 61.6449 34.3569 61.6449 29.9091C61.6449 25.4968 63.9886 23.0732 67.1225 23.0732C69.4396 23.0732 71.3839 24.3782 71.8366 26.7308H74.6065ZM87.8057 25.5945H90.4513C90.3714 22.6825 87.7968 20.5696 84.1036 20.5696C80.4548 20.5696 77.6583 22.6559 77.6583 25.7898C77.6583 28.32 79.4694 29.8026 82.3902 30.5927L84.5386 31.1786C86.4829 31.6935 87.9832 32.3327 87.9832 33.9485C87.9832 35.7241 86.2876 36.896 83.9527 36.896C81.8398 36.896 80.0819 35.9549 79.9221 33.9751H77.17C77.3476 37.2688 79.8955 39.3018 83.9704 39.3018C88.2407 39.3018 90.6998 37.0558 90.6998 33.9751C90.6998 30.6992 87.779 29.4297 85.4708 28.8615L83.6952 28.3999C82.2748 28.0359 80.3838 27.37 80.3927 25.63C80.3927 24.0852 81.8042 22.94 84.0415 22.94C86.1278 22.94 87.6104 23.9165 87.8057 25.5945ZM103.895 25.5945H106.54C106.46 22.6825 103.886 20.5696 100.192 20.5696C96.5437 20.5696 93.7472 22.6559 93.7472 25.7898C93.7472 28.32 95.5582 29.8026 98.479 30.5927L100.627 31.1786C102.572 31.6935 104.072 32.3327 104.072 33.9485C104.072 35.7241 102.376 36.896 100.042 36.896C97.9286 36.896 96.1708 35.9549 96.011 33.9751H93.2589C93.4364 37.2688 95.9844 39.3018 100.059 39.3018C104.33 39.3018 106.789 37.0558 106.789 33.9751C106.789 30.6992 103.868 29.4297 101.56 28.8615L99.7841 28.3999C98.3636 28.0359 96.4727 27.37 96.4815 25.63C96.4815 24.0852 97.8931 22.94 100.13 22.94C102.217 22.94 103.699 23.9165 103.895 25.5945Z" fill="#333333"/>
</g>
<defs>
<clipPath id="clip0_2563:12392">
<rect width="42.5079" height="60" fill="white"/>
</clipPath>
</defs>
</svg>
