<svg width="207" height="60" viewBox="0 0 207 60" fill="none" xmlns="http://www.w3.org/2000/svg">
<g opacity="0.5">
<g clip-path="url(#clip0_2563:12499)">
<path d="M10.9375 0H50.8272C56.875 0 61.7647 4.8718 61.7647 10.8974V49.1026C61.7647 55.1282 56.875 60 50.8272 60H10.9375C4.88971 60 0 55.1282 0 49.1026V10.8974C0 4.8718 4.88971 0 10.9375 0Z" fill="black"/>
<path d="M13.897 42.0769V15.6922C13.897 15.5128 13.9742 15.4102 14.1543 15.4102C14.5918 15.4102 15.0036 15.4102 15.5955 15.3846C16.2131 15.3589 16.8565 15.3589 17.5514 15.3333C18.2462 15.3076 18.9926 15.3076 19.7904 15.282C20.5882 15.2563 21.3602 15.2563 22.1323 15.2563C24.2426 15.2563 25.9926 15.5128 27.4337 16.0512C28.7205 16.4871 29.9043 17.2051 30.8823 18.1538C31.7058 18.9743 32.3492 19.9743 32.7609 21.0769C33.147 22.1538 33.3529 23.2563 33.3529 24.4102C33.3529 26.6153 32.8382 28.4358 31.8087 29.8717C30.7793 31.3076 29.3382 32.3846 27.6654 32.9999C25.9154 33.641 23.9852 33.8717 21.8749 33.8717C21.2573 33.8717 20.8455 33.8717 20.5882 33.8461C20.3308 33.8204 19.9705 33.8204 19.4815 33.8204V42.0512C19.5073 42.2307 19.3786 42.3846 19.1984 42.4102C19.1727 42.4102 19.147 42.4102 19.0955 42.4102H14.2058C13.9999 42.4102 13.897 42.3076 13.897 42.0769ZM19.5073 20.3589V28.9743C19.8676 28.9999 20.2021 29.0256 20.5109 29.0256H21.8749C22.8786 29.0256 23.8823 28.8717 24.8345 28.564C25.658 28.3333 26.3786 27.8461 26.9448 27.2051C27.4852 26.564 27.7426 25.6922 27.7426 24.564C27.7683 23.7692 27.5624 22.9743 27.1507 22.282C26.7132 21.6153 26.0955 21.1025 25.3492 20.8204C24.397 20.4358 23.3676 20.282 22.3124 20.3076C21.6433 20.3076 21.0514 20.3076 20.5624 20.3333C20.0477 20.3076 19.6874 20.3333 19.5073 20.3589Z" fill="#777777"/>
<path d="M49.4119 27.4101C48.6399 26.9998 47.8164 26.7178 46.9414 26.5383C45.9891 26.3332 45.0369 26.205 44.059 26.205C43.5443 26.1793 43.0039 26.2563 42.5149 26.3845C42.1803 26.4614 41.8972 26.6409 41.7171 26.8973C41.5884 27.1024 41.5112 27.3588 41.5112 27.5896C41.5112 27.8204 41.6141 28.0511 41.7686 28.2563C42.0002 28.5383 42.309 28.7691 42.6436 28.9486C43.2355 29.2563 43.8531 29.5383 44.4708 29.7947C45.8605 30.2563 47.1987 30.8973 48.434 31.6665C49.2833 32.205 49.9781 32.9229 50.4671 33.7947C50.8789 34.6152 51.0847 35.5127 51.059 36.4357C51.0847 37.6409 50.7244 38.846 50.0553 39.846C49.3347 40.8716 48.3311 41.6665 47.173 42.1281C45.9119 42.6665 44.3678 42.9486 42.5149 42.9486C41.3311 42.9486 40.173 42.846 39.0149 42.6152C38.1141 42.4614 37.2134 42.1793 36.3899 41.7947C36.2097 41.6922 36.0811 41.5127 36.1068 41.3075V36.846C36.1068 36.7691 36.1325 36.6665 36.2097 36.6152C36.2869 36.564 36.3641 36.5896 36.4414 36.6409C37.445 37.2306 38.5002 37.6409 39.6325 37.8973C40.6105 38.1537 41.6399 38.2819 42.6693 38.2819C43.6472 38.2819 44.3421 38.1537 44.8053 37.9229C45.2171 37.7434 45.5002 37.3075 45.5002 36.846C45.5002 36.487 45.2943 36.1537 44.8825 35.8204C44.4708 35.487 43.6215 35.1024 42.3605 34.6152C41.048 34.1537 39.8384 33.5383 38.7061 32.7691C37.9083 32.205 37.2391 31.4614 36.7502 30.5896C36.3384 29.7691 36.1325 28.8716 36.1583 27.9742C36.1583 26.8716 36.4671 25.8204 37.0333 24.8716C37.6766 23.846 38.6289 23.0255 39.7355 22.5127C40.945 21.8973 42.4634 21.6152 44.2906 21.6152C45.3458 21.6152 46.4267 21.6922 47.4818 21.846C48.2539 21.9486 49.0002 22.1537 49.695 22.4357C49.798 22.4614 49.9009 22.564 49.9524 22.6665C49.9781 22.7691 50.0039 22.8716 50.0039 22.9742V27.1537C50.0039 27.2563 49.9524 27.3588 49.8752 27.4101C49.6436 27.4614 49.5149 27.4614 49.4119 27.4101Z" fill="#777777"/>
</g>
<path d="M78.7622 39H81.5054V32.608H85.2341C89.4511 32.608 91.5374 30.06 91.5374 26.7042C91.5374 23.3572 89.4688 20.8182 85.243 20.8182H78.7622V39ZM81.5054 30.282V23.1708H84.95C87.6666 23.1708 88.7764 24.6445 88.7764 26.7042C88.7764 28.7638 87.6666 30.282 84.9855 30.282H81.5054ZM97.1948 30.9034C97.1948 28.7283 98.5708 27.4854 100.462 27.4854C102.291 27.4854 103.383 28.6484 103.383 30.646V39H106.037V30.3263C106.037 26.9261 104.173 25.1861 101.367 25.1861C99.2456 25.1861 97.9672 26.1094 97.3279 27.5831H97.1593V20.8182H94.5403V39H97.1948V30.9034ZM115.323 39.2752C119.167 39.2752 121.68 36.4609 121.68 32.244C121.68 28.0004 119.167 25.1861 115.323 25.1861C111.479 25.1861 108.967 28.0004 108.967 32.244C108.967 36.4609 111.479 39.2752 115.323 39.2752ZM115.332 37.0469C112.82 37.0469 111.648 34.854 111.648 32.2351C111.648 29.625 112.82 27.4055 115.332 27.4055C117.827 27.4055 118.999 29.625 118.999 32.2351C118.999 34.854 117.827 37.0469 115.332 37.0469ZM131.008 25.3636H128.212V22.0966H125.557V25.3636H123.56V27.4943H125.557V35.5465C125.548 38.0234 127.439 39.2219 129.535 39.1776C130.378 39.1687 130.946 39.0089 131.257 38.8935L130.777 36.7006C130.6 36.7362 130.271 36.8161 129.845 36.8161C128.984 36.8161 128.212 36.532 128.212 34.9961V27.4943H131.008V25.3636ZM139.542 39.2752C143.386 39.2752 145.899 36.4609 145.899 32.244C145.899 28.0004 143.386 25.1861 139.542 25.1861C135.698 25.1861 133.186 28.0004 133.186 32.244C133.186 36.4609 135.698 39.2752 139.542 39.2752ZM139.551 37.0469C137.039 37.0469 135.867 34.854 135.867 32.2351C135.867 29.625 137.039 27.4055 139.551 27.4055C142.046 27.4055 143.218 29.625 143.218 32.2351C143.218 34.854 142.046 37.0469 139.551 37.0469ZM159.08 28.6928C158.53 26.571 156.869 25.1861 153.922 25.1861C150.841 25.1861 148.657 26.8107 148.657 29.2255C148.657 31.1609 149.829 32.4482 152.386 33.0163L154.694 33.5224C156.008 33.8153 156.621 34.4013 156.621 35.2536C156.621 36.31 155.493 37.1357 153.753 37.1357C152.164 37.1357 151.143 36.4521 150.824 35.1115L148.258 35.5021C148.702 37.9169 150.708 39.2752 153.771 39.2752C157.065 39.2752 159.346 37.5263 159.346 35.0582C159.346 33.1317 158.121 31.9421 155.618 31.3651L153.451 30.8679C151.951 30.5128 151.303 30.0067 151.312 29.0835C151.303 28.0359 152.439 27.2901 153.949 27.2901C155.6 27.2901 156.363 28.2045 156.674 29.119L159.08 28.6928ZM164.919 30.9034C164.919 28.7283 166.295 27.4854 168.186 27.4854C170.015 27.4854 171.107 28.6484 171.107 30.646V39H173.762V30.3263C173.762 26.9261 171.897 25.1861 169.092 25.1861C166.97 25.1861 165.692 26.1094 165.053 27.5831H164.884V20.8182H162.265V39H164.919V30.9034ZM183.048 39.2752C186.892 39.2752 189.404 36.4609 189.404 32.244C189.404 28.0004 186.892 25.1861 183.048 25.1861C179.204 25.1861 176.691 28.0004 176.691 32.244C176.691 36.4609 179.204 39.2752 183.048 39.2752ZM183.057 37.0469C180.544 37.0469 179.373 34.854 179.373 32.2351C179.373 29.625 180.544 27.4055 183.057 27.4055C185.551 27.4055 186.723 29.625 186.723 32.2351C186.723 34.854 185.551 37.0469 183.057 37.0469ZM192.367 44.1136H195.022V36.8782H195.182C195.661 37.7482 196.638 39.2663 199.123 39.2663C202.426 39.2663 204.823 36.6207 204.823 32.2085C204.823 27.7873 202.391 25.1861 199.097 25.1861C196.567 25.1861 195.652 26.7308 195.182 27.5742H194.96V25.3636H192.367V44.1136ZM194.969 32.1818C194.969 29.332 196.212 27.4411 198.529 27.4411C200.935 27.4411 202.142 29.4741 202.142 32.1818C202.142 34.9162 200.899 37.0025 198.529 37.0025C196.247 37.0025 194.969 35.0494 194.969 32.1818Z" fill="#333333"/>
</g>
<defs>
<clipPath id="clip0_2563:12499">
<rect width="61.7647" height="60" fill="white"/>
</clipPath>
</defs>
</svg>
