<svg width="229" height="60" viewBox="0 0 229 60" fill="none" xmlns="http://www.w3.org/2000/svg">
<g opacity="0.5">
<g clip-path="url(#clip0_2563:12521)">
<path d="M10.9375 0H50.8272C56.875 0 61.7647 4.8718 61.7647 10.8974V49.1026C61.7647 55.1282 56.875 60 50.8272 60H10.9375C4.88971 60 0 55.1282 0 49.1026V10.8974C0 4.8718 4.88971 0 10.9375 0Z" fill="black"/>
<path d="M24.809 35.8976H15.2355L13.2796 41.9489C13.2281 42.1796 13.0222 42.3335 12.7906 42.3078H7.9524C7.66931 42.3078 7.5921 42.154 7.66931 41.8463L15.9561 18.1796C16.0333 17.9232 16.1105 17.6924 16.2134 17.3848C16.3164 16.8463 16.3678 16.2822 16.3678 15.7181C16.3421 15.5899 16.445 15.4617 16.5737 15.436H16.6509H23.2392C23.4193 15.436 23.548 15.513 23.5737 15.6412L32.9671 41.795C33.0443 42.0771 32.9671 42.2053 32.7097 42.2053H27.3311C27.1509 42.2309 26.9708 42.1027 26.9193 41.9232L24.809 35.7694V35.8976ZM16.7281 30.795H23.2649C23.1105 30.2566 22.9046 29.6155 22.673 28.9489C22.4414 28.2566 22.2097 27.513 21.9781 26.7437C21.7208 25.9489 21.4892 25.1796 21.2318 24.3848C20.9745 23.5899 20.7428 22.8463 20.537 22.1027C20.3311 21.3848 20.1509 20.7181 19.9708 20.1027H19.9193C19.6877 21.2053 19.4046 22.3078 19.0443 23.4104C18.6583 24.6412 18.2722 25.9232 17.8605 27.2053C17.5259 28.513 17.1142 29.7181 16.7281 30.795Z" fill="#777777"/>
<path d="M48.1251 33.5899H39.9671C40.07 34.3847 40.3273 35.1796 40.7648 35.8719C41.2281 36.5642 41.8715 37.1027 42.6435 37.4104C43.6729 37.8463 44.8053 38.0771 45.9376 38.0514C46.8384 38.0258 47.7391 37.9489 48.6141 37.7694C49.4119 37.6668 50.184 37.4617 50.9046 37.1796C51.0332 37.0771 51.1104 37.1283 51.1104 37.3847V41.3078C51.1104 41.4104 51.0847 41.513 51.059 41.6155C51.0075 41.6924 50.956 41.7437 50.8788 41.795C50.0553 42.154 49.206 42.4104 48.3053 42.5642C47.0957 42.795 45.8862 42.8976 44.6509 42.8719C42.695 42.8719 41.0479 42.5642 39.7097 41.9745C38.4487 41.436 37.3421 40.5899 36.4671 39.5386C35.6435 38.5386 35.0516 37.4104 34.6913 36.1796C34.331 34.9745 34.1509 33.7181 34.1509 32.436C34.1509 31.0514 34.3568 29.6924 34.7943 28.3591C35.206 27.0771 35.8494 25.8976 36.7244 24.8463C37.5737 23.8206 38.6288 23.0001 39.8384 22.4104C41.0479 21.8206 42.4891 21.6155 44.1362 21.6155C45.5001 21.5899 46.8641 21.8463 48.1251 22.4104C49.1803 22.8719 50.1068 23.5642 50.8273 24.4617C51.4965 25.3335 52.0369 26.3078 52.3715 27.3847C52.706 28.4104 52.8604 29.4617 52.8604 30.513C52.8604 31.1283 52.8347 31.6668 52.809 32.154C52.7575 32.6412 52.7318 33.0001 52.706 33.2309C52.6803 33.4104 52.5259 33.5642 52.3457 33.5642C52.1913 33.5642 51.9082 33.5899 51.4965 33.6155C51.0847 33.6668 50.5957 33.6924 50.0038 33.6924C49.4119 33.6924 48.7943 33.5899 48.1251 33.5899ZM39.9671 29.8463H45.3972C46.0663 29.8463 46.5553 29.8463 46.8641 29.8206C47.07 29.795 47.2759 29.7437 47.456 29.6155V29.3591C47.456 29.0258 47.4046 28.7181 47.3016 28.4104C46.8384 26.9745 45.4744 26.0001 43.956 26.0514C42.5406 25.9745 41.2023 26.7181 40.5332 28.0001C40.2244 28.5899 40.0443 29.2053 39.9671 29.8463Z" fill="#777777"/>
</g>
<path d="M80.298 39L81.9671 34.1882H89.0693L90.7295 39H93.6414L87.0985 20.8182H83.9291L77.3861 39H80.298ZM82.7661 31.88L85.4472 24.1207H85.5892L88.2703 31.88H82.7661ZM102.446 25.3636H99.5075V24.1385C99.5075 22.9311 100.005 22.2741 101.301 22.2741C101.851 22.2741 102.242 22.3984 102.49 22.4783L103.112 20.3299C102.739 20.1879 101.967 19.9659 100.892 19.9659C98.7351 19.9659 96.8441 21.2266 96.8441 23.7834V25.3636H94.7401V27.4943H96.8441V39H99.5075V27.4943H102.446V25.3636ZM111.55 25.3636H108.754V22.0966H106.099V25.3636H104.102V27.4943H106.099V35.5465C106.09 38.0234 107.981 39.2219 110.077 39.1776C110.92 39.1687 111.488 39.0089 111.799 38.8935L111.319 36.7006C111.142 36.7362 110.813 36.8161 110.387 36.8161C109.526 36.8161 108.754 36.532 108.754 34.9961V27.4943H111.55V25.3636ZM120.217 39.2752C123.191 39.2752 125.295 37.8104 125.899 35.5909L123.387 35.1381C122.907 36.4254 121.753 37.0824 120.244 37.0824C117.971 37.0824 116.444 35.6087 116.373 32.9808H126.068V32.0398C126.068 27.1126 123.12 25.1861 120.031 25.1861C116.231 25.1861 113.728 28.0803 113.728 32.2706C113.728 36.5053 116.196 39.2752 120.217 39.2752ZM116.382 30.9922C116.489 29.0568 117.891 27.3789 120.049 27.3789C122.108 27.3789 123.458 28.9059 123.467 30.9922H116.382ZM129.013 39H131.667V30.6726C131.667 28.8881 133.044 27.6009 134.926 27.6009C135.476 27.6009 136.097 27.6985 136.311 27.7607V25.2216C136.044 25.1861 135.52 25.1594 135.183 25.1594C133.585 25.1594 132.218 26.065 131.721 27.5298H131.579V25.3636H129.013V39ZM145.437 39H156.943V36.6385H148.18V31.0721H156.241V28.7195H148.18V23.1797H156.836V20.8182H145.437V39ZM166.777 25.3636H163.839V24.1385C163.839 22.9311 164.336 22.2741 165.632 22.2741C166.182 22.2741 166.573 22.3984 166.821 22.4783L167.443 20.3299C167.07 20.1879 166.298 19.9659 165.223 19.9659C163.066 19.9659 161.175 21.2266 161.175 23.7834V25.3636H159.071V27.4943H161.175V39H163.839V27.4943H166.777V25.3636ZM176.006 25.3636H173.067V24.1385C173.067 22.9311 173.564 22.2741 174.86 22.2741C175.411 22.2741 175.801 22.3984 176.05 22.4783L176.671 20.3299C176.299 20.1879 175.526 19.9659 174.452 19.9659C172.295 19.9659 170.404 21.2266 170.404 23.7834V25.3636H168.3V27.4943H170.404V39H173.067V27.4943H176.006V25.3636ZM184.084 39.2752C187.059 39.2752 189.163 37.8104 189.766 35.5909L187.254 35.1381C186.774 36.4254 185.62 37.0824 184.111 37.0824C181.838 37.0824 180.311 35.6087 180.24 32.9808H189.935V32.0398C189.935 27.1126 186.987 25.1861 183.898 25.1861C180.098 25.1861 177.595 28.0803 177.595 32.2706C177.595 36.5053 180.063 39.2752 184.084 39.2752ZM180.249 30.9922C180.356 29.0568 181.758 27.3789 183.916 27.3789C185.975 27.3789 187.325 28.9059 187.334 30.9922H180.249ZM198.624 39.2752C201.847 39.2752 203.933 37.3398 204.226 34.6854H201.643C201.305 36.1591 200.16 37.0291 198.642 37.0291C196.396 37.0291 194.949 35.1559 194.949 32.1818C194.949 29.261 196.422 27.4233 198.642 27.4233C200.329 27.4233 201.358 28.4886 201.643 29.767H204.226C203.942 27.0149 201.696 25.1861 198.597 25.1861C194.753 25.1861 192.268 28.0803 192.268 32.244C192.268 36.3544 194.665 39.2752 198.624 39.2752ZM213.43 25.3636H210.634V22.0966H207.979V25.3636H205.982V27.4943H207.979V35.5465C207.97 38.0234 209.861 39.2219 211.956 39.1776C212.8 39.1687 213.368 39.0089 213.679 38.8935L213.199 36.7006C213.022 36.7362 212.693 36.8161 212.267 36.8161C211.406 36.8161 210.634 36.532 210.634 34.9961V27.4943H213.43V25.3636ZM226.365 28.6928C225.815 26.571 224.155 25.1861 221.207 25.1861C218.127 25.1861 215.943 26.8107 215.943 29.2255C215.943 31.1609 217.114 32.4482 219.671 33.0163L221.979 33.5224C223.293 33.8153 223.906 34.4013 223.906 35.2536C223.906 36.31 222.778 37.1357 221.038 37.1357C219.449 37.1357 218.428 36.4521 218.109 35.1115L215.543 35.5021C215.987 37.9169 217.993 39.2752 221.056 39.2752C224.35 39.2752 226.631 37.5263 226.631 35.0582C226.631 33.1317 225.406 31.9421 222.903 31.3651L220.737 30.8679C219.236 30.5128 218.588 30.0067 218.597 29.0835C218.588 28.0359 219.725 27.2901 221.234 27.2901C222.885 27.2901 223.649 28.2045 223.959 29.119L226.365 28.6928Z" fill="#333333"/>
</g>
<defs>
<clipPath id="clip0_2563:12521">
<rect width="61.7647" height="60" fill="white"/>
</clipPath>
</defs>
</svg>
