<svg width="20" height="20" viewBox="0 0 20 20" fill="none" xmlns="http://www.w3.org/2000/svg">
<path d="M17.8898 4.71421L17.6055 4.80432L16.0918 4.93919L15.6642 5.62199L15.3539 5.52341L14.1492 4.43722L13.9744 3.87234L13.7404 3.26998L12.9832 2.5908L12.0899 2.41602L12.0693 2.82485L12.9445 3.67881L13.3726 4.1832L12.8912 4.4348L12.4993 4.31928L11.9121 4.07434L11.932 3.60079L11.1615 3.28389L10.9057 4.3973L10.1292 4.57329L10.206 5.19441L11.2178 5.38915L11.3926 4.39669L12.2278 4.52007L12.6161 4.74747H13.239L13.6654 5.60143L14.7957 6.74811L14.7129 7.19384L13.8014 7.07772L12.2266 7.87301L11.0926 9.23318L10.945 9.83555H10.538L9.7796 9.48598L9.04297 9.83555L9.22622 10.6127L9.54676 10.2432L10.1104 10.2256L10.0711 10.9236L10.538 11.0602L11.0043 11.584L11.7657 11.3699L12.6354 11.5072L13.6454 11.7787L14.1498 11.838L15.005 12.8087L16.6554 13.7794L15.588 15.8187L14.4613 16.3425L14.0337 17.5079L12.4032 18.5965L12.2296 19.2243C16.3978 18.2203 19.4985 14.4761 19.4985 9.99944C19.4973 8.04417 18.9046 6.22436 17.8898 4.71421Z" fill="black"/>
<path d="M11.0924 14.9646L10.4005 13.6819L11.0355 12.3586L10.4005 12.1687L9.68746 11.4526L8.10776 11.0982L7.58341 10.0011V10.6525H7.35238L5.991 8.80667V7.29047L4.9931 5.66783L3.40856 5.95026H2.34111L1.80406 5.59827L2.48928 5.05518L1.80587 5.21303C0.982154 6.61976 0.501953 8.25208 0.501953 10.0005C0.501953 15.2458 4.75421 19.4999 10.0001 19.4999C10.4041 19.4999 10.8003 19.4642 11.1922 19.4171L11.093 18.2661C11.093 18.2661 11.529 16.557 11.529 16.499C11.5284 16.4403 11.0924 14.9646 11.0924 14.9646Z" fill="black"/>
<path d="M4.03097 3.56325L5.71833 3.32799L6.49608 2.90161L7.37121 3.15381L8.76948 3.07639L9.24847 2.32343L9.947 2.43834L11.6434 2.27928L12.1109 1.76401L12.7701 1.32372L13.7027 1.46403L14.0426 1.41262C12.8143 0.834447 11.4475 0.5 9.99901 0.5C7.05067 0.5 4.41441 1.84384 2.67383 3.95394H2.67867L4.03097 3.56325ZM10.4006 1.44468L11.3707 0.910651L11.9936 1.2705L11.0919 1.95693L10.2306 2.04342L9.84298 1.79183L10.4006 1.44468ZM7.52725 1.5227L7.95544 1.70111L8.51607 1.5227L8.82149 2.05188L7.52725 2.39177L6.90492 2.02769C6.90432 2.02769 7.51334 1.63579 7.52725 1.5227Z" fill="black"/>
</svg>
