<svg width="137" height="32" viewBox="0 0 137 32" fill="none" xmlns="http://www.w3.org/2000/svg">
<path d="M53.3944 15.9223C53.2595 15.6948 53.0568 15.5697 52.7866 15.5811C52.5278 15.5925 52.3253 15.729 52.2127 15.9678C52.1001 16.1838 52.1228 16.3999 52.2352 16.616C52.5955 17.2983 52.8093 18.0262 52.8543 18.7995C52.9106 19.7775 52.8093 20.7214 52.3703 21.6085C51.6388 23.0982 50.5133 24.1104 48.9264 24.5766C47.9697 24.861 47.002 24.8723 46.0453 24.6335C44.0307 24.1331 42.3201 22.3818 42.0164 20.1301C41.9263 19.425 41.9263 18.7085 42.0725 18.0148C42.3088 16.8662 42.8491 15.8882 43.7156 15.1035C44.4021 14.4894 45.1788 14.0572 46.0791 13.8411C46.6755 13.6933 47.2721 13.6933 47.8798 13.7274C48.5214 13.7615 49.1178 13.9321 49.6917 14.1937C49.8381 14.2619 49.9843 14.3415 50.1307 14.3984C50.3895 14.4894 50.6372 14.4211 50.8172 14.2278C50.9973 14.0345 51.076 13.807 50.9748 13.5227C50.896 13.3066 50.7385 13.1815 50.5584 13.0792C49.8156 12.6925 49.0279 12.4423 48.1949 12.3741C47.7897 12.34 47.3734 12.3627 46.957 12.3514C46.4056 12.34 45.8766 12.4537 45.3701 12.6243C44.1547 12.9996 43.1417 13.7047 42.2977 14.6713C41.6336 15.4333 41.1496 16.2862 40.8795 17.2756C40.7108 17.867 40.5871 18.4583 40.5871 19.0724C40.5757 23.0869 40.5871 27.1013 40.5871 31.1045C40.5871 31.1726 40.5871 31.2294 40.5982 31.2977C40.632 31.5933 40.8684 31.8095 41.161 31.8207C41.5324 31.8437 41.7687 31.707 41.8475 31.3888C41.8813 31.2409 41.8924 31.0815 41.9038 30.9339C41.9038 28.5115 41.9038 26.0892 41.9038 23.6782C41.9038 23.5873 41.9038 23.4849 41.9038 23.3939C41.9263 23.3825 41.9487 23.3825 41.9826 23.3712C42.0389 23.428 42.0952 23.4849 42.1401 23.5418C42.5002 23.9853 42.9054 24.3833 43.3667 24.7359C44.1658 25.3386 45.0437 25.748 46.0228 25.9527C46.6419 26.0778 47.2608 26.0892 47.8798 26.0778C48.4762 26.0551 49.0615 25.9527 49.6243 25.7594C50.9185 25.3158 51.9764 24.5198 52.8205 23.4394C53.6534 22.3818 54.1261 21.1649 54.2159 19.8116C54.2722 18.9587 54.2273 18.1058 53.991 17.2756C53.8221 16.8093 53.642 16.3544 53.3944 15.9223Z" fill="black"/>
<path d="M136.541 7.18839C136.507 6.83585 136.27 6.6084 135.91 6.6084C135.618 6.6084 135.303 6.77898 135.28 7.18839C135.28 7.26799 135.28 7.3476 135.28 7.43858C135.28 9.89501 135.28 12.3514 135.28 14.8079C135.28 14.9102 135.28 15.0012 135.28 15.1035C135.257 15.1149 135.235 15.1263 135.212 15.1377C135.156 15.0808 135.1 15.0239 135.055 14.9671C134.672 14.4894 134.245 14.0687 133.749 13.7048C132.995 13.1361 132.162 12.7495 131.24 12.5448C130.564 12.3969 129.889 12.3742 129.203 12.4197C128.584 12.4538 127.976 12.5789 127.391 12.7949C126.445 13.1361 125.635 13.682 124.937 14.3871C123.834 15.5016 123.159 16.8435 122.979 18.4243C122.878 19.3796 122.945 20.3121 123.193 21.2332C123.317 21.6881 123.497 22.1317 123.733 22.5411C123.935 22.905 124.307 22.996 124.633 22.8368C124.971 22.6775 125.095 22.2909 124.948 21.927C124.915 21.836 124.858 21.745 124.813 21.654C124.622 21.2787 124.498 20.8807 124.408 20.4713C124.284 19.9254 124.273 19.3796 124.296 18.8223C124.318 18.3106 124.419 17.8102 124.588 17.3325C124.926 16.3772 125.511 15.5926 126.277 14.9443C126.952 14.3757 127.728 13.989 128.584 13.8185C129.27 13.682 129.957 13.6593 130.654 13.773C132.073 14.0004 133.198 14.7055 134.076 15.82C134.65 16.5365 134.987 17.378 135.122 18.2992C135.28 19.2886 135.212 20.2552 134.875 21.1991C134.346 22.7003 133.333 23.7352 131.904 24.372C131.116 24.7132 130.283 24.8383 129.428 24.7814C128.674 24.7359 127.953 24.554 127.278 24.2014C127.188 24.1559 127.098 24.1104 127.008 24.0877C126.693 23.9854 126.378 24.1218 126.22 24.4061C126.051 24.7018 126.119 25.043 126.389 25.2704C126.457 25.3273 126.535 25.3728 126.614 25.4183C127.064 25.6685 127.548 25.8504 128.043 25.9642C128.764 26.1234 129.495 26.203 130.238 26.1461C130.958 26.0779 131.656 25.9414 132.331 25.6685C133.704 25.0999 134.762 24.1559 135.539 22.8936C136.237 21.7678 136.541 20.5282 136.541 19.209C136.541 15.2969 136.541 11.3848 136.541 7.4727C136.541 7.3476 136.541 7.26799 136.541 7.18839Z" fill="black"/>
<path d="M102.587 17.3325C102.587 16.002 102.103 14.8647 101.192 13.9208C100.291 12.9769 99.1997 12.4311 97.9055 12.3628C97.1402 12.3173 96.3749 12.3856 95.6546 12.6812C94.6643 13.0679 93.899 13.7389 93.3138 14.6259C93.2461 14.7283 93.1787 14.8306 93.0775 14.9785C92.9649 14.8192 92.8861 14.7055 92.8073 14.5804C92.5485 14.2165 92.267 13.8753 91.9294 13.5797C90.7026 12.4652 89.2508 12.1809 87.6753 12.4311C86.3472 12.6471 85.3118 13.375 84.5127 14.4553C83.86 15.331 83.5449 16.3318 83.5449 17.4349C83.5449 18.0831 83.5449 18.7313 83.5449 19.3682C83.5449 19.4251 83.5449 19.4819 83.5449 19.5274C83.556 19.8799 83.8262 20.1301 84.1751 20.1415C84.4453 20.1529 84.7942 19.8686 84.7829 19.5047C84.7717 18.8905 84.7717 18.2651 84.7829 17.651C84.7829 17.378 84.8053 17.1051 84.8392 16.8321C84.9629 16.002 85.3456 15.3082 85.942 14.7283C87.1125 13.591 88.4855 13.3522 89.9825 13.8867C91.3555 14.3757 92.4584 15.82 92.4359 17.4918C92.4021 20.0846 92.4245 22.6775 92.4245 25.2704C92.4245 25.3501 92.4245 25.4296 92.4245 25.5206C92.4584 25.8732 92.751 26.1347 93.0775 26.1234C93.4262 26.112 93.6627 25.8504 93.6738 25.4865C93.6738 25.4183 93.6738 25.3614 93.6738 25.2932C93.6738 22.723 93.6738 20.1415 93.6738 17.5713C93.6738 17.1051 93.7301 16.6502 93.8877 16.2067C94.2477 15.1945 94.9231 14.4667 95.8684 14.0004C96.7125 13.5797 97.6242 13.5342 98.5246 13.773C99.74 14.1028 100.573 14.9102 101.079 16.0588C101.304 16.5706 101.349 17.1165 101.349 17.6623C101.349 20.2097 101.349 22.7572 101.349 25.3046C101.349 25.3955 101.338 25.4865 101.349 25.5775C101.383 25.8391 101.529 26.0096 101.766 26.0892C102.002 26.1802 102.205 26.112 102.385 25.9414C102.542 25.8049 102.565 25.623 102.565 25.4183C102.587 22.723 102.587 20.0278 102.587 17.3325Z" fill="black"/>
<path d="M77.5335 16.65C77.0383 15.399 76.2279 14.3983 75.1588 13.6022C74.3259 12.9767 73.4031 12.5787 72.379 12.4195C71.8276 12.3398 71.2761 12.2944 70.7133 12.3398C69.9481 12.3967 69.2053 12.5446 68.4849 12.8402C68.2486 12.9426 68.0123 13.0677 67.7984 13.2042C67.3821 13.4885 67.472 14.1936 67.9673 14.3755C68.2148 14.4665 68.4286 14.4096 68.6314 14.2959C68.9914 14.1026 69.3628 13.9661 69.7567 13.8638C70.3531 13.7045 70.961 13.659 71.5799 13.6932C72.0189 13.7159 72.4578 13.7955 72.8741 13.932C73.8532 14.2504 74.6637 14.8077 75.3389 15.581C75.8453 16.1723 76.2279 16.8319 76.4531 17.5825C76.6445 18.2194 76.6894 18.8676 76.6669 19.5158C76.6556 20.2891 76.4869 21.017 76.138 21.6879C75.3275 23.2573 74.1009 24.3036 72.3676 24.6789C71.3999 24.8949 70.4432 24.8608 69.4865 24.5651C68.2935 24.1899 67.3707 23.462 66.6504 22.4612C66.1441 21.7562 65.8401 20.9715 65.7164 20.1072C65.5589 18.9586 65.7051 17.8668 66.2002 16.8206C66.2565 16.6955 66.3242 16.5818 66.3577 16.4453C66.4479 16.1382 66.3242 15.8198 66.0654 15.6606C65.7838 15.49 65.4576 15.5241 65.2324 15.7743C65.1536 15.8539 65.0862 15.9563 65.0299 16.07C64.5234 17.0594 64.2982 18.117 64.2871 19.2315C64.3207 19.5613 64.3434 19.9025 64.377 20.2323C64.4558 20.9942 64.6921 21.6993 65.0299 22.3817C65.4801 23.2687 66.1103 24.0079 66.8756 24.6448C67.7421 25.3726 68.7437 25.8388 69.8579 26.0322C70.6346 26.1686 71.411 26.1914 72.199 26.0663C72.8403 25.9639 73.448 25.7933 74.0222 25.5204C74.9561 25.0883 75.7327 24.4514 76.3968 23.6667C77.0045 22.9503 77.4547 22.1315 77.7135 21.2217C77.9723 20.3005 78.0511 19.368 77.9387 18.4127C77.8935 17.81 77.7587 17.2186 77.5335 16.65Z" fill="black"/>
<path d="M119.434 18.5835C119.434 20.1302 119.446 21.6768 119.434 23.2234C119.434 23.5078 119.637 23.8148 119.974 23.8603C120.267 23.9058 120.548 23.7124 120.638 23.3827C120.672 23.2576 120.683 23.1325 120.683 23.0074C120.683 21.2219 120.695 19.4364 120.683 17.6624C120.683 17.0028 120.605 16.3545 120.38 15.7291C119.896 14.4212 119.029 13.466 117.814 12.8291C116.947 12.3856 116.013 12.2378 115.034 12.3401C114.606 12.3856 114.178 12.4652 113.773 12.6244C111.916 13.3864 110.498 15.1263 110.476 17.4349C110.464 20.0733 110.476 22.7117 110.476 25.3501C110.476 25.4638 110.498 25.5889 110.532 25.7026C110.611 25.9642 110.87 26.1461 111.128 26.1348C111.41 26.1234 111.669 25.8959 111.714 25.6116C111.736 25.5093 111.725 25.3956 111.725 25.2818C111.725 23.9854 111.725 22.6776 111.725 21.3811C111.725 20.1074 111.736 18.8337 111.725 17.56C111.714 16.2977 112.198 15.2628 113.165 14.4667C114.257 13.5569 115.529 13.3409 116.823 13.8071C118.309 14.3303 119.198 15.4448 119.401 17.0482C119.457 17.56 119.434 18.0718 119.434 18.5835Z" fill="black"/>
<path d="M62.9728 12.3175C62.3648 12.2834 61.7684 12.3062 61.1721 12.4085C60.4517 12.545 59.7877 12.8406 59.2024 13.3069C58.4372 13.9096 57.8519 14.6602 57.5143 15.5928C57.2891 16.2182 57.1992 16.8551 57.1992 17.5147C57.1992 18.7315 57.1992 19.9484 57.1992 21.1652C57.1992 22.5071 57.1992 23.8604 57.1992 25.2024C57.1992 25.3161 57.1992 25.4412 57.2103 25.5549C57.2666 25.953 57.6042 26.1235 57.8633 26.1235C58.1559 26.1235 58.471 25.862 58.4821 25.5208C58.4821 25.4185 58.4821 25.3161 58.4821 25.2251C58.4821 22.655 58.471 20.0962 58.4935 17.5261C58.4935 17.1166 58.5609 16.7072 58.651 16.3206C58.9661 15.0469 60.1929 13.7959 61.7798 13.6822C62.1512 13.6594 62.5337 13.6594 62.9165 13.6481C63.0288 13.6481 63.1528 13.6253 63.254 13.5798C63.5242 13.4434 63.6593 13.1477 63.603 12.8748C63.5578 12.5677 63.3103 12.3403 62.9728 12.3175Z" fill="black"/>
<path d="M107.347 20.3689C107.347 18.6858 107.347 17.0027 107.347 15.3196C107.347 15.2286 107.347 15.1376 107.347 15.0466C107.325 14.7624 107.145 14.5804 106.863 14.5576C106.323 14.5122 106.064 14.7055 106.064 15.2855C106.076 18.6631 106.076 22.052 106.076 25.4296C106.076 25.4978 106.076 25.5547 106.076 25.6229C106.064 25.8049 106.166 25.9414 106.301 26.0324C106.526 26.1916 106.773 26.1916 107.021 26.1006C107.28 26.0096 107.359 25.7935 107.359 25.5206C107.359 24.6563 107.359 23.8034 107.359 22.9391C107.359 22.0748 107.347 21.2332 107.347 20.3689Z" fill="black"/>
<path d="M84.7831 21.2673C84.7831 20.983 84.648 20.801 84.3667 20.7441C83.939 20.6532 83.5338 20.8124 83.5452 21.381C83.5676 22.757 83.5452 24.1217 83.5565 25.4978C83.5565 25.6001 83.5676 25.7139 83.6126 25.8162C83.7252 26.0664 84.0403 26.1801 84.3554 26.1119C84.6594 26.0437 84.7944 25.8731 84.7944 25.5547C84.7944 24.8496 84.7944 24.1559 84.7944 23.4508C84.7944 23.0869 84.7944 22.7229 84.7944 22.359C84.7944 21.9951 84.7944 21.6312 84.7831 21.2673Z" fill="black"/>
<path d="M120.043 26.169C120.515 26.169 120.898 25.7821 120.898 25.3047C120.898 24.8274 120.515 24.4404 120.043 24.4404C119.57 24.4404 119.188 24.8274 119.188 25.3047C119.188 25.7821 119.57 26.169 120.043 26.169Z" fill="black"/>
<path d="M106.707 14.0689C107.179 14.0689 107.562 13.682 107.562 13.2046C107.562 12.7273 107.179 12.3403 106.707 12.3403C106.235 12.3403 105.852 12.7273 105.852 13.2046C105.852 13.682 106.235 14.0689 106.707 14.0689Z" fill="black"/>
<path d="M26.9165 11.4248C25.8339 10.4469 24.7677 9.43587 23.7015 8.4414C22.6354 7.46351 21.5856 6.46901 20.5194 5.47454C19.1088 4.16515 17.6981 2.85574 16.2875 1.54634C15.8774 1.16513 15.4674 0.767335 15.0245 0.402692C14.7128 0.137497 14.2536 0.154071 13.9747 0.402692C13.5975 0.734185 13.5975 1.248 14.0075 1.62921C14.598 2.17618 15.1885 2.72314 15.779 3.27011C17.0092 4.41374 18.223 5.55742 19.4532 6.68448C20.6999 7.8447 21.9465 8.98838 23.1931 10.1486C23.964 10.8613 24.7513 11.574 25.5223 12.2867C25.9979 12.7342 26.49 13.1486 26.9001 13.6458C28.8192 15.9663 29.4753 18.6017 28.77 21.552C28.3599 23.2757 27.4742 24.7343 26.162 25.8945C24.0624 27.7509 21.6184 28.4636 18.8627 27.9829C17.3209 27.7177 15.943 27.0548 14.7621 26.0105C13.2858 24.6846 11.8588 23.342 10.3989 21.9995C9.49677 21.1542 8.59463 20.3089 7.67606 19.4635C6.19982 18.121 4.73999 16.7785 3.28013 15.4193C2.93569 15.1044 2.60762 14.7895 2.24676 14.4911C1.95151 14.2425 1.63986 14.2259 1.32821 14.3917C1.03296 14.5574 0.934543 14.8392 0.950948 15.1707C0.967349 15.4028 1.08217 15.5685 1.22979 15.7177C2.16475 16.5961 3.08329 17.4746 4.01827 18.3365C4.93683 19.1983 5.87177 20.0437 6.80674 20.9055C7.85649 21.8669 8.88986 22.8448 9.93964 23.8061C11.0386 24.8172 12.1376 25.8116 13.2202 26.8393C15.2213 28.7454 17.5833 29.7067 20.503 29.7564C20.7162 29.7398 21.1099 29.7067 21.5036 29.6735C22.8486 29.5409 24.1116 29.1266 25.2926 28.4636C27.3266 27.3199 28.8192 25.6459 29.7542 23.4912C30.2135 22.4138 30.4759 21.2868 30.5579 20.11C30.6563 18.6182 30.4595 17.1763 29.951 15.784C29.3277 14.0602 28.2615 12.6348 26.9165 11.4248Z" fill="black"/>
<path d="M25.1443 17.7895C25.2427 18.1542 25.2755 18.552 25.3411 18.9166C25.4067 19.2978 25.5872 19.4967 25.8989 19.563C26.3909 19.6625 26.8174 19.331 26.7846 18.8172C26.7518 18.3531 26.7026 17.889 26.5713 17.4415C26.1941 16.0492 25.4724 14.8724 24.3734 13.9442C22.7003 12.5188 20.7812 12.0713 18.6652 12.4359C17.0742 12.7177 15.7456 13.5298 14.7122 14.7895C13.6624 16.0657 13.1375 17.5575 13.1211 19.2647C13.1375 19.4967 13.1375 19.7785 13.1703 20.0437C13.2359 20.4415 13.3179 20.8227 13.4164 21.2039C14.2037 23.9387 16.6641 25.9774 19.6822 26.11C21.1912 26.1763 22.5855 25.7785 23.8321 24.8835C25.0131 24.0548 25.8496 22.9608 26.3417 21.6017C26.4073 21.4194 26.4237 21.1707 26.3581 20.9884C26.2761 20.7233 26.0629 20.5575 25.7676 20.5244C25.4724 20.4912 25.2427 20.6238 25.1115 20.8724C24.9803 21.1044 24.8819 21.3696 24.7507 21.6183C24.0289 23.0603 22.8971 24.005 21.3717 24.4359C20.3055 24.7343 19.2557 24.7177 18.206 24.3199C16.254 23.5907 15.0402 22.1984 14.6629 20.1597C14.3185 18.3033 14.8598 16.679 16.172 15.3199C17.6483 13.8116 20.0595 13.2481 22.1262 14.226C23.6845 14.9718 24.7014 16.132 25.1443 17.7895Z" fill="black"/>
<path d="M4.87044 11.9053C5.98583 12.9329 7.08482 13.9605 8.20021 14.9881C8.80709 15.5517 9.41401 16.1152 10.0373 16.6788C10.1849 16.8279 10.3489 16.9108 10.5458 16.8942C10.9887 16.9605 11.4151 16.5627 11.3823 16.0655C11.3495 15.7672 11.2019 15.5848 11.0051 15.4025C9.92249 14.3914 8.83992 13.397 7.75731 12.4025C5.64136 10.4467 3.54183 8.49088 1.44227 6.53506C1.31104 6.41904 1.16342 6.30301 0.999389 6.22014C0.572918 6.02124 0.0972397 6.28644 0.0152236 6.75054C-0.0339834 7.06546 0.0316281 7.34724 0.27767 7.57925C0.704141 7.97705 1.11421 8.37485 1.54068 8.77265C2.63966 9.81684 3.75504 10.861 4.87044 11.9053Z" fill="black"/>
<path d="M1.0327 1.67893C2.18089 2.77286 3.32908 3.85021 4.4773 4.94416C5.87151 6.27013 7.26573 7.59609 8.65999 8.92206C8.98804 9.23698 9.33248 9.55191 9.67695 9.85026C10.1034 10.2315 10.7759 9.98283 10.9236 9.50218C11.0384 9.13753 10.9236 8.85576 10.6611 8.60713C10.1854 8.14307 9.70977 7.69554 9.23408 7.24802C8.05307 6.12095 6.87206 5.01043 5.70747 3.89993C4.72333 2.98833 3.75557 2.06015 2.77139 1.13197C2.44334 0.817054 2.13169 0.518708 1.78723 0.220365C1.54119 0.00489428 1.26234 -0.0779791 0.950689 0.0877675C0.671841 0.23694 0.524217 0.468986 0.507812 0.883351C0.540618 0.966226 0.589829 1.14855 0.688242 1.29772C0.770259 1.43032 0.901478 1.56291 1.0327 1.67893Z" fill="black"/>
<path d="M9.08685 2.87234C9.33289 3.10438 9.59533 3.33643 9.84137 3.56847C11.6457 5.25909 13.45 6.9497 15.2707 8.64032C15.5823 8.9221 15.894 9.20387 16.222 9.46904C16.4681 9.66794 16.7633 9.66794 17.0422 9.51876C17.321 9.36959 17.4522 9.121 17.4522 8.7895C17.4686 8.40827 17.1898 8.20937 16.9602 7.97732C15.8284 6.93313 14.6966 5.88894 13.5812 4.82814C12.6298 3.9497 11.6949 3.07123 10.7599 2.19277C10.4647 1.91101 10.1694 1.62923 9.85778 1.36404C9.54613 1.09885 9.10326 1.13199 8.82441 1.41377C8.52914 1.71211 8.49635 2.1099 8.74238 2.45797C8.82441 2.62371 8.95563 2.75631 9.08685 2.87234Z" fill="black"/>
<path d="M22.4711 20.5408C21.9134 21.4027 21.1097 21.9165 20.0763 22.0326C19.4202 22.1154 18.7969 22.0326 18.2064 21.7508C17.8455 21.5685 17.4683 21.6845 17.255 21.9828C16.9926 22.3641 17.1566 22.8281 17.6487 23.027C17.8783 23.1265 18.108 23.2094 18.354 23.2591C18.7477 23.3585 19.1578 23.4083 19.5678 23.4083C20.5848 23.4083 21.4541 23.1762 22.2415 22.6624C22.5039 22.4967 22.7499 22.2978 22.996 22.0491C23.2912 21.7674 23.5373 21.4359 23.7505 21.0878C24.0786 20.5243 23.6029 20.1265 23.1928 20.1265C22.8484 20.1265 22.6515 20.2756 22.4711 20.5408Z" fill="black"/>
<path d="M11.7924 11.4911C12.2182 11.4911 12.5633 11.1423 12.5633 10.7121C12.5633 10.2819 12.2182 9.93311 11.7924 9.93311C11.3666 9.93311 11.0215 10.2819 11.0215 10.7121C11.0215 11.1423 11.3666 11.4911 11.7924 11.4911Z" fill="black"/>
</svg>
