<svg width="592" height="595" viewBox="0 0 592 595" fill="none" xmlns="http://www.w3.org/2000/svg">
<g filter="url(#filter0_dii_2329_6192)">
<path d="M516.915 226.319C496.606 207.975 476.606 189.008 456.605 170.353C436.605 152.008 416.912 133.353 396.911 114.697C370.449 90.1343 343.987 65.5709 317.524 41.0078C309.832 33.8565 302.14 26.3943 293.832 19.5539C287.985 14.5791 279.369 14.89 274.139 19.5539C267.062 25.7724 267.062 35.4111 274.754 42.5624C285.831 52.8229 296.908 63.0835 307.986 73.344C331.063 94.7976 353.833 116.252 376.911 137.395C400.296 159.159 423.681 180.614 447.066 202.378C461.528 215.748 476.298 229.118 490.76 242.488C499.683 250.882 508.914 258.655 516.607 267.983C552.607 311.513 564.916 360.95 551.685 416.295C543.992 448.631 527.376 475.992 502.76 497.757C463.375 532.581 417.527 545.951 365.833 536.934C336.91 531.959 311.062 519.522 288.908 499.934C261.215 475.06 234.446 449.875 207.06 424.69C190.136 408.832 173.213 392.975 155.981 377.118C128.289 351.933 100.903 326.748 73.5177 301.253C67.0564 295.345 60.9021 289.437 54.1327 283.84C48.5941 279.176 42.7478 278.865 36.9015 281.975C31.3629 285.084 29.5167 290.37 29.8244 296.589C30.1321 300.942 32.286 304.051 35.0553 306.849C52.5943 323.328 69.8253 339.807 87.3645 355.975C104.596 372.143 122.134 388.001 139.674 404.168C159.366 422.202 178.751 440.547 198.444 458.581C219.06 477.547 239.676 496.202 259.984 515.48C297.524 551.237 341.833 569.27 396.604 570.203C400.603 569.892 407.988 569.27 415.373 568.648C440.604 566.161 464.298 558.387 486.452 545.951C524.607 524.496 552.607 493.094 570.147 452.673C578.762 432.463 583.686 411.32 585.224 389.244C587.07 361.261 583.378 334.211 573.839 308.093C562.146 275.757 542.146 249.017 516.915 226.319Z" fill="#257AE9"/>
<path d="M483.684 345.715C485.531 352.555 486.146 360.018 487.376 366.858C488.607 374.009 491.992 377.74 497.839 378.984C507.069 380.85 515.07 374.631 514.454 364.993C513.839 356.287 512.916 347.581 510.454 339.186C503.377 313.068 489.838 290.992 469.222 273.581C437.837 246.841 401.836 238.446 362.143 245.287C332.296 250.572 307.372 265.807 287.987 289.438C268.294 313.379 258.448 341.362 258.14 373.387C258.448 377.74 258.448 383.026 259.063 388.001C260.294 395.463 261.832 402.615 263.679 409.766C278.448 461.069 324.603 499.312 381.22 501.8C409.528 503.043 435.683 495.582 459.068 478.791C481.222 463.245 496.915 442.724 506.147 417.228C507.377 413.808 507.685 409.144 506.454 405.724C504.916 400.749 500.915 397.64 495.377 397.018C489.838 396.396 485.531 398.884 483.069 403.547C480.607 407.9 478.761 412.875 476.3 417.539C462.761 444.589 441.529 462.313 412.913 470.396C392.913 475.993 373.22 475.682 353.527 468.22C316.911 454.539 294.141 428.422 287.063 390.178C280.602 355.354 290.756 324.883 315.372 299.387C343.065 271.093 388.297 260.522 427.067 278.867C456.299 292.858 475.376 314.622 483.684 345.715Z" fill="#257AE9"/>
<path d="M103.365 235.337C124.289 254.614 144.905 273.892 165.828 293.169C177.213 303.74 188.598 314.312 200.291 324.883C203.06 327.682 206.137 329.236 209.829 328.925C218.137 330.169 226.138 322.707 225.522 313.379C224.907 307.783 222.137 304.362 218.445 300.942C198.137 281.975 177.829 263.32 157.52 244.665C117.827 207.975 78.4415 171.286 39.0556 134.597C36.594 132.42 33.8247 130.244 30.7476 128.689C22.7474 124.958 13.8241 129.933 12.2856 138.639C11.3625 144.546 12.5933 149.832 17.2088 154.185C25.209 161.647 32.9015 169.109 40.9017 176.572C61.5177 196.16 82.4411 215.748 103.365 235.337Z" fill="#257AE9"/>
<path d="M31.3591 43.4953C52.8981 64.0164 74.437 84.2264 95.9766 104.748C122.131 129.622 148.285 154.496 174.44 179.37C180.594 185.277 187.055 191.185 193.517 196.782C201.517 203.933 214.133 199.269 216.903 190.252C219.056 183.412 216.903 178.126 211.979 173.462C203.056 164.757 194.133 156.361 185.209 147.966C163.055 126.823 140.9 105.991 119.053 85.1592C100.592 68.0584 82.4376 50.6466 63.9754 33.2348C57.8214 27.3272 51.9751 21.7305 45.5133 16.1338C40.8978 12.0918 35.667 10.5372 29.8206 13.6464C24.5897 16.4448 21.8204 20.7977 21.5127 28.5709C22.1281 30.1255 23.0512 33.5457 24.8974 36.344C26.4359 38.8314 28.8975 41.3188 31.3591 43.4953Z" fill="#257AE9"/>
<path d="M182.447 65.8821C187.062 70.2351 191.985 74.588 196.601 78.941C230.448 110.655 264.295 142.37 298.449 174.084C304.296 179.37 310.142 184.656 316.296 189.63C320.912 193.361 326.45 193.361 331.681 190.563C336.912 187.765 339.373 183.101 339.373 176.883C339.681 169.731 334.45 166 330.143 161.647C308.912 142.059 287.68 122.471 266.756 102.571C248.91 86.0925 231.371 69.6133 213.832 53.1342C208.294 47.8485 202.755 42.5627 196.908 37.5879C191.062 32.6131 182.754 33.2349 177.523 38.5207C171.984 44.1174 171.369 51.5795 175.985 58.109C177.523 61.2182 179.985 63.7057 182.447 65.8821Z" fill="#257AE9"/>
<path d="M433.528 397.328C423.067 413.495 407.989 423.134 388.604 425.311C376.296 426.865 364.603 425.311 353.526 420.025C346.757 416.605 339.68 418.781 335.68 424.378C330.756 431.529 333.834 440.235 343.065 443.966C347.372 445.832 351.68 447.386 356.296 448.319C363.68 450.185 371.373 451.118 379.065 451.118C398.143 451.118 414.451 446.764 429.221 437.126C434.144 434.017 438.759 430.286 443.375 425.622C448.914 420.336 453.529 414.117 457.529 407.588C463.683 397.017 454.76 389.554 447.067 389.554C440.606 389.554 436.913 392.353 433.528 397.328Z" fill="#257AE9"/>
<path d="M233.22 227.563C241.207 227.563 247.682 221.02 247.682 212.949C247.682 204.879 241.207 198.336 233.22 198.336C225.233 198.336 218.758 204.879 218.758 212.949C218.758 221.02 225.233 227.563 233.22 227.563Z" fill="#257AE9"/>
</g>
<defs>
<filter id="filter0_dii_2329_6192" x="0" y="0" width="609.684" height="594.203" filterUnits="userSpaceOnUse" color-interpolation-filters="sRGB">
<feFlood flood-opacity="0" result="BackgroundImageFix"/>
<feColorMatrix in="SourceAlpha" type="matrix" values="0 0 0 0 0 0 0 0 0 0 0 0 0 0 0 0 0 0 127 0" result="hardAlpha"/>
<feOffset dx="6" dy="6"/>
<feGaussianBlur stdDeviation="9"/>
<feColorMatrix type="matrix" values="0 0 0 0 0 0 0 0 0 0 0 0 0 0 0 0 0 0 0.03 0"/>
<feBlend mode="normal" in2="BackgroundImageFix" result="effect1_dropShadow_2329_6192"/>
<feBlend mode="normal" in="SourceGraphic" in2="effect1_dropShadow_2329_6192" result="shape"/>
<feColorMatrix in="SourceAlpha" type="matrix" values="0 0 0 0 0 0 0 0 0 0 0 0 0 0 0 0 0 0 127 0" result="hardAlpha"/>
<feOffset dx="-6" dy="-6"/>
<feGaussianBlur stdDeviation="6.5"/>
<feComposite in2="hardAlpha" operator="arithmetic" k2="-1" k3="1"/>
<feColorMatrix type="matrix" values="0 0 0 0 0 0 0 0 0 0 0 0 0 0 0 0 0 0 0.14 0"/>
<feBlend mode="normal" in2="shape" result="effect2_innerShadow_2329_6192"/>
<feColorMatrix in="SourceAlpha" type="matrix" values="0 0 0 0 0 0 0 0 0 0 0 0 0 0 0 0 0 0 127 0" result="hardAlpha"/>
<feOffset dx="6" dy="6"/>
<feGaussianBlur stdDeviation="6.5"/>
<feComposite in2="hardAlpha" operator="arithmetic" k2="-1" k3="1"/>
<feColorMatrix type="matrix" values="0 0 0 0 1 0 0 0 0 0.975 0 0 0 0 0.975 0 0 0 0.03 0"/>
<feBlend mode="normal" in2="effect2_innerShadow_2329_6192" result="effect3_innerShadow_2329_6192"/>
</filter>
</defs>
</svg>
