<svg width="109" height="82" viewBox="0 0 109 82" fill="none" xmlns="http://www.w3.org/2000/svg">
<path d="M73.8291 40.8931C73.8291 40.8931 71.3118 41.7968 69.6991 42.824C68.3375 43.6913 66.2045 45.3986 66.2045 45.3986L66.2045 40.8931L66.2045 36.3877C66.2045 36.3877 68.5922 38.3885 70.0168 39.284C71.6086 40.2847 73.8291 40.8931 73.8291 40.8931Z" fill="black" fill-opacity="0.6"/>
<path fill-rule="evenodd" clip-rule="evenodd" d="M-0.0003051 40.6324L66.5967 40.6324L66.5967 41.4973L-0.000305176 41.4973L-0.0003051 40.6324Z" fill="black" fill-opacity="0.6"/>
<path d="M44.924 32.9281C48.1311 23.2806 57.1484 16.2481 67.891 16.0606C81.5024 15.823 92.7294 26.6646 92.967 40.2761C93.2046 53.8876 82.3629 65.1145 68.7514 65.3521C57.7061 65.545 48.231 58.4423 44.924 48.4842" stroke="#1A73E8"/>
<path d="M43.0948 13.5422L47.9619 9.48559L48.615 10.2691L44.6605 13.5651L46.1971 15.4087L48.2066 13.7338C48.9747 13.0936 49.6917 12.7668 50.3575 12.7534C51.0233 12.74 51.6072 13.0345 52.1091 13.6367C52.6367 14.2697 52.8232 14.937 52.6686 15.6386C52.5201 16.3352 52.0434 17.0189 51.2383 17.6899L48.4729 19.9948L43.0948 13.5422ZM50.5945 16.9924C51.123 16.5519 51.441 16.115 51.5485 15.6818C51.656 15.2485 51.5459 14.8352 51.2181 14.4419C50.5676 13.6614 49.7015 13.7219 48.62 14.6234L46.804 16.1369L48.7785 18.506L50.5945 16.9924Z" fill="black"/>
<path d="M59.3222 13.6162C58.5276 13.9123 57.7474 14.0066 56.9818 13.8992C56.2133 13.7843 55.5308 13.4879 54.9345 13.0101C54.3456 12.5294 53.9101 11.9105 53.628 11.1534C53.3458 10.3963 53.2702 9.64328 53.401 8.89449C53.5392 8.14291 53.8627 7.47599 54.3715 6.89372C54.8774 6.30396 55.5277 5.86103 56.3223 5.56495C57.1094 5.27166 57.8872 5.18246 58.6557 5.29737C59.4214 5.40479 60.0987 5.69881 60.6876 6.17945C61.2737 6.65259 61.7092 7.27149 61.9941 8.03613C62.279 8.80077 62.356 9.55749 62.2253 10.3063C62.0917 11.0476 61.7719 11.7131 61.266 12.3029C60.7573 12.8851 60.1094 13.3229 59.3222 13.6162ZM58.9493 12.6154C59.5266 12.4003 59.9949 12.0764 60.3545 11.6436C60.7215 11.2081 60.951 10.7128 61.043 10.1577C61.1397 9.59239 61.0819 9.02485 60.8696 8.45512C60.6573 7.88538 60.331 7.42215 59.8908 7.06542C59.4552 6.6984 58.9562 6.47029 58.3936 6.3811C57.8386 6.28911 57.2724 6.35065 56.6952 6.56573C56.118 6.78081 55.6421 7.10753 55.2676 7.54588C54.9005 7.98144 54.6687 8.48189 54.572 9.04723C54.48 9.60228 54.5402 10.1647 54.7524 10.7344C54.9647 11.3041 55.2886 11.7725 55.7242 12.1395C56.1645 12.4963 56.6659 12.7192 57.2284 12.8084C57.7985 12.8948 58.3721 12.8305 58.9493 12.6154Z" fill="black"/>
<path d="M72.5026 3.65628L72.5634 12.0561L71.3875 12.0646L71.3342 4.70878L67.6143 4.73574L67.5481 7.19628C67.5165 8.35654 67.4273 9.29721 67.2805 10.0183C67.1418 10.7393 66.9137 11.285 66.5964 11.6553C66.279 12.0176 65.8483 12.2007 65.3043 12.2047C65.0563 12.2065 64.8041 12.1763 64.5476 12.1142L64.6239 11.0456C64.7521 11.0766 64.8802 11.0917 65.0082 11.0908C65.3522 11.0883 65.6272 10.9503 65.8333 10.6768C66.0392 10.3953 66.1922 9.97818 66.2922 9.42544C66.3922 8.8727 66.4549 8.14423 66.4804 7.24002L66.5867 3.69916L72.5026 3.65628Z" fill="black"/>
<path d="M80.561 8.86213C81.5103 9.17635 82.1653 9.62907 82.5257 10.2203C82.8938 10.814 82.9409 11.5248 82.6669 12.3526C82.3778 13.226 81.8844 13.8001 81.1868 14.0748C80.4967 14.352 79.6466 14.3234 78.6365 13.9891L75.3442 12.8994L77.9836 4.92485L79.1114 5.29814L78.1914 8.07784L80.561 8.86213ZM78.8888 13.074C79.5496 13.2927 80.1037 13.3118 80.5511 13.1312C81.0086 12.9456 81.3316 12.568 81.5201 11.9984C81.8821 10.9047 81.3795 10.1316 80.0125 9.67916L77.8935 8.97783L76.7699 12.3727L78.8888 13.074Z" fill="black"/>
<path d="M96.9785 16.4219L91.6212 22.8918L83.5153 16.1799L88.8726 9.71005L89.7876 10.4677L85.0962 16.1335L87.7858 18.3606L92.4773 12.6948L93.3831 13.4448L88.6916 19.1106L91.3812 21.3377L96.0727 15.6719L96.9785 16.4219Z" fill="black"/>
<path d="M96.1894 29.8283L95.2826 30.3457L92.2616 25.0509L99.5575 20.8881L102.495 26.0369L101.589 26.5543L99.2454 22.4477L97.0045 23.7263L99.0919 27.3847L98.206 27.8902L96.1186 24.2318L93.7631 25.5758L96.1894 29.8283Z" fill="black"/>
<path d="M105.229 45.4734L96.8291 45.4734L96.8291 44.2974L104.185 44.2974L104.185 39.4254L96.8291 39.4254L96.8291 38.2374L105.229 38.2374L105.229 45.4734Z" fill="black"/>
<path d="M102.87 53.6761C102.52 54.7065 101.999 55.4336 101.306 55.8576C100.614 56.2816 99.8354 56.3472 98.9717 56.0544C98.108 55.7615 97.5301 55.2362 97.2379 54.4782C96.9458 53.7203 96.9745 52.8262 97.3238 51.7958L97.9904 49.8297L95.5811 49.0128L95.9664 47.8764L103.922 50.5735L102.87 53.6761ZM98.3241 52.0969C98.0801 52.8166 98.0454 53.4173 98.22 53.8989C98.4022 54.383 98.7812 54.7227 99.357 54.9179C99.9328 55.1131 100.436 55.0727 100.868 54.7966C101.307 54.5231 101.649 54.0265 101.893 53.3068L102.548 51.3748L98.9791 50.1649L98.3241 52.0969Z" fill="black"/>
<path d="M90.0402 58.9795C90.5635 58.3122 91.1797 57.8246 91.8889 57.5166C92.6044 57.2135 93.3412 57.1102 94.0993 57.2065C94.8525 57.3092 95.547 57.6098 96.1828 58.1084C96.8186 58.607 97.2761 59.2098 97.5554 59.9168C97.8297 60.63 97.9018 61.3677 97.7718 62.1299C97.648 62.897 97.3245 63.6142 96.8012 64.2815C96.2829 64.9425 95.666 65.4246 94.9505 65.7276C94.2413 66.0356 93.5101 66.1383 92.7569 66.0357C92.0101 65.938 91.3156 65.6373 90.6735 65.1338C90.0314 64.6303 89.5707 64.025 89.2914 63.318C89.0185 62.616 88.9439 61.8814 89.0676 61.1143C89.1977 60.3521 89.5219 59.6405 90.0402 58.9795ZM90.8806 59.6386C90.5005 60.1233 90.27 60.6441 90.1892 61.2009C90.1035 61.7639 90.1662 62.3062 90.3774 62.8277C90.59 63.3604 90.9355 63.8143 91.414 64.1895C91.8924 64.5647 92.4125 64.7896 92.9742 64.8641C93.5373 64.9498 94.082 64.8839 94.6084 64.6664C95.1299 64.4552 95.5807 64.1072 95.9608 63.6225C96.3409 63.1378 96.5763 62.6107 96.667 62.0413C96.7528 61.4782 96.6894 60.9303 96.4768 60.3976C96.2656 59.8762 95.9207 59.4278 95.4423 59.0527C94.9639 58.6775 94.4431 58.447 93.88 58.3613C93.3183 58.2868 92.7742 58.3583 92.2478 58.5758C91.7165 58.7996 91.2607 59.1539 90.8806 59.6386Z" fill="black"/>
<path d="M80.7518 67.8183L80.1806 66.9444L85.2834 63.6093L89.8789 70.6407L84.9168 73.8839L84.3456 73.01L88.3033 70.4233L86.8918 68.2637L83.366 70.568L82.808 69.7142L86.3338 67.4099L84.8501 65.1397L80.7518 67.8183Z" fill="black"/>
<path d="M76.1547 71.8958L77.8411 71.4208L76.8391 67.8632L77.9711 67.5444L80.2484 75.6298L79.1164 75.9486L78.1274 72.4372L76.4179 72.9187L74.8658 77.1458L73.6299 77.4939L75.4147 72.765L71.214 69.4476L72.5307 69.0767L76.1547 71.8958Z" fill="black"/>
<path d="M63.1015 76.3774L65.9802 76.4632L66.1993 69.1104L67.3748 69.1455L67.1557 76.4982L70.0224 76.5836L69.9913 77.6272L63.0704 77.4209L63.1015 76.3774Z" fill="black"/>
<path d="M57.4029 66.9167C58.1975 67.2128 58.8492 67.652 59.3579 68.2342C59.8638 68.824 60.1859 69.4947 60.3242 70.2463C60.455 70.9951 60.3793 71.748 60.0972 72.5052C59.8151 73.2623 59.3796 73.8812 58.7907 74.3618C58.1943 74.8397 57.5133 75.1323 56.7476 75.2397C55.9791 75.3546 55.1976 75.2641 54.4029 74.968C53.6158 74.6747 52.9693 74.2332 52.4633 73.6434C51.9546 73.0611 51.6349 72.3956 51.5041 71.6468C51.3705 70.9055 51.4462 70.1525 51.7311 69.3879C52.016 68.6233 52.4529 68.0006 53.0418 67.52C53.6279 67.0468 54.3052 66.7528 55.0736 66.6379C55.8393 66.5305 56.6157 66.6234 57.4029 66.9167ZM57.03 67.9175C56.4528 67.7024 55.8866 67.6409 55.3316 67.7329C54.769 67.8221 54.2714 68.0464 53.8386 68.4059C53.3955 68.7702 53.0679 69.2371 52.8556 69.8069C52.6433 70.3766 52.5869 70.9404 52.6864 71.4983C52.7756 72.0608 53.0037 72.5599 53.3707 72.9954C53.7302 73.4282 54.1986 73.7521 54.7758 73.9672C55.3531 74.1823 55.9267 74.2466 56.4967 74.1602C57.0593 74.071 57.5621 73.8443 58.0051 73.4801C58.4379 73.1205 58.7604 72.6559 58.9727 72.0862C59.185 71.5164 59.2466 70.9503 59.1574 70.3878C59.0579 69.8299 58.8246 69.3332 58.4576 68.8976C58.0831 68.4593 57.6072 68.1326 57.03 67.9175Z" fill="black"/>
<path d="M44.7638 63.832C44.4146 63.3639 44.242 62.9024 44.2461 62.4476C44.239 61.9939 44.4096 61.558 44.7579 61.1402C45.224 60.5809 45.791 60.3193 46.4588 60.3552C47.1205 60.386 47.8416 60.7266 48.622 61.3771L51.5718 63.8357L46.1937 70.2883L43.4191 67.9757C42.7124 67.3867 42.2827 66.7838 42.1302 66.1672C41.9663 65.5516 42.1072 64.9764 42.5528 64.4418C42.8448 64.0915 43.1823 63.8677 43.5654 63.7705C43.9423 63.6681 44.3418 63.6886 44.7638 63.832ZM47.6475 66.6885L45.85 65.1903C45.4014 64.8164 44.986 64.6213 44.604 64.6048C44.2157 64.5833 43.8782 64.7446 43.5914 65.0887C43.3046 65.4329 43.2067 65.7939 43.2978 66.1719C43.3839 66.556 43.6481 66.9325 44.0906 67.3012L45.8881 68.7994L47.6475 66.6885ZM48.0335 62.1207C47.0441 61.2961 46.2421 61.2525 45.6274 61.9899C45.3201 62.3586 45.2207 62.734 45.3293 63.1161C45.4266 63.4992 45.721 63.8956 46.2126 64.3054L48.2314 65.9879L50.0523 63.8033L48.0335 62.1207Z" fill="black"/>
</svg>
