<svg width="19" height="19" viewBox="0 0 19 19" fill="none" xmlns="http://www.w3.org/2000/svg">
<path opacity="0.8" d="M19 9.5C19 14.7467 14.7467 19 9.5 19C4.25329 19 0 14.7467 0 9.5C0 4.25329 4.25329 0 9.5 0C14.7467 0 19 4.25329 19 9.5Z" fill="black"/>
<path fill-rule="evenodd" clip-rule="evenodd" d="M4.5 14.1002C4.5 13.8793 4.67909 13.7002 4.9 13.7002H14.1C14.3209 13.7002 14.5 13.8793 14.5 14.1002C14.5 14.3211 14.3209 14.5002 14.1 14.5002H4.9C4.67909 14.5002 4.5 14.3211 4.5 14.1002Z" fill="white"/>
<path fill-rule="evenodd" clip-rule="evenodd" d="M12.3282 9.23736L9.78257 11.7829C9.62636 11.9392 9.3731 11.9392 9.21689 11.7829L6.6713 9.23736C6.51509 9.08115 6.51509 8.82788 6.6713 8.67167C6.82751 8.51546 7.08078 8.51546 7.23699 8.67167L9.09973 10.5344L9.09973 4.5001C9.09973 4.27918 9.27881 4.1001 9.49973 4.1001C9.72064 4.1001 9.89973 4.27918 9.89973 4.5001L9.89973 10.5344L11.7625 8.67167C11.9187 8.51546 12.1719 8.51546 12.3282 8.67167C12.4844 8.82788 12.4844 9.08115 12.3282 9.23736Z" fill="white"/>
</svg>
