<svg width="684" height="419" viewBox="0 0 684 419" fill="none" xmlns="http://www.w3.org/2000/svg">
<g filter="url(#filter0_d_2574_9931)">
<path d="M29.5305 171.39L11 152.81C11 152.81 37.6965 152.81 42.0936 152.81H384.751C391.661 152.81 397 158.035 397 164.422V231.197C397 237.584 391.661 242.81 384.751 242.81H42.0936C35.1839 242.81 29.5305 237.874 29.5305 231.197V171.39Z" fill="white"/>
<path d="M369.181 216.511L366.236 223.112H365.289L368.224 216.745H364.376V216.003H369.181V216.511ZM370.27 222.639C370.27 222.482 370.315 222.352 370.406 222.248C370.501 222.144 370.641 222.092 370.826 222.092C371.012 222.092 371.152 222.144 371.246 222.248C371.344 222.352 371.393 222.482 371.393 222.639C371.393 222.788 371.344 222.914 371.246 223.015C371.152 223.116 371.012 223.166 370.826 223.166C370.641 223.166 370.501 223.116 370.406 223.015C370.315 222.914 370.27 222.788 370.27 222.639ZM370.274 218.327C370.274 218.171 370.32 218.041 370.411 217.937C370.506 217.832 370.646 217.78 370.831 217.78C371.017 217.78 371.157 217.832 371.251 217.937C371.349 218.041 371.397 218.171 371.397 218.327C371.397 218.477 371.349 218.602 371.251 218.703C371.157 218.804 371.017 218.854 370.831 218.854C370.646 218.854 370.506 218.804 370.411 218.703C370.32 218.602 370.274 218.477 370.274 218.327ZM373.043 219.548L373.404 216.003H377.047V216.838H374.171L373.956 218.776C374.304 218.571 374.7 218.469 375.143 218.469C375.79 218.469 376.305 218.684 376.686 219.113C377.066 219.54 377.257 220.118 377.257 220.847C377.257 221.579 377.058 222.157 376.661 222.58C376.267 223 375.715 223.21 375.006 223.21C374.378 223.21 373.865 223.036 373.468 222.688C373.071 222.339 372.844 221.857 372.789 221.242H373.644C373.699 221.649 373.844 221.957 374.078 222.165C374.312 222.37 374.622 222.473 375.006 222.473C375.426 222.473 375.755 222.329 375.992 222.043C376.233 221.757 376.354 221.361 376.354 220.856C376.354 220.381 376.223 220 375.963 219.714C375.706 219.424 375.362 219.279 374.933 219.279C374.539 219.279 374.229 219.366 374.005 219.538L373.766 219.733L373.043 219.548ZM381.705 219.987C381.516 220.212 381.29 220.393 381.026 220.529C380.766 220.666 380.479 220.734 380.167 220.734C379.757 220.734 379.399 220.633 379.093 220.432C378.79 220.23 378.556 219.947 378.39 219.582C378.224 219.214 378.141 218.809 378.141 218.366C378.141 217.891 378.23 217.463 378.409 217.082C378.591 216.701 378.849 216.41 379.181 216.208C379.513 216.006 379.9 215.905 380.343 215.905C381.046 215.905 381.599 216.169 382.003 216.696C382.41 217.22 382.613 217.937 382.613 218.845V219.108C382.613 220.492 382.34 221.503 381.793 222.141C381.246 222.775 380.421 223.101 379.317 223.117H379.142V222.355H379.332C380.077 222.342 380.65 222.149 381.051 221.774C381.451 221.397 381.669 220.801 381.705 219.987ZM380.313 219.987C380.616 219.987 380.895 219.895 381.148 219.709C381.406 219.523 381.593 219.294 381.71 219.021V218.659C381.71 218.067 381.581 217.585 381.324 217.214C381.067 216.843 380.742 216.657 380.348 216.657C379.951 216.657 379.632 216.81 379.391 217.116C379.15 217.419 379.029 217.819 379.029 218.317C379.029 218.802 379.145 219.203 379.376 219.519C379.61 219.831 379.923 219.987 380.313 219.987Z" fill="#ADADAD"/>
<path d="M52.3882 179.076H51.1758V176.81H44.5425V179.082H43.3237L43.3174 175.813H44.0728C44.4705 175.364 44.7858 174.764 45.0186 174.01C45.2555 173.253 45.4036 172.423 45.4629 171.522L45.666 167.567H51.1948V175.813H52.4009L52.3882 179.076ZM45.4629 175.813H49.9697V168.57H46.8403L46.707 171.287C46.652 172.349 46.5103 173.255 46.2817 174.004C46.0575 174.753 45.7845 175.356 45.4629 175.813ZM53.353 173.312C53.353 172.639 53.4842 172.034 53.7466 171.497C54.0132 170.959 54.3813 170.544 54.8511 170.252C55.325 169.96 55.8646 169.814 56.4697 169.814C57.4049 169.814 58.1603 170.138 58.7358 170.786C59.3156 171.433 59.6055 172.294 59.6055 173.369V173.452C59.6055 174.12 59.4764 174.721 59.2183 175.254C58.9644 175.783 58.5983 176.196 58.1201 176.492C57.6462 176.788 57.1003 176.937 56.4824 176.937C55.5514 176.937 54.7961 176.613 54.2163 175.965C53.6408 175.318 53.353 174.461 53.353 173.395V173.312ZM54.5337 173.452C54.5337 174.213 54.7093 174.825 55.0605 175.286C55.416 175.747 55.89 175.978 56.4824 175.978C57.0791 175.978 57.5531 175.745 57.9043 175.28C58.2555 174.81 58.4312 174.154 58.4312 173.312C58.4312 172.559 58.2513 171.949 57.8916 171.484C57.5361 171.014 57.0622 170.779 56.4697 170.779C55.89 170.779 55.4224 171.01 55.0669 171.471C54.7114 171.932 54.5337 172.593 54.5337 173.452ZM64.0933 170.335C64.9565 170.335 65.6463 170.625 66.1626 171.205C66.6831 171.78 66.9434 172.54 66.9434 173.483V173.591C66.9434 174.239 66.8185 174.819 66.5688 175.331C66.3192 175.838 65.9595 176.234 65.4897 176.518C65.0243 176.797 64.4868 176.937 63.8774 176.937C62.9549 176.937 62.2122 176.63 61.6494 176.016C61.0866 175.398 60.8052 174.571 60.8052 173.534V172.963C60.8052 171.52 61.0718 170.373 61.605 169.522C62.1424 168.672 62.9338 168.153 63.979 167.967C64.5715 167.861 64.9714 167.732 65.1787 167.58C65.3861 167.428 65.4897 167.218 65.4897 166.952H66.4546C66.4546 167.481 66.334 167.893 66.0928 168.189C65.8558 168.486 65.4749 168.695 64.9502 168.818L64.0742 169.015C63.376 169.18 62.8512 169.459 62.5 169.853C62.153 170.242 61.9266 170.762 61.8208 171.414C62.4429 170.695 63.2004 170.335 64.0933 170.335ZM63.8647 171.3C63.2892 171.3 62.8322 171.494 62.4937 171.884C62.1551 172.269 61.9858 172.804 61.9858 173.49V173.591C61.9858 174.328 62.1551 174.912 62.4937 175.343C62.8364 175.771 63.2977 175.984 63.8774 175.984C64.4614 175.984 64.9227 175.769 65.2612 175.337C65.5998 174.905 65.769 174.275 65.769 173.445C65.769 172.798 65.5977 172.279 65.2549 171.89C64.9163 171.497 64.453 171.3 63.8647 171.3ZM73.9512 173.452C73.9512 174.497 73.7121 175.339 73.2339 175.978C72.7557 176.617 72.1082 176.937 71.2915 176.937C70.4578 176.937 69.8019 176.672 69.3237 176.143V179.45H68.1494V169.941H69.2222L69.2793 170.703C69.7575 170.111 70.4219 169.814 71.2725 169.814C72.0977 169.814 72.7493 170.125 73.2275 170.748C73.71 171.37 73.9512 172.235 73.9512 173.344V173.452ZM72.7769 173.318C72.7769 172.544 72.6118 171.932 72.2817 171.484C71.9517 171.035 71.4989 170.811 70.9233 170.811C70.2124 170.811 69.6792 171.126 69.3237 171.757V175.039C69.675 175.665 70.2124 175.978 70.936 175.978C71.4989 175.978 71.9453 175.756 72.2754 175.312C72.6097 174.863 72.7769 174.199 72.7769 173.318ZM76.7314 172.309H78.5151C79.2938 172.318 79.9095 172.521 80.3623 172.918C80.8151 173.316 81.0415 173.856 81.0415 174.537C81.0415 175.223 80.8088 175.773 80.3433 176.188C79.8778 176.602 79.2515 176.81 78.4644 176.81H75.5571V169.941H76.7314V172.309ZM83.4917 176.81H82.311V169.941H83.4917V176.81ZM76.7314 173.268V175.851H78.4771C78.9172 175.851 79.2578 175.739 79.499 175.515C79.7402 175.286 79.8608 174.975 79.8608 174.582C79.8608 174.201 79.7424 173.89 79.5054 173.648C79.2726 173.403 78.9447 173.276 78.5215 173.268H76.7314ZM89.9854 169.941H91.1597V176.81H89.9854V171.801L86.8179 176.81H85.6436V169.941H86.8179V174.956L89.9854 169.941ZM90.3027 167.44C90.3027 167.952 90.1271 168.365 89.7759 168.678C89.4289 168.987 88.9718 169.142 88.4048 169.142C87.8377 169.142 87.3786 168.985 87.0273 168.672C86.6761 168.359 86.5005 167.948 86.5005 167.44H87.459C87.459 167.737 87.5394 167.969 87.7002 168.139C87.861 168.304 88.0959 168.386 88.4048 168.386C88.701 168.386 88.9316 168.304 89.0967 168.139C89.266 167.974 89.3506 167.741 89.3506 167.44H90.3027ZM96.2124 175.851L96.6187 175.35C97.0757 174.757 97.3359 173.868 97.3994 172.684L97.5073 169.941H101.932V175.851H102.814V178.828H101.64V176.81H96.8472V178.828H95.6729L95.6792 175.851H96.2124ZM97.6025 175.851H100.757V171.027H98.6436L98.5737 172.665C98.5018 174.031 98.1781 175.094 97.6025 175.851ZM106.965 176.937C106.034 176.937 105.277 176.632 104.693 176.022C104.109 175.409 103.817 174.59 103.817 173.566V173.35C103.817 172.669 103.946 172.062 104.204 171.528C104.466 170.991 104.83 170.572 105.296 170.271C105.766 169.967 106.273 169.814 106.819 169.814C107.712 169.814 108.406 170.109 108.901 170.697C109.396 171.285 109.644 172.127 109.644 173.223V173.712H104.991C105.008 174.389 105.205 174.937 105.582 175.356C105.962 175.771 106.445 175.978 107.029 175.978C107.444 175.978 107.795 175.893 108.083 175.724C108.37 175.555 108.622 175.331 108.838 175.051L109.555 175.61C108.98 176.494 108.116 176.937 106.965 176.937ZM106.819 170.779C106.345 170.779 105.948 170.953 105.626 171.3C105.304 171.643 105.105 172.125 105.029 172.747H108.47V172.658C108.436 172.062 108.275 171.6 107.987 171.274C107.7 170.944 107.31 170.779 106.819 170.779ZM116.62 176.81H115.446V173.877H112.291V176.81H111.11V169.941H112.291V172.918H115.446V169.941H116.62V176.81ZM119.794 172.309H121.578C122.356 172.318 122.972 172.521 123.425 172.918C123.878 173.316 124.104 173.856 124.104 174.537C124.104 175.223 123.871 175.773 123.406 176.188C122.94 176.602 122.314 176.81 121.527 176.81H118.62V169.941H119.794V172.309ZM119.794 173.268V175.851H121.54C121.98 175.851 122.32 175.739 122.562 175.515C122.803 175.286 122.923 174.975 122.923 174.582C122.923 174.201 122.805 173.89 122.568 173.648C122.335 173.403 122.007 173.276 121.584 173.268H119.794ZM125.596 176.194C125.596 175.991 125.655 175.821 125.773 175.686C125.896 175.551 126.078 175.483 126.319 175.483C126.561 175.483 126.743 175.551 126.865 175.686C126.992 175.821 127.056 175.991 127.056 176.194C127.056 176.389 126.992 176.551 126.865 176.683C126.743 176.814 126.561 176.879 126.319 176.879C126.078 176.879 125.896 176.814 125.773 176.683C125.655 176.551 125.596 176.389 125.596 176.194ZM51.1313 194.81H49.9062V186.57H45.3486V194.81H44.1299V185.567H51.1313V194.81ZM58.9707 191.452C58.9707 192.497 58.7316 193.339 58.2534 193.978C57.7752 194.617 57.1278 194.937 56.311 194.937C55.4774 194.937 54.8215 194.672 54.3433 194.143V197.45H53.1689V187.941H54.2417L54.2988 188.703C54.777 188.111 55.4414 187.814 56.292 187.814C57.1172 187.814 57.7689 188.125 58.2471 188.748C58.7295 189.37 58.9707 190.235 58.9707 191.344V191.452ZM57.7964 191.318C57.7964 190.544 57.6313 189.932 57.3013 189.484C56.9712 189.035 56.5184 188.811 55.9429 188.811C55.2319 188.811 54.6987 189.126 54.3433 189.757V193.039C54.6945 193.665 55.2319 193.978 55.9556 193.978C56.5184 193.978 56.9648 193.756 57.2949 193.312C57.6292 192.863 57.7964 192.199 57.7964 191.318ZM64.9121 187.941H66.0864V194.81H64.9121V189.801L61.7446 194.81H60.5703V187.941H61.7446V192.956L64.9121 187.941ZM69.2539 187.941V193.851H71.7676V187.941H72.9419V193.851H75.4492V187.941H76.6299V194.81H68.0732V187.941H69.2539ZM84.1138 187.941V194.81H82.9331V188.913H80.5972L80.4575 191.483C80.3813 192.664 80.1825 193.508 79.8608 194.016C79.5435 194.524 79.0378 194.788 78.3438 194.81H77.874V193.775L78.2104 193.75C78.5913 193.707 78.8643 193.487 79.0293 193.089C79.1943 192.692 79.3001 191.955 79.3467 190.88L79.4736 187.941H84.1138ZM90.4424 187.941H91.6167V194.81H90.4424V189.801L87.2749 194.81H86.1006V187.941H87.2749V192.956L90.4424 187.941ZM98.6055 188.894H96.3013V194.81H95.127V188.894H92.8672V187.941H98.6055V188.894ZM102.09 194.937C101.159 194.937 100.402 194.632 99.8179 194.022C99.2339 193.409 98.9419 192.59 98.9419 191.566V191.35C98.9419 190.669 99.071 190.062 99.3291 189.528C99.5915 188.991 99.9554 188.572 100.421 188.271C100.891 187.967 101.398 187.814 101.944 187.814C102.837 187.814 103.531 188.109 104.026 188.697C104.521 189.285 104.769 190.127 104.769 191.223V191.712H100.116C100.133 192.389 100.33 192.937 100.707 193.356C101.087 193.771 101.57 193.978 102.154 193.978C102.569 193.978 102.92 193.893 103.208 193.724C103.495 193.555 103.747 193.331 103.963 193.051L104.68 193.61C104.105 194.494 103.241 194.937 102.09 194.937ZM101.944 188.779C101.47 188.779 101.073 188.953 100.751 189.3C100.429 189.643 100.23 190.125 100.154 190.747H103.595V190.658C103.561 190.062 103.4 189.6 103.112 189.274C102.825 188.944 102.435 188.779 101.944 188.779ZM106.096 196.65L105.429 196.193C105.827 195.639 106.034 195.068 106.051 194.479V193.419H107.2V194.34C107.2 194.767 107.094 195.195 106.883 195.622C106.675 196.049 106.413 196.392 106.096 196.65ZM117.528 194.81H116.354V188.913H113.192V194.81H112.012V187.941H117.528V194.81ZM119.102 191.312C119.102 190.639 119.233 190.034 119.496 189.497C119.762 188.959 120.13 188.544 120.6 188.252C121.074 187.96 121.614 187.814 122.219 187.814C123.154 187.814 123.909 188.138 124.485 188.786C125.065 189.433 125.354 190.294 125.354 191.369V191.452C125.354 192.12 125.225 192.721 124.967 193.254C124.713 193.783 124.347 194.196 123.869 194.492C123.395 194.788 122.849 194.937 122.231 194.937C121.3 194.937 120.545 194.613 119.965 193.965C119.39 193.318 119.102 192.461 119.102 191.395V191.312ZM120.283 191.452C120.283 192.213 120.458 192.825 120.81 193.286C121.165 193.747 121.639 193.978 122.231 193.978C122.828 193.978 123.302 193.745 123.653 193.28C124.005 192.81 124.18 192.154 124.18 191.312C124.18 190.559 124 189.949 123.641 189.484C123.285 189.014 122.811 188.779 122.219 188.779C121.639 188.779 121.171 189.01 120.816 189.471C120.46 189.932 120.283 190.593 120.283 191.452ZM132.166 191.826H131.34V194.81H130.166V191.826H129.341L127.417 194.81H125.932L128.389 191.255L126.167 187.941H127.589L129.36 190.785H130.166V187.941H131.34V190.785H132.14L133.924 187.941H135.346L133.118 191.261L135.574 194.81H134.089L132.166 191.826ZM140.881 194.81C140.813 194.674 140.758 194.433 140.716 194.086C140.17 194.653 139.518 194.937 138.761 194.937C138.084 194.937 137.527 194.746 137.091 194.365C136.66 193.98 136.444 193.493 136.444 192.905C136.444 192.19 136.715 191.636 137.256 191.242C137.802 190.844 138.568 190.646 139.554 190.646H140.697V190.106C140.697 189.695 140.574 189.37 140.329 189.128C140.083 188.883 139.721 188.76 139.243 188.76C138.824 188.76 138.473 188.866 138.189 189.078C137.906 189.289 137.764 189.545 137.764 189.846H136.583C136.583 189.503 136.704 189.173 136.945 188.855C137.191 188.534 137.521 188.28 137.936 188.094C138.354 187.908 138.814 187.814 139.313 187.814C140.104 187.814 140.724 188.013 141.173 188.411C141.621 188.805 141.854 189.348 141.871 190.042V193.204C141.871 193.834 141.951 194.336 142.112 194.708V194.81H140.881ZM138.932 193.915C139.3 193.915 139.649 193.819 139.979 193.629C140.31 193.438 140.549 193.191 140.697 192.886V191.477H139.776C138.338 191.477 137.618 191.898 137.618 192.74C137.618 193.108 137.741 193.396 137.986 193.604C138.232 193.811 138.547 193.915 138.932 193.915ZM149.342 187.941V194.81H148.162V188.913H145.826L145.686 191.483C145.61 192.664 145.411 193.508 145.089 194.016C144.772 194.524 144.266 194.788 143.572 194.81H143.103V193.775L143.439 193.75C143.82 193.707 144.093 193.487 144.258 193.089C144.423 192.692 144.529 191.955 144.575 190.88L144.702 187.941H149.342ZM153.475 193.089L155.074 187.941H156.331L153.57 195.87C153.142 197.012 152.463 197.583 151.532 197.583L151.31 197.564L150.872 197.482V196.53L151.189 196.555C151.587 196.555 151.896 196.475 152.116 196.314C152.34 196.153 152.525 195.859 152.668 195.432L152.929 194.733L150.479 187.941H151.761L153.475 193.089ZM161.828 187.941H163.002V194.81H161.828V189.801L158.661 194.81H157.486V187.941H158.661V192.956L161.828 187.941ZM162.146 185.44C162.146 185.952 161.97 186.365 161.619 186.678C161.272 186.987 160.815 187.142 160.248 187.142C159.681 187.142 159.221 186.985 158.87 186.672C158.519 186.359 158.343 185.948 158.343 185.44H159.302C159.302 185.737 159.382 185.969 159.543 186.139C159.704 186.304 159.939 186.386 160.248 186.386C160.544 186.386 160.774 186.304 160.939 186.139C161.109 185.974 161.193 185.741 161.193 185.44H162.146ZM167.643 193.978C168.062 193.978 168.428 193.851 168.741 193.597C169.054 193.343 169.227 193.026 169.261 192.645H170.372C170.351 193.039 170.215 193.413 169.966 193.769C169.716 194.124 169.382 194.408 168.963 194.619C168.548 194.831 168.108 194.937 167.643 194.937C166.707 194.937 165.963 194.625 165.408 194.003C164.858 193.377 164.583 192.522 164.583 191.439V191.242C164.583 190.574 164.706 189.979 164.951 189.458C165.197 188.938 165.548 188.534 166.005 188.246C166.466 187.958 167.01 187.814 167.636 187.814C168.406 187.814 169.045 188.045 169.553 188.506C170.065 188.968 170.338 189.566 170.372 190.303H169.261C169.227 189.858 169.058 189.494 168.753 189.211C168.453 188.923 168.081 188.779 167.636 188.779C167.04 188.779 166.576 188.995 166.246 189.427C165.92 189.854 165.757 190.474 165.757 191.287V191.509C165.757 192.3 165.92 192.91 166.246 193.337C166.572 193.764 167.037 193.978 167.643 193.978ZM176.796 188.894H174.492V194.81H173.317V188.894H171.058V187.941H176.796V188.894ZM182.077 194.81C182.009 194.674 181.954 194.433 181.912 194.086C181.366 194.653 180.715 194.937 179.957 194.937C179.28 194.937 178.723 194.746 178.288 194.365C177.856 193.98 177.64 193.493 177.64 192.905C177.64 192.19 177.911 191.636 178.453 191.242C178.999 190.844 179.764 190.646 180.75 190.646H181.893V190.106C181.893 189.695 181.77 189.37 181.525 189.128C181.279 188.883 180.918 188.76 180.439 188.76C180.021 188.76 179.669 188.866 179.386 189.078C179.102 189.289 178.96 189.545 178.96 189.846H177.78C177.78 189.503 177.9 189.173 178.142 188.855C178.387 188.534 178.717 188.28 179.132 188.094C179.551 187.908 180.01 187.814 180.509 187.814C181.301 187.814 181.921 188.013 182.369 188.411C182.818 188.805 183.05 189.348 183.067 190.042V193.204C183.067 193.834 183.148 194.336 183.309 194.708V194.81H182.077ZM180.128 193.915C180.497 193.915 180.846 193.819 181.176 193.629C181.506 193.438 181.745 193.191 181.893 192.886V191.477H180.973C179.534 191.477 178.814 191.898 178.814 192.74C178.814 193.108 178.937 193.396 179.183 193.604C179.428 193.811 179.743 193.915 180.128 193.915ZM192.087 193.254L194.423 187.941H195.89V194.81H194.715V189.814L192.494 194.81H191.681L189.415 189.706V194.81H188.241V187.941H189.764L192.087 193.254ZM202.021 194.81C201.954 194.674 201.899 194.433 201.856 194.086C201.311 194.653 200.659 194.937 199.901 194.937C199.224 194.937 198.668 194.746 198.232 194.365C197.8 193.98 197.584 193.493 197.584 192.905C197.584 192.19 197.855 191.636 198.397 191.242C198.943 190.844 199.709 190.646 200.695 190.646H201.837V190.106C201.837 189.695 201.715 189.37 201.469 189.128C201.224 188.883 200.862 188.76 200.384 188.76C199.965 188.76 199.614 188.866 199.33 189.078C199.047 189.289 198.905 189.545 198.905 189.846H197.724C197.724 189.503 197.845 189.173 198.086 188.855C198.331 188.534 198.661 188.28 199.076 188.094C199.495 187.908 199.954 187.814 200.454 187.814C201.245 187.814 201.865 188.013 202.313 188.411C202.762 188.805 202.995 189.348 203.012 190.042V193.204C203.012 193.834 203.092 194.336 203.253 194.708V194.81H202.021ZM200.073 193.915C200.441 193.915 200.79 193.819 201.12 193.629C201.45 193.438 201.689 193.191 201.837 192.886V191.477H200.917C199.478 191.477 198.759 191.898 198.759 192.74C198.759 193.108 198.882 193.396 199.127 193.604C199.372 193.811 199.688 193.915 200.073 193.915ZM209.854 188.894H207.55V194.81H206.376V188.894H204.116V187.941H209.854V188.894ZM213.339 194.937C212.408 194.937 211.651 194.632 211.067 194.022C210.483 193.409 210.191 192.59 210.191 191.566V191.35C210.191 190.669 210.32 190.062 210.578 189.528C210.84 188.991 211.204 188.572 211.67 188.271C212.14 187.967 212.647 187.814 213.193 187.814C214.086 187.814 214.78 188.109 215.275 188.697C215.771 189.285 216.018 190.127 216.018 191.223V191.712H211.365C211.382 192.389 211.579 192.937 211.956 193.356C212.336 193.771 212.819 193.978 213.403 193.978C213.818 193.978 214.169 193.893 214.457 193.724C214.744 193.555 214.996 193.331 215.212 193.051L215.929 193.61C215.354 194.494 214.49 194.937 213.339 194.937ZM213.193 188.779C212.719 188.779 212.322 188.953 212 189.3C211.678 189.643 211.479 190.125 211.403 190.747H214.844V190.658C214.81 190.062 214.649 189.6 214.361 189.274C214.074 188.944 213.684 188.779 213.193 188.779ZM223.185 191.452C223.185 192.497 222.945 193.339 222.467 193.978C221.989 194.617 221.342 194.937 220.525 194.937C219.691 194.937 219.035 194.672 218.557 194.143V197.45H217.383V187.941H218.456L218.513 188.703C218.991 188.111 219.655 187.814 220.506 187.814C221.331 187.814 221.983 188.125 222.461 188.748C222.943 189.37 223.185 190.235 223.185 191.344V191.452ZM222.01 191.318C222.01 190.544 221.845 189.932 221.515 189.484C221.185 189.035 220.732 188.811 220.157 188.811C219.446 188.811 218.913 189.126 218.557 189.757V193.039C218.908 193.665 219.446 193.978 220.169 193.978C220.732 193.978 221.179 193.756 221.509 193.312C221.843 192.863 222.01 192.199 222.01 191.318ZM229.126 187.941H230.3V194.81H229.126V189.801L225.958 194.81H224.784V187.941H225.958V192.956L229.126 187.941ZM236.426 194.81C236.358 194.674 236.303 194.433 236.261 194.086C235.715 194.653 235.063 194.937 234.306 194.937C233.629 194.937 233.072 194.746 232.636 194.365C232.205 193.98 231.989 193.493 231.989 192.905C231.989 192.19 232.26 191.636 232.801 191.242C233.347 190.844 234.113 190.646 235.099 190.646H236.242V190.106C236.242 189.695 236.119 189.37 235.874 189.128C235.628 188.883 235.266 188.76 234.788 188.76C234.369 188.76 234.018 188.866 233.734 189.078C233.451 189.289 233.309 189.545 233.309 189.846H232.128C232.128 189.503 232.249 189.173 232.49 188.855C232.736 188.534 233.066 188.28 233.48 188.094C233.899 187.908 234.359 187.814 234.858 187.814C235.649 187.814 236.269 188.013 236.718 188.411C237.166 188.805 237.399 189.348 237.416 190.042V193.204C237.416 193.834 237.496 194.336 237.657 194.708V194.81H236.426ZM234.477 193.915C234.845 193.915 235.194 193.819 235.524 193.629C235.854 193.438 236.094 193.191 236.242 192.886V191.477H235.321C233.882 191.477 233.163 191.898 233.163 192.74C233.163 193.108 233.286 193.396 233.531 193.604C233.777 193.811 234.092 193.915 234.477 193.915ZM244.887 187.941V194.81H243.707V188.913H241.371L241.231 191.483C241.155 192.664 240.956 193.508 240.634 194.016C240.317 194.524 239.811 194.788 239.117 194.81H238.647V193.775L238.984 193.75C239.365 193.707 239.638 193.487 239.803 193.089C239.968 192.692 240.074 191.955 240.12 190.88L240.247 187.941H244.887ZM248.055 190.309H249.838C250.617 190.318 251.233 190.521 251.686 190.918C252.138 191.316 252.365 191.856 252.365 192.537C252.365 193.223 252.132 193.773 251.667 194.188C251.201 194.602 250.575 194.81 249.788 194.81H246.88V187.941H248.055V190.309ZM254.815 194.81H253.634V187.941H254.815V194.81ZM248.055 191.268V193.851H249.8C250.24 193.851 250.581 193.739 250.822 193.515C251.063 193.286 251.184 192.975 251.184 192.582C251.184 192.201 251.066 191.89 250.829 191.648C250.596 191.403 250.268 191.276 249.845 191.268H248.055ZM264.533 187.941H265.708V194.81H264.533V189.801L261.366 194.81H260.191V187.941H261.366V192.956L264.533 187.941ZM274.772 193.254L277.108 187.941H278.574V194.81H277.4V189.814L275.178 194.81H274.366L272.1 189.706V194.81H270.925V187.941H272.449L274.772 193.254ZM281.748 190.309H283.532C284.31 190.318 284.926 190.521 285.379 190.918C285.832 191.316 286.058 191.856 286.058 192.537C286.058 193.223 285.825 193.773 285.36 194.188C284.894 194.602 284.268 194.81 283.481 194.81H280.574V187.941H281.748V190.309ZM288.508 194.81H287.328V187.941H288.508V194.81ZM281.748 191.268V193.851H283.494C283.934 193.851 284.274 193.739 284.516 193.515C284.757 193.286 284.877 192.975 284.877 192.582C284.877 192.201 284.759 191.89 284.522 191.648C284.289 191.403 283.961 191.276 283.538 191.268H281.748ZM49.5063 212.81H48.332V206.913H45.1709V212.81H43.9902V205.941H49.5063V212.81ZM57.1934 209.452C57.1934 210.497 56.9543 211.339 56.4761 211.978C55.9979 212.617 55.3504 212.937 54.5337 212.937C53.7 212.937 53.0441 212.672 52.5659 212.143V215.45H51.3916V205.941H52.4644L52.5215 206.703C52.9997 206.111 53.6641 205.814 54.5146 205.814C55.3398 205.814 55.9915 206.125 56.4697 206.748C56.9521 207.37 57.1934 208.235 57.1934 209.344V209.452ZM56.019 209.318C56.019 208.544 55.854 207.932 55.5239 207.484C55.1938 207.035 54.741 206.811 54.1655 206.811C53.4546 206.811 52.9214 207.126 52.5659 207.757V211.039C52.9172 211.665 53.4546 211.978 54.1782 211.978C54.741 211.978 55.1875 211.756 55.5176 211.312C55.8519 210.863 56.019 210.199 56.019 209.318ZM63.1348 205.941H64.3091V212.81H63.1348V207.801L59.9673 212.81H58.793V205.941H59.9673V210.956L63.1348 205.941ZM68.9492 211.978C69.3682 211.978 69.7342 211.851 70.0474 211.597C70.3605 211.343 70.534 211.026 70.5679 210.645H71.6787C71.6576 211.039 71.5221 211.413 71.2725 211.769C71.0228 212.124 70.6885 212.408 70.2695 212.619C69.8548 212.831 69.4147 212.937 68.9492 212.937C68.014 212.937 67.2692 212.625 66.7148 212.003C66.1647 211.377 65.8896 210.522 65.8896 209.439V209.242C65.8896 208.574 66.0124 207.979 66.2578 207.458C66.5033 206.938 66.8545 206.534 67.3115 206.246C67.7728 205.958 68.3166 205.814 68.9429 205.814C69.7131 205.814 70.3521 206.045 70.8599 206.506C71.3719 206.968 71.6449 207.566 71.6787 208.303H70.5679C70.534 207.858 70.3647 207.494 70.0601 207.211C69.7596 206.923 69.3872 206.779 68.9429 206.779C68.3462 206.779 67.8828 206.995 67.5527 207.427C67.2269 207.854 67.064 208.474 67.064 209.287V209.509C67.064 210.3 67.2269 210.91 67.5527 211.337C67.8786 211.764 68.3441 211.978 68.9492 211.978ZM78.1025 206.894H75.7983V212.81H74.624V206.894H72.3643V205.941H78.1025V206.894ZM81.5684 211.089L83.168 205.941H84.4248L81.6636 213.87C81.2362 215.012 80.557 215.583 79.626 215.583L79.4038 215.564L78.9658 215.482V214.53L79.2832 214.555C79.681 214.555 79.9899 214.475 80.21 214.314C80.4342 214.153 80.6183 213.859 80.7622 213.432L81.0225 212.733L78.5723 205.941H79.8545L81.5684 211.089ZM91.0962 212.81H89.9219V206.913H86.7607V212.81H85.5801V205.941H91.0962V212.81ZM97.4248 205.941H98.5991V212.81H97.4248V207.801L94.2573 212.81H93.083V205.941H94.2573V210.956L97.4248 205.941ZM104.439 211.254L106.775 205.941H108.241V212.81H107.067V207.814L104.845 212.81H104.033L101.767 207.706V212.81H100.592V205.941H102.116L104.439 211.254ZM115.497 209.883H114.64V212.81H113.459V205.941H114.64V208.849H115.408L117.718 205.941H119.14L116.423 209.242L119.369 212.81H117.877L115.497 209.883ZM129.404 209.452C129.404 210.497 129.165 211.339 128.687 211.978C128.209 212.617 127.561 212.937 126.745 212.937C125.911 212.937 125.255 212.672 124.777 212.143V215.45H123.603V205.941H124.675L124.732 206.703C125.211 206.111 125.875 205.814 126.726 205.814C127.551 205.814 128.202 206.125 128.681 206.748C129.163 207.37 129.404 208.235 129.404 209.344V209.452ZM128.23 209.318C128.23 208.544 128.065 207.932 127.735 207.484C127.405 207.035 126.952 206.811 126.376 206.811C125.666 206.811 125.132 207.126 124.777 207.757V211.039C125.128 211.665 125.666 211.978 126.389 211.978C126.952 211.978 127.398 211.756 127.729 211.312C128.063 210.863 128.23 210.199 128.23 209.318ZM135.143 212.81C135.075 212.674 135.02 212.433 134.978 212.086C134.432 212.653 133.78 212.937 133.022 212.937C132.345 212.937 131.789 212.746 131.353 212.365C130.921 211.98 130.706 211.493 130.706 210.905C130.706 210.19 130.976 209.636 131.518 209.242C132.064 208.844 132.83 208.646 133.816 208.646H134.958V208.106C134.958 207.695 134.836 207.37 134.59 207.128C134.345 206.883 133.983 206.76 133.505 206.76C133.086 206.76 132.735 206.866 132.451 207.078C132.168 207.289 132.026 207.545 132.026 207.846H130.845C130.845 207.503 130.966 207.173 131.207 206.855C131.452 206.534 131.783 206.28 132.197 206.094C132.616 205.908 133.075 205.814 133.575 205.814C134.366 205.814 134.986 206.013 135.435 206.411C135.883 206.805 136.116 207.348 136.133 208.042V211.204C136.133 211.834 136.213 212.336 136.374 212.708V212.81H135.143ZM133.194 211.915C133.562 211.915 133.911 211.819 134.241 211.629C134.571 211.438 134.81 211.191 134.958 210.886V209.477H134.038C132.599 209.477 131.88 209.898 131.88 210.74C131.88 211.108 132.003 211.396 132.248 211.604C132.493 211.811 132.809 211.915 133.194 211.915ZM140.989 206.335C141.852 206.335 142.542 206.625 143.058 207.205C143.579 207.78 143.839 208.54 143.839 209.483V209.591C143.839 210.239 143.714 210.819 143.464 211.331C143.215 211.838 142.855 212.234 142.385 212.518C141.92 212.797 141.382 212.937 140.773 212.937C139.85 212.937 139.108 212.63 138.545 212.016C137.982 211.398 137.701 210.571 137.701 209.534V208.963C137.701 207.52 137.967 206.373 138.5 205.522C139.038 204.672 139.829 204.153 140.875 203.967C141.467 203.861 141.867 203.732 142.074 203.58C142.282 203.428 142.385 203.218 142.385 202.952H143.35C143.35 203.481 143.229 203.893 142.988 204.189C142.751 204.486 142.37 204.695 141.846 204.818L140.97 205.015C140.271 205.18 139.747 205.459 139.396 205.853C139.049 206.242 138.822 206.762 138.716 207.414C139.338 206.695 140.096 206.335 140.989 206.335ZM140.76 207.3C140.185 207.3 139.728 207.494 139.389 207.884C139.051 208.269 138.881 208.804 138.881 209.49V209.591C138.881 210.328 139.051 210.912 139.389 211.343C139.732 211.771 140.193 211.984 140.773 211.984C141.357 211.984 141.818 211.769 142.157 211.337C142.495 210.905 142.665 210.275 142.665 209.445C142.665 208.798 142.493 208.279 142.15 207.89C141.812 207.497 141.348 207.3 140.76 207.3ZM144.848 209.312C144.848 208.639 144.979 208.034 145.242 207.497C145.508 206.959 145.876 206.544 146.346 206.252C146.82 205.96 147.36 205.814 147.965 205.814C148.9 205.814 149.655 206.138 150.231 206.786C150.811 207.433 151.101 208.294 151.101 209.369V209.452C151.101 210.12 150.972 210.721 150.713 211.254C150.459 211.783 150.093 212.196 149.615 212.492C149.141 212.788 148.595 212.937 147.978 212.937C147.047 212.937 146.291 212.613 145.711 211.965C145.136 211.318 144.848 210.461 144.848 209.395V209.312ZM146.029 209.452C146.029 210.213 146.204 210.825 146.556 211.286C146.911 211.747 147.385 211.978 147.978 211.978C148.574 211.978 149.048 211.745 149.399 211.28C149.751 210.81 149.926 210.154 149.926 209.312C149.926 208.559 149.746 207.949 149.387 207.484C149.031 207.014 148.557 206.779 147.965 206.779C147.385 206.779 146.917 207.01 146.562 207.471C146.207 207.932 146.029 208.593 146.029 209.452ZM157.537 206.894H155.233V212.81H154.059V206.894H151.799V205.941H157.537V206.894ZM161.022 212.937C160.091 212.937 159.333 212.632 158.75 212.022C158.166 211.409 157.874 210.59 157.874 209.566V209.35C157.874 208.669 158.003 208.062 158.261 207.528C158.523 206.991 158.887 206.572 159.353 206.271C159.822 205.967 160.33 205.814 160.876 205.814C161.769 205.814 162.463 206.109 162.958 206.697C163.453 207.285 163.701 208.127 163.701 209.223V209.712H159.048C159.065 210.389 159.262 210.937 159.638 211.356C160.019 211.771 160.501 211.978 161.085 211.978C161.5 211.978 161.851 211.893 162.139 211.724C162.427 211.555 162.679 211.331 162.895 211.051L163.612 211.61C163.036 212.494 162.173 212.937 161.022 212.937ZM160.876 206.779C160.402 206.779 160.004 206.953 159.683 207.3C159.361 207.643 159.162 208.125 159.086 208.747H162.526V208.658C162.493 208.062 162.332 207.6 162.044 207.274C161.756 206.944 161.367 206.779 160.876 206.779ZM172.733 205.941H173.908V212.81H172.733V207.801L169.566 212.81H168.392V205.941H169.566V210.956L172.733 205.941ZM184.819 209.452C184.819 210.497 184.58 211.339 184.102 211.978C183.624 212.617 182.976 212.937 182.16 212.937C181.326 212.937 180.67 212.672 180.192 212.143V215.45H179.018V205.941H180.09L180.147 206.703C180.626 206.111 181.29 205.814 182.141 205.814C182.966 205.814 183.618 206.125 184.096 206.748C184.578 207.37 184.819 208.235 184.819 209.344V209.452ZM183.645 209.318C183.645 208.544 183.48 207.932 183.15 207.484C182.82 207.035 182.367 206.811 181.792 206.811C181.081 206.811 180.547 207.126 180.192 207.757V211.039C180.543 211.665 181.081 211.978 181.804 211.978C182.367 211.978 182.813 211.756 183.144 211.312C183.478 210.863 183.645 210.199 183.645 209.318ZM190.558 212.81C190.49 212.674 190.435 212.433 190.393 212.086C189.847 212.653 189.195 212.937 188.438 212.937C187.76 212.937 187.204 212.746 186.768 212.365C186.336 211.98 186.121 211.493 186.121 210.905C186.121 210.19 186.391 209.636 186.933 209.242C187.479 208.844 188.245 208.646 189.231 208.646H190.374V208.106C190.374 207.695 190.251 207.37 190.005 207.128C189.76 206.883 189.398 206.76 188.92 206.76C188.501 206.76 188.15 206.866 187.866 207.078C187.583 207.289 187.441 207.545 187.441 207.846H186.26C186.26 207.503 186.381 207.173 186.622 206.855C186.868 206.534 187.198 206.28 187.612 206.094C188.031 205.908 188.49 205.814 188.99 205.814C189.781 205.814 190.401 206.013 190.85 206.411C191.298 206.805 191.531 207.348 191.548 208.042V211.204C191.548 211.834 191.628 212.336 191.789 212.708V212.81H190.558ZM188.609 211.915C188.977 211.915 189.326 211.819 189.656 211.629C189.986 211.438 190.225 211.191 190.374 210.886V209.477H189.453C188.014 209.477 187.295 209.898 187.295 210.74C187.295 211.108 187.418 211.396 187.663 211.604C187.909 211.811 188.224 211.915 188.609 211.915ZM197.166 207.82C197.166 207.499 197.043 207.245 196.797 207.059C196.552 206.868 196.215 206.773 195.788 206.773C195.373 206.773 195.026 206.881 194.747 207.097C194.472 207.312 194.334 207.566 194.334 207.858H193.167C193.167 207.262 193.416 206.773 193.916 206.392C194.415 206.011 195.039 205.821 195.788 205.821C196.592 205.821 197.218 205.994 197.667 206.341C198.116 206.684 198.34 207.175 198.34 207.814C198.34 208.123 198.247 208.406 198.061 208.665C197.874 208.923 197.61 209.128 197.267 209.28C198.067 209.551 198.467 210.084 198.467 210.88C198.467 211.51 198.223 212.01 197.737 212.378C197.25 212.746 196.601 212.93 195.788 212.93C194.997 212.93 194.343 212.738 193.827 212.353C193.315 211.963 193.059 211.438 193.059 210.778H194.227C194.227 211.113 194.375 211.4 194.671 211.642C194.971 211.879 195.344 211.997 195.788 211.997C196.237 211.997 196.598 211.893 196.874 211.686C197.149 211.479 197.286 211.21 197.286 210.88C197.286 210.495 197.17 210.22 196.937 210.055C196.708 209.885 196.351 209.801 195.864 209.801H194.69V208.811H195.966C196.766 208.789 197.166 208.459 197.166 207.82ZM203.945 211.254L206.281 205.941H207.747V212.81H206.573V207.814L204.351 212.81H203.539L201.272 207.706V212.81H200.098V205.941H201.622L203.945 211.254ZM212.489 212.937C211.558 212.937 210.8 212.632 210.216 212.022C209.632 211.409 209.34 210.59 209.34 209.566V209.35C209.34 208.669 209.469 208.062 209.728 207.528C209.99 206.991 210.354 206.572 210.819 206.271C211.289 205.967 211.797 205.814 212.343 205.814C213.236 205.814 213.93 206.109 214.425 206.697C214.92 207.285 215.167 208.127 215.167 209.223V209.712H210.515C210.532 210.389 210.728 210.937 211.105 211.356C211.486 211.771 211.968 211.978 212.552 211.978C212.967 211.978 213.318 211.893 213.606 211.724C213.894 211.555 214.146 211.331 214.361 211.051L215.079 211.61C214.503 212.494 213.64 212.937 212.489 212.937ZM212.343 206.779C211.869 206.779 211.471 206.953 211.149 207.3C210.828 207.643 210.629 208.125 210.553 208.747H213.993V208.658C213.959 208.062 213.799 207.6 213.511 207.274C213.223 206.944 212.834 206.779 212.343 206.779ZM217.745 205.941V211.851H220.258V205.941H221.433V211.851H223.94V205.941H225.121V211.851H226.085L225.971 214.847H224.917V212.81H216.564V205.941H217.745ZM230.211 212.937C229.28 212.937 228.523 212.632 227.939 212.022C227.355 211.409 227.063 210.59 227.063 209.566V209.35C227.063 208.669 227.192 208.062 227.45 207.528C227.713 206.991 228.076 206.572 228.542 206.271C229.012 205.967 229.52 205.814 230.065 205.814C230.958 205.814 231.652 206.109 232.147 206.697C232.643 207.285 232.89 208.127 232.89 209.223V209.712H228.237C228.254 210.389 228.451 210.937 228.828 211.356C229.208 211.771 229.691 211.978 230.275 211.978C230.69 211.978 231.041 211.893 231.329 211.724C231.616 211.555 231.868 211.331 232.084 211.051L232.801 211.61C232.226 212.494 231.362 212.937 230.211 212.937ZM230.065 206.779C229.591 206.779 229.194 206.953 228.872 207.3C228.55 207.643 228.352 208.125 228.275 208.747H231.716V208.658C231.682 208.062 231.521 207.6 231.233 207.274C230.946 206.944 230.556 206.779 230.065 206.779ZM239.866 212.81H238.692V209.877H235.537V212.81H234.356V205.941H235.537V208.918H238.692V205.941H239.866V212.81ZM246.201 205.941H247.375V212.81H246.201V207.801L243.034 212.81H241.859V205.941H243.034V210.956L246.201 205.941ZM250.543 208.855H252.193C252.282 207.941 252.606 207.207 253.165 206.652C253.727 206.094 254.436 205.814 255.291 205.814C256.188 205.814 256.922 206.117 257.494 206.722C258.065 207.327 258.374 208.114 258.42 209.083L258.427 209.452C258.427 210.12 258.296 210.723 258.033 211.261C257.771 211.798 257.403 212.213 256.929 212.505C256.455 212.793 255.913 212.937 255.304 212.937C254.419 212.937 253.696 212.649 253.133 212.073C252.57 211.493 252.255 210.742 252.187 209.82H250.543V212.81H249.369V205.941H250.543V208.855ZM253.349 209.452C253.349 210.213 253.524 210.825 253.875 211.286C254.231 211.747 254.707 211.978 255.304 211.978C255.9 211.978 256.372 211.743 256.719 211.273C257.07 210.804 257.246 210.15 257.246 209.312C257.246 208.563 257.068 207.954 256.713 207.484C256.357 207.014 255.883 206.779 255.291 206.779C254.707 206.779 254.237 207.01 253.882 207.471C253.526 207.932 253.349 208.593 253.349 209.452ZM266.114 206.335C266.977 206.335 267.667 206.625 268.183 207.205C268.704 207.78 268.964 208.54 268.964 209.483V209.591C268.964 210.239 268.839 210.819 268.589 211.331C268.34 211.838 267.98 212.234 267.51 212.518C267.045 212.797 266.507 212.937 265.898 212.937C264.975 212.937 264.233 212.63 263.67 212.016C263.107 211.398 262.826 210.571 262.826 209.534V208.963C262.826 207.52 263.092 206.373 263.625 205.522C264.163 204.672 264.954 204.153 266 203.967C266.592 203.861 266.992 203.732 267.199 203.58C267.407 203.428 267.51 203.218 267.51 202.952H268.475C268.475 203.481 268.354 203.893 268.113 204.189C267.876 204.486 267.495 204.695 266.971 204.818L266.095 205.015C265.396 205.18 264.872 205.459 264.521 205.853C264.174 206.242 263.947 206.762 263.841 207.414C264.463 206.695 265.221 206.335 266.114 206.335ZM265.885 207.3C265.31 207.3 264.853 207.494 264.514 207.884C264.176 208.269 264.006 208.804 264.006 209.49V209.591C264.006 210.328 264.176 210.912 264.514 211.343C264.857 211.771 265.318 211.984 265.898 211.984C266.482 211.984 266.943 211.769 267.282 211.337C267.62 210.905 267.79 210.275 267.79 209.445C267.79 208.798 267.618 208.279 267.275 207.89C266.937 207.497 266.473 207.3 265.885 207.3ZM274.524 212.81C274.457 212.674 274.402 212.433 274.359 212.086C273.813 212.653 273.162 212.937 272.404 212.937C271.727 212.937 271.171 212.746 270.735 212.365C270.303 211.98 270.087 211.493 270.087 210.905C270.087 210.19 270.358 209.636 270.9 209.242C271.446 208.844 272.212 208.646 273.198 208.646H274.34V208.106C274.34 207.695 274.218 207.37 273.972 207.128C273.727 206.883 273.365 206.76 272.887 206.76C272.468 206.76 272.117 206.866 271.833 207.078C271.549 207.289 271.408 207.545 271.408 207.846H270.227C270.227 207.503 270.348 207.173 270.589 206.855C270.834 206.534 271.164 206.28 271.579 206.094C271.998 205.908 272.457 205.814 272.957 205.814C273.748 205.814 274.368 206.013 274.816 206.411C275.265 206.805 275.498 207.348 275.515 208.042V211.204C275.515 211.834 275.595 212.336 275.756 212.708V212.81H274.524ZM272.576 211.915C272.944 211.915 273.293 211.819 273.623 211.629C273.953 211.438 274.192 211.191 274.34 210.886V209.477H273.42C271.981 209.477 271.262 209.898 271.262 210.74C271.262 211.108 271.384 211.396 271.63 211.604C271.875 211.811 272.191 211.915 272.576 211.915ZM282.967 212.81H281.792V209.877H278.638V212.81H277.457V205.941H278.638V208.918H281.792V205.941H282.967V212.81ZM290.47 212.81H289.295V209.877H286.141V212.81H284.96V205.941H286.141V208.918H289.295V205.941H290.47V212.81ZM295.211 212.937C294.28 212.937 293.523 212.632 292.939 212.022C292.355 211.409 292.063 210.59 292.063 209.566V209.35C292.063 208.669 292.192 208.062 292.45 207.528C292.713 206.991 293.076 206.572 293.542 206.271C294.012 205.967 294.52 205.814 295.065 205.814C295.958 205.814 296.652 206.109 297.147 206.697C297.643 207.285 297.89 208.127 297.89 209.223V209.712H293.237C293.254 210.389 293.451 210.937 293.828 211.356C294.208 211.771 294.691 211.978 295.275 211.978C295.69 211.978 296.041 211.893 296.329 211.724C296.616 211.555 296.868 211.331 297.084 211.051L297.801 211.61C297.226 212.494 296.362 212.937 295.211 212.937ZM295.065 206.779C294.591 206.779 294.194 206.953 293.872 207.3C293.55 207.643 293.352 208.125 293.275 208.747H296.716V208.658C296.682 208.062 296.521 207.6 296.233 207.274C295.946 206.944 295.556 206.779 295.065 206.779ZM305.057 209.452C305.057 210.497 304.818 211.339 304.339 211.978C303.861 212.617 303.214 212.937 302.397 212.937C301.563 212.937 300.907 212.672 300.429 212.143V215.45H299.255V205.941H300.328L300.385 206.703C300.863 206.111 301.527 205.814 302.378 205.814C303.203 205.814 303.855 206.125 304.333 206.748C304.815 207.37 305.057 208.235 305.057 209.344V209.452ZM303.882 209.318C303.882 208.544 303.717 207.932 303.387 207.484C303.057 207.035 302.604 206.811 302.029 206.811C301.318 206.811 300.785 207.126 300.429 207.757V211.039C300.78 211.665 301.318 211.978 302.042 211.978C302.604 211.978 303.051 211.756 303.381 211.312C303.715 210.863 303.882 210.199 303.882 209.318ZM306.244 209.312C306.244 208.639 306.375 208.034 306.637 207.497C306.904 206.959 307.272 206.544 307.742 206.252C308.216 205.96 308.755 205.814 309.36 205.814C310.296 205.814 311.051 206.138 311.626 206.786C312.206 207.433 312.496 208.294 312.496 209.369V209.452C312.496 210.12 312.367 210.721 312.109 211.254C311.855 211.783 311.489 212.196 311.011 212.492C310.537 212.788 309.991 212.937 309.373 212.937C308.442 212.937 307.687 212.613 307.107 211.965C306.531 211.318 306.244 210.461 306.244 209.395V209.312ZM307.424 209.452C307.424 210.213 307.6 210.825 307.951 211.286C308.307 211.747 308.781 211.978 309.373 211.978C309.97 211.978 310.444 211.745 310.795 211.28C311.146 210.81 311.322 210.154 311.322 209.312C311.322 208.559 311.142 207.949 310.782 207.484C310.427 207.014 309.953 206.779 309.36 206.779C308.781 206.779 308.313 207.01 307.958 207.471C307.602 207.932 307.424 208.593 307.424 209.452ZM314.077 212.81V205.941H316.755C317.669 205.941 318.37 206.102 318.856 206.424C319.347 206.741 319.593 207.209 319.593 207.827C319.593 208.144 319.498 208.432 319.307 208.69C319.117 208.944 318.835 209.139 318.463 209.274C318.878 209.371 319.21 209.562 319.459 209.845C319.713 210.129 319.84 210.467 319.84 210.861C319.84 211.491 319.608 211.974 319.142 212.308C318.681 212.642 318.027 212.81 317.181 212.81H314.077ZM315.251 209.794V211.864H317.193C317.684 211.864 318.05 211.773 318.292 211.591C318.537 211.409 318.66 211.153 318.66 210.823C318.66 210.137 318.156 209.794 317.149 209.794H315.251ZM315.251 208.855H316.768C317.868 208.855 318.418 208.533 318.418 207.89C318.418 207.247 317.898 206.915 316.857 206.894H315.251V208.855ZM330.231 212.81H329.057V209.877H325.902V212.81H324.722V205.941H325.902V208.918H329.057V205.941H330.231V212.81ZM336.363 212.81C336.296 212.674 336.241 212.433 336.198 212.086C335.652 212.653 335.001 212.937 334.243 212.937C333.566 212.937 333.01 212.746 332.574 212.365C332.142 211.98 331.926 211.493 331.926 210.905C331.926 210.19 332.197 209.636 332.739 209.242C333.285 208.844 334.051 208.646 335.037 208.646H336.179V208.106C336.179 207.695 336.056 207.37 335.811 207.128C335.566 206.883 335.204 206.76 334.726 206.76C334.307 206.76 333.955 206.866 333.672 207.078C333.388 207.289 333.247 207.545 333.247 207.846H332.066C332.066 207.503 332.187 207.173 332.428 206.855C332.673 206.534 333.003 206.28 333.418 206.094C333.837 205.908 334.296 205.814 334.795 205.814C335.587 205.814 336.207 206.013 336.655 206.411C337.104 206.805 337.337 207.348 337.354 208.042V211.204C337.354 211.834 337.434 212.336 337.595 212.708V212.81H336.363ZM334.415 211.915C334.783 211.915 335.132 211.819 335.462 211.629C335.792 211.438 336.031 211.191 336.179 210.886V209.477H335.259C333.82 209.477 333.101 209.898 333.101 210.74C333.101 211.108 333.223 211.396 333.469 211.604C333.714 211.811 334.029 211.915 334.415 211.915ZM46.6436 229.978C47.0625 229.978 47.4285 229.851 47.7417 229.597C48.0549 229.343 48.2284 229.026 48.2622 228.645H49.373C49.3519 229.039 49.2165 229.413 48.9668 229.769C48.7171 230.124 48.3828 230.408 47.9639 230.619C47.5492 230.831 47.109 230.937 46.6436 230.937C45.7083 230.937 44.9635 230.625 44.4092 230.003C43.859 229.377 43.584 228.522 43.584 227.439V227.242C43.584 226.574 43.7067 225.979 43.9521 225.458C44.1976 224.938 44.5488 224.534 45.0059 224.246C45.4671 223.958 46.0109 223.814 46.6372 223.814C47.4074 223.814 48.0464 224.045 48.5542 224.506C49.0662 224.968 49.3392 225.566 49.373 226.303H48.2622C48.2284 225.858 48.0591 225.494 47.7544 225.211C47.4539 224.923 47.0815 224.779 46.6372 224.779C46.0405 224.779 45.5771 224.995 45.2471 225.427C44.9212 225.854 44.7583 226.474 44.7583 227.287V227.509C44.7583 228.3 44.9212 228.91 45.2471 229.337C45.5729 229.764 46.0384 229.978 46.6436 229.978ZM54.9336 230.81C54.8659 230.674 54.8109 230.433 54.7686 230.086C54.2227 230.653 53.571 230.937 52.8135 230.937C52.1364 230.937 51.5799 230.746 51.144 230.365C50.7124 229.98 50.4966 229.493 50.4966 228.905C50.4966 228.19 50.7674 227.636 51.3091 227.242C51.855 226.844 52.6209 226.646 53.6069 226.646H54.7495V226.106C54.7495 225.695 54.6268 225.37 54.3813 225.128C54.1359 224.883 53.7741 224.76 53.2959 224.76C52.877 224.76 52.5257 224.866 52.2422 225.078C51.9587 225.289 51.8169 225.545 51.8169 225.846H50.6362C50.6362 225.503 50.7568 225.173 50.998 224.855C51.2435 224.534 51.5736 224.28 51.9883 224.094C52.4072 223.908 52.8664 223.814 53.3657 223.814C54.1571 223.814 54.777 224.013 55.2256 224.411C55.6742 224.805 55.9069 225.348 55.9238 226.042V229.204C55.9238 229.834 56.0042 230.336 56.165 230.708V230.81H54.9336ZM52.9849 229.915C53.353 229.915 53.7021 229.819 54.0322 229.629C54.3623 229.438 54.6014 229.191 54.7495 228.886V227.477H53.8291C52.3903 227.477 51.6709 227.898 51.6709 228.74C51.6709 229.108 51.7936 229.396 52.0391 229.604C52.2845 229.811 52.5998 229.915 52.9849 229.915ZM62.208 223.941H63.3823V230.81H62.208V225.801L59.0405 230.81H57.8662V223.941H59.0405V228.956L62.208 223.941ZM62.5254 221.44C62.5254 221.952 62.3498 222.365 61.9985 222.678C61.6515 222.987 61.1945 223.142 60.6274 223.142C60.0604 223.142 59.6012 222.985 59.25 222.672C58.8988 222.359 58.7231 221.948 58.7231 221.44H59.6816C59.6816 221.737 59.762 221.969 59.9229 222.139C60.0837 222.304 60.3185 222.386 60.6274 222.386C60.9237 222.386 61.1543 222.304 61.3193 222.139C61.4886 221.974 61.5732 221.741 61.5732 221.44H62.5254ZM70.3711 224.894H68.0669V230.81H66.8926V224.894H64.6328V223.941H70.3711V224.894ZM73.856 230.937C72.925 230.937 72.1675 230.632 71.5835 230.022C70.9995 229.409 70.7075 228.59 70.7075 227.566V227.35C70.7075 226.669 70.8366 226.062 71.0947 225.528C71.3571 224.991 71.721 224.572 72.1865 224.271C72.6562 223.967 73.1641 223.814 73.71 223.814C74.6029 223.814 75.2969 224.109 75.792 224.697C76.2871 225.285 76.5347 226.127 76.5347 227.223V227.712H71.8818C71.8988 228.389 72.0955 228.937 72.4722 229.356C72.853 229.771 73.3354 229.978 73.9194 229.978C74.3341 229.978 74.6854 229.893 74.9731 229.724C75.2609 229.555 75.5127 229.331 75.7285 229.051L76.4458 229.61C75.8703 230.494 75.007 230.937 73.856 230.937ZM73.71 224.779C73.236 224.779 72.8382 224.953 72.5166 225.3C72.195 225.643 71.9961 226.125 71.9199 226.747H75.3604V226.658C75.3265 226.062 75.1657 225.6 74.8779 225.274C74.5902 224.944 74.2008 224.779 73.71 224.779Z" fill="black"/>
<path d="M640.082 24.4302L656.38 6.75146C656.38 6.75146 632.9 6.75146 629.033 6.75146H407.773C401.696 6.75146 397 11.7236 397 17.8006V81.3334C397 87.4105 401.696 92.3826 407.773 92.3826H629.033C635.11 92.3826 640.082 87.6867 640.082 81.3334V24.4302Z" fill="#1A73E8"/>
<path d="M609.184 73.1426L606.24 79.7441H605.292L608.227 73.377H604.379V72.6348H609.184V73.1426ZM610.273 79.2705C610.273 79.1143 610.319 78.984 610.41 78.8799C610.504 78.7757 610.644 78.7236 610.83 78.7236C611.015 78.7236 611.155 78.7757 611.25 78.8799C611.347 78.984 611.396 79.1143 611.396 79.2705C611.396 79.4202 611.347 79.5456 611.25 79.6465C611.155 79.7474 611.015 79.7979 610.83 79.7979C610.644 79.7979 610.504 79.7474 610.41 79.6465C610.319 79.5456 610.273 79.4202 610.273 79.2705ZM610.278 74.959C610.278 74.8027 610.323 74.6725 610.415 74.5684C610.509 74.4642 610.649 74.4121 610.834 74.4121C611.02 74.4121 611.16 74.4642 611.254 74.5684C611.352 74.6725 611.401 74.8027 611.401 74.959C611.401 75.1087 611.352 75.234 611.254 75.335C611.16 75.4359 611.02 75.4863 610.834 75.4863C610.649 75.4863 610.509 75.4359 610.415 75.335C610.323 75.234 610.278 75.1087 610.278 74.959ZM616.445 77.3564H617.431V78.0938H616.445V79.7441H615.537V78.0938H612.299V77.5615L615.483 72.6348H616.445V77.3564ZM613.325 77.3564H615.537V73.8701L615.429 74.0654L613.325 77.3564ZM622.836 73.1426L619.892 79.7441H618.945L621.879 73.377H618.032V72.6348H622.836V73.1426Z" fill="#D2EAF9"/>
<path d="M422.246 32.8921H421.033V30.626H414.4V32.8984H413.181L413.175 29.6294H413.93C414.328 29.1808 414.643 28.5799 414.876 27.8267C415.113 27.0692 415.261 26.2397 415.32 25.3384L415.523 21.3838H421.052V29.6294H422.258L422.246 32.8921ZM415.32 29.6294H419.827V22.3867H416.698L416.564 25.1035C416.509 26.1657 416.368 27.0713 416.139 27.8203C415.915 28.5693 415.642 29.1724 415.32 29.6294ZM423.21 27.1284C423.21 26.4556 423.342 25.8504 423.604 25.313C423.871 24.7756 424.239 24.3608 424.708 24.0688C425.182 23.7769 425.722 23.6309 426.327 23.6309C427.262 23.6309 428.018 23.9546 428.593 24.6021C429.173 25.2495 429.463 26.1107 429.463 27.1855V27.2681C429.463 27.9367 429.334 28.5376 429.076 29.0708C428.822 29.5998 428.456 30.0124 427.978 30.3086C427.504 30.6048 426.958 30.7529 426.34 30.7529C425.409 30.7529 424.653 30.4292 424.074 29.7817C423.498 29.1343 423.21 28.2773 423.21 27.2109V27.1284ZM424.391 27.2681C424.391 28.0298 424.567 28.6413 424.918 29.1025C425.273 29.5638 425.747 29.7944 426.34 29.7944C426.937 29.7944 427.41 29.5617 427.762 29.0962C428.113 28.6265 428.289 27.9705 428.289 27.1284C428.289 26.3752 428.109 25.7658 427.749 25.3003C427.394 24.8306 426.92 24.5957 426.327 24.5957C425.747 24.5957 425.28 24.8263 424.924 25.2876C424.569 25.7489 424.391 26.409 424.391 27.2681ZM433.951 24.1514C434.814 24.1514 435.504 24.4412 436.02 25.021C436.541 25.5965 436.801 26.3561 436.801 27.2998V27.4077C436.801 28.0552 436.676 28.6349 436.426 29.147C436.177 29.6548 435.817 30.0505 435.347 30.334C434.882 30.6133 434.344 30.7529 433.735 30.7529C432.812 30.7529 432.07 30.4461 431.507 29.8325C430.944 29.2147 430.663 28.3874 430.663 27.3506V26.7793C430.663 25.3363 430.929 24.1895 431.462 23.3389C432 22.4883 432.791 21.9699 433.836 21.7837C434.429 21.6779 434.829 21.5488 435.036 21.3965C435.243 21.2441 435.347 21.0347 435.347 20.7681H436.312C436.312 21.297 436.191 21.7096 435.95 22.0059C435.713 22.3021 435.332 22.5116 434.808 22.6343L433.932 22.8311C433.233 22.9961 432.709 23.2754 432.357 23.6689C432.01 24.0583 431.784 24.5788 431.678 25.2305C432.3 24.5111 433.058 24.1514 433.951 24.1514ZM433.722 25.1162C433.147 25.1162 432.69 25.3109 432.351 25.7002C432.013 26.0853 431.843 26.6206 431.843 27.3062V27.4077C431.843 28.144 432.013 28.728 432.351 29.1597C432.694 29.5871 433.155 29.8008 433.735 29.8008C434.319 29.8008 434.78 29.585 435.119 29.1533C435.457 28.7217 435.626 28.0911 435.626 27.2617C435.626 26.6143 435.455 26.0959 435.112 25.7065C434.774 25.313 434.31 25.1162 433.722 25.1162ZM443.809 27.2681C443.809 28.3133 443.569 29.1554 443.091 29.7944C442.613 30.4334 441.966 30.7529 441.149 30.7529C440.315 30.7529 439.659 30.4884 439.181 29.9595V33.2666H438.007V23.7578H439.08L439.137 24.5195C439.615 23.9271 440.279 23.6309 441.13 23.6309C441.955 23.6309 442.607 23.9419 443.085 24.564C443.567 25.186 443.809 26.0514 443.809 27.1602V27.2681ZM442.634 27.1348C442.634 26.3604 442.469 25.7489 442.139 25.3003C441.809 24.8517 441.356 24.6274 440.781 24.6274C440.07 24.6274 439.537 24.9427 439.181 25.5732V28.855C439.532 29.4813 440.07 29.7944 440.793 29.7944C441.356 29.7944 441.803 29.5723 442.133 29.1279C442.467 28.6794 442.634 28.015 442.634 27.1348ZM446.589 26.1255H448.373C449.151 26.134 449.767 26.3371 450.22 26.7349C450.673 27.1326 450.899 27.6722 450.899 28.3535C450.899 29.0391 450.666 29.5892 450.201 30.0039C449.735 30.4186 449.109 30.626 448.322 30.626H445.415V23.7578H446.589V26.1255ZM453.349 30.626H452.168V23.7578H453.349V30.626ZM446.589 27.084V29.6675H448.334C448.775 29.6675 449.115 29.5553 449.356 29.3311C449.598 29.1025 449.718 28.7915 449.718 28.3979C449.718 28.0171 449.6 27.7061 449.363 27.4648C449.13 27.2194 448.802 27.0924 448.379 27.084H446.589ZM459.843 23.7578H461.017V30.626H459.843V25.6177L456.675 30.626H455.501V23.7578H456.675V28.7725L459.843 23.7578ZM460.16 21.2568C460.16 21.7689 459.985 22.1815 459.633 22.4946C459.286 22.8035 458.829 22.958 458.262 22.958C457.695 22.958 457.236 22.8014 456.885 22.4883C456.534 22.1751 456.358 21.7646 456.358 21.2568H457.316C457.316 21.5531 457.397 21.7858 457.558 21.9551C457.718 22.1201 457.953 22.2026 458.262 22.2026C458.558 22.2026 458.789 22.1201 458.954 21.9551C459.123 21.79 459.208 21.5573 459.208 21.2568H460.16ZM466.07 29.6675L466.476 29.166C466.933 28.5736 467.193 27.6849 467.257 26.5L467.365 23.7578H471.789V29.6675H472.671V32.6445H471.497V30.626H466.705V32.6445H465.53L465.537 29.6675H466.07ZM467.46 29.6675H470.615V24.8433H468.501L468.431 26.481C468.359 27.8478 468.035 28.91 467.46 29.6675ZM476.823 30.7529C475.892 30.7529 475.134 30.4482 474.55 29.8389C473.966 29.2253 473.674 28.4064 473.674 27.3823V27.1665C473.674 26.4852 473.803 25.8779 474.062 25.3447C474.324 24.8073 474.688 24.3883 475.153 24.0879C475.623 23.7832 476.131 23.6309 476.677 23.6309C477.57 23.6309 478.264 23.925 478.759 24.5132C479.254 25.1014 479.501 25.9435 479.501 27.0396V27.5283H474.849C474.866 28.2054 475.062 28.7534 475.439 29.1724C475.82 29.5871 476.302 29.7944 476.886 29.7944C477.301 29.7944 477.652 29.7098 477.94 29.5405C478.228 29.3713 478.479 29.147 478.695 28.8677L479.413 29.4263C478.837 30.3107 477.974 30.7529 476.823 30.7529ZM476.677 24.5957C476.203 24.5957 475.805 24.7692 475.483 25.1162C475.162 25.459 474.963 25.9414 474.887 26.5635H478.327V26.4746C478.293 25.8779 478.132 25.4167 477.845 25.0908C477.557 24.7607 477.168 24.5957 476.677 24.5957ZM486.478 30.626H485.303V27.6934H482.148V30.626H480.968V23.7578H482.148V26.7349H485.303V23.7578H486.478V30.626ZM489.651 26.1255H491.435C492.214 26.134 492.829 26.3371 493.282 26.7349C493.735 27.1326 493.961 27.6722 493.961 28.3535C493.961 29.0391 493.729 29.5892 493.263 30.0039C492.798 30.4186 492.171 30.626 491.384 30.626H488.477V23.7578H489.651V26.1255ZM489.651 27.084V29.6675H491.397C491.837 29.6675 492.178 29.5553 492.419 29.3311C492.66 29.1025 492.781 28.7915 492.781 28.3979C492.781 28.0171 492.662 27.7061 492.425 27.4648C492.193 27.2194 491.865 27.0924 491.441 27.084H489.651ZM495.39 32.4668L494.723 32.0098C495.121 31.4554 495.328 30.8841 495.345 30.2959V29.2358H496.494V30.1562C496.494 30.5837 496.388 31.0111 496.177 31.4385C495.969 31.8659 495.707 32.2087 495.39 32.4668ZM503.508 26.2651L505.032 23.7578H506.403L504.156 27.1538L506.473 30.626H505.114L503.527 28.0552L501.94 30.626H500.576L502.893 27.1538L500.646 23.7578H502.004L503.508 26.2651ZM507.215 27.1284C507.215 26.4556 507.347 25.8504 507.609 25.313C507.875 24.7756 508.244 24.3608 508.713 24.0688C509.187 23.7769 509.727 23.6309 510.332 23.6309C511.267 23.6309 512.023 23.9546 512.598 24.6021C513.178 25.2495 513.468 26.1107 513.468 27.1855V27.2681C513.468 27.9367 513.339 28.5376 513.081 29.0708C512.827 29.5998 512.461 30.0124 511.982 30.3086C511.508 30.6048 510.963 30.7529 510.345 30.7529C509.414 30.7529 508.658 30.4292 508.079 29.7817C507.503 29.1343 507.215 28.2773 507.215 27.2109V27.1284ZM508.396 27.2681C508.396 28.0298 508.572 28.6413 508.923 29.1025C509.278 29.5638 509.752 29.7944 510.345 29.7944C510.941 29.7944 511.415 29.5617 511.767 29.0962C512.118 28.6265 512.293 27.9705 512.293 27.1284C512.293 26.3752 512.114 25.7658 511.754 25.3003C511.398 24.8306 510.924 24.5957 510.332 24.5957C509.752 24.5957 509.285 24.8263 508.929 25.2876C508.574 25.7489 508.396 26.409 508.396 27.2681ZM519.904 24.71H517.6V30.626H516.426V24.71H514.166V23.7578H519.904V24.71ZM523.389 30.7529C522.458 30.7529 521.701 30.4482 521.117 29.8389C520.533 29.2253 520.241 28.4064 520.241 27.3823V27.1665C520.241 26.4852 520.37 25.8779 520.628 25.3447C520.89 24.8073 521.254 24.3883 521.72 24.0879C522.189 23.7832 522.697 23.6309 523.243 23.6309C524.136 23.6309 524.83 23.925 525.325 24.5132C525.82 25.1014 526.068 25.9435 526.068 27.0396V27.5283H521.415C521.432 28.2054 521.629 28.7534 522.005 29.1724C522.386 29.5871 522.869 29.7944 523.453 29.7944C523.867 29.7944 524.219 29.7098 524.506 29.5405C524.794 29.3713 525.046 29.147 525.262 28.8677L525.979 29.4263C525.403 30.3107 524.54 30.7529 523.389 30.7529ZM523.243 24.5957C522.769 24.5957 522.371 24.7692 522.05 25.1162C521.728 25.459 521.529 25.9414 521.453 26.5635H524.894V26.4746C524.86 25.8779 524.699 25.4167 524.411 25.0908C524.123 24.7607 523.734 24.5957 523.243 24.5957ZM533.063 23.7578V30.626H531.882V24.729H529.546L529.407 27.2998C529.331 28.4805 529.132 29.3247 528.81 29.8325C528.493 30.3403 527.987 30.6048 527.293 30.626H526.823V29.5913L527.16 29.5659C527.541 29.5236 527.813 29.3035 527.979 28.9058C528.144 28.508 528.249 27.7716 528.296 26.6968L528.423 23.7578H533.063ZM539.392 23.7578H540.566V30.626H539.392V25.6177L536.224 30.626H535.05V23.7578H536.224V28.7725L539.392 23.7578ZM548.691 24.1514C549.554 24.1514 550.244 24.4412 550.76 25.021C551.281 25.5965 551.541 26.3561 551.541 27.2998V27.4077C551.541 28.0552 551.416 28.6349 551.167 29.147C550.917 29.6548 550.557 30.0505 550.087 30.334C549.622 30.6133 549.084 30.7529 548.475 30.7529C547.553 30.7529 546.81 30.4461 546.247 29.8325C545.684 29.2147 545.403 28.3874 545.403 27.3506V26.7793C545.403 25.3363 545.669 24.1895 546.203 23.3389C546.74 22.4883 547.531 21.9699 548.577 21.7837C549.169 21.6779 549.569 21.5488 549.776 21.3965C549.984 21.2441 550.087 21.0347 550.087 20.7681H551.052C551.052 21.297 550.932 21.7096 550.69 22.0059C550.453 22.3021 550.073 22.5116 549.548 22.6343L548.672 22.8311C547.974 22.9961 547.449 23.2754 547.098 23.6689C546.751 24.0583 546.524 24.5788 546.418 25.2305C547.041 24.5111 547.798 24.1514 548.691 24.1514ZM548.462 25.1162C547.887 25.1162 547.43 25.3109 547.091 25.7002C546.753 26.0853 546.583 26.6206 546.583 27.3062V27.4077C546.583 28.144 546.753 28.728 547.091 29.1597C547.434 29.5871 547.895 29.8008 548.475 29.8008C549.059 29.8008 549.52 29.585 549.859 29.1533C550.197 28.7217 550.367 28.0911 550.367 27.2617C550.367 26.6143 550.195 26.0959 549.853 25.7065C549.514 25.313 549.051 25.1162 548.462 25.1162ZM554.144 26.1255H555.927C556.706 26.134 557.322 26.3371 557.774 26.7349C558.227 27.1326 558.454 27.6722 558.454 28.3535C558.454 29.0391 558.221 29.5892 557.755 30.0039C557.29 30.4186 556.664 30.626 555.876 30.626H552.969V23.7578H554.144V26.1255ZM560.904 30.626H559.723V23.7578H560.904V30.626ZM554.144 27.084V29.6675H555.889C556.329 29.6675 556.67 29.5553 556.911 29.3311C557.152 29.1025 557.273 28.7915 557.273 28.3979C557.273 28.0171 557.154 27.7061 556.917 27.4648C556.685 27.2194 556.357 27.0924 555.934 27.084H554.144ZM413.689 47.6675L414.095 47.166C414.552 46.5736 414.812 45.6849 414.876 44.5L414.984 41.7578H419.408V47.6675H420.291V50.6445H419.116V48.626H414.324V50.6445H413.149L413.156 47.6675H413.689ZM415.079 47.6675H418.234V42.8433H416.12L416.05 44.481C415.978 45.8478 415.655 46.91 415.079 47.6675ZM421.281 45.1284C421.281 44.4556 421.412 43.8504 421.674 43.313C421.941 42.7756 422.309 42.3608 422.779 42.0688C423.253 41.7769 423.792 41.6309 424.397 41.6309C425.333 41.6309 426.088 41.9546 426.664 42.6021C427.243 43.2495 427.533 44.1107 427.533 45.1855V45.2681C427.533 45.9367 427.404 46.5376 427.146 47.0708C426.892 47.5998 426.526 48.0124 426.048 48.3086C425.574 48.6048 425.028 48.7529 424.41 48.7529C423.479 48.7529 422.724 48.4292 422.144 47.7817C421.569 47.1343 421.281 46.2773 421.281 45.2109V45.1284ZM422.461 45.2681C422.461 46.0298 422.637 46.6413 422.988 47.1025C423.344 47.5638 423.818 47.7944 424.41 47.7944C425.007 47.7944 425.481 47.5617 425.832 47.0962C426.183 46.6265 426.359 45.9705 426.359 45.1284C426.359 44.3752 426.179 43.7658 425.819 43.3003C425.464 42.8306 424.99 42.5957 424.397 42.5957C423.818 42.5957 423.35 42.8263 422.995 43.2876C422.639 43.7489 422.461 44.409 422.461 45.2681ZM432.021 42.1514C432.884 42.1514 433.574 42.4412 434.09 43.021C434.611 43.5965 434.871 44.3561 434.871 45.2998V45.4077C434.871 46.0552 434.746 46.6349 434.497 47.147C434.247 47.6548 433.887 48.0505 433.417 48.334C432.952 48.6133 432.415 48.7529 431.805 48.7529C430.883 48.7529 430.14 48.4461 429.577 47.8325C429.014 47.2147 428.733 46.3874 428.733 45.3506V44.7793C428.733 43.3363 429 42.1895 429.533 41.3389C430.07 40.4883 430.861 39.9699 431.907 39.7837C432.499 39.6779 432.899 39.5488 433.106 39.3965C433.314 39.2441 433.417 39.0347 433.417 38.7681H434.382C434.382 39.297 434.262 39.7096 434.021 40.0059C433.784 40.3021 433.403 40.5116 432.878 40.6343L432.002 40.8311C431.304 40.9961 430.779 41.2754 430.428 41.6689C430.081 42.0583 429.854 42.5788 429.749 43.2305C430.371 42.5111 431.128 42.1514 432.021 42.1514ZM431.792 43.1162C431.217 43.1162 430.76 43.3109 430.421 43.7002C430.083 44.0853 429.914 44.6206 429.914 45.3062V45.4077C429.914 46.144 430.083 46.728 430.421 47.1597C430.764 47.5871 431.225 47.8008 431.805 47.8008C432.389 47.8008 432.85 47.585 433.189 47.1533C433.528 46.7217 433.697 46.0911 433.697 45.2617C433.697 44.6143 433.525 44.0959 433.183 43.7065C432.844 43.313 432.381 43.1162 431.792 43.1162ZM440.432 48.626C440.364 48.4906 440.309 48.2493 440.267 47.9023C439.721 48.4694 439.069 48.7529 438.312 48.7529C437.634 48.7529 437.078 48.5625 436.642 48.1816C436.21 47.7965 435.995 47.3099 435.995 46.7217C435.995 46.0065 436.265 45.4521 436.807 45.0586C437.353 44.6608 438.119 44.4619 439.105 44.4619H440.248V43.9224C440.248 43.5119 440.125 43.186 439.879 42.9448C439.634 42.6994 439.272 42.5767 438.794 42.5767C438.375 42.5767 438.024 42.6825 437.74 42.894C437.457 43.1056 437.315 43.3617 437.315 43.6621H436.134C436.134 43.3193 436.255 42.9893 436.496 42.6719C436.742 42.3503 437.072 42.0964 437.486 41.9102C437.905 41.724 438.364 41.6309 438.864 41.6309C439.655 41.6309 440.275 41.8298 440.724 42.2275C441.172 42.6211 441.405 43.1649 441.422 43.8589V47.02C441.422 47.6506 441.502 48.152 441.663 48.5244V48.626H440.432ZM438.483 47.731C438.851 47.731 439.2 47.6357 439.53 47.4453C439.86 47.2549 440.099 47.0073 440.248 46.7026V45.2935H439.327C437.888 45.2935 437.169 45.7145 437.169 46.5566C437.169 46.9248 437.292 47.2126 437.537 47.4199C437.783 47.6273 438.098 47.731 438.483 47.731ZM443.371 48.626V41.7578H446.049C446.963 41.7578 447.664 41.9186 448.15 42.2402C448.641 42.5576 448.887 43.0252 448.887 43.6431C448.887 43.9604 448.792 44.2482 448.601 44.5063C448.411 44.7603 448.129 44.9549 447.757 45.0903C448.172 45.1877 448.504 45.3781 448.753 45.6616C449.007 45.9451 449.134 46.2837 449.134 46.6772C449.134 47.3078 448.902 47.7902 448.436 48.1245C447.975 48.4588 447.321 48.626 446.475 48.626H443.371ZM444.545 45.6108V47.6802H446.487C446.978 47.6802 447.344 47.5892 447.585 47.4072C447.831 47.2253 447.954 46.9692 447.954 46.6392C447.954 45.9536 447.45 45.6108 446.443 45.6108H444.545ZM444.545 44.6714H446.062C447.162 44.6714 447.712 44.3498 447.712 43.7065C447.712 43.0633 447.192 42.7311 446.151 42.71H444.545V44.6714ZM455.133 41.7578H456.307V48.626H455.133V43.6177L451.965 48.626H450.791V41.7578H451.965V46.7725L455.133 41.7578ZM463.296 42.71H460.992V48.626H459.817V42.71H457.558V41.7578H463.296V42.71ZM465.721 44.1255H467.504C468.283 44.134 468.899 44.3371 469.352 44.7349C469.804 45.1326 470.031 45.6722 470.031 46.3535C470.031 47.0391 469.798 47.5892 469.333 48.0039C468.867 48.4186 468.241 48.626 467.454 48.626H464.546V41.7578H465.721V44.1255ZM465.721 45.084V47.6675H467.466C467.906 47.6675 468.247 47.5553 468.488 47.3311C468.729 47.1025 468.85 46.7915 468.85 46.3979C468.85 46.0171 468.732 45.7061 468.495 45.4648C468.262 45.2194 467.934 45.0924 467.511 45.084H465.721ZM480.333 48.626H479.159V45.6934H476.004V48.626H474.823V41.7578H476.004V44.7349H479.159V41.7578H480.333V48.626ZM486.465 48.626C486.397 48.4906 486.342 48.2493 486.3 47.9023C485.754 48.4694 485.102 48.7529 484.345 48.7529C483.668 48.7529 483.111 48.5625 482.675 48.1816C482.244 47.7965 482.028 47.3099 482.028 46.7217C482.028 46.0065 482.299 45.4521 482.84 45.0586C483.386 44.6608 484.152 44.4619 485.138 44.4619H486.281V43.9224C486.281 43.5119 486.158 43.186 485.913 42.9448C485.667 42.6994 485.305 42.5767 484.827 42.5767C484.408 42.5767 484.057 42.6825 483.773 42.894C483.49 43.1056 483.348 43.3617 483.348 43.6621H482.167C482.167 43.3193 482.288 42.9893 482.529 42.6719C482.775 42.3503 483.105 42.0964 483.52 41.9102C483.938 41.724 484.398 41.6309 484.897 41.6309C485.688 41.6309 486.308 41.8298 486.757 42.2275C487.205 42.6211 487.438 43.1649 487.455 43.8589V47.02C487.455 47.6506 487.535 48.152 487.696 48.5244V48.626H486.465ZM484.516 47.731C484.884 47.731 485.233 47.6357 485.563 47.4453C485.894 47.2549 486.133 47.0073 486.281 46.7026V45.2935H485.36C483.922 45.2935 483.202 45.7145 483.202 46.5566C483.202 46.9248 483.325 47.2126 483.57 47.4199C483.816 47.6273 484.131 47.731 484.516 47.731ZM495.275 47.7944C495.694 47.7944 496.06 47.6675 496.374 47.4136C496.687 47.1597 496.86 46.8423 496.894 46.4614H498.005C497.984 46.855 497.848 47.2295 497.599 47.585C497.349 47.9404 497.015 48.224 496.596 48.4355C496.181 48.6471 495.741 48.7529 495.275 48.7529C494.34 48.7529 493.595 48.4419 493.041 47.8198C492.491 47.1935 492.216 46.3387 492.216 45.2554V45.0586C492.216 44.39 492.339 43.7954 492.584 43.2749C492.829 42.7544 493.181 42.3503 493.638 42.0625C494.099 41.7747 494.643 41.6309 495.269 41.6309C496.039 41.6309 496.678 41.8615 497.186 42.3228C497.698 42.784 497.971 43.3828 498.005 44.1191H496.894C496.86 43.6748 496.691 43.3109 496.386 43.0273C496.086 42.7396 495.713 42.5957 495.269 42.5957C494.672 42.5957 494.209 42.8115 493.879 43.2432C493.553 43.6706 493.39 44.2905 493.39 45.103V45.3252C493.39 46.1165 493.553 46.7259 493.879 47.1533C494.205 47.5807 494.67 47.7944 495.275 47.7944ZM503.565 48.626C503.498 48.4906 503.443 48.2493 503.4 47.9023C502.854 48.4694 502.203 48.7529 501.445 48.7529C500.768 48.7529 500.212 48.5625 499.776 48.1816C499.344 47.7965 499.128 47.3099 499.128 46.7217C499.128 46.0065 499.399 45.4521 499.941 45.0586C500.487 44.6608 501.253 44.4619 502.239 44.4619H503.381V43.9224C503.381 43.5119 503.259 43.186 503.013 42.9448C502.768 42.6994 502.406 42.5767 501.928 42.5767C501.509 42.5767 501.158 42.6825 500.874 42.894C500.59 43.1056 500.449 43.3617 500.449 43.6621H499.268C499.268 43.3193 499.389 42.9893 499.63 42.6719C499.875 42.3503 500.205 42.0964 500.62 41.9102C501.039 41.724 501.498 41.6309 501.998 41.6309C502.789 41.6309 503.409 41.8298 503.857 42.2275C504.306 42.6211 504.539 43.1649 504.556 43.8589V47.02C504.556 47.6506 504.636 48.152 504.797 48.5244V48.626H503.565ZM501.617 47.731C501.985 47.731 502.334 47.6357 502.664 47.4453C502.994 47.2549 503.233 47.0073 503.381 46.7026V45.2935H502.461C501.022 45.2935 500.303 45.7145 500.303 46.5566C500.303 46.9248 500.425 47.2126 500.671 47.4199C500.916 47.6273 501.232 47.731 501.617 47.731ZM510.84 41.7578H512.014V48.626H510.84V43.6177L507.672 48.626H506.498V41.7578H507.672V46.7725L510.84 41.7578ZM511.157 39.2568C511.157 39.7689 510.982 40.1815 510.63 40.4946C510.283 40.8035 509.826 40.958 509.259 40.958C508.692 40.958 508.233 40.8014 507.882 40.4883C507.531 40.1751 507.355 39.7646 507.355 39.2568H508.313C508.313 39.5531 508.394 39.7858 508.555 39.9551C508.715 40.1201 508.95 40.2026 509.259 40.2026C509.556 40.2026 509.786 40.1201 509.951 39.9551C510.12 39.79 510.205 39.5573 510.205 39.2568H511.157ZM519.003 42.71H516.699V48.626H515.524V42.71H513.265V41.7578H519.003V42.71ZM528.988 48.626H527.813V42.729H524.652V48.626H523.472V41.7578H528.988V48.626ZM535.113 48.626C535.046 48.4906 534.991 48.2493 534.948 47.9023C534.402 48.4694 533.751 48.7529 532.993 48.7529C532.316 48.7529 531.76 48.5625 531.324 48.1816C530.892 47.7965 530.676 47.3099 530.676 46.7217C530.676 46.0065 530.947 45.4521 531.489 45.0586C532.035 44.6608 532.801 44.4619 533.787 44.4619H534.929V43.9224C534.929 43.5119 534.806 43.186 534.561 42.9448C534.316 42.6994 533.954 42.5767 533.476 42.5767C533.057 42.5767 532.705 42.6825 532.422 42.894C532.138 43.1056 531.997 43.3617 531.997 43.6621H530.816C530.816 43.3193 530.937 42.9893 531.178 42.6719C531.423 42.3503 531.753 42.0964 532.168 41.9102C532.587 41.724 533.046 41.6309 533.545 41.6309C534.337 41.6309 534.957 41.8298 535.405 42.2275C535.854 42.6211 536.087 43.1649 536.104 43.8589V47.02C536.104 47.6506 536.184 48.152 536.345 48.5244V48.626H535.113ZM533.165 47.731C533.533 47.731 533.882 47.6357 534.212 47.4453C534.542 47.2549 534.781 47.0073 534.929 46.7026V45.2935H534.009C532.57 45.2935 531.851 45.7145 531.851 46.5566C531.851 46.9248 531.973 47.2126 532.219 47.4199C532.464 47.6273 532.779 47.731 533.165 47.731ZM543.746 45.2681C543.746 46.3133 543.507 47.1554 543.029 47.7944C542.551 48.4334 541.903 48.7529 541.086 48.7529C540.253 48.7529 539.597 48.4884 539.119 47.9595V51.2666H537.944V41.7578H539.017L539.074 42.5195C539.552 41.9271 540.217 41.6309 541.067 41.6309C541.893 41.6309 542.544 41.9419 543.022 42.564C543.505 43.186 543.746 44.0514 543.746 45.1602V45.2681ZM542.572 45.1348C542.572 44.3604 542.407 43.7489 542.077 43.3003C541.747 42.8517 541.294 42.6274 540.718 42.6274C540.007 42.6274 539.474 42.9427 539.119 43.5732V46.855C539.47 47.4813 540.007 47.7944 540.731 47.7944C541.294 47.7944 541.74 47.5723 542.07 47.1279C542.405 46.6794 542.572 46.015 542.572 45.1348ZM547.415 46.9058L549.015 41.7578H550.271L547.51 49.686C547.083 50.8286 546.404 51.3999 545.473 51.3999L545.25 51.3809L544.812 51.2983V50.3462L545.13 50.3716C545.528 50.3716 545.837 50.2912 546.057 50.1304C546.281 49.9696 546.465 49.6755 546.609 49.248L546.869 48.5498L544.419 41.7578H545.701L547.415 46.9058ZM560.161 48.626H558.987V45.6934H555.832V48.626H554.651V41.7578H555.832V44.7349H558.987V41.7578H560.161V48.626ZM561.742 45.1284C561.742 44.4556 561.873 43.8504 562.135 43.313C562.402 42.7756 562.77 42.3608 563.24 42.0688C563.714 41.7769 564.253 41.6309 564.858 41.6309C565.794 41.6309 566.549 41.9546 567.125 42.6021C567.704 43.2495 567.994 44.1107 567.994 45.1855V45.2681C567.994 45.9367 567.865 46.5376 567.607 47.0708C567.353 47.5998 566.987 48.0124 566.509 48.3086C566.035 48.6048 565.489 48.7529 564.871 48.7529C563.94 48.7529 563.185 48.4292 562.605 47.7817C562.029 47.1343 561.742 46.2773 561.742 45.2109V45.1284ZM562.922 45.2681C562.922 46.0298 563.098 46.6413 563.449 47.1025C563.805 47.5638 564.279 47.7944 564.871 47.7944C565.468 47.7944 565.942 47.5617 566.293 47.0962C566.644 46.6265 566.82 45.9705 566.82 45.1284C566.82 44.3752 566.64 43.7658 566.28 43.3003C565.925 42.8306 565.451 42.5957 564.858 42.5957C564.279 42.5957 563.811 42.8263 563.456 43.2876C563.1 43.7489 562.922 44.409 562.922 45.2681ZM569.575 48.626V41.7578H572.253C573.167 41.7578 573.868 41.9186 574.354 42.2402C574.845 42.5576 575.091 43.0252 575.091 43.6431C575.091 43.9604 574.996 44.2482 574.805 44.5063C574.615 44.7603 574.333 44.9549 573.961 45.0903C574.376 45.1877 574.708 45.3781 574.958 45.6616C575.211 45.9451 575.338 46.2837 575.338 46.6772C575.338 47.3078 575.106 47.7902 574.64 48.1245C574.179 48.4588 573.525 48.626 572.679 48.626H569.575ZM570.749 45.6108V47.6802H572.691C573.182 47.6802 573.548 47.5892 573.79 47.4072C574.035 47.2253 574.158 46.9692 574.158 46.6392C574.158 45.9536 573.654 45.6108 572.647 45.6108H570.749ZM570.749 44.6714H572.266C573.366 44.6714 573.917 44.3498 573.917 43.7065C573.917 43.0633 573.396 42.7311 572.355 42.71H570.749V44.6714ZM578.176 44.1255H579.959C580.738 44.134 581.354 44.3371 581.807 44.7349C582.259 45.1326 582.486 45.6722 582.486 46.3535C582.486 47.0391 582.253 47.5892 581.788 48.0039C581.322 48.4186 580.696 48.626 579.909 48.626H577.001V41.7578H578.176V44.1255ZM584.936 48.626H583.755V41.7578H584.936V48.626ZM578.176 45.084V47.6675H579.921C580.361 47.6675 580.702 47.5553 580.943 47.3311C581.185 47.1025 581.305 46.7915 581.305 46.3979C581.305 46.0171 581.187 45.7061 580.95 45.4648C580.717 45.2194 580.389 45.0924 579.966 45.084H578.176ZM589.291 44.2651L590.814 41.7578H592.185L589.938 45.1538L592.255 48.626H590.896L589.31 46.0552L587.723 48.626H586.358L588.675 45.1538L586.428 41.7578H587.786L589.291 44.2651ZM416.761 60.1514C417.625 60.1514 418.314 60.4412 418.831 61.021C419.351 61.5965 419.611 62.3561 419.611 63.2998V63.4077C419.611 64.0552 419.486 64.6349 419.237 65.147C418.987 65.6548 418.627 66.0505 418.158 66.334C417.692 66.6133 417.155 66.7529 416.545 66.7529C415.623 66.7529 414.88 66.4461 414.317 65.8325C413.755 65.2147 413.473 64.3874 413.473 63.3506V62.7793C413.473 61.3363 413.74 60.1895 414.273 59.3389C414.81 58.4883 415.602 57.9699 416.647 57.7837C417.239 57.6779 417.639 57.5488 417.847 57.3965C418.054 57.2441 418.158 57.0347 418.158 56.7681H419.123C419.123 57.297 419.002 57.7096 418.761 58.0059C418.524 58.3021 418.143 58.5116 417.618 58.6343L416.742 58.8311C416.044 58.9961 415.519 59.2754 415.168 59.6689C414.821 60.0583 414.595 60.5788 414.489 61.2305C415.111 60.5111 415.868 60.1514 416.761 60.1514ZM416.533 61.1162C415.957 61.1162 415.5 61.3109 415.162 61.7002C414.823 62.0853 414.654 62.6206 414.654 63.3062V63.4077C414.654 64.144 414.823 64.728 415.162 65.1597C415.504 65.5871 415.966 65.8008 416.545 65.8008C417.129 65.8008 417.591 65.585 417.929 65.1533C418.268 64.7217 418.437 64.0911 418.437 63.2617C418.437 62.6143 418.266 62.0959 417.923 61.7065C417.584 61.313 417.121 61.1162 416.533 61.1162ZM425.172 66.626C425.104 66.4906 425.049 66.2493 425.007 65.9023C424.461 66.4694 423.809 66.7529 423.052 66.7529C422.375 66.7529 421.818 66.5625 421.382 66.1816C420.951 65.7965 420.735 65.3099 420.735 64.7217C420.735 64.0065 421.006 63.4521 421.547 63.0586C422.093 62.6608 422.859 62.4619 423.845 62.4619H424.988V61.9224C424.988 61.5119 424.865 61.186 424.62 60.9448C424.374 60.6994 424.012 60.5767 423.534 60.5767C423.115 60.5767 422.764 60.6825 422.48 60.894C422.197 61.1056 422.055 61.3617 422.055 61.6621H420.875C420.875 61.3193 420.995 60.9893 421.236 60.6719C421.482 60.3503 421.812 60.0964 422.227 59.9102C422.646 59.724 423.105 59.6309 423.604 59.6309C424.395 59.6309 425.015 59.8298 425.464 60.2275C425.912 60.6211 426.145 61.1649 426.162 61.8589V65.02C426.162 65.6506 426.243 66.152 426.403 66.5244V66.626H425.172ZM423.223 65.731C423.591 65.731 423.94 65.6357 424.271 65.4453C424.601 65.2549 424.84 65.0073 424.988 64.7026V63.2935H424.067C422.629 63.2935 421.909 63.7145 421.909 64.5566C421.909 64.9248 422.032 65.2126 422.277 65.4199C422.523 65.6273 422.838 65.731 423.223 65.731ZM433.614 66.626H432.44V63.6934H429.285V66.626H428.104V59.7578H429.285V62.7349H432.44V59.7578H433.614V66.626ZM441.117 66.626H439.943V63.6934H436.788V66.626H435.607V59.7578H436.788V62.7349H439.943V59.7578H441.117V66.626ZM445.859 66.7529C444.928 66.7529 444.17 66.4482 443.586 65.8389C443.002 65.2253 442.71 64.4064 442.71 63.3823V63.1665C442.71 62.4852 442.84 61.8779 443.098 61.3447C443.36 60.8073 443.724 60.3883 444.189 60.0879C444.659 59.7832 445.167 59.6309 445.713 59.6309C446.606 59.6309 447.3 59.925 447.795 60.5132C448.29 61.1014 448.538 61.9435 448.538 63.0396V63.5283H443.885C443.902 64.2054 444.098 64.7534 444.475 65.1724C444.856 65.5871 445.338 65.7944 445.922 65.7944C446.337 65.7944 446.688 65.7098 446.976 65.5405C447.264 65.3713 447.516 65.147 447.731 64.8677L448.449 65.4263C447.873 66.3107 447.01 66.7529 445.859 66.7529ZM445.713 60.5957C445.239 60.5957 444.841 60.7692 444.52 61.1162C444.198 61.459 443.999 61.9414 443.923 62.5635H447.363V62.4746C447.329 61.8779 447.169 61.4167 446.881 61.0908C446.593 60.7607 446.204 60.5957 445.713 60.5957ZM455.704 63.2681C455.704 64.3133 455.465 65.1554 454.987 65.7944C454.509 66.4334 453.861 66.7529 453.044 66.7529C452.211 66.7529 451.555 66.4884 451.077 65.9595V69.2666H449.902V59.7578H450.975L451.032 60.5195C451.51 59.9271 452.175 59.6309 453.025 59.6309C453.851 59.6309 454.502 59.9419 454.98 60.564C455.463 61.186 455.704 62.0514 455.704 63.1602V63.2681ZM454.53 63.1348C454.53 62.3604 454.365 61.7489 454.035 61.3003C453.705 60.8517 453.252 60.6274 452.676 60.6274C451.965 60.6274 451.432 60.9427 451.077 61.5732V64.855C451.428 65.4813 451.965 65.7944 452.689 65.7944C453.252 65.7944 453.698 65.5723 454.028 65.1279C454.363 64.6794 454.53 64.015 454.53 63.1348ZM456.891 63.1284C456.891 62.4556 457.022 61.8504 457.285 61.313C457.551 60.7756 457.919 60.3608 458.389 60.0688C458.863 59.7769 459.403 59.6309 460.008 59.6309C460.943 59.6309 461.698 59.9546 462.274 60.6021C462.854 61.2495 463.144 62.1107 463.144 63.1855V63.2681C463.144 63.9367 463.014 64.5376 462.756 65.0708C462.502 65.5998 462.136 66.0124 461.658 66.3086C461.184 66.6048 460.638 66.7529 460.021 66.7529C459.09 66.7529 458.334 66.4292 457.754 65.7817C457.179 65.1343 456.891 64.2773 456.891 63.2109V63.1284ZM458.072 63.2681C458.072 64.0298 458.247 64.6413 458.599 65.1025C458.954 65.5638 459.428 65.7944 460.021 65.7944C460.617 65.7944 461.091 65.5617 461.442 65.0962C461.794 64.6265 461.969 63.9705 461.969 63.1284C461.969 62.3752 461.789 61.7658 461.43 61.3003C461.074 60.8306 460.6 60.5957 460.008 60.5957C459.428 60.5957 458.96 60.8263 458.605 61.2876C458.25 61.7489 458.072 62.409 458.072 63.2681ZM464.724 66.626V59.7578H467.403C468.317 59.7578 469.017 59.9186 469.504 60.2402C469.995 60.5576 470.24 61.0252 470.24 61.6431C470.24 61.9604 470.145 62.2482 469.955 62.5063C469.764 62.7603 469.483 62.9549 469.11 63.0903C469.525 63.1877 469.857 63.3781 470.107 63.6616C470.361 63.9451 470.488 64.2837 470.488 64.6772C470.488 65.3078 470.255 65.7902 469.79 66.1245C469.328 66.4588 468.674 66.626 467.828 66.626H464.724ZM465.898 63.6108V65.6802H467.841C468.332 65.6802 468.698 65.5892 468.939 65.4072C469.184 65.2253 469.307 64.9692 469.307 64.6392C469.307 63.9536 468.804 63.6108 467.796 63.6108H465.898ZM465.898 62.6714H467.416C468.516 62.6714 469.066 62.3498 469.066 61.7065C469.066 61.0633 468.545 60.7311 467.504 60.71H465.898V62.6714ZM472.068 66.0103C472.068 65.8071 472.128 65.6379 472.246 65.5024C472.369 65.367 472.551 65.2993 472.792 65.2993C473.033 65.2993 473.215 65.367 473.338 65.5024C473.465 65.6379 473.528 65.8071 473.528 66.0103C473.528 66.2049 473.465 66.3678 473.338 66.499C473.215 66.6302 473.033 66.6958 472.792 66.6958C472.551 66.6958 472.369 66.6302 472.246 66.499C472.128 66.3678 472.068 66.2049 472.068 66.0103Z" fill="white"/>
<path d="M642.475 320.488L658.773 302.81C658.773 302.81 635.293 302.81 631.426 302.81H321.773C315.696 302.81 311 307.782 311 313.859V377.392C311 383.469 315.696 388.441 321.773 388.441H631.426C637.503 388.441 642.475 383.745 642.475 377.392V320.488Z" fill="#1A73E8"/>
<path d="M611.299 368.707C611.299 369.062 611.205 369.378 611.016 369.654C610.83 369.931 610.578 370.147 610.259 370.304C610.63 370.463 610.923 370.696 611.138 371.002C611.356 371.308 611.465 371.655 611.465 372.042C611.465 372.657 611.257 373.147 610.84 373.512C610.427 373.876 609.881 374.059 609.204 374.059C608.521 374.059 607.972 373.876 607.559 373.512C607.149 373.144 606.944 372.654 606.944 372.042C606.944 371.658 607.048 371.311 607.256 371.002C607.468 370.693 607.759 370.458 608.13 370.299C607.814 370.143 607.565 369.926 607.383 369.649C607.201 369.373 607.11 369.059 607.11 368.707C607.11 368.108 607.302 367.633 607.686 367.281C608.07 366.93 608.576 366.754 609.204 366.754C609.829 366.754 610.334 366.93 610.718 367.281C611.105 367.633 611.299 368.108 611.299 368.707ZM610.562 372.022C610.562 371.625 610.435 371.301 610.181 371.051C609.93 370.8 609.601 370.675 609.195 370.675C608.788 370.675 608.461 370.799 608.213 371.046C607.969 371.293 607.847 371.619 607.847 372.022C607.847 372.426 607.966 372.743 608.203 372.975C608.444 373.206 608.778 373.321 609.204 373.321C609.628 373.321 609.96 373.206 610.2 372.975C610.441 372.74 610.562 372.423 610.562 372.022ZM609.204 367.496C608.85 367.496 608.561 367.607 608.34 367.828C608.122 368.046 608.013 368.344 608.013 368.722C608.013 369.083 608.12 369.376 608.335 369.601C608.553 369.822 608.843 369.933 609.204 369.933C609.566 369.933 609.854 369.822 610.069 369.601C610.287 369.376 610.396 369.083 610.396 368.722C610.396 368.36 610.283 368.066 610.059 367.838C609.834 367.61 609.549 367.496 609.204 367.496ZM612.666 373.487C612.666 373.331 612.712 373.201 612.803 373.097C612.897 372.993 613.037 372.94 613.223 372.94C613.408 372.94 613.548 372.993 613.643 373.097C613.74 373.201 613.789 373.331 613.789 373.487C613.789 373.637 613.74 373.762 613.643 373.863C613.548 373.964 613.408 374.015 613.223 374.015C613.037 374.015 612.897 373.964 612.803 373.863C612.712 373.762 612.666 373.637 612.666 373.487ZM612.671 369.176C612.671 369.02 612.717 368.889 612.808 368.785C612.902 368.681 613.042 368.629 613.228 368.629C613.413 368.629 613.553 368.681 613.648 368.785C613.745 368.889 613.794 369.02 613.794 369.176C613.794 369.326 613.745 369.451 613.648 369.552C613.553 369.653 613.413 369.703 613.228 369.703C613.042 369.703 612.902 369.653 612.808 369.552C612.717 369.451 612.671 369.326 612.671 369.176ZM619.483 370.929C619.483 371.987 619.302 372.773 618.941 373.287C618.579 373.801 618.015 374.059 617.246 374.059C616.488 374.059 615.926 373.808 615.562 373.307C615.197 372.802 615.008 372.05 614.995 371.051V369.845C614.995 368.8 615.176 368.023 615.537 367.516C615.899 367.008 616.465 366.754 617.237 366.754C618.002 366.754 618.565 367 618.926 367.491C619.287 367.979 619.473 368.735 619.483 369.757V370.929ZM618.579 369.693C618.579 368.928 618.472 368.372 618.257 368.023C618.042 367.672 617.702 367.496 617.237 367.496C616.774 367.496 616.437 367.67 616.226 368.019C616.014 368.367 615.905 368.902 615.899 369.625V371.07C615.899 371.839 616.009 372.407 616.231 372.774C616.455 373.139 616.794 373.321 617.246 373.321C617.692 373.321 618.023 373.149 618.238 372.804C618.456 372.459 618.57 371.915 618.579 371.173V369.693ZM623.609 373.961H622.7V367.94L620.879 368.609V367.789L623.467 366.817H623.609V373.961Z" fill="#D2EAF9"/>
<path d="M332.977 329.415C332.862 330.393 332.501 331.148 331.891 331.681C331.286 332.21 330.48 332.475 329.473 332.475C328.381 332.475 327.505 332.083 326.845 331.3C326.189 330.517 325.861 329.47 325.861 328.158V327.27C325.861 326.41 326.013 325.655 326.318 325.003C326.627 324.352 327.063 323.852 327.626 323.505C328.188 323.154 328.84 322.979 329.581 322.979C330.562 322.979 331.35 323.254 331.942 323.804C332.534 324.35 332.879 325.107 332.977 326.076H331.752C331.646 325.34 331.415 324.807 331.06 324.477C330.708 324.146 330.215 323.981 329.581 323.981C328.802 323.981 328.191 324.269 327.746 324.845C327.306 325.42 327.086 326.239 327.086 327.301V328.196C327.086 329.199 327.296 329.997 327.714 330.589C328.133 331.182 328.72 331.478 329.473 331.478C330.15 331.478 330.668 331.326 331.028 331.021C331.392 330.712 331.633 330.177 331.752 329.415H332.977ZM336.601 329.421H335.744V332.348H334.564V325.479H335.744V328.387H336.512L338.823 325.479H340.245L337.528 328.78L340.473 332.348H338.982L336.601 329.421ZM341.032 328.85C341.032 328.177 341.163 327.572 341.425 327.035C341.692 326.497 342.06 326.083 342.53 325.791C343.004 325.499 343.543 325.353 344.149 325.353C345.084 325.353 345.839 325.676 346.415 326.324C346.994 326.971 347.284 327.832 347.284 328.907V328.99C347.284 329.658 347.155 330.259 346.897 330.792C346.643 331.321 346.277 331.734 345.799 332.03C345.325 332.326 344.779 332.475 344.161 332.475C343.23 332.475 342.475 332.151 341.895 331.503C341.32 330.856 341.032 329.999 341.032 328.933V328.85ZM342.213 328.99C342.213 329.751 342.388 330.363 342.739 330.824C343.095 331.285 343.569 331.516 344.161 331.516C344.758 331.516 345.232 331.283 345.583 330.818C345.934 330.348 346.11 329.692 346.11 328.85C346.11 328.097 345.93 327.487 345.57 327.022C345.215 326.552 344.741 326.317 344.149 326.317C343.569 326.317 343.101 326.548 342.746 327.009C342.39 327.471 342.213 328.131 342.213 328.99ZM354.559 328.99C354.559 330.035 354.32 330.877 353.841 331.516C353.363 332.155 352.716 332.475 351.899 332.475C351.065 332.475 350.409 332.21 349.931 331.681V334.988H348.757V325.479H349.83L349.887 326.241C350.365 325.649 351.029 325.353 351.88 325.353C352.705 325.353 353.357 325.664 353.835 326.286C354.318 326.908 354.559 327.773 354.559 328.882V328.99ZM353.384 328.856C353.384 328.082 353.219 327.471 352.889 327.022C352.559 326.573 352.106 326.349 351.531 326.349C350.82 326.349 350.287 326.664 349.931 327.295V330.577C350.283 331.203 350.82 331.516 351.544 331.516C352.106 331.516 352.553 331.294 352.883 330.85C353.217 330.401 353.384 329.737 353.384 328.856ZM355.746 328.85C355.746 328.177 355.877 327.572 356.139 327.035C356.406 326.497 356.774 326.083 357.244 325.791C357.718 325.499 358.257 325.353 358.862 325.353C359.798 325.353 360.553 325.676 361.129 326.324C361.708 326.971 361.998 327.832 361.998 328.907V328.99C361.998 329.658 361.869 330.259 361.611 330.792C361.357 331.321 360.991 331.734 360.513 332.03C360.039 332.326 359.493 332.475 358.875 332.475C357.944 332.475 357.189 332.151 356.609 331.503C356.033 330.856 355.746 329.999 355.746 328.933V328.85ZM356.926 328.99C356.926 329.751 357.102 330.363 357.453 330.824C357.809 331.285 358.283 331.516 358.875 331.516C359.472 331.516 359.946 331.283 360.297 330.818C360.648 330.348 360.824 329.692 360.824 328.85C360.824 328.097 360.644 327.487 360.284 327.022C359.929 326.552 359.455 326.317 358.862 326.317C358.283 326.317 357.815 326.548 357.46 327.009C357.104 327.471 356.926 328.131 356.926 328.99ZM366.803 332.348V325.479H369.482C370.396 325.479 371.096 325.64 371.583 325.962C372.074 326.279 372.319 326.747 372.319 327.365C372.319 327.682 372.224 327.97 372.034 328.228C371.843 328.482 371.562 328.677 371.19 328.812C371.604 328.909 371.936 329.1 372.186 329.383C372.44 329.667 372.567 330.005 372.567 330.399C372.567 331.029 372.334 331.512 371.869 331.846C371.408 332.181 370.754 332.348 369.907 332.348H366.803ZM367.978 329.333V331.402H369.92C370.411 331.402 370.777 331.311 371.018 331.129C371.264 330.947 371.386 330.691 371.386 330.361C371.386 329.675 370.883 329.333 369.876 329.333H367.978ZM367.978 328.393H369.495C370.595 328.393 371.145 328.071 371.145 327.428C371.145 326.785 370.625 326.453 369.584 326.432H367.978V328.393ZM376.877 331.516C377.296 331.516 377.662 331.389 377.975 331.135C378.288 330.881 378.462 330.564 378.496 330.183H379.607C379.585 330.577 379.45 330.951 379.2 331.307C378.951 331.662 378.616 331.946 378.197 332.157C377.783 332.369 377.343 332.475 376.877 332.475C375.942 332.475 375.197 332.164 374.643 331.542C374.093 330.915 373.818 330.06 373.818 328.977V328.78C373.818 328.112 373.94 327.517 374.186 326.997C374.431 326.476 374.782 326.072 375.239 325.784C375.701 325.496 376.244 325.353 376.871 325.353C377.641 325.353 378.28 325.583 378.788 326.044C379.3 326.506 379.573 327.104 379.607 327.841H378.496C378.462 327.396 378.293 327.033 377.988 326.749C377.687 326.461 377.315 326.317 376.871 326.317C376.274 326.317 375.811 326.533 375.481 326.965C375.155 327.392 374.992 328.012 374.992 328.825V329.047C374.992 329.838 375.155 330.448 375.481 330.875C375.806 331.302 376.272 331.516 376.877 331.516ZM383.777 332.475C382.846 332.475 382.089 332.17 381.505 331.561C380.921 330.947 380.629 330.128 380.629 329.104V328.888C380.629 328.207 380.758 327.6 381.016 327.066C381.278 326.529 381.642 326.11 382.108 325.81C382.577 325.505 383.085 325.353 383.631 325.353C384.524 325.353 385.218 325.647 385.713 326.235C386.208 326.823 386.456 327.665 386.456 328.761V329.25H381.803C381.82 329.927 382.017 330.475 382.393 330.894C382.774 331.309 383.256 331.516 383.84 331.516C384.255 331.516 384.606 331.431 384.894 331.262C385.182 331.093 385.434 330.869 385.65 330.589L386.367 331.148C385.791 332.032 384.928 332.475 383.777 332.475ZM383.631 326.317C383.157 326.317 382.759 326.491 382.438 326.838C382.116 327.181 381.917 327.663 381.841 328.285H385.281V328.196C385.248 327.6 385.087 327.138 384.799 326.812C384.511 326.482 384.122 326.317 383.631 326.317ZM391.153 332.348V325.479H393.832C394.746 325.479 395.446 325.64 395.933 325.962C396.424 326.279 396.669 326.747 396.669 327.365C396.669 327.682 396.574 327.97 396.383 328.228C396.193 328.482 395.912 328.677 395.539 328.812C395.954 328.909 396.286 329.1 396.536 329.383C396.79 329.667 396.917 330.005 396.917 330.399C396.917 331.029 396.684 331.512 396.218 331.846C395.757 332.181 395.103 332.348 394.257 332.348H391.153ZM392.327 329.333V331.402H394.27C394.761 331.402 395.127 331.311 395.368 331.129C395.613 330.947 395.736 330.691 395.736 330.361C395.736 329.675 395.232 329.333 394.225 329.333H392.327ZM392.327 328.393H393.844C394.945 328.393 395.495 328.071 395.495 327.428C395.495 326.785 394.974 326.453 393.933 326.432H392.327V328.393ZM399.754 327.847H401.538C402.316 327.856 402.932 328.059 403.385 328.457C403.838 328.854 404.064 329.394 404.064 330.075C404.064 330.761 403.831 331.311 403.366 331.726C402.9 332.14 402.274 332.348 401.487 332.348H398.58V325.479H399.754V327.847ZM406.514 332.348H405.334V325.479H406.514V332.348ZM399.754 328.806V331.389H401.5C401.94 331.389 402.28 331.277 402.522 331.053C402.763 330.824 402.883 330.513 402.883 330.12C402.883 329.739 402.765 329.428 402.528 329.187C402.295 328.941 401.967 328.814 401.544 328.806H399.754ZM409.847 325.479V331.389H412.36V325.479H413.535V331.389H416.042V325.479H417.223V332.348H408.666V325.479H409.847ZM424.707 325.479V332.348H423.526V326.451H421.19L421.05 329.021C420.974 330.202 420.775 331.046 420.454 331.554C420.136 332.062 419.631 332.326 418.937 332.348H418.467V331.313L418.803 331.288C419.184 331.245 419.457 331.025 419.622 330.627C419.787 330.23 419.893 329.493 419.94 328.418L420.067 325.479H424.707ZM427.874 328.393H429.525C429.613 327.479 429.937 326.745 430.496 326.19C431.059 325.632 431.767 325.353 432.622 325.353C433.519 325.353 434.254 325.655 434.825 326.26C435.396 326.865 435.705 327.653 435.752 328.622L435.758 328.99C435.758 329.658 435.627 330.261 435.364 330.799C435.102 331.336 434.734 331.751 434.26 332.043C433.786 332.331 433.244 332.475 432.635 332.475C431.75 332.475 431.027 332.187 430.464 331.611C429.901 331.032 429.586 330.28 429.518 329.358H427.874V332.348H426.7V325.479H427.874V328.393ZM430.68 328.99C430.68 329.751 430.855 330.363 431.207 330.824C431.562 331.285 432.038 331.516 432.635 331.516C433.232 331.516 433.703 331.281 434.05 330.812C434.402 330.342 434.577 329.688 434.577 328.85C434.577 328.101 434.4 327.492 434.044 327.022C433.689 326.552 433.215 326.317 432.622 326.317C432.038 326.317 431.568 326.548 431.213 327.009C430.858 327.471 430.68 328.131 430.68 328.99ZM437.231 331.732C437.231 331.529 437.29 331.36 437.408 331.224C437.531 331.089 437.713 331.021 437.954 331.021C438.195 331.021 438.377 331.089 438.5 331.224C438.627 331.36 438.691 331.529 438.691 331.732C438.691 331.927 438.627 332.09 438.5 332.221C438.377 332.352 438.195 332.417 437.954 332.417C437.713 332.417 437.531 332.352 437.408 332.221C437.29 332.09 437.231 331.927 437.231 331.732ZM332.977 364.415C332.862 365.393 332.501 366.148 331.891 366.681C331.286 367.21 330.48 367.475 329.473 367.475C328.381 367.475 327.505 367.083 326.845 366.3C326.189 365.517 325.861 364.47 325.861 363.158V362.27C325.861 361.41 326.013 360.655 326.318 360.003C326.627 359.352 327.063 358.852 327.626 358.505C328.188 358.154 328.84 357.979 329.581 357.979C330.562 357.979 331.35 358.254 331.942 358.804C332.534 359.35 332.879 360.107 332.977 361.076H331.752C331.646 360.34 331.415 359.807 331.06 359.477C330.708 359.146 330.215 358.981 329.581 358.981C328.802 358.981 328.191 359.269 327.746 359.845C327.306 360.42 327.086 361.239 327.086 362.301V363.196C327.086 364.199 327.296 364.997 327.714 365.589C328.133 366.182 328.72 366.478 329.473 366.478C330.15 366.478 330.668 366.326 331.028 366.021C331.392 365.712 331.633 365.177 331.752 364.415H332.977ZM340.08 367.348H338.905V361.451H335.744V367.348H334.564V360.479H340.08V367.348ZM346.205 367.348C346.137 367.212 346.082 366.971 346.04 366.624C345.494 367.191 344.843 367.475 344.085 367.475C343.408 367.475 342.852 367.284 342.416 366.903C341.984 366.518 341.768 366.032 341.768 365.443C341.768 364.728 342.039 364.174 342.581 363.78C343.127 363.382 343.893 363.184 344.879 363.184H346.021V362.644C346.021 362.234 345.898 361.908 345.653 361.667C345.408 361.421 345.046 361.298 344.568 361.298C344.149 361.298 343.797 361.404 343.514 361.616C343.23 361.827 343.089 362.083 343.089 362.384H341.908C341.908 362.041 342.028 361.711 342.27 361.394C342.515 361.072 342.845 360.818 343.26 360.632C343.679 360.446 344.138 360.353 344.637 360.353C345.429 360.353 346.049 360.551 346.497 360.949C346.946 361.343 347.179 361.887 347.195 362.581V365.742C347.195 366.372 347.276 366.874 347.437 367.246V367.348H346.205ZM344.256 366.453C344.625 366.453 344.974 366.357 345.304 366.167C345.634 365.977 345.873 365.729 346.021 365.424V364.015H345.101C343.662 364.015 342.943 364.436 342.943 365.278C342.943 365.646 343.065 365.934 343.311 366.142C343.556 366.349 343.871 366.453 344.256 366.453ZM351.791 366.516C352.21 366.516 352.576 366.389 352.889 366.135C353.202 365.881 353.376 365.564 353.41 365.183H354.521C354.499 365.577 354.364 365.951 354.114 366.307C353.865 366.662 353.53 366.946 353.111 367.157C352.697 367.369 352.257 367.475 351.791 367.475C350.856 367.475 350.111 367.164 349.557 366.542C349.007 365.915 348.732 365.06 348.732 363.977V363.78C348.732 363.112 348.854 362.517 349.1 361.997C349.345 361.476 349.696 361.072 350.153 360.784C350.615 360.496 351.158 360.353 351.785 360.353C352.555 360.353 353.194 360.583 353.702 361.044C354.214 361.506 354.487 362.104 354.521 362.841H353.41C353.376 362.396 353.207 362.033 352.902 361.749C352.602 361.461 352.229 361.317 351.785 361.317C351.188 361.317 350.725 361.533 350.395 361.965C350.069 362.392 349.906 363.012 349.906 363.825V364.047C349.906 364.838 350.069 365.448 350.395 365.875C350.72 366.302 351.186 366.516 351.791 366.516ZM360.284 360.479H361.459V367.348H360.284V362.339L357.117 367.348H355.943V360.479H357.117V365.494L360.284 360.479ZM366.359 360.873C367.222 360.873 367.912 361.163 368.428 361.743C368.949 362.318 369.209 363.078 369.209 364.021V364.129C369.209 364.777 369.084 365.357 368.835 365.869C368.585 366.376 368.225 366.772 367.755 367.056C367.29 367.335 366.753 367.475 366.143 367.475C365.221 367.475 364.478 367.168 363.915 366.554C363.352 365.936 363.071 365.109 363.071 364.072V363.501C363.071 362.058 363.338 360.911 363.871 360.061C364.408 359.21 365.2 358.692 366.245 358.505C366.837 358.4 367.237 358.271 367.444 358.118C367.652 357.966 367.755 357.756 367.755 357.49H368.72C368.72 358.019 368.6 358.431 368.359 358.728C368.122 359.024 367.741 359.233 367.216 359.356L366.34 359.553C365.642 359.718 365.117 359.997 364.766 360.391C364.419 360.78 364.192 361.3 364.087 361.952C364.709 361.233 365.466 360.873 366.359 360.873ZM366.13 361.838C365.555 361.838 365.098 362.033 364.759 362.422C364.421 362.807 364.252 363.342 364.252 364.028V364.129C364.252 364.866 364.421 365.45 364.759 365.881C365.102 366.309 365.563 366.522 366.143 366.522C366.727 366.522 367.188 366.307 367.527 365.875C367.866 365.443 368.035 364.813 368.035 363.983C368.035 363.336 367.863 362.818 367.521 362.428C367.182 362.035 366.719 361.838 366.13 361.838ZM370.218 363.85C370.218 363.177 370.35 362.572 370.612 362.035C370.879 361.497 371.247 361.083 371.716 360.791C372.19 360.499 372.73 360.353 373.335 360.353C374.27 360.353 375.026 360.676 375.601 361.324C376.181 361.971 376.471 362.832 376.471 363.907V363.99C376.471 364.658 376.342 365.259 376.084 365.792C375.83 366.321 375.464 366.734 374.985 367.03C374.512 367.326 373.966 367.475 373.348 367.475C372.417 367.475 371.661 367.151 371.082 366.503C370.506 365.856 370.218 364.999 370.218 363.933V363.85ZM371.399 363.99C371.399 364.751 371.575 365.363 371.926 365.824C372.281 366.285 372.755 366.516 373.348 366.516C373.944 366.516 374.418 366.283 374.77 365.818C375.121 365.348 375.297 364.692 375.297 363.85C375.297 363.097 375.117 362.487 374.757 362.022C374.401 361.552 373.928 361.317 373.335 361.317C372.755 361.317 372.288 361.548 371.932 362.009C371.577 362.471 371.399 363.131 371.399 363.99ZM380.654 363.66C380.654 364.603 380.529 365.509 380.279 366.376C380.034 367.24 379.655 368.037 379.143 368.77C378.635 369.502 378.102 370.022 377.544 370.331L377.296 369.614C377.948 369.114 378.47 368.34 378.864 367.291C379.262 366.237 379.465 365.069 379.473 363.787V363.583C379.473 362.695 379.38 361.87 379.194 361.108C379.008 360.342 378.748 359.656 378.413 359.051C378.083 358.446 377.711 357.974 377.296 357.636L377.544 356.918C378.102 357.227 378.633 357.744 379.137 358.467C379.645 359.191 380.023 359.989 380.273 360.86C380.527 361.732 380.654 362.665 380.654 363.66Z" fill="white"/>
</g>
<defs>
<filter id="filter0_d_2574_9931" x="0" y="0.751465" width="683.773" height="417.689" filterUnits="userSpaceOnUse" color-interpolation-filters="sRGB">
<feFlood flood-opacity="0" result="BackgroundImageFix"/>
<feColorMatrix in="SourceAlpha" type="matrix" values="0 0 0 0 0 0 0 0 0 0 0 0 0 0 0 0 0 0 127 0" result="hardAlpha"/>
<feOffset dx="7" dy="12"/>
<feGaussianBlur stdDeviation="9"/>
<feColorMatrix type="matrix" values="0 0 0 0 0 0 0 0 0 0 0 0 0 0 0 0 0 0 0.35 0"/>
<feBlend mode="normal" in2="BackgroundImageFix" result="effect1_dropShadow_2574_9931"/>
<feBlend mode="normal" in="SourceGraphic" in2="effect1_dropShadow_2574_9931" result="shape"/>
</filter>
</defs>
</svg>
