<svg width="30" height="14" viewBox="0 0 30 14" fill="none" xmlns="http://www.w3.org/2000/svg">
<path d="M30 6.99998C30 8.38443 29.5743 9.73778 28.7768 10.8889C27.9792 12.04 26.8457 12.9372 25.5195 13.467C24.1932 13.9968 22.7339 14.1354 21.326 13.8653C19.9181 13.5953 18.6248 12.9286 17.6098 11.9496C17.5891 11.9297 17.569 11.9091 17.5495 11.8879L10.3084 4.00248C9.69617 3.42299 8.92012 3.03079 8.07762 2.8751C7.23512 2.71941 6.36371 2.80717 5.57273 3.12735C4.78175 3.44753 4.10643 3.98589 3.63152 4.67485C3.15662 5.36382 2.90327 6.17272 2.90327 7.00004C2.90327 7.82736 3.15662 8.63626 3.63152 9.32522C4.10643 10.0142 4.78175 10.5525 5.57273 10.8727C6.36371 11.1929 7.23512 11.2807 8.07762 11.125C8.92012 10.9693 9.69617 10.5771 10.3084 9.9976L10.6816 9.59113C10.9368 9.31317 11.2961 9.14438 11.6804 9.1219C12.0647 9.09942 12.4425 9.22508 12.7307 9.47126C13.0189 9.71743 13.194 10.0639 13.2173 10.4346C13.2406 10.8052 13.1103 11.1696 12.855 11.4475L12.4505 11.8879C12.4312 11.9091 12.4111 11.9297 12.3903 11.9498C11.3752 12.9287 10.0819 13.5954 8.67402 13.8655C7.2661 14.1356 5.80674 13.997 4.48051 13.4672C3.15428 12.9373 2.02072 12.0401 1.2232 10.889C0.425677 9.73787 0 8.3845 0 7.00004C0 5.61558 0.425677 4.26221 1.2232 3.11108C2.02072 1.95994 3.15428 1.06274 4.48051 0.532927C5.80674 0.00311559 7.2661 -0.135509 8.67402 0.134584C10.0819 0.404676 11.3752 1.07135 12.3903 2.05031C12.411 2.0703 12.4311 2.09091 12.4505 2.11214L19.6916 9.9976C20.3039 10.5771 21.0799 10.9693 21.9224 11.1249C22.7649 11.2806 23.6363 11.1928 24.4273 10.8727C25.2183 10.5525 25.8936 10.0141 26.3685 9.32515C26.8434 8.63618 27.0967 7.8273 27.0967 6.99998C27.0967 6.17267 26.8434 5.36378 26.3685 4.67481C25.8936 3.98585 25.2183 3.4475 24.4273 3.12731C23.6363 2.80712 22.7649 2.71936 21.9224 2.87503C21.0799 3.03071 20.3039 3.42289 19.6916 4.00237L19.3184 4.40883C19.1921 4.54646 19.0388 4.65874 18.8674 4.73925C18.696 4.81977 18.5099 4.86693 18.3196 4.87807C18.1293 4.8892 17.9387 4.86407 17.7584 4.80413C17.5782 4.74419 17.412 4.6506 17.2693 4.5287C17.1266 4.40681 17.0102 4.25901 16.9267 4.09372C16.8432 3.92844 16.7943 3.74891 16.7828 3.5654C16.7595 3.19478 16.8898 2.83041 17.145 2.55244L17.5495 2.11203C17.5689 2.09087 17.589 2.07026 17.6098 2.0502C18.6248 1.07125 19.9181 0.404578 21.326 0.134495C22.7339 -0.135589 24.1933 0.00304311 25.5195 0.53286C26.8458 1.06268 27.9793 1.95988 28.7768 3.11102C29.5743 4.26216 30 5.61552 30 6.99998Z" fill="#1A73E8"/>
</svg>
