<svg width="19" height="14" viewBox="0 0 19 14" fill="none" xmlns="http://www.w3.org/2000/svg">
<path fill-rule="evenodd" clip-rule="evenodd" d="M15.3107 0.561235C15.6081 0.266437 16.0095 0.100527 16.4283 0.0993713C16.847 0.098216 17.2494 0.261909 17.5484 0.555061C17.8474 0.848213 18.0191 1.24727 18.0262 1.66596C18.0333 2.08464 17.8754 2.48931 17.5865 2.79249L9.10354 13.3962C8.95775 13.5533 8.78179 13.6793 8.58618 13.7668C8.39056 13.8542 8.17932 13.9014 7.96508 13.9053C7.75084 13.9093 7.53799 13.87 7.33928 13.7899C7.14056 13.7097 6.96005 13.5903 6.80854 13.4387L1.18792 7.81599C1.03133 7.67008 0.905743 7.49413 0.818635 7.29863C0.731527 7.10313 0.684688 6.89209 0.680912 6.6781C0.677136 6.4641 0.716502 6.25154 0.796659 6.05309C0.876816 5.85464 0.996123 5.67437 1.14746 5.52303C1.2988 5.37169 1.47907 5.25238 1.67752 5.17222C1.87597 5.09207 2.08854 5.0527 2.30253 5.05648C2.51652 5.06025 2.72756 5.10709 2.92306 5.1942C3.11856 5.28131 3.29451 5.4069 3.44042 5.56349L7.89017 10.0111L15.2703 0.607986C15.2835 0.591525 15.2977 0.57591 15.3128 0.561235H15.3107Z" fill="#333333"/>
</svg>
