<svg width="18" height="20" viewBox="0 0 18 20" fill="none" xmlns="http://www.w3.org/2000/svg">
<path d="M7.00003 0.399902C7.15916 0.399902 7.31177 0.463117 7.42429 0.575638C7.53681 0.68816 7.60003 0.840772 7.60003 0.999902V3.3999C7.60003 3.55903 7.53681 3.71164 7.42429 3.82417C7.31177 3.93669 7.15916 3.9999 7.00003 3.9999C6.8409 3.9999 6.68828 3.93669 6.57576 3.82417C6.46324 3.71164 6.40003 3.55903 6.40003 3.3999V0.999902C6.40003 0.840772 6.46324 0.68816 6.57576 0.575638C6.68828 0.463117 6.8409 0.399902 7.00003 0.399902ZM2.33202 2.3319C2.38776 2.27603 2.45397 2.2317 2.52686 2.20145C2.59976 2.1712 2.6779 2.15563 2.75682 2.15563C2.83575 2.15563 2.91389 2.1712 2.98678 2.20145C3.05968 2.2317 3.12589 2.27603 3.18162 2.3319L4.87843 4.0299C4.93573 4.08525 4.98144 4.15146 5.01289 4.22466C5.04433 4.29786 5.06088 4.37659 5.06158 4.45626C5.06227 4.53593 5.04709 4.61494 5.01692 4.68867C4.98675 4.76241 4.9422 4.8294 4.88586 4.88574C4.82953 4.94207 4.76254 4.98663 4.6888 5.0168C4.61506 5.04696 4.53605 5.06215 4.45638 5.06145C4.37672 5.06076 4.29798 5.04421 4.22478 5.01276C4.15158 4.98132 4.08537 4.93561 4.03003 4.8783L2.33322 3.1815C2.22074 3.06899 2.15755 2.9164 2.15755 2.7573C2.15755 2.5982 2.22074 2.44562 2.33322 2.3331L2.33202 2.3319ZM11.668 2.3319C11.7239 2.38764 11.7682 2.45385 11.7985 2.52674C11.8287 2.59964 11.8443 2.67778 11.8443 2.7567C11.8443 2.83562 11.8287 2.91377 11.7985 2.98666C11.7682 3.05956 11.7239 3.12577 11.668 3.1815L9.96883 4.8783C9.91348 4.93561 9.84727 4.98132 9.77407 5.01276C9.70087 5.04421 9.62213 5.06076 9.54247 5.06145C9.4628 5.06215 9.38379 5.04696 9.31005 5.0168C9.23632 4.98663 9.16932 4.94207 9.11299 4.88574C9.05665 4.8294 9.0121 4.76241 8.98193 4.68867C8.95176 4.61494 8.93658 4.53593 8.93728 4.45626C8.93797 4.37659 8.95452 4.29786 8.98596 4.22466C9.01741 4.15146 9.06312 4.08525 9.12043 4.0299L10.8172 2.3331C10.9297 2.22062 11.0823 2.15743 11.2414 2.15743C11.4005 2.15743 11.5531 2.22062 11.6656 2.3331L11.668 2.3319ZM0.400024 6.9999C0.400024 6.84077 0.463239 6.68816 0.57576 6.57564C0.688282 6.46312 0.840895 6.3999 1.00002 6.3999H3.40002C3.55915 6.3999 3.71177 6.46312 3.82429 6.57564C3.93681 6.68816 4.00002 6.84077 4.00002 6.9999C4.00002 7.15903 3.93681 7.31164 3.82429 7.42417C3.71177 7.53669 3.55915 7.5999 3.40002 7.5999H1.00002C0.840895 7.5999 0.688282 7.53669 0.57576 7.42417C0.463239 7.31164 0.400024 7.15903 0.400024 6.9999ZM8.36803 6.7599C8.1929 6.61404 7.97986 6.52106 7.75382 6.49185C7.52779 6.46264 7.29811 6.4984 7.09165 6.59496C6.8852 6.69151 6.71052 6.84486 6.58803 7.03707C6.46555 7.22927 6.40034 7.45239 6.40003 7.6803V18.6015C6.40003 19.7103 7.77403 20.2263 8.50363 19.3923L10.9348 16.6131C11.1039 16.4203 11.3123 16.2658 11.5459 16.1601C11.7796 16.0543 12.0332 15.9997 12.2896 15.9999H16.1428C17.2648 15.9999 17.7736 14.5959 16.9108 13.8783L8.36803 6.7587V6.7599ZM7.60003 18.6039V7.6803L16.1428 14.7999H12.2896C11.8619 14.7998 11.4391 14.8913 11.0496 15.068C10.6601 15.2448 10.3128 15.5028 10.0312 15.8247L7.60003 18.6027V18.6039Z" fill="black"/>
</svg>
